<?xml version="1.0" encoding="utf-8"?>
<svg version="1.1" xmlns:xlink="http://www.w3.org/1999/xlink" width="8px" height="13px" xmlns="http://www.w3.org/2000/svg">
  <g transform="matrix(1 0 0 1 -3201 -444 )">
    <path d="M 7.853043744264301 6.78846425159065  L 1.775344141939431 6.78846425159065  C 1.775344141939431 6.78846425159065  1.775344141939431 7.483280551576054  1.775344141939431 7.483280551576054  C 1.775344141939431 10.54063927673893  2.4924135821352094 11.55549425403376  4.172866319975528 11.55549425403376  C 5.5333741205262115 11.55549425403376  6.103609666564699 10.330108312524562  6.323982869379015 9.193100940666145  C 6.323982869379015 9.193100940666145  8 9.391002134592936  8 9.391002134592936  C 7.727929030284548 11.264875336791963  6.272162740899358 12.999999999999973  3.9265524625267667 12.999999999999973  C 1.2310186601407729 12.999999999999973  0 11.024969346052925  0 6.497875156710805  C 0 1.9707958785495778  1.2310186601407729 0  3.9265524625267667 0  C 6.643652493117161 0  7.853043744264301 2.3539834072966146  7.853043744264301 5.967245870463185  C 7.853043744264301 5.967245870463185  7.853043744264301 6.78846425159065  7.853043744264301 6.78846425159065  Z M 1.775344141939431 5.339783374950877  C 1.775344141939431 5.339783374950877  6.0691342918323645 5.339783374950877  6.0691342918323645 5.339783374950877  C 6.0258794738452695 2.6488072775739555  5.5333741205262115 1.4443268117945147  3.9265524625267667 1.4443268117945147  C 2.643652493117161 1.4443268117945147  1.801315386968492 2.3539834072966146  1.775344141939431 5.339783374950877  Z " fill-rule="nonzero" fill="#7f7f7f" stroke="none" transform="matrix(1 0 0 1 3201 444 )" />
  </g>
</svg>