<?xml version="1.0" encoding="utf-8"?>
<svg version="1.1" xmlns:xlink="http://www.w3.org/1999/xlink" width="14px" height="26px" xmlns="http://www.w3.org/2000/svg">
  <g transform="matrix(1 0 0 1 -3287 -328 )">
    <path d="M 0 26  L 0 0  C 0 0  7.115604603096525 0  7.115604603096525 0  C 11.115489900672111 0  13.409238397960062 2.5932281270096187  13.409238397960062 6.4099560017594674  C 13.409238397960062 8.9996120858353  12.223916778979515 11.346699439256222  9.335793553282585 12.170670687427743  C 9.335793553282585 12.170670687427743  9.335793553282585 12.242051511768462  9.335793553282585 12.242051511768462  C 12.561543365236783 13.069534768538803  14 15.555796719123618  14 18.798191119305542  C 14 23.620869320261242  11.258779698553205 26  5.405391455110545 26  C 5.405391455110545 26  0 26  0 26  Z M 2.888061462852958 2.379190714073752  L 2.888061462852958 11.161238369790752  C 2.888061462852958 11.161238369790752  4.5211019373681225 11.161238369790752  4.5211019373681225 11.161238369790752  C 8.6716576926725 11.161238369790752  10.521115172263245 9.937798656385374  10.521115172263245 6.4099560017594674  C 10.521115172263245 3.4600038560515745  9.185277502663522 2.379190714073752  5.776122925705973 2.379190714073752  C 5.776122925705973 2.379190714073752  2.888061462852958 2.379190714073752  2.888061462852958 2.379190714073752  Z M 3 13.540354040945726  L 3 23.620869320261242  C 3 23.620869320261242  5.776122925705973 23.620869320261242  5.776122925705973 23.620869320261242  C 9.258775286921498 23.620869320261242  11.115489900672111 22.144114730232253  11.115489900672111 18.798191119305542  C 11.115489900672111 15.373877675424367  9.552303202624095 13.540354040945726  5.776122925705973 13.540354040945726  C 5.776122925705973 13.540354040945726  3 13.540354040945726  3 13.540354040945726  Z " fill-rule="nonzero" fill="#efebdf" stroke="none" transform="matrix(1 0 0 1 3287 328 )" />
  </g>
</svg>