<?xml version="1.0" encoding="utf-8"?>
<svg version="1.1" xmlns:xlink="http://www.w3.org/1999/xlink" width="11px" height="19px" xmlns="http://www.w3.org/2000/svg">
  <g transform="matrix(1 0 0 1 -3359 -335 )">
    <path d="M 0 19  L 0 0.358658602763671  L 2.495717398312584 0.358658602763671  C 2.495717398312584 0.358658602763671  2.495717398312584 2.4007204033000136  2.495717398312584 2.4007204033000136  C 3.7380887535156258 1.1435175499996069  5.576394833086919 0  6.818705047967419 0  C 9.46323799148482 0  11 1.4312124953794816  11 4.87244929257337  C 11 4.87244929257337  11 19  11 19  L 8.366197183098592 19  C 8.366197183098592 19  8.366197183098592 5.2311377810634605  8.366197183098592 5.2311377810634605  C 8.366197183098592 3.082593137293454  7.701540736129484 2.148544643769978  6.273853063130162 2.148544643769978  C 4.987735807107841 2.148544643769978  3.810754026923975 3.0080282498761317  2.6410479451293396 4.442737375246726  C 2.6410479451293396 4.442737375246726  2.6410479451293396 19  2.6410479451293396 19  L 0 19  Z " fill-rule="nonzero" fill="#efebdf" stroke="none" transform="matrix(1 0 0 1 3359 335 )" />
  </g>
</svg>