<?xml version="1.0" encoding="utf-8"?>
<svg version="1.1" xmlns:xlink="http://www.w3.org/1999/xlink" width="7px" height="18px" xmlns="http://www.w3.org/2000/svg">
  <g transform="matrix(1 0 0 1 -3261 -440 )">
    <path d="M 0 18.00000000000003  L 0 0  L 1.6814961020085106 0  C 1.6814961020085106 0  1.6814961020085106 6.459402926681921  1.6814961020085106 6.459402926681921  C 2.3796577695560255 5.587117520282207  3.5468254492600417 4.789006410696363  4.338638015327749 4.789006410696363  C 6.020365354122621 4.789006410696363  7 5.7833713124768344  7 8.177889961151426  C 7 8.177889961151426  7 18.00000000000003  7 18.00000000000003  L 5.318301565803383 18.00000000000003  C 5.318301565803383 18.00000000000003  5.318301565803383 8.430820761321703  5.318301565803383 8.430820761321703  C 5.318301565803383 6.934779400661661  4.8980287063953485 6.2848933380921945  3.987736191860519 6.2848933380921945  C 3.1714125264270616 6.2848933380921945  2.428622159090963 6.886812428789135  1.6814961020085106 7.881300877180912  C 1.6814961020085106 7.881300877180912  1.6814961020085106 18.00000000000003  1.6814961020085106 18.00000000000003  L 0 18.00000000000003  Z " fill-rule="nonzero" fill="#7f7f7f" stroke="none" transform="matrix(1 0 0 1 3261 440 )" />
  </g>
</svg>