<?xml version="1.0" encoding="utf-8"?>
<svg version="1.1" xmlns:xlink="http://www.w3.org/1999/xlink" width="8px" height="13px" xmlns="http://www.w3.org/2000/svg">
  <g transform="matrix(1 0 0 1 -3274 -444 )">
    <path d="M 1.933213741546693 3.8953074513465924  C 1.933213741546693 3.8953074513465924  0.3391102671300782 3.6552970823407436  0.3391102671300782 3.6552970823407436  C 0.6782505573027857 1.6886614232836665  1.8442554660702088 0  4.069953689456658 0  C 6.397460050588827 0  7.681935885792345 1.3475681584347112  7.681935885792345 3.5626240925686115  C 7.681935885792345 3.5626240925686115  7.681935885792345 10.54063927673893  7.681935885792345 10.54063927673893  C 7.681935885792345 11.65246166392727  7.805060383844601 12.473545844425914  8 12.755695210872748  C 8 12.755695210872748  6.181384212383004 12.755695210872748  6.181384212383004 12.755695210872748  C 6.181384212383004 12.755695210872748  5.960744871689077 11.698716147317851  5.960744871689077 11.698716147317851  C 5.282464291343662 12.376682812799299  4.069953689456658 12.999999999999973  3.268668703229729 12.999999999999973  C 1.3099653984433053 12.999999999999973  0 11.745075008975356  0 9.769999621485379  C 0 6.691526664059149  3.412749285076352 5.125047457700994  5.935315354534605 4.573348672732896  C 5.935315354534605 4.573348672732896  5.935315354534605 3.680541711734783  5.935315354534605 3.680541711734783  C 5.935315354534605 2.3076543680010366  5.231605257034774 1.4443268117945147  4.116609497789609 1.4443268117945147  C 2.7852676929543985 1.4443268117945147  2.1280332655312955 2.762519943704557  1.933213741546693 3.8953074513465924  Z M 5.935315354534605 10.258460087930088  C 5.935315354534605 10.258460087930088  5.935315354534605 6.017779862794222  5.935315354534605 6.017779862794222  C 4.336948608056684 6.497875156710805  1.7466805773431109 7.651761985435245  1.7466805773431109 9.626807550563298  C 1.7466805773431109 10.805939008681776  2.2764972116099105 11.55549425403376  3.5356035757444397 11.55549425403376  C 4.481149282073992 11.55549425403376  5.307743693284596 10.90702190452491  5.935315354534605 10.258460087930088  Z " fill-rule="nonzero" fill="#7f7f7f" stroke="none" transform="matrix(1 0 0 1 3274 444 )" />
  </g>
</svg>