<?xml version="1.0" encoding="utf-8"?>
<svg version="1.1" xmlns:xlink="http://www.w3.org/1999/xlink" width="9px" height="15px" xmlns="http://www.w3.org/2000/svg">
  <g transform="matrix(1 0 0 1 -3209 -174 )">
    <path d="M 8.83127555639569 7.834764326431599  L 1.9949956722016058 7.834764326431599  C 1.9949956722016058 7.834764326431599  1.9949956722016058 8.637283796329003  1.9949956722016058 8.637283796329003  C 1.9949956722016058 12.16232028839428  2.8064131007929323 13.328432070032925  4.695094166923681 13.328432070032925  C 6.2201506272820435 13.328432070032925  6.862903306040015 11.914017530121502  7.106841901047626 10.605952360815234  C 7.106841901047626 10.605952360815234  9 10.832083764090614  9 10.832083764090614  C 8.693979883199189 13.000301986143462  7.053624904241243 15.000000000000043  4.411339826689085 15.000000000000043  C 1.387730940276382 15.000000000000043  0 12.720977241090415  0 7.497768685579191  C 0 2.2746049056081863  1.387730940276382 0  4.411339826689085 0  C 7.470406813049058 0  8.83127555639569 2.718032005556147  8.83127555639569 6.885881078155208  C 8.83127555639569 6.885881078155208  8.83127555639569 7.834764326431599  8.83127555639569 7.834764326431599  Z M 1.9949956722016058 6.163174008694415  C 1.9949956722016058 6.163174008694415  6.831892392028892 6.163174008694415  6.831892392028892 6.163174008694415  C 6.774287903057372 3.054990333458373  6.2201506272820435 1.662739685954311  4.411339826689085 1.662739685954311  C 2.9703918896063195 1.662739685954311  2.0262453612966045 2.718032005556147  1.9949956722016058 6.163174008694415  Z " fill-rule="nonzero" fill="#efebdf" stroke="none" transform="matrix(1 0 0 1 3209 174 )" />
  </g>
</svg>