<?xml version="1.0" encoding="utf-8"?>
<svg version="1.1" xmlns:xlink="http://www.w3.org/1999/xlink" width="294px" height="284px" xmlns="http://www.w3.org/2000/svg">
  <g transform="matrix(1 0 0 1 -2730 -362 )">
    <path d="M 48.538394992666205 282.80985317848587  C 47.831863109617295 283.60835716981137  47.156063292772345 284  46.47511344792599 284  C 44.97501879319957 284  44.163514974419314 282.1367017846504  43.50817773174008 280.6393463667031  C 43.29827970622419 280.1555990194898  43.103709508854735 279.70253280535303  42.90660250244018 279.3776000483778  C 42.05674090833821 277.964739981981  41.613838500220055 277.58076743506155  40.83563412065343 277.58076743506155  C 40.64364657827582 277.58076743506155  40.42859852475852 277.6039005204589  40.19313374302214 277.6498916611763  C 39.57618483962911 277.7702937172736  39.353449949065286 278.6404888821028  39.056521034920785 280.0533183896021  C 39.056521034920785 280.0533183896021  38.76466573886671 281.4277048040631  38.76466573886671 281.4277048040631  C 38.76466573886671 281.4277048040631  37.99926766038365 280.7673270293771  37.99926766038365 280.7673270293771  C 37.5026185208684 280.3400219658216  37.15195815730903 279.9304105039108  36.888282836431564 279.4876731971246  C 35.395829172805044 277.0023791823321  35.94367295268997 275.4027431344972  37.76120494167322 271.7809942810745  C 38.80309992409952 269.68734309647067  38.33973494181567 269.1627079444203  37.41818556921384 268.11331540472946  C 36.97531372506009 267.61159942579405  36.42235048113813 266.9794886312832  35.971807081920055 266.0784595388899  C 34.681641016673886 263.49598823009  33.322308699990884 261.7786087502391  30.875067352477643 261.7786087502391  C 30.445017091389683 261.7786087502391  29.986786855125096 261.8297643446316  29.505496107720745 261.9397763755835  C 28.371466054611123 262.19066492394876  27.623978459266425 262.3033050200844  27.071030497326614 262.3033050200844  C 25.760386575932582 262.3033050200844  25.41476926649916 261.63776279172316  25.046122009890457 260.93643609440505  C 24.90027077177441 260.6548969718608  24.723595775561087 260.31456253055217  24.43947316250015 259.9331569310216  C 24.191140951751457 259.60302916147356  23.94537611401232 259.32152059782675  23.712432859338918 259.0578584303121  C 22.660314230820962 257.854968548546  21.751555877320378 256.8156604450258  22.550222831052693 253.6368628106719  C 23.092947146900677 251.47411795885074  23.5460579191284 251.13109433456333  24.69546164633109 250.69346036365732  C 25.332857841907582 250.45280904595015  26.20836260214108 250.12274239419708  27.644456315414264 248.8634407876707  C 28.40988495786178 248.1953927297155  29.454286185368755 247.2842486422542  29.572049140201404 247.00518479040633  C 29.572049140201404 247.00518479040633  29.55924283911784 247.01554425665427  29.55924283911784 247.01554425665427  C 29.525973963868584 247.01554425665427  29.456868840360567 246.92839028102244  29.395419989934684 246.85938829049766  C 29.111266812909374 246.52406550837685  28.683768642848747 246.0147403639673  28.358675035509787 245.05234900542087  C 28.082223977513237 244.21543247995467  27.902996890272558 244.21543247995467  27.80572707357006 244.21543247995467  C 27.66236679855263 244.21543247995467  27.452453491054506 244.26399056806088  27.209271308307127 244.31270145065452  C 26.799653057420464 244.4048365265767  26.282602471668266 244.51738494601997  25.63238469302604 244.51738494601997  C 24.90027077177441 244.51738494601997  24.157872076502283 244.37152732831635  23.364278740860282 244.07715346882762  C 21.006620373003038 243.2018549681182  20.77878130038441 242.53640441644941  20.796691783522775 241.11850213196732  C 20.804378620569278 240.46069130467015  20.814632830625396 239.644188122725  20.34104420224992 238.37981373921576  C 19.885381338994804 237.16405856160776  19.637064410228255 236.41411265838846  19.455300513942476 235.86127164395785  C 19.104609586418622 234.80417826210046  19.020130788817454 234.55341194932515  18.170238630750998 233.1303146522704  C 17.788800355040962 232.50067912845594  17.389451596192675 232.41618377690543  17.010595975474367 232.41618377690543  C 16.595904106497297 232.41618377690543  16.101837621973868 232.5467313869683  15.58218909924777 232.68491872140282  C 14.960136013799943 232.84874497082868  14.251036757741362 233.03558207006185  13.52399645458013 233.03558207006185  C 13.27312743478622 233.03558207006185  13.019706323964952 233.01260177915194  12.766269931161457 232.9613239491694  C 11.655269825227142 232.74126932836816  10.907812793846816 232.30100729227837  10.485418805840988 231.60744255492187  C 9.927336097882003 230.6936704022767  9.940142398965566 229.3704090233108  10.531493982173725 227.31257286656128  C 11.07418773405733 225.3904182146524  10.815631877216891 225.29574675023878  9.730244373449674 224.90673198523407  C 9.387209719007982 224.78125715215396  9.003196429297285 224.64566732400579  8.603893516395498 224.44342854043927  C 7.646492613552679 223.96475397020873  6.067008061297562 222.99988734096596  6.218039891379399 221.88907141732705  C 6.305070780008008 221.26707561788425  6.855466650920377 220.85501944417456  7.853807984076841 220.65800623207826  C 9.543361013126836 220.31241566040197  9.612481418617108 219.15044414237047  9.612481418617108 216.32738263365837  C 9.612481418617108 214.9324300811888  10.288281235461946 214.22086615321263  11.614314112931353 214.22086615321263  C 12.000856570696165 214.22086615321263  12.443713132867716 214.27458869499412  12.919853852270638 214.33601207894225  C 13.429294010887217 214.40000241027923  13.989898245909105 214.4716324659879  14.563339345978983 214.4716324659879  C 14.855179360050938 214.4716324659879  15.157227738232356 214.45375551095827  15.454187216341229 214.4025693576681  C 15.848401229170372 214.33860958522865  16.104420276965683 214.20806197516578  16.245197896991304 214.00845125678313  C 16.59335201546994 213.51446667891173  16.388527608044395 212.44453856010995  16.1735254004737 211.31327873405255  C 16.014791451363116 210.48152666226144  15.848401229170372 209.61380676812868  15.848401229170372 208.7512513276711  C 15.848401229170372 205.9946859798899  15.80998232591977 205.7848380308492  14.21775260050996 205.7848380308492  C 12.896823905095356 205.7848380308492  11.245697420287106 205.33690571149023  10.572449694469512 204.0802321701477  C 10.231982413037493 203.44029829788016  10.034860124640678 202.35762711882643  11.048575131890292 200.83991947515307  C 11.611746739921767 199.9977773782166  11.824242702411702 199.2683670541083  11.622000949977972 198.88702257237264  C 11.453058636757783 198.57220481046542  11.012738883631448 198.54919396065807  10.879648100652332 198.54919396065807  C 10.720914151541749 198.54919396065807  10.554523929349006 198.57474119895687  10.400924726257596 198.6284637407383  C 9.755841693634544 198.84093975496285  9.146556704314735 198.87421839432582  8.37603916179474 198.9100028632826  C 7.364860963590342 198.96381708175662  6.107979055575579 199.03037436048243  4.106123438287934 199.52940115643912  C 3.642773737986318 199.64717514735253  3.2485291611928315 199.69836130064263  2.8978611566422927 199.69836130064263  C 2.262994129119816 199.69836130064263  1.7663679125778706 199.50895725402052  1.4233485401185064 199.1327466670627  C 0.7372868722262788 198.3750999216767  0.862713741132162 197.10051886640693  1.0035066431400377 195.63136931083986  C 1.0649402115837643 194.9837957142007  1.1366203490924387 194.29016985904923  1.1366203490924387 193.59654400389778  C 1.1366203490924387 192.41669553083656  0.7833544075679418 191.4286958161964  0.47104417833933376 190.5636039872475  C 0.007694478037717348 189.2684873528667  -0.47610251444747925 187.9273184599736  0.9343709556676361 186.8804928676717  C 1.9225192066967385 186.13565030033263  2.6213871756724294 185.8054919718871  3.197365084787438 185.8054919718871  C 3.704192024447816 185.8054919718871  4.559211287542375 186.06661775091038  4.559211287542375 187.80190474468847  C 4.559211287542375 188.29075542778205  4.868969425743639 188.93065874115203  5.370707465331457 189.46559224165543  C 5.903185212114405 190.03374326372682  6.45356580104463 190.28967403017734  6.7607489252452355 190.28967403017734  C 6.891302899179135 190.28967403017734  6.962975395696739 190.25129205493414  7.026976337150051 190.15148669574288  C 7.285532193990494 189.76497776033202  7.538953304811846 189.23010537762352  7.828210663891959 188.6183773677362  C 8.573146168209298 187.05455634775552  9.502390018848818 185.1041958334665  11.174009641787247 183.77583111862026  C 12.098141669380894 183.03361661646508  12.679254324515076 182.7853255743863  13.10420040354826 182.608725705811  C 13.63408785434842 182.38344551353958  13.854240089920403 182.29140211430985  14.58123454713512 180.85293369181932  C 15.879133295374414 178.24222596174175  17.59681281266335 177.57934235746185  19.585854487876347 176.80892199292649  C 19.585854487876347 176.80892199292649  20.23863963952816 176.55293010868098  20.23863963952816 176.55293010868098  C 21.26005676580653 176.14347144125767  22.03315696331833 176.07697528032676  22.54768602200748 176.0334288514083  C 22.69873313407153 176.02062467336145  22.883033839402557 176.00525354792566  22.97519947405034 175.98477908660962  C 22.97004944604894 175.9591707305158  22.97519947405034 175.8901381810936  22.97519947405034 175.77239474907756  C 22.97519947405034 174.7127649787288  22.271189118064303 173.97299518837255  22.263517563000025 173.9628190755094  C 22.263517563000025 173.9628190755094  21.78228794352442 173.46360892616786  21.78228794352442 173.46360892616786  C 21.78228794352442 173.46360892616786  25.03337683673575 171.13453199532705  25.03337683673575 171.13453199532705  C 24.933539647023668 171.04499442569127  24.79016409002397 170.97076686369627  24.5853702465628 170.97076686369627  C 24.37547222104691 170.97076686369627  24.006824964438202 171.0398605309135  23.441101265379316 171.37771970152565  C 22.089455785742896 172.1865220413043  20.481821822275535 173.01582940129632  18.779485415115293 173.01582940129632  C 17.85535338752165 173.01582940129632  16.96707289016899 172.76756891811496  16.14022596126007 172.27352322244863  C 15.548889660034142 171.91778709680682  15.175138221370636 171.36488496458128  15.049703711473681 170.66618633244704  C 14.57357827405296 167.99148827103247  17.842577650402543 163.82982481681609  18.21886589811118 163.3691188783077  C 19.02523497087226 162.34533469471077  19.742036345959512 161.1347134118805  20.571435365895876 159.73462696463318  C 21.5058063215635 158.15797120770807  22.5604770411089 156.3766013965201  23.9940033813725 154.46208646898287  C 25.322603631851493 152.69865473061955  26.36706598728729 151.95381216328047  27.12735988371555 151.4137753268968  C 27.949072066605297 150.8250887257144  28.404719647878153 150.50767345752087  28.80665106171837 149.2894124503189  C 29.1445204061764 148.2758960562775  29.052415899457475 147.2495143663941  28.944891872698772 146.06447088076015  C 28.79897950665398 144.39054615313515  28.627469820424206 142.49399985732006  29.730783089312016 140.2876780176831  C 31.01582969052115 137.71798032803255  30.299058879398263 135.4221514776572  29.467077204470172 132.76025759428953  C 29.231627704715926 132.00517779629246  28.990967049031596 131.23995244432982  28.796381569680022 130.44905761847846  C 28.335645088334505 128.60113052856457  27.751980342172967 127.63880028781317  27.234883910474228 126.78645151911614  C 26.77408630119997 126.02626838523881  26.34143810313802 125.30960112138241  26.113660158448166 124.17831073642746  C 25.727071854736728 122.23571218210004  24.641699632951738 120.62324139732065  21.815572100755933 117.80265515930492  C 20.502299678423487 116.48963101099706  19.75227527403349 115.54267189568145  19.803454632420998 114.5956516625708  C 19.857216645800353 113.6230536322639  20.69942196682019 112.94730473214211  21.864199368115997 112.01058284748453  C 22.29680172023143 111.6676203409921  22.427370976147554 111.41679291042188  22.406862556035232 111.296482531017  C 22.3300705954806 110.7871573866074  20.64310786241348 110.13958378996827  19.634481755236525 109.75059958386097  C 19.634481755236525 109.75059958386097  18.902367833984894 109.46646295503038  18.902367833984894 109.46646295503038  C 16.273377872168016 108.4171315331345  15.848401229170372 107.12708767573653  15.848401229170372 104.45245073211693  C 15.848401229170372 101.64469923104559  15.77417664162541 100.3751909527587  13.997585082955721 99.65598730041086  C 12.932675435336344 99.23623028453454  11.86007895067046 99.14409520861237  11.145860230574934 99.14409520861237  C 10.403522663231554 99.14409520861237  9.896634595642418 99.23873611412844  9.871052557439778 99.24390056780373  C 9.871052557439778 99.24390056780373  8.460517959395904 99.51773884818135  8.460517959395904 99.51773884818135  C 8.460517959395904 99.51773884818135  9.261767568119957 98.3225192496844  9.261767568119957 98.3225192496844  C 9.302746203389043 98.2636016953302  10.288281235461946 96.8226274432457  12.658776468367153 95.87047331535742  C 13.47536918721995 95.54544888168964  13.53937012867328 95.11035129927498  13.562415357830703 94.96703007006275  C 13.677610939653796 94.19664026442483  12.912182297206279 93.02942789547437  11.614314112931353 91.99545231956563  C 10.203833001825267 90.86672888199956  9.54077835813502 89.50247274205525  9.84030520925348 88.3507078957843  C 9.986248139262758 87.78002048522148  10.50844875301627 86.78691743470104  12.33365229706391 86.48235218290057  C 15.15466036522277 86.01654290851198  16.531918447026314 85.5660283623153  17.24867397616694 84.13011160776496  C 17.91936961095709 82.79412244799583  19.01501132478051 81.93411867547844  20.041517351131457 81.93411867547844  C 20.486910722348114 81.93411867547844  21.31890767925843 82.10306354023321  21.88978140631875 83.23435392518816  C 22.632164819608647 84.72909655740031  23.66380559197874 85.13861634261858  26.70242908666451 85.13861634261858  C 27.152926639936048 85.13861634261858  27.260465948676867 85.03878042452986  27.260465948676867 85.03878042452986  C 27.47551400219416 84.51921804946215  25.627265228989128 82.29500397534669  24.93094171004962 81.45548994359406  C 24.569996572469762 81.02039236117949  24.239768219111603 80.62112508606795  23.9940033813725 80.29348786666507  C 23.364278740860282 79.45657134119877  23.46157912152724 78.82432303164929  23.65355138192262 78.43274131925558  C 24.28587395940883 77.170949162584  26.676831766479726 77.10694355179827  27.152926639936048 77.10694355179827  C 28.514841611610812 77.10694355179827  29.108730003864157 78.71172877385975  29.682155821951838 80.26279145413982  C 29.892038565485585 80.82586969922836  30.104519245993295 81.4017826812614  30.355372983804944 81.9059586514445  C 30.775230162765585 82.74548796264581  31.78894517001517 83.15497718896661  33.45032586487965 83.15497718896661  C 34.17220085805731 83.15497718896661  34.99651097792104 83.07569212943758  35.96670289986528 82.91438698905442  C 36.28158814309463 82.860664447273  36.596473386324014 82.8376383180168  36.90873012861503 82.8376383180168  C 39.54545277342504 82.8376383180168  42.090009783587384 84.61645646126466  44.015035235364934 86.16235468786937  C 45.21820097594686 87.11964271053544  46.07319731606809 87.60337477830002  46.55190540848063 87.60337477830002  C 46.6671009903036 87.60337477830002  46.902657463933224 87.60337477830002  47.068986558197224 86.92512004858439  C 47.22516841628036 86.30057258120142  46.59801114877782 85.62234841038318  45.99128589147651 84.96711980992362  C 45.305216582593246 84.22742641681107  44.53214694904579 83.39047933244731  44.857240556384745 82.42043297008057  C 45.07737750997462 81.76005519539461  45.65338598305411 81.38381404953925  46.43417301761244 81.38381404953925  C 47.75507114906264 81.38381404953925  49.54955790888847 82.46645466969551  50.79876826183883 84.02268180365066  C 51.18532600158579 84.51151720729553  51.69731825122973 84.74701935077623  52.35520758493643 84.74701935077623  C 53.90652744399699 84.74701935077623  55.777790882395195 83.45185687804924  56.59441416521236 82.63539953445026  C 58.07147887276359 81.15859497506275  65.01396113033026 78.42763798337528  67.5277402283419 77.58810867217396  C 68.26758683258669 77.34238457748394  68.94083455840429 77.2169861416476  69.53217085963021 77.2169861416476  C 70.72511295412048 77.2169861416476  72.25334173807701 77.7442646383306  72.76016867773737 80.26023978619963  C 72.80884179104416 80.50081470666312  72.88566431556319 80.5417789087439  73.08530813102297 80.5417789087439  C 74.24238341329001 80.5417789087439  76.9149423063589 78.47370552133643  77.86979111817435 76.54386530670962  C 78.78878839974882 74.72148545509467  79.29819799440102 73.91525006270494  79.94584840003364 72.89661505333441  C 80.25307737018086 72.41543465350996  80.59096199662116 71.88558920943807  81.02099697572689 71.16640083653905  C 81.84788975058242 69.77914912623612  81.75058936991556 69.6640032005065  80.96472871726681 68.78094273983542  C 80.73173961664676 68.51732641066707  80.45788649562418 68.21019421147771  80.16603119957011 67.81862777853281  C 79.04220951057009 66.32897320275215  77.25281165081692 65.15161527983614  74.98221473555257 63.661975983504284  C 74.98221473555257 63.661975983504284  74.06833691801513 63.05538186839466  74.06833691801513 63.05538186839466  C 72.38649364898497 61.92921009876869  71.18072997142896 61.04106158166613  70.98615977405953 59.876507836796954  C 70.87357741119274 59.20847505829059  71.09881854683738 58.53023560802363  71.69530487606471 57.7367585553346  C 72.19701235168807 57.06877161517439  72.69619830024853 56.756536080104766  73.26195256327182 56.756536080104766  C 73.50256737300963 56.756536080104766  73.70487025337219 56.812856128172626  73.86100626550873 56.856356718744806  C 73.89422929481137 56.871712564731844  73.92754401600716 56.87423367377457  73.95567814523726 56.87423367377457  C 74.07859112807122 56.87423367377457  74.1732782897819 56.77696470307461  74.3166538467816 56.49293503038515  C 74.95918478837727 55.19265394232912  76.4669662801503 52.1469250270807  79.74366777552866 52.1469250270807  C 82.33423883409495 52.1469250270807  83.51434406353731 52.1469250270807  84.67913674681526 50.984861832356685  C 85.18342687743052 50.48068586217356  85.59816459235422 49.36731827059452  85.99745222327377 48.28716820058344  C 86.57858016039009 46.715676897333644  87.18014010770783 45.092953602447494  88.30903541479819 44.24318706058804  C 89.26900369065069 43.5265503556292  90.22388306643053 43.46514225112982  90.99183323594103 43.4165077657798  C 91.87248802417591 43.355069102382934  92.27182150104206 43.306419337584224  92.5892588352988 42.67679909321851  C 92.75558792956278 42.33897048150385  92.88873984047063 42.00367825828057  93.02183062344976 41.68119021310419  C 93.60037590557442 40.23764901363086  94.19686223480176 38.745442769910085  97.04858708718247 38.33592298469182  C 99.07092820160904 38.051832194207364  100.52749977103016 37.171323401476506  101.3927503212075 36.48799589477794  C 101.3927503212075 36.48799589477794  101.55655788840843 36.354896616774965  101.55655788840843 36.354896616774965  C 101.55655788840843 36.354896616774965  101.77672540596276 36.354896616774965  101.77672540596276 36.354896616774965  C 103.5763316298255 36.354896616774965  104.67966018069536 36.014485778222735  105.10459097774641 35.36695801992981  C 106.27707049807098 33.621372677698645  109.88649130990606 33.4268347362988  112.78687399361131 33.27075516738579  C 113.63931824270512 33.22205956424085  114.38170165599509 33.18627509528407  114.87575285853642 33.106898359062555  C 115.14966710748774 33.05574276466989  115.52086645512381 33.004541331931065  115.9509167162118 32.940520441696584  C 118.46992225213583 32.57454708539673  123.70233541954919 31.811812283579282  125.58133154094054 29.9280548863623  C 127.40141562095113 28.103092807909675  130.8854172048714 25.95825547001572  133.4273915600419 24.389346393603578  C 134.21068483968108 23.910656543924272  134.88908259349998 23.49094536639419  135.37544695899473 23.171039548055397  C 137.4720279429485 21.765834485479093  139.17951437811013 20.749766423497466  141.41942507311703 19.47003619400122  C 143.0935967870828 18.512763450783844  143.22930078901808 18.18770845821862  143.5211255211078 17.476144530242525  C 143.6107696286926 17.256074629992547  143.71309778150325 17.00521664052485  143.86160808452206 16.713455566771216  C 143.97163835636147 16.49330926927755  144.08683393818453 16.28857993556592  144.1995232749267 16.096608941554894  C 144.73194753477196 15.185419015747465  144.91111349408385 14.875719869169153  143.37774996410818 13.793125087359144  C 142.58415662846622 13.222315441206513  142.18740580659187 12.687366661254327  142.11827011911947 12.108947849627441  C 142.0337913215183 11.351331663138971  142.53296198809653 10.78570175011024  143.0168201085104 10.235427683068508  C 143.3367942518124 9.871990715260075  143.66957469619788 9.49571901050726  143.84109966440982 9.068291711361773  C 144.37101767917423 7.732195595451387  145.17989299701605 6.199055708547341  146.72352601903017 6.199055708547341  C 147.25851765188503 6.199055708547341  147.82685456990006 6.3962064356822905  148.41050403407945 6.787803427524651  C 149.32953187961837 7.399516157963245  149.97721284921536 8.013749997444458  150.54805601231132 8.551250445336722  C 151.25203580433285 9.214195167411647  151.80753585730002 9.741397266850946  152.64208490523765 10.074168381031605  C 154.0397444332781 10.632128010791163  154.05768548038077 11.924647138885561  154.0755959635191 13.06615947504979  C 154.08837170063822 13.73931086888522  154.09864119267658 14.43808589826319  154.326464983313 15.113758401141238  C 154.88706921833491 16.79535341203538  156.2745509462302 17.07175863980201  157.8821543457331 17.389189187444295  C 159.2491582174805 17.665579135762155  160.0222431330101 18.338715250148788  160.84398587986428 19.055397793453977  C 161.13837798496357 19.30876161251552  161.44294789020802 19.577496557012978  161.79886525564416 19.843740951365163  C 162.34669375354696 20.253245457134742  163.05324091857815 20.478449252162445  163.78787636689282 20.478449252162445  C 164.52000557012656 20.478449252162445  165.22652217119335 20.253245457134742  165.77438123306052 19.843740951365163  C 166.36056750628512 19.406030583215482  167.20022073627757 19.162888715363103  168.14483062001918 19.162888715363103  C 169.8036286598918 19.162888715363103  171.31141015166483 19.892314318920157  171.9846120315358 21.021022477037544  C 172.40193240145123 21.70441110153094  172.604174153885 22.54904374861264  172.7987749152188 23.368098598497944  C 173.15970477081655 24.870480955081728  173.44126001086786 25.807279236983096  174.33464469027535 26.104204764411854  C 175.60439402730242 26.52908039561724  176.3902852439155 27.455580329065555  176.28786539921165 28.405182789013733  C 176.2366707588419 28.88119873516293  175.86806934817977 30.015086626404216  173.54624722858134 30.276151287632505  C 172.67077303231224 30.37592608792631  172.0896603771781 30.608876563466904  171.91306179087576 30.9313951675408  C 171.6621316431531 31.389518879211547  172.10757086031634 32.282770732194415  172.34823151600077 32.76398169091634  C 172.34823151600077 32.76398169091634  172.58886160772064 33.22205956424085  172.58886160772064 33.22205956424085  C 173.2006299191479 34.35596273493091  173.2518245595177 34.803879774841185  172.34823151600077 36.63388407137916  C 171.99234471452897 37.34029882512873  171.9769710404358 38.07227609662597  171.9641647393523 38.783840024602064  C 171.9385827011496 39.89977456357001  171.9104332899374 41.164164226527944  170.4026823621287 41.91151262346091  C 169.1764866743714 42.528374528126  168.98194704096642 42.90460039453259  168.97167754892808 43.07609692722754  C 168.9665428029089 43.204092869350305  169.0561257825649 43.677587706456855  170.45384643853404 44.55290148661504  C 172.7731317490873 46.009262143583996  174.14517867496068 46.551865927356545  175.50710892861767 46.551865927356545  C 175.80150103371693 46.551865927356545  176.09332576580664 46.52630340960896  176.3980179269087 46.477653644810246  C 176.63861745466426 46.43668944272948  176.84850019819797 46.41624554031095  177.03280090352902 46.41624554031095  C 177.6139441226276 46.41624554031095  178.046546474743 46.597948744766384  178.31532597767523 46.96138571257482  C 178.88616914077107 47.719001899063294  178.52270247612813 48.97824238779478  178.0618895848717 50.57538788548465  C 177.8878889355435 51.18453366853437  177.83916997629007 51.72457050491805  177.79314064590395 52.20319923680233  C 177.6574060800042 53.60323984570342  177.5422410621456 54.80875779265336  175.00534032506548 55.6559268282264  C 175.00534032506548 55.6559268282264  174.17338921410177 55.934914282830555  174.17338921410177 55.934914282830555  C 171.96676267632628 56.6643704452851  171.56735278954912 56.794887496450485  169.85231705518075 58.22056702034289  C 169.26347171705342 58.7119235330304  168.45459639921154 59.382569097271876  168.4340879790993 59.6128609487311  C 168.45199846223755 59.68453684278598  168.6183886844303 59.92769399008708  169.76780769361517 60.58548953793548  C 170.88901616365902 61.225392851305465  171.4573225177097 62.12888193494635  171.91556803595657 62.85321948207191  C 172.4249776306087 63.656887927072674  172.66560772232873 63.96146845832191  173.1417331597494 63.96146845832191  C 173.28764552579435 63.96146845832191  173.4617989949446 63.93329315483927  173.65114275440158 63.87957061305775  C 176.0139511502603 63.203867551282215  177.15563747645197 62.55633979298929  178.02347068162115 61.409647723701084  C 178.9681416932915 60.14530389908933  180.38114433146058 59.98402931760374  181.5024139294332 59.98402931760374  C 182.20119784750688 59.98402931760374  183.00509123915148 60.058241600149955  183.91898433867118 60.17344864367457  C 184.9890592962741 60.30908431016896  185.82865139833783 60.37302880315968  186.55567641951683 60.37302880315968  C 188.00972646187495 60.37302880315968  189.15404128900505 60.12479887887586  190.2700233211365 59.56170535433855  C 191.3452024607942 59.02422018589494  191.62171464671954 58.53535422335261  192.079929601002 57.716329932364765  C 192.37685851514647 57.18394809980146  192.7506557997566 56.51849754813265  193.4213208705823 55.71223159684548  C 193.81299807436628 55.241288427679144  194.1304354086231 54.785716383948504  194.417155958658 54.373644930790014  C 195.2644807437149 53.15532280579315  195.99920788392262 52.10597610444862  197.66821428790485 52.10597610444862  C 197.86538242224822 52.10597610444862  198.07780197482714 52.121255553191936  198.30822370243757 52.15199780406342  C 198.65894519392577 52.20319923680233  199.0070381844756 52.22109147128077  199.350057556935 52.21861620058427  C 199.82618299435575 52.21861620058427  200.2921306316314 52.185322281772585  200.73494134785633 52.1545647514523  C 201.16763539186485 52.126389447969686  201.57975988783232 52.098229423935734  201.96116759957803 52.098229423935734  C 202.75726718030066 52.098229423935734  203.75053489536677 52.20828729323385  204.38797693688988 53.05805383509322  C 205.04843364360607 53.93854734837539  206.56639293552428 55.00841434938224  207.45470399684132 55.00841434938224  C 207.7056035805997 55.00841434938224  207.90017377796903 54.931619839998376  208.0204429778824 54.56557008645484  C 208.6783628755534 52.589677613315644  209.39001422263937 50.98747461809179  212.03437785854936 49.86127228956836  C 212.03437785854936 49.86127228956836  212.73838821453538 49.561825653096875  212.73838821453538 49.561825653096875  C 214.38434938936007 48.87331841327444  217.4486313321595 47.591051795286866  217.05952150138515 46.615871538142294  C 216.71647156496132 45.75840415411629  216.03813493907117 45.45643640860216  215.17797328896637 45.06994275264009  C 214.6736067484402 44.842126171877254  214.1053920862827 44.58873179391814  213.57801088056343 44.192062025092945  C 212.4926233767962 43.38067745847678  212.3774277949732 43.04281828786463  212.8125975200982 41.93200236422567  C 212.95343626805268 41.566029007925806  213.15824539349597 41.04385384712309  213.36039545403654 40.23764901363086  C 214.317842202826 36.436794462039124  215.10376398340358 29.344456341611515  214.19240769292907 28.430760586210038  C 212.71791035838743 26.96669908707443  212.34927838376095 26.178401767509385  212.0062284473371 23.75202530707116  C 211.69395642306395 21.535527354571094  209.3414175192436 20.107326721636067  207.42148096753874 19.559589043085758  C 204.7335942463233 18.791720346490553  202.7163114680049 17.28421937457773  202.02012548690527 15.52327818635962  C 201.90483821318907 15.244321290652884  201.75128485604426 14.919281577536342  201.5874008789323 14.576288512146434  C 200.95772208436674 13.253057692078004  200.2409971191904 11.755717553579487  200.860436985682 10.777985628494838  C 201.1727090099552 10.284001050623504  201.75128485604426 10.030637231561876  202.57553384797922 10.030637231561876  C 203.8503873670611 10.030637231561876  204.71302469828228 10.25078352905554  205.4707970676475 10.442708684720332  C 206.1491948214664 10.616756885355391  206.7353505307266 10.765212009345456  207.54688491347125 10.765212009345456  C 207.83870964556093 10.765212009345456  208.15611641585338 10.744737548029386  208.51447889844144 10.70122167800843  C 209.0341274211676 10.63469495818004  209.52828559758424 10.616756885355391  209.99414154296664 10.616756885355391  C 209.99414154296664 10.616756885355391  211.35866973359762 10.639783014611565  211.35866973359762 10.639783014611565  C 212.5899084754809 10.639783014611565  213.07884021398516 10.46063147809621  213.3654996360913 9.457321755815254  C 213.60875822874965 8.617792444613853  213.3706649460749 7.985574693961817  213.14278002750964 7.37390780186948  C 212.8228364481721 6.519007365232275  212.426024498369 5.45687176528959  213.94156923709954 4.448428148230882  C 214.7274298897483 3.9211343720990954  215.17797328896637 3.33507583610061  215.57478523876952 2.812900675297805  C 216.13022416380787 2.088593687069788  216.70626320085174 1.3360961159103002  217.94780199873773 1.3360961159103002  C 219.0382631205953 1.3360961159103002  219.35829839182614 2.080908124351958  219.55024008825714 2.528809884813429  C 219.7422734765813 2.9664591351681655  219.81140916405374 3.130270105145175  220.35150497896342 3.130270105145175  C 220.5716877784999 3.1277337166538706  220.84300409047725 3.0918728504532846  221.16047198869848 3.022763903787277  C 221.16047198869848 3.022763903787277  222.2637699756039 2.7847100923663914  222.2637699756039 2.7847100923663914  C 224.3680683605687 2.3317049960246248  225.00288190115344 2.2011726654105237  226.65144101295215 1.1057431466561587  C 227.80853157720142 0.3301888873430104  228.64821537115827 0  229.44691288885497 0  C 230.26345976176117 0  231.03654467729086 0.3404261180010591  232.02987352028572 1.1364395591814191  C 233.13567775227207 2.016933072463675  233.1843355835966 3.1661309713457615  233.22785866890197 4.174528750058211  C 233.261112262169 5.019191956037368  233.29953116541955 5.81772650626046  233.83198598922922 6.613755226889592  C 235.2015266700218 8.681767496502136  235.68532366250693 11.929765754214545  234.86871566167187 13.567860174536499  C 234.51035317908375 14.284527438392887  234.01628669456034 15.259677136639914  234.30817255457876 15.966107169838253  C 234.495010068955 16.424230881509086  235.01465859168115 16.79535341203538  235.85681806675439 17.079474761417327  C 236.76050280216455 17.37889083899133  239.9322476437939 18.36172609995622  242.94013907227557 18.36172609995622  C 244.26875460473673 18.36172609995622  245.3336336883917 18.164682328962442  246.10928597693086 17.780770899837915  C 247.2177187098556 17.225317099672285  248.62567829389872 17.048732510545808  249.99005366470772 16.87980292523973  C 252.268444390894 16.593160466815164  253.6635976738536 16.33976608885605  253.8017773569053 15.231517112605987  C 254.0116906644034 13.578112684643234  254.80268606307132 12.697573333014832  255.5680994235366 11.847883188399154  C 256.15685306977076 11.192639308490858  256.76357832707214 10.51696680561278  257.1808375690588 9.4138211652431  C 258.18434421219877 6.736586715337062  258.96259443771197 5.078033113147898  261.3125659685227 4.686451400754195  C 261.7093473543614 4.62247634886594  262.10359193115505 4.525222657614748  262.49783650794853 4.4382061970216045  C 263.2529498124111 4.2589935427112495  264.0312306018887 4.077275058807047  264.8042849534539 4.077275058807047  C 265.8845682751663 4.077275058807047  266.77284877251896 4.44075786496171  267.52294958681995 5.188152100240931  C 268.4188099473437 6.08137339432631  268.52126035601196 6.94646522327522  268.4521857964683 7.517213751633048  C 268.27298927319214 8.955651615226007  266.885446417368 9.984584973049499  266.0714974814358 10.470853429305487  C 265.5440857117521 10.790789806541735  265.26503671678154 11.228469615793957  265.26503671678154 11.74292865498136  C 265.26503671678154 12.377682794124816  265.70286550680925 13.03037500609292  266.409382107876 13.450101463071778  C 267.27205000306157 13.96456050225918  267.8045048268713 14.68122776611557  267.9555213749709 15.515623182539134  C 268.13215052523765 16.5035464999356  267.7661164875851 17.601588804425102  266.8982527184515 18.68684221031645  C 266.5015018965772 19.183332617781712  266.143139413989 20.0510066735683  265.76170113827897 20.967299935256026  C 264.9118089802126 23.01231663450991  263.94925804936827 25.32609883715863  261.82970824616797 25.59229739316464  C 259.16480562618136 25.922455721610167  258.1510600549674 26.21936596959024  257.2833185416914 28.243908207528058  C 257.0707767332549 28.742996121279656  256.8403855696088 29.213924010997328  256.62793545306556 29.656737715027276  C 255.79855171511142 31.358776628340053  255.4350544865041 32.208527890750624  256.15685306977076 32.92776210199589  C 256.69190583055445 33.465216711542006  257.0221800298591 34.03089246291691  257.3421847371255 34.57861486201853  C 257.86947425095155 35.477000609779125  258.32515239618886 36.25510653703238  259.6409616275664 36.8155719963859  C 260.0991765818489 37.012692164623395  260.5650936551601 37.194410648527594  261.013100245333 37.3709799582053  C 262.69741919547954 38.02628495590854  263.91594332817243 38.5023009020578  264.03887159298864 39.38788247177149  C 264.07725993227484 39.67457076854228  264.0081548087668 40.107070844670524  263.4475200097805 40.52173980411531  C 263.04306706887735 40.826320335364564  262.60786677978797 41.07199859170827  262.20344440284924 41.307500735188945  C 261.1538473013943 41.89872372486275  260.88243929752366 42.121375851950376  260.99772657123987 42.56932345075808  C 261.40725313023336 44.27136236407074  260.8517836412306 45.51015895038362  259.3439715854932 46.26264124209433  C 258.4070638207804 46.72849635482926  258.35336293532987 48.68901770253256  258.6374855483908 49.55667647887043  C 258.7679936763781 49.9431854142813  259.1775507993361 51.14101779851341  262.75634651884246 51.14101779851341  C 262.75634651884246 51.14101779851341  265.33417240425393 51.11544000131702  265.33417240425393 51.11544000131702  C 267.2464068369302 51.11544000131702  269.0178636495806 51.245941773033664  269.6552751271393 52.86097950520195  C 270.1058796542862 53.974347096781024  269.91895044801674 54.867629508661345  269.7679644638816 55.59192121744065  C 269.6629466822037 56.08081773888046  269.57088802143136 56.510811985414804  269.68088772930645 56.953610409996  C 269.8856662907854 57.74190772956105  271.26031115363276 58.778511370653675  272.07691915446765 59.24684175408502  C 272.07691915446765 59.24684175408502  272.3483271583383 59.40046133175029  272.3483271583383 59.40046133175029  C 272.3483271583383 59.40046133175029  272.3764765695505 59.710160478328525  272.3764765695505 59.710160478328525  C 272.3816113155697 59.74600606508031  272.71692856900034 63.39071992996417  273.0369332762668 65.35891156093665  C 273.3364295634208 67.14035776936831  273.78700352660326 69.83548445375277  272.63504770837324 71.77811356697762  C 272.33802710233556 72.26953119746005  272.3508945313479 72.96827566794057  272.66316655562105 73.51854973498227  C 272.8091400495947 73.77704744882168  273.1444573030254 74.21472725807389  273.7614214884007 74.21472725807389  C 274.16073968328453 74.21472725807389  274.621552574541 74.0253384909005  275.0976780119618 73.66955652691247  C 275.93479443290903 73.04251850938432  276.766684415944 72.72770074747714  277.5730840526694 72.72770074747714  C 279.3471082383295 72.72770074747714  280.734528838296 74.37341961272192  280.734528838296 76.4824113638641  C 280.734528838296 78.30220898864147  281.4615844234395 80.23207976216567  282.81067781204854 80.23207976216567  C 284.6793585954549 80.23207976216567  285.75453773511254 82.27964812935966  285.75453773511254 85.84504637581705  C 285.75453773511254 86.8099435639572  286.1077654716815 87.15547301783855  286.3715019204878 87.33205760696502  C 286.78873059850997 87.6059264462402  287.4619936063097 87.74157739218329  288.43732027427313 87.74157739218329  C 289.13359794726597 87.74157739218329  289.9245933459339 87.67503539290624  290.77955912209075 87.58543670547544  C 290.9742210113533 87.56757502989444  291.15592377971035 87.55988946717662  291.32488137491265 87.55988946717662  C 292.7123325388435 87.55988946717662  293.32929672421875 88.1741538655553  293.60834571918934 88.69117985213158  C 294.28931084601777 89.96834313423886  293.57506156195797 91.85466747884472  292.6791095095409 93.19073303585752  C 292.2079965622818 93.89969945754729  292.2541787124899 93.94064838017937  292.55370556360833 94.22475445011251  C 292.9094089812937 94.56007723223337  293.449627052061 95.06683542925401  293.449627052061 96.20576553858069  C 293.449627052061 98.46067602522142  291.68067648449124 100.2523136259649  290.1985992867785 101.36062372000991  C 289.14900218532347 102.1463235332886  289.08497067990584 103.12151906988184  289.4279900523652 105.47886298089779  C 289.5304404610335 106.22358331264691  289.8273082472492 106.90443554864895  290.1140899252129 107.55961831076225  C 290.66955941421566 108.84193076709612  291.29932990067437 110.29317280873606  289.9272524108367 111.67272367687238  C 289.6968001192618 111.89803442804129  289.4638721465706 112.11808904884248  289.2385851649794 112.33313201045594  C 288.4194709190636 113.11122265826039  287.57211557004234 113.90972664958602  287.5899343612875 114.5291555016399  C 287.5976670442806 114.82093185484221  287.80754978781437 115.13825544634336  288.2120332926819 115.47865100544692  C 289.2001968256932 116.29512362849462  290.49036289093937 116.46658960229209  291.39912124443987 116.46658960229209  C 291.59619768689004 116.46658960229209  291.7830352012664 116.45891931902294  291.94948655138785 116.4461151409761  C 292.4128056877251 116.40516621834402  292.7379451410106 116.34890728807109  292.7482146330489 116.34630978178471  C 292.7482146330489 116.34630978178471  293.9999923590089 116.1288221083724  293.9999923590089 116.1288221083724  C 293.9999923590089 116.1288221083724  293.370283000479 117.23444301943857  293.370283000479 117.23444301943857  C 293.30878830410654 117.3394128323052  291.8343826614581 119.87075910560995  289.1668821044974 119.87075910560995  C 287.3544695795511 119.87075910560995  285.41668367263674 120.32889809672946  285.41668367263674 121.6111799941659  C 285.41668367263674 121.96437973131627  285.6060579960581 122.09236039399026  286.141049628913 122.3713325691457  C 286.7375359581403 122.68101643627519  287.8485971920034 123.25692941830816  287.02933012626556 124.8873077170147  C 286.09755710757196 126.77104983478289  284.3593538881885 130.2724577499032  282.57255396540927 132.06412590954417  C 278.3640794513373 136.27193329896534  275.64804331890974 138.87487906908135  274.50629586478914 139.79629094609814  C 274.06602195760945 140.14438734736825  273.6666426347967 140.60506272697918  273.2442486467909 141.0939439689703  C 272.21268428433183 142.28922468526218  271.0453242280442 143.6406308088133  268.9359827889535 143.6406308088133  C 268.756694573784 143.6406308088133  268.5673508143269 143.63292996664669  268.37027437187675 143.60998023463424  C 266.6473836986576 143.4153811754394  265.2702020267651 142.59123826912253  264.5918042729462 141.344740840643  C 264.03630421997906 140.32358472222984  264.0235284828599 139.1257676174465  264.55335480573126 138.06097339342244  C 264.84524066574966 137.4876273587784  264.9476299464892 137.07043729029095  264.85807753079763 136.85032155169472  C 264.70959779174325 136.49195736086904  263.8725119347603 136.2155521331025  262.9048568218613 135.89822854160136  C 262.0753813920139 135.61922580754847  261.3868364020143 135.07405507638703  260.72381232228855 134.54935880654162  C 259.95069684279446 133.93506384926545  259.2159697025866 133.35661447874108  258.4224374948735 133.35661447874108  C 258.1664642930249 133.35661447874108  257.91039939928294 133.41042869721502  257.63911365126995 133.5306779588249  C 256.9274317402196 133.83269154268524  256.0980785662299 134.13980846242586  255.21997586902245 134.4623270664997  C 253.22839738476426 135.1943348968944  250.97054564265466 136.02104475060017  249.38855484531877 137.1472317996748  C 248.5846920176385 137.7231447817078  248.1751043307163 138.16337625890014  248.12901387240132 138.4909676399568  C 248.0753435509152 138.91582799171343  248.62057411184395 139.56847436533528  249.37318117122567 140.46690595144213  C 250.2793415877522 141.55461934858116  251.147144228957 142.1919862734598  251.9100819083058 142.75246701226197  C 252.77528661253655 143.38977281934564  253.5253262989087 143.93747993899842  253.93494454979546 144.7437458902856  C 254.3624121558916 145.60630133074315  254.8615828224698 146.8835104511968  254.331787063563 147.98656441487412  C 253.9502876599241 148.78002618811433  253.11317123897683 149.32269108968188  251.84348302987854 149.6042302122262  C 251.13947267389258 149.76289200797677  250.39459829750402 149.98044079918404  249.63936273718397 150.19798959039133  C 248.05483513080284 150.65875664669477  246.4113496370945 151.13471147504893  244.98551013387743 151.13471147504893  C 244.05884129723862 151.13471147504893  243.30874048293765 150.93516187446127  242.69697217151042 150.52814791883685  C 241.8239736563577 149.9471621598211  241.06629297888566 149.6656535961743  240.37768686095714 149.6656535961743  C 239.6046019454276 149.6656535961743  238.86220325015535 150.02915168177773  238.10189407174485 150.7892431389626  C 236.94226669845042 151.95381216328047  235.6418617051303 152.10480367576199  234.64348980800946 152.10480367576199  C 234.20064852782016 152.10480367576199  233.7526113736828 152.07158615419397  233.29953116541955 152.03571000854464  C 232.86943505838497 152.00246192807919  232.43429589722444 151.96915272981877  231.99655879908985 151.96915272981877  C 231.21833913754114 151.96915272981877  231.1645465601974 152.05364808136932  230.80618407760917 152.5987576947358  C 230.4733730692593 153.11071090432924  229.96915934855508 153.88113126886466  228.67379740936093 154.853698740274  C 228.0491922328858 155.32464190944043  227.54745419329797 155.66506802744146  227.1301949513113 155.95171048586604  C 225.78363837174743 156.87565875137426  225.37667918576352 157.1546614854271  224.16325923512534 159.3507460944061  C 223.67933998678262 160.2157768055601  223.1981409312715 160.91713406177573  222.78341849833012 161.51859428210747  C 221.72364359672991 163.06450778816097  221.44456403779495 163.54565762908794  222.09991656245637 164.3647583173195  C 222.79118174528762 165.2324476525548  223.00357073390214 165.86975345963847  223.1699915200593 166.37648109776168  C 223.33638174225206 166.88070290629102  223.43626477791074 167.18528343754025  224.00194263102304 167.61017434819433  C 224.32197790225374 167.85073398920903  224.64451941856532 167.9710443686139  224.98237348104115 167.9710443686139  C 225.63772600570263 167.9710443686139  226.42364778628013 167.56412208968197  227.60628982476769 166.60937045550727  C 229.47249492705762 165.12237450380798  230.95209644365403 164.47736785455777  233.24579971600463 164.14717896721473  C 233.57087804136137 164.09855976131354  233.83962698032926 164.0754877937111  234.07004870793958 164.0754877937111  C 235.6188164759729 164.0754877937111  235.7723698331177 165.14281840622658  235.93882118323918 166.27667573857042  C 236.00529780580885 166.72714444642074  236.08473354928407 167.28255240824024  236.2485258345028 167.9428996240287  C 236.9217888423025 170.60216544221254  237.24173242164008 171.56198985337  237.87657652618924 172.8263947957767  C 238.65999206168598 174.387679427266  238.621542594471 174.8970045716756  237.54125927275854 177.04440885695848  C 236.89363943109026 178.3420313209331  236.23575009738366 178.876995380334  235.54200923343603 179.44774390869173  C 235.0991373892823 179.8111808765002  234.63835506199027 180.18491619276165  234.1289760313025 180.81965505245643  C 233.87040489247983 181.14211253873535  233.6144316906312 181.43132194454878  233.37627728002764 181.69501467096083  C 232.36775814672595 182.8134703189714  232.12706692707727 183.0796994338749  233.08705048491186 184.03689577984858  C 234.17494423375985 185.12723724217145  234.5001142510098 185.45485918212552  234.3260524737527 185.9743909982957  C 234.16993174359826 186.45049862113734  233.71171678931586 186.5195922883546  233.13060413418162 186.60665458729406  C 232.93860130982185 186.63733572037066  232.7056733371306 186.67315074822497  232.43940007927918 186.72436746041257  C 231.0545468523223 187.00077268817907  230.1713399730601 188.10141249895491  229.48786860115078 189.1405066901927  C 229.2881330937978 189.4425202740531  229.13965335474336 189.66263601264924  228.81457502938662 189.66263601264924  C 228.81457502938662 189.66263601264924  228.50997456017777 189.66263601264924  228.50997456017777 189.66263601264924  L 228.15152038569644 189.16348698110266  C 228.15152038569644 189.16348698110266  228.26420972243866 188.81025668505472  228.26420972243866 188.81025668505472  C 228.39215047741646 188.42894276221665  228.35119476512065 188.28562153300433  228.3154043628084 188.23443537971423  C 228.2591055403839 188.16023837661666  228.05429641494055 188.07571246616868  227.64984347403743 188.07571246616868  C 226.83320490923802 188.07571246616868  225.95262653091413 187.86326701084164  225.0284639393561 187.64064544265162  C 224.0889888016338 187.41285942078622  223.11876631572517 187.18250645153208  222.222875391237 187.18250645153208  C 221.3088905998241 187.18250645153208  220.60500249969567 187.42052970405538  220.01105297951352 187.93248291364884  C 219.17399768649503 188.64649155342389  218.44694210135154 189.00742269163845  217.91962202356106 189.27108485915306  C 216.97748782093598 189.73936940423815  216.85471237594174 189.79831751748986  217.19773174840117 191.35190130681252  C 217.87863574730093 194.4258208049924  218.5340188359267 195.56988480909672  219.3762394389288 196.41196578823823  C 219.5861527464269 196.62187485507388  219.76531870573876 196.74728857035902  219.8933205886453 196.83685669889232  C 220.10323389614342 196.98534238177984  220.36177447100175 197.1695819747267  220.38995444617836 197.5305131129413  C 220.41816498531944 197.9246312138263  220.18251681979663 198.1524783534866  219.66543567008011 198.64637125466555  C 219.66543567008011 198.64637125466555  219.0434284305789 199.25302648757005  219.0434284305789 199.25302648757005  C 218.39061271496263 199.9057339789869  217.88630730236522 200.27170733528675  217.44089864916634 200.58906148568545  C 216.73954735808314 201.08821051723191  216.23518081755694 201.45161692614292  215.45958965694652 202.8081569444718  C 214.90656528509578 203.77818802738986  214.35109579609303 204.32846209443153  213.90061352480376 204.77129107791023  C 213.23499150810403 205.4315771759038  212.86639009744192 205.7925083141184  212.86639009744192 207.19763697945098  C 212.86639009744192 208.10117190143816  213.0327497556702 208.61306399323658  213.15051271050288 208.9918720864808  C 213.49099527391712 210.04890435054327  213.27591665643536 210.47122831380844  211.93455595081952 211.36443432844507  C 211.56081979413824 211.6153534357078  211.26135407094853 211.80469636453495  211.00269124023265 211.96855317285824  C 209.9327385384874 212.64424095518507  209.79446716354252 212.7287057478381  208.77564797423813 214.51007555902606  C 208.4479717119074 215.08342159367018  208.27131199767632 215.52875640674281  208.12796700464105 215.88962642716237  C 207.60067749081497 217.19494973330367  207.2729401005555 217.68639792268368  204.4058568560638 218.46962246526587  C 203.36652924664713 218.75372853519906  202.5218023985643 218.89191586963358  201.82552472557146 218.89191586963358  C 199.7954662101339 218.89191586963358  199.07617387194807 217.69153181746145  198.37989619895518 216.526932234246  C 198.12129449616813 216.0969685466092  197.58630286331328 215.20116502568615  197.34313596254813 215.1115663382554  C 197.35077695364814 215.1320102406739  197.1306552820404 215.28813564793316  196.76966429851387 216.1276802385832  C 196.5443773169227 216.6523765084286  196.38825658676828 217.10791799326176  196.24747896674256 217.51490138998872  C 195.7636514102931 218.93799868704343  195.41042367372404 219.96175231174294  193.13970450260214 221.1033104862534  C 193.13970450260214 221.1033104862534  192.39993430826834 221.46931440145073  192.39993430826834 221.46931440145073  C 190.31871171642547 222.50336637460325  189.54305942788625 222.88730836262522  188.7290493640253 224.5099552602677  C 188.2094008412991 225.55173863448425  187.39786645855446 225.98683621689887  186.74761811594783 226.33490205927157  C 185.96686164535384 226.74949462147265  185.6468875020519 226.92099115416758  185.7748893849584 227.83726913640663  C 185.9002627669266 228.72543293295797  186.09743090126997 228.917342809174  186.36880834117616 229.18100497668863  C 186.8679790077544 229.67498955455994  187.2622541485124 230.17924192198686  187.4516284719338 231.8659097098637  C 187.53100308748023 232.57490669045094  187.64867435041967 233.16359329163333  187.75372269606186 233.6984962332393  C 188.09671150455688 235.45939158311123  188.3476416522796 236.73660070356482  186.6683046283303 238.9786764532612  C 185.96942901836343 239.91552057350873  185.26804716331583 240.96228504801567  184.66138303394337 241.93748058460895  C 184.66138303394337 241.93748058460895  183.54011343597074 243.73419096233525  183.54011343597074 243.73419096233525  C 183.54011343597074 243.73419096233525  183.5862038942857 239.95646949614078  183.5862038942857 239.95646949614078  C 183.5862038942857 239.47009408374365  183.5093966517489 239.47009408374365  183.30712433535078 239.47009408374365  C 183.02043434928026 239.47009408374365  182.59036880621002 239.57252750811884  182.13215385192757 239.6825700979682  C 181.86591115804055 239.74912737669402  181.58432535402477 239.8207879913002  181.2925617498639 239.8796749867569  C 180.87524137994845 239.96154227312357  180.4732641201617 240.01016147902484  180.1098585834476 240.01016147902484  C 179.25736848840714 240.01016147902484  178.6276285659128 239.76446794323238  178.2411472360768 239.29095782667702  C 177.87505207049554 238.84305606621558  177.7648995427985 238.23902889849487  177.91340984581728 237.49938134372854  C 178.05672427488818 236.7750132377055  177.56012098131956 236.3245750887526  176.66930367492165 235.58233002769992  C 176.20852134762967 235.19838803967792  175.72723060022534 234.7990749262202  175.34842082545367 234.29488367658828  C 174.76984497936465 233.53213359532208  173.94299805045569 232.87181693843104  173.1417331597494 232.2344805724499  C 172.6169804549685 231.81732106286003  172.1203771613999 231.42057489679107  171.72096727462275 231.02388984851723  C 170.52808630806132 229.82347523744747  170.51531057094215 226.913351429796  170.9069572107618 225.7257104378757  C 170.9760317703054 225.51583192993752  171.07337799691885 225.26757144675616  171.1809020236775 224.9911356600921  C 171.5520402433848 224.03904264999872  172.1152424153807 222.5980378390168  171.90016379789907 221.71757488463209  C 171.72359577556114 221.01884569360035  170.41808660018626 220.60168618401042  169.76780769361517 220.4967163711439  C 169.73455410034813 220.50948999029325  169.4887586986446 220.53506778748954  169.16878455534265 220.53506778748954  C 167.73524293309683 220.53506778748954  166.70105006969936 220.04624766329346  166.2633435355292 219.15554747825078  C 165.65664884219234 217.94749314280944  164.73508418760827 217.0234837595062  163.5216336730057 216.42718799284964  C 163.5216336730057 216.42718799284964  163.26562990719262 216.30171315976963  163.26562990719262 216.30171315976963  C 162.1802424034254 215.76681021816367  160.69290820383586 215.03733877626033  160.34221727631214 213.84975890213502  C 160.18609654615773 213.31995929640937  160.27054477979445 212.77726383594435  160.59562310515113 212.23728811735566  C 161.47372580235864 210.77324189766884  161.48656266740656 209.0225532195574  160.62893782634697 207.88359255133335  C 160.3883382985914 207.5611045061569  160.1144546136045 207.41518577065833  159.73808995598478 207.41518577065833  C 158.79861481826248 207.41518577065833  157.40859628132196 208.32895792330342  156.4486432874517 209.0148829362883  C 155.0278468383606 210.0309968366161  155.05862475051126 211.30304150339447  155.08934153473308 212.65444762694565  C 155.10465408089746 213.21498948354278  155.11746038198095 213.79340829516968  155.0099363552223 214.32834179567314  C 154.9229818765048 214.76603688437407  154.85898093505145 215.24975367268996  154.79488830170502 215.73860435578348  C 154.59014030419044 217.22828949046158  154.3853923066759 218.76906910173736  153.51496116453282 219.64953205612207  C 153.0772851943271 220.08976353331443  152.5498734246434 220.4557674485118  151.98670181661186 220.83967887763626  C 151.15475070564813 221.41556130077183  150.2946196195078 222.00675373154803  149.53941462315206 222.94610368138947  C 148.5718206381818 224.1542191346258  148.37214625875768 224.94508340157975  148.0086184661859 226.37838737039505  C 147.9062291854465 226.78534020822445  147.78846623061384 227.23837586346377  147.645151801543 227.75286546154865  C 147.48640257045025 228.30057258120138  147.4275363750161 228.65377231835183  147.3865500987559 228.88666167609745  C 147.26374408979734 229.61866950649215  147.05123284532525 229.8183413426697  146.3011625949887 229.91047641859188  C 146.0272483460373 229.94629144644622  145.58951124790275 229.9975387175313  144.87532309177163 230.17416914500402  C 143.948593127204 230.40956433234348  143.18064295769355 230.48635884172742  142.56367877231833 230.5503186141669  C 141.2658411520078 230.6808967831273  141.09685299284106 230.73721683119513  140.96631430088934 231.37712014456508  C 140.7205800271146 232.62865979112993  139.7503269772416 233.96726173663416  138.70082156767978 233.96726173663416  C 138.46783246705985 233.96726173663416  137.6870759964658 233.87515721960955  137.45413274179236 232.7130940248855  C 137.41831177551578 232.52879331414363  137.37219075323642 232.4776377197511  137.37219075323642 232.47513189015714  C 137.05478398294406 232.50834941172508  136.07438369689032 233.245460578  135.20905673680198 233.89300361574172  C 134.84305326311383 234.17200634979457  134.45134549536547 234.46381326189436  134.04175780844318 234.75552849730173  C 132.12698656672185 236.1248726936775  130.23007996219215 236.43975157337974  128.84773298031607 236.66494008895873  C 128.46119052255133 236.73406431507343  128.11560377708227 236.7878174157524  127.82124223594735 236.8620755366449  C 126.54125397084633 237.17939912814603  124.0606979021373 238.47705215101817  122.84987588847314 240.58604390216033  C 122.35068993991267 241.45376379629315  122.04095472468472 242.042419838578  121.79262251393604 242.51073494256062  C 121.37281118092194 243.30422727469832  121.11935950613629 243.7803043386425  120.46147017242959 244.66073673412978  C 119.70374364901093 245.67174729857737  118.09095965754227 246.43963127462135  116.53458146237342 247.1792788293877  C 115.82803429734228 247.512065223017  115.14709973447816 247.8370590977873  114.60697335560413 248.15704131336983  C 114.2639692651269 248.3668892624104  113.87224621539629 248.4692310100932  113.4422265182727 248.4692310100932  C 112.45151089423399 248.4692310100932  111.41224441274622 247.92919417370953  110.40613983263215 247.40196151537268  C 109.62284655299298 246.99757562493215  108.81646219824975 246.57778805015835  108.28402265642227 246.57778805015835  C 107.27796392225481 246.57778805015835  105.90072112243352 247.821718531249  104.68988382678721 248.91716332945214  C 104.21377367134863 249.34975508227282  103.74787188001957 249.76945098035426  103.30753684491111 250.12011432901323  C 101.69736607239855 251.4024573442446  100.22030136484732 252.25471443624912  98.25428963680969 252.25471443624912  C 97.60413298609623 252.25471443624912  96.95640617055254 252.04996982308873  96.3266815300404 251.85546244058636  C 95.75835989400755 251.6763261835198  95.2259356341623 251.51249993409394  94.7600185608511 251.51249993409394  C 94.30690778862333 251.51249993409394  93.99458991840358 251.66599727616924  93.70279575027824 252.02955647956767  C 93.20872926575481 252.64635726643775  92.855440401257 253.21710579479557  92.55595939608514 253.7008531420088  C 92.00814618016459 254.58898637966266  91.57294589107522 255.2902825180833  90.75123370818547 255.56931581103368  C 90.36725862343022 255.69469896742137  89.798906423433 255.7356784489509  89.08471826730182 255.78423653705713  C 88.23737820026282 255.84569047990271  86.2560539260608 255.98387781433726  86.12803676117204 256.48553267547777  C 86.06658791074616 256.7338237175567  86.03073638050518 256.96931058158856  85.99745222327377 257.1893957612873  C 85.84386830216447 258.15942684420526  85.66979124292519 259.2626030434725  83.63472023732606 259.6004927729822  C 83.1457426528752 259.6823295004513  82.80530593540756 259.9101155223167  82.60561627400119 260.3120261420608  C 82.24720794546643 261.0235289522419  82.40079186657562 262.08062233409936  82.74130499395426 262.7537737279348  C 83.4605973321402 264.21008854655753  82.76179813208434 266.22694522177744  80.66261921115652 268.7557245476933  C 80.10459763112648 269.4212056582596  79.43134990530889 269.75390037519657  78.66077123486005 269.75390037519657  C 77.06340676343103 269.75390037519657  75.5658794817142 268.2642763583134  74.75949512697089 267.46060791331263  C 74.5700596756207 267.2686369193016  74.37290682325953 267.04082033853877  74.1656067347176 266.8003523742165  C 73.62544979187913 266.16808878521823  72.95221734804385 265.3746270119779  72.36344841982742 265.3746270119779  C 72.12026623708012 265.3746270119779  71.86936665332176 265.5128449053099  71.59031765835122 265.78931125087144  C 70.36158516154872 267.01273671174863  70.37185465358706 267.48364932201747  70.4153624569103 269.0397694998316  C 70.42298816602806 269.3367714245041  70.43073613100344 269.66949670033847  70.43073613100344 270.04567672839886  C 70.43073613100344 271.2819980440153  70.78139649456281 271.4918154341586  71.54934666407321 271.94738747788927  C 71.94615861387639 272.18544128931  72.44024038038205 272.4771259658199  72.92663530984112 272.96866583189234  C 74.00175332156999 274.0410692213905  73.26710259127323 275.2798046899084  72.72948245747993 276.18587600038694  C 72.36595466490826 276.80007928097064  71.98966641719954 277.4349403762553  72.09208626190345 277.9442349617675  C 72.50933022190794 280.06859783834545  71.8872771364601 281.54291184758773  70.13631346193968 282.59224326948356  C 69.06883644131082 283.2320549061611  67.7607140469797 283.61602745308056  66.63435554893455 283.61602745308056  C 65.68208939211083 283.61602745308056  64.9064218215894 283.3447561200918  64.39441428996324 282.83533929898965  C 64.11796323196668 282.5564282416292  63.83637742795097 282.20579545186763  63.56758264303647 281.86790572235805  C 63.41655081295473 281.678440557941  63.219443806540056 281.4277048040631  63.053068866329546 281.24850742920154  C 62.85336392294094 282.1367017846504  62.22619137345617 282.66390388408973  61.36865822428981 282.66390388408973  C 60.44446506876739 282.66390388408973  59.35142129191804 282.02925670108743  58.650008872905964 281.09235146304485  C 57.70286218011926 279.8280687562281  56.53554796977824 278.530415733356  55.03799012409703 278.530415733356  C 54.792240568340034 278.530415733356  54.53880417553654 278.56620020231287  54.28536778273304 278.6404888821028  C 52.11199483822465 279.25728966897293  51.208371230743246 279.81520346038633  48.538394992666205 282.80985317848587  Z " fill-rule="nonzero" fill="#4b636b" stroke="none" transform="matrix(1 0 0 1 2730 362 )" />
  </g>
</svg>