<?xml version="1.0" encoding="utf-8"?>
<svg version="1.1" xmlns:xlink="http://www.w3.org/1999/xlink" width="9px" height="15px" xmlns="http://www.w3.org/2000/svg">
  <g transform="matrix(1 0 0 1 -3222 -174 )">
    <path d="M 8.944916011436797 4.553642589697844  C 8.944916011436797 4.553642589697844  6.932757601583549 4.553642589697844  6.932757601583549 4.553642589697844  C 6.730607714301424 2.3899019216666852  5.839212074558751 1.662739685954311  4.571228762302801 1.662739685954311  C 2.8162423709242863 1.662739685954311  2.0673970418430745 2.718032005556147  2.0673970418430745 7.497768685579191  C 2.0673970418430745 12.27311736266098  2.8162423709242863 13.328432070032925  4.571228762302801 13.328432070032925  C 5.894357920492718 13.328432070032925  6.638471160719195 12.658895954579691  6.987748804090892 10.162555111227416  C 6.987748804090892 10.162555111227416  9 10.162555111227416  9 10.162555111227416  C 8.655485374168363 13.000301986143462  7.272509209875185 15.000000000000043  4.571228762302801 15.000000000000043  C 1.4380601528564358 15.000000000000043  0 12.720977241090415  0 7.497768685579191  C 0 2.2746049056081863  1.4380601528564358 0  4.571228762302801 0  C 7.272509209875185 0  8.540523450816517 1.7203732688034883  8.944916011436797 4.553642589697844  Z " fill-rule="nonzero" fill="#efebdf" stroke="none" transform="matrix(1 0 0 1 3222 174 )" />
  </g>
</svg>