<?xml version="1.0" encoding="utf-8"?>
<svg version="1.1" xmlns:xlink="http://www.w3.org/1999/xlink" width="9px" height="15px" xmlns="http://www.w3.org/2000/svg">
  <g transform="matrix(1 0 0 1 -2787 -469 )">
    <path d="M 0 7.500161655682634  C 0 2.280114914096655  1.423509617143126 0  4.503315445429731 0  C 7.583199653040827 0  8.999999999999972 2.280114914096655  8.999999999999972 7.500161655682634  C 8.999999999999972 12.719992856358434  7.583199653040827 15  4.503315445429731 15  C 1.423509617143126 15  0 12.719992856358434  0 7.500161655682634  Z M 2.042157626047046 7.500161655682634  C 2.042157626047046 12.275624478467947  2.780475187718512 13.327541099032894  4.503315445429731 13.327541099032894  C 6.226187054870752 13.327541099032894  6.964504616542246 12.275624478467947  6.964504616542246 7.500161655682634  C 6.964504616542246 2.7177553364337586  6.226187054870752 1.6660234652204213  4.503315445429731 1.6660234652204213  C 2.780475187718512 1.6660234652204213  2.042157626047046 2.7177553364337586  2.042157626047046 7.500161655682634  Z " fill-rule="nonzero" fill="#efebdf" stroke="none" transform="matrix(1 0 0 1 2787 469 )" />
  </g>
</svg>