<?xml version="1.0" encoding="utf-8"?>
<svg version="1.1" xmlns:xlink="http://www.w3.org/1999/xlink" width="9px" height="20px" xmlns="http://www.w3.org/2000/svg">
  <g transform="matrix(1 0 0 1 -2810 -463 )">
    <path d="M 7.147348067132952 19.723631100358247  L 7.064096560267138 18.35532192571018  C 7.064096560267138 18.35532192571018  7.012795141773797 18.35532192571018  7.012795141773797 18.35532192571018  C 6.327023883257605 19.37025923021251  5.34613351058205 20.000000000000057  4.089792588787984 20.000000000000057  C 1.8525008686194802 20.000000000000057  0 18.08534218327497  0 12.624611275802657  C 0 7.157097566366963  1.8525008686194802 5.249071149775746  4.089792588787984 5.249071149775746  C 5.153858936205569 5.249071149775746  6.057631010468752 5.904126305462332  6.711557925585751 6.553185948698976  C 6.711557925585751 6.553185948698976  6.711557925585751 0  6.711557925585751 0  L 8.67308186171576 0  C 8.67308186171576 0  8.67308186171576 15.900977147407822  8.67308186171576 15.900977147407822  C 8.67308186171576 17.757829745614675  8.782059609952114 18.91420663927303  9 19.723631100358247  C 9 19.723631100358247  7.147348067132952 19.723631100358247  7.147348067132952 19.723631100358247  Z M 6.711557925585751 16.993220226073213  C 6.711557925585751 16.993220226073213  6.711557925585751 8.139998243738749  6.711557925585751 8.139998243738749  C 6.13464356390773 7.568365496128684  5.4551414716679 6.88729950612726  4.5833194857773005 6.88729950612726  C 2.9166578545855555 6.88729950612726  1.9678384216807128 8.249370925398233  1.9678384216807128 12.624611275802657  C 1.9678384216807128 16.993220226073213  3.006435336948776 18.35532192571018  4.640935389821319 18.35532192571018  C 5.2371255494962 18.35532192571018  6.102602836986627 17.815544123035153  6.711557925585751 16.993220226073213  Z " fill-rule="nonzero" fill="#efebdf" stroke="none" transform="matrix(1 0 0 1 2810 463 )" />
  </g>
</svg>