<?xml version="1.0" encoding="utf-8"?>
<svg version="1.1" xmlns:xlink="http://www.w3.org/1999/xlink" width="8px" height="20px" xmlns="http://www.w3.org/2000/svg">
  <g transform="matrix(1 0 0 1 -2835 -463 )">
    <path d="M 0 20.00000000000003  L 0 0  L 1.9248136964290385 0  C 1.9248136964290385 0  1.9248136964290385 7.1791785583243195  1.9248136964290385 7.1791785583243195  C 2.721009132799559 6.208481547269051  4.0564922292711305 5.322621502163882  4.965553924148794 5.322621502163882  C 6.884191668744402 5.322621502163882  8 6.423444847528323  8 9.088056349185665  C 8 9.088056349185665  8 20.00000000000003  8 20.00000000000003  L 6.087833707325632 20.00000000000003  C 6.087833707325632 20.00000000000003  6.087833707325632 9.36166554338804  6.087833707325632 9.36166554338804  C 6.087833707325632 7.700420807317591  5.605075214006732 6.983804828921358  4.5644125550600325 6.983804828921358  C 3.630189027712395 6.983804828921358  2.7775087495728825 7.648284300555601  1.9248136964290385 8.7558012610403  C 1.9248136964290385 8.7558012610403  1.9248136964290385 20.00000000000003  1.9248136964290385 20.00000000000003  L 0 20.00000000000003  Z " fill-rule="nonzero" fill="#efebdf" stroke="none" transform="matrix(1 0 0 1 2835 463 )" />
  </g>
</svg>