<?xml version="1.0" encoding="utf-8"?>
<svg version="1.1" xmlns:xlink="http://www.w3.org/1999/xlink" width="9px" height="15px" xmlns="http://www.w3.org/2000/svg">
  <g transform="matrix(1 0 0 1 -2848 -469 )">
    <path d="M 8.830325070151034 7.8267369261607875  L 1.997079461212773 7.8267369261607875  C 1.997079461212773 7.8267369261607875  1.997079461212773 8.630227251966355  1.997079461212773 8.630227251966355  C 1.997079461212773 12.164636305505661  2.806449793733801 13.327541099032894  4.692499222442862 13.327541099032894  C 6.219788914598621 13.327541099032894  6.859392035764211 11.916456343215058  7.1073985843333345 10.603165577500814  C 7.1073985843333345 10.603165577500814  9 10.831916066316778  9 10.831916066316778  C 8.686688905370442 13.000950432775328  7.055090350430534 15  4.41836162729892 15  C 1.3901901340816398 15  0 12.719992856358434  0 7.500161655682634  C 0 2.280114914096655  1.3901901340816398 0  4.41836162729892 0  C 7.466358264150686 0  8.830325070151034 2.7177553364337586  8.830325070151034 6.885977832130609  C 8.830325070151034 6.885977832130609  8.830325070151034 7.8267369261607875  8.830325070151034 7.8267369261607875  Z M 1.997079461212773 6.160836627174754  C 1.997079461212773 6.160836627174754  6.833153327431903 6.160836627174754  6.833153327431903 6.160836627174754  C 6.774477669584329 3.0510123751273714  6.219788914598621 1.6660234652204213  4.41836162729892 1.6660234652204213  C 2.976109343331636 1.6660234652204213  2.029793255247229 2.7177553364337586  1.997079461212773 6.160836627174754  Z " fill-rule="nonzero" fill="#efebdf" stroke="none" transform="matrix(1 0 0 1 2848 469 )" />
  </g>
</svg>