<?xml version="1.0" encoding="utf-8"?>
<svg version="1.1" xmlns:xlink="http://www.w3.org/1999/xlink" width="8px" height="15px" xmlns="http://www.w3.org/2000/svg">
  <g transform="matrix(1 0 0 1 -2870 -469 )">
    <path d="M 0 15  L 0 0.2796663354426777  L 1.818011905003786 0.2796663354426777  C 1.818011905003786 0.2796663354426777  1.818011905003786 1.8974792113383483  1.818011905003786 1.8974792113383483  C 2.7208862080364966 0.9053972072590638  4.0564037875863646 0  4.959263315560169 0  C 6.877789946680561 0  8 1.1252078866168087  8 3.8482715339155606  C 8 3.8482715339155606  8 15  8 15  L 6.081532469115509 15  C 6.081532469115509 15  6.081532469115509 4.127796663354398  6.081532469115509 4.127796663354398  C 6.081532469115509 2.4301867057161988  5.605081142776963 1.697813921866011  4.5578840638060925 1.697813921866011  C 3.630084236304878 1.697813921866011  2.7774155836241183 2.376857904921291  1.918408430648671 3.508624025940037  C 1.918408430648671 3.508624025940037  1.918408430648671 15  1.918408430648671 15  L 0 15  Z " fill-rule="nonzero" fill="#efebdf" stroke="none" transform="matrix(1 0 0 1 2870 469 )" />
  </g>
</svg>