<?xml version="1.0" encoding="utf-8"?>
<svg version="1.1" xmlns:xlink="http://www.w3.org/1999/xlink" width="9px" height="15px" xmlns="http://www.w3.org/2000/svg">
  <g transform="matrix(1 0 0 1 -2913 -469 )">
    <path d="M 8.830205522322178 7.8267369261607875  L 1.9985481074092695 7.8267369261607875  C 1.9985481074092695 7.8267369261607875  1.9985481074092695 8.630227251966355  1.9985481074092695 8.630227251966355  C 1.9985481074092695 12.164636305505661  2.8083655691111136 13.327541099032894  4.695774633435627 13.327541099032894  C 6.21761458664675 13.327541099032894  6.857683743933317 11.916456343215058  7.112329287187433 10.603165577500814  C 7.112329287187433 10.603165577500814  8.999999999999972 10.831916066316778  8.999999999999972 10.831916066316778  C 8.692778501728961 13.000950432775328  7.053627679331793 15  4.414995023548364 15  C 1.3846284078432982 15  0 12.719992856358434  0 7.500161655682634  C 0 2.280114914096655  1.3846284078432982 0  4.414995023548364 0  C 7.465016058034661 0  8.830205522322178 2.7177553364337586  8.830205522322178 6.885977832130609  C 8.830205522322178 6.885977832130609  8.830205522322178 7.8267369261607875  8.830205522322178 7.8267369261607875  Z M 1.9985481074092695 6.160836627174754  C 1.9985481074092695 6.160836627174754  6.831580459475238 6.160836627174754  6.831580459475238 6.160836627174754  C 6.779266152946367 3.0510123751273714  6.21761458664675 1.6660234652204213  4.414995023548364 1.6660234652204213  C 2.971603443499346 1.6660234652204213  2.024651391867349 2.7177553364337586  1.9985481074092695 6.160836627174754  Z " fill-rule="nonzero" fill="#efebdf" stroke="none" transform="matrix(1 0 0 1 2913 469 )" />
  </g>
</svg>