<?xml version="1.0" encoding="utf-8"?>
<svg version="1.1" xmlns:xlink="http://www.w3.org/1999/xlink" width="8px" height="15px" xmlns="http://www.w3.org/2000/svg">
  <g transform="matrix(1 0 0 1 -2925 -469 )">
    <path d="M 7.6884574701561 3.4429273329480683  C 7.6884574701561 3.4429273329480683  6.13126290718341 3.9460614004205836  6.13126290718341 3.9460614004205836  C 5.795399106301224 2.6917056778607664  5.300770653292393 1.6660234652204213  3.798464449929123 1.6660234652204213  C 2.9068092363264806 1.6660234652204213  2.283954437192836 2.4106865183266226  2.283954437192836 3.38417703914528  C 2.283954437192836 6.330652072836406  8.000000000000027 6.494001291192662  8.000000000000027 11.001731511978429  C 8.000000000000027 13.275180053638895  6.442690306750232 15  4.3114561821361255 15  C 1.874838997503139 15  0.6473487655875602 13.582387433759658  0 11.158583711470836  C 0 11.158583711470836  1.7161031279457162 10.779662791377953  1.7161031279457162 10.779662791377953  C 2.1067977232987434 12.053586549426125  2.803105639224859 13.327541099032894  4.1832442272960035 13.327541099032894  C 5.196951925913667 13.327541099032894  6.13126290718341 12.334451751167315  6.13126290718341 11.139015675982481  C 6.13126290718341 7.800425539339779  0.41536125722262596 7.748341617973237  0.41536125722262596 3.4952575867834708  C 0.41536125722262596 1.6071807967418426  1.874838997503139 0  3.920531326228836 0  C 5.996992221510653 0  7.248846898318405 1.2741085073997247  7.6884574701561 3.4429273329480683  Z " fill-rule="nonzero" fill="#efebdf" stroke="none" transform="matrix(1 0 0 1 2925 469 )" />
  </g>
</svg>