<?xml version="1.0" encoding="utf-8"?>
<svg version="1.1" xmlns:xlink="http://www.w3.org/1999/xlink" width="7px" height="19px" xmlns="http://www.w3.org/2000/svg">
  <g transform="matrix(1 0 0 1 -2937 -464 )">
    <path d="M 0 6.314295721712602  L 0 4.696128643785641  L 2.0562963998928083 4.696128643785641  L 2.0562963998928083 0  L 4.175084787245232 0  L 4.175084787245232 4.696128643785641  L 7.000000000000031 4.696128643785641  L 7.000000000000031 6.314295721712602  L 4.175084787245232 6.314295721712602  C 4.175084787245232 6.314295721712602  4.175084787245232 16.137927641806108  4.175084787245232 16.137927641806108  C 4.175084787245232 16.95030874036293  4.645863198256502 17.5404597456877  5.698290269570994 17.5404597456877  C 6.113755929279832 17.5404597456877  6.646895796184283 17.375506991424533  7.000000000000031 17.267652117104856  C 7.000000000000031 17.267652117104856  7.000000000000031 18.72716246157966  7.000000000000031 18.72716246157966  C 6.411498432455711 18.89208530600519  5.885309371467228 19  4.998934769180565 19  C 2.9980327028192795 19  2.0562963998928083 18.136921726742152  2.0562963998928083 15.972930022786574  C 2.0562963998928083 15.972930022786574  2.0562963998928083 6.314295721712602  2.0562963998928083 6.314295721712602  L 0 6.314295721712602  Z " fill-rule="nonzero" fill="#efebdf" stroke="none" transform="matrix(1 0 0 1 2937 464 )" />
  </g>
</svg>