<?xml version="1.0" encoding="utf-8"?>
<svg version="1.1" xmlns:xlink="http://www.w3.org/1999/xlink" width="7px" height="20px" xmlns="http://www.w3.org/2000/svg">
  <g transform="matrix(1 0 0 1 -2947 -463 )">
    <path d="M 0 7.433390361701133  L 0 5.795091522960199  L 2.3060751034578804 5.795091522960199  C 2.3060751034578804 5.795091522960199  2.3060751034578804 2.9040560795773116  2.3060751034578804 2.9040560795773116  C 2.3060751034578804 0.9830126118488071  3.129240514736055 0  5.381002219163648 0  C 5.931927328690389 0  6.510249604375119 0.08357431603806474  7 0.17355296825087227  C 7 0.17355296825087227  7 1.702569304607242  7 1.702569304607242  C 6.625914059512118 1.529137458553498  6.251667807928986 1.477736226135114  5.87075261478844 1.477736226135114  C 4.857105560275886 1.477736226135114  4.394527895275632 2.0816363608836146  4.394527895275632 2.9810897969689454  C 4.394527895275632 2.9810897969689454  4.394527895275632 5.795091522960199  4.394527895275632 5.795091522960199  L 6.829925959175605 5.795091522960199  L 6.829925959175605 7.433390361701133  L 4.394527895275632 7.433390361701133  L 4.394527895275632 20  L 2.3060751034578804 20  L 2.3060751034578804 7.433390361701133  L 0 7.433390361701133  Z " fill-rule="nonzero" fill="#efebdf" stroke="none" transform="matrix(1 0 0 1 2947 463 )" />
  </g>
</svg>