<?xml version="1.0" encoding="utf-8"?>
<svg version="1.1" xmlns:xlink="http://www.w3.org/1999/xlink" width="9px" height="15px" xmlns="http://www.w3.org/2000/svg">
  <g transform="matrix(1 0 0 1 -2958 -469 )">
    <path d="M 2.180949645508061 4.494782370395765  C 2.180949645508061 4.494782370395765  0.3848619068494526 4.220337208622075  0.3848619068494526 4.220337208622075  C 0.763450287977506 1.9402530860839315  2.072047285755317 0  4.5802482199815575 0  C 7.20376109204704 0  8.647110398935768 1.5548813344650942  8.647110398935768 4.109379827218272  C 8.647110398935768 4.109379827218272  8.647110398935768 12.164636305505661  8.647110398935768 12.164636305505661  C 8.647110398935768 13.445149457093503  8.781862708046742 14.385939342682365  9 14.719134798258839  C 9 14.719134798258839  6.9598947861710325 14.719134798258839  6.9598947861710325 14.719134798258839  C 6.9598947861710325 14.719134798258839  6.709875890009221 13.497433523590923  6.709875890009221 13.497433523590923  C 5.946516303608467 14.281340418128895  4.5802482199815575 15  3.6885005517678966 15  C 1.4752460280268154 15  0 13.549732985867758  0 11.269679654888268  C 0 7.715594795405546  3.842345542773352 5.9125027070911935  6.684161993015978 5.272284620745504  C 6.684161993015978 5.272284620745504  6.684161993015978 4.24660240810516  6.684161993015978 4.24660240810516  C 6.684161993015978 2.6655174572741465  5.895088509621898 1.6660234652204213  4.637783253465584 1.6660234652204213  C 3.1367779776572062 1.6660234652204213  2.3990415866728867 3.188157977117795  2.180949645508061 4.494782370395765  Z M 6.684161993015978 11.831471641487754  C 6.684161993015978 11.831471641487754  6.684161993015978 6.944743521712639  6.684161993015978 6.944743521712639  C 4.887998669710236 7.500161655682634  1.9629635228492388 8.826169335097347  1.9629635228492388 11.106376623869822  C 1.9629635228492388 12.47172051939201  2.559553143565507 13.327541099032894  3.9835225469003017 13.327541099032894  C 5.0484346419555255 13.327541099032894  5.978458375534761 12.57628865238691  6.684161993015978 11.831471641487754  Z " fill-rule="nonzero" fill="#efebdf" stroke="none" transform="matrix(1 0 0 1 2958 469 )" />
  </g>
</svg>