<?xml version="1.0" encoding="utf-8"?>
<svg version="1.1" xmlns:xlink="http://www.w3.org/1999/xlink" width="9px" height="15px" xmlns="http://www.w3.org/2000/svg">
  <g transform="matrix(1 0 0 1 -2980 -469 )">
    <path d="M 8.830171255015003 7.8267369261607875  L 1.9985429471459208 7.8267369261607875  C 1.9985429471459208 7.8267369261607875  1.9985429471459208 8.630227251966355  1.9985429471459208 8.630227251966355  C 1.9985429471459208 12.164636305505661  2.80836163641398 13.327541099032894  4.695994130744899 13.327541099032894  C 6.224175790348621 13.327541099032894  6.864288865858818 11.916456343215058  7.112429071282719 10.603165577500814  C 7.112429071282719 10.603165577500814  9.000000000000028 10.831916066316778  9.000000000000028 10.831916066316778  C 8.699559805863128 13.000950432775328  7.053695475953498 15  4.414993279087187 15  C 1.3911366038355377 15  0 12.719992856358434  0 7.500161655682634  C 0 2.280114914096655  1.3911366038355377 0  4.414993279087187 0  C 7.471649034959036 0  8.830171255015003 2.7177553364337586  8.830171255015003 6.885977832130609  C 8.830171255015003 6.885977832130609  8.830171255015003 7.8267369261607875  8.830171255015003 7.8267369261607875  Z M 1.9985429471459208 6.160836627174754  C 1.9985429471459208 6.160836627174754  6.831474393835229 6.160836627174754  6.831474393835229 6.160836627174754  C 6.779482233190022 3.0510123751273714  6.224175790348621 1.6660234652204213  4.414993279087187 1.6660234652204213  C 2.971664426362453 1.6660234652204213  2.024646767292242 2.7177553364337586  1.9985429471459208 6.160836627174754  Z " fill-rule="nonzero" fill="#efebdf" stroke="none" transform="matrix(1 0 0 1 2980 469 )" />
  </g>
</svg>