<?xml version="1.0" encoding="utf-8"?>
<svg version="1.1" xmlns:xlink="http://www.w3.org/1999/xlink" width="8px" height="15px" xmlns="http://www.w3.org/2000/svg">
  <g transform="matrix(1 0 0 1 -2994 -469 )">
    <path d="M 0 15  L 0 0.2796663354426777  L 1.8085691613039547 0.2796663354426777  C 1.8085691613039547 0.2796663354426777  1.8085691613039547 1.8974792113383483  1.8085691613039547 1.8974792113383483  C 2.719031913771931 0.9053972072590638  4.056535821373117 0  4.960753810951615 0  C 6.882394615001886 0  8 1.1252078866168087  8 3.8482715339155606  C 8 3.8482715339155606  8 15  8 15  L 6.078521974129395 15  C 6.078521974129395 15  6.078521974129395 4.127796663354398  6.078521974129395 4.127796663354398  C 6.078521974129395 2.4301867057161988  5.601285947618777 1.697813921866011  4.558972869686818 1.697813921866011  C 3.6233978835137424 1.697813921866011  2.769359967296384 2.376857904921291  1.9152628590137493 3.508624025940037  C 1.9152628590137493 3.508624025940037  1.9152628590137493 15  1.9152628590137493 15  L 0 15  Z " fill-rule="nonzero" fill="#efebdf" stroke="none" transform="matrix(1 0 0 1 2994 469 )" />
  </g>
</svg>