<?xml version="1.0" encoding="utf-8"?>
<svg version="1.1" xmlns:xlink="http://www.w3.org/1999/xlink" width="10px" height="19px" xmlns="http://www.w3.org/2000/svg">
  <g transform="matrix(1 0 0 1 -2761 -664 )">
    <path d="M 0 19  L 0 0  C 0 0  4.60825909810781 0  4.60825909810781 0  C 7.6742052456718195 0  9.838289283506592 1.7829559011957317  9.838289283506592 4.921859018103819  C 9.838289283506592 7.045283976378511  8.886734818188245 8.83452822427491  6.772403296179346 9.571282901528273  C 6.772403296179346 9.571282901528273  9.999999999999972 19  9.999999999999972 19  L 7.829538977065385 19  L 4.7575316856447145 9.992302685391966  L 2.0585479424447013 10.103786089042416  L 2.0585479424447013 19  L 0 19  Z M 2.0585479424447013 1.733607351849546  L 2.0585479424447013 8.308223549937196  C 2.0585479424447013 8.308223549937196  3.8619412806008806 8.308223549937196  3.8619412806008806 8.308223549937196  C 6.822200932182897 8.308223549937196  7.7736350770276355 7.156767380028961  7.7736350770276355 5.020765728352935  C 7.7736350770276355 2.89135186845856  6.822200932182897 1.733607351849546  3.8619412806008806 1.733607351849546  C 3.8619412806008806 1.733607351849546  2.0585479424447013 1.733607351849546  2.0585479424447013 1.733607351849546  Z " fill-rule="nonzero" fill="#efebdf" stroke="none" transform="matrix(1 0 0 1 2761 664 )" />
  </g>
</svg>