<?xml version="1.0" encoding="utf-8"?>
<svg version="1.1" xmlns:xlink="http://www.w3.org/1999/xlink" width="8px" height="19px" xmlns="http://www.w3.org/2000/svg">
  <g transform="matrix(1 0 0 1 -2776 -664 )">
    <path d="M 0 19  L 0 0  L 1.9136369413098906 0  C 1.9136369413098906 0  1.9136369413098906 6.810069865265474  1.9136369413098906 6.810069865265474  C 2.71680390293495 5.88780896034244  4.053301162951737 5.045619670074562  4.956848820071587 5.045619670074562  C 6.883278040489944 5.045619670074562  8 6.09822901874999  8 8.630396512568081  C 8 8.630396512568081  8 19  8 19  L 6.080020030614974 19  C 6.080020030614974 19  6.080020030614974 8.896453467022429  6.080020030614974 8.896453467022429  C 6.080020030614974 7.311640375913955  5.603245870108291 6.624324081531015  4.561684240875704 6.624324081531015  C 3.626755286963275 6.624324081531015  2.7732689925700833 7.2620522705029815  1.9136369413098906 8.308223549937196  C 1.9136369413098906 8.308223549937196  1.9136369413098906 19  1.9136369413098906 19  L 0 19  Z " fill-rule="nonzero" fill="#efebdf" stroke="none" transform="matrix(1 0 0 1 2776 664 )" />
  </g>
</svg>