<?xml version="1.0" encoding="utf-8"?>
<svg version="1.1" xmlns:xlink="http://www.w3.org/1999/xlink" width="9px" height="14px" xmlns="http://www.w3.org/2000/svg">
  <g transform="matrix(1 0 0 1 -2789 -670 )">
    <path d="M 8.830246496485575 7.317016857175414  L 1.9985011890449613 7.317016857175414  C 1.9985011890449613 7.317016857175414  1.9985011890449613 8.060881325654  1.9985011890449613 8.060881325654  C 1.9985011890449613 11.35960850568998  2.8018884316013937 12.450985266297923  4.695966022271588 12.450985266297923  C 6.224253007713494 12.450985266297923  6.857839360460583 11.12785499711393  7.106048772782746 9.90847998921416  C 7.106048772782746 9.90847998921416  8.999999999999972 10.115725077628957  8.999999999999972 10.115725077628957  C 8.68657125055948 12.139955423915197  7.053623735268538 14  4.415107452811207 14  C 1.3846117395158117 14  0 11.883870451280192  0 7  C 0 2.1278971295192273  1.3846117395158117 0  4.415107452811207 0  C 7.465268478461232 0  8.830246496485575 2.5425937551348867  8.830246496485575 6.432737721563787  C 8.830246496485575 6.432737721563787  8.830246496485575 7.317016857175414  8.830246496485575 7.317016857175414  Z M 1.9985011890449613 5.755939615836729  C 1.9985011890449613 5.755939615836729  6.8315399668295935 5.755939615836729  6.8315399668295935 5.755939615836729  C 6.772844142966177 2.85374156825239  6.224253007713494 1.554972255811167  4.415107452811207 1.554972255811167  C 2.9715945488210465 1.554972255811167  2.024690014654709 2.5425937551348867  1.9985011890449613 5.755939615836729  Z " fill-rule="nonzero" fill="#efebdf" stroke="none" transform="matrix(1 0 0 1 2789 670 )" />
  </g>
</svg>