<?xml version="1.0" encoding="utf-8"?>
<svg version="1.1" xmlns:xlink="http://www.w3.org/1999/xlink" width="9px" height="15px" xmlns="http://www.w3.org/2000/svg">
  <g transform="matrix(1 0 0 1 -3257 -174 )">
    <path d="M 8.831487404772648 7.834764326431599  L 1.9960814110901706 7.834764326431599  C 1.9960814110901706 7.834764326431599  1.9960814110901706 8.637283796329003  1.9960814110901706 8.637283796329003  C 1.9960814110901706 12.16232028839428  2.803227775860696 13.328432070032925  4.697419239242959 13.328432070032925  C 6.22334961378181 13.328432070032925  6.86204310779609 11.914017530121502  7.110467045364054 10.605952360815234  C 7.110467045364054 10.605952360815234  9 10.832083764090614  9 10.832083764090614  C 8.693912085578587 13.000301986143462  7.0572226793725505 15.000000000000043  4.418117750112868 15.000000000000043  C 1.3841146178961616 15.000000000000043  0 12.720977241090415  0 7.497768685579191  C 0 2.2746049056081863  1.3841146178961616 0  4.418117750112868 0  C 7.474129349932312 0  8.831487404772648 2.718032005556147  8.831487404772648 6.885881078155208  C 8.831487404772648 6.885881078155208  8.831487404772648 7.834764326431599  8.831487404772648 7.834764326431599  Z M 1.9960814110901706 6.163174008694415  C 1.9960814110901706 6.163174008694415  6.830986382820643 6.163174008694415  6.830986382820643 6.163174008694415  C 6.782042178748705 3.054990333458373  6.22334961378181 1.662739685954311  4.418117750112868 1.662739685954311  C 2.9719792689724738 1.662739685954311  2.0272575850078307 2.718032005556147  1.9960814110901706 6.163174008694415  Z " fill-rule="nonzero" fill="#efebdf" stroke="none" transform="matrix(1 0 0 1 3257 174 )" />
  </g>
</svg>