<?xml version="1.0" encoding="utf-8"?>
<svg version="1.1" xmlns:xlink="http://www.w3.org/1999/xlink" width="8px" height="14px" xmlns="http://www.w3.org/2000/svg">
  <g transform="matrix(1 0 0 1 -2811 -670 )">
    <path d="M 0 14.000000000000057  L 0 0.2670492098780268  L 1.807008658870866 0.2670492098780268  C 1.807008658870866 0.2670492098780268  1.807008658870866 1.7701436039175629  1.807008658870866 1.7701436039175629  C 2.7167420642824234 0.8448597007751006  4.05333029846075 0  4.956796691988913 0  C 6.876839180205016 0  8 1.056119689959743  8 3.5963768551342903  C 8 3.5963768551342903  8 14.000000000000057  8 14.000000000000057  L 6.080003034872554 14.000000000000057  C 6.080003034872554 14.000000000000057  6.080003034872554 3.8636063209758413  6.080003034872554 3.8636063209758413  C 6.080003034872554 2.273298083278255  5.603194203393423 1.5839692363156241  4.561580409897506 1.5839692363156241  C 3.6266120389601486 1.5839692363156241  2.7671209491564284 2.223667608003365  1.9199362676757619 3.2732980832782554  C 1.9199362676757619 3.2732980832782554  1.9199362676757619 14.000000000000057  1.9199362676757619 14.000000000000057  L 0 14.000000000000057  Z " fill-rule="nonzero" fill="#efebdf" stroke="none" transform="matrix(1 0 0 1 2811 670 )" />
  </g>
</svg>