<?xml version="1.0" encoding="utf-8"?>
<svg version="1.1" xmlns:xlink="http://www.w3.org/1999/xlink" width="9px" height="14px" xmlns="http://www.w3.org/2000/svg">
  <g transform="matrix(1 0 0 1 -2832 -670 )">
    <path d="M 2.180928724473321 4.201262286862695  C 2.180928724473321 4.201262286862695  0.3783348186351945 3.945000358125445  0.3783348186351945 3.945000358125445  C 0.7634646776837277 1.8170147505550946  2.0720219123677954 0  4.580229569630174 0  C 7.1974060941618445 0  8.640716116587862 1.4573219800545192  8.640716116587862 3.841451545627288  C 8.640716116587862 3.841451545627288  8.640716116587862 11.35960850568998  8.640716116587862 11.35960850568998  C 8.640716116587862 12.548665034738223  8.775422362957205 13.43878372172389  8.999999999999972 13.743708578579097  C 8.999999999999972 13.743708578579097  6.953575842614344 13.743708578579097  6.953575842614344 13.743708578579097  C 6.953575842614344 13.743708578579097  6.709668022112294 12.603609904485838  6.709668022112294 12.603609904485838  C 5.946529134037429 13.329159416381977  4.580229569630174 14  3.68201210420441 14  C 1.4690163739444446 14  0 12.652390803338571  0 10.530480688612032  C 0 7.213468044677203  3.8360175064511224 5.530468048890499  6.6777096128619675 4.9268412914424875  C 6.6777096128619675 4.9268412914424875  6.6777096128619675 3.969538270970351  6.6777096128619675 3.969538270970351  C 6.6777096128619675 2.487973304908004  5.8887868043142415 1.554972255811167  4.631425079594395 1.554972255811167  C 3.1367333817134355 1.554972255811167  2.3990060831297866 2.9817988009117453  2.180928724473321 4.201262286862695  Z M 6.6777096128619675 11.054890097620783  C 6.6777096128619675 11.054890097620783  6.6777096128619675 6.4877415766788715  6.6777096128619675 6.4877415766788715  C 4.881662526782836 7  1.9565062253395364 8.249752472118882  1.9565062253395364 10.371987006366261  C 1.9565062253395364 11.646218405962578  2.5595583051355817 12.450985266297923  3.977146462252361 12.450985266297923  C 5.042013069506954 12.450985266297923  5.972157916601366 11.743662232933216  6.6777096128619675 11.054890097620783  Z " fill-rule="nonzero" fill="#efebdf" stroke="none" transform="matrix(1 0 0 1 2832 670 )" />
  </g>
</svg>