<?xml version="1.0" encoding="utf-8"?>
<svg version="1.1" xmlns:xlink="http://www.w3.org/1999/xlink" width="8px" height="14px" xmlns="http://www.w3.org/2000/svg">
  <g transform="matrix(1 0 0 1 -2847 -670 )">
    <path d="M 0 14.000000000000057  L 0 0.2670492098780268  L 1.811880343662338 0.2670492098780268  C 1.811880343662338 0.2670492098780268  1.811880343662338 1.7701436039175629  1.811880343662338 1.7701436039175629  C 2.720989516897894 0.8448597007751006  4.062674963183074 0  4.965446133609771 0  C 6.890303651743425 0  7.999999999999972 1.056119689959743  7.999999999999972 3.5963768551342903  C 7.999999999999972 3.5963768551342903  7.999999999999972 14.000000000000057  7.999999999999972 14.000000000000057  L 6.087803324797976 14.000000000000057  C 6.087803324797976 14.000000000000057  6.087803324797976 3.8636063209758413  6.087803324797976 3.8636063209758413  C 6.087803324797976 2.273298083278255  5.598746045855782 1.5839692363156241  4.564271783567818 1.5839692363156241  C 3.630144178191916 1.5839692363156241  2.777334058615154 2.223667608003365  1.9247210539583421 3.2732980832782554  C 1.9247210539583421 3.2732980832782554  1.9247210539583421 14.000000000000057  1.9247210539583421 14.000000000000057  L 0 14.000000000000057  Z " fill-rule="nonzero" fill="#efebdf" stroke="none" transform="matrix(1 0 0 1 2847 670 )" />
  </g>
</svg>