<?xml version="1.0" encoding="utf-8"?>
<svg version="1.1" xmlns:xlink="http://www.w3.org/1999/xlink" width="9px" height="20px" xmlns="http://www.w3.org/2000/svg">
  <g transform="matrix(1 0 0 1 -2860 -664 )">
    <path d="M 7.146166774402069 19.729909995911026  L 7.069140271493241 18.366990934291884  C 7.069140271493241 18.366990934291884  7.011351001939266 18.366990934291884  7.011351001939266 18.366990934291884  C 6.324954104718811 19.369831450280085  5.343498383969001 20.000000000000057  4.092643826761445 20.000000000000057  C 1.85378668390436 20.000000000000057  0 18.090495387854034  0 12.619726893793931  C 0 7.1552706574853895  1.85378668390436 5.239453787587863  4.092643826761445 5.239453787587863  C 5.151017453135071 5.239453787587863  6.04917905623788 5.901681143917922  6.709838396897249 6.551128510416002  C 6.709838396897249 6.551128510416002  6.709838396897249 0  6.709838396897249 0  L 8.672858435681965 0  C 8.672858435681965 0  8.672858435681965 15.904775083062159  8.672858435681965 15.904775083062159  C 8.672858435681965 17.769036665510974  8.781890109890082 18.913452105355624  8.999999999999972 19.729909995911026  C 8.999999999999972 19.729909995911026  7.146166774402069 19.729909995911026  7.146166774402069 19.729909995911026  Z M 6.709838396897249 16.99769742518964  C 6.709838396897249 16.99769742518964  6.709838396897249 8.138894546426966  6.709838396897249 8.138894546426966  C 6.132612798965711 7.566624636773099  5.452576599870717 6.87880620591331  4.580090497737586 6.87880620591331  C 2.918583063994886 6.87880620591331  1.9628804137039721 8.24822409447864  1.9628804137039721 12.619726893793931  C 1.9628804137039721 16.99769742518964  2.995656108597343 18.366990934291884  4.63794182288297 18.366990934291884  C 5.234451195862989 18.366990934291884  6.113235940530087 17.82059195295969  6.709838396897249 16.99769742518964  Z " fill-rule="nonzero" fill="#efebdf" stroke="none" transform="matrix(1 0 0 1 2860 664 )" />
  </g>
</svg>