<?xml version="1.0" encoding="utf-8"?>
<svg version="1.1" xmlns:xlink="http://www.w3.org/1999/xlink" width="10px" height="19px" xmlns="http://www.w3.org/2000/svg">
  <g transform="matrix(1 0 0 1 -2795 -697 )">
    <path d="M 0 19  L 0 0  C 0 0  4.6947121122655675 0  4.6947121122655675 0  C 7.9024806211289365 0  9.999999999999972 2.0539634688956405  9.999999999999972 5.215527845635058  C 9.999999999999972 8.364792860731662  7.9024806211289365 10.418876031443778  4.6947121122655675 10.418876031443778  C 4.6947121122655675 10.418876031443778  2.1558601454828406 10.418876031443778  2.1558601454828406 10.418876031443778  L 2.1558601454828406 19  L 0 19  Z M 2.1558601454828406 1.7384893315756624  L 2.1558601454828406 8.68634186523786  C 2.1558601454828406 8.68634186523786  4.422120180408809 8.68634186523786  4.422120180408809 8.68634186523786  C 6.577870397125549 8.68634186523786  7.844108446298227 7.578920510118741  7.844108446298227 5.215527845635058  C 7.844108446298227 2.8396562667838485  6.577870397125549 1.7384893315756624  4.422120180408809 1.7384893315756624  C 4.422120180408809 1.7384893315756624  2.1558601454828406 1.7384893315756624  2.1558601454828406 1.7384893315756624  Z " fill-rule="nonzero" fill="#efebdf" stroke="none" transform="matrix(1 0 0 1 2795 697 )" />
  </g>
</svg>