<?xml version="1.0" encoding="utf-8"?>
<svg version="1.1" xmlns:xlink="http://www.w3.org/1999/xlink" width="6px" height="20px" xmlns="http://www.w3.org/2000/svg">
  <g transform="matrix(1 0 0 1 -2808 -696 )">
    <path d="M 0 7.4373682632731395  L 0 5.799755515274082  L 1.9826035455675965 5.799755515274082  C 1.9826035455675965 5.799755515274082  1.9826035455675965 2.909523565438554  1.9826035455675965 2.909523565438554  C 1.9826035455675965 0.9892467105620818  2.6763512100195306 0  4.6122085412314355 0  C 5.084563878267123 0  5.580158358970529 0.08981008165541322  6 0.17334495179426004  C 6 0.17334495179426004  6 1.7018249371314476  6 1.7018249371314476  C 5.679263153689023 1.535003720082075  5.358625017332998 1.4837458042289913  5.032050182260908 1.4837458042289913  C 4.163317970617337 1.4837458042289913  3.7726098677051576 2.081133514444636  3.7726098677051576 2.98650363542885  C 3.7726098677051576 2.98650363542885  3.7726098677051576 5.799755515274082  3.7726098677051576 5.799755515274082  L 5.84832510358667 5.799755515274082  L 5.84832510358667 7.4373682632731395  L 3.7726098677051576 7.4373682632731395  L 3.7726098677051576 20  L 2 20  L 2 7.4373682632731395  L 0 7.4373682632731395  Z " fill-rule="nonzero" fill="#efebdf" stroke="none" transform="matrix(1 0 0 1 2808 696 )" />
  </g>
</svg>