<?xml version="1.0" encoding="utf-8"?>
<svg version="1.1" xmlns:xlink="http://www.w3.org/1999/xlink" width="9px" height="14px" xmlns="http://www.w3.org/2000/svg">
  <g transform="matrix(1 0 0 1 -2818 -702 )">
    <path d="M 2.179469247279287 4.199310153130844  C 2.179469247279287 4.199310153130844  0.37807087956947094 3.9434182375633835  0.37807087956947094 3.9434182375633835  C 0.7627925323925613 1.81612506527855  2.0640961597425527 0  4.583312949801389 0  C 7.198725656033927 0  8.64098226804982 1.45666767743131  8.64098226804982 3.839705362106433  C 8.64098226804982 3.839705362106433  8.64098226804982 11.348806455416911  8.64098226804982 11.348806455416911  C 8.64098226804982 12.543450245110424  8.775811580372554 13.42713229224575  8.999999999999972 13.737917150991446  C 8.999999999999972 13.737917150991446  6.9551275205242655 13.737917150991446  6.9551275205242655 13.737917150991446  C 6.9551275205242655 13.737917150991446  6.705173168152109 12.604239315375416  6.705173168152109 12.604239315375416  C 5.94242714466339 13.323478378059669  4.583312949801389 14  3.6795829357108856 14  C 1.467929526952771 14  0 12.647045198025639  0 10.519928909553464  C 0 7.204123919745287  3.8397440976755592 5.51573844780243  6.6794692472792 4.924710668620811  C 6.6794692472792 4.924710668620811  6.6794692472792 3.96762183925473  6.6794692472792 3.96762183925473  C 6.6794692472792 2.486632637590337  5.884616577151382 1.5540422162699965  4.634596767803465 1.5540422162699965  C 3.1282663892209586 1.5540422162699965  2.397378964884113 2.980344839204191  2.179469247279287 4.199310153130844  Z M 6.6794692472792 11.03790367412948  C 6.6794692472792 11.03790367412948  6.6794692472792 6.478929768703357  6.6794692472792 6.478929768703357  C 4.8782569151850135 6.996963494550294  1.9614975178025749 8.240427216522633  1.9614975178025749 10.361293610282846  C 1.9614975178025749 11.635063425481377  2.5640203674548205 12.439737369653475  3.9807435912453304 12.439737369653475  C 5.044898317755722 12.439737369653475  5.9614647893146655 11.73880578157376  6.6794692472792 11.03790367412948  Z " fill-rule="nonzero" fill="#efebdf" stroke="none" transform="matrix(1 0 0 1 2818 702 )" />
  </g>
</svg>