<?xml version="1.0" encoding="utf-8"?>
<svg version="1.1" xmlns:xlink="http://www.w3.org/1999/xlink" width="9px" height="15px" xmlns="http://www.w3.org/2000/svg">
  <g transform="matrix(1 0 0 1 -3271 -174 )">
    <path d="M 0 14.999999999999986  L 0 0.28020805284384015  L 2.045269863563403 0.28020805284384015  C 2.045269863563403 0.28020805284384015  2.045269863563403 1.8936368628990177  2.045269863563403 1.8936368628990177  C 3.0607945425361756 0.9084512720341136  4.5598809046090345 0  5.584918166704885 0  C 7.745080686769089 0  9.00000000000006 1.1298459076297704  9.00000000000006 3.8460110780989245  C 9.00000000000006 3.8460110780989245  9.00000000000006 14.999999999999986  9.00000000000006 14.999999999999986  L 6.839708495757853 14.999999999999986  C 6.839708495757853 14.999999999999986  6.839708495757853 4.13077542128571  6.839708495757853 4.13077542128571  C 6.839708495757853 2.4359875436042313  6.308100206374745 1.6948030906709386  5.1394068160972255 1.6948030906709386  C 4.080736929603302 1.6948030906709386  3.1227714400366886 2.3772349783138833  2.1601625200642056 3.507073279448925  C 2.1601625200642056 3.507073279448925  2.1601625200642056 14.999999999999986  2.1601625200642056 14.999999999999986  L 0 14.999999999999986  Z " fill-rule="nonzero" fill="#efebdf" stroke="none" transform="matrix(1 0 0 1 3271 174 )" />
  </g>
</svg>