<?xml version="1.0" encoding="utf-8"?>
<svg version="1.1" xmlns:xlink="http://www.w3.org/1999/xlink" width="10px" height="18px" xmlns="http://www.w3.org/2000/svg">
  <g transform="matrix(1 0 0 1 -2873 -930 )">
    <path d="M 0 18.000000000000057  L 0 0  C 0 0  5.079990744086647 0  5.079990744086647 0  C 7.937785681228852 0  9.579109530420919 1.7951617637060975  9.579109530420919 4.44246199867014  C 9.579109530420919 6.229833634845648  8.73325535543341 7.854657245995911  6.6667142141666496 8.42139648565426  C 6.6667142141666496 8.42139648565426  6.6667142141666496 8.480702935475259  6.6667142141666496 8.480702935475259  C 8.97308494519361 9.047442175133607  9.99999999999997 10.76738891440643  9.99999999999997 13.010587476433123  C 9.99999999999997 16.347299074238414  8.042944901957025 18.000000000000057  3.8594305711406287 18.000000000000057  C 3.8594305711406287 18.000000000000057  0 18.000000000000057  0 18.000000000000057  Z M 2.0580935354419063 1.6484924660612656  L 2.0580935354419063 7.723926370195218  C 2.0580935354419063 7.723926370195218  3.2281107159385556 7.723926370195218  3.2281107159385556 7.723926370195218  C 6.191033175475692 7.723926370195218  7.516895211649771 6.8836670972406235  7.516895211649771 4.44246199867014  C 7.516895211649771 2.393718152589054  6.561491596771813 1.6484924660612656  4.124555430875503 1.6484924660612656  C 4.124555430875503 1.6484924660612656  2.0580935354419063 1.6484924660612656  2.0580935354419063 1.6484924660612656  Z M 2.0580935354419063 9.368389459947503  L 2.0580935354419063 16.347299074238414  C 2.0580935354419063 16.347299074238414  4.124555430875503 16.347299074238414  4.124555430875503 16.347299074238414  C 6.616218769217085 16.347299074238414  7.937785681228852 15.332881203042426  7.937785681228852 13.010587476433123  C 7.937785681228852 10.644627249527833  6.826616456506688 9.368389459947503  4.124555430875503 9.368389459947503  C 4.124555430875503 9.368389459947503  2.0580935354419063 9.368389459947503  2.0580935354419063 9.368389459947503  Z " fill-rule="nonzero" fill="#efebdf" stroke="none" transform="matrix(1 0 0 1 2873 930 )" />
  </g>
</svg>