<?xml version="1.0" encoding="utf-8"?>
<svg version="1.1" xmlns:xlink="http://www.w3.org/1999/xlink" width="8px" height="14px" xmlns="http://www.w3.org/2000/svg">
  <g transform="matrix(1 0 0 1 -2887 -935 )">
    <path d="M 1.9383658180432988 4.1971771066451  C 1.9383658180432988 4.1971771066451  0.33904786090681754 3.9375639804125764  0.33904786090681754 3.9375639804125764  C 0.6781682795649893 1.8163922802508252  1.8419365663858076 0  4.06932893149644 0  C 6.396967085990005 0  7.683996480949029 1.4539451818040814  7.683996480949029 3.8428574593960385  C 7.683996480949029 3.8428574593960385  7.683996480949029 11.35159867939997  7.683996480949029 11.35159867939997  C 7.683996480949029 12.54180496776052  7.803484586012707 13.423168110611332  7.999999999999973 13.736354168974763  C 7.999999999999973 13.736354168974763  6.17720416844282 13.736354168974763  6.17720416844282 13.736354168974763  C 6.17720416844282 13.736354168974763  5.961388392573714 12.59547096230972  5.961388392573714 12.59547096230972  C 5.283234624559012 13.320241075978817  4.06932893149644 14  3.2716435237671986 14  C 1.3063297568408625 14  0 12.644918127229621  0 10.515401830227558  C 0 7.207839400855288  3.4142485284381037 5.519221820921375  5.938300516067034 4.922133345150841  C 5.938300516067034 4.922133345150841  5.938300516067034 3.96644435088969  5.938300516067034 3.96644435088969  C 5.938300516067034 2.487744565819561  5.233169776068612 1.5569342580487913  4.1194373146376195 1.5569342580487913  C 2.7899326119883274 1.5569342580487913  2.1348522089300994 2.982030090181915  1.9383658180432988 4.1971771066451  Z M 5.938300516067034 11.03853670426093  C 5.938300516067034 11.03853670426093  5.938300516067034 6.474724690345882  5.938300516067034 6.474724690345882  C 4.335209555855864 6.998045689215896  1.7456669417815012 8.237823225720678  1.7456669417815012 10.358777780239746  C 1.7456669417815012 11.631654516850945  2.277486236701552 12.438815891515809  3.5375096365763894 12.438815891515809  C 4.4816310982522385 12.438815891515809  5.306351524166239 11.734643593095656  5.938300516067034 11.03853670426093  Z " fill-rule="nonzero" fill="#efebdf" stroke="none" transform="matrix(1 0 0 1 2887 935 )" />
  </g>
</svg>