<?xml version="1.0" encoding="utf-8"?>
<svg version="1.1" xmlns:xlink="http://www.w3.org/1999/xlink" width="8px" height="19px" xmlns="http://www.w3.org/2000/svg">
  <g transform="matrix(1 0 0 1 -2900 -930 )">
    <path d="M 6.350727750286602 18.73610981661808  L 6.281319382972294 17.43660444924094  C 6.281319382972294 17.43660444924094  6.231254806924847 17.43660444924094  6.231254806924847 17.43660444924094  C 5.622353470418338 18.393618012803277  4.75146203073535 19  3.633977158944145 19  C 1.649344807069962 19  0 17.176722016465952  0 11.987554879693956  C 0 6.798077064580216  1.649344807069962 4.978993238658197  3.633977158944145 4.978993238658197  C 4.581880976912276 4.978993238658197  5.379649112623529 5.601810110127296  5.961486555121878 6.224751252933049  C 5.961486555121878 6.224751252933049  5.961486555121878 0  5.961486555121878 0  L 7.711018560171843 0  C 7.711018560171843 0  7.711018560171843 15.101701372707725  7.711018560171843 15.101701372707725  C 7.711018560171843 16.871542681481174  7.8035146783532925 17.960656675905316  8 18.73610981661808  C 8 18.73610981661808  6.350727750286602 18.73610981661808  6.350727750286602 18.73610981661808  Z M 5.961486555121878 16.141355375144098  C 5.961486555121878 16.141355375144098  5.961486555121878 7.734461586258206  5.961486555121878 7.734461586258206  C 5.456676002379909 7.18592790627325  4.844016194802018 6.538194631805286  4.069437390256998 6.538194631805286  C 2.5974082512226184 6.538194631805286  1.7418699481940203 7.833381570233745  1.7418699481940203 11.987554879693956  C 1.7418699481940203 16.141355375144098  2.666700526766409 17.43660444924094  4.119472943361727 17.43660444924094  C 4.65131836716922 17.43660444924094  5.425926194656849 16.916870651525187  5.961486555121878 16.141355375144098  Z " fill-rule="nonzero" fill="#efebdf" stroke="none" transform="matrix(1 0 0 1 2900 930 )" />
  </g>
</svg>