<?xml version="1.0" encoding="utf-8"?>
<svg version="1.1" xmlns:xlink="http://www.w3.org/1999/xlink" width="9px" height="21px" xmlns="http://www.w3.org/2000/svg">
  <g transform="matrix(1 0 0 1 -3286 -169 )">
    <path d="M 1.96809411519476 19.273693883872408  C 1.96809411519476 19.273693883872408  1.528160298083617 20.706933656684715  1.528160298083617 20.706933656684715  C 1.528160298083617 20.706933656684715  0 20.706933656684715  0 20.706933656684715  C 0.21768047213934885 19.850601292720615  0.32660864807118567 18.646328752684617  0.32660864807118567 16.695563998185538  C 0.32660864807118567 16.695563998185538  0.32660864807118567 0  0.32660864807118567 0  L 2.290423023307375 0  C 2.290423023307375 0  2.290423023307375 6.882488817511477  2.290423023307375 6.882488817511477  C 2.9434351264379797 6.191016868785773  3.8447307737405603 5.508708541850472  4.9071029352371776 5.508708541850472  C 7.145143113983089 5.508708541850472  9.000000000000053 7.514401078099058  9.000000000000053 13.252069145726873  C 9.000000000000053 18.985166962957962  7.145143113983089 21.000000000000057  4.9071029352371776 21.000000000000057  C 3.657477493909405 21.000000000000057  2.669209322928202 20.34060458104024  1.96809411519476 19.273693883872408  Z M 2.290423023307375 8.544680409102186  C 2.290423023307375 8.544680409102186  2.290423023307375 17.840400162067137  2.290423023307375 17.840400162067137  C 2.8912281616009508 18.701248827435183  3.7620086767330667 19.273693883872408  4.367152181559988 19.273693883872408  C 5.999990228904204 19.273693883872408  7.036390817775578 17.840400162067137  7.036390817775578 13.252069145726873  C 7.036390817775578 8.663784371380464  6.082683012624256 7.225897278181559  4.4151380330132755 7.225897278181559  C 3.5441816381567803 7.225897278181559  2.860683716143153 7.944844678280502  2.290423023307375 8.544680409102186  Z " fill-rule="nonzero" fill="#efebdf" stroke="none" transform="matrix(1 0 0 1 3286 169 )" />
  </g>
</svg>