<?xml version="1.0" encoding="utf-8"?>
<svg version="1.1" xmlns:xlink="http://www.w3.org/1999/xlink" width="8px" height="14px" xmlns="http://www.w3.org/2000/svg">
  <g transform="matrix(1 0 0 1 -2913 -935 )">
    <path d="M 7.850834078596294 7.306795772307284  L 1.7782984353173066 7.306795772307284  C 1.7782984353173066 7.306795772307284  1.7782984353173066 8.056599676497367  1.7782984353173066 8.056599676497367  C 1.7782984353173066 11.35159867939997  2.492657004116808 12.438815891515809  4.176690145529559 12.438815891515809  C 5.534852437933761 12.438815891515809  6.100118995705807 11.12077286122621  6.3199728009815574 9.897560435177596  C 6.3199728009815574 9.897560435177596  8.000000000000028 10.107509250847533  8.000000000000028 10.107509250847533  C 7.729192381318441 12.12997274600607  6.272832762991651 14  3.9254835586367696 14  C 1.2326033451836302 14  0 11.874702532627241  0 6.998045689215896  C 0 2.125297467372817  1.2326033451836302 0  3.9254835586367696 0  C 6.637876111427283 0  7.850834078596294 2.5372847931576965  7.850834078596294 6.429527375861381  C 7.850834078596294 6.429527375861381  7.850834078596294 7.306795772307284  7.850834078596294 7.306795772307284  Z M 1.7782984353173066 5.7539562606634025  C 1.7782984353173066 5.7539562606634025  6.076600713974262 5.7539562606634025  6.076600713974262 5.7539562606634025  C 6.025602554342576 2.850129622654052  5.534852437933761 1.5569342580487913  3.9254835586367696 1.5569342580487913  C 2.641852489670997 1.5569342580487913  1.8018314991241344 2.5372847931576965  1.7782984353173066 5.7539562606634025  Z " fill-rule="nonzero" fill="#efebdf" stroke="none" transform="matrix(1 0 0 1 2913 935 )" />
  </g>
</svg>