<?xml version="1.0" encoding="utf-8"?>
<svg version="1.1" xmlns:xlink="http://www.w3.org/1999/xlink" width="8px" height="14px" xmlns="http://www.w3.org/2000/svg">
  <g transform="matrix(1 0 0 1 -2926 -935 )">
    <path d="M 0 14  L 0 0.27275293522518634  L 1.814428545770221 0.27275293522518634  C 1.814428545770221 0.27275293522518634  1.814428545770221 1.7758818096208089  1.814428545770221 1.7758818096208089  C 2.7217465924285653 0.8438363093961081  4.052988485102536 0  4.956059789658574 0  C 6.880823804107076 0  8.00000000000003 1.062051304055288  8.00000000000003 3.5933389188615457  C 8.00000000000003 3.5933389188615457  8.00000000000003 14  8.00000000000003 14  L 6.079578518828983 14  C 6.079578518828983 14  6.079578518828983 3.8538247694840466  6.079578518828983 3.8538247694840466  C 6.079578518828983 2.2709598451709647  5.600494921072093 1.586816948991782  4.561767347183141 1.586816948991782  C 3.6248019317887006 1.586816948991782  2.7725957412840008 2.2248001969237436  1.9205013071504418 3.2786629058447057  C 1.9205013071504418 3.2786629058447057  1.9205013071504418 14  1.9205013071504418 14  L 0 14  Z " fill-rule="nonzero" fill="#efebdf" stroke="none" transform="matrix(1 0 0 1 2926 935 )" />
  </g>
</svg>