<?xml version="1.0" encoding="utf-8"?>
<svg version="1.1" xmlns:xlink="http://www.w3.org/1999/xlink" width="8px" height="18px" xmlns="http://www.w3.org/2000/svg">
  <g transform="matrix(1 0 0 1 -2967 -931 )">
    <path d="M 8.00000000000003 4.373399959982967  L 8.00000000000003 17.73844251655833  L 6.185451635498662 17.73844251655833  C 6.185451635498662 17.73844251655833  6.185451635498662 16.27517353540225  6.185451635498662 16.27517353540225  C 5.2824640142406425 17.16616816388514  3.9470206605056264 18  3.039754460677558 18  C 1.1191835578057119 18  0 16.970115485052613  0 14.497216764058548  C 0 14.497216764058548  0 4.373399959982967  0 4.373399959982967  L 1.9162284649202457 4.373399959982967  C 1.9162284649202457 4.373399959982967  1.9162284649202457 14.243755034194042  1.9162284649202457 14.243755034194042  C 1.9162284649202457 15.784780188490485  2.399628019101908 16.450848309793397  3.438205072430508 16.450848309793397  C 4.375165884721873 16.450848309793397  5.227321438193069 15.833908791947342  6.079445061973564 14.803962712334025  C 6.079445061973564 14.803962712334025  6.079445061973564 4.373399959982967  6.079445061973564 4.373399959982967  L 8.00000000000003 4.373399959982967  Z M 1.3608593876284423 2.619976708034702  L 1.3608593876284423 0  L 3.120249211236886 0  L 3.120249211236886 2.619976708034702  L 1.3608593876284423 2.619976708034702  Z M 4.879639034845271 2.619976708034702  L 4.879639034845271 0  L 6.639028858453715 0  L 6.639028858453715 2.619976708034702  L 4.879639034845271 2.619976708034702  Z " fill-rule="nonzero" fill="#efebdf" stroke="none" transform="matrix(1 0 0 1 2967 931 )" />
  </g>
</svg>