<?xml version="1.0" encoding="utf-8"?>
<svg version="1.1" xmlns:xlink="http://www.w3.org/1999/xlink" width="6px" height="18px" xmlns="http://www.w3.org/2000/svg">
  <g transform="matrix(1 0 0 1 -2987 -931 )">
    <path d="M 0 5.980945159529885  L 0 4.453263107428294  L 1.7635366120548202 4.453263107428294  L 1.7635366120548202 0  L 3.5792198383530422 0  L 3.5792198383530422 4.453263107428294  L 6 4.453263107428294  L 6 5.980945159529885  L 3.5792198383530422 5.980945159529885  C 3.5792198383530422 5.980945159529885  3.5792198383530422 15.285633894766548  3.5792198383530422 15.285633894766548  C 3.5792198383530422 16.04557316681316  3.984061700538125 16.614433599627393  4.893797496056903 16.614433599627393  C 5.2425081691331 16.614433599627393  5.699511738648141 16.46001594703815  6 16.362548601913986  C 6 16.362548601913986  6 17.74003607634857  6 17.74003607634857  C 5.4910309332810385 17.89433132096905  5.042147444363166 18  4.284595241149848 18  C 2.57315996407851 18  1.7635366120548202 17.171175643534394  1.7635366120548202 15.123137316239344  C 1.7635366120548202 15.123137316239344  1.7635366120548202 5.980945159529885  1.7635366120548202 5.980945159529885  L 0 5.980945159529885  Z " fill-rule="nonzero" fill="#efebdf" stroke="none" transform="matrix(1 0 0 1 2987 931 )" />
  </g>
</svg>