<?xml version="1.0" encoding="utf-8"?>
<svg version="1.1" xmlns:xlink="http://www.w3.org/1999/xlink" width="6px" height="18px" xmlns="http://www.w3.org/2000/svg">
  <g transform="matrix(1 0 0 1 -2996 -931 )">
    <path d="M 0 5.980945159529885  L 0 4.453263107428294  L 1.7675291418681707 4.453263107428294  L 1.7675291418681707 0  L 3.579099356539529 0  L 3.579099356539529 4.453263107428294  L 6.000000000000028 4.453263107428294  L 6.000000000000028 5.980945159529885  L 3.579099356539529 5.980945159529885  C 3.579099356539529 5.980945159529885  3.579099356539529 15.285633894766548  3.579099356539529 15.285633894766548  C 3.579099356539529 16.04557316681316  3.987996116094534 16.614433599627393  4.893781223430213 16.614433599627393  C 5.246487128274557 16.614433599627393  5.699334403252016 16.46001594703815  6.000000000000028 16.362548601913986  C 6.000000000000028 16.362548601913986  6.000000000000028 17.74003607634857  6.000000000000028 17.74003607634857  C 5.498930919811411 17.89433132096905  5.042068934290587 18  4.284465887537795 18  C 2.573127600380313 18  1.7675291418681707 17.171175643534394  1.7675291418681707 15.123137316239344  C 1.7675291418681707 15.123137316239344  1.7675291418681707 5.980945159529885  1.7675291418681707 5.980945159529885  L 0 5.980945159529885  Z " fill-rule="nonzero" fill="#efebdf" stroke="none" transform="matrix(1 0 0 1 2996 931 )" />
  </g>
</svg>