<?xml version="1.0" encoding="utf-8"?>
<svg version="1.1" xmlns:xlink="http://www.w3.org/1999/xlink" width="8px" height="14px" xmlns="http://www.w3.org/2000/svg">
  <g transform="matrix(1 0 0 1 -3006 -935 )">
    <path d="M 7.850833759647529 7.306795772307284  L 1.7773181177661261 7.306795772307284  C 1.7773181177661261 7.306795772307284  1.7773181177661261 8.056599676497367  1.7773181177661261 8.056599676497367  C 1.7773181177661261 11.35159867939997  2.4913983042239543 12.438815891515809  4.1745862598183345 12.438815891515809  C 5.528178287343733 12.438815891515809  6.097081425693011 11.12077286122621  6.32071258793309 9.897560435177596  C 6.32071258793309 9.897560435177596  8.000000000000055 10.107509250847533  8.000000000000055 10.107509250847533  C 7.725321951823116 12.12997274600607  6.273654894240234 14  3.9272858902639425 14  C 1.235955180686372 14  0 11.874702532627241  0 6.998045689215896  C 0 2.125297467372817  1.235955180686372 0  3.9272858902639425 0  C 6.6385773358475095 0  7.850833759647529 2.5372847931576965  7.850833759647529 6.429527375861381  C 7.850833759647529 6.429527375861381  7.850833759647529 7.306795772307284  7.850833759647529 7.306795772307284  Z M 1.7773181177661261 5.7539562606634025  C 1.7773181177661261 5.7539562606634025  6.069615098353932 5.7539562606634025  6.069615098353932 5.7539562606634025  C 6.022527855088898 2.850129622654052  5.528178287343733 1.5569342580487913  3.9272858902639425 1.5569342580487913  C 2.640461121073804 1.5569342580487913  1.8047105711747893 2.5372847931576965  1.7773181177661261 5.7539562606634025  Z " fill-rule="nonzero" fill="#efebdf" stroke="none" transform="matrix(1 0 0 1 3006 935 )" />
  </g>
</svg>