<?xml version="1.0" encoding="utf-8"?>
<svg version="1.1" xmlns:xlink="http://www.w3.org/1999/xlink" width="13px" height="14px" xmlns="http://www.w3.org/2000/svg">
  <g transform="matrix(1 0 0 1 -3019 -935 )">
    <path d="M 1.8501054121009493 14  L 0 14  L 0 0.27275293522518634  L 1.6989508479108342 0.27275293522518634  C 1.6989508479108342 0.27275293522518634  1.6989508479108342 1.7758818096208089  1.6989508479108342 1.7758818096208089  C 2.417842447359076 0.8941692957040361  3.5246789722379024 0  4.807108869050042 0  C 5.860838280564157 0  6.861522098682734 0.7218294035152695  7.196375290741037 1.750525619282326  C 7.943827535864959 0.8941692957040361  8.993435109446363 0  10.308516729882435 0  C 12.048393737267112 0  13 1.2173500658294987  13 3.165350454257008  C 13 3.165350454257008  13 14  13 14  L 11.153954905862646 14  C 11.153954905862646 14  11.153954905862646 3.4381350056796243  11.153954905862646 3.4381350056796243  C 11.153954905862646 2.0067748994492005  10.741386612781483 1.586816948991782  9.765356922297912 1.586816948991782  C 8.638126527647367 1.586816948991782  7.992720531343242 2.4137702089604818  7.42913609400257 3.009767146705931  C 7.42913609400257 3.009767146705931  7.42913609400257 14  7.42913609400257 14  L 5.578999921916962 14  C 5.578999921916962 14  5.578999921916962 3.4381350056796243  5.578999921916962 3.4381350056796243  C 5.578999921916962 2.0067748994492005  5.084933049710529 1.586816948991782  4.112794497275404 1.586816948991782  C 2.981457644684291 1.586816948991782  2.3442799442534437 2.4137702089604818  1.8501054121009493 3.009767146705931  C 1.8501054121009493 3.009767146705931  1.8501054121009493 14  1.8501054121009493 14  Z " fill-rule="nonzero" fill="#efebdf" stroke="none" transform="matrix(1 0 0 1 3019 935 )" />
  </g>
</svg>