<?xml version="1.0" encoding="utf-8"?>
<svg version="1.1" xmlns:xlink="http://www.w3.org/1999/xlink" width="9px" height="15px" xmlns="http://www.w3.org/2000/svg">
  <g transform="matrix(1 0 0 1 -3300 -175 )">
    <path d="M 9 0  L 9 14.710915399094072  L 6.964189745978287 14.710915399094072  C 6.964189745978287 14.710915399094072  6.964189745978287 13.103002036292427  6.964189745978287 13.103002036292427  C 5.944140303106362 14.092121707242125  4.444795958582638 15.000000000000043  3.4246497796567663 15.000000000000043  C 1.2643724696356275 15.000000000000043  0 13.86630001915673  0 11.151756999058378  C 0 11.151756999058378  0 0  0 0  L 2.1601805739672533 0  C 2.1601805739672533 0  2.1601805739672533 10.862695203816756  2.1601805739672533 10.862695203816756  C 2.1601805739672533 12.56094940487352  2.7013865501056933 13.297184666079463  3.870119307799852 13.297184666079463  C 4.923832897423955 13.297184666079463  5.881842284404059 12.615173672735676  6.844559492673199 11.48601201909189  C 6.844559492673199 11.48601201909189  6.844559492673199 0  6.844559492673199 0  L 9 0  Z " fill-rule="nonzero" fill="#efebdf" stroke="none" transform="matrix(1 0 0 1 3300 175 )" />
  </g>
</svg>