<?xml version="1.0" encoding="utf-8"?>
<svg version="1.1" xmlns:xlink="http://www.w3.org/1999/xlink" width="8px" height="19px" xmlns="http://www.w3.org/2000/svg">
  <g transform="matrix(1 0 0 1 -3037 -930 )">
    <path d="M 1.7487462696309244 17.43660444924094  C 1.7487462696309244 17.43660444924094  1.3596492818473438 18.73610981661808  1.3596492818473438 18.73610981661808  C 1.3596492818473438 18.73610981661808  0 18.73610981661808  0 18.73610981661808  C 0.19261939900716885 17.960656675905316  0.29272927038878316 16.871542681481174  0.29272927038878316 15.101701372707725  C 0.29272927038878316 15.101701372707725  0.29272927038878316 0  0.29272927038878316 0  L 2.033715647062663 0  C 2.033715647062663 0  2.033715647062663 6.224751252933049  2.033715647062663 6.224751252933049  C 2.6192467102042865 5.601810110127296  3.41648505857994 4.978993238658197  4.360146060041238 4.978993238658197  C 6.3476794656552755 4.978993238658197  7.999999999999973 6.798077064580216  7.999999999999973 11.987554879693956  C 7.999999999999973 17.176722016465952  6.3476794656552755 19  4.360146060041238 19  C 3.2470002937156015 19  2.372627158900126 18.393618012803277  1.7487462696309244 17.43660444924094  Z M 2.033715647062663 7.734461586258206  C 2.033715647062663 7.734461586258206  2.033715647062663 16.141355375144098  2.033715647062663 16.141355375144098  C 2.5729919463914954 16.916870651525187  3.34722620087975 17.43660444924094  3.8786990938330876 17.43660444924094  C 5.334658075183908 17.43660444924094  6.25135526167882 16.141355375144098  6.25135526167882 11.987554879693956  C 6.25135526167882 7.833381570233745  5.403974950775446 6.538194631805286  3.9248958397545572 6.538194631805286  C 3.150777621048945 6.538194631805286  2.542111923764491 7.18592790627325  2.033715647062663 7.734461586258206  Z " fill-rule="nonzero" fill="#efebdf" stroke="none" transform="matrix(1 0 0 1 3037 930 )" />
  </g>
</svg>