<?xml version="1.0" encoding="utf-8"?>
<svg version="1.1" xmlns:xlink="http://www.w3.org/1999/xlink" width="8px" height="14px" xmlns="http://www.w3.org/2000/svg">
  <g transform="matrix(1 0 0 1 -3050 -935 )">
    <path d="M 7.854707787708375 7.306795772307284  L 1.7781407578358424 7.306795772307284  C 1.7781407578358424 7.306795772307284  1.7781407578358424 8.056599676497367  1.7781407578358424 8.056599676497367  C 1.7781407578358424 11.35159867939997  2.496516068950635 12.438815891515809  4.172720200887344 12.438815891515809  C 5.530874964661797 12.438815891515809  6.104017191458225 11.12077286122621  6.32388456002318 9.897560435177596  C 6.32388456002318 9.897560435177596  7.9999999999999725 10.107509250847533  7.9999999999999725 10.107509250847533  C 7.733022418740584 12.12997274600607  6.272842337107053 14  3.9293346809583904 14  C 1.23256694857157 14  0 11.874702532627241  0 6.998045689215896  C 0 2.125297467372817  1.23256694857157 0  3.9293346809583904 0  C 6.641756544265576 0  7.854707787708375 2.5372847931576965  7.854707787708375 6.429527375861381  C 7.854707787708375 6.429527375861381  7.854707787708375 7.306795772307284  7.854707787708375 7.306795772307284  Z M 1.7781407578358424 5.7539562606634025  C 1.7781407578358424 5.7539562606634025  6.072516763704294 5.7539562606634025  6.072516763704294 5.7539562606634025  C 6.025495242969776 2.850129622654052  5.530874964661797 1.5569342580487913  3.9293346809583904 1.5569342580487913  C 2.6456515995040366 1.5569342580487913  1.801688473186443 2.5372847931576965  1.7781407578358424 5.7539562606634025  Z " fill-rule="nonzero" fill="#efebdf" stroke="none" transform="matrix(1 0 0 1 3050 935 )" />
  </g>
</svg>