<?xml version="1.0" encoding="utf-8"?>
<svg version="1.1" xmlns:xlink="http://www.w3.org/1999/xlink" width="9px" height="18px" xmlns="http://www.w3.org/2000/svg">
  <g transform="matrix(1 0 0 1 -3071 -935 )">
    <path d="M 9.000000000000028 0  C 9.000000000000028 0  9.000000000000028 1.7047410364699633  9.000000000000028 1.7047410364699633  C 8.801262112991381 1.647596126708221  8.650217726134121 1.647596126708221  8.475221801222222 1.647596126708221  C 7.998286799708589 1.647596126708221  7.676228431140991 1.8519445998162904  7.3503677559072145 2.1666110749051946  C 7.600721207423618 2.988407834846342  7.747783651079288 3.6508084752633767  7.747783651079288 4.729788118415583  C 7.747783651079288 8.07799951763462  6.249105975576085 9.51296485403314  4.249541760504551 9.51296485403314  C 3.848009194729331 9.51296485403314  3.4506232389798255 9.418872804339237  3.0491206126271457 9.418872804339237  C 2.7509389335577406 9.488456584544807  2.146701507283624 9.77461218331945  2.146701507283624 10.281465364622086  C 2.146701507283624 11.238211553165453  3.625469466778912 11.291353856101153  5.299053248926395 11.647062445798033  C 7.171389887793669 12.063826184232807  8.848955613142714 12.685400235024863  8.848955613142714 14.864265444674224  C 8.848955613142714 16.613897256161763  7.1992335507822505 18  4.444402492290599 18  C 1.4988124029048173 18  0 16.86763173964582  0 15.121787010001386  C 0 13.940463789237093  0.7235609949202501 12.959301699055281  1.9002401807010763 12.448199596660388  C 1.1251085304067823 12.190739609899781  0.4968896266554564 11.544842025319053  0.4968896266554564 10.645487060803703  C 0.4968896266554564 9.647760336219031  1.3476781977798533 9.03465333832804  2.198421859770398 8.871162244128227  C 1.168760208511473 8.12729316016072  0.6480687409141891 6.426400784100414  0.6480687409141891 5.040698300944776  C 0.6480687409141891 1.8519445998162904  2.146701507283624 0  4.424522715705224 0  C 5.275191529139347 0  6.372396517712523 0.38443499099413464  6.801727837342472 1.234588680833158  C 7.1992335507822505 0.5193228410297989  7.8987980985139785 0  9.000000000000028 0  Z M 7.1992335507822505 14.713244010201516  C 7.1992335507822505 13.474283251143053  4.949241035637948 13.270088724451309  3.3989328259155918 12.910285160078615  C 2.349391398071208 13.372155198513962  1.6457999980040665 13.993544513606297  1.6457999980040665 14.737598333273523  C 1.6457999980040665 15.837360742637513  2.5481592245024234 16.613897256161763  4.500059878845164 16.613897256161763  C 6.4995492453601935 16.613897256161763  7.1992335507822505 15.792439178336718  7.1992335507822505 14.713244010201516  Z M 2.2977309244295427 4.758576098279391  C 2.2977309244295427 7.3054964002196305  3.148369798441126 8.12729316016072  4.19788128686297 8.12729316016072  C 5.247482593552351 8.12729316016072  6.098121467563934 7.3054964002196305  6.098121467563934 4.758576098279391  C 6.098121467563934 2.211563428489324  5.247482593552351 1.3858256402888036  4.19788128686297 1.3858256402888036  C 3.148369798441126 1.3858256402888036  2.2977309244295427 2.211563428489324  2.2977309244295427 4.758576098279391  Z " fill-rule="nonzero" fill="#efebdf" stroke="none" transform="matrix(1 0 0 1 3071 935 )" />
  </g>
</svg>