<?xml version="1.0" encoding="utf-8"?>
<svg version="1.1" xmlns:xlink="http://www.w3.org/1999/xlink" width="232px" height="222px" xmlns="http://www.w3.org/2000/svg">
  <g transform="matrix(1 0 0 1 -2932 -30 )">
    <path d="M 180.42720450074935 221.5485789828006  C 179.92267622340864 221.85459513082154  179.3463476917981 221.9999980968199  178.6727769078121 221.9999980968199  C 177.72515421634517 221.9999980968199  176.7288186607165 221.70156421864885  175.7683526528981 221.4133922880259  C 175.16652096453254 221.23230088723176  174.5697960233829 221.05123993732053  174.001112322934 220.95682697479123  C 172.3030730046447 220.67629821578402  169.8111026805612 219.32712617117593  168.1590546665401 218.4370164122029  C 167.75696712676466 218.2227639998963  167.40613053509668 218.03151722964455  167.13975403810198 217.8988731835946  C 166.20237542039158 217.43213727546075  164.21230355172924 216.21044785224575  162.45270805292682 215.1316796480701  C 161.66134571040286 214.6496117203802  160.93655455763417 214.2058662288598  160.40890831086077 213.89213078201573  C 160.08877336113767 213.69831091215622  159.78145114844145 213.60905937428373  159.44596537774595 213.60905937428373  C 158.93110128867468 213.60905937428373  158.3881959589027 213.8156533895331  157.7581395538885 214.05536273997052  C 157.18691776949396 214.26705727811085  156.53897245956165 214.51186715143925  155.8039372330364 214.63688325131488  C 154.2927375883365 214.8791809268014  153.91116877539895 215.27447906357773  152.9994462110668 216.223237223077  C 152.9994462110668 216.223237223077  152.44103716369918 216.79454146319785  152.44103716369918 216.79454146319785  C 151.30645248134414 217.92950677182372  150.15905506196233 218.01615475920553  148.70424369191048 218.12588451584946  C 148.22023414140742 218.1641155993701  147.68237440020204 218.20495023338134  147.0804815531872 218.29164389708757  C 146.94736975300142 218.30948811448545  146.8192729620577 218.31970438570906  146.68606942389803 218.31970438570906  C 144.1966066044356 218.31970438570906  141.47917491973422 215.09086023950027  139.68117178917586 212.95103101957375  C 139.68117178917586 212.95103101957375  139.51986585166614 212.7597690238805  139.51986585166614 212.7597690238805  C 138.723335603277 211.80333724188253  138.32121748417708 211.67328152088172  138.03181475572364 211.67328152088172  C 137.64507803692072 211.67328152088172  137.1507326746872 211.92829243999222  136.46945590089038 212.2802741957984  C 136.46945590089038 212.2802741957984  135.89829527514507 212.5710040005876  135.89829527514507 212.5710040005876  C 134.8200682881134 213.11172032880364  134.28220854690804 213.74677349234182  133.65725888910987 214.48382188825929  C 133.21670255892928 215.00669399907738  132.71734218745377 215.59329980787135  131.9898906334408 216.1747746428914  C 131.42900466077683 216.61602316201146  130.75546445611542 216.85320508916553  130.03834871383293 216.85320508916553  C 128.45039496427063 216.85320508916553  126.93925647822005 215.72847127720468  126.39372132652848 214.6393954491567  C 126.08646027248156 214.0221865030165  126.02493467129302 213.3871485649199  125.96854639664507 212.82606059602253  C 125.87381164889057 211.89513142847977  125.78929039556793 211.70386943278643  125.44612921438618 211.6171757690803  C 125.35647063452298 211.59675845207468  125.26938071793005 211.58402998300923  125.17972213806684 211.58402998300923  C 124.55734114353895 211.58402998300923  123.88633902282318 212.17826373797755  123.03345107911075 212.93067460433394  C 122.70044223371164 213.22138918368177  122.34957506271891 213.53252108003522  121.96030025997045 213.8462565268793  C 121.62478390995027 214.10891061760566  121.27648540222785 214.24409731238038  120.9229884093156 214.24409731238038  C 119.77308348531278 214.24409731238038  119.06361257419194 212.95103101957375  118.3080892001536 211.58402998300923  C 117.92642864924203 210.89281016590382  117.53452402457393 210.1787065102753  117.15041712769069 209.79105154511487  C 115.61875991480237 208.2735317942195  115.93381869663405 205.15945702577997  116.3077732577348 202.94569306209556  C 116.59203865964764 201.21649399850133  114.96320035303303 199.67345640770932  113.5084195623058 198.52325043217624  C 112.62990614453963 197.81674427183916  110.40425115880159 197.15364584512105  108.25794952052087 196.50839163580085  C 106.60853132841925 196.0136104644871  104.90532410426468 195.5060551477835  103.60937232575073 194.92965038477163  C 100.31824193135851 193.47845265690123  95.92579715982666 186.29134391474088  94.91160327860447 182.54733173109565  C 94.29176036802222 180.29273313339993  92.36572160516937 178.80578606896802  90.66511362360977 177.4948907842049  C 89.77387920679077 176.8062897430316  88.9286055149153 176.1584472086622  88.33444923703595 175.44687097631703  C 87.59938343118607 174.5670383903334  86.00629235508316 172.01147849118345  83.32473021819206 167.40538658630373  C 82.88423504666082 166.0944456252163  82.23885839999885 164.06688881065847  81.42177884544734 161.3557705760525  C 80.49975104870943 158.27735379152583  78.72483530825903 157.5530490901153  76.8449713256223 156.78792498013493  C 76.19953352031096 156.52269778980084  75.57201519924241 156.26509854564117  74.99574782628123 155.92589093522477  C 73.27981960307378 154.89806705819376  67.87822653888638 154.67617147427129  65.9394056183314 154.67617147427129  C 65.6397282367968 154.72463405445689  65.24528552818303 154.74760924562872  64.83809124119173 154.74760924562872  C 63.65479369467506 154.74760924562872  62.404955537727865 154.54608530238758  61.198662339077124 154.3471801350785  C 60.03071561353296 154.16097298595184  58.931969899663564 153.97991203604073  57.930542886481284 153.97991203604073  C 57.29791781819679 153.97991203604073  56.770332730072674 154.05131935651528  56.31953232613564 154.20177716908017  C 55.69464382698666 154.40837118432952  55.077339000350015 154.51295474175802  54.4934267962272 154.51295474175802  C 52.33431242091969 154.51295474175802  50.76435460391174 153.13313388347933  49.46068154592455 151.84008281611412  C 47.96235579690083 150.34553825639074  47.352818118724386 148.84845104794252  46.50502163256556 146.7698433281498  C 46.284774046799946 146.22401125160124  46.04403831352122 145.63235059624068  45.76231099555407 144.9845232873127  C 44.45863793756688 141.96225793091185  43.18320488589068 140.2636620046639  41.38523233465697 138.01931012907468  C 40.96779397390912 137.49901111786423  40.43251818563646 136.71602756504453  40.64762844486145 135.94578770673166  C 40.87045998355963 135.1347436652905  41.74122154252793 134.813410723155  42.665802712873784 134.47418788729715  C 43.03721919002885 134.3364889946806  43.43419998258824 134.19365912829005  43.81069262763457 134.00490933043855  C 44.38185325337985 133.72177702094075  44.94272393638162 133.58155070504085  45.53180404636965 133.58155070504085  C 46.5818674754019 133.58155070504085  47.62943868947559 133.99726615882278  49.2147779067807 134.62467615074507  C 49.73731740633819 134.83122448966992  50.318645657528336 135.06077847064972  50.97689619986647 135.30563402030253  C 51.31499650281929 135.43057399297084  51.60953655781331 135.494353367271  51.85285624402459 135.494353367271  C 52.134614141316476 135.494353367271  52.32920567370371 135.41018712684811  52.47772945351122 135.22146777987965  C 52.97718156296066 134.586429841783  52.956723994772254 132.80368290055355  52.4239710007829 130.68422532130822  C 52.139690309207715 129.57735095218675  51.4558448721405 128.40672765964806  50.792502872248775 127.26920447685593  C 50.44162041159381 126.67497072188763  50.09327603488442 126.07309379530344  49.791121728053454 125.47624126440296  C 49.65024277940754 125.19571250539575  49.5195926148559 124.90244005188174  49.39152640323683 124.61419199405138  C 49.02267858935203 123.78787683482  48.638510533819414 122.9309433128009  48.1749585515049 122.9309433128009  C 47.99825592403566 122.9309433128009  47.67298364777205 123.02275272483965  47.127448496080476 123.45631239601956  C 46.079938440656136 124.29030117774968  45.0707901480007 124.71367502858884  44.123136877209056 124.71367502858884  C 42.92965641558518 124.71367502858884  41.93332085995648 124.03780245648102  41.31607719196916 122.8110581866993  C 40.875551441113345 121.9337377985575  40.81920903545228 121.4159509851889  40.773110703547886 120.99769288268222  C 40.724474287697795 120.54117324577197  40.68862002954988 120.21469410442101  40.03550681375237 119.34758998750283  C 38.55257775468807 117.37607802298058  38.542348970593885 116.26156048224323  39.97917969775366 113.39486868673983  C 40.4197054486096 112.52261837060624  40.76288191945367 112.01760570262736  41.04460923742084 111.60441767212879  C 41.602926546814636 110.78576090995469  41.85655146543176 110.41339228802582  42.148507567493205 107.82212872863863  C 42.48142467491836 104.84324065497377  41.769400390189574 103.47878226713411  41.510729883005745 103.08853897692437  C 40.89862354155901 102.95592538175742  38.957233957733706 102.56058156865669  36.962070631517754 102.56058156865669  C 35.58667376757254 102.56058156865669  34.45981036469071 102.74421561817556  33.61713591541021 103.10384054559749  C 32.162416283332206 103.72615001462877  31.204457780134756 104.67748127373575  30.569279338242325 105.30996133766614  C 30.039140876510178 105.83536087176768  29.690872948112492 106.18222687924123  29.234965796959482 106.18222687924123  C 28.94553248918144 106.18222687924123  28.55882634970318 106.04704018446651  28.34368551115354 105.40944437220364  C 28.026073355713827 104.44025367025729  27.46261871977944 104.06790027376992  25.564758804588326 102.93550806475172  C 25.564758804588326 102.93550806475172  25.039711800409776 102.6166873204581  25.039711800409776 102.6166873204581  C 24.49929868559653 102.15506716065686  20.57552793325752 98.58189965569927  22.191660530481453 96.4242414438163  C 22.99586618935677 95.36072151926867  23.779583700719122 95.30460815474643  24.53773689667701 95.253602925836  C 25.30861109168782 95.19492407442695  26.18457113584595 95.13881832262551  27.675160315734136 94.07784104680262  C 28.814943483279066 93.2693548795277  29.401424350672066 92.78477475399599  29.701101732206677 92.50168812082252  C 29.6063364051276 92.49657237249002  29.496174388088907 92.49403733648596  29.36043276598364 92.49403733648596  C 27.475416167143923 92.49403733648596  24.355881653004936 91.17035268089161  24.22269340450762 91.11424692909019  C 24.22269340450762 91.11424692909019  23.249491107973945 90.69852386258755  23.249491107973945 90.69852386258755  C 23.249491107973945 90.69852386258755  27.226974444054395 87.8598925557056  27.226974444054395 87.8598925557056  C 29.562791446831145 86.19444241552858  32.58243859701273 86.15874636801207  35.00531493705766 86.13070110483213  C 36.01955468726682 86.12050005905002  36.97740616282792 86.11029140054721  37.74063552667716 85.985320976996  C 38.57300474355186 85.84504137205099  39.61545392074722 85.77618431302191  40.92680238922069 85.77618431302191  C 42.2893253574898 85.77618431302191  43.68007304240755 85.85013428222128  44.760853403047165 85.91137100779662  C 45.42682522485851 85.94705944259243  45.97232979722547 85.97510470577248  46.312952894461624 85.97510470577248  C 46.540906470038095 85.97510470577248  46.73558974039933 85.98785601300004  46.90203300444965 85.99805705878215  C 46.90203300444965 85.99805705878215  47.19148160189004 86.01081597873052  47.19148160189004 86.01081597873052  C 47.421988551074485 86.01081597873052  47.55773017317981 86.01081597873052  48.47978854924237 84.48311802021527  C 48.47978854924237 84.48311802021527  48.72046312387174 84.08014626094018  48.72046312387174 84.08014626094018  C 49.88839455975362 82.13416736175606  50.474890716809085 81.15734110091465  52.695454244993506 79.8336716707618  C 54.77769219814002 78.59415325559033  55.428236750667324 77.091965524251  54.680358207790626 75.24288894727592  C 53.79936786472814 73.05972050821703  53.37419293484475 72.57767541868935  53.19236827049735 72.49608227787421  C 53.18463170136176 72.51394172071356  53.12830458536314 72.56238146273694  53.04635199531082 72.6848168502841  C 52.190910677990445 73.96513183586318  51.322687202967835 76.15084292364692  50.459524606174185 79.17820880293876  C 50.04973107658796 80.6064541777994  49.13542455932329 81.30526387747553  47.665277657961155 81.30526387747553  C 47.10952901183772 81.30526387747553  46.47942673783656 81.20835394254577  45.81866869087739 81.10632825928353  C 45.11178173268912 80.99665940440542  44.38185325337985 80.88190525207773  43.644218784259635 80.88190525207773  C 43.37272025038668 80.88190525207773  43.101252295838364 80.89719920803013  42.82463172508716 80.93801861659996  C 42.5659765075657 80.97370705139578  42.320103447746355 80.99157410695584  42.094672666453185 80.99157410695584  C 40.880688767653936 80.99157410695584  40.242972241815735 80.46362431140884  39.925375376038374 80.02240624317169  C 39.036633174178114 78.79311171194453  39.44642670376434 76.76039347272975  39.948401607497104 75.27604995878848  C 40.529821596661215 73.53409958796664  41.33401196587426 73.08521550995144  42.19200665680267 72.61338669164736  C 42.76827402976383 72.28948826262487  43.370166876778725 71.95283091365401  44.06424109794017 71.09843242763903  C 44.84542052535675 70.1241792664053  44.691759419008676 69.29271029523777  44.51753371683585 68.32868863066906  C 44.34855236883988 67.41051838307457  44.159006425019236 66.36992797337442  44.94272393638162 65.32934517639497  C 45.57531842534137 64.48771322304901  45.7059685898931 64.10004303244706  45.72645673740615 63.964871563113775  C 45.72393394312282 63.964871563113775  45.59329906823345 63.95467813005242  45.48827437773546 63.95467813005242  C 45.26285888610463 63.95467813005242  44.983715521070046 63.99035895212751  44.6481838813876 64.05924646203948  C 44.31778956824564 64.12299538545675  43.9873952551037 64.15615639696924  43.667260305380694 64.15615639696924  C 42.322626242029685 64.15615639696924  41.221342444214706 63.60780450985806  40.79618280399358 62.72281049921753  C 40.57078260202502 62.258632465249995  40.34798164265146 61.281813817129276  41.38523233465697 59.99384804721369  C 42.491684038337276 58.6140576398179  42.20998729969474 58.279950552292604  41.52869523623547 57.48166543079975  C 41.326336555387996 57.24194846764161  41.108642343230414 56.98687664676523  40.91398965219382 56.68848083219794  C 40.604083486564996 56.22686828511738  39.71789465831265 55.54080989266886  38.86502200426258 54.87511552818085  C 37.27197679714658 53.63051181555983  35.896579933201345 52.55931826851342  35.896579933201345 51.48304703673817  C 35.896579933201345 50.105822116229376  35.425337250738195 47.94049028184761  34.121725351400244 47.616591852825124  C 32.04716280873996 47.096300454335406  30.950924599491607 44.267877805956275  31.450407288265694 40.738072358293316  C 31.737256643111174 38.71812826446838  31.52974534606072 38.58294918241437  30.369596348301467 37.82037533387953  C 29.98284433983621 37.570442099497846  29.524383815075282 37.269480798043574  28.989062157815546 36.84865720864986  C 26.5021680016234 34.854223342000864  25.139599164367205 31.421335441988393  24.332809552559237 29.016286644448506  C 24.079276371916 28.251154921747407  24.079276371916 27.37378885728124  24.337962168762182 26.345980205691607  C 24.09207381928051 26.328128375572952  23.83594139604236 26.31282680689984  23.5644887311564 26.31282680689984  C 23.07020452757217 26.31282680689984  22.511795480204466 26.24905504532038  21.90993321251422 26.180197986291333  C 21.269632733743542 26.106240404371263  20.578081306865432 26.024616812673166  19.876377544204754 26.024616812673166  C 18.777647119997685 26.024616812673166  17.91960656008237 26.228652953756217  17.17940342769186 26.6673359859893  C 16.674890440013417 26.9708475488891  16.308641868723647 27.205471601876926  16.00125849737815 27.401856958623423  C 14.938382331318913 28.082814828180897  14.538848165151524 28.337863810895076  11.734341853519659 29.386097392211077  C 10.940334399413825 29.681935332612124  10.27957635245466 29.824772811723424  9.71098438997968 29.824772811723424  C 7.841333901774859 29.824772811723424  7.32650039202826 28.289408843430195  6.87063910986225 26.937678924655874  C 6.760507672148252 26.61377288291266  6.647792281501635 26.274557659775578  6.5120965283833705 25.937900310804753  C 6.330256574373535 25.48647358406481  6.209819904253734 25.397229658913076  6.2047284467001385 25.392113910580573  C 5.981881618339609 25.593607402938847  5.228926907571553 27.348293855546768  4.62446539728636 28.75868740028879  C 4.62446539728636 28.75868740028879  4.26846089975316 29.58502539768236  4.26846089975316 29.58502539768236  C 3.272171213111465 31.862561122946264  3.272171213111465 31.862561122946264  3.9764589287048224 35.70861421529515  C 3.9764589287048224 35.70861421529515  4.078945535257137 36.27226767107944  4.078945535257137 36.27226767107944  C 4.606545913043633 39.164454468317295  4.563016244409441 40.65644115387448  3.9175631494358214 41.42668862490808  C 3.6025808159156663 41.80159228284097  3.156902448856875 41.99033446797164  2.5934325232602222 41.99033446797164  C 2.3066137477394486 41.99033446797164  1.9761735656105155 41.94187950050676  1.561257999146048 41.83730355579898  C -0.24182129930361307 41.39097735195007  -0.07274821333375864 39.042034306211605  0.10398499346001618 36.55791217841913  C 0.1577434461884244 35.76727784126284  0.21919259906534241 34.94602514131884  0.21919259906534241 34.157963903770266  C 0.21919259906534241 33.441287148534066  0.19356712501164022 32.67360516438744  0.16797223028261293 31.862561122946264  C 0.08603492989267146 29.192262296910098  -0.01643638699740543 25.87159351322124  0.6828210296915926 22.05359329677307  C 1.5945894630105832 17.011383846547307  3.0313896108458294 13.769788393111023  5.203286143855555 9.8803808561883  C 5.203286143855555 9.8803808561883  6.043376640203526 6.904012593086093  6.043376640203526 6.904012593086093  C 6.043376640203526 6.904012593086093  6.043376640203526 6.906570467252346  6.043376640203526 6.906570467252346  C 6.0228426237034185 6.906570467252346  6.061280834783901 4.162306446575366  7.895107644165506 1.4027408572252709  C 8.532870038990588 0.45652154009043916  9.24741711800278 0  10.084908371755722 0  C 11.060725200546658 0  11.962280139433783 0.622303759490693  13.007236821250176 1.344079134437764  C 13.609114378602722 1.7572500363147319  14.23407932606329 2.188272768310339  14.912772146927564 2.524928214100981  C 15.194514754557066 2.6626518480599737  16.044818745336872 3.091128124970427  16.137030698808115 3.8945118661741343  C 16.23947143637346 4.7922666999431724  15.38398425006609 5.501292670842827  14.392831889965073 6.319972271179104  C 13.698803537790637 6.896377034190992  12.909933410225426 7.546739379122958  12.479667022788414 8.26084303475146  C 11.606275641900584 9.709498113896995  10.497270564612329 9.877822982022046  9.739163237641328 9.877822982022046  C 9.454897835728499 9.877822982022046  9.173155228098997 9.85487062901236  8.891412620469579 9.824267491666127  C 8.660905671285047 9.803857787381236  8.430398722100625 9.780913047092291  8.212704509942956 9.780913047092291  C 8.002670418609206 9.780913047092291  7.838765238504562 9.801322751377182  7.6979168691833255 9.8497624934006  C 6.839906888592657 10.130314090569978  6.82707886190344 12.137514489888044  7.654371910886868 15.815242714111887  C 8.110263772377497 17.881076288514706  8.110263772377497 19.171607545317293  8.110263772377497 20.110164659034467  C 8.110263772377497 21.028319681187487  8.110263772377497 21.579214217023445  8.491847874977458 22.344338327003804  C 9.083527227560488 23.52519311620757  11.201558280205601 23.78789288325831  11.969955549920055 23.790443144703833  C 11.969955549920055 23.790443144703833  25.18314412266366 24.170462550969223  25.18314412266366 24.170462550969223  C 25.856714906649692 22.83402658814729  26.630188344255476 21.83936372262866  26.666088471390307 21.796001665334092  C 26.85048179900806 21.63531996882488  27.97995973414707 20.89570608602046  29.339929328808267 20.89570608602046  C 30.41564881121887 20.89570608602046  31.360733418740217 21.357326245821742  32.06760508726614 22.23467708484644  C 32.55169108608076 22.839127111038312  33.40710182407654 23.1324300154353  34.68517998733462 23.1324300154353  C 35.786463785149635 23.1324300154353  36.97740616282792 22.918200441290903  38.03265278738788 22.729458256160243  C 38.844533856749436 22.584078128324144  39.543791273438444 22.459122930214395  40.06625432468431 22.459122930214395  C 40.06625432468431 22.459122930214395  51.22021588607775 22.459122930214395  51.22021588607775 22.459122930214395  C 53.63032535808291 22.459122930214395  54.76747870370816 23.17068393711811  56.340081632298016 24.15770363102089  C 56.340081632298016 24.15770363102089  57.320974628980196 24.764711531379017  57.320974628980196 24.764711531379017  C 59.41090328227536 26.009322856720782  63.77521507513254 26.009322856720782  66.38757620034887 26.009322856720782  C 69.3201640132622 26.009322856720782  72.12719311917745 27.480930288876007  73.49488399331189 28.847954163602722  C 74.3016888947822 29.65133980798661  74.24273195686396 30.57969587592171  74.18383617759497 31.474898545065045  C 74.11986423043471 32.44661667029471  74.05836920857084 33.44892270742915  74.90865790968832 34.71905187266756  C 75.43630415646182 35.50458568693283  76.11244360371805 35.90244931059613  76.91918734653908 35.90244931059613  C 78.18443748310806 35.90244931059613  79.74422767467105 34.940939843869266  81.08886173802205 33.33162590637671  C 83.46817783010826 30.487871238441524  86.33416387394179 30.452167578204254  86.45449351642529 30.452167578204254  C 86.45449351642529 30.452167578204254  86.98213976319872 30.452167578204254  86.98213976319872 30.452167578204254  C 86.98213976319872 30.452167578204254  87.04871095295391 30.975009238139492  87.04871095295391 30.975009238139492  C 87.1665330908165 31.923759784918005  87.61987157869915 34.60173223345293  88.29601102595552 35.5989529731378  C 88.37279571014254 35.59129457608051  88.80313854589122 34.991945072779664  89.11816674839827 34.55071939182179  C 89.7021095318457 33.72948191731927  90.43463725374994 32.71185908607025  91.43351089332423 31.91357396457739  C 93.66678013089928 30.13082702334801  98.86862904649651 27.108546441505705  99.0863232586541 26.981033369229714  C 99.0863232586541 26.981033369229714  99.99040099182464 26.458199322015208  99.99040099182464 26.458199322015208  C 99.99040099182464 26.458199322015208  99.99040099182464 30.258340095624  99.99040099182464 30.258340095624  C 101.14807306428756 30.916345612171785  105.42269569795694 33.28824862364067  108.03261047720156 34.02532747044105  C 108.03261047720156 34.02532747044105  108.46283099565166 34.14774763254673  108.46283099565166 34.14774763254673  C 111.39538822924034 34.98174402699759  113.16776588574501 35.48416836992721  114.97855117400557 37.28732501544148  C 116.6560717654571 38.965526462846015  118.70757749733403 39.779105540291255  121.24826068557924 39.779105540291255  C 123.26646553291623 39.779105540291255  123.32288438688882 35.97131398234589  123.32288438688882 35.933052447942366  C 123.32288438688882 35.933052447942366  123.32288438688882 34.82106994320911  123.32288438688882 34.82106994320911  C 123.32288438688882 34.82106994320911  124.25515625738328 35.435721015183056  124.25515625738328 35.435721015183056  C 124.36527240543491 35.51222885854865  127.05707861608256 37.312850468058876  128.45296362754092 39.6235319793938  C 129.89750034451168 42.02858838965444  130.32010661112477 44.405584311293616  129.86670696459277 47.565586623914726  C 129.58757888922054 49.49115581881396  128.68347057672548 50.791872895957155  127.94843535020016 51.559570105545234  C 128.8447765142351 51.73298788384058  130.02550539748145 51.985478992388515  130.80408558230323 52.24563611071447  C 131.06538591140654 52.33235261258288  131.37270812410276 52.35528974015109  131.6979192417171 52.38335784149328  C 132.33314355259654 52.43436307040368  133.05022871555434 52.490476434925846  133.52922325681538 53.08471780261491  C 133.93901678640162 53.60245132693837  134.0517015977236 54.38543487975811  133.88265909107835 55.56119675879156  C 133.75459287945927 56.443640507986565  133.6265266678402 57.180711742066215  133.50870452997765 57.859149801061086  C 133.20908830709237 59.5934189366634  132.99136351561012 60.84313078489619  132.99136351561012 63.02887232356285  C 132.99136351561012 67.10191391000447  132.23321031965213 70.3945222050719  130.68121785587397 73.09796681717908  C 128.90373345215335 76.1992978911118  125.49224283595294 76.84711758731889  123.23322580702562 77.27813460977403  C 123.23322580702562 77.27813460977403  122.69796530841523 77.38270294176104  122.69796530841523 77.38270294176104  C 121.3789567191179 77.64285244736625  119.96004547620086 78.77778730510921  119.83962409574335 79.67298997425257  C 119.8191359482303 79.823463012259  119.75770208501567 80.2774400004444  120.61829601853898 80.70337933817065  C 121.01261640985416 80.90486521780818  121.4993169409261 81.00175231457573  122.06280215618516 81.00175231457573  C 124.60091668116 81.00175231457573  127.95091227549658 79.05068811794199  129.29560749749683 77.70150084789253  C 131.0755688265138 75.92896256516588  135.64989942104242 75.76827325593595  136.69485610285884 75.75806459743313  C 137.37616345598036 75.37807564205072  138.06511564026349 75.19442636709033  138.7924754563025 75.19442636709033  C 139.97063567627856 75.19442636709033  141.03861858955375 75.67392119517247  142.16809652469274 76.1839963224387  C 142.5420510857934 76.35488667745072  142.92621914132602 76.5283196811875  143.32316935456075 76.68897853953452  C 145.04689530555302 77.37250189597893  146.87049333084042 78.96651426479842  146.83462378303025 80.24940234998515  C 146.82181104600338 80.77478665864517  146.5042447595507 81.18030106664501  145.96635443902065 81.35883459327289  C 145.58475504675837 81.4889131524359  145.34911077103328 81.6827330222954  145.25434544395412 81.96328461946482  C 145.1339546428213 82.31268566294243  145.10572992617267 83.15943336462091  146.27373781036613 84.9039339968882  C 146.51442767465787 85.26354369886872  146.6707186029256 85.61040970634238  146.74493462384234 85.94705944259243  C 147.43648605072042 85.3069057561633  148.46352324829408 84.86311458831848  149.53410540416408 84.40149442851713  C 150.68923939268143 83.89907008558755  151.88782660152128 83.38387159726811  152.43596099580782 82.65954405769538  C 152.88156291455496 82.06274481584  153.61665929972952 81.75926370382324  154.61547178065456 81.75926370382324  C 156.85650816668974 81.75926370382324  160.12461232962326 83.34050953997355  161.69464659494278 84.27652400496592  C 162.3092910203352 84.64379971672449  162.92405776302618 85.07735177518359  163.55151492544542 85.52113533030769  C 165.20607044408766 86.68667332539685  166.9169224994038 87.89048808033112  169.0580868111439 88.19654990467635  C 172.10079077210884 88.63266745002251  179.00318651061633 91.28000631032819  180.53995047072058 92.8102849811719  C 180.76532009336452 93.03218056509435  181.01631519006207 93.31779462155109  181.30058059197492 93.63917324001103  C 182.68875961362238 95.22044952704425  184.78384088312035 97.61528966608138  188.64857824922953 97.9698064578916  C 188.8100370833625 97.98256537783996  188.96623627365622 97.99021616217651  189.11989738000432 97.99021616217651  C 191.9935282549994 97.99021616217651  193.84275175434053 95.5570992632944  195.471590060955 93.40706138486496  C 196.19647295169764 92.45066766647068  196.8802878094402 91.55035686171554  197.58459081469582 90.98926889281827  C 199.53882371487265 89.43606831984782  202.33304008376103 88.34446506851651  205.8930850590936 87.75530899827709  C 206.73832817164438 87.61759488021893  207.50409561943925 87.55127285719401  208.30579377369367 87.55127285719401  C 208.9819638002746 87.55127285719401  209.59403956239674 87.59975827554177  210.22409596741093 87.64820563028596  C 210.8489844665598 87.69664537230932  211.48925436600592 87.74766582666123  212.2294880777211 87.74766582666123  C 212.3985611636909 87.74766582666123  212.55482151263396 87.76295978261365  212.70325355446755 87.79357053268058  C 212.62649944960512 87.28858831558475  212.7238640192792 86.7734126654275  213.0773304328668 86.24034712154801  C 213.0773304328668 86.24034712154801  213.4614679090748 85.68438251370397  213.4614679090748 85.68438251370397  C 214.3886330323533 84.36324811955507  215.7895942117029 82.36370611729436  214.88034857266723 81.14969031657809  C 214.5038559276209 80.64980862237326  214.25802873678853 80.1830727142394  214.05822342954903 79.80307614613629  C 213.94037071236184 79.57354500331878  213.77643495293262 79.26238265608234  213.69708160547518 79.2062692915602  C 213.69708160547518 79.21902059878776  213.45125441464285 79.25216638485882  212.60347321814638 79.92803895696669  C 210.9566236893151 81.24405760278309  209.07666796870444 81.44044295952953  208.10601904577877 81.44044295952953  C 207.5681898838981 81.44044295952953  207.23004371195833 81.38177933356185  207.23004371195833 81.38177933356185  C 207.23004371195833 81.38177933356185  206.73579008769875 81.29762831858048  206.73579008769875 81.29762831858048  C 206.73579008769875 81.29762831858048  206.73065276115815 80.79518875020939  206.73065276115815 80.79518875020939  C 206.73065276115815 80.0785119949731  206.5718849075941 79.6296431423994  206.42079246451627 79.19606063305741  C 206.06735663025333 78.20139015481804  205.9033597121748 77.41586395327352  206.79468586696774 75.63820992221444  C 207.2864014072817 74.6588410126482  207.30942763874032 74.17681114856202  207.32731654365847 73.71008285314898  C 207.37098381925352 72.75877443220418  207.51183218857483 72.04719819985901  209.109999432569 70.19302871271361  C 210.8413396353982 68.17053435744317  211.7992064006217 67.05345132981886  213.07210136835226 67.05345132981886  C 213.7559773847441 67.05345132981886  214.42447200083888 67.37225684867104  215.22097166990332 67.84918618986619  C 217.36984197145432 69.12950878816596  218.64019885523925 69.55287502628447  222.1976140086523 70.4429847852575  C 224.95611372635372 71.13669396204256  225.59641420512438 72.81998070689671  226.1623151870305 74.30686686956284  C 226.39808178005413 74.92663368986926  226.6208827394277 75.51067401177627  226.98459322677186 75.99782723691567  C 227.56850543089465 76.762951346896  227.91680393861705 77.67856372032428  228.2549501105568 78.56101508223996  C 228.73899024038448 79.82602849914595  229.23584310723896 81.13693139662975  230.45244153829563 82.10866474730084  C 231.8841043595902 83.25125038938035  232.2451544456901 85.04676386327887  231.8507728957257 86.15618849384582  C 231.62283460981143 86.81166658711028  231.13105791084828 87.2018718137163  230.54457704345512 87.2018718137163  C 230.09640646143768 87.2018718137163  229.6481747207709 86.97999145523535  229.21018705386072 86.54132364844374  C 228.06792696101948 85.40636595253858  227.17916946949683 85.30182045871379  226.05485944022305 85.16916879994301  C 225.5861701313679 85.1130630481416  225.1046069268366 85.05441464761543  224.582159165253 84.92943661134342  C 223.81636113813352 84.73306648003837  223.32712252311592 84.28673266346884  222.92763422593546 83.927130574209  C 222.52814592875504 83.55985486245044  222.3052532314076 83.3736705514861  221.974874207928 83.3736705514861  C 221.63929669925847 83.3736705514861  221.17320663299827 83.57004829551184  220.59183251282113 83.95518345010979  C 218.1740476303297 85.5619547388775  218.21496276670663 85.7710837901309  218.62481745494213 87.78592736106472  C 218.84761841431572 88.89534437891106  218.6017912234834 90.02011625447554  217.9665974919286 90.78779062590144  C 217.52610232039737 91.32337598034357  216.95240361070654 91.62177179491086  216.35561751090762 91.62177179491086  C 215.8433526644313 91.62177179491086  215.35166770344196 91.40244169787536  214.93404586674632 90.98671101865202  C 214.7368703814264 90.78779062590144  214.53712623283616 90.58630474626389  214.33992016819155 90.38481125390565  C 214.37325163205614 91.07597016924521  214.31175661019225 91.83600136905525  214.25539891486892 92.58328887435844  C 214.21445319916748 93.12397475169159  214.17601498808693 93.64936667307234  214.17601498808693 94.11355231976064  C 214.17601498808693 96.27885370325949  214.17601498808693 102.03775513416288  214.6036974225913 103.74399423202672  C 214.678005181482 104.04497075892247  214.77790783510176 104.40455001001999  214.89056206709907 104.81519539179382  C 215.46942868265526 106.91164732898437  216.34537343715104 110.08692837211636  215.9509001492126 112.42569321023498  C 215.53856853568072 114.87155380362393  211.72499037970493 117.04708668378778  208.04703152853588 118.85535146491377  C 208.04703152853588 118.85535146491377  207.59892210516776 119.0772318233948  207.59892210516776 119.0772318233948  C 205.8930850590936 119.93162269668905  204.29231857250446 120.72990781818186  203.89533777994498 122.66312779741774  C 203.3960079877941 125.18295358544746  199.5772007673038 127.13916398129665  196.62932329206728 127.13916398129665  C 194.31657838973626 127.13916398129665  192.64921013406726 128.2205205105214  190.87435555226628 130.8678441453857  C 190.17766679884755 131.9135579161391  190.36202954714065 133.19643838860512  190.6412187811622 134.08909079630294  C 191.17397177515156 135.79531466872524  192.52628124898877 137.50666951492158  193.72492961647794 137.97850594594635  C 194.35501660081684 138.23100466721502  195.05931960607245 138.404407220069  195.77386668508456 138.58548339542162  C 197.58205273075015 139.03691773488228  199.63352788330243 139.5521314486431  200.70667870244282 141.32720476737384  C 201.17029184340674 142.09742940024515  201.47253788821166 142.59476844572524  201.7004761741258 142.80647820930702  C 201.7004761741258 142.80647820930702  201.9386891131212 143.02831289146363  201.9386891131212 143.02831289146363  C 201.9386891131212 143.02831289146363  201.87976275452755 143.34714886119872  201.87976275452755 143.34714886119872  C 201.49299545640005 145.49714867602447  200.99871125281584 147.69055622446908  199.5695559361422 148.87393843695622  C 198.8164789080756 149.50133320343699  198.4170211902198 149.9757275086281  197.98927759706612 150.47562442827444  C 197.305432159999 151.28406491922496  196.59852991214836 152.1180993772795  194.51372329573155 153.5692971051498  C 191.24057354423144 155.84938309185924  190.78974256096967 156.32886269449983  191.08174453201804 158.67269760462653  C 191.2021047538262 159.6367725582404  191.6324170102502 160.54218388588654  192.0498859503227 161.41696162530351  C 192.72605597690367 162.84522983832636  193.4278820568629 164.32191495521047  192.71318208122753 165.9771335987224  C 191.3429837024721 169.17281673341856  192.04221053983645 170.10118802679509  192.8054704830103 170.55007971753102  C 193.71982286926203 171.09840876648  194.05530863995753 172.11348894900425  194.3779816736262 173.09795076874082  C 194.76474897175373 174.2686197376039  195.1309669637189 175.37292100711767  196.38600360585596 175.84224524030068  C 198.76275103467188 176.72468137677498  201.40847420307742 177.44645865490227  203.64183517862648 177.8086110056075  C 203.93643639226974 177.8570583603517  204.24883477285724 177.8927467951475  204.5561875648781 177.92592303210137  C 205.73177912158386 178.05597875310218  206.94834697331578 178.19375377292616  207.4605812404675 179.13229566120185  C 207.83704330618914 179.82345457654142  207.71668308438095 180.7339664270786  207.07898184820513 181.99895700582226  C 206.07757012468522 183.9985446844075  205.9673928179843 185.4649983046265  205.85213934339205 187.01054809326038  C 205.7881368169072 187.9134319976232  205.71893580523238 188.8443459397246  205.4628033819942 189.86962716803086  C 205.03004477959854 191.56309212050482  204.1361499615353 195.08268129694423  201.3188767818635 195.08268129694423  C 201.0191382416796 195.08268129694423  200.70411003917252 195.04445021342366  200.3814675848285 194.96536927045037  C 199.49008027138623 194.7383579381954  198.75250696091533 194.3889949583214  198.16088876698166 194.10332000009876  C 197.7869953645303 193.9248016989124  197.36695776118754 193.72330820655415  197.18507193819082 193.70800663788094  C 197.2055295063792 193.73864022611016  197.11342458054426 193.9757764769398  197.11342458054426 194.72308682040523  C 197.11342458054426 195.68714654857766  197.29521866556703 196.49566316673545  197.47450524596883 197.2786314941138  C 197.82029624907017 198.81396501152406  198.14553794600917 200.25755001866142  196.59852991214836 201.80052670768757  C 196.00694229753933 202.39221781393113  195.5305775781979 203.01964303129483  195.0721323430992 203.626650931653  C 194.00665693444518 205.04216022472752  192.997478062465 206.37604592610396  190.89982812969666 206.6387152422717  C 188.3643128473167 206.95499333784056  187.42430440768672 207.24829624223756  185.1551656223015 208.86268025173823  C 184.54049061758437 209.2988434734088  183.99495546589282 209.59978954942164  183.52366691444269 209.8624740910309  C 182.23798978900993 210.57913562082558  181.84862324828742 210.79335758224929  182.05099721879728 212.64241132106216  C 182.33275511608906 215.17755390320653  182.1534685356873 218.34519177472274  182.0791913561212 219.39854871709198  C 182.18413959830764 219.46738293795875  183.53644907214485 220.28098485356628  183.53644907214485 220.28098485356628  C 183.53644907214485 220.28098485356628  182.3609186740884 220.7069165785717  182.3609186740884 220.7069165785717  C 181.46448577207957 221.03338049448118  180.813880060903 221.31645190221317  180.42720450074935 221.5485789828006  Z M 143.4717542930176 94.27422640354906  C 143.48967377726032 94.17985150462337  144.539798364942 90.78267487756894  145.4310633610856 88.4235307860484  C 145.11857324252415 88.6275821525729  144.7856255557743 88.81120097665038  144.46808984864617 88.97952584477537  C 143.976313149683 89.24987639616268  143.30534160829188 89.61458662103419  143.22075919632005 89.8645198554159  C 142.9953895736761 90.54294268896932  142.73155116062705 93.33055354149944  142.5369137592528 95.94984713862517  C 142.5369137592528 95.94984713862517  143.4717542930176 94.27422640354906  143.4717542930176 94.27422640354906  Z M 16.5622056286915 86.5183636827133  C 16.006411113581006 86.5183636827133  15.376369998229167 86.33217175902816  14.42101073762675 86.05162016185884  C 14.42101073762675 86.05162016185884  13.58608814714402 85.80678745036812  13.58608814714402 85.80678745036812  C 10.948025099562363 85.05951517050643  11.406500913985754 83.44252761051509  11.811172406693654 82.0168401098207  C 12.018622545094756 81.27468357829152  12.25937356803583 80.43047091261707  12.25937356803583 79.46386092299917  C 12.25937356803583 78.62732187982351  12.25937356803583 77.23988068809116  13.265907328434006 77.23988068809116  C 13.898532396718496 77.23988068809116  14.438945511531827 77.89788620463898  15.619659105115835 79.33632501256102  C 15.944900802054825 79.73166882566166  16.308641868723647 80.1779798040691  16.71842010864752 80.66257515504233  C 17.1845560438948 80.71358038395276  18.073282956092825 80.90486521780818  18.603436707487237 81.63937096500082  C 19.05165315849168 82.26423069547755  19.113132890693244 83.08802604414637  18.77504787740277 84.08524678383128  C 18.337060210492517 85.4165746110414  17.865802238366992 86.5183636827133  16.5622056286915 86.5183636827133  Z M 25.94378953358034 77.62245035580214  C 24.394304574423153 77.62245035580214  23.86161273908306 76.38548981479694  23.249491107973945 74.95214391704519  C 23.059884005503985 74.51600353353693  22.85244915676524 74.02632288511421  22.588656612703193 73.50603909934516  C 22.053380824430455 72.44251917479752  21.97653498159408 71.6263746104653  22.35814966351866 71.01425857449541  C 22.960011931208935 70.04254806198648  24.40451806885499 69.99154283307607  25.971983670904255 69.98644231018504  C 26.735228324415765 69.15244591573418  29.40914563014531 66.43116469894981  31.601469152018854 66.43116469894981  C 32.23663230424899 66.43116469894981  32.71814963979335 66.61988404591828  33.03060917903021 66.99222982968493  C 33.67604698434145 67.75482651638195  33.453215445643295 69.01728205912163  33.117744964610004 70.93009994679326  C 32.95380920518074 71.86357176306086  32.759141224481866 72.96026792456242  32.64134966594397 74.19212032995593  C 32.47484524324433 75.8549973705251  32.093199981995134 77.39291160026383  30.428461548245732 77.39291160026383  C 30.146734230278582 77.39291160026383  29.836812774987404 77.34956476841077  29.501311714629498 77.29853670133815  C 29.16322670133902 77.24753147242772  28.796947550724607 77.19396075663035  28.39742867421957 77.19396075663035  C 28.01324532902461 77.19396075663035  27.664962110964566 77.24753147242772  27.324277855079174 77.35975058875138  C 26.796708056617412 77.53828411537927  26.345968811329644 77.62245035580214  25.94378953358034 77.62245035580214  Z M 20.811187498644884 68.37455527308475  C 20.237473499291664 68.8310977481572  19.80465373824662 69.03768415068579  19.397428871930693 69.03768415068579  C 18.43956210670721 69.03768415068579  18.221822025562574 68.04302128516717  18.029737997796367 67.16567044614247  C 17.87861497539386 66.48979787403456  17.70955717908627 65.72213111532942  17.284443407852205 65.16357056971545  C 17.125660264625804 64.95189125701657  16.641574265811172 64.30917208370043  16.933545657534893 63.727697248680435  C 17.02835685360105 63.53385454065872  17.284443407852205 63.215049021806536  17.924728596960612 63.215049021806536  C 18.862091925008688 63.215049021806536  20.516693312637866 63.89856476553026  21.69480766362693 64.76571455877288  C 21.73318471605809 64.79377504739433  22.299269173912037 65.19420415794461  22.329970815857013 65.97206434971112  C 22.360748906113688 66.74228136986177  21.848453480312653 67.55333302402369  20.811187498644884 68.37455527308475  Z M 8.189647699159522 61.794454431282446  C 7.259929202273072 61.794454431282446  6.0663722923376096 61.19766280214786  4.560417001814527 60.44527477395363  C 2.065832145473727 59.20321371005739  1.9480252972735719 57.56328140977712  1.735437832331878 54.586928372116375  C 1.6892936314404206 53.949324947132745  1.6381191316447745 53.23520606606278  1.5561818312547193 52.429262547512636  C 1.2283103123961683 49.126445593942414  2.1093923934325365 48.5551489665423  3.692178237129614 47.82827877824474  C 4.306868531509024 47.54774240651682  5.003526705602994 47.2289292749439  5.787228927302994 46.57856693001194  C 5.787228927302994 46.57856693001194  7.0831959954793255 45.507373382965525  7.0831959954793255 45.507373382965525  C 7.0831959954793255 45.507373382965525  6.757908429553337 47.152413818857575  6.757908429553337 47.152413818857575  C 6.747679645459149 47.19321800198589  5.951103528083019 51.38867213781246  7.994995008122935 54.25027863586629  C 7.994995008122935 54.25027863586629  8.537961496544211 55.002636213177574  8.537961496544211 55.002636213177574  C 9.859554038774245 56.818559391360914  9.967116813217833 56.966482167921804  9.913358360489509 58.41257176018037  C 9.905621791354001 58.69058070862497  9.890286260043837 59.03233096776609  9.890286260043837 59.47611452289022  C 9.890286260043837 60.21573601841538  9.76220475876241 60.76153764408103  9.500950298646018 61.14663473507527  C 9.296084113177479 61.43995286491371  8.904194778171712 61.794454431282446  8.189647699159522 61.794454431282446  Z M 23.159817238448383 60.36621666914251  C 22.534882870312522 60.36621666914251  21.997007839444866 60.24889702992787  21.51295241995483 60.00915722860753  C 19.610001047210034 59.05272544660952  19.06700397946414 58.07083672648071  19.01323023707346 57.96370290760667  C 19.01323023707346 57.96370290760667  18.739193619254852 57.42810994044383  18.739193619254852 57.42810994044383  C 18.739193619254852 57.42810994044383  19.27960673406818 57.16030965050205  19.27960673406818 57.16030965050205  C 20.444984796342 56.57626932859507  21.656384742208715 56.46405021227146  22.821732225157913 56.35691639339743  C 24.494191938380553 56.19880018377519  25.936175281743303 56.061070840275654  27.116873585665047 54.64814225952958  C 27.9210639548781 53.69173331569377  28.382062563584785 53.186743485877166  28.722700950483176 52.81439770211053  C 29.32462437682269 52.15637696012128  29.524383815075282 51.93958189908989  30.648739713335964 50.25372966734879  C 30.648739713335964 50.25372966734879  31.627109915734817 48.79744664202889  31.627109915734817 48.79744664202889  C 31.627109915734817 48.79744664202889  31.744886184610444 50.547055409907976  31.744886184610444 50.547055409907976  C 31.793629628096756 51.27391798548481  32.144466219764745 57.69335996894009  29.10433092207011 58.705897502739546  C 28.607462765553233 58.87166449669834  28.11311740331977 59.05272544660952  27.621355994018842 59.23381684740364  C 26.023204039686984 59.815322133306566  24.512111422623306 60.36621666914251  23.159817238448383 60.36621666914251  Z M 20.437248227206492 53.163798745588224  C 20.022363240066642 53.163798745588224  19.538277241252015 53.09236858695147  18.956887831412494 52.94953872056089  C 17.970842218527366 52.70215574762472  16.933545657534893 52.56189136812114  15.927027186798982 52.42161937589681  C 13.265907328434006 52.051801015413496  10.748280950972154 51.70748526938538  9.646981863494817 49.52176656888093  C 8.207613052389332 46.66273317043483  9.142377137842406 44.25256862456242  9.180830638585268 44.153100815466416  C 10.151510140835583 42.6789507345864  10.758494445404105 42.21987322350989  11.639561236778121 42.21987322350989  C 11.780440185424062 42.21987322350989  11.926410591623597 42.23262453073749  12.087792977444915 42.24538345068583  C 12.246560831008965 42.258134757913425  12.420710084870176 42.27343632658654  12.617931439177088 42.27343632658654  C 13.055873237100258 42.27343632658654  13.49639898795616 42.19436299633396  14.008709703419463 42.02605335365038  C 16.71583615571496 41.13082784634484  16.71583615571496 41.13082784634484  18.985066679074166 40.674300596713856  C 19.691953637262355 40.534043829931  20.204203194076392 40.43456079539352  20.629362834297428 40.43456079539352  C 21.80235514840825 40.43456079539352  22.23266740483223 41.15633807352078  23.182889338894082 42.73506409910857  C 23.418487745632213 43.12528455115604  23.623353931100667 43.42878088861438  23.797533764286495 43.68382987132856  C 24.760583725037538 45.10443207457339  24.824540382535517 45.48442864267658  23.674589589545747 48.15982799160379  C 23.32373770821538 48.978515204660795  23.13162310112447 49.73345349430054  22.962550015154616 50.40166005663041  C 22.604022723337973 51.82225464715451  22.26339962610185 53.163798745588224  20.437248227206492 53.163798745588224  Z " fill-rule="nonzero" fill="#4b636b" stroke="none" transform="matrix(1 0 0 1 2932 30 )" />
  </g>
</svg>