<?xml version="1.0" encoding="utf-8"?>
<svg version="1.1" xmlns:xlink="http://www.w3.org/1999/xlink" width="234px" height="225px" xmlns="http://www.w3.org/2000/svg">
  <g transform="matrix(1 0 0 1 -2932 -30 )">
    <path d="M 10.673655570139102 1.195357470539076  C 11.963457634951103 1.195357470539076  13.386292928237262 2.749066425635687  15.23135747836388 3.667977556832717  C 17.905633968673918 5.011790371267281  13.893004701552487 6.347936217746474  12.554575539102272 8.579936899909614  C 11.886705345119466 9.693396865460382  11.10613577970204 9.91864222248751  10.32817860313028 9.91864222248751  C 9.808695151013424 9.91864222248751  9.2866604185618 9.816255538311989  8.802955999642847 9.816255538311989  C 8.557299785372804 9.816255538311989  8.324399972776524 9.841850299299079  8.101781667158201 9.91864222248751  C 6.760831778628837 10.358895032146938  6.760831778628837 12.590914814877978  7.659019950617504 16.60187744939202  C 8.544528106571144 20.617974316557806  7.659019950617504 21.503617988641977  8.544528106571144 23.290235448607536  C 9.43761371789033 25.074320173269438  12.554575539102272 25.074320173269438  12.554575539102272 25.074320173269438  C 12.554575539102272 25.074320173269438  26.127998005187376 25.465942937053406  26.127998005187376 25.465942937053406  C 26.813834101407924 23.99158920135751  27.7095626558284 22.839744734553268  27.7095626558284 22.839744734553268  C 27.7095626558284 22.839744734553268  28.72038909074073 22.169116155328545  29.915472963483467 22.169116155328545  C 30.662707836143692 22.169116155328545  31.481622992221542 22.432761294063475  32.17257692623927 23.290235448607536  C 32.855907573508254 24.147732523833074  34.00237962574053 24.41392949843955  35.25377499138126 24.41392949843955  C 37.257523067479454 24.41392949843955  39.532516546834074 23.738193427358155  40.63040733281151 23.738193427358155  C 40.63040733281151 23.738193427358155  51.77522479998439 23.738193427358155  51.77522479998439 23.738193427358155  C 54.444352898241604 23.738193427358155  55.34008145266208 24.62638129508672  57.56131471945364 25.965082797551027  C 59.79287532460624 27.301217183689477  64.25593542640037 27.301217183689477  66.93016608532716 27.301217183689477  C 69.60436618999842 27.301217183689477  72.28119396064324 28.639907225813054  73.60938744749886 29.97348595596636  C 74.94778605569351 31.312183638317112  73.16415083626215 33.09626454286543  74.94778605569351 35.773652267339735  C 75.62847375986112 36.79495199276907  76.50376151734793 37.230093490458245  77.45317389869284 37.230093490458245  C 78.98608089744017 37.230093490458245  80.70316894837892 36.08848310793526  82.07743825253793 34.434954584989  C 84.30383518850992 31.75756304040111  86.98066295915478 31.75756304040111  86.98066295915478 31.75756304040111  C 86.98066295915478 31.75756304040111  87.42339412143991 35.32315391305831  88.3241946822745 36.6618592356362  C 88.47259670126816 36.88710077254976  88.61846271705487 36.98436850452786  88.77713096589875 36.98436850452786  C 89.54480663549259 36.98436850452786  90.47637533162185 34.58086000306973  92.32912427700835 33.09626454286543  C 94.55301576402883 31.312183638317112  99.90661019680743 28.194524003615463  99.90661019680743 28.194524003615463  C 99.90661019680743 28.194524003615463  99.90661019680743 31.312183638317112  99.90661019680743 31.312183638317112  C 99.90661019680743 31.312183638317112  105.24489694757747 34.434954584989  108.37716645079801 35.32315391305831  C 111.49415882626549 36.21391271722632  113.27531915100084 36.6618592356362  115.0590154789432 38.44336920374508  C 116.84011469516759 40.22999812405137  119.06651163113959 41.118205092347836  121.74593651350243 41.118205092347836  C 124.41506461175966 41.118205092347836  124.41506461175966 36.6618592356362  124.41506461175966 36.6618592356362  C 124.41506461175966 36.6618592356362  127.09186182814896 38.44336920374508  128.43026043634362 40.67538516636253  C 129.76355648386874 42.90483401265413  130.208823649361 45.13174630352849  129.76355648386874 48.25195395398809  C 129.315722760914 51.367042652250284  127.09186182814896 52.70829981069973  127.09186182814896 52.70829981069973  C 127.09186182814896 52.70829981069973  129.76355648386874 53.153671572556576  131.10711876124398 53.599066255094904  C 132.44295081197612 54.04954168869485  134.2240500282004 53.153671572556576  133.7788134169637 56.279005815440755  C 133.32578547057292 59.38896792127838  132.88054885933622 60.7302480004093  132.88054885933622 63.85557460306632  C 132.88054885933622 66.97065566110135  132.44295081197612 70.538817470198  130.65155481164612 73.6641593533094  C 128.87558871034685 76.77666565479134  125.3132986151317 77.2246045329741  123.07920200677202 77.67255105138389  C 120.85026906759296 78.11793045346792  118.18107986082478 80.79533345839654  120.85026906759296 82.13147930487574  C 121.35181717172765 82.38231560277642  121.93531178913001 82.49235779456659  122.55974910891075 82.49235779456659  C 125.2595536796962 82.49235779456659  128.76556283626897 80.45746733291267  130.208823649361 79.00357030543857  C 131.98992286558527 77.2246045329741  137.34110351217888 77.2246045329741  137.34110351217888 77.2246045329741  C 138.019163550373 76.82019202892369  138.6563419946999 76.66148923034945  139.2757073080665 76.66148923034945  C 140.69602187527337 76.66148923034945  142.0318539260055 77.49593192011865  143.58266571847943 78.11793045346792  C 145.81159865765844 79.00868161740883  147.58762586746874 81.23557862782883  146.25442148271017 81.68607698211024  C 144.9159617660045 82.13147930487574  144.4758277154374 83.46760223067345  146.25442148271017 86.13987100295034  C 148.04312870855554 88.81981820352335  143.58266571847943 89.26007101318278  143.13226543806212 90.59622449988919  C 142.68956483003242 91.94003349421014  142.24170055282227 99.5191541177073  142.24170055282227 99.5191541177073  C 142.24170055282227 99.5191541177073  144.4758277154374 95.50818002285247  144.4758277154374 95.50818002285247  C 144.4758277154374 95.50818002285247  146.25442148271017 89.70801753159267  147.14489470518356 87.92651520371095  C 148.03035702975396 86.13987100295034  152.04558340859344 85.6919397649948  153.3840431252991 83.91808530450058  C 153.73963355088057 83.4419998294592  154.34613552267908 83.250039122056  155.0857318314628 83.250039122056  C 157.13555572486436 83.250039122056  160.21417195541596 84.71415113324348  161.85456882503414 85.6919397649948  C 164.08099631526167 87.03319692344427  166.30739325123375 89.26007101318278  169.42945763311525 89.70801753159267  C 172.54904712030074 90.15595640977543  179.23077393142393 92.82823282227945  180.56920309387414 94.1643710285315  C 181.9050656988617 95.50818002285247  184.14426486789088 99.06609628732716  189.03471789570614 99.5191541177073  C 189.21379638722811 99.53449569384519  189.38786398084707 99.54219704282279  189.56190102021054 99.54219704282279  C 194.10165230332532 99.54219704282279  196.24882205476976 94.10039176629093  198.3958390349366 92.38285342019543  C 200.62736908583372 90.59622449988919  203.73919779212065 89.70801753159267  206.4186226744835 89.26007101318278  C 207.30921811397891 89.11418087555637  208.05379476641008 89.06555846990804  208.73203813013734 89.06555846990804  C 210.0832084171335 89.06555846990804  211.16825113867054 89.26007101318278  212.65251576265197 89.26007101318278  C 214.8840763678046 89.26007101318278  213.99858348897865 92.82823282227945  213.99858348897865 95.05256271637359  C 213.99858348897865 97.28457867899107  213.99858348897865 103.07707802240911  214.44394231723737 104.86369930248823  C 214.8840763678046 106.65033586302167  216.2275469824132 110.6587352013234  215.7797743679695 113.33360929106195  C 215.3318795365038 116.01098937530907  209.53561504995102 118.68069867148732  207.75702128267812 119.57397875061827  C 205.97842751540531 120.46728939065781  204.19476174171845 121.35552691986285  203.73919779212065 123.58499104660882  C 203.29903318729797 125.8118727765745  199.73167108566875 127.60106117297954  197.06514009912956 127.60106117297954  C 194.38828177422928 127.60106117297954  192.60201888882435 128.93208042703412  190.818383669393 131.60947579173566  C 189.03471789570614 134.28688643689142  191.71652600999846 138.74321701314867  193.94047860553007 139.6364970922796  C 196.16938099045356 140.52215222470454  199.29150648084615 140.52215222470454  200.62736908583372 142.74649739925303  C 201.1161455111668 143.56047192045975  201.42581289072237 144.07753193376195  201.72524459468337 144.35907430461998  C 201.3899116405026 146.23530016883538  200.92930623874622 148.46219717925538  199.62167576584636 149.55004328325117  C 197.6178665812372 151.22661473131296  197.95054131518899 151.89469147466616  194.60833352238507 154.23422071388373  C 191.2661868380922 156.57116755632111  190.59573480951912 157.23664662243976  190.93103720944444 159.91920678070161  C 191.2661868380922 162.5889007964255  193.6103704290408 164.5931004655763  192.60201888882435 166.93774865699132  C 191.60653069017604 169.27469549942876  191.2661868380922 171.28659651755717  192.93982673770114 172.28230148199938  C 194.60833352238507 173.28822907038222  193.94047860553007 176.63113406211096  196.6095761495318 177.6344945341678  C 199.29150648084615 178.63790084758773  201.96323169082137 179.31108126268396  203.97721544251414 179.63875532513606  C 205.97842751540531 179.97660617016555  208.6450196104556 179.63875532513606  206.97131860233557 182.98674870815356  C 205.31054204429475 186.3271018640108  205.97842751540531 188.33385336903325  205.31054204429475 191.01126401418898  C 204.70400951824075 193.39940037860052  203.83901854485947 195.7901344202466  201.75084906079758 195.7901344202466  C 201.50510118376107 195.7901344202466  201.24154017576436 195.75939014615352  200.957538370834 195.6877553762983  C 199.36572276747071 195.28587942766512  198.24737590743186 194.4104469191807  197.6024977907175 194.4104469191807  C 197.1674663008199 194.4104469191807  196.9525476675891 194.80975575148798  196.9525476675891 196.0256062213278  C 196.9525476675891 199.03062980711843  198.61592133734794 200.7020517420741  196.6095761495318 202.70628197213367  C 194.60833352238507 204.71563115439056  193.94047860553007 207.05511455224513  191.2661868380922 207.39299595818338  C 188.59446162811702 207.723176015144  187.5887988623851 208.06107270153657  185.2523454980796 209.7299580810751  C 182.91335613056714 211.40141057693944  181.57489641386144 211.06609628732707  181.9050656988617 214.07110459266335  C 182.24021532750947 217.08638136330308  181.9050656988617 221.0973783788393  181.9050656988617 221.0973783788393  C 181.9050656988617 221.0973783788393  182.18402605163354 221.2893314460153  182.60371930526705 221.54274250046896  C 181.78474304067822 221.83967228882784  181.04264128294304 222.14936125654452  180.56920309387414 222.4360225795999  C 180.1264719315889 222.70225393522867  179.64026206371835 222.80208114330546  179.12328406055303 222.80208114330546  C 177.68766181133756 222.80208114330546  176.02939070224826 222.01116482766858  174.55533119960597 221.7628880058666  C 172.54904712030074 221.4301255521258  169.20421166152335 219.42589532206628  167.86841016504678 218.75016307109843  C 166.53263922282562 218.07953449187372  162.85002646942692 215.74512420485365  161.17898368153607 214.7519710762829  C 160.73881907671336 214.4832337261456  160.32169238054237 214.38339123761446  159.91223480250346 214.38339123761446  C 158.76321146993638 214.38339123761446  157.6499977248226 215.17178627828844  156.17077455299983 215.42004781963604  C 154.16455158220558 215.74512420485365  153.82924918228025 216.41320094820676  152.4908505740856 217.7544581066562  C 151.16271819574106 219.08547736071077  149.81921702687688 218.75016307109843  147.46993087525877 219.08547736071077  C 147.37014067677543 219.1008494977574  147.2651868091116 219.108505005372  147.16283005316572 219.108505005372  C 144.88009107004018 219.108505005372  142.07019951666578 215.65810201749747  140.46054022808687 213.7409245357027  C 139.67233209879285 212.7913054214916  139.10426738042113 212.44061899483262  138.51563964809367 212.44061899483262  C 137.8579898525777 212.44061899483262  137.17213847922952 212.8757910534304  136.11783333873169 213.40304312976448  C 134.11402415412255 214.41412023125332  133.7788134169637 215.74512420485365  132.10511240884372 217.08638136330308  C 131.61884143246223 217.47548285212414  131.07127861953515 217.63928932244153  130.52872670451112 217.63928932244153  C 129.21076889325013 217.63928932244153  127.89540819370717 216.6947433190648  127.42453656210074 215.74512420485365  C 126.75918709419719 214.41412023125332  127.42453656210074 212.7375487831915  126.08616850816159 212.40223449357913  C 125.94543560729993 212.36637126728857  125.80974415859683 212.3510296911507  125.67674148437817 212.3510296911507  C 124.53279015822515 212.3510296911507  123.57570865874818 213.54638907174652  122.08117780491672 214.7519710762829  C 121.84829326944826 214.93631447720725  121.63077752449952 215.01820243191162  121.42086978917169 215.01820243191162  C 120.1234444376109 215.01820243191162  119.22261332252096 211.88263792485972  118.07362054420933 210.72564776506297  C 116.73011937534518 209.39210723604552  117.06019699757887 206.38962020567214  117.39803540071125 204.37774974845235  C 117.72814357720048 202.37355007930142  116.06214224146805 200.7020517420741  114.3859663386521 199.37109360983678  C 112.71489299650567 198.0298211709331  107.37147313081068 197.0289972542934  104.36453718367659 195.6877553762983  C 101.34996267266602 194.35157132868326  96.9994950024122 187.3330447328479  96.00913991868896 183.6522583351809  C 95.00335493593512 179.97660617016555  90.9959198922497 178.30257127752103  89.3171163234602 176.2958503334072  C 88.43162344463437 175.2335837099443  86.24360265357808 171.5425746883367  84.37038235700248 168.30971952862527  C 83.98396268761526 167.11434486757508  83.33651801343842 165.0820138820199  82.52786908721063 162.3636668997391  C 81.18943992476048 157.9021868103757  78.0724781035485 157.9021868103757  75.83581493772643 156.57116755632111  C 73.60938744749886 155.2375659054863  66.48239347088344 155.2375659054863  66.48239347088344 155.2375659054863  C 66.12661971976897 155.28368231662603  65.75810484410839 155.30926179715874  65.38192085031575 155.30926179715874  C 63.1375885663616 155.30926179715874  60.609223923221485 154.53882129031157  58.48005062827027 154.53882129031157  C 57.83773906901836 154.53882129031157  57.23374254617132 154.60536766887805  56.68104661831926 154.7922170643109  C 56.0949854434544 154.98418541194127  55.55500008589292 155.0738052765319  55.04578286362613 155.0738052765319  C 53.223710390768005 155.0738052765319  51.828969735419875 153.9500806657912  50.44197458384249 152.56276821801941  C 48.650609137768086 150.77614693794018  48.212995813280195 148.99716588502147  46.87198481623976 145.87182400191006  C 45.531034927710365 142.74649739925303  44.19266687377119 140.97523297576618  42.416654941088645 138.74321701314867  C 40.63040733281151 136.5163047222743  42.856804268783584 136.5163047222743  44.63788820788011 135.62302464314337  C 45.139512697653544 135.3721348636527  45.60529704571822 135.2620544707267  46.09150691358876 135.2620544707267  C 47.350556120233755 135.2620544707267  48.75806845438345 135.99669287310059  51.324839796694874 136.9540286167437  C 51.74454832745615 137.11270085440933  52.1027969732666 137.1843814656275  52.40734651502486 137.1843814656275  C 54.687473109304605 137.1843814656275  53.950473912239 133.18622003172055  53.55635457046419 131.60947579173566  C 53.105984844302434 129.8279734638539  51.77522479998439 128.0413216228661  50.882123911537406 126.25981929498438  C 50.221907558558904 124.94412633661341  49.8072863113395 123.37765056193189  48.73249454252477 123.37765056193189  C 48.35631054873213 123.37765056193189  47.895644038464795 123.567036512782  47.31217997531793 124.03290700411002  C 46.339760239576805 124.81615253167801  45.44914952295368 125.16428712246532  44.68399457943906 125.16428712246532  C 43.698772610640795 125.16428712246532  42.91572815052728 124.58579968279417  42.416654941088645 123.58499104660882  C 41.520926386668165 121.80344287736412  42.416654941088645 121.80344287736412  41.078241055766206 120.02194054948242  C 39.74242428216186 118.23787110527482  39.74242428216186 117.34454518478091  41.078241055766206 114.66974749731398  C 42.416654941088645 111.99747108480996  42.856804268783584 112.88819932806928  43.30725038058407 108.87724815389603  C 43.74988988010277 104.86369930248823  42.416654941088645 103.53014349301638  42.416654941088645 103.53014349301638  C 42.416654941088645 103.53014349301638  40.03672287119781 102.93371679997274  37.52879902499144 102.93371679997274  C 36.27227054442569 102.93371679997274  34.985019759948514 103.0796298582806  33.94855830466632 103.53014349301638  C 31.425311499323545 104.60773641216294  30.358188848640907 106.56585023108276  29.807998369740297 106.56585023108276  C 29.674904032755183 106.56585023108276  29.572577831064866 106.45581567951973  29.48557458851092 106.19983750874019  C 29.04534887517724 104.86369930248823  28.152232709602576 104.42343885260158  25.9258357736305 103.07707802240911  C 25.9258357736305 103.07707802240911  21.91575778684381 99.5191541177073  23.251605114703718 97.72996572130222  C 24.58488588510102 95.9510152292921  25.478002050675798 97.72996572130222  28.594963871887714 95.50818002285247  C 31.719640642615 93.27361222436346  31.719640642615 92.82823282227945  29.933377757210145 92.82823282227945  C 28.152232709602576 92.82823282227945  25.035240334135075 91.494646451899  25.035240334135075 91.494646451899  C 25.035240334135075 91.494646451899  28.152232709602576 89.26007101318278  28.152232709602576 89.26007101318278  C 31.271776365404797 87.02807033101965  35.729718629401695 87.92651520371095  38.40397984258395 87.48624711359727  C 39.29709600815864 87.33265562699316  40.38216928395116 87.28403322134493  41.490280468395426 87.28403322134493  C 43.698772610640795 87.28403322134493  45.97637847884131 87.48624711359727  46.87198481623976 87.48624711359727  C 47.25076592175039 87.48624711359727  47.5245931595972 87.51951266265326  47.74980857693362 87.51951266265326  C 48.320485684151144 87.51951266265326  48.591700533152085 87.29171164964106  49.54882786401232 85.6919397649948  C 50.882123911537406 83.46760223067345  51.324839796694874 82.56659788188341  53.55635457046419 81.23557862782883  C 55.785318063898785 79.90199989767552  56.68104661831926 78.11793045346792  55.785318063898785 75.89104108327504  C 55.10209435652413 74.1939861861964  54.42394265556345 72.75290181967014  53.745760400347294 72.75290181967014  C 53.5307806586055 72.75290181967014  53.31836747432623 72.89368064532628  53.105984844302434 73.21108624247489  C 52.217955962269535 74.5472091682726  51.324839796694874 76.77666565479134  50.44197458384249 79.90199989767552  C 50.05550908307207 81.24839128877669  49.25711110956667 81.59648003820116  48.22321621174702 81.59648003820116  C 47.08956166969955 81.59648003820116  45.67179838282757 81.17414356123264  44.20546910682833 81.17414356123264  C 43.90855812894657 81.17414356123264  43.60660569890633 81.19462701024949  43.30725038058407 81.23557862782883  C 43.0717687333976 81.26885945733918  42.856804268783584 81.28422395415865  42.65719331756145 81.28422395415865  C 40.1902580051166 81.28422395415865  40.251626227300875 78.80393116973924  41.078241055766206 76.33641284513193  C 41.96626993779911 73.6641593533094  43.30725038058407 74.5472091682726  45.09087032288764 72.32799822637584  C 46.87198481623976 70.0959975442127  44.63788820788011 68.3119128195508  45.97886865066506 66.52528389924451  C 47.08186199731198 65.04836686733633  47.273803830402116 64.18832177635281  46.04801293087568 64.18832177635281  C 45.79209048675555 64.18832177635281  45.47478454332343 64.22415444173475  45.09087032288764 64.3035211214762  C 44.799153568441994 64.35981431519347  44.509988094331085 64.3879838327336  44.22849173835227 64.3879838327336  C 42.34498993479879 64.3879838327336  40.86069475656189 63.12349567679111  42.416654941088645 61.18329819056227  C 44.19266687377119 58.948722751846105  42.856804268783584 58.49821675733752  41.97387794742025 57.16720514351007  C 41.078241055766206 55.82595562528778  37.060448119464255 53.599066255094904  37.060448119464255 52.26803936081314  C 37.060448119464255 50.924222726264986  36.62032934602482 48.25195395398809  34.83657190957144 47.806566911676924  C 33.05547269334713 47.35862803349421  32.17257692623927 44.686351620990166  32.612756808189665 41.566151610757714  C 33.05547269334713 38.44336920374508  32.17257692623927 38.891300441700636  29.933377757210145 37.11234994969047  C 27.7095626558284 35.32315391305831  26.37111821625046 32.20806139468254  25.478002050675798 29.53067367020823  C 25.173483063172927 28.611752988727243  25.344892436562876 27.541827037536027  25.690430512082767 26.523071507751084  C 25.23746367420299 26.46165172160923  24.717949667830656 26.410454559407885  24.14215472281586 26.410454559407885  C 23.123643892643653 26.410454559407885  21.813401030897985 26.11609570748845  20.45709762897666 26.11609570748845  C 19.446271194064213 26.11609570748845  18.407197349936315 26.279917458260144  17.455264242512172 26.850715009294472  C 15.23135747836388 28.194524003615463  15.67153736031427 28.194524003615463  12.111905485328094 29.53067367020823  C 11.364640058412393 29.8096603850811  10.776012326084981 29.932538158500602  10.300022856681293 29.932538158500602  C 8.506090853144373 29.932538158500602  8.360255391613078 28.171496358954244  7.659019950617504 26.410454559407885  C 7.408261175677893 25.783344714088376  7.154874734764802 25.512013506830158  6.893895561358359 25.512013506830158  C 6.223382424274294 25.512013506830158  5.499154906010229 27.290990739635383  4.536955568735994 29.53067367020823  C 3.1960056802066297 32.64831802445555  3.1960056802066297 32.20806139468254  4.084004007983943 37.11234994969047  C 4.813318809789793 41.110519023824544  4.352728685161215 42.14207193410304  3.188336562074539 42.14207193410304  C 2.9298933918751406 42.14207193410304  2.632982413993405 42.08830765557583  2.305471349222158 42.00895625628869  C 0.5268470276938264 41.566151610757714  1.412309352264208 37.99799744188823  1.412309352264208 34.88034162730017  C 1.412309352264208 31.75756304040111  0.9696087442345519 27.749156061872196  1.8678274704787823 22.839744734553268  C 2.745620676917073 17.93801565564404  4.084004007983943 14.82036748128315  6.318070062088112 10.806837730443235  C 6.318070062088112 10.806837730443235  7.211186227662774 7.691749032181045  7.211186227662774 7.691749032181045  C 7.211186227662774 7.691749032181045  7.211186227662774 5.011790371267281  8.987198160345324 2.3369563927213157  C 9.539970473836153 1.5101902211914016  10.092773341582545 1.195357470539076  10.673655570139102 1.195357470539076  Z M 21.20948089368971 41.77602865085185  C 22.041137174313658 41.77602865085185  22.32773609096204 42.25468888244623  23.251605114703718 43.800704128792404  C 24.58488588510102 46.02248982724219  25.035240334135075 45.577110425158175  23.701990117993162 48.69988519194365  C 22.565723187099994 51.35167815543087  23.034028261243925 53.35589310503607  21.017508506344072 53.35589310503607  C 20.65925986053362 53.35589310503607  20.22161598179016 53.29444275798557  19.681661178484163 53.15880580520832  C 16.116850357189737 52.26803936081314  12.111905485328094 52.70829981069973  10.770925042543224 50.03091208622542  C 9.43761371789033 47.36887357811621  10.32817860313028 45.13174630352849  10.32817860313028 45.13174630352849  C 11.221294768704968 43.79048150485188  11.66915904591515 43.57034363968143  12.227033920075547 43.57034363968143  C 12.500845880794575 43.57034363968143  12.802828865090401 43.62408499752716  13.204602047869528 43.62408499752716  C 13.608895956727887 43.62408499752716  14.113102281091546 43.56778416358272  14.781003029329828 43.345079182086394  C 17.455264242512172 42.45690277469857  17.455264242512172 42.45690277469857  19.681661178484163 42.00895625628869  C 20.370063832167236 41.870729266504085  20.846053301570926 41.77602865085185  21.20948089368971 41.77602865085185  Z M 6.760831778628837 47.806566911676924  C 6.760831778628837 47.806566911676924  5.872818173723629 52.26803936081314  8.101781667158201 55.39080648737146  C 10.32817860313028 58.49821675733752  9.882926714765796 57.615151661919946  9.882926714765796 60.28997227006839  C 9.882926714765796 61.5493338335863  9.48365898093824 62.01774088033154  8.779963922374357 62.01774088033154  C 7.994307073415056 62.01774088033154  6.832466230663123 61.43670924501595  5.419820781588375 60.7302480004093  C 2.745620676917073 59.38896792127838  3.1960056802066297 57.615151661919946  2.745620676917073 53.15880580520832  C 2.305471349222158 48.69988519194365  4.084004007983943 50.03091208622542  6.760831778628837 47.806566911676924  Z M 31.719640642615 51.367042652250284  C 31.719640642615 51.367042652250284  32.17257692623927 58.05538919112505  29.48557458851092 58.948722751846105  C 27.4382866983163 59.63726766376179  25.38586569319672 60.58433494210141  23.73781498257424 60.58433494210141  C 23.241354161981324 60.58433494210141  22.775630922427702 60.497312754745295  22.363622064054073 60.28997227006839  C 20.5798646276007 59.38896792127838  20.126913066848644 58.49821675733752  20.126913066848644 58.49821675733752  C 22.806292117828253 57.16720514351007  25.9258357736305 58.49821675733752  28.152232709602576 55.82595562528778  C 30.381211480164847 53.15880580520832  29.933377757210145 54.04954168869485  31.719640642615 51.367042652250284  Z M 18.507002825547396 64.64137960673295  C 19.287572390964907 64.64137960673295  20.843502021236095 65.28386158909903  21.91575778684381 66.07734502106179  C 21.91575778684381 66.07734502106179  23.251605114703718 66.97577461329877  21.017508506344072 68.75474038576326  C 20.55170888115171 69.12587970053039  20.22161598179016 69.28713433497622  19.97849577072716 69.28713433497622  C 19.070026091760592 69.28713433497622  19.40273137996787 67.0372173201221  18.34579857349656 65.63709221140235  C 17.81096160798791 64.92806385046984  17.99013176227641 64.64137960673295  18.507002825547396 64.64137960673295  Z M 32.17257692623927 67.8690928935655  C 34.388768740872216 67.8690928935655  33.05547269334713 70.54136166584239  32.612756808189665 75.0002822791071  C 32.39265922865061 77.2246045329741  31.83735091195276 77.67255105138389  31.00050040789281 77.67255105138389  C 30.44522264545041 77.67255105138389  29.761907275309213 77.47290427545754  28.971147865680344 77.47290427545754  C 28.57704380103331 77.47290427545754  28.157335270272032 77.5240861572045  27.7095626558284 77.67255105138389  C 27.236063358248355 77.82870965431387  26.847107685654176 77.90292682094919  26.51953551237197 77.90292682094919  C 24.996894743474734 77.90292682094919  24.79981979545964 76.30314729607585  23.701990117993162 74.1018374064157  C 22.363622064054073 71.43725470266214  24.58488588510102 71.43725470266214  26.813834101407924 71.43725470266214  C 26.813834101407924 71.43725470266214  29.933377757210145 67.8690928935655  32.17257692623927 67.8690928935655  Z M 213.4944688273815 68.49621037911216  C 214.0088497188287 68.49621037911216  214.56417331265433 68.74450248136841  215.3318795365038 69.20779821614339  C 217.56600669911893 70.54136166584239  218.89924163813296 70.97907792008459  222.46666484827327 71.87750751232157  C 226.0289549434884 72.77592182410424  225.5861932269477 75.44564640073676  226.91689216275478 77.2246045329741  C 228.26302099759252 79.00357030543857  228.26302099759252 81.68607698211024  230.48685137610204 83.46760223067345  C 232.28842194351554 84.91124607329843  232.04792939842605 87.51951266265326  230.9525898927834 87.51951266265326  C 230.69156488799374 87.51951266265326  230.3819280626937 87.37363016525399  230.0389565446363 87.03319692344427  C 228.26302099759252 85.25421587052543  226.91948927447282 85.6919397649948  225.13579294653044 85.25421587052543  C 223.85627238869634 84.92402817333767  223.49539607691227 83.67493507512327  222.3899125584416 83.67493507512327  C 221.9624585239095 83.67493507512327  221.42259538337 83.86178447055613  220.67529940219876 84.36090523048588  C 218.00620185819704 86.13987100295034  218.00620185819704 86.5878098811331  218.45654103010327 88.81981820352335  C 218.79440998749118 90.51431362450327  217.83726737950312 91.95282323447653  216.77523201236227 91.95282323447653  C 216.44002127520355 91.95282323447653  216.09704975714612 91.81205204904751  215.7797743679695 91.494646451899  C 214.44394231723737 90.15595640977543  213.1054826005317 88.81981820352335  213.99858348897865 87.48624711359727  C 214.8840763678046 86.13987100295034  217.10787619205854 83.46760223067345  215.7797743679695 81.68607698211024  C 214.88920948272963 80.49584419393904  214.78941928424624 79.50527346214845  214.159879403796 79.50527346214845  C 213.84504835505984 79.50527346214845  213.39724518636064 79.75099080785174  212.65251576265197 80.3499464160854  C 211.17335369934008 81.53762736838522  209.48950867839207 81.7372588638573  208.5324271789151 81.7372588638573  C 208.05379476641008 81.7372588638573  207.75702128267812 81.68607698211024  207.75702128267812 81.68607698211024  C 207.75702128267812 79.45918761191736  206.4186226744835 79.45918761191736  207.75702128267812 76.77666565479134  C 209.0954198908728 74.1018374064157  207.319423235318 74.5472091682726  209.99108733678224 71.43725470266214  C 211.73384096234628 69.38952865937888  212.5297182097724 68.49621037911216  213.4944688273815 68.49621037911216  Z M 13.852061999174145 78.7143418660573  C 14.340868978762694 78.7143418660573  15.318391275173303 80.15284383580332  17.012487248843666 82.13147930487574  C 17.012487248843666 82.13147930487574  19.681661178484163 82.13147930487574  18.788499181526213 84.79861384450089  C 18.292038360933383 86.31649013421557  17.92867187732558 86.83353486706342  17.14561214008437 86.83353486706342  C 16.5416614486205 86.83353486706342  15.692085097142263 86.52894957108991  14.338302421300172 86.13987100295034  C 11.218789319753402 85.25421587052543  13.445140424342222 83.46760223067345  13.445140424342222 80.3499464160854  C 13.445140424342222 79.20067288572066  13.562911802190934 78.7143418660573  13.852061999174145 78.7143418660573  Z M 10.673655570139102 0  L 10.673655570139102 1.195357470539076  C 10.673655570139102 1.195357470539076  10.673655570139102 0  10.673655570139102 0  C 9.637194114856987 0  8.736439385405712 0.5631248529085731  7.9917557930803165 1.6714505858075994  C 6.29249615022943 4.233663795896792  6.051927219501144 6.798423111687168  6.021220192717331 7.507451472619677  C 6.021220192717331 7.507451472619677  5.207468705820087 10.343541995668257  5.207468705820087 10.343541995668257  C 3.042439992032289 14.24956993024882  1.6042511853543662 17.536158807578833  0.6906636685904483 22.62984859389122  C -0.0181950591539566 26.52051967187953  0.08410058828088252 29.886471408837423  0.16856782762789665 32.59200955028395  C 0.1942028479975335 33.40340931493766  0.21719492526599576 34.163638658185114  0.21719492526599576 34.88034162730017  C 0.21719492526599576 35.64568610263145  0.16091398662350206 36.45708586728516  0.1046177708532837 37.24545798727766  C -0.08477278190201945 39.87932697784675  -0.2741480575295695 42.600248716680596  2.0188113240628183 43.16591585517676  C 2.474314165149611 43.28622651227041  2.850528713197723 43.33742367447175  3.188336562074539 43.33742367447175  C 4.122364875772065 43.33742367447175  4.67001935146563 42.91507191704896  4.9694357782988465 42.55672234254822  C 5.749974789460911 41.619892968603445  5.831860194217592 40.03291082422361  5.261152532744496 36.89734631717175  C 5.261152532744496 36.89734631717175  5.158826331054178 36.329096781895394  5.158826331054178 36.329096781895394  C 4.485746636507562 32.64831802445555  4.485746636507562 32.64831802445555  5.407049102786745 30.528930470522027  C 5.407049102786745 30.528930470522027  5.634815800457866 30.00419966915088  5.634815800457866 30.00419966915088  C 5.634815800457866 30.00419966915088  5.76532830285276 29.697047256851477  5.76532830285276 29.697047256851477  C 6.0877826383377265 28.947074918566784  6.456282236870489 28.089581663454815  6.768485619633117 27.45479338983918  C 6.81453088268094 27.577655882804372  6.852937581852323 27.703089312209023  6.893895561358359 27.825951805174213  C 7.359618800911984 29.220946501355797  8.001976191547147 31.130457015195187  10.300022856681293 31.130457015195187  C 10.939798412726153 31.130457015195187  11.66915904591515 30.971758036734485  12.52900162724359 30.649229667274934  C 15.272330734997695 29.622814809761753  15.730461242058082 29.359169671026827  16.91016104715335 28.601511264218832  C 17.212144031449085 28.409531456247763  17.572974511849843 28.17660767092451  18.071971335649803 27.87201855483739  C 18.71179272307784 27.49318935143339  19.46929382558815 27.31401456418302  20.45709762897666 27.31401456418302  C 21.112196144157892 27.31401456418302  21.777545612061434 27.393365963470167  22.41732116810629 27.46759459044631  C 23.026420251622792 27.539263741323737  23.599633362047342 27.605810119890165  24.14215472281586 27.605810119890165  C 24.14215472281586 27.605810119890165  24.19078182045399 27.605810119890165  24.19078182045399 27.605810119890165  C 24.065371878728744 28.455613486365255  24.11406008487794 29.220946501355797  24.341765674038022 29.906947217627092  C 25.173483063172927 32.394922250456204  26.578413562732383 35.945152446407555  29.186142884549923 38.04406037143783  C 29.741466478375493 38.484328461551584  30.21487411318896 38.79660746627556  30.61152945817074 39.0576893087982  C 31.663344426844787 39.74622658048672  31.663344426844787 39.74622658048672  31.427862779658284 41.39976274366015  C 30.88537197314536 45.25714535191091  32.1674743655697 48.36713801865716  34.544855155125795 48.966093626890874  C 35.44568627021584 49.188783327932875  35.862812966386805 51.070112863891396  35.862812966386805 52.26803936081314  C 35.862812966386805 53.63745075634838  37.34704703611264 54.79697747156232  39.06169074661099 56.143345941982034  C 39.80121066975584 56.7218181011989  40.71996185570028 57.44365148285212  40.97843558015515 57.83015529443867  C 41.18573092663716 58.142434299162645  41.41601835038755 58.41887299827754  41.63614648418217 58.674843528829925  C 42.242633178853 59.391542677831396  42.27845804343399 59.4350461312823  41.48255024175235 60.43842952402068  C 40.24137527457847 61.984452410593995  40.533153137535166 63.213092620700245  40.81976733131133 63.80692927673653  C 41.3443533440977 64.90245380902843  42.64950892230158 65.58588740897385  44.22849173835227 65.58588740897385  C 44.568835590436045 65.58588740897385  44.911761277110216 65.55261421969064  45.252120406321765 65.48861967699575  C 45.18558851495693 65.58844688507256  45.11135695120456 65.69340068557396  45.024353708650615 65.80856946978871  C 44.087697728979585 67.05770076913893  44.31804626124095 68.34263417296246  44.48947091175871 69.28201538277878  C 44.67377418097226 70.29053300816891  44.74030607233698 70.84852935859611  44.15682673206242 71.58057008373552  C 43.54005853041372 72.34848167539268  43.01547251762738 72.64028487132698  42.45759764346698 72.95254859559661  C 41.58747355516069 73.43888725548712  40.5996850289 73.99177993417128  39.94197412487304 75.95758746184148  C 39.153796549834475 78.32012142503876  39.174267901023626 80.10422143015498  40.003434009823785 81.25862919317154  C 40.40525302398616 81.81661790337162  41.19081821017892 82.48211989017173  42.65719331756145 82.48211989017173  C 42.91053392709125 82.48211989017173  43.179258604268526 82.46165936183638  43.47355719330448 82.42071538448425  C 43.71925923895781 82.38231560277642  43.964854344716784 82.3720624179273  44.20546910682833 82.3720624179273  C 44.89384120625581 82.3720624179273  45.60014865366539 82.48211989017173  46.286000027013635 82.58708897112751  C 46.96160044763948 82.69457932704606  47.60134544942884 82.79439889489574  48.22321621174702 82.79439889489574  C 49.968505840518034 82.79439889489574  51.10219093682099 81.9292348517148  51.590982639281805 80.22708392312023  C 52.325400001757195 77.62646520115283  53.06501158766862 75.6606805941641  53.78664199421468 74.3834026979552  C 53.99138606036186 74.74688650510768  54.280612642983726 75.34838630898584  54.677267987965585 76.33898760168492  C 55.10209435652413 77.3986641881406  55.294005635358694 78.80135641318626  52.944750037996116 80.20916759042925  C 50.592958437426496 81.61441929157354  49.942901374403846 82.69970591947067  48.763155737925324 84.67575135153572  C 48.763155737925324 84.67575135153572  48.52516864178726 85.08019441649468  48.52516864178726 85.08019441649468  C 48.05431228730861 85.86088046796392  47.81634046829844 86.19362764125042  47.69856909044962 86.32416092228456  C 47.62694991554302 86.31903432985996  47.56552058484776 86.31649013421557  47.496437413148215 86.31392301788972  C 47.319849093450024 86.29858144175182  47.11513558155832 86.28833589712984  46.87198481623976 86.28833589712984  C 46.539371190799024 86.28833589712984  46.00450367103482 86.25762982417248  45.351925881932814 86.2217895185634  C 44.24638125495119 86.16292156829306  42.87470906251018 86.08868148097613  41.490280468395426 86.08868148097613  C 40.14674874527572 86.08868148097613  39.0693293104875 86.16033917151285  38.20181761102699 86.30367747326771  C 37.49036177156458 86.42400341081573  36.558869461074075 86.4342413152105  35.56851437735085 86.44446393915109  C 33.06314181147919 86.47262581646396  29.941016321086675 86.5110255981718  27.456222046298485 88.2874242543104  C 27.456222046298485 88.2874242543104  24.341765674038022 90.52199205279939  24.341765674038022 90.52199205279939  L 22.61951395391865 91.7582877705203  C 22.61951395391865 91.7582877705203  24.564445088167385 92.59018626464515  24.564445088167385 92.59018626464515  C 24.845941444146202 92.71048164128455  26.926472364331595 93.58844306495898  28.75621395532181 93.90840813820623  C 28.515645024593553 94.0901309412146  28.234179222870214 94.2949119497928  27.89889210007266 94.53294322697272  C 26.5502578162834 95.49794975868484  25.79787455157043 95.54912400020469  25.071126307227104 95.60033644286027  C 24.26498282995088 95.6540778007061  23.261840790298336 95.72320657605266  22.294508338098964 97.01069181574778  C 20.39818902436066 99.55497914286204  24.326412160646143 103.25625662977298  25.132525083666888 103.9703733819943  C 25.132525083666888 103.9703733819943  25.21444104267905 104.04205399321248  25.21444104267905 104.04205399321248  L 25.306546845902563 104.09837774783841  C 25.306546845902563 104.09837774783841  25.83372997040699 104.41833518085856  25.83372997040699 104.41833518085856  C 27.655802443265138 105.5138979142862  28.095967048087836 105.80054395688734  28.349307657617665 106.57355158006037  C 28.710122860890642 107.64604082746389  29.48557458851092 107.76124017258729  29.807998369740297 107.76124017258729  C 30.51175453681525 107.76124017258729  30.974926496034016 107.29795207803943  31.56607495444075 106.71177856984501  C 32.200686841305 106.0744155396763  33.073362209946026 105.20413254429796  34.42205760224625 104.62822750140703  C 35.18973327184022 104.29546504766614  36.236476234100174 104.12910674147729  37.52879902499144 104.12910674147729  C 39.24846891052051 104.12910674147729  40.932359762851775 104.43369203745078  41.69751470636636 104.59239483602504  C 41.93298107642508 105.05825004689869  42.38849919463965 106.31245445708345  42.117192682872165 108.74670723263466  C 41.843426553536396 111.19627102341525  41.6284620889223 111.51112478469223  41.11403536609181 112.26877555127311  C 40.82490044623638 112.69626154134765  40.46662124617036 113.22354417859037  40.00856712474883 114.1347482306394  C 38.583119442616976 116.99133748315916  38.383508491394835 118.4196015485103  40.12114427916154 120.73865497893823  C 40.67646787298711 121.4732628204035  40.699490504511054 121.6959601616727  40.74298448722422 122.09783611030578  C 40.791657416245606 122.54063311560955  40.85814347622715 123.14726715213943  41.34696573294348 124.12246574688335  C 42.058329909639454 125.54565670140018  43.27397679633782 126.36219833893279  44.68399457943906 126.36219833893279  C 45.766486020641274 126.36219833893279  46.905288954741565 125.89374545082455  48.061981405440676 124.96716926172893  C 48.5302864795846 124.59088807408294  48.73499999147631 124.57044282620194  48.73499999147631 124.57044282620194  C 48.85787392999462 124.68309033545373  49.198217782078366 125.4509331650664  49.40296184822566 125.90659631290825  C 49.533474350620445 126.20352610126714  49.67168652540282 126.50551372000618  49.81497070659929 126.79730927571332  C 50.122071528692345 127.40652570902334  50.475248168088825 128.0182786977506  50.83088442505349 128.62749513106064  C 51.503979396727864 129.78187233316848  52.13862183784768 130.87231611439873  52.39709556230255 131.90382318331427  C 52.91917612613744 133.99507560072993  52.87310030883405 135.54364268294768  52.56091220319917 135.94036911847465  C 52.5429921323448 135.96599444037048  52.52505678436262 135.98651609052305  52.40734651502486 135.98651609052305  C 52.28960569143172 135.98651609052305  52.07980489599814 135.960875488173  51.74454832745615 135.8328558418746  C 51.08683742342911 135.58974381363302  50.51101192415886 135.3593909647492  49.99411030663228 135.15201991916365  C 48.40238636603552 134.5223582379726  47.25331720208522 134.06415853471358  46.09150691358876 134.06415853471358  C 45.41080393229335 134.06415853471358  44.75819558893587 134.2254131691594  44.103051242371464 134.55305667070283  C 43.74741498540671 134.73221999761245  43.37116988310309 134.8678951515255  43.02062090968021 134.99845135324114  C 42.04552767658232 135.3593909647492  40.942580161318574 135.7663553046711  40.63292805889077 136.8772290533281  C 40.34632914224238 137.9138856353497  40.97843558015515 138.86608714634104  41.48511679921487 139.4931817112062  C 43.24582104988883 141.70473714548837  44.49970658735321 143.37875675767862  45.77415513877336 146.3427981649812  C 46.05051837982713 146.99296621587052  46.2885207530929 147.58166099902795  46.51121544435004 148.12689817009738  C 47.38382970448003 150.27445906168458  48.010833581723226 151.82554741886526  49.592321846725405 153.40999300782784  C 51.08427086596658 154.89204427238772  52.773310110350664 156.2665516994389  55.04578286362613 156.2665516994389  C 55.69322753780308 156.2665516994389  56.37388468771521 156.15139819567847  57.05720005785641 155.92358190221188  C 57.44869173365764 155.7955928168221  57.909358243924956 155.73416539045317  58.48005062827027 155.73416539045317  C 59.43206012133318 155.73416539045317  60.509433724738216 155.90819448471103  61.64822138171065 156.09505916059825  C 62.87659411582738 156.29729597353207  64.15101211299205 156.50463645820903  65.38192085031575 156.50463645820903  C 65.80421121566728 156.50463645820903  66.19056977654354 156.4789805754046  66.56168176392208 156.43295584699084  C 69.20523595032061 156.4380442382796  73.81923407431562 156.75804751266273  75.22164384779575 157.59761679485655  C 75.85371973145301 157.971300305268  76.51399719294258 158.24258949127685  77.15374219473185 158.50625373057972  C 78.97071210692049 159.25111475689414  80.53686213565854 159.89104490338863  81.37878464613254 162.70663669696606  C 82.19519435325886 165.435236864096  82.84263902743581 167.47783631495477  83.2316252542855 168.68086648361958  C 83.2316252542855 168.68086648361958  83.27250684815282 168.80118478094036  83.27250684815282 168.80118478094036  C 83.27250684815282 168.80118478094036  83.33651801343842 168.91380172928353  83.33651801343842 168.91380172928353  C 86.03125057780981 173.56210065317123  87.64087931213328 176.15248911097095  88.39841096889904 177.061171888057  C 89.03815597068838 177.8264934427069  89.90311638981413 178.4971220219316  90.82185229863073 179.20871749918993  C 92.52616867076793 180.52693173252385  94.28682709005861 181.89633548783192  94.8549834711969 183.96454498013202  C 95.89651693289308 187.82447942425426  100.45169811503847 195.26023882531504  103.87832731580603 196.78072043249142  C 105.20908736012417 197.37198233197472  106.92877252278096 197.88901178436822  108.59474330425789 198.39069966062385  C 110.58828625901695 198.99221474495624  112.84798733349078 199.67051411224995  113.63873146599187 200.30275819022117  C 115.60670050889233 201.87183164213724  116.40511375952542 203.0671910227331  116.2182744871049 204.1806166072616  C 115.82415514533007 206.53038375087402  115.49918008376586 209.85538005013902  117.23163692522428 211.5754855125603  C 117.55160108888546 211.8954123846718  117.92512686244906 212.57884598461723  118.28606428274415 213.23413298770402  C 119.08704409083977 214.69824499889148  119.91619492251225 216.21354653205313  121.42086978917169 216.21354653205313  C 121.91227388047831 216.21354653205313  122.38568151529175 216.0369197605608  122.82584612011442 215.6862791752648  C 123.22763458002127 215.36373934546447  123.58848033754977 215.0437971928987  123.92625763217116 214.74430028821394  C 124.61980867790687 214.12996490270646  125.27745847342284 213.54638907174652  125.67674148437817 213.54638907174652  C 125.7150870750385 213.54638907174652  125.75346321995431 213.55410570117846  125.79697247979519 213.56174592833875  C 125.7995084830022 213.60274338728107  125.84045118538053 213.99432030970203  125.86602509723923 214.2528503163532  C 125.92493370185525 214.838993263639  125.99658343101734 215.56594559748967  126.35226551936536 216.28007763016527  C 126.97160027847646 217.52152286099223  128.64527073234092 218.8346181421287  130.52872670451112 218.8346181421287  C 131.3809154448352 218.8346181421287  132.1869978136004 218.5530757712707  132.85240839001497 218.02062834046762  C 133.6226811713269 217.40123512458007  134.14473118090623 216.78691501952693  134.60023402199303 216.24681208110925  C 135.20673599379157 215.5301129321077  135.68527674353007 214.96186339683138  136.65262447285713 214.4729805412964  C 136.65262447285713 214.4729805412964  137.23098597533445 214.1786178692634  137.23098597533445 214.1786178692634  C 137.76840477543345 213.89707549840546  138.27505544023765 213.6334112591026  138.51563964809367 213.6334112591026  C 138.60525527949346 213.6334112591026  138.88928763867932 213.72043344645874  139.5418654277812 214.50627665126112  C 139.5418654277812 214.50627665126112  139.7082333490126 214.7033792315432  139.7082333490126 214.7033792315432  C 141.5737845274562 216.9328280778348  144.3939423106807 220.3038796664222  147.16283005316572 220.3038796664222  C 147.32149830200953 220.3038796664222  147.48529966577846 220.29104408479284  147.64396791462224 220.27058355645758  C 148.22996798097617 220.1835613691014  148.75201799055546 220.14774398417381  149.2229201764174 220.10932892201168  C 150.676477773615 219.99929437044867  152.04558340859344 219.89434821017448  153.33790619948473 218.6017134573734  C 153.5452168230944 218.38923874004468  153.73199498700393 218.1947338369971  153.90340436039392 218.01812234595909  C 154.78633068175722 217.09153087640908  155.05505535893454 216.8150768968399  156.36271638608986 216.6000503436397  C 157.16378785695213 216.46697286696119  157.83934244619468 216.21099469618167  158.43814474560574 215.983178402715  C 159.01400079913148 215.7656152940976  159.50787978513407 215.57876589866467  159.91223480250346 215.57876589866467  C 160.13735855707333 215.57876589866467  160.33700006255097 215.64019332503372  160.55964892242486 215.77330136262086  C 161.0920262703653 216.0906916793151  161.8161621258628 216.53348868461893  162.60440080941243 217.01981970428227  C 164.37019234362816 218.1051292528608  166.3739098654708 219.3388731347102  167.33361903092128 219.8175639272132  C 167.59461348145547 219.95064140389172  167.93749333674631 220.13749079932467  168.3341792359837 220.34996551665327  C 170.01808536544274 221.26627324044546  172.56438535656488 222.64597602196568  174.35831736010184 222.94539652437888  C 174.87266769729368 223.02989743677205  175.44336008163887 223.20140525606703  176.04989260769293 223.38312041884814  C 177.0530499244733 223.68773627573037  178.08945027124443 224.00000764022715  179.12328406055303 224.00000764022715  C 179.89618450783848 224.00000764022715  180.58964389080776 223.82081375240892  181.18597129552273 223.45991998226384  C 181.53908682640818 223.2449087095179  182.1532884705943 222.98124447021507  183.01308522053944 222.6689731057182  C 183.01308522053944 222.6689731057182  185.35986592320606 221.81152569196922  185.35986592320606 221.81152569196922  L 183.2229929558672 220.51889093916813  C 183.2229929558672 220.51889093916813  183.14617955752456 220.47532636389994  183.14617955752456 220.47532636389994  C 183.2306926282548 219.1545908556031  183.3560567385968 216.29036137592308  183.0950317338071 213.94060951276495  C 182.93385803601186 212.4841530091922  183.03361768023962 212.42782925456626  184.26195986010086 211.74441093507517  C 184.72516237357522 211.48329853164387  185.30098787284552 211.1633869399867  185.9483714385114 210.7000530040759  C 188.15182212859827 209.1284429967427  189.00398031466688 208.87759905861492  191.41208340813444 208.58066927025604  C 193.761339005497 208.28118764602553  194.88992154113043 206.77867585313032  195.98770538721354 205.32223463001174  C 196.43043654949875 204.7283903337483  196.89360850871765 204.11666790592966  197.4592288866489 203.55095492607063  C 199.2378532081772 201.77200443406042  198.84113675468438 200.011008475877  198.49309323021293 198.45726131964463  C 198.32418930577452 197.70476006616983  198.1475551546931 196.92660292989072  198.1475551546931 196.0256062213278  C 198.1475551546931 195.9615963981786  198.15015226641108 195.90782447942428  198.15274937812913 195.85411368248717  C 198.2141328774411 195.88224499889154  198.27554693100862 195.91295871207603  198.33442498136918 195.9436418643519  C 198.95122373727327 196.23808093865648  199.71889940686722 196.60922789365083  200.66834234246758 196.84469969473201  C 201.0393321128242 196.93939267015708  201.4027749820707 196.98804563671402  201.75084906079758 196.98804563671402  C 205.0314900287564 196.98804563671402  206.0040319815196 193.14857172092707  206.4697704982009 191.3030442894418  C 206.7385562838892 190.2203171376435  206.81008379602923 189.25787772225726  206.87925863049534 188.33130153316165  C 206.9892233960623 186.83899708375253  207.0941772637261 185.42607459453927  208.04105364186398 183.5216868530109  C 208.50175070638684 182.60281201289288  209.0390778437193 181.24618271739683  208.41470163244963 180.09432679025187  C 207.7518881677531 178.8759397649948  206.3162353642821 178.71471569145766  205.0545890459191 178.57392158534716  C 204.75775445367614 178.5406560362911  204.45832274971514 178.50992704265224  204.17425983627376 178.45870695976942  C 201.97349792067146 178.10038030595018  199.3708253281403 177.39135194501762  197.0267333999582 176.5159499974419  C 196.09268980913296 176.1652788512373  195.79319699666092 175.38201804321506  195.38383108138854 174.13546914064503  C 195.04089011758666 173.09626072275182  194.65447044819953 171.91881003461975  193.5540894903983 171.25585224346403  C 193.1957491818213 171.0408868120811  192.36152634373485 170.54686972389447  193.70249150939202 167.4061557037366  C 194.5187789994963 165.50436563944268  193.72809597550625 163.8252423555093  193.02687581163838 162.34319109094943  C 192.61488223039245 161.467804423828  192.2258348950317 160.64357671777205  192.1158090209538 159.76819005065062  C 191.87785247907132 157.835625151355  191.96227388703508 157.54382959564785  195.29421544998877 155.21456882173368  C 197.44126298441122 153.71204174838414  198.20386664759104 152.8059413680782  198.8795128996002 152.00729314255508  C 199.30433926815874 151.50051687501062  199.6754207012818 151.06537537732146  200.38935143544023 150.46642740931492  C 201.9657676940284 149.1533168477241  202.49548682173977 146.83427869775053  202.89987239336466 144.56899718607707  C 202.89987239336466 144.56899718607707  203.01756738557464 143.93161887545406  203.01756738557464 143.93161887545406  C 203.01756738557464 143.93161887545406  202.54159319329867 143.4862241929157  202.54159319329867 143.4862241929157  C 202.37265871460474 143.33011907157592  202.06051644035318 142.8105072224022  201.6971041253622 142.21152869348705  C 200.45333204647028 140.1331118577008  198.27554693100862 139.58788996708563  196.3562202628742 139.10411078329386  C 195.63712585953513 138.92494745638416  194.96147960752606 138.7534549175435  194.3856846625112 138.5230715077511  C 193.4849452101877 138.1647295734775  192.18492274690885 136.7134073025564  191.65260650747945 134.99330184013513  C 191.41208340813444 134.22286133328785  191.24577659541404 133.12477732489722  191.81130531057875 132.27238774152838  C 193.4799037580292 129.7716802701366  194.95384104364945 128.79643583402972  197.06514009912956 128.79643583402972  C 200.3049300274766 128.79643583402972  204.34829687563723 126.66936603168654  204.9112590333394 123.82044756723568  C 205.2337286459521 122.25141995668264  206.4006567722458 121.59102928185278  208.2790712922575 120.64903511434756  C 208.2790712922575 120.64903511434756  208.73970724826933 120.42123410133533  208.73970724826933 120.42123410133533  C 212.73959539084467 118.44265975408015  216.50394077772256 116.24135750464723  216.9594741730648 113.53321786585263  C 217.3740037575178 111.0503732455617  216.4809028690708 107.79193860531743  215.8872642388404 105.63160325391823  C 215.77461069878893 105.22975786619368  215.67992306097514 104.8714159319201  215.60576788286158 104.57702269897845  C 215.19377430161566 102.92604601190374  215.19377430161566 96.9979020754814  215.19377430161566 95.05256271637359  C 215.19377430161566 94.60209492300079  215.23465589548292 94.0901309412146  215.27306259465428 93.56284066374475  C 215.29606994905052 93.2684932721661  215.31913841195765 92.97413060013308  215.33444609396633 92.67721609222843  C 215.77216635834844 92.9869356208537  216.263387124122 93.1507497313983  216.77523201236227 93.1507497313983  C 217.55574046926884 93.1507497313983  218.2902036631274 92.7744838242066  218.84812436867105 92.09617681668577  C 219.59276212961325 91.18494984395522  219.88712182716023 89.87183164213727  219.62863282557757 88.58433876221503  C 219.25498483499194 86.74393792315436  219.25498483499194 86.74393792315436  221.33814342115082 85.35662547538246  C 222.013728564649 84.90611948087383  222.31566571756144 84.87027917526471  222.3899125584416 84.87027917526471  C 222.49483587184994 84.87027917526471  222.6662452452399 85.02130354554296  222.94270014906022 85.27213984344354  C 223.3598268452312 85.65610709961285  223.93806613068645 86.18081498030256  224.8414332489835 86.41119074986787  C 225.4172893025093 86.55196957552401  225.93936986634415 86.61595647799172  226.3948421531755 86.66714599996592  C 227.48504854389301 86.80026931800742  228.20157638976957 86.88470910858327  229.19452858521078 87.8753180415096  C 229.7497910705254 88.43331439193679  230.3383576943418 88.71743915957505  230.9525898927834 88.71743915957505  C 231.79197640005043 88.71743915957505  232.50605990548644 88.15941988846637  232.82330474040748 87.26611688865394  C 233.28134358470132 85.95558108361612  232.88212168225704 83.85411368248714  231.23414735727332 82.53586888824469  C 230.1464464155072 81.66562409400208  229.69601558083443 80.48305445367255  229.2226385002765 79.23137895867804  C 228.87202841834255 78.30477984890088  228.50608010014452 77.3474746661664  227.87149876753574 76.50536118832817  C 227.55926483051763 76.09068785920151  227.3519847611634 75.54291413271483  227.13190245875208 74.96187485717213  C 226.57657886492652 73.49264389378719  225.81651120495368 71.48587710831046  222.7557692138731 70.71799607756195  C 219.27032307125612 69.84001937343315  218.03183687856676 69.42536896498798  215.94357573173843 68.17881242219077  C 215.0658130795556 67.64897030884936  214.31341453771478 67.29829152241759  213.49703538484403 67.29829152241759  C 211.94365703490757 67.29829152241759  210.92769748507004 68.49366618346778  209.08002054609767 70.6616799631632  C 207.36549905262137 72.65820120401796  207.20673914101104 73.49777048621179  207.15821898326718 74.54978392482559  C 207.1402530810295 74.99003673448502  207.12237884155834 75.37654818629882  206.68725568889423 76.24171222947963  C 205.69436460196394 78.23055504203832  205.9067777862432 79.2083513140168  206.28296178003586 80.27828108532157  C 206.4338998022366 80.70318467861588  206.5619221328077 81.06666084554121  206.5619221328077 81.68607698211024  C 206.5619221328077 81.68607698211024  206.5619221328077 82.69970591947067  206.5619221328077 82.69970591947067  C 206.5619221328077 82.69970591947067  207.5599157804075 82.86607950611392  207.5599157804075 82.86607950611392  C 207.60085848278584 82.87375793441002  207.97203157867543 82.93007404880875  208.5324271789151 82.93007404880875  C 209.58166031299885 82.93007404880875  211.61357941267377 82.71506277606291  213.39981174382314 81.28165683783277  C 213.61732748877196 81.10760482289342  213.78623141321037 80.98218285382951  213.91413152675943 80.8951453860191  C 213.91413152675943 80.8951453860191  213.95259933444177 80.96682599723728  213.95259933444177 80.96682599723728  C 214.14448005902085 81.34051714787589  214.4132352904536 81.85245056875348  214.82266231423702 82.4002319354674  C 215.47270410013192 83.27306676671722  214.11884503865113 85.21072005730171  213.3946480746426 86.249936115422  C 213.2463071641599 86.45982079574334  213.1131822729193 86.65180442382794  213.00058984137888 86.82329696266866  C 212.71906293114446 87.24563343963709  212.56812490894373 87.66029912853664  212.5193908714113 88.06472691304121  C 211.86180218440634 88.05704848474508  211.2680718914094 88.0135373910671  210.6948435038572 87.96745154083602  C 210.05250139034976 87.91882913518768  209.42552806736202 87.87018380885786  208.73203813013734 87.87018380885786  C 207.9080204133899 87.87018380885786  207.0891358115676 87.93928966352304  206.22665028713786 88.08265088595942  C 202.56200343597683 88.69183675836072  199.6754207012818 89.8257763528148  197.6460681590694 91.45113535822091  C 196.88343394163405 92.0603441513038  196.17973888307023 92.99204693282395  195.4349483508505 93.9826100243873  C 193.88926967330164 96.03035898835205  192.13881637535 98.34685294268124  189.56190102021054 98.34685294268124  C 189.42620957150737 98.34685294268124  189.28547667064578 98.3391745143851  189.1448048782951 98.3288984088545  C 185.5236367327194 97.99104756382488  183.52236355131717 95.70017893139143  182.19933373364222 94.1822873612224  C 181.9050656988617 93.85209966403464  181.6465461430236 93.55516987567574  181.4111867128591 93.31969043436743  C 179.7706981804744 91.67895929191471  172.7614297503245 88.98108047819636  169.6034641182232 88.52290369561884  C 167.60481860279455 88.2362347323362  165.95424716609287 87.06903722905334  164.3624926712406 85.93767239115236  C 163.7457244695919 85.50251561300885  163.10857657952062 85.05203253918171  162.46877046922026 84.6680652830124  C 162.02099785477654 84.39931265242083  158.00821581637757 82.05210498490717  155.0857318314628 82.05210498490717  C 153.5937980893493 82.05210498490717  152.81582563564982 82.67665535412794  152.42683940880008 83.20138615549904  C 151.9739031251758 83.80035704418718  150.85305081618546 84.28413622797893  149.76800809464845 84.75766222692155  C 148.97979996535437 85.0980954687314  148.1761924912852 85.44619949861013  147.49556589562854 85.8967131333459  C 147.4238550579554 85.75593430768964  147.3394336499917 85.61770731790511  147.24981801859195 85.47692085202175  C 146.10333068923188 83.7619496222522  146.2748011711328 83.11947528011324  146.30037508299154 83.05294418200114  C 146.30810530963464 83.0196633524908  146.3464509002949 82.91471719221651  146.63060547650278 82.81999365588284  C 147.40845571318025 82.55635997748865  147.88705757142975 81.9369362006924  147.9074983683634 81.15622722854175  C 147.95357418566678 79.56926800484337  145.9268187551724 77.76723638658183  144.0253968807646 77.0044819482579  C 143.63641065391485 76.85345757797978  143.26022666012219 76.6794055630404  142.89430889617964 76.5155914524959  C 141.75799613390316 75.99856200010232  140.5833988894774 75.46869696607948  139.2757073080665 75.46869696607948  C 138.49260173944197 75.46869696607948  137.75303598491388 75.65299452564084  137.02370590598025 76.03436410457557  C 135.70061497979418 76.06508545798728  131.22218608748037 76.29803598410558  129.3643345814244 78.1563149547214  C 128.06177611493857 79.47199263263809  124.84749898993925 81.29701369442502  122.55974910891075 81.29701369442502  C 122.09141348051138 81.29701369442502  121.69478868978501 81.22022941146373  121.3824936442559 81.06152661288948  C 121.23919418593175 80.9898536418985  120.91162201264947 80.80298896601118  120.9295573606316 80.64174961201968  C 121.00120708979372 80.11957828674731  122.12212050729505 79.08292170472566  123.31205598798495 78.84488278731858  C 123.31205598798495 78.84488278731858  123.84180566995195 78.74503265856029  123.84180566995195 78.74503265856029  C 126.20646061208964 78.29199774886165  129.77635871692584 77.60854886846194  131.6905522701353 74.25544417347407  C 133.29504788953372 71.45516339512594  134.07561745495116 68.05083861725532  134.07561745495116 63.85557460306632  C 134.07561745495116 61.71314030390367  134.29056664243745 60.47684458618279  134.5848652314734 58.766984668383444  C 134.7025907779389 58.08354342821086  134.83055199999896 57.3387053225779  134.96104922526604 56.450498354281436  C 135.08390788665656 55.59302801985095  135.16579329141325 54.361835973873156  134.4825084755276 53.504350358988354  C 133.84276347373822 52.705732694373864  132.91632789253399 52.628948411412594  132.23564018836635 52.575191773112536  C 131.9516078291805 52.552164128451324  131.68028604028518 52.529113563108616  131.48580820398809 52.46258246499651  C 130.94582284642658 52.28852280982997  130.22159532816252 52.11190367856473  129.53067194840028 51.96087166805942  C 130.14490414684195 51.11364687825093  130.72833765573327 49.946441734740866  130.94845051240011 48.4234388526016  C 131.42442470467606 45.10102495011682  130.97662153597685 42.600248716680596  129.45899166498268 40.05849794498354  C 127.99516783793497 37.62427573034091  125.19560362292172 35.745490390026774  125.08047518817426 35.666154271193946  C 125.08047518817426 35.666154271193946  123.2199960161447 34.429831812678  123.2199960161447 34.429831812678  C 123.2199960161447 34.429831812678  123.2199960161447 36.6618592356362  123.2199960161447 36.6618592356362  C 123.2199960161447 36.692565308593544  123.1201141548949 39.92540518785067  121.74593651350243 39.92540518785067  C 119.37361245323264 39.92540518785067  117.46458256920376 39.16262018861811  115.90353510113525 37.59868860958098  C 113.98423898725625 35.67894401146035  112.05461553501615 35.13117792520081  109.13466755330832 34.291616283234134  C 109.13466755330832 34.291616283234134  108.70736629005377 34.17132090659481  108.70736629005377 34.17132090659481  C 106.34784446284111 33.50068850725651  102.55270038641304 31.435049951395875  101.09914278921538 30.618523594317583  C 101.09914278921538 30.618523594317583  101.09914278921538 28.194524003615463  101.09914278921538 28.194524003615463  L 101.09914278921538 26.113532411276154  C 101.09914278921538 26.113532411276154  99.30521078567841 27.16043835803332  99.30521078567841 27.16043835803332  C 99.08259248006013 27.290990739635383  93.8466930394915 30.34463673107423  91.58191995860356 32.16455412111807  C 90.5173180340002 33.01436512782033  89.76238348895241 34.07661265071542  89.15591207140936 34.926412197076935  C 89.0919620146349 35.01343820454662  89.02532318337575 35.11069447618398  88.95627056593169 35.20540655217695  C 88.58011712639461 34.15084127769156  88.28581853735867 32.579208349676826  88.17062899410014 31.61166526254754  C 88.17062899410014 31.61166526254754  88.03753465711503 30.562211300032395  88.03753465711503 30.562211300032395  C 88.03753465711503 30.562211300032395  86.98066295915478 30.562211300032395  86.98066295915478 30.562211300032395  C 86.85010462537663 30.562211300032395  83.71529911894902 30.598051605641487  81.15873289797678 33.667065914013335  C 79.9456678458686 35.12861462898852  78.52541438717277 36.03217463376367  77.45317389869284 36.03217463376367  C 77.06932078676815 36.03217463376367  76.49349528749784 35.93747401811143  75.94073825113473 35.11069447618398  C 75.20370849981364 34.00493967972441  75.26001999271156 33.139775636543476  75.31633148560954 32.22598154748709  C 75.37777609343256 31.294267305626132  75.45452838326419 30.12451032624452  74.4539070696909 29.126249705817155  C 73.00548258741829 27.669800842471478  70.031789670275 26.103302147108483  66.93016608532716 26.103302147108483  C 64.55023401543632 26.103302147108483  60.125550058558005 26.103302147108483  58.17554691789518 24.9386602998107  C 57.82490628170574 24.72621232327712  57.50500322655564 24.52399079079762  57.208199188568116 24.339704691576983  C 55.55246408268588 23.297925337244408  54.357334378559884 22.542822586421543  51.77522479998439 22.542822586421543  C 51.77522479998439 22.542822586421543  40.63040733281151 22.542822586421543  40.63040733281151 22.542822586421543  C 40.05455127928567 22.542822586421543  39.33038486953267 22.67337496802361  38.49102891652115 22.821836042089465  C 37.46220602511557 23.008685437522384  36.300426290874675 23.216014461858563  35.25377499138126 23.216014461858563  C 34.17125299592346 23.216014461858563  33.470017554927885 22.99844753312754  33.10921762878258 22.545385882633838  C 32.27750023964767 21.513863533263983  31.174522170128455 20.971204938861128  29.915472963483467 20.971204938861128  C 28.40306787018084 20.971204938861128  27.179812973861427 21.759573238740046  27.04676446825957 21.84659924620973  C 27.04676446825957 21.84659924620973  26.885483830569996 21.951553046711112  26.885483830569996 21.951553046711112  C 26.885483830569996 21.951553046711112  26.767773561232236 22.107684908845943  26.767773561232236 22.107684908845943  C 26.731948696651244 22.14863652642529  26.05379699569057 23.026609410440507  25.40121920658857 24.250111567781435  C 25.40121920658857 24.250111567781435  12.590430957938826 23.876401316574853  12.590430957938826 23.876401316574853  C 11.77916964286534 23.87384566058973  10.031298179504022 23.594855125603296  9.614202037588525 22.757845319508167  C 9.296880817028633 22.117926633354358  9.296880817028633 21.66998011494449  9.296880817028633 20.78178460698877  C 9.296880817028633 19.81168204376077  9.296880817028633 18.480662789706166  8.828529911501528 16.34336272319526  C 7.730669679779572 11.444193120384739  8.467714708228554 11.057677848457459  8.475383826360531 11.052566536487202  C 8.55216667044776 11.026964135272951  8.662192544525643 11.011611098794283  8.802955999642847 11.011611098794283  C 9.005133508327505 11.011611098794283  9.212383023426254 11.03464638368265  9.42481148483322 11.057677848457459  C 9.721691908459478 11.08327642955813  10.023629061371931 11.111434486757508  10.32817860313028 11.111434486757508  C 11.740824052205026 11.111434486757508  12.80536486829736 10.486880297423136  13.580786041662162 9.194260825076316  C 13.954449309375446 8.569702815628357  14.704250739498193 7.947711922506267  15.361885257886469 7.402505312345447  C 16.43675341233996 6.506635196207173  17.452682407921866 5.661939321588758  17.314500787394966 4.4409928202329585  C 17.22749754484105 3.69357231781981  16.707998815596383 3.0715795146409226  15.768837386973898 2.5980477855279056  C 15.12134688141369 2.2780903525077987  14.517442021333164 1.8608670975663864  13.93651396139335 1.4538798369630097  C 12.85400724306327 0.7064631546634378  11.835465858635558 0  10.673655570139102 0  Z M 143.9332452461578 93.24545034705051  C 144.0509402383678 92.134553677712  144.16869633908883 91.27965045960741  144.2710530950346 90.97249804730802  C 144.317128912338 90.93409062537306  144.54228322116336 90.80610918021041  144.79566966207653 90.66789747088015  C 144.48597172826547 91.55864099459383  144.18149857214587 92.47500984020334  143.9332452461578 93.24545034705051  Z M 21.211971065513467 40.58322874635469  C 21.211971065513467 40.58322874635469  21.20948089368971 40.58322874635469  21.20948089368971 40.58322874635469  C 20.725791751898427 40.58322874635469  20.190924232134215 40.688182546856076  19.453879203685318 40.83407268448249  C 17.17118605194305 41.294816583385916  17.122528400049358 41.3076063236523  14.40737031587202 42.20861831266948  C 13.81625241172085 42.40572089295155  13.43747130621013 42.42874853761277  13.204602047869528 42.42874853761277  C 13.022941721757242 42.42874853761277  12.866809476120407 42.41081692446748  12.728612578465725 42.400594300526976  C 12.546936975225744 42.38524508416188  12.383135611456904 42.374991899312725  12.227033920075547 42.374991899312725  C 10.975638554434926 42.374991899312725  10.218152729052308 43.14288057028838  9.332736235865186 44.46878851237274  C 9.332736235865186 44.46878851237274  9.263622509910164 44.57117519654825  9.263622509910164 44.57117519654825  C 9.263622509910164 44.57117519654825  9.2175161383513 44.68890345686171  9.2175161383513 44.68890345686171  C 9.17147087530339 44.801543325886385  8.145290926999065 47.46100707744257  9.703756560477297 50.568424987635794  C 10.939798412726153 53.04104698398622  13.731769895246083 53.427558435799924  16.43157446603163 53.801272507120075  C 17.41685754334079 53.93949949690469  18.43796548523111 54.077703566007806  19.395031707580298 54.31830959974078  C 20.024617419413804 54.477020038542214  20.554321269997494 54.553789041049164  21.017508506344072 54.553789041049164  C 23.30791660760172 54.553789041049164  23.758301610891163 52.76460828487133  24.11913209129192 51.32864287054249  C 24.282918177933063 50.68103429575183  24.469696341842585 49.94899357061241  24.79981979545964 49.170859355014755  C 25.987265104325736 46.39108494636492  25.997500779920347 45.77421300544025  24.868933521414665 44.10531234544741  C 24.702626708694257 43.85702788341832  24.502985203216646 43.5626652113853  24.275203228417713 43.18383982809489  C 23.272061188765136 41.50726838003308  22.719319429529815 40.58322874635469  21.20948089368971 40.58322874635469  C 21.20948089368971 40.58322874635469  21.211971065513467 40.58322874635469  21.211971065513467 40.58322874635469  Z M 8.575189301971614 44.74266773538892  C 8.575189301971614 44.74266773538892  5.995646280858651 46.885109674778725  5.995646280858651 46.885109674778725  C 5.27144931685015 47.489161314528374  4.613707858567629 47.79121769531183  4.037943467808337 48.05742613025905  C 2.305471349222158 48.85347667854768  1.197344887650195 49.64950430615482  1.5556240877161533 53.276526425294605  C 1.6375094924728346 54.0751440899091  1.6887184247012665 54.79185851936491  1.737314968083888 55.42921390930641  C 1.9496975981076818 58.41887299827754  2.0904610532248857 60.397470266214164  4.8824019814893385 61.80017777171411  C 6.4613847975400285 62.58854225147944  7.707677602511194 63.213092620700245  8.779963922374357 63.213092620700245  C 9.470917856392086 63.213092620700245  11.077980033253025 62.928975493289215  11.077980033253025 60.28997227006839  C 11.077980033253025 59.85484605283354  11.093302992389425 59.5169646468953  11.098497215825425 59.24308542387912  C 11.159865438009705 57.589541620478535  10.952631200038768 57.30286501696881  9.614202037588525 55.44967443764176  C 9.614202037588525 55.44967443764176  9.071650122564527 54.69458314715964  9.071650122564527 54.69458314715964  C 7.1830304812137875 52.045349659771134  7.9277446277947465 48.07789429882156  7.935444300182317 48.03949451711377  C 7.935444300182317 48.03949451711377  8.575189301971614 44.74266773538892  8.575189301971614 44.74266773538892  Z M 32.67415558462945 47.77840503436397  C 32.67415558462945 47.77840503436397  30.724137166838926 50.70410014154885  30.724137166838926 50.70410014154885  C 29.62630748937256 52.355061548169246  29.42923254135744 52.57008046114228  28.853437596342587 53.202316898886366  C 28.510542463923983 53.578575165850914  28.047324673321928 54.09050858672851  27.233512077913613 55.060618790183675  C 26.209913964199618 56.29179555570714  24.94574691975737 56.40954673670208  23.343710917927204 56.563130583078944  C 22.176767514505705 56.673195695550596  20.858855534627974 56.79862530484165  19.594642658802435 57.43085410235858  C 19.594642658802435 57.43085410235858  18.514748329318223 57.96838228422327  18.514748329318223 57.96838228422327  C 18.514748329318223 57.96838228422327  19.05980569329379 59.040871531626784  19.05980569329379 59.040871531626784  C 19.16726500990915 59.24818909562222  19.791687052562132 60.33348336374644  21.82617270969956 61.357350205501646  C 22.38403230673223 61.63891549704112  23.028971531957616 61.78225379879598  23.73781498257424 61.78225379879598  C 25.196505694696867 61.78225379879598  26.75243532496814 61.20889295154936  28.40306787018084 60.604810750891076  C 28.886695903461142 60.42821454030731  29.37802360912901 60.24902065248904  29.86684586584534 60.08265470607295  C 33.25766547915957 58.95128986817197  32.99922230896017 52.55727544042158  32.912188512150664 51.28769125296314  C 32.912188512150664 51.28769125296314  32.67415558462945 47.77840503436397  32.67415558462945 47.77840503436397  Z M 18.507002825547396 63.44602786636424  C 17.511591012537867 63.44602786636424  17.109787275503265 64.03729740607467  16.981826053443196 64.29069318007402  C 16.67730706594044 64.89477538073231  16.81548868646731 65.58844688507256  17.388701796891887 66.35634319627539  C 17.736760598490985 66.8170870951788  17.890295732409765 67.51842174736088  18.028477352936637 68.13785316438425  C 18.220449740282273 69.01325511196002  18.54290407576721 70.48506083189795  19.97849577072716 70.48506083189795  C 20.531298638473555 70.48506083189795  21.08148911737416 70.23677636986885  21.76727938221134 69.68645080751061  C 22.95727597141229 68.7368240530723  23.545903703739672 67.75903542132102  23.50496100136133 66.78380626566843  C 23.46400302185521 65.72924099118305  22.729570382252096 65.1840191005679  22.583689089337657 65.08675900881697  C 21.53445595525391 64.30861715299213  19.720037323399982 63.44602786636424  18.507002825547396 63.44602786636424  Z M 32.17257692623927 66.67373351296962  C 29.88983794311372 66.67373351296962  27.317994594388324 69.13869236147825  26.28411497369643 70.2418876818391  C 24.702626708694257 70.25469270255982  23.154381473682857 70.37242860310043  22.42502084049386 71.55500588365707  C 21.687991089172662 72.75546893599602  22.39938582012411 74.1735180176339  22.63486746731061 74.63936558828041  C 22.88823863109592 75.1487471732865  23.09295214298762 75.62740740488087  23.2771790265624 76.05742995037265  C 23.91695458260726 77.55479223016185  24.579798601559233 79.10083803741664  26.51953551237197 79.10083803741664  C 26.985319860436555 79.10083803741664  27.497134194421317 79.00357030543857  28.088282652827964 78.8064677251565  C 28.364661171009548 78.7143418660573  28.656408479710755 78.66825601582622  28.971147865680344 78.66825601582622  C 29.311522272019683 78.66825601582622  29.65446323582155 78.71943789757319  29.987137969773322 78.76809086413014  C 30.353055733715863 78.8243916980746  30.69598142038994 78.87046226785132  31.00050040789281 78.87046226785132  C 33.43425379885777 78.87046226785132  33.69269696905725 76.24171222947963  33.80278395164609 75.11802581987479  C 33.92301494706311 73.91242089465698  34.10982366522823 72.83482033528318  34.276161032204115 71.88773777648925  C 34.64212462752983 69.80420198850555  34.8800811694123 68.42710452444702  34.06119656759002 67.4493235329229  C 33.62616507769242 66.93226351962072  32.994028085524086 66.67373351296962  32.17257692623927 66.67373351296962  Z M 13.852061999174145 77.5189824854614  C 12.247505271264744 77.5189824854614  12.247505271264744 79.50015450995106  12.247505271264744 80.3499464160854  C 12.247505271264744 81.23815338438183  12.022320408183843 82.0393152446408  11.822663625578421 82.748328325119  C 11.415787882129841 84.1919721677439  10.799065511864427 86.37791756058463  14.00813313629994 87.29171164964106  C 14.00813313629994 87.29171164964106  14.837314522227828 87.53233296382835  14.837314522227828 87.53233296382835  C 15.80466225155489 87.81898664665653  16.5032241951937 88.02888660743221  17.14561214008437 88.02888660743221  C 18.98554357528591 88.02888660743221  19.551148676089355 86.30881934614658  19.924781389547245 85.16976079949522  C 20.421242210140075 83.69027665126114  20.060442283994885 82.72786779678364  19.668920053938095 82.18266118662282  C 19.095569449363797 81.38659535787984  18.210168233304397 81.0999263945973  17.613947768483772 80.99498787455026  C 17.26587368975687 80.57775506932484  16.948567746324642 80.19380309360989  16.66959211642509 79.84315486808667  C 15.361885257886469 78.24847901495643  14.768200796272774 77.5189824854614  13.852061999174145 77.5189824854614  Z " fill-rule="nonzero" fill="#efebdf" stroke="none" transform="matrix(1 0 0 1 2932 30 )" />
  </g>
</svg>