<?xml version="1.0" encoding="utf-8"?>
<svg version="1.1" xmlns:xlink="http://www.w3.org/1999/xlink" width="10px" height="19px" xmlns="http://www.w3.org/2000/svg">
  <g transform="matrix(1 0 0 1 -3000 -136 )">
    <path d="M 9.78560136222574 5.015639110959069  C 9.78560136222574 5.015639110959069  7.822844184349912 5.015639110959069  7.822844184349912 5.015639110959069  C 7.664909551563729 3.1241619242728698  6.847051860479498 1.6895579197126396  4.811071882413048 1.6895579197126396  C 3.1754039755850147 1.6895579197126396  2.1206285102080487 2.715031106389423  2.1206285102080487 4.123032066768301  C 2.1206285102080487 8.293895944831569  10 8.352312323999193  10 14.28718388509349  C 10 17.23602213265312  8.206444935726301 19  4.974513654699159 19  C 1.9007227329338607 19  0.05079861435303197 16.874700764301526  0 13.777119522446894  C 0 13.777119522446894  1.9571550876948371 13.777119522446894  1.9571550876948371 13.777119522446894  C 2.0079220518208873 15.95016857630893  3.096420834078462 17.310427172445287  5.1890547184950275 17.310427172445287  C 6.954251179366643 17.310427172445287  8.099277267066169 16.237114720552498  8.099277267066169 14.260595748754215  C 8.099277267066169 10.068525465340445  0.21984247682022395 9.574397585871132  0.21984247682022395 4.298340835639472  C 0.21984247682022395 1.6895579197126396  2.1206285102080487 0  4.940821988045739 0  C 7.766411829588847 0  9.622096289485636 1.7905436419230487  9.78560136222574 5.015639110959069  Z " fill-rule="nonzero" fill="#efebdf" stroke="none" transform="matrix(1 0 0 1 3000 136 )" />
  </g>
</svg>