<?xml version="1.0" encoding="utf-8"?>
<svg version="1.1" xmlns:xlink="http://www.w3.org/1999/xlink" width="8px" height="14px" xmlns="http://www.w3.org/2000/svg">
  <g transform="matrix(1 0 0 1 -3013 -141 )">
    <path d="M 7.952308476632418 4.250593078877334  C 7.952308476632418 4.250593078877334  6.164471750140449 4.250593078877334  6.164471750140449 4.250593078877334  C 5.984110268041516 2.227526623849966  5.18838821554961 1.5550280148895148  4.063722662776722 1.5550280148895148  C 2.5039240567564853 1.5550280148895148  1.8409017329855484 2.5395950241760517  1.8409017329855484 6.994640723599363  C 1.8409017329855484 11.460397427547328  2.5039240567564853 12.450406744277327  4.063722662776722 12.450406744277327  C 5.241482992032779 12.450406744277327  5.904639280757023 11.82089557067128  6.206953525324958 9.491150184824946  C 6.206953525324958 9.491150184824946  8.000000000000028 9.491150184824946  8.000000000000028 9.491150184824946  C 7.692356927290522 12.132971519273985  6.472189247824 14  4.063722662776722 14  C 1.2784573191380655 14  0 11.874722331252885  0 6.994640723599363  C 0 2.12533805496008  1.2784573191380655 0  4.063722662776722 0  C 6.472189247824 0  7.596854800596888 1.6088170340880172  7.952308476632418 4.250593078877334  Z " fill-rule="nonzero" fill="#efebdf" stroke="none" transform="matrix(1 0 0 1 3013 141 )" />
  </g>
</svg>