<?xml version="1.0" encoding="utf-8"?>
<svg version="1.1" xmlns:xlink="http://www.w3.org/1999/xlink" width="8px" height="19px" xmlns="http://www.w3.org/2000/svg">
  <g transform="matrix(1 0 0 1 -3027 -136 )">
    <path d="M 0 19  L 0 0  L 1.9154870504351473 0  C 1.9154870504351473 0  1.9154870504351473 6.812267181900139  1.9154870504351473 6.812267181900139  C 2.718332886729657 5.8944922321696875  4.052536126353947 5.053149989814996  4.960578487683447 5.053149989814996  C 6.881704394968524 5.053149989814996  8.000000000000028 6.102047690020915  8.000000000000028 8.631393207711561  C 8.000000000000028 8.631393207711561  8.000000000000028 19  8.000000000000028 19  L 6.08451294956491 19  C 6.08451294956491 19  6.08451294956491 8.89362338073562  6.08451294956491 8.89362338073562  C 6.08451294956491 7.314816256476554  5.602833409061841 6.631995433891256  4.561959463920277 6.631995433891256  C 3.6262509757319155 6.631995433891256  2.7681660899653977 7.260210516974671  1.9154870504351473 8.319960389410015  C 1.9154870504351473 8.319960389410015  1.9154870504351473 19  1.9154870504351473 19  L 0 19  Z " fill-rule="nonzero" fill="#efebdf" stroke="none" transform="matrix(1 0 0 1 3027 136 )" />
  </g>
</svg>