<?xml version="1.0" encoding="utf-8"?>
<svg version="1.1" xmlns:xlink="http://www.w3.org/1999/xlink" width="8px" height="14px" xmlns="http://www.w3.org/2000/svg">
  <g transform="matrix(1 0 0 1 -3047 -141 )">
    <path d="M 7.851429783424947 7.312091045155947  L 1.7732945323298488 7.312091045155947  C 1.7732945323298488 7.312091045155947  1.7732945323298488 8.059966744449861  1.7732945323298488 8.059966744449861  C 1.7732945323298488 11.352804292597082  2.495784075651172 12.450406744277327  4.176862115637323 12.450406744277327  C 5.534930789099503 12.450406744277327  6.09869810530554 11.12140432451551  6.319080135815522 9.900115812129865  C 6.319080135815522 9.900115812129865  8.000000000000027 10.104560884399222  8.000000000000027 10.104560884399222  C 7.733574431600676 12.132971519273985  6.272892801742783 14  3.925736461140007 14  C 1.235137316367807 14  0 11.874722331252885  0 6.994640723599363  C 0 2.12533805496008  1.235137316367807 0  3.925736461140007 0  C 6.647021711426278 0  7.851429783424947 2.5395950241760517  7.851429783424947 6.429682411652814  C 7.851429783424947 6.429682411652814  7.851429783424947 7.312091045155947  7.851429783424947 7.312091045155947  Z M 1.7732945323298488 5.757100771649536  C 1.7732945323298488 5.757100771649536  6.073016106970008 5.757100771649536  6.073016106970008 5.757100771649536  C 6.026828772897269 2.846258858441777  5.534930789099503 1.5550280148895148  3.925736461140007 1.5550280148895148  C 2.639321425811082 1.5550280148895148  1.7989046325738436 2.5395950241760517  1.7732945323298488 5.757100771649536  Z " fill-rule="nonzero" fill="#efebdf" stroke="none" transform="matrix(1 0 0 1 3047 141 )" />
  </g>
</svg>