<?xml version="1.0" encoding="utf-8"?>
<svg version="1.1" xmlns:xlink="http://www.w3.org/1999/xlink" width="8px" height="14px" xmlns="http://www.w3.org/2000/svg">
  <g transform="matrix(1 0 0 1 -3059 -141 )">
    <path d="M 7.687382539676538 3.217543488856587  C 7.687382539676538 3.217543488856587  6.1293472136614815 3.6802830388067687  6.1293472136614815 3.6802830388067687  C 5.7951605401379265 2.512745804236524  5.299098887884712 1.5550280148895148  3.7952134800019945 1.5550280148895148  C 2.9056422550869256 1.5550280148895148  2.285792074902373 2.2490694053252014  2.285792074902373 3.1583650001509653  C 2.285792074902373 5.907779469550253  8.000000000000057 6.063772154191882  8.000000000000057 10.271362701161571  C 8.000000000000057 12.391258448678188  6.442055428037765 14  4.312602334648063 14  C 1.86526804587623 14  0.6468948878998659 12.676379501468679  0 10.421965916296083  C 0 10.421965916296083  1.7088534359862226 10.061505514555234  1.7088534359862226 10.061505514555234  C 2.1024840140517242 11.250600627153954  2.8031809295484416 12.450406744277327  4.183247558148825 12.450406744277327  C 5.196788819100759 12.450406744277327  6.1293472136614815 11.508827170345194  6.1293472136614815 10.39504121359035  C 6.1293472136614815 7.285188987280076  0.40972429675065497 7.231399968081574  0.40972429675065497 3.265988328207694  C 0.40972429675065497 1.5011635129248062  1.86526804587623 0  3.919092761986209 0  C 6.000022688513241 0  7.245259046099249 1.1890875643221  7.687382539676538 3.217543488856587  Z " fill-rule="nonzero" fill="#efebdf" stroke="none" transform="matrix(1 0 0 1 3059 141 )" />
  </g>
</svg>