<?xml version="1.0" encoding="utf-8"?>
<svg version="1.1" xmlns:xlink="http://www.w3.org/1999/xlink" width="10px" height="20px" xmlns="http://www.w3.org/2000/svg">
  <g transform="matrix(1 0 0 1 -3325 -174 )">
    <path d="M 10 0  C 10 0  10 1.8882929826830672  10 1.8882929826830672  C 9.77838748007189 1.828961655719401  9.609677746795137 1.828961655719401  9.419054556745106 1.828961655719401  C 8.891400013136133 1.828961655719401  8.527708282331306 2.057036834321741  8.164135970909438 2.399099705262479  C 8.443607181881692 3.311308302202107  8.607629704377374 4.054711635856572  8.607629704377374 5.2542883560831495  C 8.607629704377374 8.971512288662373  6.944714796658701 10.572414118691055  4.722947031532688 10.572414118691055  C 4.2793935883733845 10.572414118691055  3.8314813377359282 10.453797523498592  3.392465831129106 10.453797523498592  C 3.0511055249377526 10.540472386061246  2.3902983693283812 10.859782241978008  2.3902983693283812 11.425345123857696  C 2.3902983693283812 12.483483145765533  4.031031126662168 12.53817789341932  5.893704807227317 12.93954906195629  C 7.973512780859517 13.39569174270516  9.831618670026332 14.08437729933842  9.831618670026332 16.510835893111466  C 9.831618670026332 18.453869682183214  8.004472255891853 19.99999999999997  4.9489183589388395 19.99999999999997  C 1.667452844271209 19.99999999999997  0 18.74116871736791  0 16.79813492829616  C 0 15.484631927377702  0.8026475277202243 14.394544496384153  2.1108570132018682 13.829027673239375  C 1.2460516966508834 13.541659549952424  0.5542850660090639 12.825553693162082  0.5542850660090639 11.826700939483043  C 0.5542850660090639 10.71379140536331  1.4990416594517455 10.025059789995199  2.443469849591287 9.856338967723957  C 1.3038208231578623 9.02626844796265  0.7272938970724339 7.14253528003135  0.7272938970724339 5.5964049622145655  C 0.7272938970724339 2.057036834321741  2.3902983693283812 0  4.913510511891241 0  C 5.862715477349129 0  7.0864954590779625 0.4287454099592035  7.556560005254452 1.3683359247768743  C 8.004472255891853 0.5655552054238766  8.780519116057729 0  10 0  Z M 8.004472255891853 16.342069012105387  C 8.004472255891853 14.96926539004652  5.498934182007082 14.736615043780773  3.7783098574730225 14.335236198787964  C 2.6075819366241335 14.855200933149955  1.8359535936278373 15.543917195606458  1.8359535936278373 16.369458606439242  C 1.8359535936278373 17.591796018145608  2.8337622479504647 18.453869682183214  4.997790741415239 18.453869682183214  C 7.219677925924158 18.453869682183214  8.004472255891853 17.537085917580228  8.004472255891853 16.342069012105387  Z M 2.558709554147734 5.286207059345528  C 2.558709554147734 8.113998439376534  3.498868501346509 9.02626844796265  4.6651779050257645 9.02626844796265  C 5.8359058258746535 9.02626844796265  6.780632564471595 8.113998439376534  6.780632564471595 5.286207059345528  C 6.780632564471595 2.4583926499470903  5.8359058258746535 1.5416395911673164  4.6651779050257645 1.5416395911673164  C 3.498868501346509 1.5416395911673164  2.558709554147734 2.4583926499470903  2.558709554147734 5.286207059345528  Z " fill-rule="nonzero" fill="#efebdf" stroke="none" transform="matrix(1 0 0 1 3325 174 )" />
  </g>
</svg>