<?xml version="1.0" encoding="utf-8"?>
<svg version="1.1" xmlns:xlink="http://www.w3.org/1999/xlink" width="9px" height="18px" xmlns="http://www.w3.org/2000/svg">
  <g transform="matrix(1 0 0 1 -3096 -141 )">
    <path d="M 9 0  C 9 0  9 1.6911696832861403  9 1.6911696832861403  C 8.79777732522625 1.6431948307907245  8.647484944578594 1.6431948307907245  8.476362261077062 1.6431948307907245  C 7.999418147964972 1.6431948307907245  7.672853693305793 1.845931617747951  7.351380443953103 2.1553507054024723  C 7.600151281529107 2.982247059263787  7.745352456870219 3.649127446455524  7.745352456870219 4.726772861651303  C 7.745352456870219 8.071727768283708  6.252320134989672 9.512185812117206  4.251127338317866 9.512185812117206  C 3.8467110813720073 9.512185812117206  3.452768161056697 9.410802449885864  3.048322811509033 9.410802449885864  C 2.752712885113316 9.485489041625607  2.151426992115932 9.768256265046714  2.151426992115932 10.280419624034828  C 2.151426992115932 11.235351204360898  3.629011142466471 11.283400900619956  5.298228260553341 11.640809809522622  C 7.180286853053269 12.056948619756259  8.849591248945393 12.670435465964797  8.849591248945393 14.857796849077552  C 8.849591248945393 16.60760662117829  7.195938672795562 18  4.448055159572921 18  C 1.5034183807057593 18  0 16.863692042860528  0 15.119166240473012  C 0 13.92945725797398  0.7258022284932942 12.953187720633178  1.902539784132895 12.441024361645066  C 1.1300730224303959 12.185006299350105  0.5028074360690348 11.539403994162186  0.5028074360690348 10.637880923572043  C 0.5028074360690348 9.640213554205594  1.3529805370494827 9.021375378896554  2.20329910103866 8.866658350692928  C 1.176795740843158 8.125121309266905  0.6531580019201388 6.4232489677797595  0.6531580019201388 5.03618446492946  C 0.6531580019201388 1.845931617747951  2.151426992115932 0  4.427370319727747 0  C 5.277543420708113 0  6.376749192680302 0.3841356168997218  6.801908474674944 1.2324372871630471  C 7.195938672795562 0.5122157496226627  7.900881505833067 0  9 0  Z M 7.195938672795562 14.708393728092608  C 7.195938672795562 13.470672471216336  4.9458586681406915 13.267950653011837  3.4008378669304395 12.90517544625594  C 2.3535914816862076 13.363982686142677  1.6537689465568635 13.988149737423129  1.6537689465568635 14.7243878403832  C 1.6537689465568635 15.83402896453653  2.550606580746516 16.60760662117829  4.499927268495622 16.60760662117829  C 6.501207342972736 16.60760662117829  7.195938672795562 15.786031658912021  7.195938672795562 14.708393728092608  Z M 2.301777557967036 4.758828445619768  C 2.301777557967036 7.298224955405591  3.1519506589474835 8.125121309266905  4.199226136793413 8.125121309266905  C 5.246472522037646 8.125121309266905  6.101911383935065 7.298224955405591  6.101911383935065 4.758828445619768  C 6.101911383935065 2.2086694026220264  5.246472522037646 1.3871168934848503  4.199226136793413 1.3871168934848503  C 3.1519506589474835 1.3871168934848503  2.301777557967036 2.2086694026220264  2.301777557967036 4.758828445619768  Z " fill-rule="nonzero" fill="#efebdf" stroke="none" transform="matrix(1 0 0 1 3096 141 )" />
  </g>
</svg>