<?xml version="1.0" encoding="utf-8"?>
<svg version="1.1" xmlns:xlink="http://www.w3.org/1999/xlink" width="8px" height="14px" xmlns="http://www.w3.org/2000/svg">
  <g transform="matrix(1 0 0 1 -3030 -173 )">
    <path d="M 0 7.002655979511015  C 0 2.1244667021659596  1.2583767547916227 0  3.9947766046099025 0  C 6.741593941447477 0  8 2.1244667021659596  8 7.002655979511015  C 8 11.875472934663335  6.741593941447477 14  3.9947766046099025 14  C 1.2583767547916227 14  0 11.875472934663335  0 7.002655979511015  Z M 1.8015805716064872 7.002655979511015  C 1.8015805716064872 11.455994170642374  2.459552568199925 12.440230759778295  3.9947766046099025 12.440230759778295  C 5.530073900422157 12.440230759778295  6.187987289493741 11.455994170642374  6.187987289493741 7.002655979511015  C 6.187987289493741 2.543960556979599  5.530073900422157 1.5543667364436176  3.9947766046099025 1.5543667364436176  C 2.459552568199925 1.5543667364436176  1.8015805716064872 2.543960556979599  1.8015805716064872 7.002655979511015  Z " fill-rule="nonzero" fill="#efebdf" stroke="none" transform="matrix(1 0 0 1 3030 173 )" />
  </g>
</svg>