<?xml version="1.0" encoding="utf-8"?>
<svg version="1.1" xmlns:xlink="http://www.w3.org/1999/xlink" width="8px" height="14px" xmlns="http://www.w3.org/2000/svg">
  <g transform="matrix(1 0 0 1 -3050 -173 )">
    <path d="M 7.687590457511866 3.210867957719911  C 7.687590457511866 3.210867957719911  6.130712285594496 3.6788032570242253  6.130712285594496 3.6788032570242253  C 5.791306253708077 2.517083855223247  5.3010766097186135 1.5543667364436176  3.792674216916613 1.5543667364436176  C 2.9092118340154256 1.5543667364436176  2.284241592883596 2.2535231611330167  2.284241592883596 3.1625019671926164  C 2.284241592883596 5.910822038593625  8.000000000000028 6.066845744073092  8.000000000000028 10.267352794707012  C 8.000000000000028 12.391849678458325  6.443182290544861 14  4.30979454099541 14  C 1.874714220393261 14  0.6572118491310129 12.676854388941466  0 10.423316137015775  C 0 10.423316137015775  1.7131887524704583 10.057605867300193  1.7131887524704583 10.057605867300193  C 2.1064366069977742 11.246247243235553  2.8067279604878372 12.440230759778295  4.180556027918598 12.440230759778295  C 5.198683429884328 12.440230759778295  6.130712285594496 11.509747574155078  6.130712285594496 10.396424344466745  C 6.130712285594496 7.282348730972128  0.42015365023226997 7.233952558859481  0.42015365023226997 3.27003895580338  C 0.42015365023226997 1.5059102011602663  1.874714220393261 0  3.9218976143780298 0  C 6.001383078824157 0  7.245791245791274 1.1939835165427424  7.687590457511866 3.210867957719911  Z " fill-rule="nonzero" fill="#efebdf" stroke="none" transform="matrix(1 0 0 1 3050 173 )" />
  </g>
</svg>