<?xml version="1.0" encoding="utf-8"?>
<svg version="1.1" xmlns:xlink="http://www.w3.org/1999/xlink" width="6px" height="18px" xmlns="http://www.w3.org/2000/svg">
  <g transform="matrix(1 0 0 1 -3061 -168 )">
    <path d="M 0 5.978811341303372  L 0 4.445658942229213  L 1.7681058734313462 4.445658942229213  L 1.7681058734313462 0  L 3.5780425157170894 0  L 3.5780425157170894 4.445658942229213  L 6.000000000000028 4.445658942229213  L 6.000000000000028 5.978811341303372  L 3.5780425157170894 5.978811341303372  C 3.5780425157170894 5.978811341303372  3.5780425157170894 15.28384020561012  3.5780425157170894 15.28384020561012  C 3.5780425157170894 16.05301009940634  3.986164045108736 16.620645855919108  4.891147043714349 16.620645855919108  C 5.241644854326155 16.620645855919108  5.7019300863523785 16.46153369073638  6.000000000000028 16.360703361259066  C 6.000000000000028 16.360703361259066  6.000000000000028 17.7453193183707  6.000000000000028 17.7453193183707  C 5.497942708970376 17.89384831788198  5.042706524132195 18  4.2894884904229285 18  C 2.573663739328316 18  1.7681058734313462 17.18303468430362  1.7681058734313462 15.129982411006889  C 1.7681058734313462 15.129982411006889  1.7681058734313462 5.978811341303372  1.7681058734313462 5.978811341303372  L 0 5.978811341303372  Z " fill-rule="nonzero" fill="#efebdf" stroke="none" transform="matrix(1 0 0 1 3061 168 )" />
  </g>
</svg>