<?xml version="1.0" encoding="utf-8"?>
<svg version="1.1" xmlns:xlink="http://www.w3.org/1999/xlink" width="8px" height="14px" xmlns="http://www.w3.org/2000/svg">
  <g transform="matrix(1 0 0 1 -3071 -173 )">
    <path d="M 7.851468110407417 7.30922543272848  L 1.7772093507837494 7.30922543272848  C 1.7772093507837494 7.30922543272848  1.7772093507837494 8.062240896479318  1.7772093507837494 8.062240896479318  C 1.7772093507837494 11.353799322638991  2.4942321026330334 12.440230759778295  4.174010511907601 12.440230759778295  C 5.531289630718104 12.440230759778295  6.094607168646834 11.122502743290525  6.320049146581169 9.901657615784107  C 6.320049146581169 9.901657615784107  8.000000000000053 10.111359270812898  8.000000000000053 10.111359270812898  C 7.723485814672841 12.133661306560828  6.2688907171162125 14  3.923104282003684 14  C 1.2291531196224008 14  0 11.875472934663335  0 7.002655979511015  C 0 2.1244667021659596  1.2291531196224008 0  3.923104282003684 0  C 6.637547556861634 0  7.851468110407417 2.543960556979599  7.851468110407417 6.427153510010585  C 7.851468110407417 6.427153510010585  7.851468110407417 7.30922543272848  7.851468110407417 7.30922543272848  Z M 1.7772093507837494 5.754843605492186  C 1.7772093507837494 5.754843605492186  6.0690854352957775 5.754843605492186  6.0690854352957775 5.754843605492186  C 6.022985367395895 2.850499828611712  5.531289630718104 1.5543667364436176  3.923104282003684 1.5543667364436176  C 2.64276399222567 1.5543667364436176  1.7977589446418907 2.543960556979599  1.7772093507837494 5.754843605492186  Z " fill-rule="nonzero" fill="#efebdf" stroke="none" transform="matrix(1 0 0 1 3071 173 )" />
  </g>
</svg>