<?xml version="1.0" encoding="utf-8"?>
<svg version="1.1" xmlns:xlink="http://www.w3.org/1999/xlink" width="8px" height="14px" xmlns="http://www.w3.org/2000/svg">
  <g transform="matrix(1 0 0 1 -3092 -173 )">
    <path d="M 0 14  L 0 0.26299409404286817  L 1.8092412532525328 0.26299409404286817  C 1.8092412532525328 0.26299409404286817  1.8092412532525328 1.7753561913714604  1.8092412532525328 1.7753561913714604  C 2.7165939347605472 0.8438226851129906  4.04982119399336 0  4.957173875501345 0  C 6.8769391671501445 0  8 1.0575265262912827  8 3.594575480504192  C 8 3.594575480504192  8 14  8 14  L 6.080234708351201 14  C 6.080234708351201 14  6.080234708351201 3.852050173181376  6.080234708351201 3.852050173181376  C 6.080234708351201 2.2684893356731672  5.5988963119199475 1.5835762118852719  4.553388582416665 1.5835762118852719  C 3.6237448167602255 1.5835762118852719  2.777382155878449 2.2136796814429074  1.9198273838052013 3.27120620773419  C 1.9198273838052013 3.27120620773419  1.9198273838052013 14  1.9198273838052013 14  L 0 14  Z " fill-rule="nonzero" fill="#efebdf" stroke="none" transform="matrix(1 0 0 1 3092 173 )" />
  </g>
</svg>