<?xml version="1.0" encoding="utf-8"?>
<svg version="1.1" xmlns:xlink="http://www.w3.org/1999/xlink" width="12px" height="20px" xmlns="http://www.w3.org/2000/svg">
  <g transform="matrix(1 0 0 1 -3311 -337 )">
    <path d="M 11.776150735256342 10.440291582193195  L 2.667081716867217 10.440291582193195  C 2.667081716867217 10.440291582193195  2.667081716867217 11.515551101771173  2.667081716867217 11.515551101771173  C 2.667081716867217 16.220101013064433  3.738477211685893 17.77976619690911  6.25870319108431 17.77976619690911  C 8.294771396523869 17.77976619690911  9.14577523488074 15.893514751273472  9.479681406094091 14.150367720288617  C 9.479681406094091 14.150367720288617  12 14.443972645254505  12 14.443972645254505  C 11.592774010311139 17.332016756248464  9.40633071611601 20  5.8808360002881335 20  C 1.8527840950019039 20  0 16.965099384070445  0 9.999938237196929  C 0 3.0348079717250176  1.8527840950019039 0  5.8808360002881335 0  C 9.960165471253543 0  11.776150735256342 3.629321273116659  11.776150735256342 9.185240542956773  C 11.776150735256342 9.185240542956773  11.776150735256342 10.440291582193195  11.776150735256342 10.440291582193195  Z M 2.667081716867217 8.220134982606023  C 2.667081716867217 8.220134982606023  9.105457052594751 8.220134982606023  9.105457052594751 8.220134982606023  C 9.03581094291859 4.069643736711347  8.294771396523869 2.2201257181855656  5.8808360002881335 2.2201257181855656  C 3.965691470203855 2.2201257181855656  2.703880547866322 3.629321273116659  2.667081716867217 8.220134982606023  Z " fill-rule="nonzero" fill="#7f7f7f" stroke="none" transform="matrix(1 0 0 1 3311 337 )" />
  </g>
</svg>