<?xml version="1.0" encoding="utf-8"?>
<svg version="1.1" xmlns:xlink="http://www.w3.org/1999/xlink" width="47px" height="46px" xmlns="http://www.w3.org/2000/svg">
  <g transform="matrix(1 0 0 1 -3043 -203 )">
    <path d="M 35.93663836571338 45.97170032510629  C 35.80257676936656 45.98969105219672  35.67356596599036 46  35.539411977089266 46  C 33.03221682501178 46  30.295364580364158 42.739284418880075  28.484501312826175 40.58262488402189  C 28.484501312826175 40.58262488402189  28.32204440477899 40.38962786121227  28.32204440477899 40.38962786121227  C 27.519861450484473 39.424535202254596  27.114874087295952 39.29328432135485  26.823406375872626 39.29328432135485  C 26.433940961813043 39.29328432135485  25.936006688958827 39.55063929103192  25.24996117546919 39.90579867459251  C 25.24996117546919 39.90579867459251  24.674694334632726 40.1991658255675  24.674694334632726 40.1991658255675  C 23.588743048443185 40.74477188121434  23.047045502350112 41.385601272904225  22.417636624670703 42.129351143482914  C 21.97399837625 42.65693574492217  21.471044107943392 43.2488475661117  20.73837115203031 43.83562795873749  C 20.17351387231611 44.280863886218796  19.49519853587294 44.52019740168828  18.772904343564008 44.52019740168828  C 17.17362002546365 44.52019740168828  15.651699072863652 43.38526060269239  15.102271349724166 42.28636671211163  C 14.792771691445564 41.66354341107071  14.730868680038004 41.022683292263615  14.674108854155435 40.45653615880309  C 14.578667345522597 39.517162096898666  14.493573802975828 39.32418043764766  14.14790245967327 39.23668497156742  C 14.057573339047256 39.216082439519376  13.969892804978976 39.20322314099277  13.87965607690733 39.20322314099277  C 13.25021640170972 39.20322314099277  12.577013453273254 39.802847468586556  11.718039875578055 40.562068442649476  C 11.382685700843364 40.85545095718307  11.029314978012538 41.16938991308907  10.63723177491339 41.48595603751116  C 10.299352203693447 41.751023513592436  9.948476079829788 41.88743655017304  9.592549162995537 41.88743655017304  C 8.434408494348684 41.88743655017304  7.719875276604276 40.58262488402189  6.958914800304334 39.20322314099277  C 6.5746079705287706 38.50577903595674  6.179937775908085 37.78518204814942  5.793028555851954 37.393995119732224  C 4.250457867357084 35.86270923663821  4.567749297718297 32.720369874332796  4.944387545483703 30.48650845763904  C 5.230681273864009 28.74163838324596  3.590128281491994 27.184603175981565  2.1250133510517353 26.023932416373814  C 1.8489905949622099 25.797488926548148  1.836117232390835 25.79487712159056  1.490415091570195 25.69197200626036  C 1.3124824306711829 25.63789228007905  1.0803307391339108 25.56327147608395  0.7346747945903545 25.442337224766828  C 0.7346747945903545 25.442337224766828  0.4638414203029321 25.344525129103964  0.4638414203029321 25.344525129103964  C 0.4638414203029321 25.344525129103964  0.24976787189805105 24.739723282270713  0.24976787189805105 24.739723282270713  C 0.20591220610485442 24.567290382612743  -0.4854304805002565 21.73123124226395  0.6418048787200289 19.855094923412718  C 1.147392334825432 19.016114035011533  1.480144119279443 18.15139918599859  1.7793882040263782 17.3895971340951  C 2.0553955613568182 16.67414693841012  2.321054952601338 15.994731969361027  2.67702806571273 15.464573971860625  C 2.9917325045524628 14.996192843387224  3.3786109270905373 14.929261500458539  3.582413503204551 14.929261500458539  C 5.088827905434554 14.929261500458539  5.780155193280665 18.33411798812195  5.790426165571446 18.370153214757835  C 5.790426165571446 18.370153214757835  5.844614398691564 18.645498911525248  5.844614398691564 18.645498911525248  C 5.994197944167376 19.404719885588246  6.275333088263751 20.81501774491017  6.6957654067860695 20.81246739418683  C 6.780951341887209 20.81246739418683  7.031150379038844 20.77129305720788  7.505786329440396 20.374951654889095  C 8.277063974308287 19.736711022818934  8.9193462145591 19.409874359489944  9.435235440473312 19.14735723413192  C 10.319986540829317 18.699570955927296  10.810067446564668 18.45250957049498  11.377573312836603 16.93666406376815  C 11.377573312836603 16.93666406376815  11.62259836694522 16.272681789306887  11.62259836694522 16.272681789306887  C 12.460937607504635 14.005389269155575  13.010396128162206 12.510123249138806  14.973291343866084 12.510123249138806  C 16.601001771184926 12.510123249138806  18.133239892352844 12.510123249138806  19.319775872700156 11.619682121293263  C 19.969757492479182 11.135829889335634  20.142562366612403 10.778112473272447  20.364458484617952 10.330318513288463  C 20.557866898368847 9.941712662711732  20.772002041809927 9.499057813070928  21.28271728468112 8.989479302280701  C 21.958538022157175 8.312622365734203  22.660167079812094 8.22514226321248  23.258593654269685 8.22514226321248  C 23.258593654269685 8.22514226321248  24.13044059453626 8.245721749922653  24.13044059453626 8.245721749922653  C 24.445160432135047 8.245721749922653  24.690216283761778 8.219980107531537  24.930036557309265 8.15821092028381  C 25.905116778291287 7.913730612692064  26.175980950096882 7.249756020010062  26.519034504359816 5.906358776499591  C 26.841484519005018 4.5938192403855425  27.228393739061147 3.548951303531147  28.972087619594355 3.116590038135024  C 29.361553033653827 3.0188009878100184  29.696907208388456 2.975045572990597  30.006422265426117 2.931297839950463  C 30.762224157442155 2.8335011078461694  31.218797363470344 2.7717319205984574  32.06489757859434 1.9276272854128353  C 33.514505958664486 0.47354328415435964  35.32792542020592 0.09781977744215453  35.40528878570628 0.08236403751647407  C 35.40528878570628 0.08236403751647407  35.81286314041637 0  35.81286314041637 0  C 35.81286314041637 0  36.032110671864295 0.3525936692786943  36.032110671864295 0.3525936692786943  C 36.235836254183056 0.6768646183257863  37.95895739261659 3.548951303531147  36.21005873152231 4.853762969682341  C 34.63920052264049 6.045306800245015  33.094089038901195 7.805632614563704  33.094089038901195 8.402714273213515  C 33.094089038901195 9.100135332911572  34.56694954514687 10.947971976869189  35.78964181175901 11.563052044388703  C 36.02441129233594 11.678877912479775  36.32875236633064 11.802385559858108  36.66407574354716 11.941379674279185  C 38.06989005286034 12.522997911224028  39.66652578440296 13.184391426065575  39.89867747594032 14.345085231011186  C 39.97354624247345 14.713103913098385  39.92965977916214 15.274134981553711  39.318298247097005 15.884075938730158  C 38.29686776135462 16.905798674592468  37.95122721557018 17.785953899972505  37.641681361014406 18.56316560112595  C 37.46628949535979 19.01097492466845  37.298627806751526 19.427872768359634  37.03290682047084 19.82677220318103  C 36.64091600992603 20.410979199745604  37.270232495051104 21.064667889962216  37.298627806751526 21.092975246635184  C 37.298627806751526 21.092975246635184  37.84546853836951 21.648859522968188  37.84546853836951 21.648859522968188  C 37.84546853836951 21.648859522968188  37.172173197378676 22.034899659262948  37.172173197378676 22.034899659262948  C 36.96847841257802 22.15330660519459  35.1421547909471 23.177564328221738  33.88595482462779 23.177564328221738  C 33.80341747608442 23.177564328221738  33.72349791658066 23.17242521787867  33.651246939087095 23.164705029695114  C 33.651246939087095 23.625389015322853  33.826669602259884 24.538975344160413  34.07425085037195 25.380560355739846  C 34.21875280535909 27.182037461699707  34.8584480540883 29.652666679580918  35.84889623660881 29.652666679580918  C 38.26850324717242 29.652666679580918  40.107700231374544 31.255992288829585  40.486879274384265 32.80788070397164  C 40.74733388506765 33.83730058267966  41.56506958600933 35.085466808367634  42.743844591792005 35.38401147858217  C 44.24257501325276 35.754641965627044  46.11007491660097 38.459442543296845  46.46861962247485 38.999886443262746  C 46.46861962247485 38.999886443262746  46.54080900493219 39.10540336355056  46.54080900493219 39.10540336355056  L 47 41.90287692654012  C 47 41.90287692654012  45.79800366555998 41.98780667833849  45.79800366555998 41.98780667833849  C 45.555504007936584 42.08559572866349  45.15045504971178 42.209164830276066  44.724802551869246 42.283785634271155  C 43.20038700030208 42.52826594186302  42.81609556928557 42.9271500131258  41.897805971704344 43.884514802120734  C 41.897805971704344 43.884514802120734  41.33547408847537 44.4610169740603  41.33547408847537 44.4610169740603  C 40.192793773921316 45.60624735730093  39.03717850175972 45.693727459822654  37.57201737504235 45.80442189935002  C 37.08455425834662 45.84298443137138  36.542918307289774 45.884189495467446  35.93663836571338 45.97170032510629  Z " fill-rule="nonzero" fill="#4b636b" stroke="none" transform="matrix(1 0 0 1 3043 203 )" />
  </g>
</svg>