<?xml version="1.0" encoding="utf-8"?>
<svg version="1.1" xmlns:xlink="http://www.w3.org/1999/xlink" width="9px" height="15px" xmlns="http://www.w3.org/2000/svg">
  <g transform="matrix(1 0 0 1 -3211 -208 )">
    <path d="M 0 7.502216387035363  C 0 2.2745802546034186  1.414178385667558 0  4.49557432398179 0  C 7.58144156384025 0  9 2.2745802546034186  9 7.502216387035363  C 9 12.725382432483569  7.58144156384025 15.000000000000057  4.49557432398179 15.000000000000057  C 1.414178385667558 15.000000000000057  0 12.725382432483569  0 7.502216387035363  Z M 2.037818491518722 7.502216387035363  C 2.037818491518722 12.277530462262273  2.7741232294761176 13.332776956340949  4.49557432398179 13.332776956340949  C 6.221466303014326 13.332776956340949  6.962485678654408 12.277530462262273  6.962485678654408 7.502216387035363  C 6.962485678654408 2.7224023744942856  6.221466303014326 1.671558804155962  4.49557432398179 1.671558804155962  C 2.7741232294761176 1.671558804155962  2.037818491518722 2.7224023744942856  2.037818491518722 7.502216387035363  Z " fill-rule="nonzero" fill="#efebdf" stroke="none" transform="matrix(1 0 0 1 3211 208 )" />
  </g>
</svg>