<?xml version="1.0" encoding="utf-8"?>
<svg version="1.1" xmlns:xlink="http://www.w3.org/1999/xlink" width="7px" height="12px" xmlns="http://www.w3.org/2000/svg">
  <g transform="matrix(1 0 0 1 -3047 -254 )">
    <path d="M 1.7016111600685033 3.5958181509637304  C 1.7016111600685033 3.5958181509637304  0.2989749430524189 3.3745378553437457  0.2989749430524189 3.3745378553437457  C 0.5980662753770724 1.5489696962763109  1.6181018572402983 0  3.5659927173570205 0  C 5.597276491029713 0  6.722935337445809 1.2400864131854044  6.722935337445809 3.282358706242852  C 6.722935337445809 3.282358706242852  6.722935337445809 9.727249326446252  6.722935337445809 9.727249326446252  C 6.722935337445809 10.75529929050426  6.828500407362507 11.50672028402707  7 11.774120661941836  C 7 11.774120661941836  5.403866617893992 11.774120661941836  5.403866617893992 11.774120661941836  C 5.403866617893992 11.774120661941836  5.219215037493999 10.792137391626063  5.219215037493999 10.792137391626063  C 4.621206956753099 11.414495373309975  3.5659927173570205 12.000000000000057  2.866813261726192 12.000000000000057  C 1.147656418868418 12.000000000000057  0 10.83824984698461  0 9.01730361116356  C 0 6.172868319042333  2.98992401443227 4.729920660797739  5.19724656235971 4.218199013455807  C 5.19724656235971 4.218199013455807  5.19724656235971 3.3930102944569764  5.19724656235971 3.3930102944569764  C 5.19724656235971 2.1298523997200913  4.577299103802658 1.3323189508386344  3.605535972598613 1.3323189508386344  C 2.440333870940924 1.3323189508386344  1.8687461549972566 2.553948178783065  1.7016111600685033 3.5958181509637304  Z M 5.19724656235971 9.459879456275772  C 5.19724656235971 9.459879456275772  5.19724656235971 5.550495083486391  5.19724656235971 5.550495083486391  C 3.794668539979688 5.997647090228574  1.5301115674310104 7.062634305577021  1.5301115674310104 8.883603422206233  C 1.5301115674310104 9.971616357489733  1.996250602730214 10.658467710412907  3.0998536820578164 10.658467710412907  C 3.9265084881033534 10.658467710412907  4.643233626523453 10.063780252718484  5.19724656235971 9.459879456275772  Z " fill-rule="nonzero" fill="#efebdf" stroke="none" transform="matrix(1 0 0 1 3047 254 )" />
  </g>
</svg>