<?xml version="1.0" encoding="utf-8"?>
<svg version="1.1" xmlns:xlink="http://www.w3.org/1999/xlink" width="11px" height="12px" xmlns="http://www.w3.org/2000/svg">
  <g transform="matrix(1 0 0 1 -3059 -254 )">
    <path d="M 1.5655913248826034 12.000000000000059  L 0 12.000000000000059  L 0 0.22076041858973736  L 1.4347384707255504 0.22076041858973736  C 1.4347384707255504 0.22076041858973736  1.4347384707255504 1.517587959229282  1.4347384707255504 1.517587959229282  C 2.039378681360441 0.7658287746436594  2.977816834505063 0  4.065216742216524 0  C 4.954030835210743 0  5.802267853749926 0.6107601270927203  6.091084661111262 1.4940816386019802  C 6.72270160961969 0.7658287746436594  7.611575418691133 0  8.716994652696725 0  C 10.196848619744307 0  11.000000000000057 1.0383512927893497  11.000000000000057 2.7110156728237174  C 11.000000000000057 2.7110156728237174  11.000000000000057 12.000000000000059  11.000000000000057 12.000000000000059  L 9.438812735810647 12.000000000000059  C 9.438812735810647 12.000000000000059  9.438812735810647 2.94124391499948  9.438812735810647 2.94124391499948  C 9.438812735810647 1.719622608509741  9.086935750929726 1.3578786789354096  8.265765044379876 1.3578786789354096  C 7.304754214054993 1.3578786789354096  6.763308542113378 2.0579224034902346  6.280504057978882 2.574773846886326  C 6.280504057978882 2.574773846886326  6.280504057978882 12.000000000000059  6.280504057978882 12.000000000000059  L 4.719436225943921 12.000000000000059  C 4.719436225943921 12.000000000000059  4.719436225943921 2.94124391499948  4.719436225943921 2.94124391499948  C 4.719436225943921 1.719622608509741  4.2998710675605984 1.3578786789354096  3.4786555739529326 1.3578786789354096  C 2.5221533074563385 1.3578786789354096  1.9761990716864362 2.0579224034902346  1.5655913248826034 2.574773846886326  C 1.5655913248826034 2.574773846886326  1.5655913248826034 12.000000000000059  1.5655913248826034 12.000000000000059  Z " fill-rule="nonzero" fill="#efebdf" stroke="none" transform="matrix(1 0 0 1 3059 254 )" />
  </g>
</svg>