<?xml version="1.0" encoding="utf-8"?>
<svg version="1.1" xmlns:xlink="http://www.w3.org/1999/xlink" width="7px" height="16px" xmlns="http://www.w3.org/2000/svg">
  <g transform="matrix(1 0 0 1 -3075 -250 )">
    <path d="M 1.526704697888872 14.680646985083667  C 1.526704697888872 14.680646985083667  1.1879384318463728 15.7778100730676  1.1879384318463728 15.7778100730676  C 1.1879384318463728 15.7778100730676  0 15.7778100730676  0 15.7778100730676  C 0.1716396337189835 15.12040632058409  0.25511560146662143 14.200068070136618  0.25511560146662143 12.717481742482956  C 0.25511560146662143 12.717481742482956  0.25511560146662143 0  0.25511560146662143 0  L 1.7774237625121403 0  C 1.7774237625121403 0  1.7774237625121403 5.24111548764377  1.7774237625121403 5.24111548764377  C 2.292255315254957 4.71975449745767  2.987403110851377 4.1983710047470675  3.818989129281865 4.1983710047470675  C 5.556945966687033 4.1983710047470675  7 5.7217394076398085  7 10.096867742349803  C 7 14.46301756978361  5.556945966687033 16.00000000000003  3.818989129281865 16.00000000000003  C 2.8422591627446536 16.00000000000003  2.07665031310247 15.4922080320886  1.526704697888872 14.680646985083667  Z M 1.7774237625121403 6.515155919054655  C 1.7774237625121403 6.515155919054655  1.7774237625121403 13.587999403683101  1.7774237625121403 13.587999403683101  C 2.2482899468214534 14.245343149434577  2.930248131887759 14.680646985083667  3.3922047779582516 14.680646985083667  C 4.663706525966369 14.680646985083667  5.473237069835057 13.587999403683101  5.473237069835057 10.096867742349803  C 5.473237069835057 6.596780076264834  4.729800159306869 5.508655502289135  3.4361701463917553 5.508655502289135  C 2.758637614306838 5.508655502289135  2.226307262604688 6.052699037173205  1.7774237625121403 6.515155919054655  Z " fill-rule="nonzero" fill="#efebdf" stroke="none" transform="matrix(1 0 0 1 3075 250 )" />
  </g>
</svg>