<?xml version="1.0" encoding="utf-8"?>
<svg version="1.1" xmlns:xlink="http://www.w3.org/1999/xlink" width="7px" height="12px" xmlns="http://www.w3.org/2000/svg">
  <g transform="matrix(1 0 0 1 -3087 -254 )">
    <path d="M 7 0  L 7 11.76998432982324  L 5.417093234785991 11.76998432982324  C 5.417093234785991 11.76998432982324  5.417093234785991 10.478839436028935  5.417093234785991 10.478839436028935  C 4.618287701795133 11.272297962488665  3.456455728064314 11.999999999999972  2.6625356109057745 11.999999999999972  C 0.9827534523986888 11.999999999999972  0 11.089164665013563  0 8.915487843476877  C 0 8.915487843476877  0 0  0 0  L 1.6846835920963512 0  C 1.6846835920963512 0  1.6846835920963512 8.690132448916568  1.6846835920963512 8.690132448916568  C 1.6846835920963512 10.051631970267412  2.100921021017615 10.633809134528521  3.011065981716875 10.633809134528521  C 3.8243836023935103 10.633809134528521  4.56994611168953 10.09386960160473  5.3202498770065105 9.19249462611968  C 5.3202498770065105 9.19249462611968  5.3202498770065105 0  5.3202498770065105 0  L 7 0  Z " fill-rule="nonzero" fill="#efebdf" stroke="none" transform="matrix(1 0 0 1 3087 254 )" />
  </g>
</svg>