<?xml version="1.0" encoding="utf-8"?>
<svg version="1.1" xmlns:xlink="http://www.w3.org/1999/xlink" width="8px" height="16px" xmlns="http://www.w3.org/2000/svg">
  <g transform="matrix(1 0 0 1 -3105 -254 )">
    <path d="M 8.000000000000057 0  C 8.000000000000057 0  8.000000000000057 1.508403239753639  8.000000000000057 1.508403239753639  C 7.824671411462266 1.4610262816749873  7.69111533209755 1.4610262816749873  7.534247202325159 1.4610262816749873  C 7.114538755520974 1.4610262816749873  6.824236599003745 1.6412580556082388  6.538297823649278 1.9163693099410635  C 6.759579223592828 2.6516185770334024  6.8932268424224965 3.2398399644495948  6.8932268424224965 4.202768593440108  C 6.8932268424224965 7.172260896989715  5.560717364273673 8.457764063808172  3.780946060370277 8.457764063808172  C 3.425925502132107 8.457764063808172  3.0708744307389524 8.362900278939016  2.715792846190814 8.362900278939016  C 2.448436582221567 8.434016726530428  1.9182400012205831 8.685443425706477  1.9182400012205831 9.140817845033155  C 1.9182400012205831 9.985174590702233  3.2277425605114574 10.032606483136869  4.712390629410161 10.355165325434514  C 6.381521233341725 10.720400314499173  7.870807301797988 11.270669909755606  7.870807301797988 13.21077870920943  C 7.870807301797988 14.766660927988388  6.4045891785095845 16  3.960851622155602 16  C 1.337208504016294 16  0 14.99427750776561  0 13.443213816775256  C 0 12.385413555150386  0.6456278463052384 11.517340863264032  1.6922595754094485 11.066706494074678  C 1.000617891388425 10.834271386508867  0.4473533652195803 10.260332931625841  0.4473533652195803 9.458605246132876  C 0.4473533652195803 8.56681660802916  1.2035608851866262 8.021381236091734  1.959768405153672 7.883747131273997  C 1.0466012159492262 7.224401448501292  0.581031497204289 5.711203224254347  0.581031497204289 4.477903391068331  C 0.581031497204289 1.6412580556082388  1.9182400012205831 0  3.9377226506778302 0  C 4.693930170644819 0  5.666842117307882 0.33676329717966036  6.044961133868896 1.0909806125867216  C 6.4045891785095845 0.4553665715615776  7.022480566934476 0  8.000000000000057 0  Z M 6.4045891785095845 13.073160299921993  C 6.4045891785095845 11.97747102825833  4.3988374487951685 11.792452117596858  3.020131054000713 11.474664716497033  C 2.0934465371383237 11.882544461268091  1.470856122845962 12.432798360994223  1.470856122845962 13.09221467365311  C 1.470856122845962 14.078835705565586  2.2685920467461536 14.766660927988388  4.002349512933764 14.766660927988388  C 5.782212356302111 14.766660927988388  6.4045891785095845 14.031419508661264  6.4045891785095845 13.073160299921993  Z M 2.0472496204926918 4.226476691892283  C 2.0472496204926918 6.489136485878668  2.8034266273046966 7.224401448501292  3.734749143724645 7.224401448501292  C 4.66625473907444 7.224401448501292  5.4224317458864455 6.489136485878668  5.4224317458864455 4.226476691892283  C 5.4224317458864455 1.959108238829045  4.66625473907444 1.2285362397531778  3.734749143724645 1.2285362397531778  C 2.8034266273046966 1.2285362397531778  2.0472496204926918 1.959108238829045  2.0472496204926918 4.226476691892283  Z " fill-rule="nonzero" fill="#efebdf" stroke="none" transform="matrix(1 0 0 1 3105 254 )" />
  </g>
</svg>