<?xml version="1.0" encoding="utf-8"?>
<svg version="1.1" xmlns:xlink="http://www.w3.org/1999/xlink" width="22px" height="41px" xmlns="http://www.w3.org/2000/svg">
  <g transform="matrix(1 0 0 1 -3147 -808 )">
    <path d="M 0 41  L 0 0  C 0 0  11.172069311556207 0  11.172069311556207 0  C 17.461301235972343 0  21.067289004687293 4.088224990872716  21.067289004687293 10.103782021246248  C 21.067289004687293 14.196976393222604  19.207145690045746 17.89395352549653  14.663292454175082 19.195719266920268  C 14.663292454175082 19.195719266920268  14.663292454175082 19.307530341752113  14.663292454175082 19.307530341752113  C 19.733398634601297 20.609296083175792  22 24.529652956279204  22 29.645297490329515  C 22 37.257662114603214  17.690644181953477 41  8.493607015275698 41  C 8.493607015275698 41  0 41  0 41  Z M 4.533389037008599 3.742459089813951  L 4.533389037008599 17.59912378075008  C 4.533389037008599 17.59912378075008  7.097024605122632 17.59912378075008  7.097024605122632 17.59912378075008  C 13.615909985871781 17.59912378075008  16.528652342730037 15.676821724561483  16.528652342730037 10.103782021246248  C 16.528652342730037 5.451017156337496  14.439197133142606 3.742459089813951  9.077242272879321 3.742459089813951  C 9.077242272879321 3.742459089813951  4.533389037008599 3.742459089813951  4.533389037008599 3.742459089813951  Z M 4.533389037008599 21.356824326022146  L 4.533389037008599 37.257662114603214  C 4.533389037008599 37.257662114603214  9.077242272879321 37.257662114603214  9.077242272879321 37.257662114603214  C 14.553899657168344 37.257662114603214  17.461301235972343 34.93356741552274  17.461301235972343 29.645297490329515  C 17.461301235972343 24.245004382574354  15.017615816832766 21.356824326022146  9.077242272879321 21.356824326022146  C 9.077242272879321 21.356824326022146  4.533389037008599 21.356824326022146  4.533389037008599 21.356824326022146  Z " fill-rule="nonzero" fill="#7f7f7f" stroke="none" transform="matrix(1 0 0 1 3147 808 )" />
  </g>
</svg>