<?xml version="1.0" encoding="utf-8"?>
<svg version="1.1" xmlns:xlink="http://www.w3.org/1999/xlink" width="19px" height="39px" xmlns="http://www.w3.org/2000/svg">
  <g transform="matrix(1 0 0 1 -3206 -819 )">
    <path d="M 0 0  L 4.292436187803591 0  L 9.963888938568923 22.490249845769444  L 10.083193642111961 22.490249845769444  L 14.71256830778786 0  L 19 0  C 19 0  12.11007614052265 28.7591073336436  12.11007614052265 28.7591073336436  C 10.539560391319688 35.21540944926936  7.646529452220724 39  2.612902753773346 39  C 2.612902753773346 39  0.4717509393591059 39  0.4717509393591059 39  L 0.4717509393591059 35.60513266920136  C 0.4717509393591059 35.60513266920136  1.7419042772340974 35.60513266920136  1.7419042772340974 35.60513266920136  C 5.039156357156502 35.60513266920136  7.1852817752139835 33.28250167373009  7.99903747193304 29.1538053587194  C 7.99903747193304 29.1538053587194  0 0  0 0  Z " fill-rule="nonzero" fill="#7f7f7f" stroke="none" transform="matrix(1 0 0 1 3206 819 )" />
  </g>
</svg>