<?xml version="1.0" encoding="utf-8"?>
<svg version="1.1" xmlns:xlink="http://www.w3.org/1999/xlink" width="19px" height="31px" xmlns="http://www.w3.org/2000/svg">
  <g transform="matrix(1 0 0 1 -3231 -819 )">
    <path d="M 18.653451305861676 16  L 4.222267424528162 16  C 4.222267424528162 16  4.222267424528162 17.848573937800747  4.222267424528162 17.848573937800747  C 4.222267424528162 25.14108290039249  5.923685697203478 27.556709076593787  9.91497281547967 27.556709076593787  C 13.144722777185756 27.556709076593787  14.489046310036942 24.63234949810474  15.01935280912201 21.923953557524083  C 15.01935280912201 21.923953557524083  19 22.396886975025264  19 22.396886975025264  C 18.364702452618616 26.878346832789504  14.903784421235715 31.000000000000057  9.321515217896218 31.000000000000057  C 2.9302360054484335 31.000000000000057  0 26.29752346969118  0 15.50004593667851  C 0 4.712735721843039  2.9302360054484335 0  9.321515217896218 0  C 15.781015141308448 0  18.653451305861676 5.617412668446836  18.653451305861676 14.240860329775957  C 18.653451305861676 14.240860329775957  18.653451305861676 16  18.653451305861676 16  Z M 4.222267424528162 12.735056008171789  C 4.222267424528162 12.735056008171789  14.42608297496323 12.735056008171789  14.42608297496323 12.735056008171789  C 14.310451999268711 6.311025889516855  13.144722777185756 3.4434134212156327  9.321515217896218 3.4434134212156327  C 6.280780437027606 3.4434134212156327  4.280098559327477 5.617412668446836  4.222267424528162 12.735056008171789  Z " fill-rule="nonzero" fill="#7f7f7f" stroke="none" transform="matrix(1 0 0 1 3231 819 )" />
  </g>
</svg>