<?xml version="1.0" encoding="utf-8"?>
<svg version="1.1" xmlns:xlink="http://www.w3.org/1999/xlink" width="9px" height="20px" xmlns="http://www.w3.org/2000/svg">
  <g transform="matrix(1 0 0 1 -3236 -208 )">
    <path d="M 1.7031400500866887 0.28730671164046245  L 1.7031400500866887 1.7194646900304718  C 1.7031400500866887 1.7194646900304718  1.7529327074187104 1.7194646900304718  1.7529327074187104 1.7194646900304718  C 2.4351255715864504 0.6613036387552013  3.451723124030514 0  4.752902290401404 0  C 7.075302395847063 0  9 2.0022806750214652  9 7.717225467870343  C 9 13.432131878440252  7.075302395847063 15.429891120989062  4.752902290401404 15.429891120989062  C 3.6504983321335507 15.429891120989062  2.7152054669519106 14.745696291005256  2.0421377079763556 14.06155519621213  C 2.0421377079763556 14.06155519621213  2.0421377079763556 20.000000000000043  2.0421377079763556 20.000000000000043  L 0 20.000000000000043  L 0 0.28730671164046245  L 1.7031400500866887 0.28730671164046245  Z M 2.0421377079763556 3.147070530124524  C 2.0421377079763556 3.147070530124524  2.0421377079763556 12.401375774410457  2.0421377079763556 12.401375774410457  C 2.633992030741522 13.003386468481033  3.3388759898204383 13.7148864517848  4.242413488933275 13.7148864517848  C 5.968396719017734 13.7148864517848  6.962303176550508 12.287326670425557  6.962303176550508 7.717225467870343  C 6.962303176550508 3.147070530124524  5.886970363686137 1.7194646900304718  4.1882407811090046 1.7194646900304718  C 3.5692240618884914 1.7194646900304718  2.66103275912764 2.2895720337503054  2.0421377079763556 3.147070530124524  Z " fill-rule="nonzero" fill="#efebdf" stroke="none" transform="matrix(1 0 0 1 3236 208 )" />
  </g>
</svg>