<?xml version="1.0" encoding="utf-8"?>
<svg version="1.1" xmlns:xlink="http://www.w3.org/1999/xlink" width="9px" height="15px" xmlns="http://www.w3.org/2000/svg">
  <g transform="matrix(1 0 0 1 -3249 -208 )">
    <path d="M 0 7.502216387035363  C 0 2.2745802546034186  1.4141801259239548 0  4.495422331721264 0  C 7.5813182467986735 0  9 2.2745802546034186  9 7.502216387035363  C 9 12.725382432483569  7.5813182467986735 15.000000000000057  4.495422331721264 15.000000000000057  C 1.4141801259239548 15.000000000000057  0 12.725382432483569  0 7.502216387035363  Z M 2.0331538765702466 7.502216387035363  C 2.0331538765702466 12.277530462262273  2.76965659883815 13.332776956340949  4.495422331721264 13.332776956340949  C 6.225841773884479 13.332776956340949  6.95796453447699 12.277530462262273  6.95796453447699 7.502216387035363  C 6.95796453447699 2.7224023744942856  6.225841773884479 1.671558804155962  4.495422331721264 1.671558804155962  C 2.76965659883815 1.671558804155962  2.0331538765702466 2.7224023744942856  2.0331538765702466 7.502216387035363  Z " fill-rule="nonzero" fill="#efebdf" stroke="none" transform="matrix(1 0 0 1 3249 208 )" />
  </g>
</svg>