<?xml version="1.0" encoding="utf-8"?>
<svg version="1.1" xmlns:xlink="http://www.w3.org/1999/xlink" width="9px" height="21px" xmlns="http://www.w3.org/2000/svg">
  <g transform="matrix(1 0 0 1 -3125 -569 )">
    <path d="M 0 21.000000000000057  L 0 0  L 2.159549747595333 0  C 2.159549747595333 0  2.159549747595333 7.5332578438584195  2.159549747595333 7.5332578438584195  C 3.0559784558892695 6.5130791307319384  4.562254606516884 5.583531951740795  5.5767021206178145 5.583531951740795  C 7.74264821156707 5.583531951740795  9.000000000000059 6.742387098829402  9.000000000000059 9.537292717679046  C 9.000000000000059 9.537292717679046  9.000000000000059 21.000000000000057  9.000000000000059 21.000000000000057  L 6.840262124659018 21.000000000000057  C 6.840262124659018 21.000000000000057  6.840262124659018 9.826930484040057  6.840262124659018 9.826930484040057  C 6.840262124659018 8.088571742996042  6.2987677632656185 7.327987529756561  5.128644539592181 7.327987529756561  C 4.0766968948471 7.327987529756561  3.118217385094012 8.022145107760743  2.159549747595333 9.187173112232191  C 2.159549747595333 9.187173112232191  2.159549747595333 21.000000000000057  2.159549747595333 21.000000000000057  L 0 21.000000000000057  Z " fill-rule="nonzero" fill="#7f7f7f" stroke="none" transform="matrix(1 0 0 1 3125 569 )" />
  </g>
</svg>