<?xml version="1.0" encoding="utf-8"?>
<svg version="1.1" xmlns:xlink="http://www.w3.org/1999/xlink" width="9px" height="16px" xmlns="http://www.w3.org/2000/svg">
  <g transform="matrix(1 0 0 1 -3204 -575 )">
    <path d="M 8.83267661267686 8.353333133351432  L 1.9946365123777055 8.353333133351432  C 1.9946365123777055 8.353333133351432  1.9946365123777055 9.207779552885718  1.9946365123777055 9.207779552885718  C 1.9946365123777055 12.969709519878975  2.8020059830963007 14.223541672512882  4.687320289279802 14.223541672512882  C 6.22082272414828 14.223541672512882  6.861014028327734 12.705268974005875  7.114453340562101 11.309988997771464  C 7.114453340562101 11.309988997771464  9 11.555850582576197  9 11.555850582576197  C 8.694339293839734 13.867011409610964  7.05104994626831 16  4.41038425419446 16  C 1.3836926740955167 16  0 13.571915577975  0 7.996864800319684  C 0 2.427914114881902  1.3836926740955167 0  4.41038425419446 0  C 7.466265211877124 0  8.83267661267686 2.90127507796871  8.83267661267686 7.351493622674877  C 8.83267661267686 7.351493622674877  8.83267661267686 8.353333133351432  8.83267661267686 8.353333133351432  Z M 1.9946365123777055 6.570898573387438  C 1.9946365123777055 6.570898573387438  6.831940827371214 6.570898573387438  6.831940827371214 6.570898573387438  C 6.774346264437367 3.2578053408707435  6.22082272414828 1.7764428450195608  4.41038425419446 1.7764428450195608  C 2.9691551054786958 1.7764428450195608  2.023622580863773 2.90127507796871  1.9946365123777055 6.570898573387438  Z " fill-rule="nonzero" fill="#7f7f7f" stroke="none" transform="matrix(1 0 0 1 3204 575 )" />
  </g>
</svg>