<?xml version="1.0" encoding="utf-8"?>
<svg version="1.1" xmlns:xlink="http://www.w3.org/1999/xlink" width="9px" height="15px" xmlns="http://www.w3.org/2000/svg">
  <g transform="matrix(1 0 0 1 -3218 -575 )">
    <path d="M 0 15  L 0 0.2818412682758175  L 2.035053615100019 0.2818412682758175  C 2.035053615100019 0.2818412682758175  2.035053615100019 1.8970290194531148  2.035053615100019 1.8970290194531148  C 3.062143349846366 0.9044897556646149  4.555966639493322 0  5.576754248448042 0  C 7.742490750611401 0  9 1.12760176532952  9 3.8469143716561063  C 9 3.8469143716561063  9 15  9 15  L 6.8336677745031 15  C 6.8336677745031 15  6.8336677745031 4.128726053403656  6.8336677745031 4.128726053403656  C 6.8336677745031 2.4373529919377264  6.298551451683703 1.697364333440201  5.128456763027528 1.697364333440201  C 4.076691540728664 1.697364333440201  3.1120586944252837 2.3727508074656676  2.1657365021634165 3.5063142582410807  C 2.1657365021634165 3.5063142582410807  2.1657365021634165 15  2.1657365021634165 15  L 0 15  Z " fill-rule="nonzero" fill="#7f7f7f" stroke="none" transform="matrix(1 0 0 1 3218 575 )" />
  </g>
</svg>