<?xml version="1.0" encoding="utf-8"?>
<svg version="1.1" xmlns:xlink="http://www.w3.org/1999/xlink" width="14px" height="15px" xmlns="http://www.w3.org/2000/svg">
  <g transform="matrix(1 0 0 1 -3264 -208 )">
    <path d="M 1.988069416620815 14.999999999999957  L 0 14.999999999999957  L 0 0.28460240678010784  L 1.8201787463115249 0.28460240678010784  C 1.8201787463115249 0.28460240678010784  1.8201787463115249 1.8975445530098947  1.8201787463115249 1.8975445530098947  C 2.5977995551524486 0.9668132418531132  3.790492497710968 0  5.168950741731337 0  C 6.304242622518976 0  7.38668388840146 0.7680394445080944  7.744295477382664 1.8704431829357688  C 8.5485349133142 0.9668132418531132  9.683678086687925 0  11.09746921225434 0  C 12.979450759788666 0  14 1.3057096391857623  14 3.397579532331539  C 14 3.397579532331539  14 14.999999999999957  14 14.999999999999957  L 12.007528843927375 14.999999999999957  C 12.007528843927375 14.999999999999957  12.007528843927375 3.682227564313792  12.007528843927375 3.682227564313792  C 12.007528843927375 2.1505667157053097  11.56586782460173 1.7032800464768725  10.514417183778995 1.7032800464768725  C 9.29507587264697 1.7032800464768725  8.601504494150488 2.575291722473048  7.996205836553558 3.225884292459573  C 7.996205836553558 3.225884292459573  7.996205836553558 14.999999999999957  7.996205836553558 14.999999999999957  L 6.00391312937763 14.999999999999957  C 6.00391312937763 14.999999999999957  6.00391312937763 3.682227564313792  6.00391312937763 3.682227564313792  C 6.00391312937763 2.1505667157053097  5.4738009402557894 1.7032800464768725  4.426633072953733 1.7032800464768725  C 3.2074107277528396 1.7032800464768725  2.5138096077736294 2.575291722473048  1.988069416620815 3.225884292459573  C 1.988069416620815 3.225884292459573  1.988069416620815 14.999999999999957  1.988069416620815 14.999999999999957  Z " fill-rule="nonzero" fill="#efebdf" stroke="none" transform="matrix(1 0 0 1 3264 208 )" />
  </g>
</svg>