<?xml version="1.0" encoding="utf-8"?>
<svg version="1.1" xmlns:xlink="http://www.w3.org/1999/xlink" width="14px" height="23px" xmlns="http://www.w3.org/2000/svg">
  <g transform="matrix(1 0 0 1 -2898 -331 )">
    <path d="M 13.743691075216907 12  L 3.103585077621794 12  C 3.103585077621794 12  3.103585077621794 13.242606358987556  3.103585077621794 13.242606358987556  C 3.103585077621794 18.65016967935886  4.365415986949401 20.439337249297083  7.300354601781433 20.439337249297083  C 9.675328753379468 20.439337249297083  10.673881242867813 18.270975539779947  11.058398241542784 16.269077520718373  C 11.058398241542784 16.269077520718373  14.000000000000057 16.601506597766363  14.000000000000057 16.601506597766363  C 13.527774586617008 19.933860830755947  10.977444875889406 22.99999999999997  6.868429719152298 22.99999999999997  C 2.152333249086661 22.99999999999997  0 19.50146897877911  0 11.493363498552688  C 0 3.4852278180921723  2.152333249086661 0  6.868429719152298 0  C 11.625025848401995 0  13.743691075216907 4.170350329281087  13.743691075216907 10.555555628503008  C 13.743691075216907 10.555555628503008  13.743691075216907 12  13.743691075216907 12  Z M 3.103585077621794 9.451389768817208  C 3.103585077621794 9.451389768817208  10.61982553286002 9.451389768817208  10.61982553286002 9.451389768817208  C 10.545642533832687 4.689069550482702  9.675328753379468 2.5539884989630437  6.868429719152298 2.5539884989630437  C 4.621740229304046 2.5539884989630437  3.1507938331456646 4.170350329281087  3.103585077621794 9.451389768817208  Z " fill-rule="nonzero" fill="#7f7f7f" stroke="none" transform="matrix(1 0 0 1 2898 331 )" />
  </g>
</svg>