<?xml version="1.0" encoding="utf-8"?>
<svg version="1.1" xmlns:xlink="http://www.w3.org/1999/xlink" width="14px" height="15px" xmlns="http://www.w3.org/2000/svg">
  <g transform="matrix(1 0 0 1 -3285 -208 )">
    <path d="M 1.9917768537120966 14.999999999999957  L 0 14.999999999999957  L 0 0.28460240678010784  L 1.8240561008864518 0.28460240678010784  C 1.8240561008864518 0.28460240678010784  1.8240561008864518 1.8975445530098947  1.8240561008864518 1.8975445530098947  C 2.6013218197958654 0.9668132418531132  3.789311608822892 0  5.171692158703325 0  C 6.302357783318397 0  7.388781521706813 0.7680394445080944  7.746522365173956 1.8704431829357688  C 8.54573063249417 0.9668132418531132  9.68522679488432 0  11.094009760738778 0  C 12.975538688289237 0  14 1.3057096391857623  14 3.397579532331539  C 14 3.397579532331539  14 14.999999999999957  14 14.999999999999957  L 12.003852476075995 14.999999999999957  C 12.003852476075995 14.999999999999957  12.003852476075995 3.682227564313792  12.003852476075995 3.682227564313792  C 12.003852476075995 2.1505667157053097  11.562236389970874 1.7032800464768725  10.515475740444204 1.7032800464768725  C 9.296504738078404 1.7032800464768725  8.598773324045483 2.575291722473048  7.998267022889794 3.225884292459573  C 7.998267022889794 3.225884292459573  7.998267022889794 14.999999999999957  7.998267022889794 14.999999999999957  L 6.002089766515314 14.999999999999957  C 6.002089766515314 14.999999999999957  6.002089766515314 3.682227564313792  6.002089766515314 3.682227564313792  C 6.002089766515314 2.1505667157053097  5.476479507970476 1.7032800464768725  4.4251995259797905 1.7032800464768725  C 3.206258256064358 1.7032800464768725  2.5173871122570457 2.575291722473048  1.9917768537120966 3.225884292459573  C 1.9917768537120966 3.225884292459573  1.9917768537120966 14.999999999999957  1.9917768537120966 14.999999999999957  Z " fill-rule="nonzero" fill="#efebdf" stroke="none" transform="matrix(1 0 0 1 3285 208 )" />
  </g>
</svg>