<?xml version="1.0" encoding="utf-8"?>
<svg version="1.1" xmlns:xlink="http://www.w3.org/1999/xlink" width="14px" height="32px" xmlns="http://www.w3.org/2000/svg">
  <g transform="matrix(1 0 0 1 -2919 -323 )">
    <path d="M 11.112512215814512 31.563179916317992  L 10.986670532770601 29.372044010537763  C 10.986670532770601 29.372044010537763  10.907181288057018 29.372044010537763  10.907181288057018 29.372044010537763  C 9.841000032217504 30.989756702309002  8.311234253680881 32.00000000000006  6.357530848287638 32.00000000000006  C 2.8807070674527466 32.00000000000006  0 28.935115450178213  0 20.191166899116748  C 0 11.453974895397518  2.8807070674527466 8.396032852936619  6.357530848287638 8.396032852936619  C 8.013183414414152 8.396032852936619  9.410417002265966 9.440337827367117  10.437071641053727 10.49146133581277  C 10.437071641053727 10.49146133581277  10.437071641053727 0  10.437071641053727 0  L 13.49010814351837 0  C 13.49010814351837 0  13.49010814351837 25.43345730667909  13.49010814351837 25.43345730667909  C 13.49010814351837 28.409576940957667  13.655536583008473 30.252626685262697  13.999999999999972 31.563179916317992  C 13.999999999999972 31.563179916317992  11.112512215814512 31.563179916317992  11.112512215814512 31.563179916317992  Z M 10.437071641053727 27.194607159460716  C 10.437071641053727 27.194607159460716  10.437071641053727 13.023973345730697  10.437071641053727 13.023973345730697  C 9.542949192950775 12.109220517588776  8.48335320081191 11.017046335037996  7.1258416830439115 11.017046335037996  C 4.536344598730602 11.017046335037996  3.052961328221485 13.20816674414998  3.052961328221485 20.191166899116748  C 3.052961328221485 27.194607159460716  4.662156212077251 29.372044010537763  7.211871086912164 29.372044010537763  C 8.138964958063568 29.372044010537763  9.496566684923268 28.50516039051601  10.437071641053727 27.194607159460716  Z " fill-rule="nonzero" fill="#7f7f7f" stroke="none" transform="matrix(1 0 0 1 2919 323 )" />
  </g>
</svg>