<?xml version="1.0" encoding="utf-8"?>
<svg version="1.1" xmlns:xlink="http://www.w3.org/1999/xlink" width="13px" height="23px" xmlns="http://www.w3.org/2000/svg">
  <g transform="matrix(1 0 0 1 -2976 -331 )">
    <path d="M 12.492692120930382 5.281114940121527  C 12.492692120930382 5.281114940121527  9.962525113283057 6.046011369731619  9.962525113283057 6.046011369731619  C 9.415606711604033 4.12373626792072  8.611848176539736 2.5539884989630437  6.154140901339633 2.5539884989630437  C 4.730914480209725 2.5539884989630437  3.7096570785513854 3.704723119657923  3.7096570785513854 5.2013259215831225  C 3.7096570785513854 9.70416572838038  12.999999999999973 9.96367634015183  12.999999999999973 16.867646160926572  C 12.999999999999973 20.359457630056294  10.469803075039525 22.99999999999997  7.004106726562662 22.99999999999997  C 3.0375347213432136 22.99999999999997  1.0542711567183929 20.83163829048292  0 17.120391920255624  C 0 17.120391920255624  2.787201603567985 16.52176287957925  2.787201603567985 16.52176287957925  C 3.419713438166639 18.483796589605735  4.55954811049157 20.439337249297083  6.799891147006745 20.439337249297083  C 8.44045188950846 20.439337249297083  9.962525113283057 18.90952928995967  9.962525113283057 17.07383825936355  C 9.962525113283057 11.965574359213402  0.6785844968483261 11.879171489403358  0.6785844968483261 5.367548010165661  C 0.6785844968483261 2.474229680658757  3.0375347213432136 0  6.3715649746508305 0  C 9.751667890208065 0  11.767975127206114 1.9621243107288957  12.492692120930382 5.281114940121527  Z " fill-rule="nonzero" fill="#7f7f7f" stroke="none" transform="matrix(1 0 0 1 2976 331 )" />
  </g>
</svg>