<?xml version="1.0" encoding="utf-8"?>
<svg version="1.1" xmlns:xlink="http://www.w3.org/1999/xlink" width="14px" height="23px" xmlns="http://www.w3.org/2000/svg">
  <g transform="matrix(1 0 0 1 -3080 -331 )">
    <path d="M 13.7500216189354 12  L 3.1048534783498676 12  C 3.1048534783498676 12  3.1048534783498676 13.242606358987556  3.1048534783498676 13.242606358987556  C 3.1048534783498676 18.65016967935886  4.36069141186431 20.439337249297083  7.30373016941583 20.439337249297083  C 9.679720125094274 20.439337249297083  10.678959357496188 18.270975539779947  11.06367351138579 16.269077520718373  C 11.06367351138579 16.269077520718373  14.000000000000057 16.601506597766363  14.000000000000057 16.601506597766363  C 13.527321408438063 19.933860830755947  10.982574590800075 22.99999999999997  6.871631687776656 22.99999999999997  C 2.166974804909633 22.99999999999997  0 19.50146897877911  0 11.493363498552688  C 0 3.4852278180921723  2.166974804909633 0  6.871631687776656 0  C 11.630569065109665 0  13.7500216189354 4.170350329281087  13.7500216189354 10.555555628503008  C 13.7500216189354 10.555555628503008  13.7500216189354 12  13.7500216189354 12  Z M 3.1048534783498676 9.451389768817208  C 3.1048534783498676 9.451389768817208  10.631636329006263 9.451389768817208  10.631636329006263 9.451389768817208  C 10.543794489853331 4.689069550482702  9.679720125094274 2.5539884989630437  6.871631687776656 2.5539884989630437  C 4.630622701961904 2.5539884989630437  3.15239105424875 4.170350329281087  3.1048534783498676 9.451389768817208  Z " fill-rule="nonzero" fill="#7f7f7f" stroke="none" transform="matrix(1 0 0 1 3080 331 )" />
  </g>
</svg>