<?xml version="1.0" encoding="utf-8"?>
<svg version="1.1" xmlns:xlink="http://www.w3.org/1999/xlink" width="9px" height="15px" xmlns="http://www.w3.org/2000/svg">
  <g transform="matrix(1 0 0 1 -3304 -208 )">
    <path d="M 8.831719353169813 7.8303088315188205  L 1.9995489699269067 7.8303088315188205  C 1.9995489699269067 7.8303088315188205  1.9995489699269067 8.637267739553835  1.9995489699269067 8.637267739553835  C 1.9995489699269067 12.166688722744162  2.806448403486197 13.332776956340949  4.695083772203282 13.332776956340949  C 6.224742315906769 13.332776956340949  6.858704880410702 11.91396836262976  7.111454174018015 10.614799893334848  C 7.111454174018015 10.614799893334848  9 10.832095373795788  9 10.832095373795788  C 8.689764270458856 13.000266662952015  7.058355332104055 15.000000000000057  4.4158596765849065 15.000000000000057  C 1.3876736134141652 15.000000000000057  0 12.725382432483569  0 7.502216387035363  C 0 2.2745802546034186  1.3876736134141652 0  4.4158596765849065 0  C 7.474937983365005 0  8.831719353169813 2.7224023744942856  8.831719353169813 6.8858966143755485  C 8.831719353169813 6.8858966143755485  8.831719353169813 7.8303088315188205  8.831719353169813 7.8303088315188205  Z M 1.9995489699269067 6.167593187756588  C 1.9995489699269067 6.167593187756588  6.832110688086173 6.167593187756588  6.832110688086173 6.167593187756588  C 6.778922303437115 3.059390217449707  6.224742315906769 1.671558804155962  4.4158596765849065 1.671558804155962  C 2.970490694188345 1.671558804155962  2.0307396893199288 2.7224023744942856  1.9995489699269067 6.167593187756588  Z " fill-rule="nonzero" fill="#efebdf" stroke="none" transform="matrix(1 0 0 1 3304 208 )" />
  </g>
</svg>