<?xml version="1.0" encoding="utf-8"?>
<svg version="1.1" xmlns:xlink="http://www.w3.org/1999/xlink" width="39px" height="30px" xmlns="http://www.w3.org/2000/svg">
  <defs>
    <mask fill="white" id="clip1113">
      <path d="M 3.9881443616551215 2.33950946256115  C 3.0009009138172558 0.6439251868754732  0.34795616560226855 -1.3886772225268813  0.018875016322980262 1.3180233634951448  C -0.18875016323011223 3.0317315535130542  1.3428161132213954 5.383228182299854  3.3299971751992286 6.059911067453699  C 5.312115682758989 6.736617168552375  8.947286660701934 8.095167833224906  9.605448959260512 9.782951551418474  C 10.26868892433993 11.473381887332504  10.60284774014006 13.850772033350479  12.250822544002375 15.204106849064887  C 13.908937568803688 16.55747261937249  14.23297127576759 16.89969112475065  15.225277278023524 18.590075028774844  C 16.222676058903076 20.283074595926507  16.222676058903076 22.31307681949812  17.212443227898675 24.006060909353057  C 18.21239595414133 25.704229893572922  20.18691307402262 26.720546575570737  22.508283176006035 26.380912778726763  C 24.816959111687353 26.046463876247635  25.151057479076574 27.052395292219156  25.809265113943287 28.071296682751075  C 26.470011582070505 29.087613364748805  27.793922454763468 30.10651475528072  28.781165902601337 28.413546142722346  C 29.776071186528686 26.720546575570737  31.10502950153695 27.726477991542176  32.09233339778581 29.087613364748805  C 33.084639400041745 30.438347994632476  34.07949934766087 30.438347994632476  35.398408114346694 28.071296682751075  C 36.719810377984686 25.704229893572922  38.37791029068323 26.046463876247635  37.71211638024071 23.669058252933134  C 37.05140013631892 21.294175428966202  37.05140013631892 21.294175428966202  38.04375147488311 19.601222293704375  C 39.036057477139124 17.915976852155186  38.70197422185267 17.915976852155186  38.04375147488311 16.89969112475065  C 37.3880826732767 15.880820688811925  37.71211638024071 16.55747261937249  38.70197422185267 14.527439441207683  C 39.69680394526626 12.49485250910197  38.04375147488311 11.141486738794367  36.06671063384427 10.796683524882106  C 34.07949934766087 10.46481933093716  34.07949934766087 12.49485250910197  32.75808197192019 12.834439874056079  C 31.43161715386404 13.168935208424987  30.10512211160252 14.527439441207683  29.120432609127757 12.155203234961355  C 28.120464770782338 9.782951551418474  25.151057479076574 8.771850718378781  23.492972678480715 9.108868852095341  C 21.84247415346075 9.445917940405243  19.526181717998064 8.771850718378781  18.868049643645048 7.4133000537062195  C 18.21239595414133 6.059911067453699  17.212443227898675 6.059911067453699  15.225277278023524 6.404783929200626  C 13.245742940032521 6.736617168552375  12.250822544002375 6.059911067453699  11.261040262904089 4.7065917290358446  C 10.26868892433993 3.3454408785326573  9.942131496218293 3.0083917902227855  8.284031583519749 3.0083917902227855  C 6.638610725020623 3.0083917902227855  4.975418033698439 4.029939798475279  3.9881443616551215 2.33950946256115  Z " fill-rule="evenodd" />
    </mask>
  </defs>
  <g transform="matrix(1 0 0 1 -2947 -271 )">
    <path d="M 3.9881443616551215 2.33950946256115  C 3.0009009138172558 0.6439251868754732  0.34795616560226855 -1.3886772225268813  0.018875016322980262 1.3180233634951448  C -0.18875016323011223 3.0317315535130542  1.3428161132213954 5.383228182299854  3.3299971751992286 6.059911067453699  C 5.312115682758989 6.736617168552375  8.947286660701934 8.095167833224906  9.605448959260512 9.782951551418474  C 10.26868892433993 11.473381887332504  10.60284774014006 13.850772033350479  12.250822544002375 15.204106849064887  C 13.908937568803688 16.55747261937249  14.23297127576759 16.89969112475065  15.225277278023524 18.590075028774844  C 16.222676058903076 20.283074595926507  16.222676058903076 22.31307681949812  17.212443227898675 24.006060909353057  C 18.21239595414133 25.704229893572922  20.18691307402262 26.720546575570737  22.508283176006035 26.380912778726763  C 24.816959111687353 26.046463876247635  25.151057479076574 27.052395292219156  25.809265113943287 28.071296682751075  C 26.470011582070505 29.087613364748805  27.793922454763468 30.10651475528072  28.781165902601337 28.413546142722346  C 29.776071186528686 26.720546575570737  31.10502950153695 27.726477991542176  32.09233339778581 29.087613364748805  C 33.084639400041745 30.438347994632476  34.07949934766087 30.438347994632476  35.398408114346694 28.071296682751075  C 36.719810377984686 25.704229893572922  38.37791029068323 26.046463876247635  37.71211638024071 23.669058252933134  C 37.05140013631892 21.294175428966202  37.05140013631892 21.294175428966202  38.04375147488311 19.601222293704375  C 39.036057477139124 17.915976852155186  38.70197422185267 17.915976852155186  38.04375147488311 16.89969112475065  C 37.3880826732767 15.880820688811925  37.71211638024071 16.55747261937249  38.70197422185267 14.527439441207683  C 39.69680394526626 12.49485250910197  38.04375147488311 11.141486738794367  36.06671063384427 10.796683524882106  C 34.07949934766087 10.46481933093716  34.07949934766087 12.49485250910197  32.75808197192019 12.834439874056079  C 31.43161715386404 13.168935208424987  30.10512211160252 14.527439441207683  29.120432609127757 12.155203234961355  C 28.120464770782338 9.782951551418474  25.151057479076574 8.771850718378781  23.492972678480715 9.108868852095341  C 21.84247415346075 9.445917940405243  19.526181717998064 8.771850718378781  18.868049643645048 7.4133000537062195  C 18.21239595414133 6.059911067453699  17.212443227898675 6.059911067453699  15.225277278023524 6.404783929200626  C 13.245742940032521 6.736617168552375  12.250822544002375 6.059911067453699  11.261040262904089 4.7065917290358446  C 10.26868892433993 3.3454408785326573  9.942131496218293 3.0083917902227855  8.284031583519749 3.0083917902227855  C 6.638610725020623 3.0083917902227855  4.975418033698439 4.029939798475279  3.9881443616551215 2.33950946256115  Z " fill-rule="nonzero" fill="#ffff80" stroke="none" transform="matrix(1 0 0 1 2947 271 )" />
    <path d="M 3.9881443616551215 2.33950946256115  C 3.0009009138172558 0.6439251868754732  0.34795616560226855 -1.3886772225268813  0.018875016322980262 1.3180233634951448  C -0.18875016323011223 3.0317315535130542  1.3428161132213954 5.383228182299854  3.3299971751992286 6.059911067453699  C 5.312115682758989 6.736617168552375  8.947286660701934 8.095167833224906  9.605448959260512 9.782951551418474  C 10.26868892433993 11.473381887332504  10.60284774014006 13.850772033350479  12.250822544002375 15.204106849064887  C 13.908937568803688 16.55747261937249  14.23297127576759 16.89969112475065  15.225277278023524 18.590075028774844  C 16.222676058903076 20.283074595926507  16.222676058903076 22.31307681949812  17.212443227898675 24.006060909353057  C 18.21239595414133 25.704229893572922  20.18691307402262 26.720546575570737  22.508283176006035 26.380912778726763  C 24.816959111687353 26.046463876247635  25.151057479076574 27.052395292219156  25.809265113943287 28.071296682751075  C 26.470011582070505 29.087613364748805  27.793922454763468 30.10651475528072  28.781165902601337 28.413546142722346  C 29.776071186528686 26.720546575570737  31.10502950153695 27.726477991542176  32.09233339778581 29.087613364748805  C 33.084639400041745 30.438347994632476  34.07949934766087 30.438347994632476  35.398408114346694 28.071296682751075  C 36.719810377984686 25.704229893572922  38.37791029068323 26.046463876247635  37.71211638024071 23.669058252933134  C 37.05140013631892 21.294175428966202  37.05140013631892 21.294175428966202  38.04375147488311 19.601222293704375  C 39.036057477139124 17.915976852155186  38.70197422185267 17.915976852155186  38.04375147488311 16.89969112475065  C 37.3880826732767 15.880820688811925  37.71211638024071 16.55747261937249  38.70197422185267 14.527439441207683  C 39.69680394526626 12.49485250910197  38.04375147488311 11.141486738794367  36.06671063384427 10.796683524882106  C 34.07949934766087 10.46481933093716  34.07949934766087 12.49485250910197  32.75808197192019 12.834439874056079  C 31.43161715386404 13.168935208424987  30.10512211160252 14.527439441207683  29.120432609127757 12.155203234961355  C 28.120464770782338 9.782951551418474  25.151057479076574 8.771850718378781  23.492972678480715 9.108868852095341  C 21.84247415346075 9.445917940405243  19.526181717998064 8.771850718378781  18.868049643645048 7.4133000537062195  C 18.21239595414133 6.059911067453699  17.212443227898675 6.059911067453699  15.225277278023524 6.404783929200626  C 13.245742940032521 6.736617168552375  12.250822544002375 6.059911067453699  11.261040262904089 4.7065917290358446  C 10.26868892433993 3.3454408785326573  9.942131496218293 3.0083917902227855  8.284031583519749 3.0083917902227855  C 6.638610725020623 3.0083917902227855  4.975418033698439 4.029939798475279  3.9881443616551215 2.33950946256115  Z " stroke-width="2" stroke="#000000" fill="none" transform="matrix(1 0 0 1 2947 271 )" mask="url(#clip1113)" />
  </g>
</svg>