<?xml version="1.0" encoding="utf-8"?>
<svg version="1.1" xmlns:xlink="http://www.w3.org/1999/xlink" width="11px" height="20px" xmlns="http://www.w3.org/2000/svg">
  <g transform="matrix(1 0 0 1 -2938 -246 )">
    <path d="M 0 19.99999999999997  L 0 0  C 0 0  5.58759007938754 0  5.58759007938754 0  C 8.731369787965583 0  10.535362562723215 1.9942510273091854  10.535362562723215 4.930977310132454  C 10.535362562723215 6.925266400025593  9.60012526466159 8.724119345993442  7.331479067577553 9.362010191637498  C 7.331479067577553 9.362010191637498  7.331479067577553 9.413744855841768  7.331479067577553 9.413744855841768  C 9.865636938833934 10.051688989103445  10.999999999999972 11.965475713787693  10.999999999999972 14.459747294892125  C 10.999999999999972 18.166662352907114  8.839908274878914 19.99999999999997  4.2480109512121755 19.99999999999997  C 4.2480109512121755 19.99999999999997  0 19.99999999999997  0 19.99999999999997  Z M 2.268869987778733 1.827574971871708  L 2.268869987778733 8.586180541493572  C 2.268869987778733 8.586180541493572  3.5540839621996874 8.586180541493572  3.5540839621996874 8.586180541493572  C 6.806402157691091 8.586180541493572  8.26065803183353 7.6436748359122  8.26065803183353 4.930977310132454  C 8.26065803183353 2.6608791238906377  7.216722396362384 1.827574971871708  4.53766005030931 1.827574971871708  C 4.53766005030931 1.827574971871708  2.268869987778733 1.827574971871708  2.268869987778733 1.827574971871708  Z M 2.268869987778733 10.413740288331743  L 2.268869987778733 18.166662352907114  C 2.268869987778733 18.166662352907114  4.53766005030931 18.166662352907114  4.53766005030931 18.166662352907114  C 7.271055580017496 18.166662352907114  8.731369787965583 17.03442227848718  8.731369787965583 14.459747294892125  C 8.731369787965583 11.827536909287728  7.506339525360311 10.413740288331743  4.53766005030931 10.413740288331743  C 4.53766005030931 10.413740288331743  2.268869987778733 10.413740288331743  2.268869987778733 10.413740288331743  Z " fill-rule="nonzero" fill="#efebdf" stroke="none" transform="matrix(1 0 0 1 2938 246 )" />
  </g>
</svg>