<?xml version="1.0" encoding="utf-8"?>
<svg version="1.1" xmlns:xlink="http://www.w3.org/1999/xlink" width="9px" height="15px" xmlns="http://www.w3.org/2000/svg">
  <g transform="matrix(1 0 0 1 -2963 -251 )">
    <path d="M 8.838572214076274 7.834355362880744  L 2.000687316715514 7.834355362880744  C 2.000687316715514 7.834355362880744  2.000687316715514 8.641452418865482  2.000687316715514 8.641452418865482  C 2.000687316715514 12.163733104186944  2.807902614858288 13.328230821546848  4.693151270772239 13.328230821546848  C 6.221056329423265 13.328230821546848  6.86097873900299 11.915839608387735  7.1146291544477025 10.612993740556874  C 7.1146291544477025 10.612993740556874  8.999999999999972 10.832069159312427  8.999999999999972 10.832069159312427  C 8.700146627565953 12.999610057463071  7.05706256109479 15.00000000000003  4.41628482404695 15.00000000000003  C 1.3953751221896384 15.00000000000003  0 12.722944300323007  0 7.500022907851357  C 0 2.2713211008801117  1.3953751221896384 0  4.41628482404695 0  C 7.472186583577713 0  8.838572214076274 2.7209564078860167  8.838572214076274 6.883175557628009  C 8.838572214076274 6.883175557628009  8.838572214076274 7.834355362880744  8.838572214076274 7.834355362880744  Z M 2.000687316715514 6.162586184427548  C 2.000687316715514 6.162586184427548  6.838022360703812 6.162586184427548  6.838022360703812 6.162586184427548  C 6.780303030303002 3.0553194067172353  6.221056329423265 1.6660116718047704  4.41628482404695 1.6660116718047704  C 2.975027492668593 1.6660116718047704  2.023796432062561 2.7209564078860167  2.000687316715514 6.162586184427548  Z " fill-rule="nonzero" fill="#efebdf" stroke="none" transform="matrix(1 0 0 1 2963 251 )" />
  </g>
</svg>