<?xml version="1.0" encoding="utf-8"?>
<svg version="1.1" xmlns:xlink="http://www.w3.org/1999/xlink" width="14px" height="15px" xmlns="http://www.w3.org/2000/svg">
  <g transform="matrix(1 0 0 1 -2977 -251 )">
    <path d="M 1.9925350023634012 15.000000000000057  L 0 15.000000000000057  L 0 0.276038063270792  L 1.8146550834243935 0.276038063270792  C 1.8146550834243935 0.276038063270792  1.8146550834243935 1.8969788782869743  1.8146550834243935 1.8969788782869743  C 2.5954829701346327 0.9631420246681609  3.784219190585599 0  5.1681471702008315 0  C 6.305191270190509 0  7.384656007041249 0.7634592185909785  7.746531275297567 1.8618235642515353  C 8.544686214746358 0.9631420246681609  9.681699889709279 0  11.094303457043665 0  C 12.972060045963524 0  14.000000000000057 1.2979460189466236  14.000000000000057 3.388773119215334  C 14.000000000000057 3.388773119215334  14.000000000000057 15.000000000000057  14.000000000000057 15.000000000000057  L 12.001562542445685 15.000000000000057  C 12.001562542445685 15.000000000000057  12.001562542445685 3.6765503656857996  12.001562542445685 3.6765503656857996  C 12.001562542445685 2.1495696929400725  11.565206808686344 1.6973194105461877  10.508545629390634 1.6973194105461877  C 9.296990638871204 1.6973194105461877  8.602128665264942 2.572421450939172  7.993415154923121 3.224300083291915  C 7.993415154923121 3.224300083291915  7.993415154923121 15.000000000000057  7.993415154923121 15.000000000000057  L 6.0008345150196405 15.000000000000057  C 6.0008345150196405 15.000000000000057  6.0008345150196405 3.6765503656857996  6.0008345150196405 3.6765503656857996  C 6.0008345150196405 2.1495696929400725  5.472488712858377 1.6973194105461877  4.427419468757301 1.6973194105461877  C 3.2041964804763405 1.6973194105461877  2.5094105694369455 2.572421450939172  1.9925350023634012 3.224300083291915  C 1.9925350023634012 3.224300083291915  1.9925350023634012 15.000000000000057  1.9925350023634012 15.000000000000057  Z " fill-rule="nonzero" fill="#efebdf" stroke="none" transform="matrix(1 0 0 1 2977 251 )" />
  </g>
</svg>