<?xml version="1.0" encoding="utf-8"?>
<svg version="1.1" xmlns:xlink="http://www.w3.org/1999/xlink" width="9px" height="15px" xmlns="http://www.w3.org/2000/svg">
  <g transform="matrix(1 0 0 1 -2996 -251 )">
    <path d="M 8.832905093593673 7.834355362880744  L 1.9993690883835942 7.834355362880744  C 1.9993690883835942 7.834355362880744  1.9993690883835942 8.641452418865482  1.9993690883835942 8.641452418865482  C 1.9993690883835942 12.163733104186944  2.8118102584193343 13.328230821546848  4.695966744852219 13.328230821546848  C 6.222823736523196 13.328230821546848  6.862430739642111 11.915839608387735  7.104364992546056 10.612993740556874  C 7.104364992546056 10.612993740556874  9 10.832069159312427  9 10.832069159312427  C 8.694613337675118 12.999610057463071  7.0582830045639895 15.00000000000003  4.419367969024246 15.00000000000003  C 1.3886415557059342 15.00000000000003  0 12.722944300323007  0 7.500022907851357  C 0 2.2713211008801117  1.3886415557059342 0  4.419367969024246 0  C 7.473143008329022 0  8.832905093593673 2.7209564078860167  8.832905093593673 6.883175557628009  C 8.832905093593673 6.883175557628009  8.832905093593673 7.834355362880744  8.832905093593673 7.834355362880744  Z M 1.9993690883835942 6.162586184427548  C 1.9993690883835942 6.162586184427548  6.833505477228698 6.162586184427548  6.833505477228698 6.162586184427548  C 6.775960232216235 3.0553194067172353  6.222823736523196 1.6660116718047704  4.419367969024246 1.6660116718047704  C 2.973120112342943 1.6660116718047704  2.034048875298284 2.7209564078860167  1.9993690883835942 6.162586184427548  Z " fill-rule="nonzero" fill="#efebdf" stroke="none" transform="matrix(1 0 0 1 2996 251 )" />
  </g>
</svg>