<?xml version="1.0" encoding="utf-8"?>
<svg version="1.1" xmlns:xlink="http://www.w3.org/1999/xlink" width="8px" height="15px" xmlns="http://www.w3.org/2000/svg">
  <g transform="matrix(1 0 0 1 -3010 -251 )">
    <path d="M 0 15.000000000000057  L 0 0.276038063270792  L 1.8146375781381407 0.276038063270792  C 1.8146375781381407 0.276038063270792  1.8146375781381407 1.8969788782869743  1.8146375781381407 1.8969788782869743  C 2.721971023839066 0.8985726273469581  4.055358098155463 0  4.957136680419445 0  C 6.876876964904668 0  8.000000000000055 1.1276461783733926  8.000000000000055 3.8410389605001827  C 8.000000000000055 3.8410389605001827  8.000000000000055 15.000000000000057  8.000000000000055 15.000000000000057  L 6.08020108898774 15.000000000000057  C 6.08020108898774 15.000000000000057  6.08020108898774 4.128800648079684  6.08020108898774 4.128800648079684  C 6.08020108898774 2.431403443078893  5.598862645375439 1.6973194105461877  4.558696146038706 1.6973194105461877  C 3.6293044695398824 1.6973194105461877  2.771730288662335 2.37271530652571  1.9198135676439925 3.5062660840035185  C 1.9198135676439925 3.5062660840035185  1.9198135676439925 15.000000000000057  1.9198135676439925 15.000000000000057  L 0 15.000000000000057  Z " fill-rule="nonzero" fill="#efebdf" stroke="none" transform="matrix(1 0 0 1 3010 251 )" />
  </g>
</svg>