<?xml version="1.0" encoding="utf-8"?>
<svg version="1.1" xmlns:xlink="http://www.w3.org/1999/xlink" width="9px" height="15px" xmlns="http://www.w3.org/2000/svg">
  <g transform="matrix(1 0 0 1 -3329 -208 )">
    <path d="M 0 14.999999999999957  L 0 0.28460240678010784  L 2.038360635788705 0.28460240678010784  C 2.038360635788705 0.28460240678010784  2.038360635788705 1.8975445530098947  2.038360635788705 1.8975445530098947  C 3.057540953683058 0.9080936066925075  4.555033804460256 0  5.579045887452084 0  C 7.7370088152869885 0  9 1.1295051085018002  9 3.849345075570543  C 9 3.849345075570543  9 14.999999999999957  9 14.999999999999957  L 6.837398577671519 14.999999999999957  C 6.837398577671519 14.999999999999957  6.837398577671519 4.134023524354226  6.837398577671519 4.134023524354226  C 6.837398577671519 2.435199539286848  6.301459193059498 1.7032800464768725  5.129176345109717 1.7032800464768725  C 4.081391977838304 1.7032800464768725  3.124444794399447 2.376495112526957  2.158027351369537 3.515011198452393  C 2.158027351369537 3.515011198452393  2.158027351369537 14.999999999999957  2.158027351369537 14.999999999999957  L 0 14.999999999999957  Z " fill-rule="nonzero" fill="#efebdf" stroke="none" transform="matrix(1 0 0 1 3329 208 )" />
  </g>
</svg>