<?xml version="1.0" encoding="utf-8"?>
<svg version="1.1" xmlns:xlink="http://www.w3.org/1999/xlink" width="14px" height="23px" xmlns="http://www.w3.org/2000/svg">
  <g transform="matrix(1 0 0 1 -2941 -331 )">
    <path d="M 13.743617011965064 12  L 3.1036464214128507 12  C 3.1036464214128507 12  3.1036464214128507 13.242606358987556  3.1036464214128507 13.242606358987556  C 3.1036464214128507 18.65016967935886  4.365281096552268 20.439337249297083  7.300160176456744 20.439337249297083  C 9.675141576731496 20.439337249297083  10.667067107808384 18.270975539779947  11.058365937557411 16.269077520718373  C 11.058365937557411 16.269077520718373  14.000000000000057 16.601506597766363  14.000000000000057 16.601506597766363  C 13.527702649476115 19.933860830755947  10.977244877416842 22.99999999999997  6.86846930826528 22.99999999999997  C 2.15909767262736 22.99999999999997  0 19.50146897877911  0 11.493363498552688  C 0 3.4852278180921723  2.15909767262736 0  6.86846930826528 0  C 11.618294252028436 0  13.743617011965064 4.170350329281087  13.743617011965064 10.555555628503008  C 13.743617011965064 10.555555628503008  13.743617011965064 12  13.743617011965064 12  Z M 3.1036464214128507 9.451389768817208  C 3.1036464214128507 9.451389768817208  10.626567847421011 9.451389768817208  10.626567847421011 9.451389768817208  C 10.538799026687295 4.689069550482702  9.675141576731496 2.5539884989630437  6.86846930826528 2.5539884989630437  C 4.621694719428673 2.5539884989630437  3.14405377727595 4.170350329281087  3.1036464214128507 9.451389768817208  Z " fill-rule="nonzero" fill="#efebdf" stroke="none" transform="matrix(1 0 0 1 2941 331 )" />
  </g>
</svg>