<?xml version="1.0" encoding="utf-8"?>
<svg version="1.1" xmlns:xlink="http://www.w3.org/1999/xlink" width="14px" height="23px" xmlns="http://www.w3.org/2000/svg">
  <g transform="matrix(1 0 0 1 -2996 -331 )">
    <path d="M 3.3973044664239613 6.897310669151896  C 3.3973044664239613 6.897310669151896  0.5959813997444356 6.471593068914964  0.5959813997444356 6.471593068914964  C 1.1920530085806589 2.979751399551067  3.2184799768033483 0  7.132411911895815 0  C 11.198676933320474 0  13.44368053094494 2.3811223588746624  13.44368053094494 6.298726928826582  C 13.44368053094494 6.298726928826582  13.44368053094494 18.65016967935886  13.44368053094494 18.65016967935886  C 13.44368053094494 20.61223358961955  13.655521548159841 22.055608478912717  14 22.574418300816625  C 14 22.574418300816625  10.814566620488176 22.574418300816625  10.814566620488176 22.574418300816625  C 10.814566620488176 22.574418300816625  10.430486377353223 20.698757260366065  10.430486377353223 20.698757260366065  C 9.244958493078656 21.889386390330177  7.132411911895815 22.99999999999997  5.72845774670573 22.99999999999997  C 2.291461279895185 22.99999999999997  0 20.778531178787357  0 17.28662910895525  C 0 11.832602728394166  5.980201252188079 9.072331530291876  10.397379640667147 8.09450835003647  C 10.397379640667147 8.09450835003647  10.397379640667147 6.511502678301226  10.397379640667147 6.511502678301226  C 10.397379640667147 4.090410309572124  9.159019298302137 2.5539884989630437  7.21856159455309 2.5539884989630437  C 4.880853120268022 2.5539884989630437  3.7284921120741132 4.895231448685562  3.3973044664239613 6.897310669151896  Z M 10.397379640667147 18.137913308258412  C 10.397379640667147 18.137913308258412  10.397379640667147 10.648647850170073  10.397379640667147 10.648647850170073  C 7.595966364895805 11.493363498552688  3.0596819055596725 13.54195107955989  3.0596819055596725 17.033822949157905  C 3.0596819055596725 19.122410740253667  3.99334600556295 20.439337249297083  6.198807951287119 20.439337249297083  C 7.847619661286339 20.439337249297083  9.291446245046554 19.295307080576222  10.397379640667147 18.137913308258412  Z " fill-rule="nonzero" fill="#efebdf" stroke="none" transform="matrix(1 0 0 1 2996 331 )" />
  </g>
</svg>