<?xml version="1.0" encoding="utf-8"?>
<svg version="1.1" xmlns:xlink="http://www.w3.org/1999/xlink" width="13px" height="23px" xmlns="http://www.w3.org/2000/svg">
  <g transform="matrix(1 0 0 1 -3018 -331 )">
    <path d="M 12.915773192491136 6.977160088158479  C 12.915773192491136 6.977160088158479  10.004546159655748 6.977160088158479  10.004546159655748 6.977160088158479  C 9.719187737710932 3.6581845588829345  8.435457554267984 2.5539884989630437  6.600455408571265 2.5539884989630437  C 4.071825925678526 2.5539884989630437  2.995542159261654 4.170350329281087  2.995542159261654 11.493363498552688  C 2.995542159261654 18.829679870953086  4.071825925678526 20.439337249297083  6.600455408571265 20.439337249297083  C 8.519831559972507 20.439337249297083  9.595982848013334 19.415005708500775  10.088890725721074 15.59049336021592  C 10.088890725721074 15.59049336021592  13 15.59049336021592  13 15.59049336021592  C 12.507180441209607 19.933860830755947  10.510230840739478 22.99999999999997  6.600455408571265 22.99999999999997  C 2.0814413647310586 22.99999999999997  0 19.50146897877911  0 11.493363498552688  C 0 3.4852278180921723  2.0814413647310586 0  6.600455408571265 0  C 10.510230840739478 0  12.338756265830938 2.6338832183208316  12.915773192491136 6.977160088158479  Z " fill-rule="nonzero" fill="#efebdf" stroke="none" transform="matrix(1 0 0 1 3018 331 )" />
  </g>
</svg>