<?xml version="1.0" encoding="utf-8"?>
<svg version="1.1" xmlns:xlink="http://www.w3.org/1999/xlink" width="13px" height="31px" xmlns="http://www.w3.org/2000/svg">
  <g transform="matrix(1 0 0 1 -3040 -323 )">
    <path d="M 0 31  L 0 0  L 3.126489514456429 0  C 3.126489514456429 0  3.126489514456429 11.122331316416341  3.126489514456429 11.122331316416341  C 4.425744387914915 9.620481821234835  6.584598748471043 8.246222944934434  8.052974301702386 8.246222944934434  C 11.179494543026477 8.246222944934434  13 9.955629790668763  13 14.07880214378441  C 13 14.07880214378441  13 31  13 31  L 9.873387578072835 31  C 9.873387578072835 31  9.873387578072835 14.507706311752097  9.873387578072835 14.507706311752097  C 9.873387578072835 11.933368094219706  9.101897384079937 10.820469841494313  7.410106775865285 10.820469841494313  C 5.894304302352378 10.820469841494313  4.506986226090685 11.852944757685172  3.126489514456429 13.569246336850636  C 3.126489514456429 13.569246336850636  3.126489514456429 31  3.126489514456429 31  L 0 31  Z " fill-rule="nonzero" fill="#efebdf" stroke="none" transform="matrix(1 0 0 1 3040 323 )" />
  </g>
</svg>