<?xml version="1.0" encoding="utf-8"?>
<svg version="1.1" xmlns:xlink="http://www.w3.org/1999/xlink" width="13px" height="23px" xmlns="http://www.w3.org/2000/svg">
  <g transform="matrix(1 0 0 1 -3060 -331 )">
    <path d="M 12.48631291790971 5.281114940121527  C 12.48631291790971 5.281114940121527  9.964106055622443 6.046011369731619  9.964106055622443 6.046011369731619  C 9.41079877539666 4.12373626792072  8.607390863317846 2.5539884989630437  6.164125376938169 2.5539884989630437  C 4.721830556660908 2.5539884989630437  3.720979498703862 3.704723119657923  3.720979498703862 5.2013259215831225  C 3.720979498703862 9.70416572838038  13.000000000000055 9.96367634015183  13.000000000000055 16.867646160926572  C 13.000000000000055 20.359457630056294  10.464546535619132 22.99999999999997  7.007003976970832 22.99999999999997  C 3.042502294406305 22.99999999999997  1.0602963061784507 20.83163829048292  0 17.120391920255624  C 0 17.120391920255624  2.792282054407961 16.52176287957925  2.792282054407961 16.52176287957925  C 3.424590514614045 18.483796589605735  4.5637085885548805 20.439337249297083  6.796314228998995 20.439337249297083  C 8.436231607372518 20.439337249297083  9.964106055622443 18.90952928995967  9.964106055622443 17.07383825936355  C 9.964106055622443 11.965574359213402  0.6717492461237167 11.879171489403358  0.6717492461237167 5.367548010165661  C 0.6717492461237167 2.474229680658757  3.042502294406305 0  6.368176872845041 0  C 9.746658447440327 0  11.775033179759543 1.9621243107288957  12.48631291790971 5.281114940121527  Z " fill-rule="nonzero" fill="#efebdf" stroke="none" transform="matrix(1 0 0 1 3060 331 )" />
  </g>
</svg>