<?xml version="1.0" encoding="utf-8"?>
<svg version="1.1" xmlns:xlink="http://www.w3.org/1999/xlink" width="13px" height="23px" xmlns="http://www.w3.org/2000/svg">
  <g transform="matrix(1 0 0 1 -3102 -331 )">
    <path d="M 0 22.99999999999997  L 0 0.42685100767035  L 2.9507185402288556 0.42685100767035  C 2.9507185402288556 0.42685100767035  2.9507185402288556 2.907279213208444  2.9507185402288556 2.907279213208444  C 4.419317859506476 1.3892157971026808  6.5914129715420255 0  8.060012290819762 0  C 11.179668147868073 0  13 1.7279273409797684  13 5.895651656239569  C 13 5.895651656239569  13 22.99999999999997  13 22.99999999999997  L 9.880190507705398 22.99999999999997  C 9.880190507705398 22.99999999999997  9.880190507705398 6.329333510815814  9.880190507705398 6.329333510815814  C 9.880190507705398 3.7271500746162616  9.10199725820176 2.6021372818286514  7.410196653115308 2.6021372818286514  C 5.887517727143803 2.6021372818286514  4.507105039236135 3.6457953033579935  3.119655857048312 5.3806765695664005  C 3.119655857048312 5.3806765695664005  3.119655857048312 22.99999999999997  3.119655857048312 22.99999999999997  L 0 22.99999999999997  Z " fill-rule="nonzero" fill="#efebdf" stroke="none" transform="matrix(1 0 0 1 3102 331 )" />
  </g>
</svg>