<?xml version="1.0" encoding="utf-8"?>
<svg version="1.1" xmlns:xlink="http://www.w3.org/1999/xlink" width="204px" height="294px" xmlns="http://www.w3.org/2000/svg">
  <g transform="matrix(1 0 0 1 -2884 -477 )">
    <path d="M 94.37712254698693 290.72931060948633  C 92.32576987848668 292.64360636918167  90.77506255532538 294  89.51820299974007 294  C 89.10180174138954 294  88.73652035624409 293.8464310148564  88.46823252527051 293.55469271995975  C 87.98546083488287 293.0403313399545  87.80916437478427 292.1420474970903  87.90371783954303 290.7268356616557  C 87.90371783954303 290.7268356616557  88.04164389362018 288.497824313624  88.04164389362018 288.497824313624  C 88.25365716250344 284.7768166375858  88.28174869187211 284.3008016714992  90.30247823823751 284.0448737328676  C 90.52473988265592 284.0141660468211  90.77506255532538 283.9834583607747  91.06887982178375 283.93732044442646  C 92.59399670722493 283.67897866778713  93.81773204902701 282.0947981718186  93.74867751863546 281.2733904862606  C 93.7078670232008 280.7717093945233  93.0487378704793 280.6667838284701  92.50456743023373 280.6667838284701  C 89.27809820148815 280.6667838284701  87.8474737785704 280.2803864177807  87.20627928303534 278.24075441115747  C 86.16908877686706 278.6962364767235  84.08961407788057 279.4768533554437  82.00760778612795 279.4768533554437  C 79.80801968578017 279.4768533554437  77.04138530693885 278.59134146558193  76.3388378132224 274.3789802578897  C 76.11913826268774 273.0609635959015  75.94793548923909 271.9068740340517  75.79982206186213 270.906200682788  C 75.08704144316933 266.130834676  74.88524604870352 265.4424325201536  73.36525335102996 265.4424325201536  C 73.12252545665889 265.4424325201536  72.85686072180447 265.46287375593965  72.56057286481521 265.50381733733485  C 71.3547111779644 265.65234476208275  70.46060141475847 266.1461732415675  69.90116516512204 266.9651670891178  C 69.12966989492591 268.0885795198327  68.98915124584731 269.84420362416586  69.49496653063015 271.90167969909857  C 70.03145068922436 274.0206628108586  69.68660505291383 276.3494970547248  68.6366193278855 277.6982519576709  C 68.03881267222759 278.4710467790499  67.25453743373015 278.87797709025995  66.37572398103276 278.87797709025995  C 65.80858619918622 278.87797709025995  65.21848107573854 278.70650292698383  64.62326701508212 278.3687183804733  C 63.13135059621835 277.5062143389627  61.63943417735459 275.4563769919023  60.19602978613555 273.4729965773303  C 58.8932050462305 271.6816232265551  57.26844100938069 269.45010637578116  56.384564371151114 269.45010637578116  C 56.384564371151114 269.45010637578116  53.65620889497817 270.52230877484055  53.65620889497817 270.52230877484055  C 53.65620889497817 270.52230877484055  53.32922166305998 270.08216527484194  53.32922166305998 270.08216527484194  C 53.03795123992648 269.5396017115324  52.52190283016736 268.48264621330594  52.31501374905163 267.4820950816881  C 52.00077598431707 265.8570015592359  51.01981428856258 263.68424180325525  49.5355536502325 262.4790033195729  C 47.84182658634407 261.12254857893157  47.24147308736123 259.3542441863305  47.65282641073842 256.91024848106235  C 48.05638669855227 254.45351137770328  49.45893484266024 253.7445457664248  52.450377709244925 253.07661540127592  C 53.97300875359649 252.74136691241898  54.21822248905713 252.19116462123708  54.70869571165499 251.095862709092  C 55.05354134796547 250.32810944810865  55.48272257461728 249.37363512301624  56.463730022048274 248.25257542048598  C 56.97210740071491 247.6717571079922  57.49068740324028 247.07547801028497  57.76406892086378 246.70689411299358  C 57.6618596755713 246.69158610233754  56.813715096685186 246.5610249655452  56.813715096685186 246.5610249655452  C 55.61813228648719 246.36391523152986  54.84405967184831 245.84707890369398  54.16200892920225 245.38899967065137  C 53.60508902177311 245.01274649057615  53.1197552375017 244.69289767710964  52.458063990896285 244.554697812445  C 50.70301442994423 244.20145248072103  50.399055541862474 241.96480240481705  50.15632764749138 240.1656986614351  C 50.102691432079055 239.7716319679618  50.05160205999164 239.3928732851446  49.990279562927924 239.07296336185505  C 49.847214070524416 238.37951964561293  49.865118226593246 237.5502287928908  49.88042978766061 236.74929289803052  C 49.90342763037938 235.5413961370486  49.92637972142168 234.295030742502  49.43087381440925 233.62710037735317  C 49.106402924698344 233.19975938526844  48.86882971921254 233.10256421182203  48.56731092054392 232.97710574524837  C 47.949129518286455 232.73401086944213  47.44331423350352 232.43710879450376  47.00132253743289 231.12171985490366  C 46.28094714044172 228.9694318896207  46.643727433938786 225.17179249556827  46.97582360306569 222.49994881532692  C 47.169917465321234 220.95927851331857  46.16345683519955 219.9305251983965  44.9985123976951 218.74065583519305  C 44.433951960291104 218.16732347601402  43.854049460702136 217.57351932613747  43.401870391331556 216.89284756289766  C 42.45151656715303 215.46996644467933  41.50375533797596 214.57171315672662  40.405288086420434 213.52762127623708  C 40.001590543577045 213.14626542594326  39.582642441901505 212.74443778495186  39.14325859139116 212.30172767238815  C 38.530186126342414 211.6926766216786  37.68713523410623 211.39323848908668  36.55798385818063 211.39323848908668  C 35.65103312443809 211.39323848908668  34.71095817691237 211.5877510556254  33.95224287501744 211.7438866533341  C 33.95224287501744 211.7438866533341  33.668704485211805 211.80022991011975  33.668704485211805 211.80022991011975  C 32.36838083695518 212.06373546680064  29.87248962905931 213.01066272875522  27.670369935945384 213.8474700897036  C 27.670369935945384 213.8474700897036  24.90879874263625 214.87631506936017  24.90879874263625 214.87631506936017  C 22.972374285494528 215.5800557907741  21.904545406632632 215.96385603398704  20.586332852866 217.02851136990867  C 19.715220932378827 217.72207730579677  18.85178004298415 218.01127954303988  18.01640018184046 218.285051549981  C 17.099277325357022 218.58956179788007  16.230727498753634 218.87619742255814  15.252236393529907 219.697727327762  C 15.252236393529907 219.697727327762  15.12452821387022 219.80256122908074  15.12452821387022 219.80256122908074  C 15.12452821387022 219.80256122908074  14.961026972631778 219.82563018725483  14.961026972631778 219.82563018725483  C 14.879299227850721 219.83843269516873  12.96591836510421 220.13020154497687  11.15976418150587 220.13020154497687  C 10.033098646669895 220.13020154497687  9.207982411620208 220.02008164397063  8.638313037007528 219.7898503859013  C 6.60736561622462 218.97592865365812  5.899739686417112 216.17373772100484  5.278980939717008 213.69906488460168  C 4.8318650558786915 211.90506381143837  3.9275526688141826 211.53904652671204  2.5608280874028035 210.98639984261104  C 2.146958421818318 210.8175228468115  1.7127140096343163 210.64088490349377  1.2579118441446429 210.41315914816656  C 0.5682205715236347 210.0650775964842  0.14154043652033382 209.51230869273724  0.029159068486867216 208.81620669919553  C -0.20330519979011344 207.33954893675661  0.9974017981754499 205.53540363297896  2.10096273638083 204.44007116592243  C 2.956824098035946 203.5775976793233  3.7410535848569415 203.50597696679313  4.257101994616076 203.46252788265588  C 4.37968598650819 203.4522614323956  4.550858258839213 203.43686175700518  4.591745007067989 203.41128729608883  C 4.719483687845311 203.0401978960553  4.816538244252473 202.66397527089163  4.921294332869882 202.25197284437436  C 5.1972074432595115 201.17973989040348  5.508837362433792 199.9667099042914  6.035149398287015 199.17839318787603  C 6.221633231685368 198.8969824530626  6.589491961273477 198.5540952363334  7.279213735012121 198.5540952363334  C 7.98943225982108 198.5540952363334  8.834999494264528 198.9122599088071  9.808335910603047 199.32432344514734  C 10.31926013259461 199.53927724747228  10.85316694674617 199.76960017027608  11.389651105340292 199.9487741712474  C 11.765211367138646 200.07417152799812  12.29399399352255 200.24314018853218  12.572453947237104 200.24314018853218  C 12.735970439034404 200.14835885309336  12.833024995441681 199.649305483744  12.922454272432871 199.20910087392244  C 13.234145193842508 197.63527849294863  12.679756879179523 196.62696641381265  12.012987196483042 196.4043738836155  C 12.012987196483042 196.4043738836155  11.68089102735614 196.29434564734382  11.68089102735614 196.29434564734382  C 10.722881422643924 195.97953839427288  9.40721571220222 195.54700306723507  8.112001001154304 194.26235236859284  C 7.67263240120273 193.82471437133634  7.606185716371453 193.36663513829373  7.626697718000628 193.06215544530613  C 7.698222838922953 191.98983082660078  8.934631395114366 191.05320056981796  10.132761048637368 190.14205310921693  C 10.625826866236675 189.76592214878767  11.106097464975885 189.40253258644935  11.450973602403998 189.05955370498575  C 12.048719255826526 188.4581719370598  12.710410502431932 187.9847846933612  13.349027653524377 187.52664435049562  C 14.209952200711708 186.90989346209076  15.019817876929336 186.33155009742754  15.737631180036688 185.4306690870868  C 16.235775433727042 184.81397930850494  16.76463431290511 184.5120051182595  17.35475468691166 184.5120051182595  C 18.105829458831646 184.5120051182595  18.770021797085455 184.99046447726522  19.613042188204005 185.59453507740213  C 20.060097069806936 185.91698105834521  20.571021291798587 186.28290667833713  21.171374790781396 186.6283910625429  C 21.49579992881583 186.81266773373292  21.794710881924175 186.90989346209076  22.05015774236107 186.90989346209076  C 22.351600288235563 186.90989346209076  22.601968712581492 186.7793934351214  22.82169876423379 186.5106935434874  C 23.245740552559173 185.99367388618262  23.444973853141185 185.02639705317625  23.28914364299524 184.2637464624116  C 23.19465118047175 183.79793683676226  22.974936379378313 183.71354417122978  22.31583772777436 183.57021108143496  C 21.743591008719115 183.4499469498144  20.877618526558287 183.26313422097084  20.624718509446293 182.27523282270948  C 20.51483823306131 181.83001720740378  20.622110663885984 181.3719074194496  20.921036867553212 180.98807662132518  C 21.43963212063733 180.3252183714835  22.53555252886788 179.89528021192228  23.710669089113335 179.89528021192228  C 24.349331991882188 179.89528021192228  25.307311095476766 180.02073867849595  26.216762920867822 180.6246259491639  C 26.689377739073226 180.94450531754194  26.98831919329932 181.0085178571113  27.154336776745023 181.0085178571113  C 27.657589967644174 181.0085178571113  28.043352853301066 180.2279926431256  28.29625287041306 178.6873528960288  C 28.625786945656174 176.71680554428224  27.87730476873761 174.86911949163286  27.064907499753833 173.79945315022704  C 26.70979823734938 173.3157383464451  26.398168318175102 173.0214028840719  26.11461467781061 172.75273354734935  C 25.60623729914397 172.269049298479  25.125966700404764 171.80837289795986  24.661038163850687 170.6618609541592  C 24.410684990063615 170.0400379504472  24.293118432027306 169.50777139230937  24.183283907318735 169.0138512480902  C 23.999392668921807 168.18972417540974  23.869046142584203 167.59347563261397  23.12312605954942 166.84876077489332  C 23.12312605954942 166.84876077489332  22.742456860542386 166.45976619672726  22.742456860542386 166.45976619672726  C 21.54688930090314 165.2262644199176  20.3156049324793 163.95184961662423  17.804341161280743 163.67031666216482  C 16.488675450839036 163.5243864048935  15.625249812003222 163.29925781704281  15.397879230376063 162.63639956720115  C 15.152634993797703 161.91728972530822  15.768315304406762 161.31337189972882  16.695640784748903 160.3997494912971  C 16.695640784748903 160.3997494912971  17.11458888642435 159.9824916200037  17.11458888642435 159.9824916200037  C 18.279502822811157 158.81816616280508  18.335685881548432 158.28586904975583  18.463455063443476 157.1188547603461  C 18.49667078057967 156.77847304635898  18.54268171657605 156.39968380863021  18.611629493055727 155.9621680310197  C 18.793004389245368 154.88480185191864  18.40466415914583 153.8712954378296  17.99084024523796 152.79649587129362  C 17.712380291523402 152.06715013405187  17.421155620066415 151.30966332332883  17.280636970987803 150.47789752277615  C 16.98685020564703 148.6839881143473  18.21563348242247 147.36856861983568  19.20174986706228 146.31668523691644  C 19.513440788471804 145.98149785788246  19.81739967655359 145.66161848950443  20.054972882039365 145.33914195364991  C 21.007858298984097 144.08516838614264  22.055266679569865 142.703200294408  23.713246433555895 142.703200294408  C 23.90993289081298 142.703200294408  24.11435138139783 142.72110547254053  24.328941994723785 142.7672128339774  C 25.368664093658197 142.97443624369564  25.968987091523314 143.68077413258607  26.50031656123223 144.30265824612107  C 26.967883444464306 144.84525236434223  27.368957891188607 145.31867016295226  28.002511856748782 145.4415314620494  C 28.002511856748782 145.4415314620494  28.010137136164865 145.4415314620494  28.010137136164865 145.4415314620494  C 28.937462616507034 145.4415314620494  30.00277515316156 143.33538141311476  30.78445779665754 141.794680556195  C 31.09102453029961 141.1855989505739  31.395059671175524 140.5842477375595  31.70162640481759 140.05445612725228  C 32.90480399331403 137.93807018296886  31.561107755738973 134.05072156878478  30.362978102215973 131.95224080263387  C 29.356410718182456 130.1864113578634  29.23895091405794 128.26964065033738  29.25932566065757 126.6317446199712  C 29.25932566065757 126.6317446199712  29.261933506217854 126.4603315665181  29.261933506217854 126.4603315665181  C 29.261933506217854 126.4603315665181  29.348754937648764 126.31956508928847  29.348754937648764 126.31956508928847  C 29.972121529909145 125.32151946041279  30.68998058469294 124.24152555892364  31.407809138359184 123.28182634396661  C 32.766862688677975 121.459745307145  32.603391948557174 120.62034077872003  32.276389466080204 118.94403722461216  C 32.16653969081286 118.38622676046955  32.04647204112804 117.75917886689298  31.962121200227923 117.01709173156034  C 31.803805148992325 115.6223211319119  31.52787678804392 115.3458908476712  31.22898108549444 115.054183107686  C 30.804939297169053 114.63698634621562  30.462640504183533 114.21988124947971  30.29143773073476 113.02478699641166  C 30.051348183041693 111.2793987874273  31.065464593697136 110.73432972137557  31.88039345544695 110.29672227903058  C 32.46032645615364 109.98967597347799  33.007013238606405 109.6953099561932  33.35446672047724 108.99664135008649  C 34.345676791766905 107.01078598768387  35.41862985839629 106.47592226206947  37.55681920888623 105.41896676384306  C 37.55681920888623 105.41896676384306  38.28998982473747 105.05304114385117  38.28998982473747 105.05304114385117  C 40.119157101613354 104.13171889772428  40.346497182122874 103.47151892518215  40.79612940816845 102.14843014788686  C 40.94427333666304 101.71595593067195  41.11036717290302 101.2348382943667  41.35301881447987 100.67430844310151  C 41.69789495190803 99.86307554306939  42.19858604892331 98.93671173654683  43.03398116062589 98.93671173654683  C 43.882110488953124 98.93671173654683  44.433951960291104 99.85794231793923  45.07770854971001 100.93283354920973  C 45.79809919725992 102.13306102740785  46.20173573786804 102.71397100463614  47.49179576003066 102.71397100463614  C 48.07944554350634 102.71397100463614  48.82028719045016 102.59107915062751  49.75526845132593 102.33524287673036  C 52.18727506827432 101.66731251158151  52.2792054369139 101.4343924213011  52.67012301145608 100.46442675608377  C 52.83362425269464 100.06272133473831  53.032857553276656 99.57136780308419  53.39303000121332 98.9392477942004  C 54.522211878256556 96.96100060475861  54.79043870699482 96.75371608521743  56.01412829712033 95.97829354145044  C 56.261904126464835 95.81962188608817  56.5582072340129 95.63540632472119  56.91847118530259 95.39225033909203  C 57.59031930409008 94.94446811122113  57.730807452050975 94.77803550834072  57.7563368875359 94.71921730372445  C 57.7563368875359 94.67821261250626  57.700199580475065 94.50933561670676  57.6618596755713 94.3737023646072  C 57.523918370935334 93.95143348782965  57.316983538143106 93.306572080855  57.316983538143106 92.21893945149367  C 57.316983538143106 90.31487958714708  57.96072487700312 89.67765690804458  58.7041438683895 88.94320850058429  C 59.12054512674002 88.53374213172056  59.593190446063176 88.06286039076413  60.060696327059894 87.2362278153415  C 60.965008714124494 85.65470559667246  61.61899842851965 85.18385441062752  62.37772898097336 84.64129084731783  C 62.80692545818395 84.33161681937719  63.24885615201939 84.01173745099912  63.83388283937593 83.42563313881773  C 63.83388283937593 83.42563313881773  64.56706870578603 82.71425368953155  64.61048704678086 82.67071294065975  C 64.46488996161118 82.56068470438798  64.31921662364736 82.4378234052909  64.16083957017648 82.27918230484016  C 62.99086244825749 81.10196267499317  62.31385964058475 79.57165048797965  61.667540957282064 76.63370408358078  C 61.1770219830078 74.39955951041891  61.703303517743265 73.87746773780684  63.01896922818489 73.22237043548336  C 63.519660325200256 72.97411177963554  64.14041907190035 72.66700436425985  64.8608554711268 72.04768686329001  C 65.67576908231784 71.35161542465974  66.64907499753863 71.00875876284202  67.84726565329694 71.00875876284202  C 68.88186356446377 71.00875876284202  69.92157041283942 71.25946181160901  70.9255909535479 71.50008173958464  C 71.78136081185006 71.7073051493029  72.5860717991824 71.90438432840668  73.26307460685514 71.90438432840668  C 73.98604259884773 71.90438432840668  74.51996466355807 72.10143295259904  74.84181245714983 72.49296358841869  C 75.55196997972348 71.63061232146552  76.49976171001828 70.83982065721952  77.81028798213353 70.57616232598126  C 78.032549626552 70.52761057162523  78.22925133436783 70.4994389432324  78.40295519946503 70.47129786975113  C 78.24715549043673 70.31005960182378  78.05301587650456 70.12071081532663  77.85628366757102 69.91593179852762  C 76.08595304666918 68.14499968353842  77.10522414620979 67.01125969274028  78.09132528029069 65.91852439316024  C 78.31355642359145 65.67032684713533  78.55625381684482 65.39899923311329  78.79638911621441 65.09705559777936  C 79.38393214577829 64.36514324797254  79.9153226177226 63.93010241819266  80.38537534204424 63.546241065156686  C 81.02663083981463 63.01648000976094  81.53499296792248 62.60188041576712  82.06888453151517 61.53468902219191  C 83.02433204234363 59.62821531983775  82.96561739084021 59.51039558113628  82.40098070064208 58.389549762986384  C 81.72147680132093 57.03065062942598  81.38422594330873 56.02230799537852  80.6868788901541 53.26096897938596  C 80.51311402282157 52.554692200318414  80.42368474583037 51.96091860535331  80.35219012602568 51.46956507369923  C 80.18354944646079 50.30007583645892  80.1631441987435 50.30007583645892  79.6700936317031 50.30007583645892  C 79.48870348495454 50.30007583645892  79.27412812218748 50.315444956937895  79.0186812617505 50.35638853833312  C 76.67858976288294 50.69417308484358  75.43957336113121 51.39278058112736  73.96557634889508 52.57003076588593  C 72.92073006219309 53.41197135196439  71.7915786862675 54.19252712086161  70.60108956271941 54.19252712086161  C 70.00334390929687 54.19252712086161  69.43109719024153 53.98780921388553  68.90484615662369 53.58857874037066  C 68.04392160943638 52.941089611007975  67.84726565329694 52.352449241172906  67.66073606822206 51.779239101639845  C 67.50743745084215 51.32115986859722  67.34902989625355 50.84004223229198  66.78959364661725 50.13370434340151  C 65.55568618207415 48.590559093562625  66.38084816880034 47.39030106045289  67.42316286273628 45.87014838150948  C 67.81655102780914 45.29437162941135  68.28154056659866 44.62133859404381  68.74134491538516 43.794721296076986  C 70.08758799628512 41.3584407059598  70.66495890310804 40.956582510056876  72.0700538905409 39.99439306981353  C 72.47623727447396 39.71290594772138  72.96163206098073 39.380147684150764  73.57217293326333 38.92208372856392  C 74.69363802753757 38.08267920013896  75.11006978700576 37.4429204633829  75.41401342452865 36.97717194755651  C 75.88665874385181 36.247765100491854  76.24687694346505 35.80253420773037  77.60080630601637 35.80253420773037  C 78.06579584480583 35.80253420773037  78.52816228747618 35.83829873162821  78.99055923126419 35.87158830769544  C 79.41461627014846 35.9048626063069  79.8284859357328 35.93812162746267  80.24229459908193 35.93812162746267  C 81.41237847491271 35.93812162746267  82.17106327569002 35.65661922791483  82.85065867836414 34.97335029719848  C 83.84185349909495 33.98037678362999  84.86107884695907 33.4966772573039  85.96473128851748 33.4966772573039  C 86.8946188627434 33.4966772573039  87.86790952740536 33.842192196421166  88.94081684235833 34.56130203831396  C 89.34959282129283 34.835104600166694  89.8810137943548 34.96823234952411  90.56304928644205 34.96823234952411  C 91.81740775037885 34.96823234952411  93.37314775795484 34.51783767672093  94.87529730179487 34.08018440200871  C 95.64935466587484 33.854994704334956  96.4182573410696 33.63234106431492  97.14891161471347 33.46600012616898  C 98.04052028627093 33.26892094706507  98.60250337923235 32.94395418592417  98.81451664811556 32.49604973840735  C 99.11858229010919 31.86396028443505  98.73792834166102 30.945250483240503  98.42370582748524 30.305491746484417  C 98.14782321821329 29.76033101569829  97.53978343757912 29.315100122936723  96.76828816738302 28.74690098888786  C 95.94826561898319 28.142998440764188  95.02090963752337 27.46223501278996  94.15232930980233 26.41551540991238  C 93.04623677883079 25.08989057496338  92.39982659217516 24.314498586107845  92.51734739853501 23.370153214174028  C 92.60930826829231 22.66127926762995  93.13048086581914 22.016326195920797  94.26469542727692 21.20769046336526  C 95.97376455335038 19.986960639557978  98.30612401889006 19.1270690429797  100.36522397127698 18.3696127871681  C 101.22105483181437 18.054820811553  102.03085950579666 17.757979846437667  102.720611780653 17.463644384064427  C 103.13701303900352 17.281980157806764  103.56110057900541 17.192362602409645  103.97237764958835 17.192362602409645  C 105.18074042808773 17.192362602409645  106.11065850343132 17.92682628732574  107.00989245440475 18.643400071565036  C 107.61784073168594 19.1270690429797  108.19519638794999 19.582627495824394  108.8185477296516 19.792493905386404  C 110.16736815499412 20.23518874049436  111.14068932077376 20.560216611458294  111.49831492538551 21.422628988234415  C 111.8100363479128 22.175028406194468  111.45238024218341 23.045140620665894  111.15856297572492 23.628617210459243  C 110.80093737111316 24.347772884719305  110.80859315164685 25.12062881592134  111.17646713179377 25.80391302409338  C 111.66695560495042 26.702151034590372  112.70670820500257 27.30101202231839  114.03253078762637 27.45199911744113  C 114.18332831335778 27.46993485048518  114.32631755296715 27.477573578357365  114.46433511039722 27.477573578357365  C 116.02266771297468 27.477573578357365  116.91674697506286 26.438614922998045  117.85938401647239 25.3407311208321  C 118.29878311754172 24.83399319124335  118.75099268802985 24.309395915889162  119.27469687832279 23.892199154418833  C 120.3833515031781 22.99909436905199  123.06061760726364 20.424552804447274  127.2298153807717 16.250614397952365  C 128.87245307257268 14.597410356930185  130.6147379157824 11.07858453021457  131.45007202524954 9.384436907797228  C 131.74388929170797 8.806093543134025  131.7055493868042 8.788127255178512  131.08222854622028 8.465665996779679  C 130.5406812020939 8.179045649557377  129.72059765145883 7.756807327691373  129.72059765145883 6.643600237413713  C 129.72059765145883 4.803537635180857  131.5650917399609 3.708220445579988  134.65363491462938 3.708220445579988  C 135.62183189264152 3.708220445579988  136.3958892567214 3.222000139056026  136.93746710196547 2.725498104816026  C 136.93746710196547 2.725498104816026  135.53502571176935 2.8534620741318277  135.53502571176935 2.8534620741318277  C 135.53502571176935 2.8534620741318277  137.10354568764657 1.607173066863991  137.10354568764657 1.607173066863991  C 138.44730292745692 0.5425635633095922  139.58157849115005 0  140.48075143988822 0  C 140.62383218285063 0  140.7618192391631 0.01535384302320687  140.894590604355 0.03843807865317979  C 141.99061776649734 0.26614855652466357  142.48870101795237 1.2846812535536687  142.8871981202341 2.1036445461925304  C 143.31384775411976 2.9686540904452974  143.56169983625833 3.3755385692880946  143.99594424844238 3.3755385692880946  C 144.34338247975433 3.3755385692880946  144.67547864888124 3.3908924123112727  145.00248113135822 3.4036949202251794  C 145.3039236772327 3.416497428139086  145.59771044257346 3.4292693811414177  145.89405930179802 3.4292693811414177  C 146.68599032082915 3.4292693811414177  147.57756849126895 3.3499641083718275  148.73484189768087 2.774156801362237  C 149.87418064690627 2.2008702745504864  151.11066545589196 1.87332162338874  152.1298908037561 1.87332162338874  C 153.48645851298534 1.87332162338874  154.3856619628411 2.4773158362468757  154.59514363895826 3.526540941866607  C 154.82506106391037 4.6755736658650555  156.70017827454734 6.387641743870649  158.34022337134684 7.485556100948052  C 159.12706070372806 8.01015337630213  159.2828909138741 9.195042288932884  159.02744405343705 10.039549487576522  C 158.7592172246988 10.930102937833954  158.0848070120276 11.459863993229753  157.2162266843065 11.459863993229753  C 156.87135054687838 11.459863993229753  156.50094497396535 11.378022662806465  156.1126352449834 11.209069279728297  C 155.32323581871847 10.86615150808757  154.55427214128835 10.671669496460312  154.01778798269424 10.671669496460312  C 153.8262409637636 10.671669496460312  153.70612756240226 10.697305067199473  153.64228872313126 10.717715748074104  C 153.67041075361757 10.753571936706436  153.71381384405362 10.843097827369144  153.8134609954623 10.978776911835853  C 154.64113932439574 12.068945598850803  155.3589831286208 13.018393641003277  154.99367124235764 13.758021105961003  C 154.86593256158028 14.013918489681146  154.56958370235574 14.321056459968261  153.8696440541996 14.321056459968261  C 153.69587918686713 14.321056459968261  153.4940837924013 14.303074894556975  153.25144740138327 14.26472848063829  C 153.25144740138327 14.26472848063829  153.26163477468307 14.300493004536214  153.26163477468307 14.300493004536214  C 153.48386591798385 14.960784641812774  153.89520399080212 16.191704528601633  152.70983905502155 17.141183125665595  C 152.1171718376901 17.6146314791872  151.80297982463202 18.14951048225734  151.7697336063782 18.717633229027513  C 151.74161157589182 19.2550330122955  151.98171637414376 19.820619701412028  152.4263006652159 20.263345091431475  C 153.49667638740277 21.333072542660215  154.99367124235764 24.89030589311744  154.58751835954223 26.512756415726  C 154.51337014250083 26.81220982577358  154.66163607546605 27.08090971740763  154.93748818362033 27.531334945122264  C 155.3589831286208 28.23252433142681  155.94146297265237 29.187105598709458  155.21086970124384 30.64833313084642  C 155.03454274002755 31.00150207529167  154.8991787798342 31.29838887277426  154.78425056847578 31.554316811405865  C 154.17364869395783 32.92346711777085  153.90029767745207 33.33036687406941  151.75951573196068 33.642561682207955  C 149.78475136991509 33.92403352684434  149.56511282161586 34.62525346806046  149.25342190020618 36.18381367074547  C 149.25342190020618 36.18381367074547  149.14099478049624 36.71354417122969  149.14099478049624 36.71354417122969  C 148.81914698690449 38.17996603831983  148.58404437194946 39.23945759419978  150.29826818690816 40.214464819812804  C 151.18728426346422 40.72373880705516  152.64850130739902 41.3174818471088  154.06128257648325 41.883037981313905  C 156.48819550678166 42.86320898696854  158.784807662419 43.78705201329323  159.49237258999125 44.73136683031559  C 160.59858712543345 46.215663320626746  161.39558132999676 46.52785812876531  161.87081924432135 46.52785812876531  C 162.2283838466978 46.52785812876531  162.57585257912743 46.35642979785637  162.93097709209073 46.003276130866894  C 162.93097709209073 46.003276130866894  163.35506463209262 45.58103780900083  163.35506463209262 45.58103780900083  C 163.96816759825901 44.97701304123121  164.72947549515536 44.22467473309399  164.6732619353004 43.922685265392786  C 164.66813774753282 43.897080249565086  164.5991442193766 43.65140348373798  163.78421535762672 43.30077059694637  C 161.23209533931708 42.19778412456175  160.08256921679185 39.96625199633222  160.08256921679185 38.73788344465264  C 160.08256921679185 37.821679146200154  160.45806847635478 37.62206390944272  161.02770734984983 37.417315447555175  C 161.36242661509584 37.29702076102304  161.86825715043759 37.11787731496328  162.68827969883742 36.572777694000074  C 163.2528248856825 36.19404956609427  163.8174005736453 35.866455082565295  164.3564468261233 35.55426027442676  C 165.67970731486332 34.789119458375716  166.7271461965667 34.1799920203874  167.13586117326585 33.15886215588186  C 167.64172220972523 31.879314127458226  169.01610257167033 30.83264035694788  170.19887491244953 30.83264035694788  C 170.81457047361732 30.83264035694788  171.29484107235655 31.132078489539776  171.51704171453957 31.64643986954505  C 171.7291769878936 31.00150207529167  172.12004881075916 30.43597649599806  172.8072084906141 30.162143379233946  C 173.46889973721943 29.893412932688467  174.007884987462 29.765448963372666  174.49840396173636 29.765448963372666  C 175.46663144086608 29.765448963372666  176.19719421115698 30.259414939959054  177.05302507169444 30.90426106947802  C 178.09274717062885 31.679698890700823  178.83358881757258 32.8748389761361  179.1299681779149 34.19537641832207  C 179.1299681779149 34.19537641832207  179.17334076723319 34.1799920203874  179.17334076723319 34.1799920203874  C 179.17334076723319 34.1799920203874  179.24489638927326 34.92210971063148  179.24489638927326 34.94265788860786  C 179.27808160529182 35.17803764926308  179.29086157359302 35.290647775555705  179.29086157359302 35.39561917397603  C 179.29086157359302 35.68734219141702  179.26277004422437 36.094226670259815  179.2244301393206 36.557423850976896  C 179.12481348902958 37.87540995805348  178.93829915451354 40.32962628121472  179.72513648689474 40.9310386040521  C 180.66017875000588 41.637361215486905  180.81347736738576 42.487001639260576  180.961651796998 43.30850098955306  C 181.0612074450537 43.87915979397672  181.1634166903462 44.47543889168398  181.54919482656194 45.11267684824223  C 182.49183186797143 46.69678095693202  183.34256904185898 47.49527245887322  185.37092386764039 47.49527245887322  C 187.81314835900628 47.49527245887322  188.21930124182165 48.85928954010802  188.68944546949632 50.438245146211976  C 188.76606427706855 50.69417308484358  188.8478072724084 50.96800620160778  188.94229973493188 51.25204465880923  C 189.5119996106622 52.966694626835675  192.57501334984582 55.20337525765123  194.79244460402708 55.52582123859426  C 197.27554059306283 55.87130562280009  202.00928355341608 58.59426766996248  203.05925402788566 59.2954112238999  C 203.6672328062845 59.70237209002142  204.01720263036256 60.398443528651676  203.99935947652912 61.15593033937464  C 203.97639213492798 62.12843206224555  203.38369441647885 63.034354632982044  202.36953225414697 63.648630573556275  C 201.7155577903107 64.04013065446438  201.71808938307677 64.45723575120034  201.8994490287076 65.64218577365399  C 202.0016582740001 66.31014669371434  202.11661698647612 67.07273617465609  201.97862993016366 67.90960464542741  C 201.88669956152398 68.45467371147917  201.6746252904054 69.72658301203043  200.7472693089456 69.72658301203043  C 200.0984495339945 69.72658301203043  199.56196537540035 69.07142459988395  198.84152897617392 67.3772464225551  C 198.0930315486965 65.62418893078704  197.56679576563752 65.62418893078704  197.39052980665656 65.62418893078704  C 197.0686515119472 65.62418893078704  196.63175350252638 65.84170934567696  196.09020615839992 66.2794084527565  C 195.5179746899035 66.7348905183225  195.21903323567741 67.14182082953259  195.24718576728142 67.42075661651539  C 195.26505942223264 67.61780524070775  195.47707269111586 68.02727160957147  196.65478184636274 68.62104520453654  C 198.5962694890368 69.58835259245433  200.55828438389875 70.25891067999125  200.57865913049835 70.26651885295199  C 200.57865913049835 70.26651885295199  201.22757040880245 70.48663643531853  201.22757040880245 70.48663643531853  C 201.22757040880245 70.48663643531853  200.92359627016185 71.10082071115829  200.92359627016185 71.10082071115829  C 200.88275527360966 71.17503859116505  200.50719501181132 71.89161237540435  199.14300202316605 73.24794489639962  C 199.14300202316605 73.24794489639962  198.72666176705087 73.65997787782837  198.72666176705087 73.65997787782837  C 198.31535419535024 74.06431102156195  197.92442137024923 74.44560576203274  197.92188977748313 74.63247960069927  C 197.92188977748313 74.70153370066434  197.97297914957053 74.91395144533564  198.4685613093771 75.41043820211998  C 199.07144640112602 76.01181997004579  199.60283687307026 76.32406061055157  200.07285909627433 76.59786317240423  C 200.6170600376375 76.91774254078223  201.13310844739672 77.21974728593919  201.54947920462953 77.84416745712777  C 201.66443791710566 78.01050839527372  201.79730078565055 78.17174666320106  201.93522683972762 78.3329849311283  C 202.6070749585151 79.13144587815802  203.52927625108975 80.21907850751937  202.24170207001666 82.48390021181626  C 201.88413746764022 83.11091755048135  201.65168844992198 83.68669430257947  201.4549562409885 84.18061444679866  C 201.02065082656907 85.25804173572273  200.61187484763457 86.27402309764238  199.28349017112697 86.27402309764238  C 198.9743918447188 86.27402309764238  198.63207780117443 86.21771039576826  198.22845651112516 86.10257948927783  C 196.95116120670502 85.7391288171165  196.1975090903423 84.86391393242647  195.64824496344687 84.2267218082355  C 195.42082863014323 83.96566064447376  195.08107668048268 83.56639961604746  194.94318112752313 83.56639961604746  C 193.8548707481498 84.33421398685368  192.70275203062312 85.10187558310254  191.61703424625122 85.10187558310254  C 190.929813564161 85.10187558310254  190.3345537518281 84.79229321989632  189.90030933964408 84.20875552028  C 189.55284060721448 83.74814022958384  188.88870927119598 83.40781962541965  188.32157148934937 83.40781962541965  C 188.142712935367 83.40781962541965  187.90513972988126 83.44359942677323  187.76205898691882 83.60734319744267  C 187.58582352905557 83.80955560167662  187.59601090235537 84.17551177658  187.63178871337539 84.44421166821398  C 188.16827287196955 88.19079380516837  189.07516260347677 89.57273134199146  189.74447912949816 90.07178471134085  C 190.65649304877286 90.7550536420571  191.78820651858223 91.60729123330742  191.4867639727078 92.52088308682761  C 191.20572667455065 93.36285422781762  189.92583877512894 93.47801568921956  188.71238230997972 93.47801568921956  C 184.95967729817514 93.47801568921956  183.89689635428664 93.1299952473602  182.86736162865205 92.79214959102673  C 182.78821122831363 92.76400851754532  182.70131354408858 92.75117545471996  182.60682108156513 92.75117545471996  C 182.18785772933083 92.75117545471996  181.84301209302032 92.98155948734679  181.80204909199742 93.10435967662094  C 181.79951749923129 93.11972879709991  181.8275785274823 93.2272209757181  182.06265064131966 93.40379780921285  C 182.7268734806911 93.90282062365068  183.28632498088635 94.02054869761767  183.9300815703052 94.15114038932153  C 184.4333500117631 94.25090217533301  185.00561198137726 94.36856913947703  185.63664960473017 94.68594300511302  C 186.92157018856642 95.32820724461114  188.00731847405598 96.01923712284567  189.4660344263424 97.48309237737061  C 189.4660344263424 97.48309237737061  190.005019676585 97.99748431228747  190.005019676585 97.99748431228747  C 190.9962754995511 98.93154795650518  191.94147463484444 99.81956534910908  191.62722161955102 100.74342365288955  C 191.3513390102791 101.55471766274465  190.24774757095608 101.75940501480932  189.44300608250603 101.83612839755806  C 187.8105862651225 101.99745833021981  187.50917422036565 102.37618645812559  187.45549225327682 102.48621469439738  C 187.32772307138183 102.76258386881514  187.7390611442001 103.37423208700126  187.8719545138627 103.57891943906586  C 188.46968491672635 104.48743917727886  189.07516260347677 105.75678186526511  188.5846436292024 106.6653321583896  C 188.2781378977957 107.23597568535759  187.64706977332511 107.52771398025425  186.71208851244927 107.52771398025425  C 184.90343323720248 107.52771398025425  182.56848117666135 108.2059107956634  181.9374740544261 110.12014544553583  C 181.7024629428241 110.82394727677278  181.88129099568886 111.49694975722876  182.0677748290872 112.20585425868433  C 182.33090797117555 113.18859187690404  182.6553178586511 114.41182720345347  181.4112077702495 115.41240888998269  C 180.83391311622069 115.87571301288992  180.3024921431588 116.146918407266  179.91162032029314 116.34910025658851  C 179.83500151272088 116.39001328307225  179.75072692461498 116.43095686446745  179.67663970980877 116.47449761333924  C 179.7609447990324 116.55638477612968  179.88609088480825 116.66897962496658  180.07519781432578 116.82001255245649  C 181.76636278433048 118.16354256553795  181.92725618000864 120.09314633588932  180.5120043203936 121.98947580762918  C 180.2131543695206 122.38617022349052  179.929524476362 123.07710843699053  179.62555033772145 123.80135150401361  C 178.95876540446613 125.413581408729  178.1974880086875 127.23832072285022  176.69542996820033 127.23832072285022  C 176.48079360319795 127.23832072285022  176.3274949858181 127.27663658185739  176.27640561373076 127.33554645120812  C 176.0975470597484 127.56073614888182  176.2993729553318 128.45135070896228  176.44754738494404 129.10644801128578  C 176.44754738494404 129.10644801128578  176.61359546950752 129.87420127226915  176.61359546950752 129.87420127226915  C 176.9814999507721 131.71427915195778  177.63800600737454 132.39748697285114  179.02775893262236 132.39748697285114  C 180.07763790373892 132.39748697285114  182.2645070380208 132.39748697285114  182.60935267433126 131.8396153988856  C 182.70131354408858 131.69121019378363  182.58382323884638 131.4148104644544  182.50717393015654 131.26124147931085  C 182.0779927035047 130.3988291025347  181.71524291112542 129.48270119136095  181.99368761428107 128.64069949545942  C 182.25682075636948 127.83713587821103  183.02578443379946 127.31504410559909  184.10128434375395 126.77251109720095  C 184.49721935215177 126.57549302792007  184.8395333956962 126.3938135242066  185.14860122098665 126.22741147623775  C 186.16029279278774 125.68234241018597  186.89091656531406 125.29081177436633  187.90513972988126 125.29081177436633  C 188.1835844330369 125.29081177436633  188.49012066556128 125.32408607297786  188.8273105213381 125.39060411528929  C 190.1506930145488 125.65157361431658  190.5364406496469 126.60366465631284  190.90172203479236 127.51982312239808  C 191.13420155362826 128.09303326193114  191.37177475911412 128.6867763019848  191.84692117008566 129.28042767730398  C 193.38484852494582 131.2228339555692  192.61079116086583 133.53382413112593  192.28125708562268 134.5190672520877  C 192.14070793542643 134.9464082441724  191.89801054217307 135.1613620464973  191.56847646692995 135.1613620464973  C 191.26959601493928 135.1613620464973  191.09333005595835 134.98484632282552  190.97834084236462 134.8057028767657  C 190.957966095765 134.8466464581609  190.9349072508109 134.88762059446762  190.91193990920988 134.93873896138874  C 190.27583910032467 136.22345076985386  190.40360828221966 136.81716325499602  190.6666804220727 138.0046493351033  C 190.76629707236367 138.45246211788563  190.87866318983828 138.9668846077139  190.96812296794715 139.59634633929815  C 191.25175286110576 141.59766248691412  191.7958317979983 143.87015347399472  191.9287251676609 144.42298348756466  C 191.9287251676609 144.42298348756466  192.71809409280823 145.41329872383358  192.71809409280823 145.41329872383358  C 192.71809409280823 145.41329872383358  192.2582287417863 145.78695473643225  192.2582287417863 145.78695473643225  C 191.36411897858036 146.50872285562463  190.56703327066407 147.30198946770128  189.95139871173154 148.07744256637977  C 189.11603410114668 149.1267287818225  189.06747632182544 150.03518741021253  189.01635644862037 151.08694857348576  C 188.96782917041668 152.02620655265665  188.90905351667794 153.09073966893234  188.21930124182165 154.25268184303485  C 187.39930919453954 155.6192197044675  185.97637105327317 156.66074497239197  184.47168991666697 157.76637444462034  C 183.32210279190636 158.60828447578743  182.12911257670976 159.4809938577353  181.00508538855172 160.60703401083828  C 179.0329136215076 162.5877561481107  175.77057507838904 163.29149686952465  173.37687786522676 163.29149686952465  C 171.81857576376706 163.29149686952465  170.4799122106066 163.002386297016  169.606207695118 162.47516129927382  C 169.606207695118 162.47516129927382  168.95229423351702 162.06578659514463  168.95229423351702 162.06578659514463  C 168.32635029681404 161.6767003522441  167.87417122744347 161.38493150243593  167.5140140300656 161.38493150243593  C 166.98006146423756 161.38493150243593  166.24172090894228 162.06321998257957  165.04616859986191 163.6626473793811  C 163.5261759021883 165.69461010322053  164.11374943286984 167.18407037357335  164.79587642831015 168.91402835225574  C 165.19693562447569 169.9402456095243  165.61330638170847 170.99460394027406  165.61330638170847 172.21270604169334  C 165.61330638170847 175.0072888013859  164.571052690008 176.23052412793533  163.2451691051488 177.77632765507371  C 162.97184858976064 178.10390686114698  162.67546922941847 178.44425802022258  162.36637090301025 178.82814992816995  C 161.33942877237712 180.123097631984  160.28945829790757 180.3686980105323  159.27267303945655 180.61185399616156  C 158.36834540183324 180.82680779848639  157.51766923018096 181.0264535901553  156.53928487886907 181.99886364829175  C 156.2991190783818 182.241958524098  156.02836065687745 182.59004007578034  156.1126352449834 182.86130657997944  C 156.28121492231304 183.41930037359094  157.61734688270727 183.93619781124983  158.4679315510065 184.10510536196088  C 158.4679315510065 184.10510536196088  160.67011224635573 184.54778491961306  160.67011224635573 184.54778491961306  C 160.67011224635573 184.54778491961306  158.53951767416424 185.25925603363373  158.53951767416424 185.25925603363373  C 158.37606218460218 185.31046606528926  154.47506073871472 186.6053526592802  151.97409109472778 186.6053526592802  C 150.9905520545306 186.6053526592802  150.31867343462545 186.40833458999933  149.9124900506924 186.00390978153135  C 149.17421049763252 185.26185320111026  146.86734996646004 184.93167682756044  145.21452490135917 184.86005611503032  C 145.33710889325124 186.20101951554668  145.59261675592356 189.20291734969197  145.59261675592356 190.9405446111581  C 145.59261675592356 191.73130572049263  146.0089875131564 192.00770544982183  146.73704919179895 192.432571494076  C 147.41917618723923 192.8240715749841  148.26222707947545 193.31032243641954  148.26222707947545 194.50031401926893  C 148.26222707947545 195.53933378445132  147.68230932932752 196.29174847986715  147.12279682689697 197.0185276045438  C 146.5684390133517 197.74533728413195  146.04223373141036 198.42607015719463  146.04223373141036 199.4011384926306  C 146.04223373141036 201.81690145968295  144.6396703367436 203.41645107613053  141.63293115965027 204.42723810309704  C 141.0990090949399 204.6038454915033  140.5318713130933 204.69599910455403  139.94685987629555 204.69599910455403  C 137.38964617133598 204.69599910455403  134.99344786652532 203.06586402170606  133.84895442841466 201.55076818061409  C 132.3800206017108 199.58535405399763  130.4870297361228 198.37489068045065  129.15861455849745 197.70692976039027  C 128.5812589022334 197.4126859627515  127.44185915077263 197.25401430738933  125.94992748135009 197.25401430738933  C 124.03912396304611 197.25401430738933  121.90852939085461 197.5048090208908  120.64398355361794 197.75554262456922  C 119.20570335016652 198.04477541672384  116.56415405486568 201.3076427498963  115.2409240672433 203.29358977703333  C 115.2409240672433 203.29358977703333  114.2241998110277 202.66397527089163  114.2241998110277 202.66397527089163  C 114.66610000374541 201.89631367464278  115.00328985952218 200.96988875829723  114.93179523971747 200.7241967150145  C 114.68144206593041 200.9186481717303  114.46433511039722 200.94944752251118  114.2445440565096 200.94944752251118  C 113.61619053151114 200.94944752251118  113.01324443752686 200.7420713382355  112.37204994199188 200.52717864573364  C 111.61586623286307 200.27635337732065  110.83668468101551 200.0126950460823  109.88386026630616 200.0126950460823  C 109.2170753330509 200.0126950460823  108.54519671314573 200.1432867377862  107.83247709668831 200.41192551959725  C 104.65441314167573 201.60711143739974  104.19976348177434 202.67937494628208  102.98112182662229 205.53540363297896  C 102.98112182662229 205.53540363297896  102.8355399920114 205.87315762457803  102.8355399920114 205.87315762457803  C 101.69873283555216 208.53216824199407  103.0603637303136 209.5967930230042  105.26248342342757 210.92238730304163  C 108.01889992785141 212.57815795662893  106.33801383449959 216.69579893870528  105.48727666061204 218.38741050346906  C 104.67490989274602 220.03810904174912  104.69784673322944 224.85188257227873  105.53580393881565 228.69055721246087  C 106.30220552236197 232.1223932061674  108.43026850178735 235.5925145039696  109.83524148474955 237.88813555904738  C 109.83524148474955 237.88813555904738  110.89286773975286 239.6232267628599  110.89286773975286 239.6232267628599  C 112.0578274278161 241.5067537266859  113.15888727437303 243.28544678919326  113.5599464705385 246.11315107293993  C 113.69027774631726 247.01916530841083  113.85629532976304 247.73063642243144  114.00446975937541 248.37036460427598  C 114.36721955175467 249.92380685928663  114.65844422321166 251.14963935331258  113.98656560330649 253.4912149952697  C 113.50885709845112 255.16492138190094  112.87281729180128 255.72285406568952  112.40782775301182 256.12966215725373  C 111.99655068242888 256.49045455211547  111.78706900631171 256.6696591079982  111.78706900631171 257.78029958571074  C 111.78706900631171 258.70672450205626  111.8994046226687 259.4003209928559  112.00417596184491 260.06571530035114  C 112.19322188912707 261.25060421298184  112.3669562553419 262.36897508330117  111.7589469758254 264.2089918531669  C 111.27867637708621 265.64207831182244  110.62976509878213 265.9593910676354  109.95023069834329 266.1794475401789  C 109.53642203499426 266.3125447346249  109.28856995285558 266.3918652848502  109.1072103072248 267.6714438681853  C 108.97950212756508 268.5774275487447  109.1276460560597 268.74627398963275  109.13023865106118 268.7489017120208  C 109.13023865106118 268.7489017120208  109.68969015125637 268.7616125552002  109.68969015125637 268.7616125552002  C 109.83524148474955 268.7489017120208  109.98344641547955 268.7437990418021  110.13162084509179 268.7437990418021  C 110.39219189329633 268.7437990418021  111.18921659897741 268.7437990418021  111.68739135378539 269.4910805120879  C 112.05529583504996 270.04122169344674  112.26733960505088 270.8730486038224  112.31583638213685 271.9529202856656  C 112.31583638213685 271.9529202856656  112.32858584932045 272.2472251931273  112.32858584932045 272.2472251931273  L 110.21086274878321 273.9514864912476  L 113.46545400801512 278.84210562417195  C 113.46545400801512 278.84210562417195  112.6274968024288 279.6661715870294  112.6274968024288 279.6661715870294  C 111.99905177407733 279.2259669772078  110.07290619358835 278.08205220088377  108.74955420149531 278.08205220088377  C 108.07770608270782 278.08205220088377  107.82735290892076 278.37886261108764  107.69445953925819 278.5964135808891  C 107.3853612128501 279.1109277354518  107.15294269624953 279.6789435400318  106.9357442373633 280.2061685377739  C 106.41207054818807 281.46781138806494  105.87305479682779 282.7704283746627  104.51395549483242 282.7704283746627  C 103.91107040308347 282.7704283746627  103.21366234769351 282.4837927499847  102.38848511040844 281.8875136522774  C 101.4662533167162 281.22978862756594  100.74072323083986 280.89713730618547  100.23489269549815 280.89713730618547  C 99.50942361185713 280.89713730618547  99.01634254369907 281.6827957453013  98.41858163971766 283.8018094119728  C 98.10695172054338 284.89701965938343  98.02514772296823 285.6981083288012  97.95362260204587 286.34037256829936  C 97.83872489180513 287.5099229153626  97.74929561481395 288.3571189462172  96.32632697242991 289.0684983955034  C 95.94314143121561 289.2655775746073  95.14611672553464 290.0050675424633  94.37712254698693 290.72931060948633  Z " fill-rule="nonzero" fill="#4b636b" stroke="none" transform="matrix(1 0 0 1 2884 477 )" />
  </g>
</svg>