<?xml version="1.0" encoding="utf-8"?>
<svg version="1.1" xmlns:xlink="http://www.w3.org/1999/xlink" width="206px" height="296px" xmlns="http://www.w3.org/2000/svg">
  <g transform="matrix(1 0 0 1 -2884 -476 )">
    <path d="M 140.9434582575029 1.1943610971317469  C 141.0455704308368 1.1943610971317469  141.14512294360375 1.2019948461066976  141.23952566308697 1.222483828355646  C 142.8984904320052 1.5651933548396029  142.79125893753724 4.56763843169774  144.4553430275894 4.56763843169774  C 145.118904557437 4.56763843169774  145.73145570884205 4.618799817328297  146.35415408606633 4.618799817328297  C 147.29083749284368 4.618799817328297  148.25299561669277 4.501179013121382  149.45515239084858 3.902723628476668  C 150.45808225087214 3.3988809286281967  151.62199647727087 3.066415893268671  152.5815339962537 3.066415893268671  C 153.54119340383502 3.066415893268671  154.28904089949623 3.3988809286281967  154.45746047037554 4.235203931334172  C 154.79433008428379 5.905223927098605  157.46137450650917 7.907708958222565  158.45421808501268 8.575234503593089  C 159.3194138288115 9.15065123383126  159.19182693840597 11.449814285119908  157.66303919260992 11.449814285119908  C 157.41292378863358 11.449814285119908  157.12450489260092 11.391019150514373  156.79525331609457 11.247779484747303  C 155.87392787271915 10.851404702969045  155.05721331894551 10.664667935542354  154.46757722404513 10.664667935542354  C 153.5565513672371 10.664667935542354  153.18134778912292 11.107120026133844  153.78621995882693 11.922969314088764  C 154.68968872253242 13.114750204066901  155.58294931611954 14.309065498704827  154.31963493770192 14.309065498704827  C 154.17160123490993 14.309065498704827  153.99547221018 14.293706395767085  153.78621995882693 14.257965183066128  C 153.6330974070505 14.232361589003952  153.5105688934797 14.219567425721811  153.41101638071285 14.219567425721811  C 152.17323766366616 14.219567425721811  154.32987357996996 16.022597863626775  152.78831800348854 17.25784532026866  C 151.12938370672003 18.592865876013843  151.45604515050982 20.268031018587457  152.45909689913177 21.268021599317503  C 153.45955851503714 22.27050078221344  154.79433008428379 25.60803690407856  154.45746047037554 26.943026924827866  C 154.12571017760135 28.285696497045972  156.12913212567997 28.95575644707623  155.12611084920758 30.95569180604259  C 154.12571017760135 32.955642432506814  154.45746047037554 33.29068767501984  152.12731613420797 33.625763452528815  C 149.78690268362283 33.95818268539449  149.45515239084858 34.960707670784274  149.12081196535777 36.63843775301349  C 148.7914994445522 38.30593861161617  148.12031987730282 39.97084399556741  150.45808225087214 41.30331487915488  C 152.78831800348854 42.6434195117175  158.45421808501268 44.318569386793136  159.4597685499025 45.65609381220217  C 160.15657519497162 46.59473958616909  161.18260294439747 47.68929704920151  162.31321111127545 47.68929704920151  C 162.7929951068417 47.68929704920151  163.29060530992814 47.49237686064224  163.79348719489673 46.993618237611095  C 165.4549506800827 45.318468362535455  166.78972224932923 44.318569386793136  164.4596083853113 43.31856353856508  C 162.12175459529308 42.30837426920439  161.1238526399547 40.30585870308453  161.1238526399547 39.308463597005954  C 161.1238526399547 38.30593861161617  161.46072225386288 38.97341835449285  163.45917724155547 37.64097800590125  C 165.4549506800827 36.29572822652954  167.45587391189346 35.63079815581048  168.1271144234421 33.95818268539449  C 168.57374472023557 32.82524273251574  169.79119851349424 32.00429410024549  170.6333877843396 32.00429410024549  C 171.03662574009232 32.006813237407215  171.35569961862996 32.19355000483382  171.46028003608205 32.62575760430079  C 171.792121745305 33.95818268539449  172.46077212413698 35.30341719726832  172.46077212413698 35.30341719726832  C 172.46077212413698 35.30341719726832  171.792121745305 31.96082753358174  173.45867407947537 31.29328672071332  C 174.050778418494 31.052869430494408  174.51788599982356 30.94036323810072  174.9288029372774 30.94036323810072  C 175.67911867705683 30.94036323810072  176.26357450652398 31.31124129830254  177.12374234563757 31.96082753358174  C 178.33595492916376 32.86359468736618  178.96639323238827 34.31112143550507  179.07868310369108 35.5693922790555  C 178.3844361191889 35.81493944858562  177.90212293520528 35.96840833797911  177.90212293520528 35.96840833797911  C 177.90212293520528 35.96840833797911  178.3844361191889 35.81493944858562  179.07868310369108 35.5693922790555  C 179.0914814065261 35.70750206551136  179.12210591688134 35.84052777514979  179.12210591688134 35.96840833797911  C 179.12210591688134 37.30081815157492  178.46104310330156 40.96826963664186  179.79325501198113 41.975878698848966  C 181.1255278649599 42.98354883104796  180.45690795827753 44.318569386793136  181.4624584231674 45.98861991755344  C 182.45780071793877 47.65352530150465  183.46597178769474 48.66116489870765  185.7909968027283 48.66116489870765  C 188.12626046002987 48.66116489870765  188.12626046002987 49.99105557514163  188.79238165044444 52.00120489023652  C 189.45856378515828 54.003720456356376  192.79172939779824 56.33867052283987  195.11675441283177 56.673700497854995  C 197.45975799613362 57.00106618889927  202.12769517802022 59.67871051436874  203.13074692664216 60.34877046439899  C 204.12096990027953 61.013731070114  204.12096990027953 62.68888094518963  202.462035603511 63.691405930579414  C 200.79295408092318 64.68880103665799  202.12769517802022 66.36398144672948  201.79341569682856 68.36387100320198  C 201.64276138917032 69.2539355986919  201.43097994939993 69.68359352600127  201.15276922348562 69.68359352600127  C 200.8057219116086 69.68359352600127  200.35138216096445 69.00073941268884  199.79496070913598 67.69643706281909  C 199.18240955773095 66.26168921046438  198.56991935062513 65.57883509715207  197.79921774275843 65.57883509715207  C 197.31422300960938 65.57883509715207  196.77322046548215 65.84739038609277  196.12998385942262 66.36398144672948  C 194.45831220411822 67.69643706281909  194.7926221574594 68.69639710855326  196.7961050498372 69.70658637791395  C 198.7996793586638 70.70398148399252  200.79295408092318 71.38173625298958  200.79295408092318 71.38173625298958  C 200.79295408092318 71.38173625298958  200.46114284384979 72.04153644439742  199.12886999087104 73.37399206048703  C 197.7965971378922 74.71414249554344  197.12538709849326 75.05173741021417  198.45765995147198 76.37906314699264  C 199.79496070913598 77.72428239136839  200.79295408092318 77.72428239136839  201.45904479918818 78.72164696245108  C 202.12769517802022 79.72166807817709  203.45996803099894 80.38916308855175  202.12769517802022 82.72924303434644  C 200.99452735057517 84.71636896253264  201.06860514627044 86.21765257095349  199.69031934738464 86.21765257095349  C 199.44532326454234 86.21765257095349  199.15187646382446 86.16907139247661  198.7996793586638 86.06674862121554  C 196.8242613160743 85.5040802517657  196.27804803436428 83.50929003960854  195.3541629304219 83.50929003960854  C 195.183153226826 83.50929003960854  195.00196582526132 83.57576472568292  194.7926221574594 83.73179855473207  C 193.9223070925266 84.3865299368205  192.90910811808538 85.04379572356869  192.03117501575082 85.04379572356869  C 191.56668803928738 85.04379572356869  191.13788395001407 84.85707422363996  190.79080616598745 84.3915987461399  C 190.32116939624044 83.7624556906157  189.46871101097753 83.3533172805512  188.73887255573413 83.3533172805512  C 187.93742454891375 83.3533172805512  187.28660037760196 83.84432001462368  187.4601392696153 85.06929244514518  C 187.79451016725568 87.40943346093167  188.45548156438664 90.08200897708177  189.80302096431868 91.08712943712305  C 191.12767577989564 92.08195960354604  192.79172939779824 93.41438468463974  189.12931220865187 93.41438468463974  C 185.45921603780448 93.41438468463974  184.4587544218991 93.07938524462057  183.46597178769474 92.754553958236  C 183.32811578287152 92.71110265907026  183.1826417406465 92.68807927216163  183.02951918887004 92.68807927216163  C 182.06224174388694 92.68807927216163  180.96731646419906 93.54992953143997  182.128579613582 94.41440580036571  C 183.46597178769474 95.4245645347305  184.4587544218991 95.08956509471135  185.7909968027283 95.75452570042623  C 187.1309181652585 96.42452458046468  188.12626046002987 97.09461506549088  189.45856378515828 98.437299905207  C 190.79080616598745 99.76719058164095  193.11842131373766 101.43974498206514  189.80302096431868 101.76964507776907  C 186.4622373142769 102.09701076881323  187.1309181652585 103.44229108318085  187.79451016725568 104.43968618925942  C 188.45548156438664 105.4447761143048  189.45856378515828 107.45492542939968  187.1309181652585 107.45492542939968  C 184.7880059984055 107.45492542939968  182.45780071793877 108.45235107047415  181.7967683765085 110.45486663659402  C 181.1255278649599 112.45741273770977  183.12648156892035 114.12996713813396  181.4624584231674 115.47008703819446  C 179.79325501198113 116.79997771462841  178.46104310330156 116.47007761892449  180.13018557018856 117.80512870966561  C 181.7967683765085 119.1323933764522  181.4624584231674 120.80503938186409  180.45690795827753 122.14769368658425  C 179.45385620965558 123.49034799130446  178.79791271720975 127.15259325957045  177.12374234563757 127.15259325957045  C 175.45709859501838 127.15259325957045  176.12833910656698 128.8252697999782  176.45497007820714 130.49779366540642  C 176.78928003154834 132.16790526615856  177.45802182682914 133.50802516621906  179.45385620965558 133.50802516621906  C 181.4624584231674 133.50802516621906  184.4587544218991 133.50802516621906  183.46597178769474 131.5055096000992  C 182.45780071793877 129.49529921501258  182.79470080399656 128.8252697999782  184.7880059984055 127.82271427959256  C 186.43420293663823 127.00178091482019  187.17936888313403 126.40079112551581  188.32277535284703 126.40079112551581  C 188.56783237998866 126.40079112551581  188.83577399148518 126.428852786748  189.12931220865187 126.49025866350289  C 190.79080616598745 126.82272369886243  190.45902540106366 128.48767488530746  191.79376649816064 130.1654202350346  C 193.11842131373766 131.8379441004629  192.46247782129186 133.8404596665827  192.13069705636804 134.83785477266127  C 192.07200769622455 135.00924770464812  192.02605569461682 135.0706535814031  191.9826328814264 135.0706535814031  C 191.84227816033538 135.0706535814031  191.73260889389888 134.4108228549994  191.4416303372992 134.4108228549994  C 191.29100650179052 134.4108228549994  191.0817237782879 134.5974527499404  190.79080616598745 135.1728847476764  C 189.80302096431868 137.18053019310744  190.45902540106366 137.8506206781336  190.79080616598745 140.18303633995745  C 191.12767577989564 142.52571176040357  191.79376649816064 145.19560019691448  191.79376649816064 145.19560019691448  C 191.79376649816064 145.19560019691448  192.29655696668036 145.82220884777902  192.29655696668036 145.82220884777902  C 191.44924837470103 146.51281885005002  190.60446897113914 147.3209275165443  189.90257347708558 148.20320568807975  C 188.12626046002987 150.4282908393149  189.45856378515828 152.20826735531537  188.12626046002987 154.43842131586993  C 186.79148889078328 156.665979801773  183.68284207644956 157.99583994321114  181.01067833309017 160.67607974333214  C 179.30582250686348 162.3896121082541  176.31714454553352 163.1824532767984  173.80834199621867 163.1824532767984  C 172.3994926312768 163.1824532767984  171.14391817885948 162.93432590011474  170.35008820944088 162.45355238966883  C 169.28843851712412 161.81674505017364  168.63496326879653 161.27713060262835  167.9484866824443 161.27713060262835  C 167.19810999836565 161.27713060262835  166.40687016166368 161.92667103541376  165.00832038328912 163.7910462800819  C 162.34383562163072 167.35881627103325  165.4549506800827 169.57867993796947  165.4549506800827 172.6962419493707  C 165.4549506800827 175.8163994354235  164.13035680880486 176.70383802126602  162.34383562163072 178.93646531648855  C 160.57255050926022 181.1589549930722  158.79626796435414 179.83156818630198  156.56558472450465 182.05405786288566  C 154.3476997874902 184.27648646947753  158.79626796435414 185.16645945997988  158.79626796435414 185.16645945997988  C 158.79626796435414 185.16645945997988  154.85560957714392 186.4835865081276  152.4259127282095 186.4835865081276  C 151.69345366809986 186.4835865081276  151.0961690636481 186.3659962389166  150.78739477167775 186.0539591158142  C 149.45515239084858 184.72409897437606  145.01685332840228 184.72409897437606  145.01685332840228 184.72409897437606  C 145.01685332840228 184.72409897437606  145.45580464349482 189.18168928085018  145.45580464349482 191.4118737764006  C 145.45580464349482 193.636897857644  148.12031987730282 193.18418600843015  148.12031987730282 194.9692618687459  C 148.12031987730282 196.7442001104228  145.9024349402884 197.63673804058072  145.9024349402884 199.86686146613943  C 145.9024349402884 202.08932060772722  144.57528140844357 203.42687556813212  141.90314813723384 204.32200897294143  C 141.4181838762343 204.4805466716544  140.91539340771462 204.55984605600682  140.4100737507775 204.55984605600682  C 138.15903511499036 204.55984605600682  135.88748872251756 203.09957094707966  134.7900647265619 201.65196786145103  C 133.4577918735831 199.86686146613943  131.67891919596036 198.53187144539015  129.90007699048726 197.63673804058072  C 129.1522599669757 197.26085224105134  127.8531103406199 197.1227119195996  126.42649571245707 197.1227119195996  C 124.47658285908882 197.1227119195996  122.29694046983148 197.38357238957354  121.01071103490933 197.63673804058072  C 118.79029690947743 198.08438108047514  115.2299004772162 203.42687556813212  115.2299004772162 203.42687556813212  C 115.2299004772162 203.42687556813212  116.78672260065082 200.71341369247187  115.53873571348568 200.71341369247187  C 115.44939137083722 200.71341369247187  115.34727919750335 200.7287422604136  115.2299004772162 200.75430005198194  C 115.06401009475432 200.79781242113955  114.90061842856018 200.8157364637328  114.73219885768087 200.8157364637328  C 113.53519187680868 200.8157364637328  112.26169980042229 199.87971669941328  110.37559562833162 199.87971669941328  C 109.70947443791704 199.87971669941328  108.96165741440545 199.99730696862437  108.1168780108435 200.314443436042  C 104.57187001413388 201.65196786145103  104.11753026348971 202.9896144268437  102.78531835481019 206.0993900142904  C 101.45560516239834 209.21450922601963  103.23447784002111 210.5597284703955  105.4498335886181 211.8895886118336  C 107.67530609088476 213.22967797689816  106.34315512650439 216.794852493198  105.4498335886181 218.57489007919017  C 104.57187001413388 220.35737046485443  104.57187001413388 225.2472752432811  105.4498335886181 229.26507000380704  C 106.34315512650439 233.2675056613953  109.01013860443054 237.27760560295442  110.34497111797641 239.50522515884924  C 111.6823328199396 241.72762323044523  113.01454472861913 243.51538617040018  113.45870678129447 246.63035270715  C 113.90021775695404 249.75304459786238  114.79347835054105 250.64307865835644  113.90274694537138 253.75551079044655  C 113.01454472861913 256.87056893218397  111.6823328199396 255.53554837643873  111.6823328199396 258.20806282259707  C 111.6823328199396 260.888333157714  112.56282558284117 261.77577174355656  111.6823328199396 264.445812855047  C 110.79157094262034 267.11835783620126  109.44659120325527 264.89076881530224  109.01013860443054 268.01086523136314  C 108.78814899454169 269.57352418154306  109.23730847975264 269.7935288270028  109.84982915900805 269.7935288270028  C 110.0948252418504 269.7935288270028  110.3602681370792 269.7602762164677  110.62318184389059 269.7602762164677  C 111.02389061122604 269.7602762164677  111.41174013142718 269.8394534608364  111.6823328199396 270.2410497269136  C 112.03452992510019 270.7755037601518  112.17485417404161 271.6016280742272  112.21062847768053 272.39950751709495  C 112.18000396732529 272.4251263786551  112.15449877810396 272.4404549465969  112.12643392831569 272.46347833350546  C 112.12643392831569 272.46347833350546  109.90093095389948 274.24348538450187  109.90093095389948 274.24348538450187  C 109.90093095389948 274.24348538450187  113.45870678129447 279.58860588180625  113.45870678129447 279.58860588180625  C 113.45870678129447 279.58860588180625  111.04680566773071 277.90066184344846  109.24239732873704 277.90066184344846  C 108.59669247855932 277.90066184344846  108.02750319604546 278.11797940926897  107.67530609088476 278.7063277102707  C 106.66725690972714 280.3814165153546  106.42479001530228 282.5859821493449  105.01085180137599 282.5859821493449  C 104.56163137186583 282.5859821493449  103.98735324036751 282.358404824902  103.23447784002111 281.8161338327134  C 102.17273673125548 281.0540108700445  101.36879000816728 280.71391208571  100.73585298867499 280.71391208571  C 99.5159004791486 280.71391208571  98.92891546126398 281.99265664401145  98.34954848078131 284.05141767257913  C 97.4588475477612 287.1613459350054  98.34954848078131 288.0461890461965  96.56299682145752 288.9412919160099  C 95.30218115930772 289.57556485084535  91.79294746623705 293.8056389028683  90.02934133556757 293.8056389028683  C 89.31217929456082 293.8056389028683  88.88340567743714 293.1049218169544  89.01105351214198 291.17138480657275  C 89.45250354350223 284.48370160953584  89.01105351214198 285.3787739443535  91.6755078016507 284.9363523887579  C 94.35020073342749 284.48370160953584  96.56299682145752 280.48370875161964  93.01283903146427 280.48370875161964  C 89.45250354350223 280.48370875161964  88.56439274319878 280.0335618420615  88.1202916348227 277.80603389115424  C 88.1202916348227 277.80603389115424  85.29247615126945 279.29192786164157  82.52584874412757 279.29192786164157  C 80.26969078720641 279.29192786164157  78.04927666177451 278.30222757452975  77.44949334105493 274.6987927083672  C 76.23974900164691 267.41250145170613  76.49495325460771 265.26928062447905  73.8916565693607 265.26928062447905  C 73.62877333469888 265.26928062447905  73.33785572239839 265.2922734763917  73.01110286215989 265.33062543124214  C 69.44829913007965 265.7808334107922  68.56774542287872 268.90343369651697  69.44829913007965 272.46347833350546  C 70.19607044536681 275.43276240481623  69.0935271282771 278.6934724769968  66.90881112611018 278.6934724769968  C 66.4647861981081 278.6934724769968  65.97474832419903 278.5605231048481  65.45157198759209 278.26121907503597  C 62.5062406590784 276.5605724783838  59.15774755518599 269.27434229171456  56.92714049571049 269.27434229171456  C 56.80206755764758 269.27434229171456  56.682068232494174 269.2973046086314  56.56478092865586 269.3433819174446  C 54.954251641538384 269.99292235023006  54.52550849656436 270.1693535565404  54.39789113400918 270.2206218146565  C 54.02268755589508 269.5172481840993  53.61433027900817 268.6041907366967  53.44843989654628 267.7833184419161  C 53.12429240509911 266.11839779046704  52.11619751571709 263.7885165333029  50.45982287951558 262.4407628842675  C 48.790649940479 261.10314685387067  48.45635522321261 259.43303525311853  48.790649940479 257.43827557595733  C 49.119901516985365 255.43319507018182  50.117833944473325 254.7631961901434  53.12429240509911 254.09316677510904  C 56.12319377262238 253.4281145644064  55.1175975995081 251.75049135466284  57.455436153451565 249.08045024317244  C 59.7856109617687 246.410409131682  59.45379972469534 246.7454085717013  57.455436153451565 246.410409131682  C 55.449378364431894 246.07794409632248  54.78581683458431 244.74551901522878  53.12429240509911 244.40535916090246  C 51.45006108922776 244.0677337112359  51.45006108922776 241.06018929006237  51.120824748796146 239.39523810361737  C 50.78141071039574 237.7226531681973  51.45006108922776 235.0500776520472  50.45982287951558 233.7151181662938  C 49.45172799013356 232.3749982662333  48.790649940479 233.38005765628276  48.11688024051296 231.37757262515882  C 47.448229861680936 229.37514866402668  47.785114711664 225.69748322283115  48.11688024051296 223.02747264633663  C 48.45635522321261 220.35737046485443  45.78670543219582 219.01731163478576  44.451949099024034 217.01733047332556  C 43.114541688836425 215.00971556289042  41.78226883585766 214.0098165871481  40.12333453908901 212.33720111673207  C 39.291338202287356 211.50344305368176  38.20663632879268 211.25531567699818  37.11942050295552 211.25531567699818  C 36.03468815731124 211.25531567699818  34.94998628381656 211.50344305368176  34.11544552252265 211.67474438068098  C 32.45139190462009 212.00730102102816  29.123254196665293 213.34213836679794  26.456240246589612 214.33709067320456  C 23.778957182096196 215.33708125393463  22.44928969790877 215.68227938258448  20.790294456840968 217.01733047332556  C 19.11350348040261 218.35488543373046  17.45456918363399 218.01472557940411  15.451055819106617 219.68993652447162  C 15.451055819106617 219.68993652447162  13.524118966542249 219.98664507963215  11.74526152499439 219.98664507963215  C 10.854530119824696 219.98664507963215  10.002117442786123 219.90984956494358  9.448225179375079 219.68993652447162  C 7.779128420712527 219.01731163478576  7.118111315357094 216.68233103330633  6.446886039883344 214.0098165871481  C 5.78073437731906 211.33711893101432  4.116695995491339 211.33711893101432  2.118286716023154 210.3371588852801  C 0.12245233319681044 209.33722937454192  1.7813866299653445 206.6518596951097  3.1162343795859475 205.3245644933272  C 4.451005948832476 203.9819407236028  5.4514828008127 204.98944291332427  5.78073437731906 203.9819407236028  C 6.112530378317683 202.9896144268437  6.446886039883344 200.97940404175696  7.118111315357094 199.97687905636718  C 7.289105782878177 199.72108739571266  7.546823988181562 199.61876462445161  7.868427055136558 199.61876462445161  C 8.80768535855575 199.61876462445161  10.298154376220634 200.48583636802888  11.788684338184702 200.97940404175696  C 12.41903122496032 201.19171386824993  12.85289369106847 201.3067086628094  13.156655314428335 201.3067086628094  C 13.817672419783737 201.3067086628094  13.889129610612722 200.78248385319768  14.121357862769697 199.6367497370368  C 14.450624675350804 197.96920307594024  13.784488248861466 196.63931239950628  12.78660152959783 196.3068778991426  C 11.788684338184702 195.96671804481625  10.458955909698089 195.63684848410824  9.119019311093046 194.30433179802682  C 7.779128420712527 192.9642424329623  11.11744382663609 191.29165749754225  12.457304244867032 189.95410253713732  C 13.784488248861466 188.6165170417365  15.451055819106617 187.95158697101743  16.78588833265239 186.27894096560559  C 17.184022203345975 185.7853732918775  17.551516327609473 185.5859186986585  17.934398887424713 185.5859186986585  C 18.832733093921334 185.5859186986585  19.810294889396904 186.68050669668693  21.451326798271204 187.62168687531351  C 21.89030858551329 187.86975318200535  22.28080918273026 187.98230517689285  22.625342542264683 187.98230517689285  C 24.10817828645298 187.98230517689285  24.72325862627539 185.9670565174827  24.45019769364481 184.6217456681192  C 24.115857268154006 182.94406138838383  22.12255207374498 183.94151756445427  21.77804918636016 182.60390153405748  C 21.5610570090069 181.7139590785511  22.821826962932263 180.97229456313536  24.28427683903322 180.97229456313536  C 25.00911786174102 180.97229456313536  25.787589867757585 181.15632898342477  26.456240246589612 181.5988116090121  C 26.959015479034456 181.93897146333845  27.3750212654727 182.08474553376524  27.72470441829072 182.08474553376524  C 28.768573611311677 182.08474553376524  29.204995737986753 180.7676490206133  29.4551111419631 179.26642648218424  C 29.784301774170306 177.26901026037973  29.123254196665293 175.25626547063337  28.11258441064156 173.92127544988404  C 27.11725735194493 172.5811250148276  26.456240246589612 172.5811250148276  25.784999735041 170.92133424268968  C 25.116303647984537 169.25131424692523  25.45573292245978 168.24368991722014  24.115857268154006 166.91120376613463  C 22.791293869025854 165.56851892641853  21.451326798271204 163.9010028003179  18.449926714480195 163.56603389529457  C 15.451055819106617 163.2309733852836  16.44900348266941 162.56860825422015  18.118145949556403 160.8960233188001  C 19.7796246708172 159.22606439302743  19.452993699177007 158.56104271732067  19.7796246708172 156.55089340222585  C 20.116524756875013 154.54578236145443  18.786826800538005 152.88086171000532  18.449926714480195 150.87581173922575  C 18.118145949556403 148.865631889135  20.116524756875013 147.53320680804129  21.11189752379596 146.19815571730018  C 22.01792594806847 145.0013060180026  22.911186541655567 143.80183030905764  24.28686697174992 143.80183030905764  C 24.44762279700294 143.80183030905764  24.61610331218145 143.819754351651  24.787113015777365 143.85297642719024  C 26.456240246589612 144.19066294684862  26.78546135094639 146.19815571730018  28.454619053908132 146.52808634800004  C 28.52865114137896 146.5459798555974  28.597563907715763 146.55107919991272  28.669021098544775 146.55107919991272  C 30.233522203680486 146.55107919991272  31.50705998829132 143.0882579898699  32.78315743346905 140.85822616929892  C 34.11544552252265 138.51301634419303  32.78315743346905 134.50798521195324  31.448355392072855 132.16790526615856  C 30.501509523401488 130.5055190193692  30.404501435126736 128.67943465955963  30.422373350871478 127.15011992490254  C 31.040013351260896 126.16295404245052  31.74695198607438 125.1041225246211  32.45139190462009 124.152682587372  C 34.45234560858045 121.4801681412137  33.45441318109249 120.47000940684896  33.120042283452115 117.47257206931842  C 32.78315743346905 114.46759258780054  31.7877846665481 115.80508647821364  31.448355392072855 113.45987665310776  C 31.124253608850093 111.11979670731307  33.45441318109249 111.79245213199488  34.45234560858045 109.78987549588315  C 35.450247563918836 107.78998593941071  36.45069394374948 107.45492542939968  39.1177536020496 106.11230165967535  C 41.78226883585766 104.77731163892607  41.4581670526349 103.76962623922917  42.45608424404803 101.43974498206514  C 42.87460398282884 100.45517457426459  43.23707020240717 100.06380753181384  43.5892063632686 100.06380753181384  C 44.071641435850665 100.06380753181384  44.54121726129851 100.80806752188117  45.12058424178122 101.76964507776907  C 45.842880839996766 102.9819149499961  46.39416773461647 103.83866586495913  48.04284815304213 103.83866586495913  C 48.665607474565576 103.83866586495913  49.449092149192566 103.71848012109662  50.45982287951558 103.44229108318085  C 54.11964993594532 102.43463621847987  53.12429240509911 102.09701076881323  54.45656525807795 99.76719058164095  C 55.79138253554889 97.42967557550188  55.79138253554889 97.75960620620168  57.792290531284934 96.42452458046468  C 59.7856109617687 95.08956509471135  58.455913005431704 95.4245645347305  58.455913005431704 92.754553958236  C 58.455913005431704 90.08200897708177  59.7856109617687 90.4195733567566  61.1204130031649 88.07185966198692  C 62.45268585614366 85.73947453515903  63.11882228263308 86.06674862121554  64.78797998559483 84.3915987461399  C 66.45710721640707 82.72924303434644  66.12529597933361 83.40437179369604  65.11715538172719 82.39934293864252  C 64.1167699461959 81.39422247860118  63.450603047556875 80.05920192285598  62.784466621067445 77.04906202703103  C 62.12596346805473 74.03635719155048  63.450603047556875 75.05173741021417  65.78586670485846 73.05175624875402  C 66.56176381423319 72.37662748940436  67.44993555883588 72.15662284394465  68.37895521998699 72.15662284394465  C 70.22925461628913 72.15662284394465  72.23019308417473 73.05175624875402  73.78957486817635 73.05175624875402  C 75.70636449492152 73.05175624875402  74.91771479093619 74.63478204119932  74.9508380175593 74.63478204119932  C 74.95851699926033 74.63478204119932  75.00446900086806 74.56326908080139  75.12440738172222 74.38161639019212  C 75.78543972315238 73.37399206048703  76.79102066019179 72.04153644439742  78.44998542910993 71.7091019440338  C 80.12927512181619 71.38173625298958  80.45343784933812 71.7091019440338  78.78941470358514 70.03395206895816  C 77.12283189726516 68.36387100320198  78.44998542910993 67.69643706281909  79.7821973377895 66.0237910574073  C 81.1195590397527 64.35887040595811  82.12261078837471 64.35887040595811  83.11798355529575 62.356385374834154  C 84.1260632086029 60.34877046439899  84.1260632086029 60.01883983369917  83.45229350863688 58.678750468634554  C 82.78611137392308 57.34632538754085  82.45695121386551 56.33867052283987  81.7857107023169 53.67382036065243  C 81.20128534499942 51.32604559589093  81.64023666009187 50.26467967340188  80.19052414252671 50.26467967340188  C 79.9863302680085 50.26467967340188  79.74389384573318 50.28513812065484  79.45550542185012 50.32861995481649  C 77.12283189726516 50.66361939483574  75.78543972315238 51.333740414857736  74.12138610524981 52.666134960955574  C 73.01110286215989 53.561268365764974  72.04388636147591 54.15209000143462  71.13016371942757 54.15209000143462  C 70.67588491308263 54.15209000143462  70.23185998508055 54.003720456356376  69.79284772568879 53.67382036065243  C 68.45550125980041 52.666134960955574  69.12160721414018 52.00120489023652  67.791848313504 50.32861995481649  C 66.45710721640707 48.66116489870765  68.11601104102603 47.65352530150465  69.79284772568879 44.653568826812396  C 71.45175155030775 41.64341366348944  71.78610721187337 41.975878698848966  74.4531668701736 39.97084399556741  C 77.12283189726516 37.97341250626482  76.11978014864317 36.97343719303275  78.12326304102095 36.97343719303275  C 79.01399444619067 36.97343719303275  79.90213571864365 37.10644763517328  80.76224261345808 37.10644763517328  C 81.83675155290905 37.10644763517328  82.86271835803572 36.89931349048537  83.78916312254509 35.96840833797911  C 84.67221554601372 35.083458354302394  85.55276925321458 34.66662512527114  86.47924448987355 34.66662512527114  C 87.31125606275003 34.66662512527114  88.17898099496622 35.00163983278829  89.1207532507281 35.63079815581048  C 89.66690558813887 35.996546336701016  90.33302677855346 36.137190527816585  91.07319529251367 36.137190527816585  C 93.06647001477305 36.137190527816585  95.60077775330922 35.11672623233547  97.78038967041695 34.6231432911095  C 100.79454234881857 33.95818268539449  100.12077264885255 31.96082753358174  99.46229996798938 30.618112158869756  C 98.78853026802337 29.288282552427525  96.78760703621258 28.620741739559108  95.1184645693256 26.610546621970332  C 93.45182081870645 24.610580728008127  92.79081894942587 23.94056658047172  95.1184645693256 22.27050078221344  C 97.4588475477612 20.603045726104607  101.12126473690755 19.603085680370427  103.45399920579179 18.592865876013843  C 103.81640448107082 18.43941225411824  104.15074490656161 18.375471972703608  104.46975784079997 18.375471972703608  C 106.21550729179964 18.375471972703608  107.43034048019203 20.37285765951223  109.12501860844989 20.94064064077534  C 111.11573367014226 21.600440832183185  112.12643392831569 21.935486074696286  111.11573367014226 23.94056658047172  C 110.12036090322128 25.94048667194008  111.45519341676706 28.285696497045972  114.45401860391624 28.620741739559108  C 114.62502830751215 28.64124598930592  114.79347835054105 28.654009617592102  114.95178116775074 28.654009617592102  C 117.5754332489354 28.654009617592102  118.55032873132029 26.19881273725433  120.13015732770842 24.9405266262059  C 121.78397230334302 23.602956398303014  126.45712022281236 18.927895851028968  128.12626268969936 17.25784532026866  C 129.79284549601934 15.580161040533293  131.46198796290633 12.252854142294709  132.45733025767768 10.240124620046318  C 133.4577918735831 8.240189261079983  130.78818779079072 8.905165134292911  130.78818779079072 7.235114603532578  C 130.78818779079072 5.5727436242411015  132.79170115531812 4.900134002053222  135.12187596363532 4.900134002053222  C 137.46225894207095 4.900134002053222  138.79456226719927 2.5625884609181786  138.79456226719927 2.5625884609181786  C 138.79456226719927 2.5625884609181786  138.44742353887344 2.6239485351792884  137.9420734097867 2.6699953089965334  C 138.80473996516815 1.9820723863647889  140.00168600174112 1.1943610971317469  140.9434582575029 1.1943610971317469  Z M 140.9434582575029 0  C 139.89201673530457 0  138.6694131487623 0.5651875066116598  137.1994061795587 1.7339602771790965  C 137.1994061795587 1.7339602771790965  134.71860753573287 3.71088751673473  134.71860753573287 3.71088751673473  C 131.50285111552967 3.808065141186576  129.59633060320215 5.10981781889867  129.59633060320215 7.235114603532578  C 129.59633060320215 8.70818387574179  130.73208856336373 9.301585718565022  131.28080056134166 9.582889368294076  C 131.28080056134166 9.582889368294076  131.41600548914897 9.65701307084137  131.41600548914897 9.65701307084137  C 131.41600548914897 9.65701307084137  131.39050029992777 9.7030903796546  131.39050029992777 9.7030903796546  C 130.56622865305147 11.373110375419033  128.8561925613916 14.830816973648579  127.28148328613743 16.41387330108973  C 123.1315421754246 20.572358055225106  120.47220720704992 23.124717292516802  119.37984158792904 24.0095909387038  C 118.82086047553356 24.454577433954903  118.34869451736908 25.00191723546291  117.89694489944159 25.528752787224075  C 116.86588924533051 26.725663556513418  116.174232393545 27.45705304580891  114.95178116775074 27.45705304580891  C 114.83431103101478 27.45705304580891  114.71181298959361 27.44686962467625  114.58419562703844 27.434075461394112  C 113.45608617642824 27.311309510378095  112.58583205579464 26.820276241309745  112.19024260959333 26.0965205009892  C 111.91712073266345 25.587563189327504  111.91712073266345 25.014696131247074  112.1825636278923 24.472486209050242  C 112.52967188406848 23.789662630733744  112.94314848208937 22.756449974464463  112.53735086576953 21.776933108485355  C 112.07789179399131 20.66188666320399  110.93707545699492 20.283374854027223  109.49513333757962 19.81023509255623  C 108.97695443350825 19.633773351249932  108.44101026621584 19.2066803635963  107.87441111641861 18.75911366119158  C 106.94290797507438 18.0148689386222  105.88372652687586 17.176026798754474  104.46975784079997 17.176026798754474  C 103.9797352029657 17.176026798754474  103.4769752065956 17.28598331899054  102.98183324762732 17.495682403333966  C 102.30288328222814 17.789810751341033  101.5040863524235 18.08392383185012  100.66183613727897 18.393411282794844  C 98.56651018598497 19.16574820159225  96.19547222504441 20.035278012339507  94.42677724539051 21.30122840735876  C 93.5207183489684 21.948249702982473  92.57638643263957 22.758984379124165  92.43603171154855 23.874091894397385  C 92.28290915977215 25.07859061016791  93.0332553717012 25.97885389428852  94.07205095181246 27.224345842054813  C 94.07205095181246 27.224345842054813  94.20219750278504 27.3752497917927  94.20219750278504 27.3752497917927  C 95.11331477604196 28.48006701344764  96.11380686409697 29.2140672448925  96.91775358718517 29.80487361306426  C 97.5991717967026 30.30610557076328  98.18624823103598 30.73834370522612  98.3980296708064 31.157772408908933  C 98.88805230864071 32.15773245464311  98.87784413852222 32.61041376886102  98.78079034202318 32.81499824139122  C 98.65579358433416 33.07584344386723  98.1964259290048 33.306092580451434  97.52521588960585 33.456950727695556  C 96.77992805451156 33.625763452528815  96.00151699279424 33.85335604446972  95.21548789367509 34.08097917140646  C 93.7530380175741 34.50549195190663  92.23957776303058 34.94027975852718  91.07319529251367 34.94027975852718  C 90.5142446522678 34.94027975852718  90.09055988412854 34.845621271237086  89.78690491329225 34.641036798706885  C 88.61284346107438 33.85335604446972  87.53074695637109 33.47229456313532  86.47924448987355 33.47229456313532  C 85.2286369978422 33.47229456313532  84.03930899867105 34.02725284612039  82.94694337955016 35.12184084414879  C 82.3829343624695 35.69215823007163  81.77041368321406 35.90956740087984  80.76224261345808 35.90956740087984  C 80.36665316725666 35.90956740087984  79.96082507878728 35.87887973000022  79.55758712303442 35.850711196282475  C 79.08292244860222 35.812389776427906  78.60310798088643 35.779106630896905  78.12326304102095 35.779106630896905  C 76.50772108529317 35.779106630896905  75.97174644585107 36.40571528176142  75.4409215996927 37.221564569716335  C 75.1448541941086 37.671696211776656  74.77732959769553 38.23946392554184  73.74109367815127 39.01690018865449  C 73.13875069686463 39.46445162356132  72.65899717344803 39.79433645176723  72.25825793396298 40.07058655967483  C 70.70145104660314 41.13958623113895  70.09401921633214 41.63574937951853  68.74894806051825 44.07815209657422  C 68.30746755700835 44.868382522969014  67.85829283572266 45.523113905057514  67.46524781401348 46.09598096313795  C 66.42395351763437 47.61767721631798  65.34942934210858 49.18545077831123  66.86034517215984 51.075414349543486  C 67.34782338550193 51.689167767134094  67.48308925760855 52.098367247190474  67.62341350654994 52.53065118414717  C 67.83272670220215 53.15463382536431  68.06500066258344 53.868175609556204  69.07824534524914 54.62773363256939  C 69.70862270417435 55.10853767801126  70.40026431988503 55.3514741053919  71.13016371942757 55.3514741053919  C 72.50328448895489 55.3514741053919  73.73603530131642 54.50751735371098  74.86661299604485 53.59705538095981  C 76.48474508448923 52.3056082643639  77.64091938488775 51.79662041770632  79.62395546487903 51.51017162116817  C 79.84091717008269 51.47691901063307  80.02213504379708 51.4615904426912  80.17522712342392 51.4615904426912  C 80.21605980389765 51.638052183997495  80.24927444696951 51.896408784307624  80.2849878063092 52.12142116909491  C 80.35641452498861 52.60985896351179  80.44319920707008 53.22364291609838  80.62700721350103 53.96533796651004  C 81.29056874334862 56.59437057850672  81.64023666009187 57.71717291274677  82.38805368360352 59.21583051152024  C 82.87548618872117 60.185102886374835  82.87548618872117 60.185102886374835  82.05368278596309 61.819366401940385  C 81.57639750666466 62.775844613512916  81.13491700315475 63.13896678475608  80.52486456801752 63.63772540778711  C 80.03490287448247 64.0417950085322  79.4785423669532 64.4970412624058  78.85066372429577 65.27702719767616  C 78.61840499998922 65.5736746828449  78.38358661511577 65.82940527350766  78.16924551477828 66.06983783122455  C 77.25556858095436 67.08778298954378  75.88755189648631 68.60946397522588  77.73788176493798 70.65802631516303  C 76.72462184619755 70.96997183327774  75.93347342594437 71.55309864998056  75.29800721803473 72.2128988413884  C 74.94833930129144 72.00828383386235  74.46334456814238 71.85741041912026  73.78957486817635 71.85741041912026  C 73.18473317062197 71.85741041912026  72.41144143003869 71.66821558452367  71.59471164019024 71.46866938631703  C 70.60439725010403 71.23345831289905  69.48404296156892 70.96233808430267  68.37895521998699 70.96233808430267  C 67.03386882809835 70.96233808430267  65.92878108651645 71.34851417745035  65.00745564314107 72.14382868066252  C 64.34386364114391 72.71162692942359  63.78488252874843 72.99291531165466  63.289786278004584 73.23337840436739  C 61.72528517286885 74.01592927929336  61.07703589819891 74.82409901577951  61.62062857504276 77.30747969733298  C 62.29441351108364 80.36104035732777  63.009015891523276 81.96968501133314  64.2647731768383 83.23563540635253  C 64.16523590014621 83.32772895398703  64.06309325466269 83.43002119025208  63.948274194942556 83.54507705480339  C 63.39698730032285 84.09751620062671  62.97589266490028 84.39929356510672  62.567535388013376 84.69597158527141  C 61.78651895750465 85.25601394507385  61.051530708977666 85.78289529932887  60.08166313127796 87.48106856131314  C 59.652919986303914 88.23552724001107  59.234324067149 88.64985659937864  58.8259667902622 89.05646060478342  C 58.05773342651367 89.81598809280072  57.26149615727613 90.6036993820338  57.26149615727613 92.754553958236  C 57.26149615727613 93.92080759164179  57.48604542773199 94.64201365980455  57.62640014882303 95.07417545677772  C 57.524318447638706 95.15353591112185  57.368636235295234 95.26856124067726  57.126199813019916 95.42972494903766  C 56.77398747178449 95.66753149710709  56.48302415125959 95.85165752238422  56.238043304492095 96.00509587678188  C 54.895562281394874 96.85164810311431  54.568824657231076 97.16621963087641  53.420390282832855 99.17377347131978  C 53.040067383584656 99.84392502633771  52.8206221981881 100.38094399923155  52.66495522191938 100.77221943669454  C 52.340777258322625 101.57785476852092  52.292280832222616 101.69556717771553  50.143323897619815 102.28883161305723  C 49.27814338989581 102.52159988680314  48.56862985844049 102.64435057032127  48.04284815304213 102.64435057032127  C 47.07560118020868 102.64435057032127  46.83311904970895 102.30929006031025  46.141462197923424 101.15589166017845  C 45.4702521585245 100.03058545627462  44.77603564617197 98.86955330716783  43.5892063632686 98.86955330716783  C 42.25445003009682 98.86955330716783  41.626601859588945 100.34265311437292  41.35861453986797 100.97433057455683  C 41.11613240936821 101.54206775332608  40.942623989504476 102.04076530636539  40.792045862220306 102.48575180161657  C 40.35557802732074 103.76196195525826  40.192247305425845 104.23507118173332  38.58436909532421 105.04327145321533  C 38.58436909532421 105.04327145321533  37.85187956306508 105.40895856411407  37.85187956306508 105.40895856411407  C 35.66719403304775 106.49334787351182  34.46255377869891 107.08926885349682  33.38546994260608 109.25798640230053  C 33.135369774704586 109.75668395533982  32.75766748032264 109.97662753080775  32.16551743307963 110.29626786788926  C 31.34375973854601 110.73621608881689  29.968048836302078 111.4727812599174  30.266706374602755 113.6236358361196  C 30.465750455837345 115.00717650035003  30.907322375796102 115.53659225926468  31.376898201243876 115.99950279710914  C 31.606612501058137 116.227110656548  31.803096921725714 116.41896203578784  31.935864077564613 117.60814745111456  C 32.020028154779794 118.37793469775426  32.145131564992376 119.01730697690499  32.257467144519524 119.57744094169513  C 32.56878586098207 121.1732608974225  32.6989324119546 121.83312215882215  31.499396242665036 123.43923240816787  C 30.652118122835315 124.57217236104661  29.896576409398264 125.73836492446056  29.409098196056178 126.51838139472689  C 29.409098196056178 126.51838139472689  29.235589776192437 126.8022652516094  29.235589776192437 126.8022652516094  C 29.235589776192437 126.8022652516094  29.230485691133254 127.13479135696073  29.230485691133254 127.13479135696073  C 29.210069350896443 128.8559574708577  29.335127052884623 130.86873279559998  30.412180416827763 132.7612002364962  C 31.77248764744529 135.14225814678866  32.70405173308862 138.5845903745827  31.74695198607438 140.26230518931393  C 31.43816245802923 140.80191963685925  31.1318868823268 141.40803930547477  30.8179627970728 142.0269531373725  C 30.294740752241427 143.06016579364186  29.207494454254576 145.21608917916342  28.646029861666104 145.3593288449305  C 28.2759760768356 145.27749505591845  27.995251398578734 144.96292352815627  27.52559939275698 144.41564479664004  C 26.96155990352663 143.75324913058068  26.25969488162276 142.9323157658084  25.024460589068244 142.6842189241207  C 24.764076070674278 142.63047733133664  24.51911045998153 142.60748447942387  24.28686697174992 142.60748447942387  C 22.334424929964197 142.60748447942387  21.142491562001645 144.1777771785788  20.190541608271005 145.43862822928284  C 19.930218034176225 145.79152117689947  19.641829610293165 146.09079467171568  19.345762204709075 146.40787006914158  C 18.327398200909453 147.49745032784233  16.92878747823561 148.9909475123087  17.27336654599445 151.07016698812944  C 17.42392943720398 151.96530039293881  17.725131399996837 152.7504467425163  18.016064248372157 153.50743982587392  C 18.41416764691608 154.54578236145443  18.75621752625749 155.44088523126797  18.60560892682363 156.3539121436747  C 18.531576839352805 156.80915839754826  18.488230206536485 157.19796050034336  18.449926714480195 157.54575410364467  C 18.327398200909453 158.66086161891795  18.286626464734887 159.03677795344316  17.27591097048671 160.05463150677474  C 17.27591097048671 160.05463150677474  16.85990518404847 160.46380045183514  16.85990518404847 160.46380045183514  C 15.846675737457607 161.4612566279055  15.047802627278982 162.2464335124789  15.415403404066158 163.3204409232706  C 15.78289752832965 164.38449392539897  17.05131599180647 164.612040714846  18.317205266865823 164.75268490596153  C 20.614165432111033 165.0084460316202  21.719344590141784 166.15418014778112  22.888271485150913 167.36138121068885  C 22.888271485150913 167.36138121068885  23.26853344009979 167.75259557816003  23.26853344009979 167.75259557816003  C 23.8989107990251 168.37920422902448  23.99847854786686 168.82165631961593  24.177106288864533 169.6272305814505  C 24.28427683903322 170.12855414413718  24.406835824753657 170.69119197859115  24.67985104915983 171.36888567759638  C 25.19032049938056 172.63227113296014  25.744182290642023 173.15918302221107  26.27761250559183 173.66801819388914  C 26.565939985175728 173.9442683017967  26.833942540971446 174.20259436711098  27.155515135776895 174.63487830406768  C 27.895714121886638 175.61172335790556  28.574557434762283 177.28687323298118  28.2759760768356 179.06697188896524  C 28.030919049694113 180.5528353244566  27.72721837063332 180.86224643791164  27.681296841175246 180.9031938674135  C 27.683871737817004 180.8878347644758  27.497534542968726 180.86224643791164  27.1223614370042 180.60908078690446  C 26.30310245873832 180.0617104504005  25.320512758577586 179.7727883191944  24.28427683903322 179.7727883191944  C 22.911186541655567 179.7727883191944  21.66572884290785 180.28421896552405  21.027672502281508 181.09504524665348  C 20.614165432111033 181.62943820989983  20.466177437543454 182.26624554939502  20.62444978260348 182.89291527025128  C 20.971497094480593 184.245798798598  22.13786432892263 184.49646057994136  22.763183311013073 184.63200542674159  C 22.936737439101254 184.6677924419364  23.199590201613375 184.72409897437606  23.27107786459205 184.7726190828612  C 23.401224415564666 185.44270956788736  23.2430130148038 186.22522990781744  22.931633354041978 186.60636772664168  C 22.791293869025854 186.7878982772673  22.681517950065633 186.7878982772673  22.625342542264683 186.7878982772673  C 22.538603568407634 186.7878982772673  22.34973718514184 186.75727167637956  22.040901948872367 186.58587874439272  C 21.476877695716887 186.25848251835257  20.97916084010676 185.9030857010722  20.53761939229761 185.5859186986585  C 19.646903223202745 184.94144707519249  18.878700331603905 184.38903846436511  17.934398887424713 184.38903846436511  C 17.163666807408333 184.38903846436511  16.466829690189627 184.7700846782015  15.854339483083805 185.53223817586627  C 15.190747481086643 186.3684695735845  14.409776758802336 186.9234736590634  13.587988592119054 187.51423422474136  C 12.924350881897455 187.98740452120822  12.245507569021834 188.47324684097353  11.60999565288776 189.11268019011612  C 11.313943483378416 189.40938874527663  10.846896846348079 189.76478556255714  10.35685897243901 190.13822856241444  C 9.05521062981551 191.1279899195181  7.710230890450438 192.15100388715672  7.6182964150853785 193.49106271722542  C 7.5902468013718725 193.91812516988324  7.679606380095176 194.55749744903397  8.276784332023352 195.15094509435107  C 9.675410290771941 196.5396767078844  11.0663572678195 196.99736576143  12.0821616110522 197.3323957364451  C 12.0821616110522 197.3323957364451  12.401159309215691 197.43987892201324  12.401159309215691 197.43987892201324  C 12.773818462837616 197.56000359588398  13.166848248472045 198.31455387956956  12.95243096776054 199.40657693794233  C 12.95243096776054 199.40657693794233  12.919231560763436 199.55488541302879  12.919231560763436 199.55488541302879  C 12.89118194704993 199.7160185863933  12.855468587710227 199.89251086269545  12.819755228370523 200.04848362175284  C 12.669146628936666 200.0049712525952  12.46242356600105 199.94866472015556  12.168931057058803 199.84893742354606  C 11.643149351660453 199.6750406218954  11.11991207075425 199.45002823710809  10.627375480577415 199.24034442026257  C 9.593744929824497 198.80293060399464  8.703028760729634 198.42191492515406  7.868427055136558 198.42191492515406  C 7.12577506098329 198.42191492515406  6.508104588444291 198.73905139257178  6.125282972928319 199.31961326961905  C 5.54594646459519 200.18399793355707  5.224358633715026 201.44991779358057  4.935954973757219 202.5675902485093  C 4.864497782928121 202.84640529607248  4.798129441083576 203.10720469605465  4.73182204353819 203.33734696015324  C 4.190697610812501 203.3834242689663  3.24380603391672 203.50364054782474  2.27139403172475 204.4805466716544  C 1.8401369344081318 204.90773126429582  -0.3113948968365091 207.18127545402433  0.03824254775710486 209.36788651042554  C 0.18117216548990545 210.25532509626805  0.7298689273929403 210.97659223442272  1.584886973222933 211.40625016173198  C 2.0519640824029355 211.638987900482  2.503683228180882 211.8230833907633  2.9324720813794256 211.9969496574181  C 4.29536944471345 212.54935826824547  4.918083058012479 212.80008111958065  5.293301872201411 214.2961432437026  C 5.949214892497658 216.90996942774106  6.691882122725674 219.87146707509723  9.0016405908059 220.79728815078616  C 9.647330204908856 221.05824022574782  10.543119986913299 221.1808687692823  11.74526152499439 221.1808687692823  C 13.595576157371234 221.1808687692823  15.54806390738137 220.88168687945384  15.632319401045402 220.8713965858356  C 15.632319401045402 220.8713965858356  15.958950372685596 220.81768552804738  15.958950372685596 220.81768552804738  C 15.958950372685596 220.81768552804738  16.214169861721103 220.60555891152987  16.214169861721103 220.60555891152987  C 17.104886030815965 219.86123785147075  17.921646292813993 219.59023976285798  18.781753187628397 219.3062643009877  C 19.623942458473678 219.03010579806784  20.581042205488004 218.7103433210027  21.532992159218644 217.95084636798128  C 22.77851080226555 216.94822977760379  23.80955122030188 216.57490891773003  25.68544722227407 215.89205480441768  C 25.68544722227407 215.89205480441768  26.872230796952994 215.4572975327931  26.872230796952994 215.4572975327931  C 26.872230796952994 215.4572975327931  28.452028921191513 214.8613765528081  28.452028921191513 214.8613765528081  C 30.62909641380709 214.03537437871637  33.097096754797874 213.09675913974533  34.35023343524663 212.84606682340615  C 34.35023343524663 212.84606682340615  34.63607743463742 212.78472201664295  34.63607743463742 212.78472201664295  C 35.40434127053553 212.62612324793818  36.27459539116913 212.4496615066319  37.11942050295552 212.4496615066319  C 38.094331221415146 212.4496615066319  38.778339563649226 212.68239924538196  39.28109956001932 213.1837228080686  C 39.72520066839542 213.6286176983321  40.14629530381811 214.03018342941334  40.554683052854564 214.41895499721252  C 41.624057435096795 215.43677801554827  42.55048696353133 216.31404844775608  43.46164994501269 217.679695604389  C 43.94402407329548 218.406031551863  44.54121726129851 219.01731163478576  45.12568832684041 219.61323261477074  C 46.34564083636686 220.85872456253702  47.08577887817747 221.68216179697316  46.935200750893195 222.87656869659875  C 46.595741004268376 225.60789354486045  46.230791304497146 229.49017399358206  46.98627207363496 231.75864937399118  C 47.509463646316746 233.3084836258931  48.18580824292463 233.69203370939337  48.897850962797264 233.97845197093568  C 49.160749433533915 234.08337021684815  49.28320176673067 234.13457740497256  49.51038687812753 234.4363547694525  C 49.8779114745406 234.93245684784029  49.85496594588637 236.12426827281436  49.831974709007696 237.18053485098818  C 49.81664721775522 238.00910196473555  49.798821010235 238.87107436399745  49.95194356201143 239.6357011963301  C 50.01316211057249 239.94007403546158  50.064202961164554 240.30325727669657  50.115243811756734 240.68677682520098  C 50.370493772941934 242.56651117280683  50.71757155696854 245.1367333827  52.88955020059965 245.5767121386235  C 53.430537508652044 245.6866075888677  53.84663471153914 245.9706135857339  54.374915133205256 246.31831558404755  C 55.05637905094716 246.77866118223636  55.903733351150876 247.3413600866821  57.18237522082086 247.57150235078063  C 56.980725770794855 247.80686609917808  56.76373359344162 248.0574362755338  56.55705623873041 248.29530389359493  C 55.52085079133574 249.4793594296104  55.05124449373832 250.52289291449392  54.71178474711349 251.28242040251135  C 54.24220892166574 252.33352656637803  54.0993097760825 252.65072410378752  52.866543727646146 252.92431766705178  C 49.740085941867044 253.61996594364626  48.06841428656262 254.4792817982649  47.61413548021766 257.2439508620496  C 47.169973427542324 259.88064775801706  47.859070618760754 261.8856977287967  49.714580752645716 263.37415663893955  C 51.07746287990499 264.48153880025  51.98603572866974 266.4994440043035  52.279573945836425 268.01343017101874  C 52.48882619718944 269.04661229229214  52.97371427781494 270.08755030252416  53.34637343143679 270.7832901841064  C 53.34637343143679 270.7832901841064  53.85169308837392 271.72688262740905  53.85169308837392 271.72688262740905  L 54.84450619472786 271.3254085013155  C 54.84450619472786 271.3254085013155  57.0113502811502 270.4533290184106  57.0113502811502 270.4533290184106  C 57.580478619364875 270.5709192876217  59.25472517131106 272.86763953923827  60.25262712664943 274.24348538450187  C 61.73037402185329 276.2766580865054  63.25917700372407 278.3763360095791  64.85427214706546 279.2970577409527  C 65.55107879213449 279.6934630577269  66.24014551120341 279.8904748512739  66.90881112611018 279.8904748512739  C 67.96288848924951 279.8904748512739  68.93015069815789 279.3890596835995  69.63969470176278 278.47875038582777  C 70.81115078518926 276.97484076775953  71.1889292599452 274.4967121055009  70.60439725010403 272.1744645973118  C 70.13739632129806 270.28969197538237  70.24974713690003 268.70648297296174  70.92092670414937 267.724416434825  C 71.39054823782163 267.04415779616414  72.12046287343904 266.64775247938996  73.16178764196773 266.51477257224525  C 73.4322889140313 266.48411543636166  73.6721656757396 266.4610615144571  73.8916565693607 266.4610615144571  C 74.84110780682349 266.4610615144571  75.01723683155342 266.6017362405685  75.73439887256019 271.41234163464287  C 75.88237163105302 272.4174315596882  76.05338133464893 273.5734865044634  76.27546236098661 274.8956823619306  C 76.87524568170623 278.5017127027446  79.09821946770512 280.48627369127524  82.52584874412757 280.48627369127524  C 84.36853010302782 280.48627369127524  86.20356295237671 279.9083378238754  87.38277419787826 279.44280127638353  C 88.24029095997602 281.3200622893215  89.96300346587262 281.6779935112616  93.01283903146427 281.6779935112616  C 93.54122610565408 281.6779935112616  93.70199716698195 281.79573645545213  93.70199716698195 281.79573645545213  C 93.70199716698195 281.79573645545213  93.69937656211579 281.79573645545213  93.69937656211579 281.79573645545213  C 93.67134218447711 281.79573645545213  93.63815801355476 282.0667650790608  93.35485843865611 282.47343015445745  C 92.90310882072855 283.1281920715417  92.14764328766549 283.6447525971826  91.47643324826649 283.75727405707414  C 91.19825299450186 283.805885770547  90.95578610007698 283.83406957176277  90.7414145275899 283.86213123299484  C 88.22496346872357 284.17929823540845  88.16880329699745 285.17409786683555  87.95689996862855 288.87231336027173  C 87.92121708143846 289.501456415796  87.87782474039771 290.2328306375935  87.82166456867161 291.09211595721627  C 87.71443307420363 292.68292817361595  87.94419308224232 293.7263700535118  88.54394593081231 294.3656812626707  C 88.93185639531266 294.78260609668973  89.44491597825002 295.00001526749793  90.02934133556757 295.00001526749793  C 91.50705775862177 295.00001526749793  93.14045639401945 293.580626518081  95.2894742729215 291.572950537654  C 95.9581246517535 290.94640295678136  96.79272635734661 290.16632541652325  97.09894098874992 290.01044426245363  C 98.81150626882729 289.1510368028472  98.92891546126398 288.01290590066543  99.05400363540177 286.81095685705253  C 99.11522218396274 286.19201249015896  99.19691801705986 285.41709536420797  99.4955146110613 284.38125669829134  C 99.6690535030746 283.77012929034805  100.19229078398078 281.90569297568817  100.73585298867499 281.90569297568817  C 100.9477258448943 281.90569297568817  101.46837299308379 282.0207183052435  102.5402917998182 282.79056662187514  C 103.48206405558001 283.4606265719054  104.26812362684876 283.78038904897045  105.01085180137599 283.78038904897045  C 106.76674847819484 283.78038904897045  107.44060959460973 282.1562631520438  107.97905247816986 280.849518002502  C 108.1960141833735 280.3225450432593  108.42059392597905 279.78042672605017  108.69880465189323 279.322615532521  C 108.7549038793202 279.23052198488654  108.83410099614943 279.095068743074  109.24239732873704 279.095068743074  C 110.40884074355321 279.095068743074  112.22851562950005 280.1870612664509  112.77460702261159 280.570641884947  C 112.77460702261159 280.570641884947  114.45145894334922 278.92364527609124  114.45145894334922 278.92364527609124  L 111.50111494622521 274.4914906212019  L 112.8691316306933 273.4020630374806  L 112.92270166970286 273.35595519367155  L 112.96865367131059 273.3100610948338  L 113.41784362867114 272.92895381100556  C 113.41784362867114 272.92895381100556  113.4024856652691 272.34323151965117  113.4024856652691 272.34323151965117  C 113.34382677727511 271.1386564663909  113.10903886455128 270.2358587776107  112.67517639844313 269.58378394016546  C 112.22592549678336 268.90343369651697  111.53432958929712 268.56327384219065  110.62318184389059 268.56327384219065  C 110.46746915939755 268.56327384219065  110.30413843750269 268.5735030658171  110.14845622515917 268.5863888340869  C 110.15607426256098 268.4815316581662  110.163753244262 268.3433608017186  110.18925843348326 268.17706721404704  C 110.29898864421901 267.40731050240316  110.44193349802663 267.2283448914331  110.44449315859363 267.22321501212184  C 110.45982064984608 267.22321501212184  110.55422336932938 267.18996240158674  110.62571103230799 267.1695955593214  C 111.38882507492254 266.92403312229345  112.24637230916984 266.51477257224525  112.81294098681752 264.8268285338875  C 113.46882353496407 262.84477141502066  113.2800485681472 261.6581204043537  113.08097401476293 260.3998953632971  C 112.9788618414291 259.75536266983926  112.8742204796777 259.0878371244687  112.8742204796777 258.20806282259707  C 112.8742204796777 257.371770354887  112.95591631277476 257.30279179914885  113.29022626611597 257.00608324398826  C 113.77765877123362 256.57639478168306  114.5229466063279 255.92938875355733  115.04874354780102 254.08538035115453  C 115.75822660710674 251.59699193027336  115.44171238913617 250.24151292727515  115.07424873702236 248.66612088380492  C 114.92874422264767 248.04210770759192  114.76285384018576 247.33876461203067  114.63779613819759 246.46415072446607  C 114.21664055847577 243.51282123074458  113.08603239159774 241.68417193127956  111.89414473185958 239.7456271815702  C 111.89414473185958 239.7456271815702  111.36837826253598 238.8888762666072  111.36837826253598 238.8888762666072  C 111.36837826253598 238.8888762666072  110.83755341637763 238.01936172335797  110.83755341637763 238.01936172335797  C 109.45427018495629 235.75592461727229  107.35888328936302 232.3391196460508  106.61356498211916 229.0043011388208  C 105.74075120091862 225.00439988589227  105.84286337425246 220.47758674371283  106.5217219232029 219.10424476811312  C 108.47163477657115 215.2168649750762  108.30571392195964 212.21441989821807  106.06238474002313 210.86917011884634  C 103.66837077827876 209.4241930428652  103.01498694640001 208.6006947384372  103.88021316234841 206.56752203643376  C 103.88021316234841 206.56752203643376  104.02562626027424 206.2324920614186  104.02562626027424 206.2324920614186  C 105.20486797792537 203.4704184722855  105.60042695197717 202.542032456941  108.53544345784873 201.4346197606346  C 109.17861911960911 201.19171386824993  109.78093162874605 201.07919240835827  110.37559562833162 201.07919240835827  C 111.23055272986238 201.07919240835827  111.96307273427118 201.32209830074302  112.6700266051595 201.55987431381655  C 113.28766660554895 201.76705426099824  113.92319375775786 201.97676861283963  114.59952311829086 202.00498294905128  C 114.48464311427153 202.27353823799206  114.34428839318052 202.5701857231609  114.19622421823885 202.83098512314297  C 114.19622421823885 202.83098512314297  116.22015392300312 204.09189724383882  116.22015392300312 204.09189724383882  C 117.80510184052527 201.7158776078698  120.17607885716656 199.02290471445846  121.24546847548362 198.80809101830175  C 122.47821928784505 198.5624980462778  124.55827869218595 198.31705774923336  126.42649571245707 198.31705774923336  C 128.3840266032271 198.31705774923336  129.13693247572317 198.58814744283384  129.36407187889566 198.70576824704074  C 130.63506523901424 199.34770546584707  132.4420332385749 200.498630531311  133.83555511226425 202.36554018063885  C 135.07083511304313 204.00236863585994  137.65109485318703 205.75416135064464  140.4100737507775 205.75416135064464  C 141.06083697779005 205.75416135064464  141.6887460925972 205.65186911437954  142.27832124319835 205.45754440047176  C 145.5221729853394 204.36549080710307  147.0968822605935 202.5394369822895  147.0968822605935 199.86686146613943  C 147.0968822605935 199.13542617435007  147.45931800802228 198.62136951837306  148.05136140274155 197.8516128067292  C 148.64605587447673 197.08188663008127  149.31220753704093 196.214814886504  149.31220753704093 194.9692618687459  C 149.31220753704093 193.4347867197817  148.17388991631233 192.78011640768506  147.49247170679496 192.38371109091094  C 146.74977400441728 191.95405316360151  146.6476618310834 191.83637128940282  146.6476618310834 191.4118737764006  C 146.6476618310834 189.91065123797154  146.45885639211687 187.48873750316477  146.32611970842765 185.97206425681028  C 147.90082898368172 186.09997535463557  149.47297859836883 186.42990598533532  149.9476737449507 186.9030152118104  C 150.4708805537072 187.4273010914139  151.27738693736242 187.67796287275726  152.4259127282095 187.67796287275726  C 155.0189402990388 187.67796287275726  159.00552021570715 186.35827088495384  159.17397025873603 186.30199488751015  C 159.17397025873603 186.30199488751015  163.39783680439615 184.89020935207225  163.39783680439615 184.89020935207225  C 163.39783680439615 184.89020935207225  159.03105587707807 183.99522862224237  159.03105587707807 183.99522862224237  C 158.27044055073134 183.8391947931932  157.40015595794813 183.4631868536802  157.16536804522426 183.19725757438687  C 157.19596208342992 183.14098157694312  157.26485961369193 183.0412237453378  157.40780446749955 182.89798407957068  C 158.26535170174697 182.04892798357443  159.00040089457312 181.8724357072723  159.8554189404031 181.67041617439767  C 160.8635595380095 181.43254855633643  162.11916446257644 181.13333613151204  163.2753082908253 179.67812983190433  C 163.57911562240963 179.30471736704294  163.86747357414313 178.96464911770423  164.14059545107293 178.64232170098353  C 165.48810437885538 177.06952513216476  166.6493675282382 175.71145065451506  166.6493675282382 172.6962419493707  C 166.6493675282382 171.36378633328115  166.19505824974368 170.20269311418244  165.78679238930565 169.17974021653555  C 165.0976647259376 167.43292470608253  164.64338591959262 166.2744269616354  165.9628604697364 164.509717943585  C 167.3767986836626 162.62231931200824  167.84384532069305 162.4739803019259  167.9484866824443 162.4739803019259  C 168.13735306571013 162.4739803019259  168.63496326879653 162.7910556993518  169.06888667920387 163.0647714025997  C 169.27560974213947 163.19265196542898  169.495070163611 163.3358916311961  169.73503834176805 163.4790702269713  C 170.6971964656171 164.05703662936708  172.1443188504657 164.37930297609594  173.80834199621867 164.37930297609594  C 176.3197346782502 164.37930297609594  179.75248327580667 163.62737870205774  181.8529285482347 161.52000596001716  C 182.94276497893816 160.4280439716362  184.11164616572285 159.57117091668962  185.24228480475045 158.74006939828257  C 186.7965777397677 157.59940409144102  188.26664565327053 156.52530507566158  189.14719936047135 155.05477020811205  C 189.9128121193536 153.76579642618407  189.97403066791458 152.62513111934257  190.02510199065634 151.61234637533036  C 190.07873297396512 150.58936294268761  190.11700599387183 149.84766789227584  190.8341680348786 148.95006115279858  C 191.42374318547974 148.20839663738275  192.18947783296045 147.4488080793736  193.0469641229086 146.75319033777507  C 193.0469641229086 146.75319033777507  193.96832003843355 146.00383100339238  193.96832003843355 146.00383100339238  L 193.22818199662294 145.07807099769528  C 193.22818199662294 145.07807099769528  192.88869177784852 144.65601628436508  192.88869177784852 144.65601628436508  C 192.7202722069692 143.94769598447206  192.23789807868644 141.85815568003713  191.9750453161742 140.01417781263024  C 191.87805246397429 139.3697367241601  191.76576259267156 138.8454203095607  191.66365041933767 138.38003643704832  C 191.45433722368543 137.4311919744508  191.3522859946507 136.9758846505855  191.63561604169897 136.21886103223196  C 191.73766727073374 136.24960977310326  191.85251680260342 136.26747274570482  191.9826328814264 136.26747274570482  C 192.26087407949024 136.26747274570482  192.94226181685806 136.16524157943152  193.26133569539564 135.2163360468422  C 193.62121178225738 134.139702626403  194.4660216579689 131.6154355853393  192.7304499049381 129.42369464962695  C 192.30679560894836 128.89174448605254  192.08477552690994 128.3418702798848  191.87037348227327 127.8099201163104  C 191.48246301777291 126.84831202542665  190.99749875677347 125.64376750716227  189.36157093295841 125.31637128112214  C 188.99148667597828 125.24479725073247  188.6520574015031 125.20644529588203  188.32277535284703 125.20644529588203  C 187.15895254289717 125.20644529588203  186.3372100844383 125.65146232612908  185.28817586205903 126.21147415093563  C 184.98449041907307 126.37776773860719  184.64762080516488 126.55676388457317  184.2596493963653 126.7537451431243  C 183.04990505695727 127.36236868140371  182.17958999202446 127.96848835001924  181.85036888766768 128.96337958643406  C 181.5007314430741 130.01698961996453  181.93203424861514 131.11166922298062  182.40164054621255 132.0425285729931  C 182.40164054621255 132.0425285729931  182.41181824418138 132.06811689955725  182.41181824418138 132.06811689955725  C 181.79426966024073 132.3110533269379  180.12506624905453 132.3110533269379  179.45385620965558 132.3110533269379  C 178.5146740866103 132.3110533269379  177.97095952116814 131.99138245486049  177.62391220929103 130.2650864616523  C 177.57543101926595 130.00422599167834  177.51418199855533 129.74342659169616  177.4554926384118 129.48503945639018  C 177.3763564658817 129.1346809134332  177.26912497141385 128.65906781729433  177.2410601216255 128.3444352195404  C 179.06079595187154 128.2574410162212  179.9158444698511 126.20643587661216  180.60235152835295 124.5465840344824  C 180.87800259370024 123.88415783342715  181.15874250803182 123.20136479010658  181.41141757257517 122.86633481509146  C 182.94014437407193 120.82036794980584  182.8304141633363 118.64905492635062  181.15103305418126 117.10941936307933  C 181.46754727215173 116.93045375210924  181.82739288686386 116.70278482267862  182.20515612554496 116.40360293285019  C 183.75177007886123 115.15804991509201  183.34088361355703 113.6057117935263  183.06776173662712 112.57506407691258  C 182.89675203303122 111.93053138345476  182.74874880238883 111.36789354900087  182.93002762040234 110.83591285043049  C 183.4225185023548 109.32449162337086  185.3954073565269 108.64927125903344  187.1309181652585 108.64927125903344  C 188.59074743649333 108.64927125903344  189.2390424193876 108.01249445453422  189.52743084327065 107.47538387665269  C 190.0328419166566 106.53936411233317  189.7852557010977 105.29384162957096  188.78991340632632 103.78238986751543  C 188.621341474699 103.5291936815124  188.5372078696333 103.36812157813966  188.49122539587597 103.26836374653428  C 188.6724737417399 103.181400078211  189.0782713580597 103.04325975675927  189.9179923847869 102.95895263307926  C 190.53557144087708 102.89754675632432  192.17411986955838 102.73384864330426  192.60542267509948 101.46536384362521  C 193.04187527392423 100.17632899170552  191.9162950117314 99.11758907886372  190.82907918589416 98.09460564622093  C 190.64527117946318 97.9206477745785  190.46408377789845 97.75444579189458  190.30078352815318 97.58824380921072  C 188.79238165044444 96.07419657250364  187.65924429514908 95.35295996934492  186.32438130945368 94.68549549396619  C 186.16869909711028 94.6061655746179  186.01557654533377 94.54228636319505  185.8675428425417 94.48084995144417  C 186.67660888676397 94.56014933579655  187.7204628437101 94.6112954539291  189.12931220865187 94.6112954539291  C 190.06596514327973 94.6112954539291  192.0107282033643 94.6112954539291  192.46503748185884 93.24299175265287  C 192.90404974125056 91.92595630949278  191.52579441451442 90.88761377391226  190.52027442177425 90.12805575089902  C 190.13489314569128 89.84673683367205  189.19309041777984 88.76494299892579  188.64191017568385 84.90055605780161  C 188.61628309786414 84.71636896253264  188.62396207956516 84.60387803763692  188.63669943810106 84.54760204019315  C 188.63669943810106 84.54760204019315  188.66226557162148 84.55019751484467  188.66226557162148 84.55019751484467  C 188.66226557162148 84.55019751484467  188.73887255573413 84.55019751484467  188.73887255573413 84.55019751484467  C 189.1140151895491 84.55019751484467  189.6039768830841 84.8033937008477  189.83885621225681 85.11027040964302  C 190.39012787080165 85.84680504574763  191.14815306443174 86.23808048321068  192.03117501575082 86.23808048321068  C 193.2052059958191 86.23808048321068  194.34349314439808 85.55015756057885  195.3184495710822 84.83145536207985  C 195.41285229056552 84.92870932402144  195.52002284073419 85.05912429151046  195.60680752281564 85.15885158812003  C 196.17337620046334 85.8135524352125  197.0258650578759 86.80334432731203  198.47298744272447 87.21767368667949  C 198.9297954374868 87.34555424950881  199.32535441153863 87.41456334024286  199.69031934738464 87.41456334024286  C 201.41824259086405 87.41456334024286  201.9695142494089 86.04375576930288  202.41105569721802 84.94663336661476  C 202.60757059003527 84.45804289721838  202.82962114422327 83.90569535638278  203.16387015326532 83.32003413502022  C 204.65947372813895 80.6935053926873  203.49056206920463 79.31756794243606  202.79387731273394 78.49153523334844  C 202.6739084597302 78.3482955675814  202.55141041830905 78.2050559018144  202.4467081122585 78.05677796172388  C 201.95674641872347 77.32018225562739  201.35693262585423 76.9698542476664  200.7775961175211 76.62712945368447  C 200.32078812275876 76.35860469973956  199.84603203187774 76.08498060147937  199.29981875016767 75.53507586031581  C 199.15187646382446 75.3867673852293  199.057412800042 75.2768108649933  198.99869296774887 75.20004588530068  C 199.12886999087104 75.04657699590707  199.3611287151775 74.82409901577951  199.55249381471106 74.63478204119932  C 199.55249381471106 74.63478204119932  199.97361892228332 74.21541440750826  199.97361892228332 74.21541440750826  C 201.3697309286893 72.82417892431116  201.79085603626157 72.0568955473352  201.85978403867324 71.9162513562196  C 201.85978403867324 71.9162513562196  202.46971458521205 70.69118732071041  202.46971458521205 70.69118732071041  C 202.46971458521205 70.69118732071041  202.0767152717272 70.55561193891427  202.0767152717272 70.55561193891427  C 202.7249493103224 70.02372284533166  202.89848820233567 68.97771602578024  202.9699758653143 68.56076065676538  C 203.12568854980736 67.62739743708912  202.99545058238596 66.78337961541644  202.89346029765048 66.10312097675552  C 202.71471066805438 64.93433293869008  202.78366914261554 64.89341604418404  203.07455628276637 64.71945817254162  C 204.2690645473708 63.99315276006345  204.9709295692747 62.90372517634224  204.99896394691336 61.727242319309944  C 205.02449960828432 60.763130358762396  204.5727499903567 59.87566123792393  203.79180974022196 59.35644416763982  C 203.12568854980736 58.911457672388735  198.0876061666415 55.88345480396222  195.28267526744332 55.48958389184779  C 193.32773450938984 55.20829550961671  190.41816224844032 53.11368639586228  189.92052157320424 51.62525802071535  C 189.8311772305558 51.34653457813988  189.75207153017536 51.080483158862954  189.67802420662971 50.83241685217111  C 189.2084179090323 49.25192546438556  188.6775321185748 47.46425412941834  185.7909968027283 47.46425412941834  C 184.02998080477542 47.46425412941834  183.34853212310838 46.819782505952254  182.4858960398766 45.377355102128696  C 182.15667493551982 44.83003056811857  182.06730012072174 44.31595864464366  181.97027679637225 43.77122958528513  C 181.8198053216116 42.924738428944444  181.63087799404664 41.87106732542208  180.51044752513747 41.02196542693203  C 179.9795922068295 40.620460765842566  180.1812264207807 38.027138831550985  180.24247544149134 37.17551779589909  C 180.26801110286215 36.89674855082976  180.28589825468163 36.63588808085587  180.29863561321747 36.40826495391912  C 180.29863561321747 36.40826495391912  180.3496764638096 36.39037144632165  180.3496764638096 36.39037144632165  L 180.31396310446988 35.976026819456195  C 180.31396310446988 35.976026819456195  180.31396310446988 35.96840833797911  180.31396310446988 35.96840833797911  C 180.31396310446988 35.835413163336554  180.29863561321747 35.697272841884825  180.27818880083103 35.55659811577338  C 180.27818880083103 35.55659811577338  180.13530489132256 34.03491713009132  180.13530489132256 34.03491713009132  C 180.13530489132256 34.03491713009132  179.9872102442313 34.07842949924884  179.9872102442313 34.07842949924884  C 179.5916512701795 32.84568591227084  178.83624668141573 31.74853297458684  177.8357545933607 31.00175384735773  C 176.92713603637156 30.31635006188771  176.07979697224263 29.746047943462877  174.9288029372774 29.746047943462877  C 174.35961365476348 29.746047943462877  173.74962216392544 29.884081392428907  173.0120437826819 30.185965629394637  C 172.48118846437384 30.395634178742167  172.09327799987352 30.73834370522612  171.81250761339226 31.152611994601855  C 171.48581569745286 30.93268368663189  171.0851374022671 30.812482675271394  170.6333877843396 30.80999407310554  C 169.20671221187746 30.80999407310554  167.61664497322136 31.999148953436304  167.0194822573679 33.51834133695257  C 166.69023068086153 34.339228899230996  165.72039357531142 34.90189726868084  164.49526080035176 35.61032444105955  C 163.9491389350906 35.92747617597518  163.37236208732446 36.2599412113347  162.79549382310947 36.651231916295636  C 162.0426793670623 37.152509676488414  161.5781619184493 37.31616198701469  161.2718863427467 37.42611850725066  C 160.62109264358463 37.65632184134102  159.9294053196495 38.011825531107085  159.9294053196495 39.308463597005954  C 159.9294053196495 40.93500175860875  161.35099204312715 43.27508170440343  163.98485229443028 44.41828141590469  C 164.18139765939705 44.50009993741879  164.31666353150365 44.5717197703023  164.4085675347191 44.62544609558838  C 164.18904616894844 44.91958971109345  163.73217722988696 45.37474435997924  163.37998012472622 45.72261430077036  C 163.37998012472622 45.72261430077036  162.94870779133475 46.1471576162664  162.94870779133475 46.1471576162664  C 162.5990398745915 46.49498175456367  162.38213911368712 46.49498175456367  162.31321111127545 46.49498175456367  C 162.13964174711253 46.49498175456367  161.4939064247852 46.385025234327685  160.41427816420014 44.94511696766588  C 159.6588431032867 43.93489716330929  157.76515136594384 43.12164335000581  154.73305059142356 41.896594581994506  C 153.33958966203346 41.33395674754061  151.90011578673628 40.753379602995366  151.05024753418994 40.26750674823409  C 149.78172241818953 39.54372047291779  149.83541434579755 38.968288475181645  150.17737280869014 37.4107746718109  C 150.17737280869014 37.4107746718109  150.29225281270953 36.871190759261474  150.29225281270953 36.871190759261474  C 150.5704330664741 35.46710004279037  150.657187276406 35.04257199479231  152.29570523293768 34.80723878139075  C 154.53909535917342 34.48246856499803  155.05212446996117 33.99656517524089  155.77693502051926 32.37514162545132  C 155.886665231255 32.12447984410801  156.0194019149442 31.832946970752413  156.1904420906898 31.490206909272583  C 157.07087390929212 29.735803452338363  156.33338694449736 28.520999175451575  155.8943746851057 27.799777839790845  C 155.76925603881824 27.590078755447422  155.59571714680493 27.311309510378095  155.6162249034907 27.23202539352364  C 156.0806509356548 25.382993984295283  154.51103050938508 21.633723977714272  153.29872650941005 20.424003777644806  C 152.9746247261873 20.099233561252092  152.79852617360703 19.702843511975857  152.8189120416942 19.334530391429638  C 152.83935885408076 18.938109807157527  153.08179527635608 18.5545139211634  153.53613502700017 18.1887657402729  C 154.60296498475023 17.334579764965408  154.64635732579097 16.283473601098652  154.49829315084926 15.498311984023234  C 155.42729757592568 15.439501581919803  155.8202968894104 14.922895253785176  155.97604004605313 14.610858130682745  C 156.38945569977471 13.774565662972725  155.96074302695024 12.905035852225497  155.32009655360733 11.992039474814602  C 155.63399016671164 12.076407668486414  155.97856923447048 12.196639214842783  156.32305688578055 12.344962957427176  C 156.7876048065431 12.546967222803795  157.23679476390365 12.646725054409222  157.66303919260992 12.646725054409222  C 158.7885585105035 12.646725054409222  159.70229638862668 11.940862821686155  160.04169519095223 10.802777721998218  C 160.36070812519057 9.749137153471844  160.14124770371913 8.26064770833306  159.11528089859254 7.580373802174244  C 157.56601586826042 6.5420007315978  155.815208040426 4.933386612588326  155.62640260145943 3.9973210457750175  C 155.36099017838032 2.664865429685329  154.2252322182187 1.8695203914773357  152.5815339962537 1.8695203914773357  C 151.4739018301796 1.8695203914773357  150.1390693166338 2.2224591415878026  148.91914727925698 2.8336476195228006  C 147.9390410592892 3.324741958582924  147.18107680995837 3.4270036598521814  146.35415408606633 3.4270036598521814  C 146.06320600161627 3.4270036598521814  145.77731629400097 3.4116445569144376  145.48386949328315 3.4014153332879276  C 145.14952906779234 3.386071497848163  144.8100693211675 3.3732773345660214  144.4553430275894 3.3732773345660214  C 144.3047191920808 3.2940542877034225  144.04189690171816 2.754409305162195  143.8836550288077 2.43473843308481  C 143.4522912789674 1.5473151147402204  142.85762727938183 0.33761018216865185  141.47946336909456 0.04859644597489754  C 141.30589400493164 0.015343835439793448  141.12467613121723 0  140.9434582575029 0  Z M 196.25507203356037 67.89076177672686  C 196.2907853929001 67.87546374378095  196.4184636997545 67.6605889776325  196.87018284553244 67.2974973413852  C 197.50577094204056 66.78850949472765  197.7710614765213 66.77318092678577  197.79921774275843 66.77318092678577  C 197.79921774275843 66.77318092678577  198.14114573350142 66.85754912045755  198.69753671318028 68.16701188463443  C 198.9272357769198 68.70149645286855  199.15187646382446 69.17210180967982  199.3789853948474 69.56591165180251  C 198.7638745828753 69.30758558648826  198.04671254186854 68.99047965406645  197.32961144516102 68.63502176679425  C 196.52557330562405 68.2360209753685  196.30611288415255 67.964961816764  196.25507203356037 67.89076177672686  Z " fill-rule="nonzero" fill="#efebdf" stroke="none" transform="matrix(1 0 0 1 2884 476 )" />
  </g>
</svg>