<?xml version="1.0" encoding="utf-8"?>
<svg version="1.1" xmlns:xlink="http://www.w3.org/1999/xlink" width="5px" height="8px" xmlns="http://www.w3.org/2000/svg">
  <g transform="matrix(1 0 0 1 -2789 -769 )">
    <path d="M 1.2144045376496038 2.3996711304164347  C 1.2144045376496038 2.3996711304164347  0.21369924977606367 2.2532805104754963  0.21369924977606367 2.2532805104754963  C 0.4273687405701226 1.0377436054147067  1.1538301297788927 0  2.5463272952358844 0  C 4.002821151494078 0  4.804156139426782 0.8323019779468206  4.804156139426782 2.194054881930726  C 4.804156139426782 2.194054881930726  4.804156139426782 6.488364055718656  4.804156139426782 6.488364055718656  C 4.804156139426782 7.1710449248947725  4.878895822731751 7.675990701430801  4.9999999999999725 7.850262477217414  C 4.9999999999999725 7.850262477217414  3.8639508619689416 7.850262477217414  3.8639508619689416 7.850262477217414  C 3.8639508619689416 7.850262477217414  3.7250508134617455 7.198896977237477  3.7250508134617455 7.198896977237477  C 3.3047944695908122 7.616765072886086  2.5463272952358844 8  2.047700672255431 8  C 0.8155002633669907 8  0 7.226778133083044  0 6.014704544875783  C 0 4.116603184650867  2.136739546413624 3.1553435850422544  3.710840899554481 2.8105834888551775  C 3.710840899554481 2.8105834888551775  3.710840899554481 2.2673083989071636  3.710840899554481 2.2673083989071636  C 3.710840899554481 1.420920325522735  3.2727886844446545 0.8915567099945068  2.5748215205054263 0.8915567099945068  C 1.7449923073031794 0.8915567099945068  1.3319227575863084 1.7030496833175084  1.2144045376496038 2.3996711304164347  Z M 3.710840899554481 6.314296004452836  C 3.710840899554481 6.314296004452836  3.710840899554481 3.7022566128615657  3.710840899554481 3.7022566128615657  C 2.713706689521593 3.998210134567376  1.093300360381272 4.708684849080202  1.093300360381272 5.920671126778551  C 1.093300360381272 6.652013052921082  1.4244880711120633 7.108355979496582  2.211523868191517 7.108355979496582  C 2.802686045715748 7.108355979496582  3.319093660444036 6.707775364612323  3.710840899554481 6.314296004452836  Z " fill-rule="nonzero" fill="#efebdf" stroke="none" transform="matrix(1 0 0 1 2789 769 )" />
  </g>
</svg>