<?xml version="1.0" encoding="utf-8"?>
<svg version="1.1" xmlns:xlink="http://www.w3.org/1999/xlink" width="5px" height="8px" xmlns="http://www.w3.org/2000/svg">
  <g transform="matrix(1 0 0 1 -2824 -769 )">
    <path d="M 0 8  L 0 0.1526529643800416  L 1.1324387512525413 0.1526529643800416  C 1.1324387512525413 0.1526529643800416  1.1324387512525413 1.0149776077349706  1.1324387512525413 1.0149776077349706  C 1.7005900574339727 0.4826941898745992  2.53135294079124 0  3.0955421521052107 0  C 4.29864371926102 0  5.00000000000003 0.599727140611561  5.00000000000003 2.0549277812379514  C 5.00000000000003 2.0549277812379514  5.00000000000003 8  5.00000000000003 8  L 3.8009587614687605 8  C 3.8009587614687605 8  3.8009587614687605 2.207640062876349  3.8009587614687605 2.207640062876349  C 3.8009587614687605 1.2990182993742583  3.499217404402243 0.9085624462437346  2.8487134652285246 0.9085624462437346  C 2.264910247090674 0.9085624462437346  1.731959370518115 1.2707239671382389  1.1990084939455565 1.8739508259928226  C 1.1990084939455565 1.8739508259928226  1.1990084939455565 8  1.1990084939455565 8  L 0 8  Z " fill-rule="nonzero" fill="#efebdf" stroke="none" transform="matrix(1 0 0 1 2824 769 )" />
  </g>
</svg>