<?xml version="1.0" encoding="utf-8"?>
<svg version="1.1" xmlns:xlink="http://www.w3.org/1999/xlink" width="5px" height="11px" xmlns="http://www.w3.org/2000/svg">
  <g transform="matrix(1 0 0 1 -2832 -766 )">
    <path d="M 3.970050001042309 10.84808016492543  L 3.9272706697281317 10.09536093543642  C 3.9272706697281317 10.09536093543642  3.8952568993398 10.09536093543642  3.8952568993398 10.09536093543642  C 3.517449738380518 10.653670020293559  2.9685997027930897 11  2.2736477532289237 11  C 1.0299499989576912 11  0 9.946984420130352  0 6.939827987931238  C 0 3.936273930830103  1.0299499989576912 2.883405989284142  2.2736477532289237 2.883405989284142  C 2.8616588195703625 2.883405989284142  3.36423034428946 3.2474230401683615  3.7277280943914852 3.6042353408566243  C 3.7277280943914852 3.6042353408566243  3.7277280943914852 0  3.7277280943914852 0  L 4.818280905200526 0  C 4.818280905200526 0  4.818280905200526 8.745592324954634  4.818280905200526 8.745592324954634  C 4.818280905200526 9.766747554572493  4.878853936800322 10.39562775815232  4.9999999999999725 10.84808016492543  C 4.9999999999999725 10.84808016492543  3.970050001042309 10.84808016492543  3.970050001042309 10.84808016492543  Z M 3.7277280943914852 9.346185025715911  C 3.7277280943914852 9.346185025715911  3.7277280943914852 4.47701405516847  3.7277280943914852 4.47701405516847  C 3.414082485340671 4.162544425713764  3.032776144827319 3.7879859985182485  2.5480727710226243 3.7879859985182485  C 1.6215644757336176 3.7879859985182485  1.0940222101115589 4.53710285290928  1.0940222101115589 6.939827987931238  C 1.0940222101115589 9.346185025715911  1.664239576167488 10.09536093543642  2.576572471731096 10.09536093543642  C 2.907996890941713 10.09536093543642  3.3962738949292888 9.795035057391043  3.7277280943914852 9.346185025715911  Z " fill-rule="nonzero" fill="#efebdf" stroke="none" transform="matrix(1 0 0 1 2832 766 )" />
  </g>
</svg>