<?xml version="1.0" encoding="utf-8"?>
<svg version="1.1" xmlns:xlink="http://www.w3.org/1999/xlink" width="231px" height="191px" xmlns="http://www.w3.org/2000/svg">
  <g transform="matrix(1 0 0 1 -3059 -474 )">
    <path d="M 72.44904600601959 1.615142757532784  C 72.7965298841256 1.615142757532784  73.11347008801461 1.6432893323612827  73.3793007471347 1.7174758800227636  C 74.93821814548701 2.165437328270978  76.72467218583417 2.165437328270978  77.82357316810588 3.051122328385553  C 78.87649081666619 3.890599270801178  79.72243769378345 5.528769654971661  80.9312165690179 5.528769654971661  C 81.00789614275172 5.528769654971661  81.0870777956921 5.521159994675943  81.16638150127677 5.505818430545765  C 81.43218164723575 5.462269169817616  81.65443951236784 5.4417933770541635  81.84871680881156 5.4417933770541635  C 82.62558188929799 5.4417933770541635  82.94502417239353 5.733588704375314  83.8421416206018 5.733588704375314  C 84.94360570840217 5.733588704375314  86.2852999131967 8.846123130608778  83.8421416206018 9.068789736689801  C 81.3861372872022 9.2965905714041  81.60592358628877 10.184812124950591  82.50041690264622 11.520949285418212  C 83.38978400794616 12.85708644588572  85.61828221251196 14.421009160625223  85.84060110396616 15.314334381920151  C 86.06295050858142 16.199988821150033  84.94360570840217 17.763926816331953  85.84060110396616 18.65723675718455  C 86.73253131479487 19.54799486416287  88.06397309747456 21.554744798517284  88.06397309747456 22.665632958144858  C 88.06397309747456 22.665632958144858  88.06397309747456 27.12455772166999  88.06397309747456 27.12455772166999  C 88.06397309747456 28.685989724304598  88.72592561342398 30.019544490013196  89.83761161017823 30.472579045125126  C 90.34110928076366 30.672233305010955  90.83951125345278 30.78232889222023  91.39915314038142 30.78232889222023  C 92.08414309292809 30.78232889222023  92.86354076578222 30.613373041037235  93.84231143297632 30.249881878159435  C 95.10732606403704 29.773789135525032  95.58778629802522 29.297711673333094  96.22935602238923 29.297711673333094  C 96.49768876071593 29.297711673333094  96.79671773906499 29.382120836933925  97.18511976614714 29.57668670951362  C 98.52168775988424 30.249881878159435  100.97772260644489 31.81126803946694  102.08946962952113 32.24384208225781  C 102.69509485016114 32.49214927062028  103.23691705103305 32.66877590386832  103.78374341031804 32.66877590386832  C 104.23610102297363 32.66877590386832  104.69361535984774 32.54589058640309  105.19708251727216 32.24384208225781  C 105.42458864610589 32.110764709737914  105.60601990174497 32.05699283307042  105.75672440420068 32.05699283307042  C 106.29854660507253 32.05699283307042  106.49791959941267 32.71993482489222  107.18541163116593 32.71993482489222  C 107.25955861253208 32.71993482489222  107.33614664678271 32.714800596259  107.42304812947026 32.699459032128736  C 108.43764124774418 32.49214927062028  108.52969945465021 31.552738235165204  109.71290830091979 31.552738235165204  C 109.82797343126201 31.552738235165204  109.95570152344253 31.560454858557446  110.09624514326659 31.578348256561814  C 111.44056347991199 31.772883568256706  111.79067148986877 32.78909410701695  112.99185258800034 32.78909410701695  C 113.18872350313382 32.78909410701695  113.40844877589821 32.763453524735674  113.66146390737478 32.699459032128736  C 115.43766552560717 32.24384208225781  115.43766552560717 31.578348256561814  116.54416428498178 31.578348256561814  C 117.65844390042574 31.578348256561814  116.7767050853898 33.14742048037695  118.33055729900688 33.372654200774555  C 119.88703364447471 33.58763474434815  120.55395980567627 33.80781063832442  122.33278555575947 34.040730421229554  C 124.11914805662346 34.26084519343635  124.33640176334237 35.81451473135173  123.66938406265764 36.93825374300467  C 122.99974223012205 38.041455840124755  123.2220916347373 38.714651008770566  124.78097851992862 39.385248502215056  C 126.33742435223543 40.05589183698669  126.56486945474707 40.26836638801306  127.23188715543179 41.60705538235487  C 127.90143744848422 42.953399878319395  128.33850796745074 43.398840053578084  129.6802326854063 44.2870004853551  C 131.01683119230447 45.182862260082004  131.45893638284517 45.182862260082004  129.6802326854063 47.18449324624551  C 127.90143744848422 49.191273741484736  127.45167345451841 52.308911835466624  126.33742435223543 52.308911835466624  C 125.7751888466171 52.308911835466624  125.33052055054769 52.198892650469126  124.85259290892711 52.198892650469126  C 124.38488717626034 52.198892650469126  123.8891398485831 52.308911835466624  123.2220916347373 52.749171940765024  C 121.89068036521866 53.65276561932635  121.45104674072343 54.087922056876224  122.7799864441966 55.21152354454797  C 124.11914805662346 56.31990571162835  125.89022346379832 56.76016581692663  127.23188715543179 56.99566799459078  C 128.56082685890487 57.220901714988386  130.34975246529757 58.10912326853487  130.78941660295385 59.4477511411073  C 131.2341154121844 60.77109857131885  132.56561822118618 62.56028556734071  131.45893638284517 63.45620846383702  C 130.34975246529757 64.34439945649879  129.0132149847216 64.56960261601172  129.23297077064703 65.90826104946882  C 129.45269604341146 67.24441349037876  130.12483995515362 67.9074318844123  131.01683119230447 68.5805964921734  C 131.78350487699814 69.15648580386586  133.37824472643027 70.23152604571506  134.6586074775022 70.23152604571506  C 134.86048255104885 70.23152604571506  135.0572314135381 70.20081235656993  135.23878472182145 70.14198265348105  C 136.58044841345492 69.69915543386604  139.24345403145855 68.80836676600295  140.57748943282797 68.80836676600295  C 141.92177725631225 68.80836676600295  142.58882547015807 70.36721637387865  143.92283035836647 70.36721637387865  C 145.25692678605805 70.36721637387865  146.81846831626123 70.14198265348105  147.7027092105038 69.91931604739993  C 147.74356633315782 69.90901702924879  147.7843624294897 69.90134624718368  147.82528057846588 69.90134624718368  C 148.63546603082546 69.90134624718368  149.06991241794117 71.96445045296458  149.70879698413222 72.81172042098423  C 150.37334311877143 73.71265530257487  151.4875922210543 75.04364295396685  152.8216886487459 75.48906784878314  C 154.07129413347332 75.90121194013766  153.95375743708553 77.29876119845314  155.40029486326853 77.29876119845314  C 155.49747928123196 77.29876119845314  155.6047330423439 77.29359640893526  155.72239179137597 77.27825484480499  C 157.50109548881485 77.0530211244074  160.83609245275534 77.27825484480499  161.94790050215383 76.6050902370439  C 162.76305959976548 76.10600042865667  163.69850157826014 75.3815546563328  164.5750226427555 75.3815546563328  C 164.89196284664445 75.3815546563328  165.203776839476 75.47372628465293  165.49767960676766 75.71436269095024  C 166.61958751247565 76.6050902370439  167.73383661475847 79.5000617249448  169.73745282234137 79.5000617249448  C 171.7385974638788 79.5000617249448  172.62280784496025 80.17065921838929  173.29495175670237 81.73458193312882  C 173.96199997054816 83.29086442668792  174.85389966821583 85.52284808143993  176.6351359580224 85.7404110197725  C 177.73925469083468 85.88117445479985  178.50333475683863 86.19350669665386  179.29567000998046 86.19350669665386  C 179.77613024396868 86.19350669665386  180.27184705848484 86.0782921612537  180.85968310622917 85.7404110197725  C 181.67743582253067 85.27454089307751  182.50040628937276 84.99041634782154  183.1904614266548 84.99041634782154  C 183.81140425414492 84.99041634782154  184.3251543468453 85.2183088651899  184.64200301125106 85.7404110197725  C 185.19148401554796 86.64907780519768  185.87638242861146 87.7062704903695  186.5946012135483 87.7062704903695  C 186.7580907304864 87.7062704903695  186.92679799796517 87.65248333325961  187.0953832127998 87.52458603070001  C 187.97977667284763 86.86159819755125  188.64160713615277 85.30271802879076  189.54116563724548 85.30271802879076  C 190.43315687439636 85.30271802879076  191.10276819377077 86.18837246802065  191.31477363678806 86.86159819755125  C 191.4988900506001 87.40934093441514  191.9869175485302 88.86064678895583  193.01951343182716 88.86064678895583  C 193.2418628364424 88.86064678895583  193.48972124370056 88.79405462114757  193.76565175913018 88.63541306855812  C 195.32463018380466 87.74722207589635  194.4352630785047 87.29929118853292  195.09974818682173 85.7404110197725  C 195.77448571725364 84.1817142163204  195.77448571725364 83.96405959533372  197.0982381833472 82.84293353932442  C 198.43739979577407 81.73458193312882  199.33698881002786 80.39329526358563  199.1019459304133 79.05463683012859  C 198.8846006842112 77.72111262530466  196.89123689874316 77.94124267795388  196.4337835881912 76.6050902370439  C 195.9942720163402 75.26380356750074  195.32463018380466 73.93024880179216  196.4337835881912 72.59155980745034  C 197.05994416622192 71.83389435343422  197.90320588516622 70.38515561321019  198.50895315845048 69.26137076023015  C 198.52430127846165 69.25376109993455  198.53971042479495 69.25376109993455  198.5499323337487 69.24862687130134  C 199.10447852278094 69.1693213754489  199.58240616440148 69.12580267560546  200.00150443150596 69.12580267560546  C 201.36355091472487 69.12580267560546  202.1251899278444 69.56092855227058  202.8867679146417 70.58227331966404  C 203.6560657311862 71.60098985097146  205.0079513317735 72.04118883450035  206.7893401873853 72.04118883450035  C 207.34382535009541 72.04118883450035  207.9393202012648 72.0028043632901  208.57310906955956 71.9209011922364  C 211.22589277860936 71.59331906890635  210.90129377129537 71.25280969133914  211.9056649806155 71.25280969133914  C 212.91009721625778 71.25280969133914  212.5727131944613 72.59155980745034  214.24410210446618 72.92681271284556  C 215.9078627242071 73.26985864384466  216.90970134115955 73.93024880179216  217.90885479993912 76.27228220242645  C 218.91075444321373 78.61184017139831  217.90885479993912 80.28327607858813  220.58467594558633 80.9513675794855  C 222.23812311689028 81.36091399563864  222.48100787889626 81.6527093229598  222.8260507041178 81.6527093229598  C 223.03817819977928 81.6527093229598  223.28603660703732 81.54009246276101  223.92238858086074 81.28665104576532  C 224.22395015157744 81.16633284261667  224.47177804567448 81.1100091320749  224.6789013829228 81.1100091320749  C 225.6116887164055 81.1100091320749  225.70875108172473 82.25677577036551  226.2531669012864 83.62617845385252  C 226.92268668117768 85.30271802879076  227.5948305929198 86.63373624106752  228.25675259570818 89.31117535152055  C 228.92892702061144 91.98595566500283  229.26621950292468 92.32386736736878  227.5948305929198 93.65742213307738  C 227.0632608141628 94.0797124381595  225.92847635448916 94.20006120219281  224.55099021177594 94.20006120219281  C 222.71608127167187 94.20006120219281  220.44669543129092 93.98506537817687  218.6116949517037 93.98506537817687  C 217.48209772940962 93.98506537817687  216.51614258985893 94.06699911011535  215.9078627242071 94.32805018740659  C 213.57458232457492 95.32121781908687  213.23716778961733 96.99772683314039  212.23792279135458 98.66668730866775  C 211.22589277860936 100.34839167312398  211.5734376830375 102.68532140600979  210.90129377129537 103.01803775797313  C 210.87322166312381 103.03084276867139  210.84765163415886 103.03854411162122  210.82214263151604 103.03854411162122  C 210.20870604164568 103.03854411162122  209.90461187856133 99.33982135554413  209.90461187856133 99.33982135554413  C 209.90461187856133 99.33982135554413  209.56734990940913 101.01645261313661  207.90352826334615 101.67931820274654  C 206.2296983004568 102.34487315021198  204.8929777409144 102.0147239125653  204.5633440620261 103.3533823460224  C 204.2873525202744 104.45403260926828  204.24127764707973 105.10672142426591  203.46694515896098 105.10672142426591  C 203.30845980043597 105.10672142426591  203.12196336006153 105.07851372766794  202.8867679146417 105.0172085929166  C 202.16363651077498 104.83543245059296  201.43006960582701 104.55393614142291  200.75792569408486 104.55393614142291  C 200.19569018846653 104.55393614142291  199.67440334498536 104.74582793658944  199.21948262680115 105.35759572694492  C 198.21505039115883 106.69374816785486  198.5499323337487 106.69374816785486  196.5487266658893 107.36177854698273  C 194.54770407699613 108.02990060876483  196.5487266658893 109.37369327085509  198.21505039115883 109.70897673713498  C 199.88646981432478 110.03915653566636  200.8907799973228 110.03915653566636  199.88646981432478 111.71059244285618  C 198.8846006842112 113.37438812886566  197.5557830333824 113.04164121601765  196.5487266658893 113.37438812886566  C 195.5547299313282 113.7148058237787  194.88002291405735 114.71051000889085  195.20968710610666 116.39218381246233  C 195.32978690802318 116.98601236348634  195.57764531528122 117.1984716340704  195.89202241364146 117.1984716340704  C 196.45938413031726 117.1984716340704  197.24393852738982 116.48942854764623  197.88794930463823 116.05430267098112  C 198.0693805602774 115.92894192185341  198.24065093328483 115.87775243994484  198.39907526548774 115.87775243994484  C 199.0967892061948 115.87775243994484  199.49553519487495 116.97583558887406  199.21948262680115 118.06368084142159  C 198.8846006842112 119.39977216056212  197.88794930463823 119.39977216056212  198.21505039115883 120.73341860892482  C 198.5499323337487 122.07467471758325  199.55680562227548 122.73503431464601  201.89008602190765 123.08052511642296  C 204.23111676444807 123.41076603672373  203.22158883090952 126.42089093825534  201.89008602190765 127.09414722867066  C 200.5535180281706 127.75453738661811  200.21869711190277 127.75453738661811  199.55680562227548 128.75791235379532  C 198.8846006842112 129.7587202066559  198.8846006842112 130.09140599773448  197.5557830333824 130.42424459323664  C 197.10849060546207 130.53686145343545  196.62549777910627 130.57521536376098  196.17817483802494 130.57521536376098  C 195.288868759047 130.57521536376098  194.54770407699613 130.42424459323664  194.54770407699613 130.42424459323664  C 194.54770407699613 130.42424459323664  193.2136991887877 131.77057380875888  190.54553684656562 132.10338184337627  C 187.87755758330988 132.43609819533955  190.54553684656562 132.10338184337627  189.54116563724548 133.4445768302653  C 188.54198166530486 134.77819271774328  188.54198166530486 134.77819271774328  189.21150144519618 136.11171692256715  C 189.87092136877794 137.44786936347708  188.87158483103204 138.4487077772224  187.5401430483524 139.12447006018482  C 187.37140526771253 139.20637323123853  187.22829854235982 139.24472714156403  187.10825976676534 139.24472714156403  C 186.26234340280917 139.24472714156403  186.41567203711574 137.44786936347708  185.5313090902289 137.44786936347708  C 184.53477976330012 137.44786936347708  185.2068321355591 139.12447006018482  183.53028650133575 140.79590596737464  C 183.11375133975994 141.21309260470824  182.67680287343765 141.38206373633355  182.24992375026383 141.38206373633355  C 180.96696738050215 141.38206373633355  179.77350611211781 139.87697072468302  179.52567821802083 139.12447006018482  C 179.18582263017876 138.11846685692157  180.1951979979121 136.4496286249331  180.1951979979121 136.4496286249331  C 180.1951979979121 136.4496286249331  177.85416725537172 134.1075035416447  178.85597535916318 133.1041285744675  C 179.51283217721618 132.44887264515316  178.7410322814651 131.79615326927075  177.9411907907035 131.79615326927075  C 177.51946839174812 131.79615326927075  177.09005667620667 131.97789885070975  176.8575158757987 132.43609819533955  C 176.19303076748167 133.77729318222853  176.19303076748167 133.4445768302653  174.51148097484509 134.44798235832718  C 172.85531813220715 135.4488207720725  172.1781090357298 135.7815676849205  171.51884167795322 137.78315282975697  C 170.8466977662111 139.79509811451405  170.5092832312536 141.12865288022263  168.84045742677742 141.46907057513576  C 167.1818230180939 141.79925037366715  167.1818230180939 143.4682108491945  167.83861880982488 145.4723936692323  C 168.16062419844917 146.41944492586774  168.54905673869231 146.7701005171626  168.97584432238295 146.7701005171626  C 169.4538329903256 146.7701005171626  169.98027655802522 146.33503576226693  170.5092832312536 145.8025734677637  C 170.7112498442834 145.5977849792448  170.9437601315303 145.50818046524128  171.18911645958187 145.50818046524128  C 172.15253900676478 145.50818046524128  173.3205217856674 146.94921786251544  173.85212207758542 148.82043027312986  C 174.51148097484509 151.15992712033227  174.18685145437007 151.82539038514355  171.84847535684148 153.1666770546867  C 169.50741410113997 154.4976952669634  169.18546973883787 154.83808240099177  168.17606385794346 156.50441464043308  C 167.32492974344672 157.94297660604485  170.86711107095755 159.1255606012291  171.89442817739186 159.4327280535652  C 171.02803748236704 159.50176509215117  170.05695613175905 159.8166644483218  169.07049614797876 160.40285277816537  C 166.83931278524003 161.74407832593914  166.39720759469932 161.74407832593914  162.8372370942927 161.74407832593914  C 159.2747034883575 161.74407832593914  161.94790050215383 160.40285277816537  159.2747034883575 160.40285277816537  C 156.60141493507794 160.40285277816537  152.15711200094563 162.1894420989859  149.478849802414 163.53066764675967  C 148.888481162302 163.82506064928208  148.4080514414749 163.94785428409318  147.99658146463437 163.94785428409318  C 146.55004403845135 163.94785428409318  145.9776171370403 162.43762704380944  144.59506580959183 161.74407832593914  C 144.35221156074687 161.6237295619057  144.13495785402796 161.5700035265653  143.9330827804813 161.5700035265653  C 142.65275054257043 161.5700035265653  142.05987982325186 163.77634659903597  140.1379168346549 165.3122755433705  C 139.71375338281507 165.6525709947448  139.30478548518113 165.79856034105947  138.91891605046666 165.79856034105947  C 137.2832275388973 165.79856034105947  136.05403535891637 163.1902499518465  135.6937359531668 161.74407832593914  C 135.23878472182145 159.95739732246437  134.79915109732625 158.6263791101877  132.57577910381784 158.17841766193953  C 130.34975246529757 157.7381881175259  129.45269604341146 154.16491779323067  129.90001898449282 152.83133246663738  C 130.34975246529757 151.49521058661216  130.34975246529757 147.47403993583822  128.12122374757072 147.47403993583822  C 127.23960698517897 147.47403993583822  126.35786817014298 147.4100454432314  125.58350516886316 147.4100454432314  C 124.41045720522527 147.4100454432314  123.4929874785927 147.56618100327364  123.2220916347373 148.372438263997  C 122.785112655254 149.71375549442487  121.45104674072343 150.59934881188528  119.22248750983552 151.9355012527953  C 116.99649138447633 153.2715925719357  115.21269198914104 154.61290980236356  115.21269198914104 154.61290980236356  C 115.21269198914104 154.61290980236356  115.66251700942897 159.95739732246437  117.43609449581048 163.08530387371277  C 119.22248750983552 166.20037485337812  117.88591951609847 170.21399696562585  118.33055729900688 175.55845392484198  C 118.6654392415967 179.57198435443547  117.49751748901626 180.07626951322544  116.3295041969527 180.07626951322544  C 115.93847803801967 180.07626951322544  115.54754341856986 180.01734812748234  115.21269198914104 180.01734812748234  C 114.24151909904982 180.01734812748234  113.74067607347622 179.07796765291206  113.0327097106543 179.07796765291206  C 112.76437697232761 179.07796765291206  112.46528696765645 179.21102974498953  112.09995289033264 179.5745514687521  C 111.71148983692838 179.96875632077516  111.27695191032952 180.12999554856592  110.83481620662775 180.12999554856592  C 109.76148525332098 180.12999554856592  108.59100039521182 179.18541972359293  107.64539753408552 178.23836846695744  C 106.31398626456694 176.90221602604754  107.20329234354476 174.6703240539496  107.20329234354476 174.6703240539496  C 107.20329234354476 174.6703240539496  108.0900963433161 171.1047245117195  106.76112612668189 169.76600495649296  C 105.96128463592028 168.96738791695  104.84959863916613 168.8061181282745  104.08030082262161 168.8061181282745  C 103.56145503202495 168.8061181282745  103.19862303390768 168.8802893954937  103.19862303390768 168.8802893954937  C 103.19862303390768 168.8802893954937  100.72470747496833 170.426333992671  99.12746554632952 170.426333992671  C 98.81055585560169 170.426333992671  98.52431189173507 170.36490661438074  98.30455610580957 170.21399696562585  C 97.37683395706215 169.59700326398297  96.01207180250927 168.76000175322977  95.26837452809075 168.76000175322977  C 94.94639965262756 168.76000175322977  94.73939836802347 168.91873498847332  94.73939836802347 169.3283119655113  C 94.73939836802347 169.77110862424146  94.54252745289 169.965628655494  94.24606158006965 169.965628655494  C 93.65322137391217 169.965628655494  92.6641677714421 169.17474351978558  92.06870343343374 167.9870252959681  C 91.17939735445587 166.20037485337812  88.06397309747456 165.75751707287847  86.2852999131967 165.75751707287847  C 85.09690382954764 165.75751707287847  84.11041333260638 165.3608062283083  82.791695538087 165.3608062283083  C 82.13239766714943 165.3608062283083  81.38863936640887 165.46061807780882  80.49927226110881 165.75751707287847  C 77.82357316810588 166.65343996937477  77.37884384571437 167.096236628105  74.27123095796335 169.3283119655113  C 71.1507415162468 171.5500577238816  72.04523483260414 172.89388094685663  72.93716504343283 175.55845392484198  C 73.81887334530775 178.23836846695744  77.82357316810588 178.68122624745712  80.94400158350044 180.46530957573052  C 84.06189740652725 182.25189889655104  82.2754738793412 185.37219578750373  80.49927226110881 185.37219578750373  C 79.43363062438816 185.37219578750373  79.00684304069752 184.8909229749091  78.5467350851337 184.8909229749091  C 78.237545224153 184.8909229749091  77.91810294105746 185.10594935980978  77.37884384571437 185.81746787789638  C 77.00060270126387 186.32945437963622  76.43577357695573 186.50866340764324  75.8250831715804 186.50866340764324  C 74.30186617166359 186.50866340764324  72.48480743077724 185.37219578750373  72.48480743077724 185.37219578750373  C 73.00362270821292 188.20821532877687  71.73088824740495 188.80210500157025  70.56287495534133 188.80210500157025  C 69.71448702533958 188.80210500157025  68.92733900957728 188.48723620628436  68.92733900957728 188.48723620628436  C 68.92733900957728 188.48723620628436  66.2566135618265 188.03933587980566  63.58350808751334 187.15111432625915  C 60.92050246950972 186.26035621928077  61.36257714688943 183.1401510109822  61.80218025822359 180.46530957573052  C 62.254476844557075 177.7930963765648  60.468175370015196 176.90221602604754  60.468175370015196 174.222301483932  C 60.468175370015196 171.5500577238816  57.797480435425456 171.1047245117195  57.797480435425456 171.1047245117195  C 57.797480435425456 171.1047245117195  57.15594122422257 171.17889577893862  56.274263435508644 171.17889577893862  C 54.950480456254006 171.17889577893862  53.08228165743776 171.015119997716  52.011483296498646 170.21399696562585  C 50.37069908703295 168.98269892019547  50.24559512670325 166.5970856979483  48.48211749663128 166.5970856979483  C 48.336447665749816 166.5970856979483  48.17799282038593 166.61505549816454  48.009346579229216 166.65343996937477  C 47.720570022994984 166.70722712648467  47.46496127282871 166.7353737013132  47.234983577949386 166.7353737013132  C 45.65305925616077 166.7353737013132  45.167472811115175 165.47345364939187  43.99698795300602 163.53066764675967  C 42.670580841900566 161.2960863168062  42.22334944030239 160.40285277816537  40.00241849967854 157.7381881175259  C 37.76882459721632 155.06081012884226  39.1054841304366 153.72209057361582  35.99259246582294 153.2715925719357  C 32.88247749886543 152.82876535232077  31.543224346955338 149.2657023635226  29.309630444493234 146.59098317180968  C 28.571059381132066 145.69506027531335  28.029176153938156 145.40075895544504  27.535991931789553 145.40075895544504  C 26.549562461170346 145.40075895544504  25.75472512882198 146.59098317180968  23.981147642440412 146.59098317180968  C 21.69128747099094 146.59098317180968  22.015794938821777 145.60805343651123  21.32064410364339 145.60805343651123  C 21.20310740725558 145.60805343651123  21.05743757637411 145.63873656477165  20.86569287229804 145.70013338217714  C 20.058131551789256 145.9638432564392  18.759888088338577 146.73174660683702  17.4693034283129 147.7734143625703  C 17.4693034283129 147.7734143625703  16.965836270888474 147.14633556896928  16.965836270888474 147.14633556896928  C 16.965836270888474 147.14633556896928  16.298849083364743 144.47418349157306  15.961465061568319 142.12946073308325  C 15.629237763990307 139.79509811451405  14.97244197225929 139.12447006018482  15.961465061568319 137.11509188974435  C 16.25277421017014 136.53917201716723  16.462369113464042 136.35235332886447  16.613165155402868 136.35235332886447  C 16.904504817165805 136.35235332886447  17.01438271012855 137.0127740476967  17.154956843113663 137.0127740476967  C 17.19837707129639 137.0127740476967  17.244421431329933 136.95131610852172  17.303220292684895 136.7798084234645  C 17.635417077101906 135.7815676849205  18.29221286883281 133.77729318222853  16.965836270888474 132.10338184337627  C 15.629237763990307 130.42424459323664  15.961465061568319 128.75791235379532  14.297765468149557 128.42507375829317  C 14.003832187696801 128.36367694088761  13.735529962531166 128.3355609269438  13.49017363447966 128.3355609269438  C 12.345228292174395 128.3355609269438  11.598937399066168 128.93706026003292  9.95058592565853 129.7587202066559  C 7.954628521500702 130.76209517383313  7.61724449970425 131.43269266727768  8.62680294640387 133.4445768302653  C 9.62089122044817 135.4488207720725  6.620562606970216 135.4488207720725  4.609226569640177 135.4488207720725  C 2.6107670862757257 135.4488207720725  1.9411252537401222 134.1075035416447  1.6063348506334048 132.43609819533955  C 1.2792795338544185 130.76209517383313  0.6071203655318064 129.08806159144206  2.2759766831690085 129.08806159144206  C 3.9524612910702746 129.08806159144206  4.609226569640177 125.42265019971137  5.613689318443413 124.07885753762106  C 6.620562606970216 122.73503431464601  6.955353010076934 121.06100073225488  5.286496692439731 119.7325801951795  C 3.6151077824348503 118.39636663250012  4.949173696965335 118.72660755280097  6.620562606970216 117.39558934052431  C 8.286825305917684 116.05430267098112  6.283209098334793 114.38033021035947  6.955353010076934 112.37614739032166  C 7.61724449970425 110.37193400939908  9.95058592565853 109.37369327085509  12.296620826612147 109.37369327085509  C 14.62746017335986 109.37369327085509  13.62305845087871 107.36177854698273  12.961136448090281 106.35586702637364  C 12.296620826612147 105.35759572694492  11.627131559881937 104.01120538965328  14.97244197225929 103.68353158366912  C 18.29221286883281 103.3533823460224  15.961465061568319 101.67931820274654  14.62746017335986 100.34839167312398  C 13.293363745668291 99.00456845014895  12.296620826612147 98.3338792740503  10.954926621817627 97.66328178060587  C 9.62089122044817 96.99772683314039  8.62680294640387 97.3330714211897  7.287641333977 96.32199511106268  C 6.1247847661319055 95.45684702548094  7.221122642874864 94.59429661510053  8.189732427437352 94.59429661510053  C 8.343091574904996 94.59429661510053  8.488700379464353 94.61730896129585  8.62680294640387 94.66085822202407  C 9.62089122044817 94.98593435280691  10.622668811078558 95.32121781908687  14.297765468149557 95.32121781908687  C 17.96511178231221 95.32121781908687  16.298849083364743 93.98766305337826  14.97244197225929 92.99192830738139  C 13.62305845087871 91.98595566500283  12.961136448090281 89.31117535152055  12.626376558144676 86.96905026823214  C 12.45254307960844 85.74303925585853  13.104273686604099 85.25155910776694  13.906708796055527 85.25155910776694  C 14.637651569152574 85.25155910776694  15.491196223372846 85.66110552392013  15.961465061568319 86.29072087095311  C 16.311542558364046 86.75662155853274  16.738391168376797 86.94350136860494  17.2035032823538 86.94350136860494  C 18.082709505022134 86.94350136860494  19.097211083812887 86.28567832497399  19.96866696357299 85.630391834775  C 20.17829238002789 85.47425627473277  20.35972363566702 85.40769466780921  20.530932982352383 85.40769466780921  C 21.456122538732146 85.40769466780921  22.003009924339302 87.4041761448972  23.981147642440412 87.96729100677612  C 24.336351350293665 88.06976165324735  24.62766049889549 88.11835345995459  24.87301682694705 88.11835345995459  C 26.253066075188997 88.11835345995459  26.178919093822795 86.61582756262067  27.31364252717429 84.62698630671312  C 28.64767792854375 82.2848612234246  27.31364252717429 81.61683084429671  26.644092234121914 80.61602299143611  C 25.977074533437182 79.6177516920074  24.977799022013386 79.6177516920074  23.63863740958652 78.27139191560049  C 22.304602008217064 76.94294081764039  22.9767459199592 76.6050902370439  24.31078132132866 75.26380356750074  C 25.64484723585917 73.93024880179216  25.977074533437182 73.26985864384466  25.977074533437182 73.26985864384466  C 25.977074533437182 73.26985864384466  23.981147642440412 72.59155980745034  21.974937816167756 71.59331906890635  C 19.96866696357299 70.58227331966404  19.633937586788385 69.58143490591871  21.307889602321975 68.24781901844074  C 21.951900379570457 67.73078997072187  22.493722580442366 67.46200698959603  22.979278512326854 67.46200698959603  C 23.751139434400088 67.46200698959603  24.36442345846521 68.14547061550829  24.977799022013386 69.58143490591871  C 25.534938829735367 70.88684309679878  25.989890061080715 71.57027616182637  26.337404452347855 71.57027616182637  C 26.615989612789313 71.57027616182637  26.82808659528975 71.14022339202504  26.978913150389744 70.24946528504661  C 27.31364252717429 68.24781901844074  25.977074533437182 66.57127944350238  27.648463443442065 65.57300814407371  C 29.309630444493234 64.56960261601172  29.309630444493234 62.89309360195815  28.3180442496555 62.22753865449271  C 27.31364252717429 61.55694116104828  22.639422924484837 58.87696549716326  20.293265970886996 58.549383373833265  C 17.96511178231221 58.21400822489916  14.62746017335986 55.87707849201336  13.96038144635302 53.87289567197555  C 13.293363745668291 51.86104206987261  13.293363745668291 50.52999329671123  10.954926621817627 50.52999329671123  C 8.62680294640387 50.52999329671123  7.61724449970425 49.5215146617855  6.620562606970216 47.855151861459525  C 5.613689318443413 46.183700673827296  6.283209098334793 44.8475635133597  4.949173696965335 43.83906959799167  C 3.6151077824348503 42.830606243508356  4.277029785223195 39.16004534270215  4.277029785223195 37.826475296551166  C 4.277029785223195 37.69845575045271  4.246394571522944 37.56536309749043  4.233609557040441 37.427151496337316  C 5.976551829721674 36.83584421830281  9.099543350644964 35.6635592412698  9.735925837629443 34.708806641684454  C 10.622668811078558 33.372654200774555  13.071044854214087 31.140685826464843  14.405080255583542 30.91285443086582  C 15.072097956268273 30.79767045635041  15.795351412779313 30.7413314653663  16.549240082990494 30.7413314653663  C 17.30062667399519 30.7413314653663  18.07758329396472 30.79767045635041  18.859574585508557 30.91285443086582  C 19.01799891771144 30.938433891377798  19.19183239624768 30.94867178775945  19.37835934978311 30.94867178775945  C 20.985853700536673 30.94867178775945  23.380496067052537 30.088612089483853  23.981147642440412 28.685989724304598  C 24.64560223759643 27.12455772166999  24.423283346142227 24.674995848142995  25.529782105516958 24.22193073214637  C 25.62443393111269 24.18354626093613  25.716278545891385 24.168189416363475  25.805773647268655 24.168189416363475  C 26.564849554859414 24.168189416363475  27.25490469214144 25.29952280786975  28.25930641462265 25.29952280786975  C 28.57618559218948 25.29952280786975  28.92116739108891 25.186921228113334  29.309630444493234 24.89511062034977  C 31.09599294535722 23.55639106512326  32.88247749886543 22.4480700198123  33.9839415866658 21.101710243405353  C 35.1006927681553 19.76560364382254  35.550548301604344 19.322745863322847  37.10690259442796 18.43201831722925  C 38.66325688725167 17.54378148324037  39.1054841304366 17.32113015760165  39.330396640580624 15.531882039810434  C 39.55268501887372 13.760634283120057  39.55268501887372 11.520949285418212  40.88415731471447 10.860574407913017  C 42.220755821612634 10.184812124950591  44.22696564788529 10.184812124950591  45.338651644639484 10.184812124950591  C 46.458026957979854 10.184812124950591  49.123565168351064 10.85548602060691  50.00524295706499 11.968926014108701  C 50.759192653598284 12.905708813477672  52.4485233023041 14.625782368701765  53.89249762295848 14.625782368701765  C 54.16589554602047 14.625782368701765  54.43172620514056 14.561818436979635  54.68217823108843 14.421009160625223  C 56.24362822180839 13.537967677039061  56.026435541411594 11.968926014108701  57.35790783725235 11.295700284578105  C 57.940617673939336 11.00644151068887  58.39547736580147 10.840144456476647  58.817169251595736 10.840144456476647  C 59.35648937326099 10.840144456476647  59.84451687119113 11.113969983581539  60.468175370015196 11.741079338067292  C 60.81315716891462 12.089167815045554  61.352324724774604 12.240184426896985  61.88908174091116 12.240184426896985  C 63.087669220352915 12.240184426896985  64.28625669979472 11.482534253323166  63.36112816973702 10.410076406233001  C 62.03472105863157 8.846123130608778  60.92050246950972 8.846123130608778  61.13769514990652 7.287304083617798  C 61.36257714688943 5.733588704375314  62.03472105863157 5.28309070269527  63.58350808751334 4.392347876159281  C 64.4549944804345 3.898315894193392  64.63377109106176 3.196958870276685  64.96865303365169 2.708091677828733  C 64.96865303365169 2.708091677828733  65.70206737279435 5.057887543182358  65.70206737279435 5.057887543182358  C 65.70206737279435 5.057887543182358  64.96865303365169 2.708091677828733  64.96865303365169 2.708091677828733  C 65.19356554379561 2.380433152286956  65.48228107370772 2.1423791407485853  66.11872458701431 2.1423791407485853  C 66.228571966816 2.1423791407485853  66.34873279505464 2.150095764140714  66.47899347960282 2.165437328270978  C 66.66555094629942 2.185897840592041  66.85726513721437 2.1910167887828687  67.06426642181844 2.1910167887828687  C 68.70498960496202 2.1910167887828687  70.91820071583876 1.615142757532784  72.44904600601959 1.615142757532784  Z M 65.37499679943474 0  L 63.98469512907796 2.027210446675478  L 63.65249834466102 2.5058244622993002  C 63.65249834466102 2.5058244622993002  63.6703790570399 2.5596574607363003  63.6703790570399 2.5596574607363003  C 63.47613227375718 2.9179685536538837  63.34068435182948 3.1560378456345304  62.99054582871164 3.353094430318943  C 61.30383931185658 4.323249715803935  60.25858046672135 5.019441950202647  59.95695786968254 7.115826959445275  C 59.71932137137821 8.810275212830453  60.62656918905703 9.55261438315873  61.35751196215413 10.148994768056959  C 61.656510427342184 10.394689000775655  61.960604590426485 10.645548023012346  62.28770567694708 10.998786009066128  C 62.17782778398433 11.024380750020407  62.04488194126328 11.0448412623415  61.88908174091116 11.0448412623415  C 61.57476566887303 11.0448412623415  61.37286008216537 10.955252028780283  61.308843470269764 10.896407045249065  C 60.73394500281318 10.315352944038569  59.9263836823044 9.644709609267053  58.817169251595736 9.644709609267053  C 58.086287504820746 9.644709609267053  57.40138909175724 9.936535497472896  56.828840137701974 10.225778990919855  C 55.829625652600235 10.727481754950762  55.41305997786337 11.531171901357535  55.075675956066945 12.173653380858163  C 54.79461922957983 12.711173501782786  54.58752640549258 13.09770757174067  54.09428115702192 13.379249722237779  C 54.05089144200026 13.404875024076778  53.99218412012846 13.433036879347664  53.89249762295848 13.433036879347664  C 53.22285579042288 13.433036879347664  51.95271494830479 12.480805552751965  50.93302613213446 11.216333666956324  C 49.68577016080834 9.634502273770034  46.468340406416736 8.989484240837493  45.338651644639484 8.989484240837493  C 44.150286074151495 8.989484240837493  41.93710547643581 8.989484240837493  40.34492873253238 9.793174387244209  C 38.63521529224113 10.64045963570624  38.410272268936104 12.818671413790758  38.233997737515494 14.572041052918989  C 38.20839719538944 14.845942982235652  38.180294574056894 15.119799070225351  38.144502636138114 15.378359435411781  C 37.99880229209565 16.545525464254077  37.99880229209565 16.545525464254077  36.6060595688544 17.33900827516383  C 34.8528343608972 18.342429083668033  34.288035749750215 18.87226314208522  33.06900445240086 20.333852734334688  C 32.322744072453695 21.24502551230696  31.1344090151267 22.09744498940221  29.879524753536575 23.000977546194186  C 29.457863380903355 23.302964928569963  29.02854320484512 23.61529717042398  28.596629410097016 23.937790906447933  C 28.45608579027296 24.04275226502402  28.33339236966668 24.104179643314236  28.25930641462265 24.104179643314236  C 28.108449346361656 24.104179643314236  27.799198459058832 23.884049590665153  27.55643574969709 23.70491696486989  C 27.104108650202562 23.377243158885637  26.54443625011293 22.97281569092327  25.808397779119474 22.97281569092327  C 25.563041451067967 22.97281569092327  25.32021771538417 23.021422778072857  25.090209507343786 23.11104257251877  C 23.784337753629043 23.64345902569487  23.526196411095064 25.143417808712186  23.301344927273263 26.459018054646908  C 23.191436521149402 27.09382875208249  23.08152811502565 27.746548127964832  22.88471822621423 28.217506641965937  C 22.557586626532572 28.97518737642445  20.783978626990006 29.753343903646357  19.37835934978311 29.753343903646357  C 19.255696442337886 29.753343903646357  19.138129232789076 29.748179114128416  19.03078393219392 29.730285716123962  C 18.197683095881242 29.609967512975338  17.3619886408788 29.546003581253206  16.549240082990494 29.546003581253206  C 15.723798050102877 29.546003581253206  14.934086928811867 29.609967512975338  14.205737774404582 29.735374103430097  C 12.306842735565972 30.055346566464525  9.602979994908281 32.753215628353935  8.741807050424116 34.04587993030507  C 8.506611605004268 34.358120489505005  7.0038994493171 35.225850969845624  3.850272714693558 36.29575698306166  C 3.850272714693558 36.29575698306166  2.9557488851750993 36.60038788196585  2.9557488851750993 36.60038788196585  L 3.047746065759046 37.539783636978534  C 3.047746065759046 37.539783636978534  3.0682203968276682 37.73687078254764  3.0682203968276682 37.73687078254764  C 3.08097489814903 38.08497453996821  3.0503396844487796 38.44586802764471  3.01970447074853 38.85029549560704  C 2.868908428809706 40.85706071040385  2.656750419987185 43.60611925420185  4.228483345983028 44.79382219757693  C 4.586311185687074 45.065126451692294  4.645018507558868 45.3133877987276  4.777933837118917 46.053175135181654  C 4.895531559828785 46.718653680435345  5.038638285181603 47.545432575249116  5.5983106852711755 48.47199275867885  C 6.761106226794215 50.425047218577454  8.120711657128679 51.725290619939635  10.954926621817627 51.725290619939635  C 12.064080026204229 51.725290619939635  12.110093873076716 51.88145674086659  12.559918893364594 53.38654975251721  C 12.639100546304983 53.65783872619018  12.7260325421536 53.94966461439603  12.825658013001526 54.24913072378231  C 13.689455089336622 56.829294538166785  17.522945565449337 59.35567119544128  20.124558703408283 59.73447336156462  C 22.130829556002993 60.016030792504054  26.58022818803165 62.50655953200026  27.656122246867128 63.22070628617293  C 27.78140928616323 63.30774368585983  27.801792077748654 63.4485071208872  27.799198459058832 63.550824962934875  C 27.79413327432353 63.888767226185536  27.505326204928302 64.26756939230893  27.03255528752618 64.55172449844963  C 25.304991648017154 65.58324604045538  25.5477543573789 67.2367427083137  25.716278545891385 68.33742353244425  C 25.24353814165032 67.42872618613428  24.39508918532646 66.26664854459818  22.979278512326854 66.26664854459818  C 22.2177005255295 66.26664854459818  21.450996327674734 66.59939545744618  20.559096630007094 67.31357277250356  C 20.152752864224052 67.63861834240174  18.90815153790975 68.63435308839863  19.05379085563022 70.04210968221109  C 19.19183239624768 71.38339635175417  20.48501067496306 72.17690972354865  21.440774418721023 72.66319452123761  C 22.376185884054554 73.12649753361598  23.301344927273263 73.52580605338751  24.039885477473316 73.82016849502527  C 23.878898039741724 73.9968104087157  23.689746954355364 74.19389755428477  23.46748908922327 74.4165947212506  C 23.46748908922327 74.4165947212506  23.06874310054312 74.81333612670542  23.06874310054312 74.81333612670542  C 22.3480832627219 75.51981209881299  21.727018382587545 76.12131143190211  21.719359579162482 77.06322845990432  C 21.71423336810507 77.92327287773762  22.263714372401985 78.586199589117  22.795345177481128 79.11863132273541  C 23.556831624795315 79.88399811970136  24.221347246273446 80.27303818220646  24.758012722926832 80.58784585572286  C 25.248755892190896 80.87200096186363  25.468511678116457 81.0102278434591  25.649881907433475 81.27898026370028  C 25.80073897569447 81.50421398409789  25.977074533437182 81.71664269379723  26.1558816572255 81.9316690786979  C 26.730932690487364 82.60743136166033  26.943060186148855 82.86081165688657  26.276134024947353 84.03318831657377  C 25.862039916255966 84.76014008144476  25.598863902147798 85.42049967850753  25.38161019542889 85.95030317603994  C 25.23594036454737 86.3215262427524  25.026345461253523 86.83342106183794  24.908808764865714 86.93326347222317  C 24.77851756715648 86.92302557584145  24.607216680987953 86.9024886613086  24.3081571894779 86.818048936823  C 23.544168662957063 86.60045543760573  23.061023270796003 86.03731001484219  22.590815458922588 85.4921343922948  C 22.074593800176796 84.8932021735223  21.486849291915565 84.21233622281142  20.530932982352383 84.21233622281142  C 20.091421410501383 84.21233622281142  19.659446589431223 84.36850234373838  19.250600744441527 84.6782063495064  C 18.307530475682935 85.38721887504585  17.61753636472302 85.75064891615425  17.2035032823538 85.75064891615425  C 17.12429111625236 85.75064891615425  17.047611542518624 85.75064891615425  16.919852937176984 85.57666579943454  C 16.239989195687727 84.66537077792336  15.028616701763491 84.05620066276909  13.906708796055527 84.05620066276909  C 13.127189070557174 84.05620066276909  12.449949460918678 84.34799599009023  11.99512028221761 84.86762271301036  C 11.65523418121448 85.26436411846531  11.279495115970574 85.9784803117532  11.443076172391986 87.13799083897274  C 11.951639027712716 90.68571226364071  12.86913926750642 92.91512880407618  14.256816806012313 93.94668090696663  C 14.313083074999627 93.99016904592537  14.394858346629775 94.04902930989908  14.486886040374749 94.12588993497369  C 14.428087179019787 94.12588993497369  14.36416210660747 94.12588993497369  14.297765468149557 94.12588993497369  C 10.829761635165864 94.12588993497369  9.904602591947157 93.82122847518477  9.010109275589697 93.52943314786361  C 8.74687223515936 93.44239574817671  8.475976391304018 93.39637105578613  8.189732427437352 93.39637105578613  C 7.205805036024795 93.39637105578613  6.027630861329518 93.9415161174487  5.685242681119879 94.98333667760565  C 5.582993078421107 95.28790645474032  5.3452955537946085 96.36808092522273  6.572046680891078 97.2843879318283  C 7.555943559142722 98.02414470739768  8.445310664442626 98.20592084972132  9.158342211999871 98.34922083818053  C 9.608136719126808 98.44399014170199  9.999132364898667 98.52329563755436  10.423387356221653 98.7331877938218  C 11.573367370101161 99.30907710551426  12.488335017527215 99.89272888192602  13.784076401771301 101.19043572985626  C 13.965538170571547 101.37218131129518  14.164850138589507 101.55906112136738  14.36416210660747 101.74844692398665  C 14.573726496740255 101.94810118387238  14.865066158503193 102.21948184019953  15.09766798523322 102.46519135336064  C 15.026114622556841 102.47539868885767  14.946871943294342 102.48563658523933  14.854905275871479 102.49333792818915  C 13.663946086693784 102.61359500956839  12.012970481435328 102.91058568729224  11.420008222633632 104.16477383537897  C 10.860427362027114 105.35246149831171  11.63472933698483 106.51967336848104  11.966987147723897 107.02133029118491  C 12.324784474266915 107.56140224598376  12.475519489883684 107.95047286937353  12.531785758870996 108.16556037604363  C 12.473017410677032 108.1706334829074  12.393774731414533 108.17836538674196  12.296620826612147 108.17836538674196  C 9.125113379609859 108.17836538674196  6.584801182212554 109.67826304798983  5.820660089886466 112.00238777017731  C 5.416879429632102 113.20804523332633  5.710782196923745 114.30869549657221  5.92287917942421 115.11238564297891  C 6.2090621169685924 116.19259067434608  6.14266547851068 116.24374959536986  5.871769634655338 116.46128197281776  C 5.4398253267462335 116.80432790381687  5.030918455434457 117.01672605263147  4.673090615730413 117.20106930927173  C 4.113479241962895 117.4903586440457  3.4157958144168887 117.85381924603885  3.331457437258033 118.69849153885716  C 3.2394602566740858 119.62760355616105  4.024045166907654 120.2547434715316  4.54026682565356 120.6667958802319  C 4.944047485907923 120.98682946503573  5.876865332551723 121.7316287865841  4.6578340352023995 123.36214366913178  C 4.228483345983028 123.94063065602563  3.9013212331403744 124.72644268487024  3.5563699474019153 125.56090764219154  C 3.2599040745815664 126.2724872820476  2.6414022999759763 127.75453738661811  2.255502352100387 127.89523969987604  C 2.255502352100387 127.89523969987604  2.2427478507790246 127.89523969987604  2.2427478507790246 127.89523969987604  C 1.2792795338544185 127.89523969987604  0.7374573329825647 128.31505457329567  0.4614352780697249 128.66317361115858  C -0.25922455975146896 129.56160250020204  0.014203876471580109 130.7723330702149  0.27998876585006627 131.94724628333398  C 0.3336766727282009 132.18265677834398  0.38731880986466616 132.42332374552595  0.43331740015668224 132.66646614437042  C 0.6352077302838215 133.65706666173404  1.238346128297731 136.64158154186902  4.609226569640177 136.64158154186902  C 6.594992578005209 136.64158154186902  8.843965113639692 136.64158154186902  9.715451506560793 135.2337638262871  C 10.001695470427373 134.76792426047686  10.231673165306642 133.98984413546674  9.69503820181437 132.91214509664678  C 9.21454745466507 131.95742305794624  9.26053078837656 131.69637198065502  9.275939934709795 131.65285328081154  C 9.293698594444402 131.5913953416365  9.441992557176688 131.35338717142525  10.484749323105323 130.8286567807566  C 10.898690865991371 130.62127061703632  11.256518705695388 130.43194593618645  11.581056686687281 130.2552734616113  C 12.513905046492107 129.7536165389074  12.94832092044675 129.5308888110569  13.49017363447966 129.5308888110569  C 13.658819875636372 129.5308888110569  13.847970961022622 129.55393171813702  14.060067943523059 129.5974198570957  C 14.387230056365826 129.66141434970257  14.461285498248744 129.7381527312384  14.826772141377825 130.64434408500114  C 15.082258838899929 131.27148400037154  15.394103344892514 132.04959468626637  16.033018424244645 132.84824228669407  C 16.597786522230628 133.5623279190973  16.630984841459586 134.41470155486547  16.50578934164671 135.15696432298196  C 15.575534600531702 135.22612360510672  15.09766798523322 136.17057718654084  14.895762398525497 136.5852578313273  C 13.973166460835495 138.44357354858917  14.221085894415706 139.55443114733205  14.50223416038593 140.83939410633337  C 14.594170314647736 141.25150763680318  14.698952509714188 141.72248143124665  14.780727781344336 142.2984624255933  C 15.120613882347355 144.67888029743787  15.780033805929133 147.3281422721777  15.810669019629383 147.43819201805988  C 15.810669019629383 147.43819201805988  15.872000473352049 147.69160287417077  15.872000473352049 147.69160287417077  L 16.03817514846311 147.89125713405653  L 16.53904868719778 148.52096416374363  L 17.287872172673715 149.46031407742927  C 17.287872172673715 149.46031407742927  18.21812691378878 148.70781341293102  18.21812691378878 148.70781341293102  C 19.426936302184306 147.73252389881296  20.525898310778135 147.10031087657865  21.136680255636612 146.875077156181  C 21.69378955019759 147.38947796781375  22.44767822040877 147.78374394160625  23.981147642440412 147.78374394160625  C 25.309995806430344 147.78374394160625  26.212147926212808 147.27945878281625  26.871567849794587 146.90579084532618  C 27.104108650202562 146.7726676314792  27.428677144355568 146.59348916435684  27.535991931789553 146.59348916435684  C 27.535991931789553 146.59348916435684  27.791570168794827 146.6293370821352  28.39213020469953 147.353782854459  C 28.97737263375411 148.05506347616392  29.514129649890663 148.84597917275707  30.032883901004162 149.60874829452166  C 31.517745857473557 151.79730493208447  33.053686845550736 154.06247770764412  35.82403776414945 154.45677424232133  C 37.03797336360239 154.63338559512698  37.086489289681474 154.74850844787298  37.436597299638315 155.63419344798757  C 37.71008676218347 156.3458036487284  38.09342360453033 157.3158672515591  39.08757290489671 158.5035243536072  C 41.00172452426334 160.80213073705212  41.525604986434246 161.68524862285014  42.560672435776766 163.44882559747535  C 42.560672435776766 163.44882559747535  42.97217292577833 164.14753910486363  42.97217292577833 164.14753910486363  C 43.133129850348865 164.4086513039244  43.27626708886268 164.6568973705174  43.41171501079044 164.88726531954822  C 44.32152593399791 166.45635282380564  45.18272939164319 167.93070158542636  47.234983577949386 167.93070158542636  C 47.54926913682645 167.93070158542636  47.87646176283022 167.89488422853273  48.241948405959356 167.8232189538607  C 48.32878886232475 167.80790795061523  48.407970515265134 167.7951029399169  48.48211749663128 167.7951029399169  C 48.76064163075069 167.7951029399169  48.94216442587304 167.99472663891794  49.486519219112544 168.92897288485503  C 49.900491275159595 169.63541829607786  50.414149828376736 170.51089596069554  51.29338656420618 171.17125555775831  C 52.35905871408783 171.96981147553177  54.035573835150124 172.37168710961996  56.274263435508644 172.37168710961996  C 56.92340042381454 172.37168710961996  57.45243761020392 172.33590031361098  57.72845966511673 172.3127962847615  C 58.160342946703715 172.42287659152842  59.27202894345792 172.84266090406337  59.27202894345792 174.222301483932  C 59.27202894345792 175.71199180968296  59.7218234505848 176.72566579501125  60.1205389261039 177.6163933411049  C 60.52178699399069 178.5225235730982  60.81059406338592 179.17527350986538  60.62397557036726 180.26314932329757  C 60.20744040879145 182.80486754470232  59.50975698124542 187.04876592332676  63.205205916740724 188.28755138551395  C 65.6535514467152 189.0989734357552  68.06348090692013 189.55206911263656  68.61555552990681 189.64677729438864  C 68.92221279851988 189.7568270402708  69.70679770875347 190  70.56287495534133 190  C 71.89187568513655 190  72.64835797403754 189.429214356056  73.04954501560218 188.94543555091423  C 73.41759476425996 188.50765087727834  73.64760297230028 187.9522984801187  73.74472636394167 187.2944143147184  C 74.3861740356614 187.52227627120212  75.11455370322979 187.70389960910214  75.8250831715804 187.70389960910214  C 77.1795623908574 187.70389960910214  77.93601416659742 187.06664404088883  78.33469912895538 186.52916976129134  C 78.47530377510155 186.35252784760092  78.57749235147818 186.22967309102037  78.64898468783245 186.157946694579  C 78.64898468783245 186.157946694579  78.65154779336115 186.157946694579  78.65154779336115 186.157946694579  C 79.03491514886906 186.31924704413916  79.6125292876597 186.56749311073213  80.49927226110881 186.56749311073213  C 81.92792897491302 186.56749311073213  83.3104803023616 185.4079214617432  83.71688509446676 183.86707221496846  C 84.17943410291505 182.13155013251765  83.36421397898121 180.47301091868036  81.53430919729027 179.4286232442068  C 80.43800183370831 178.79894677540443  79.28789976718457 178.34591222029252  78.17365066490174 177.90821922931084  C 76.19563499944479 177.12751086821464  74.49098674388884 176.45177914613691  74.07436004282985 175.18992021598504  C 73.98242388856805 174.9134664527941  73.89036568166203 174.66259215011507  73.80608833082529 174.42198630470247  C 73.05726484534935 172.29494872808414  72.87833566891682 171.7881270158623  74.96378817445202 170.3009732435433  C 74.96378817445202 170.3009732435433  75.8761316900272 169.6431196390277  75.8761316900272 169.6431196390277  C 78.17877687595914 167.97935451390305  78.65920659678622 167.63374146858723  80.8749503000306 166.89407637567214  C 81.56250335810604 166.66364730487183  82.1681590919071 166.55876234850754  82.791695538087 166.55876234850754  C 83.3616508734525 166.55876234850754  83.87793355852047 166.65343996937477  84.4221968122768 166.7456115976949  C 85.00490664896373 166.84802112239674  85.60296460566184 166.95290607876103  86.2852999131967 166.95290607876103  C 88.24033916837838 166.95290607876103  90.48928119085173 167.4930085944446  91.00046817802334 168.51679823261577  C 91.6394137705365 169.7941515313215  92.92484170634373 171.1635236539237  94.24606158006965 171.1635236539237  C 94.8620307623077 171.1635236539237  95.50863515824591 170.83591096970895  95.79231601658383 170.12940443671664  C 96.15264593549439 170.29327190059348  96.74042095691668 170.60811013499466  97.64007099749253 171.20960946808378  C 98.04894735564328 171.48606323127473  98.54988192070002 171.61915588423705  99.12746554632952 171.61915588423705  C 100.76309303157674 171.61915588423705  102.89443733134021 170.45197457495243  103.61006249758714 170.0296231481009  C 103.72503608844625 170.01425102308593  103.88864765802866 170.00150713415712  104.08030082262161 170.00150713415712  C 104.63997322271118 170.00150713415712  105.41186465794547 170.11149575826983  105.9152707890478 170.61067724931127  C 106.45452988439094 171.15328575754205  106.34452993878396 173.11651699205302  106.06094061992927 174.31444255136742  C 105.63924873413498 175.44073339689467  105.34787855921098 177.62919835180324  106.80457686802566 179.08310188154528  C 108.32776335478142 180.61380491459238  109.61319129058869 181.32535399356374  110.83481620662775 181.32535399356374  C 111.62458835424081 181.32535399356374  112.3554090746937 181.01311343436387  112.94583874112786 180.4217603150023  C 112.99185258800034 180.3757661834964  113.02755298643584 180.34496081169712  113.0583102527803 180.31941191206988  C 113.10429358649174 180.35782694416486  113.18872350313382 180.4217603150023  113.26015481316593 180.47044380436375  C 113.67672048790278 180.76477568511672  114.3131945143705 181.21270657248022  115.21269198914104 181.21270657248022  C 115.34560731870107 181.21270657248022  115.49127714958254 181.22548102229376  115.63951008599273 181.2383165938768  C 115.86442259613668 181.25368871889174  116.09696339654467 181.26906084390671  116.3295041969527 181.26906084390671  C 116.68467739164483 181.26906084390671  117.76322609549213 181.26906084390671  118.58616604917316 180.3757661834964  C 119.42695620207199 179.46447116198516  119.72342207489235 177.90051788636103  119.51898389581697 175.46117862877333  C 119.36043751096986 173.5363318654726  119.43971070339339 171.81373703725893  119.51639027712717 170.14743535870235  C 119.6466814748364 167.2472990812835  119.76171609201761 164.73883110245578  118.47372505068176 162.48893876925686  C 117.19842748434507 160.24408898203703  116.65410320426665 156.6451780754605  116.47517402783411 155.1734881108106  C 117.15500725616236 154.68714219135217  118.40986100459145 153.81682931625255  119.83586307338375 152.95678489841924  C 122.27136256255363 151.5003753761301  123.78942283825198 150.48673195168647  124.35943919993962 148.74109421639278  C 124.3746347541455 148.74109421639278  124.59198000034765 148.6053427664598  125.58350516886316 148.6053427664598  C 125.94133300856718 148.6053427664598  126.32720244328173 148.62077601324413  126.72073068142123 148.6360870164896  C 127.17565139960554 148.65402625582115  127.64845283016865 148.67190437338323  128.12122374757072 148.67190437338323  C 128.23631939107406 148.67190437338323  128.33597537508302 148.6873070592829  128.4765495080682 148.8792599762188  C 129.06432452949036 149.69578569420858  129.01837170894 151.7153100783766  128.7703607358766 152.4576339682625  C 128.36148437772587 153.67093165259192  128.701370478729 155.70332216922768  129.5601328834898 157.17760980907892  C 130.25784682419683 158.37810248271003  131.22126937137986 159.12800547200683  132.34326881657094 159.35076376074204  C 133.805093336443 159.64506508061035  134.09130678714854 160.2849794457945  134.5386297282299 162.0409773210087  C 134.9601690482189 163.75079769940876  136.42205459441317 166.99379654251842  138.91891605046666 166.99379654251842  C 139.60384497669133 166.99379654251842  140.26311233446776 166.7430444833783  140.88161410907344 166.24905834273952  C 141.85528907837121 165.4683499816434  142.51223743590748 164.56726229562912  143.0437156751813 163.83777397732624  C 143.32992912588682 163.44882559747535  143.75412309088773 162.85997847066093  143.95349608522775 162.7653619715631  C 143.9560897039175 162.7704350784269  143.99950993210027 162.78330121089462  144.06596759688034 162.81655145347165  C 144.4544001371235 163.0136691599255  144.79440829077078 163.34378783668745  145.15214459099164 163.69190687455043  C 145.81916229167638 164.33695546836768  146.6522936411501 165.14327385086045  147.99658146463437 165.14327385086045  C 148.62533566135485 165.14327385086045  149.28200940044164 164.96663193717004  150.01554579222852 164.60057365997557  C 152.8983377093186 163.1544020340682  157.02563941323993 161.5956441088466  159.2747034883575 161.5956441088466  C 159.4408171371465 161.5956441088466  159.568545229327 161.60841855866022  159.6580403307043 161.61089399032264  C 160.1537266320595 162.71670904308644  161.2526581274922 162.93943677093694  162.8372370942927 162.93943677093694  C 166.42280813682527 162.93943677093694  167.16897697728933 162.93943677093694  169.68893689626228 161.42924009153788  C 170.46839559543852 160.9607722896416  171.26582654647663 160.6818430947882  171.9890189766655 160.6229217090451  C 171.9890189766655 160.6229217090451  172.23187322551044 158.28339430095798  172.23187322551044 158.28339430095798  C 170.65501408845716 157.8175547351477  169.64545564175745 157.25181163718278  169.31319783101839 156.9318697350331  C 170.1105982688955 155.6289980975849  170.35333046509618 155.3935570416903  172.43881348379244 154.2058388178728  C 175.26283705268867 152.5907571821095  175.8122570306635 151.3620873727652  174.99956949909728 148.49272590626092  C 174.42720362400834 146.48087230415805  172.9908575936181 144.31282202024337  171.18911645958187 144.31282202024337  C 170.6192221505384 144.31282202024337  170.09274806967775 144.53548862632448  169.67105618388345 144.95276694631218  C 169.4154474337172 145.2087754776244  169.23664030992884 145.3623744842348  169.1164794816902 145.45445442990075  C 169.07308976666855 145.36741703021386  169.02442127478417 145.2496659413818  168.97334224317635 145.09102438879236  C 168.42901796309798 143.4501799272088  168.66659343508013 142.91270564761135  168.7203271116998 142.8231622553772  C 168.74077092960732 142.79244856623208  168.79447409306593 142.6977709453648  169.07049614797876 142.64144723482306  C 171.31687506492338 142.1832173293084  171.90468059950666 140.41196957261815  172.52827807200873 138.53317806259273  C 172.52827807200873 138.53317806259273  172.651002005776 138.16461379285107  172.651002005776 138.16461379285107  C 173.14671882029225 136.65952078120054  173.48922905314612 136.4547322926816  174.9331423474783 135.58961476798459  C 174.9331423474783 135.58961476798459  175.12735861759992 135.46926600395122  175.12735861759992 135.46926600395122  C 175.52348047442925 135.23639206237317  175.8224789396173 135.07509171281293  176.06017646424368 134.95223695623238  C 176.7169417428136 134.60408735748476  177.06711077909253 134.37118285502203  177.41724930221042 133.86695881800148  C 177.47089143934696 134.89077901705738  178.18386196058202 135.9479411413445  178.7564109146373 136.6390449884372  C 178.4216205115306 137.4044117854031  178.07145147525162 138.54338539808973  178.39342635071483 139.5058393406248  C 178.73590607040765 140.5398974360624  180.26672084742742 142.57736105956195  182.24992375026383 142.57736105956195  C 183.02678883075026 142.57736105956195  183.76288832806583 142.25237661143322  184.37376181240745 141.63807226764584  C 185.05853817282681 140.957084073396  185.4368403435994 140.2584316877772  185.66690957796186 139.66200546155184  C 185.95818821340268 140.07402730936744  186.4028870226332 140.44011614744662  187.10825976676534 140.44011614744662  C 187.42254532564243 140.44011614744662  187.74711381979537 140.3582129763929  188.0742759326381 140.19187008085365  C 191.4042077118433 138.51267170894462  190.6043357079206 136.23719991523376  190.2823608324574 135.5818828641501  C 190.15713481948347 135.32850256892382  190.01912379202707 135.05975014868272  189.96285752303976 134.90868769550428  C 190.05491572994586 134.7499850211453  190.27726513456105 134.44798235832718  190.4970514336476 134.1638578130712  C 190.71937032510186 133.85919635328221  190.86757274835094 133.5597913656654  190.9314367944412 133.2576970201931  C 192.91979642149607 132.96339570032478  194.23589008416457 132.18265677834398  194.89784260011407 131.68610352338857  C 195.2326330032208 131.72962222323204  195.68499061587633 131.77057380875888  196.17817483802494 131.77057380875888  C 196.79414402026288 131.77057380875888  197.35641003904223 131.70664043792144  197.8470311556621 131.58626111300327  C 199.34980433767137 131.20742838599523  199.75617861661553 130.6673564311964  200.2902504745792 129.82525125269467  C 200.366960561474 129.704933049546  200.4462032407365 129.5744075109004  200.54836130395208 129.42594273292326  C 200.90621965681714 128.87813887428982  200.98793390212518 128.84241320005034  201.74957291524467 128.48653169746814  C 201.94385021168836 128.39695774434935  202.16363651077498 128.29460934141696  202.41665164225157 128.1691874705198  C 203.77360242757405 127.47545538734111  204.69625939158615 125.6171702309639  204.44574633931617 124.10446755901769  C 204.2439017789306 122.9013772101853  203.35197156810187 122.0771807101304  202.05619967069666 121.89292913614437  C 199.6461786710086 121.53964530876351  199.49034795749543 120.90486517221261  199.3728112611076 120.44409871326619  C 199.33445621766026 120.29056082842521  199.34470863977506 120.23420655699873  199.34721071898161 120.23420655699873  C 199.36002624662515 120.19588320755787  199.4597127437952 120.0678942223441  199.5312355933105 119.97828970834058  C 199.7893464226835 119.65318301667304  200.1726832650303 119.16430054378269  200.37715195726676 118.35287849354145  C 200.64804780112212 117.28294191944072  200.47168173021828 116.16951720638127  199.91207035645078 115.4553704522086  C 199.52873351410392 114.95365240773533  198.98691131323207 114.67982688063044  198.39907526548774 114.67982688063044  C 197.99529460523337 114.67982688063044  197.59664015603636 114.81032185839132  197.22099263027567 115.06119616107033  C 197.05225484963577 115.17634957470105  196.88107601611154 115.30183256736765  196.70208581335683 115.43492522032996  C 196.5973951577736 115.51169416275043  196.45938413031726 115.614134248337  196.31884051049315 115.71388497606807  C 196.29061583651634 115.20458783218375  196.4081830460652 114.68746710181077  196.93224658720243 114.50828863468845  C 197.1212145936224 114.44683069551351  197.3384683003413 114.421312356771  197.55825459942787 114.38800099242452  C 198.48091156343997 114.24977411082911  199.87624790537106 114.04761385839615  200.91134586787456 112.32495790841304  C 201.30737618522073 111.66710430389743  201.71375046416495 110.79425487536588  201.32788102945037 109.93683869361868  C 200.90365655128846 108.99486054384703  199.91969864671483 108.80795017289016  198.8744398015796 108.61602781683897  C 198.8744398015796 108.61602781683897  198.4450891123602 108.53666119921716  198.4450891123602 108.53666119921716  C 198.13840133058608 108.47523382092693  197.8470311556621 108.37542197142639  197.59664015603636 108.26280511122755  C 198.8182650720754 107.82251444504448  199.1401789212165 107.5409264532204  199.76630898608613 106.63999157162975  C 199.87624790537106 106.48636200413456  200.00409805019575 106.3021409910332  200.1726832650303 106.07687670975082  C 200.40021990702513 105.77221524996189  200.56377045028543 105.74920290376663  200.75792569408486 105.74920290376663  C 201.08252470139888 105.74920290376663  201.514469009308 105.87208822123185  201.97189180669892 106.00774798851076  C 202.1763604989353 106.06657769159966  202.38589437590707 106.12806619165937  202.59805238472956 106.17919455179849  C 202.92512295808916 106.26112828373691  203.21145846143892 106.3021409910332  203.46694515896098 106.3021409910332  C 205.09238124841548 106.3021409910332  205.41691922940737 104.92240872851038  205.63420344928738 104.0085771535673  C 205.63420344928738 104.0085771535673  205.72110493197493 103.64261055902693  205.72110493197493 103.64261055902693  C 205.85136561652305 103.44812108865914  206.32673015261494 103.34824811738918  206.63845260596332 103.27404628928531  C 207.1138476552162 103.1716673254682  207.7042162953282 103.04370890113921  208.34572499337008 102.78773093071169  C 208.6395972475006 102.67254695619619  208.9054279066207 102.5291552850828  209.14816010282138 102.36797717906144  C 209.53656212990353 103.86524660422327  210.1040153860625 104.23646967093568  210.82214263151604 104.23646967093568  C 210.82214263151604 104.23646967093568  211.10582348985398 104.23646967093568  211.10582348985398 104.23646967093568  C 211.10582348985398 104.23646967093568  211.4405528666385 104.08803545384328  211.4405528666385 104.08803545384328  C 212.30956769351414 103.65538500884054  212.45267441886696 102.67768118482942  212.60337892132262 101.6460985210543  C 212.7183525121817 100.85774993877774  212.8512983549029 99.95925992796484  213.25764212068594 99.28612588108841  C 213.49790275084106 98.89192102906541  213.69971679806562 98.49517962361054  213.8965572000381 98.11124322885398  C 214.51255689543714 96.90311033404254  214.9545705464947 96.03026090551099  216.37800950975839 95.42616389722052  C 216.64130757651074 95.31605302956886  217.23674140135805 95.18039326229005  218.6116949517037 95.18039326229005  C 219.50875137358975 95.18039326229005  220.51321412239307 95.23677809460122  221.52002638459768 95.28790645474032  C 222.56784833526163 95.33912649753363  223.61573131224773 95.39548076896011  224.55099021177594 95.39548076896011  C 226.49849271617683 95.39548076896011  227.63059201767746 95.15484436266286  228.33849735417726 94.59429661510053  C 230.35489857624262 92.98165985011495  230.19909837589057 92.0166999150327  229.61635802604258 89.79752127097899  C 229.61635802604258 89.79752127097899  229.414513465657 89.01934946331467  229.414513465657 89.01934946331467  C 228.8675345405667 86.81037815475797  228.31045575916679 85.46912204609954  227.7686030451339 84.1713540763998  C 227.63324666268934 83.84377195306979  227.4977682276006 83.51866526140212  227.36228979251183 83.18081468080563  C 227.24478360928507 82.88391568573604  227.14762970448268 82.59976057959523  227.06063668231195 82.3361118271026  C 226.72075058130895 81.31482818147857  226.2531669012864 79.91468124796177  224.6789013829228 79.91468124796177  C 224.3082580155753 79.91468124796177  223.91469926427462 80.00431632285002  223.47259407373386 80.1783300004544  C 223.47259407373386 80.1783300004544  223.3089519909904 80.24745872169449  223.3089519909904 80.24745872169449  C 223.10204224586948 80.32673365666213  222.95890500735567 80.38825271760658  222.84902711439292 80.42923486401813  C 222.84902711439292 80.42923486401813  222.77488013302678 80.39846005310362  222.77488013302678 80.39846005310362  C 222.4477485333451 80.26790395357325  221.90342425326668 80.04780446180875  220.87088939629186 79.7866617018633  C 219.84604385590305 79.5332814066371  219.8205348532602 79.35416406128422  219.63147530735708 78.17414718041658  C 219.52666259912962 77.52142780453418  219.39627986193724 76.71263399037896  219.00531472932644 75.8039366440691  C 217.94476879050205 73.31337734368812  216.7179261239225 72.2152941947589  214.48179962909268 71.7545277358124  C 214.0575446377697 71.6674903361255  213.97576936613956 71.54212958699779  213.75851565942065 71.20932155238035  C 213.49533964531236 70.80747647917704  213.00972268710578 70.05491469290935  211.9056649806155 70.05491469290935  C 211.26937403311427 70.05491469290935  210.93455311684642 70.17526345694273  210.60739100400374 70.28788031714156  C 210.26750490300066 70.40300316988755  209.80239278902366 70.56430351944778  208.4249371594715 70.73321352930367  C 207.829411795141 70.81004359349365  207.2824938963728 70.84589151127193  206.7893401873853 70.84589151127193  C 205.3249525619845 70.84589151127193  204.33333585398577 70.51562003008638  203.84256217156064 69.86293121508871  C 202.82793854012567 68.50893121750147  201.6804911186138 67.93047479149239  200.00150443150596 67.93047479149239  C 199.5363618043679 67.93047479149239  199.00476151244982 67.97396293045107  198.38113352678678 68.06347576180048  C 198.38113352678678 68.06347576180048  198.11283130162118 68.1019213547801  198.11283130162118 68.1019213547801  L 197.98766631496932 68.18385508671852  L 197.64771918764413 68.33996008587609  C 197.64771918764413 68.33996008587609  197.45862912858 68.69070735982513  197.45862912858 68.69070735982513  C 196.70208581335683 70.09326860323488  195.97633027763925 71.26564526292218  195.51375075602988 71.82879068568572  C 194.10559888645543 73.53604394976917  194.70872202788877 75.26643180358687  195.14576203369424 76.53082728717058  C 195.14576203369424 76.53082728717058  195.2991211811618 76.97622162110213  195.2991211811618 76.97622162110213  C 195.69008631377272 78.12032946242202  196.66119817754176 78.586199589117  197.30526998111236 78.88832449547397  C 197.51224075255536 78.99070345929115  197.86237927567333 79.15447924051377  197.92624332176354 79.24918742226578  C 198.05659554579486 80.00682231539717  197.4790424333264 80.97437992568075  196.33925381523963 81.91886406799958  C 194.97705476621553 83.0707343740387  194.75208122974936 83.50589081158859  194.18481105255685 84.847146920247  C 194.18481105255685 84.847146920247  194.00594290244638 85.26690067189713  194.00594290244638 85.26690067189713  C 193.668619906972 86.05020670819462  193.63282796905327 86.64657181265058  193.6047253477207 87.04584977153728  C 193.59956862350225 87.14572274280724  193.58931620138745 87.28138251008616  193.57656170006595 87.32743776336144  C 193.5689028966409 87.32743776336144  193.47687520289594 87.42468249854534  193.1754051716624 87.59619018360256  C 193.0654662523776 87.66272122964132  193.0143261944477 87.66785545827454  193.0143261944477 87.66785545827454  C 192.9938823765401 87.63711120824475  192.77409607745355 87.43495095581177  192.4495275833006 86.49303392780962  C 192.08922817755104 85.346267289519  191.02346448818616 84.10482303036103  189.54116563724548 84.10482303036103  C 188.4116294412735 84.10482303036103  187.69350219581992 85.0160874909876  187.1133554646617 85.75064891615425  C 186.93189369586153 85.98364510127118  186.73770793890097 86.22678750011566  186.56393548668692 86.40339885292133  C 186.38753890262203 86.22678750011566  186.10898425534157 85.86329633723776  185.66425493294997 85.12360068343789  C 185.1480332742042 84.26862937246842  184.2714511833867 83.79255191027652  183.1904614266548 83.79255191027652  C 182.31638141504388 83.79255191027652  181.3043514022987 84.10482303036103  180.26672084742742 84.70121869570166  C 179.81180012924315 84.964898009079  179.52052149380233 85.00074592685735  179.29567000998046 85.00074592685735  C 178.98385601714892 85.00074592685735  178.62859128297367 84.91878163403426  178.1813293682144 84.81646379198659  C 177.76479420663856 84.72423104189697  177.31246710714404 84.61928496376329  176.78849510548997 84.5502479251773  C 175.74582987904455 84.42733204682732  175.0072893288445 82.69706643654857  174.46540610165047 81.43257927031063  C 174.46540610165047 81.43257927031063  174.3887875542388 81.26363869957002  174.3887875542388 81.26363869957002  C 173.50445512051311 79.19035771917683  172.11177342359392 78.3046421581775  169.73745282234137 78.3046421581775  C 169.0014143513479 78.3046421581775  168.26034120878026 77.27568773048839  167.60098231152054 76.3695880593798  C 167.15631401545107 75.75011892607442  166.73721574834656 75.17166250006534  166.2361896438066 74.77492109461048  C 165.75826200218611 74.38585047122069  165.1935244173612 74.18619621133496  164.5750226427555 74.18619621133496  C 163.50678738734507 74.18619621133496  162.57650213306894 74.78259187667562  161.75615579807774 75.30991994254553  C 161.6105164803573 75.40203044909623  161.46744026816557 75.49927518428012  161.32689664834157 75.58374546965044  C 160.86169299488134 75.86533346147459  159.00121402581226 75.92162661113164  157.88696492352943 75.95490741459344  C 157.03589183535476 75.98311511119135  156.23089362037462 76.00609689650194  155.57153472311495 76.09056718187225  C 155.51523794096664 76.09829908570686  155.45653061909485 76.10334163168584  155.40029486326853 76.10334163168584  C 155.20858067235355 76.10334163168584  155.19838927656087 76.10334163168584  154.89426460031538 75.7015271193672  C 154.58248112064493 75.28171224594763  154.10971020324286 74.65717000577848  153.19477306897798 74.35256966775896  C 152.43572767454827 74.09915881164804  151.5847461258567 73.33889568243065  150.66977847843071 72.10264677367539  C 150.5139172517565 71.8953522926092  150.3247966795313 71.46016529417466  150.1586525175812 71.0813325671666  C 149.69613402229402 70.02423156464894  149.12108298903212 68.7085549165025  147.82528057846588 68.70604892395527  C 147.68995470918242 68.70604892395527  147.54931954987515 68.72389648063265  147.41396316743064 68.75726896674855  C 146.5960883984849 68.96450232604523  145.1317007730841 69.17182736799607  143.92283035836647 69.17182736799607  C 143.67753505663705 69.17182736799607  143.40670023910377 68.96966711556323  142.98754094567715 68.64459098478027  C 142.42530544005882 68.21197110066234  141.66110332141065 67.61300832100515  140.57748943282797 67.61300832100515  C 139.19231397352866 67.61300832100515  136.9407783323656 68.322081968314  134.93722315110475 68.97987445106016  C 134.80940351944108 69.02599082610494  134.74038274913235 69.03363104728533  134.6586074775022 69.03363104728533  C 134.00947048919627 69.03363104728533  132.89009517585603 68.49352853160183  131.7323953322293 67.62324621738681  C 130.94012110540956 67.02950934901696  130.56450409280995 66.60963335382795  130.41111443218125 65.71380213998573  C 130.46735018800757 65.50647709803489  130.86087842614705 65.26837724516953  131.12164390053186 65.11483936032857  C 131.45387119810988 64.91515453955805  131.82698613150296 64.69242681170756  132.20272519674685 64.39302182409075  C 133.76420570062794 63.13116289393886  132.8593989358336 61.172974205407  132.3201703536515 60.003256342690456  C 132.1719374172414 59.67811909013812  132.02120240162463 59.36334197750639  131.92407900998325 59.06894897498391  C 131.32608207960726 57.2592556253139  129.17929812034947 56.1100135553609  127.43388428162268 55.81054744597459  C 126.32207623222432 55.62110052158584  124.70692307804563 55.2550728052761  123.54156443099389 54.29008230930915  C 123.46750898911097 54.22865493101882  123.40611650906624 54.172392342246525  123.35506799061945 54.12364773111566  C 123.54666012889024 53.97270752147612  123.78689024588435 53.81397428623244  123.89173346727284 53.74230901156049  C 124.3746347541455 53.41976943420942  124.64305903195537 53.394220534582225  124.85259290892711 53.394220534582225  C 125.03152208535964 53.394220534582225  125.20791866942453 53.41726344166232  125.39182149110918 53.43773923442568  C 125.68834839025166 53.47358715220412  125.99497514570372 53.50940450909775  126.33742435223543 53.50940450909775  C 127.69702978256984 53.50940450909775  128.30277705585408 52.191160746634615  128.93656592414885 50.7987457169523  C 129.3710123112645 49.85679812806542  129.85910083551667 48.78429443964806  130.57216289623494 47.98058901279898  C 131.5075133352464 46.925994002828496  132.15918291591993 46.10693173140682  132.03142431057836 45.17008781026838  C 131.91648123288036 44.3177294549426  131.26984632378102 43.8979298619653  130.64368574575028 43.493487113560626  C 130.64368574575028 43.493487113560626  130.34471779372333 43.29384813411722  130.34471779372333 43.29384813411722  C 129.1230623645233 42.48756031250923  128.85723170540317 42.19578026563038  128.30521810873856 41.074623648736434  C 127.50534610481589 39.47485301621858  127.05042538663162 39.0601723714322  125.25374943733074 38.2846593607387  C 124.80917268074438 38.09525827767703  124.60979968640436 37.95185132612123  124.52552233556754 37.880216612333975  C 124.54840720635964 37.81614571751535  124.59448207955418 37.71381259502525  124.69151393171232 37.55514048155108  C 125.29216550710022 36.54661600529826  125.37906698978777 35.38964203151072  124.92411575844243 34.45539578557354  C 124.49226299001656 33.56208584472095  123.62330918946297 32.99635802719841  122.48098797900855 32.85305803873919  C 121.56858343711126 32.73532223034945  120.95526889988511 32.61755586107504  120.35461732449726 32.50237188655964  C 119.79497543756867 32.394858694109246  119.2429618409041 32.289912615975574  118.49410784226718 32.18753365215839  C 118.49410784226718 32.18753365215839  118.47372505068176 32.185012379168896  118.47372505068176 32.185012379168896  C 118.47372505068176 32.185012379168896  118.45828539118736 32.185012379168896  118.45828539118736 32.185012379168896  C 118.43790259960193 32.13382289726031  118.41748929485544 32.054440999196224  118.40217168800531 31.998132569096725  C 118.29992208530662 31.598839329767685  117.98295136825664 30.382974531121608  116.54416428498178 30.382974531121608  C 115.64201216519932 30.382974531121608  115.1231968877637 30.70294699415606  114.706692239349 30.961476798457802  C 114.38981306178212 31.155966268825605  114.06017938289392 31.363337152103536  113.36746960059997 31.539933224466886  C 113.22689546761485 31.575811703129986  113.09663478306668 31.59370510113447  112.99429364088482 31.59370510113447  C 112.75415506337384 31.59370510113447  112.61101782486003 31.504131148015638  112.23277668040953 31.245570782829127  C 111.79579770092617 30.943568120011015  111.19264404633172 30.52885691433985  110.26748500311301 30.398331375694177  C 110.06307733719875 30.367648247433763  109.8790219497088 30.354812675850724  109.71290830091979 30.354812675850724  C 108.60375489653319 30.354812675850724  108.01085366405354 30.882125461278413  107.61982750512064 31.23793056164877  C 107.3897887839192 31.43758482153449  107.31570282887516 31.496399244181124  107.19044630274023 31.5220398264624  C 107.22626875381995 31.514353763954965  107.18541163116593 31.473402178428117  107.13939778429344 31.43758482153449  C 106.87869333623075 31.22257371707623  106.43909022489665 30.85909783464071  105.75672440420068 30.85909783464071  C 105.37085496948617 30.85909783464071  104.99014225899015 30.976818362588034  104.58883316478129 31.214841813241602  C 104.21062253349184 31.44268848928301  103.96013999438293 31.473402178428117  103.78374341031804 31.473402178428117  C 103.41578520114342 31.473402178428117  102.96846226006208 31.309595836320728  102.54432932138332 31.135551597831626  C 101.94633239100737 30.905122527031303  100.81160895765588 30.249881878159435  99.80973982754226 29.671456013035048  C 99.0379704449522 29.226031118218753  98.28408177474097 28.790905241553695  97.72187678228369 28.506734854970478  C 97.17239577798676 28.232924608307975  96.69700072873388 28.104920342651827  96.22935602238923 28.104920342651827  C 95.57252971749722 28.104920342651827  95.0741887711302 28.355733523561437  94.54252745289 28.621918829485974  C 94.253842436139 28.77042944879021  93.90114080749234 28.952129188902056  93.4232131658718 29.128755822150097  C 92.59520802745547 29.438475108360425  91.95366881625253 29.584388052463442  91.39915314038142 29.584388052463442  C 91.01587732435662 29.584388052463442  90.66824088044531 29.512722777791378  90.27468212914475 29.361706165939943  C 89.67406106691793 29.11598137233656  89.25752590534208 28.214985368976407  89.25752590534208 27.12455772166999  C 89.25752590534208 27.12455772166999  89.25752590534208 22.665632958144858  89.25752590534208 22.665632958144858  C 89.25752590534208 20.96346808136755  87.49407878843121 18.62140411984853  86.68911108661213 17.81256446436621  C 86.64053413421095 17.674368143655432  86.77344946377099 17.152143745533962  86.84756593197613 16.87058631459455  C 86.9957378420642 16.302352504524794  87.16185149085321 15.662453419783107  87.00086405312162 15.025136729800389  C 86.79386276851753 14.203461502735056  86.03487840040988 13.473957903989735  85.07133380058275 12.55506850262522  C 84.49124809574658 11.991938360303983  83.82932609295827 11.35966421630032  83.49450517669044 10.857961452269327  C 83.35396155686638 10.648084576444262  83.26196437628246 10.491964296844307  83.1955067115025 10.376795602771201  C 83.3590877679238 10.33581345635966  83.60191150360765 10.292310036958593  83.95458261909319 10.259059794381571  C 85.50828226690504 10.115713964595242  86.47698359095065 9.071372131448799  86.40796282064193 7.596992808943401  C 86.3415051558619 6.153357736467918  85.2323822646364 4.538214978935106  83.8421416206018 4.538214978935106  C 83.52526244303492 4.538214978935106  83.32839152790145 4.489592611343126  83.05749568404603 4.4204791705453905  C 82.75086892859407 4.3437102281249125  82.37000365229271 4.248971485488176  81.84871680881156 4.248971485488176  C 81.59820375654165 4.248971485488176  81.31192927951396 4.269462558694046  80.9696021256264 4.3283533835523444  C 80.9696021256264 4.3283533835523444  80.96444540140793 4.3283533835523444  80.96444540140793 4.3283533835523444  C 80.66029021200146 4.3283533835523444  80.09555262717653 3.6961250808757624  79.72497028615109 3.273758373581856  C 79.36973606513683 2.874465134252732  79.00165580331806 2.4623668842253443  78.56974200856996 2.114232565920001  C 77.59353444690457 1.3335700461509854  76.35656141085427 1.1032020971200505  75.15794341825146 0.8830873249132734  C 74.66982438083821 0.7934980913521424  74.1766096455286 0.7013111825896248  73.7063713204942 0.5682643709544242  C 73.34610242790575 0.46839139968447063  72.93716504343283 0.41718663733357886  72.44904600601959 0.41718663733357886  C 71.60816431363762 0.41718663733357886  70.61914122432864 0.5682643709544242  69.66594058609945 0.7141314737303627  C 68.75097293867344 0.8548796283152745  67.80793318307592 0.9982560189863803  67.06426642181844 0.9982560189863803  C 66.90321795776474 0.9982560189863803  66.74991983661927 0.9931370707954674  66.6093151904731 0.9751978314639873  C 66.4330406590525 0.9572738725748396  66.26942908947004 0.9496030905097076  66.11872458701431 0.9496030905097076  C 65.96536543954673 0.9496030905097076  65.81963458234314 0.9572738725748396  65.6791214756802 0.9751978314639873  C 65.6791214756802 0.9751978314639873  65.37499679943474 0  65.37499679943474 0  Z " fill-rule="nonzero" fill="#efebdf" stroke="none" transform="matrix(1 0 0 1 3059 474 )" />
  </g>
</svg>