<?xml version="1.0" encoding="utf-8"?>
<svg version="1.1" xmlns:xlink="http://www.w3.org/1999/xlink" width="9px" height="20px" xmlns="http://www.w3.org/2000/svg">
  <g transform="matrix(1 0 0 1 -3140 -570 )">
    <path d="M 9.000000000000059 4.8546656593496555  L 9.000000000000059 19.709450763400948  L 6.963422116859632 19.709450763400948  C 6.963422116859632 19.709450763400948  6.963422116859632 18.08530143363503  6.963422116859632 18.08530143363503  C 5.942058290336134 19.08120149425327  4.440824152837819 20  3.4254845907125926 20  C 1.2580672151722798 20  0 18.85580934236739  0 16.117240946838148  C 0 16.117240946838148  0 4.8546656593496555  0 4.8546656593496555  L 2.16133035838801 4.8546656593496555  C 2.16133035838801 4.8546656593496555  2.16133035838801 15.826751432589889  2.16133035838801 15.826751432589889  C 2.16133035838801 17.545859300113825  2.703012132199194 18.286804645204445  3.8741040301213805 18.286804645204445  C 4.9266559754567005 18.286804645204445  5.879619299958165 17.59321912429117  6.844882164272765 16.44923749488633  C 6.844882164272765 16.44923749488633  6.844882164272765 4.8546656593496555  6.844882164272765 4.8546656593496555  L 9.000000000000059 4.8546656593496555  Z M 1.5321712452936018 2.910568765807788  L 1.5321712452936018 0  L 3.512773671733429 0  L 3.512773671733429 2.910568765807788  L 1.5321712452936018 2.910568765807788  Z M 5.487289081020778 2.910568765807788  L 5.487289081020778 0  L 7.480191047273741 0  L 7.480191047273741 2.910568765807788  L 5.487289081020778 2.910568765807788  Z " fill-rule="nonzero" fill="#efebdf" stroke="none" transform="matrix(1 0 0 1 3140 570 )" />
  </g>
</svg>