<?xml version="1.0" encoding="utf-8"?>
<svg version="1.1" xmlns:xlink="http://www.w3.org/1999/xlink" width="13px" height="21px" xmlns="http://www.w3.org/2000/svg">
  <g transform="matrix(1 0 0 1 -2954 -609 )">
    <path d="M 12.766776569454281 10.963949149234296  L 2.8815005070100685 10.963949149234296  C 2.8815005070100685 10.963949149234296  2.8815005070100685 12.093479356441845  2.8815005070100685 12.093479356441845  C 2.8815005070100685 17.038813909385716  4.05571646295186 18.660525403534734  6.787239132678744 18.660525403534734  C 8.985914227249818 18.660525403534734  9.91020395771475 16.691647318944646  10.276718217753247 14.852520835821592  C 10.276718217753247 14.852520835821592  13.000000000000057 15.167050708024668  13.000000000000057 15.167050708024668  C 12.558512608460664 18.208627676030286  10.193362114505346 21.000000000000057  6.370805933536137 21.000000000000057  C 1.9987309567614209 21.000000000000057  0 17.813194223940293  0 10.504006944788408  C 0 3.1868057760597064  1.9987309567614209 0  6.370805933536137 0  C 10.793005082244902 0  12.766776569454281 3.8080351550779397  12.766776569454281 9.648998336629973  C 12.766776569454281 9.648998336629973  12.766776569454281 10.963949149234296  12.766776569454281 10.963949149234296  Z M 2.8815005070100685 8.632457854980935  C 2.8815005070100685 8.632457854980935  9.868652203216934 8.632457854980935  9.868652203216934 8.632457854980935  C 9.785296099969033 4.283729852394117  8.985914227249818 2.339811057478028  6.370805933536137 2.339811057478028  C 4.288939893497549 2.339811057478028  2.9313720846919677 3.8080351550779397  2.8815005070100685 8.632457854980935  Z " fill-rule="nonzero" fill="#efebdf" stroke="none" transform="matrix(1 0 0 1 2954 609 )" />
  </g>
</svg>