<?xml version="1.0" encoding="utf-8"?>
<svg version="1.1" xmlns:xlink="http://www.w3.org/1999/xlink" width="9px" height="15px" xmlns="http://www.w3.org/2000/svg">
  <g transform="matrix(1 0 0 1 -3174 -575 )">
    <path d="M 0 15  L 0 0.2818412682758175  L 2.0414297658862877 0.2818412682758175  C 2.0414297658862877 0.2818412682758175  2.0414297658862877 1.8970290194531148  2.0414297658862877 1.8970290194531148  C 3.0623954849498327 0.9044897556646149  4.556030518394649 0  5.576745401337851 0  C 7.742746655518395 0  9 1.12760176532952  9 3.8469143716561063  C 9 3.8469143716561063  9 15  9 15  L 6.840175585284281 15  C 6.840175585284281 15  6.840175585284281 4.128726053403656  6.840175585284281 4.128726053403656  C 6.840175585284281 2.4373529919377264  6.304985367892977 1.697364333440201  5.128532608695652 1.697364333440201  C 4.076745401337851 1.697364333440201  3.1183632943143813 2.3727508074656676  2.159855769230828 3.5063142582410807  C 2.159855769230828 3.5063142582410807  2.159855769230828 15  2.159855769230828 15  L 0 15  Z " fill-rule="nonzero" fill="#efebdf" stroke="none" transform="matrix(1 0 0 1 3174 575 )" />
  </g>
</svg>