<?xml version="1.0" encoding="utf-8"?>
<svg version="1.1" xmlns:xlink="http://www.w3.org/1999/xlink" width="11px" height="20px" xmlns="http://www.w3.org/2000/svg">
  <g transform="matrix(1 0 0 1 -3189 -575 )">
    <path d="M 11 0  C 11 0  11 1.8789701691873717  11 1.8789701691873717  C 10.765286746260337 1.8316846096477493  10.57509523367091 1.8316846096477493  10.365964415125895 1.8316846096477493  C 9.782550752578336 1.8316846096477493  9.383164545201153 2.0569591667468914  8.990006271485646 2.394796348844102  C 9.294376567871412 3.3194850995244103  9.478052703707146 4.054509037185708  9.478052703707146 5.25787949573019  C 9.478052703707146 8.962681436125301  7.6460501254297135 10.569016835122378  5.198855453869739 10.569016835122378  C 4.710745145405556 10.569016835122378  4.2225709606986905 10.456469140834672  3.734556466598532 10.456469140834672  C 3.3666293087429158 10.545277005735688  2.6310943742451585 10.859538596259464  2.6310943742451585 11.42260554332487  C 2.6310943742451585 12.483671401941468  4.4317975936077305 12.543006044698124  6.479446367183871 12.940192800262212  C 8.780875452940629 13.39662461432109  10.822424045340519 14.084183823919147  10.822424045340519 16.508632563431256  C 10.822424045340519 18.452879798077074  8.806266259407288 20.000000000000057  5.439636950664313 20.000000000000057  C 1.8387734600019179 20.000000000000057  0 18.737399413671007  0 16.799214047409542  C 0 15.483191379605097  0.8876242683266746 14.40426839146232  2.3269476447087243 13.823433899132574  C 1.3821541391805259 13.538854560697471  0.6150643407971754 12.821583237590183  0.6150643407971754 11.819792298888958  C 0.6150643407971754 10.711336365760625  1.6548098810741094 10.023717433321313  2.700783355012543 9.851685789173919  C 1.4453596813156182 9.033691894341391  0.8053197296292856 7.1369243184690925  0.8053197296292856 5.601554585557076  C 0.8053197296292856 2.0569591667468914  2.6310943742451585 0  5.407954334293413 0  C 6.454247189445322 0  7.798139459258571 0.4327815689339697  8.318219827185729 1.3691909272045475  C 8.806266259407288 0.5690093697672804  9.662303725727028 0  11 0  Z M 8.806266259407288 16.34851562610814  C 8.806266259407288 14.967424922789565  6.04828172907182 14.736178081567964  4.158982161107498 14.339110771686352  C 2.878423185914767 14.848815360117536  2.022449595837592 15.542436438099887  2.022449595837592 16.366342894213734  C 2.022449595837592 17.599380674136558  3.119204682709282 18.452879798077074  5.503066059648797 18.452879798077074  C 7.950196854966147 18.452879798077074  8.806266259407288 17.540135615641766  8.806266259407288 16.34851562610814  Z M 2.8149940769302235 5.281559602275739  C 2.8149940769302235 8.114945566362929  3.854803493449782 9.033691894341391  5.13552215924928 9.033691894341391  C 6.422436820589056 9.033691894341391  7.455762798476261 8.114945566362929  7.455762798476261 5.281559602275739  C 7.455762798476261 2.4599987607511  6.422436820589056 1.541192709931358  5.13552215924928 1.541192709931358  C 3.854803493449782 1.541192709931358  2.8149940769302235 2.4599987607511  2.8149940769302235 5.281559602275739  Z " fill-rule="nonzero" fill="#efebdf" stroke="none" transform="matrix(1 0 0 1 3189 575 )" />
  </g>
</svg>