<?xml version="1.0" encoding="utf-8"?>
<svg version="1.1" xmlns:xlink="http://www.w3.org/1999/xlink" width="12px" height="21px" xmlns="http://www.w3.org/2000/svg">
  <g transform="matrix(1 0 0 1 -2972 -609 )">
    <path d="M 11.531052278606301 4.832406002114898  C 11.531052278606301 4.832406002114898  9.194208156356757 5.526372134619362  9.194208156356757 5.526372134619362  C 8.684730303707752 3.7757348978527667  7.948826366046022 2.339811057478028  5.684611503209587 2.339811057478028  C 4.358598665091176 2.339811057478028  3.428536390636534 3.3804237952219625  3.428536390636534 4.735535817804177  C 3.428536390636534 8.874465085251355  11.999999999999972 9.10032218690919  11.999999999999972 15.39309133387134  C 11.999999999999972 18.588033348966874  9.663079232267748 21.000000000000057  6.460953597547373 21.000000000000057  C 2.8060524382844756 21.000000000000057  0.9703011528758023 19.015277660445292  0 15.626931737741021  C 0 15.626931737741021  2.5713792993325173 15.094313954538492  2.5713792993325173 15.094313954538492  C 3.1536550314565837 16.877373797989392  4.2050164468431355 18.660525403534734  6.2668412480439155 18.660525403534734  C 7.795213489604928 18.660525403534734  9.194208156356757 17.27289901217377  9.194208156356757 15.594631480515849  C 9.194208156356757 10.931618304644383  0.622637243317472 10.850837074216601  0.622637243317472 4.896822992376463  C 0.622637243317472 2.2588157154967243  2.8060524382844756 0  5.878769840002583 0  C 8.999957844984483 0  10.859959761121637 1.7911349077573042  11.531052278606301 4.832406002114898  Z " fill-rule="nonzero" fill="#efebdf" stroke="none" transform="matrix(1 0 0 1 2972 609 )" />
  </g>
</svg>