<?xml version="1.0" encoding="utf-8"?>
<svg version="1.1" xmlns:xlink="http://www.w3.org/1999/xlink" width="12px" height="21px" xmlns="http://www.w3.org/2000/svg">
  <g transform="matrix(1 0 0 1 -2990 -609 )">
    <path d="M 11.523355430707308 4.832406002114898  C 11.523355430707308 4.832406002114898  9.195877709992073 5.526372134619362  9.195877709992073 5.526372134619362  C 8.68686450901323 3.7757348978527667  7.943381702455222 2.339811057478028  5.688989992991676 2.339811057478028  C 4.355518790427308 2.339811057478028  3.4263720860763565 3.3804237952219625  3.4263720860763565 4.735535817804177  C 3.4263720860763565 8.874465085251355  12 9.10032218690919  12 15.39309133387134  C 12 18.588033348966874  9.656667317715813 21.000000000000057  6.464626967987503 21.000000000000057  C 2.8040150583837895 21.000000000000057  0.9697721710957158 19.015277660445292  0 15.626931737741021  C 0 15.626931737741021  2.569713959642641 15.094313954538492  2.569713959642641 15.094313954538492  C 3.1514761581972546 16.877373797989392  4.201993742268792 18.660525403534734  6.262679182129084 18.660525403534734  C 7.789887291903602 18.660525403534734  9.195877709992073 17.27289901217377  9.195877709992073 15.594631480515849  C 9.195877709992073 10.931618304644383  0.6223723464960151 10.850837074216601  0.6223723464960151 4.896822992376463  C 0.6223723464960151 2.2588157154967243  2.8040150583837895 0  5.882849450629411 0  C 8.994021836954373 0  10.868706365345831 1.7911349077573042  11.523355430707308 4.832406002114898  Z " fill-rule="nonzero" fill="#efebdf" stroke="none" transform="matrix(1 0 0 1 2990 609 )" />
  </g>
</svg>