<?xml version="1.0" encoding="utf-8"?>
<svg version="1.1" xmlns:xlink="http://www.w3.org/1999/xlink" width="10px" height="16px" xmlns="http://www.w3.org/2000/svg">
  <g transform="matrix(1 0 0 1 -3305 -403 )">
    <path d="M 2.421369728267552 4.800647412649491  C 2.421369728267552 4.800647412649491  0.4276404770687323 4.505631532450874  0.4276404770687323 4.505631532450874  C 0.8491331611951309 2.077518652074903  2.3081888601992455 0  5.094460838558957 0  C 7.9937599901635314 0  9.603836222796016 1.6596746225695034  9.603836222796016 4.382608107867115  C 9.603836222796016 4.382608107867115  9.603836222796016 12.975891952687025  9.603836222796016 12.975891952687025  C 9.603836222796016 14.334361970890813  9.761188983155048 15.348546654361877  10 15.698885522685233  C 10 15.698885522685233  7.723318578630272 15.698885522685233  7.723318578630272 15.698885522685233  C 7.723318578630272 15.698885522685233  7.452969383991147 14.402002322649238  7.452969383991147 14.402002322649238  C 6.6037440059018815 15.231696932769943  5.094460838558957 16  4.094337882700111 16  C 1.6354051395548999 16  0 14.451076501906309  0 12.023128854457045  C 0 8.236726209979102  4.270625845321529 6.312588777492271  7.4213082503381855 5.624243425654074  C 7.4213082503381855 5.624243425654074  7.4213082503381855 4.536394899184416  7.4213082503381855 4.536394899184416  C 7.4213082503381855 2.8459569098814264  6.54736874462068 1.7763591112346186  5.150989794663716 1.7763591112346186  C 3.4843846059265298 1.7763591112346186  2.6667896225255134 3.4053004094209336  2.421369728267552 4.800647412649491  Z M 7.4213082503381855 12.625553084363586  C 7.4213082503381855 12.625553084363586  7.4213082503381855 7.40689640928196  7.4213082503381855 7.40689640928196  C 5.427732693962868 8.003056809145642  2.1825279724579447 9.422978454940699  2.1825279724579447 11.84485754762414  C 2.1825279724579447 13.29546745427695  2.848979466371573 14.217557312824395  4.427947866715906 14.217557312824395  C 5.603928439690151 14.217557312824395  6.635282183696053 13.418460836510496  7.4213082503381855 12.625553084363586  Z " fill-rule="nonzero" fill="#efebdf" stroke="none" transform="matrix(1 0 0 1 3305 403 )" />
  </g>
</svg>