<?xml version="1.0" encoding="utf-8"?>
<svg version="1.1" xmlns:xlink="http://www.w3.org/1999/xlink" width="9px" height="16px" xmlns="http://www.w3.org/2000/svg">
  <g transform="matrix(1 0 0 1 -3322 -403 )">
    <path d="M 0 15.999999999999972  L 0 0.3069359698483519  L 2.0414349981917184 0.3069359698483519  C 2.0414349981917184 0.3069359698483519  2.0414349981917184 2.0234136465103907  2.0414349981917184 2.0234136465103907  C 3.0685254224111995 0.9710376924306368  4.5560482794285155 0  5.582986605196416 0  C 7.742602100310618 0  9 1.209066544702622  9 4.103379812977849  C 9 4.103379812977849  9 15.999999999999972  9 15.999999999999972  L 6.840445344266396 15.999999999999972  C 6.840445344266396 15.999999999999972  6.840445344266396 4.410300473535471  6.840445344266396 4.410300473535471  C 6.840445344266396 2.5935928704632785  6.304876276359507 1.8104307938728392  5.134630789458564 1.8104307938728392  C 4.082839576693109 1.8104307938728392  3.1244672329236254 2.5371168969598905  2.1723309256712335 3.7462906066976234  C 2.1723309256712335 3.7462906066976234  2.1723309256712335 15.999999999999972  2.1723309256712335 15.999999999999972  L 0 15.999999999999972  Z " fill-rule="nonzero" fill="#efebdf" stroke="none" transform="matrix(1 0 0 1 3322 403 )" />
  </g>
</svg>