<?xml version="1.0" encoding="utf-8"?>
<svg version="1.1" xmlns:xlink="http://www.w3.org/1999/xlink" width="9px" height="16px" xmlns="http://www.w3.org/2000/svg">
  <g transform="matrix(1 0 0 1 -3398 -404 )">
    <path d="M 9 0  L 9 15.69304930826059  L 6.960040938615721 15.69304930826059  C 6.960040938615721 15.69304930826059  6.960040938615721 13.976513679303533  6.960040938615721 13.976513679303533  C 5.93379901571678 15.029101949156086  4.440856873600335 15.999999999999972  3.414858150398746 15.999999999999972  C 1.25624803666911 15.999999999999972  0 14.797166638440244  0 11.896643348747846  C 0 11.896643348747846  0 0  0 0  L 2.158397313994454 0  C 2.158397313994454 0  2.158397313994454 11.595938835673287  2.158397313994454 11.595938835673287  C 2.158397313994454 13.406503948354207  2.699334240828557 14.18329587348432  3.868851185429636 14.18329587348432  C 4.92014267715578 14.18329587348432  5.884064677608401 13.462857339690533  6.842028285475911 12.253854345773066  C 6.842028285475911 12.253854345773066  6.842028285475911 0  6.842028285475911 0  L 9 0  Z " fill-rule="nonzero" fill="#efebdf" stroke="none" transform="matrix(1 0 0 1 3398 404 )" />
  </g>
</svg>