<?xml version="1.0" encoding="utf-8"?>
<svg version="1.1" xmlns:xlink="http://www.w3.org/1999/xlink" width="13px" height="21px" xmlns="http://www.w3.org/2000/svg">
  <g transform="matrix(1 0 0 1 -3008 -609 )">
    <path d="M 12.76689918658512 10.963949149234296  L 2.889818590744674 10.963949149234296  C 2.889818590744674 10.963949149234296  2.889818590744674 12.093479356441845  2.889818590744674 12.093479356441845  C 2.889818590744674 17.038813909385716  4.047649986277115 18.660525403534734  6.787377860250024 18.660525403534734  C 8.986008729212287 18.660525403534734  9.910391988749693 16.691647318944646  10.276896247701721 14.852520835821592  C 10.276896247701721 14.852520835821592  13.000000000000028 15.167050708024668  13.000000000000028 15.167050708024668  C 12.56704661651947 18.208627676030286  10.193570403258487 21.000000000000057  6.379400127756447 21.000000000000057  C 2.007082466038895 21.000000000000057  0 17.813194223940293  0 10.504006944788408  C 0 3.1868057760597064  2.007082466038895 0  6.379400127756447 0  C 10.801321768867723 0  12.76689918658512 3.8080351550779397  12.76689918658512 9.648998336629973  C 12.76689918658512 9.648998336629973  12.76689918658512 10.963949149234296  12.76689918658512 10.963949149234296  Z M 2.889818590744674 8.632457854980935  C 2.889818590744674 8.632457854980935  9.868808003478055 8.632457854980935  9.868808003478055 8.632457854980935  C 9.793786326177162 4.283729852394117  8.986008729212287 2.339811057478028  6.379400127756447 2.339811057478028  C 4.297311771806636 2.339811057478028  2.9315604499163563 3.8080351550779397  2.889818590744674 8.632457854980935  Z " fill-rule="nonzero" fill="#efebdf" stroke="none" transform="matrix(1 0 0 1 3008 609 )" />
  </g>
</svg>