<?xml version="1.0" encoding="utf-8"?>
<svg version="1.1" xmlns:xlink="http://www.w3.org/1999/xlink" width="11px" height="21px" xmlns="http://www.w3.org/2000/svg">
  <g transform="matrix(1 0 0 1 -3423 -403 )">
    <path d="M 11 0  C 11 0  11 1.9860830971466328  11 1.9860830971466328  C 10.765262807792912 1.9175114325954752  10.574955465860917 1.9175114325954752  10.365518174438531 1.9175114325954752  C 9.781853183909082 1.9175114325954752  9.382170560115451 2.160334544695769  8.982549945882566 2.5214046008589945  C 9.293496888247498 3.4802363895602584  9.477510259763687 4.264695014866721  9.477510259763687 5.5223239901931525  C 9.477510259763687 9.419771869729297  7.644135586723189 11.100789414199053  5.201734012807793 11.100789414199053  C 4.71331570758546 11.100789414199053  4.218448408045516 10.982435968771192  3.7301231171642466 10.982435968771192  C 3.362158383692613 11.0695692997861  2.6263219310904664 11.405763679991654  2.6263219310904664 11.997287475439453  C 2.6263219310904664 13.111763401784007  4.4341796698836475 13.167813548712449  6.476867615225038 13.591141259932911  C 8.773453707044286 14.070488689120342  10.822280598899612 14.7989123819791  10.822280598899612 17.345314374641344  C 10.822280598899612 19.387478047677835  8.80514059258591 20.99999999999997  5.442920199332552 20.99999999999997  C 1.8334366826013027 20.99999999999997  0 19.680022082732055  0 17.64412677574722  C 0 16.26834214324216  0.8878528907729774 15.122661316965422  2.328117953459006 14.51882900662479  C 1.3763642103364302 14.219910104153987  0.6088098674122846 13.466565091895463  0.6088098674122846 12.420691259063457  C 0.6088098674122846 11.25025647267482  1.6492682871832454 10.534293439515976  2.6897267069540907 10.353636695588643  C 1.4335990349058034 9.488237032915414  0.7931642915126401 7.502214793691642  0.7931642915126401 5.883500547721278  C 0.7931642915126401 2.160334544695769  2.6263219310904664 0  5.411202309010553 0  C 6.445118720122666 0  7.796338053576261 0.4483251030237694  8.316443244340219 1.4381944323694313  C 8.80514059258591 0.6038931682634909  9.66146162171913 0  11 0  Z M 8.80514059258591 17.164764132079135  C 8.80514059258591 15.726554485228913  6.051885090646704 15.477539079480504  4.155198656083759 15.06665681347919  C 2.8735230450076665 15.60202396063359  2.0171710110940744 16.324255359844205  2.0171710110940744 17.1959233885692  C 2.0171710110940744 18.484650762462888  3.114926264995097 19.387478047677835  5.4997519617570125 19.387478047677835  C 7.948633534770452 19.387478047677835  8.80514059258591 18.422484394289818  8.80514059258591 17.164764132079135  Z M 2.8102732930459093 5.547260524073684  C 2.8102732930459093 8.523243379527395  3.850545684134572 9.488237032915414  5.132004261747992 9.488237032915414  C 6.419756809777217 9.488237032915414  7.460029200865879 8.523243379527395  7.460029200865879 5.547260524073684  C 7.460029200865879 2.577530820190892  6.419756809777217 1.6249065396184794  5.132004261747992 1.6249065396184794  C 3.850545684134572 1.6249065396184794  2.8102732930459093 2.577530820190892  2.8102732930459093 5.547260524073684  Z " fill-rule="nonzero" fill="#efebdf" stroke="none" transform="matrix(1 0 0 1 3423 403 )" />
  </g>
</svg>