<?xml version="1.0" encoding="utf-8"?>
<svg version="1.1" xmlns:xlink="http://www.w3.org/1999/xlink" width="9px" height="18px" xmlns="http://www.w3.org/2000/svg">
  <g transform="matrix(1 0 0 1 -3139 -439 )">
    <path d="M 8.807582530023213 4.75665970521505  C 8.807582530023213 4.75665970521505  7.0451390758791534 4.75665970521505  7.0451390758791534 4.75665970521505  C 6.895494506973989 2.9574950794056782  6.163932495018579 1.5997565996063523  4.333179627335882 1.5997565996063523  C 2.865966126339598 1.5997565996063523  1.9078167914266275 2.5713598870141383  1.9078167914266275 3.9037967456465887  C 1.9078167914266275 7.858512252655647  9.000000000000057 7.90949111288066  9.000000000000057 13.531874934266868  C 9.000000000000057 16.323932869570417  7.391744978189455 18.000000000000057  4.4787347191555815 18.000000000000057  C 1.715187274489741 18.000000000000057  0.051466826431148686 15.980197424763793  0 13.048034015956247  C 0 13.048034015956247  1.7623525768754376 13.048034015956247  1.7623525768754376 13.048034015956247  C 1.813698233615165 15.106104541971543  2.789053664710001 16.39606652944093  4.6711521891324255 16.39606652944093  C 6.262504038989714 16.39606652944093  7.289023372287145 15.373364184082789  7.289023372287145 13.510614961611907  C 7.289023372287145 9.534594407800888  0.1967189940222952 9.072133659870488  0.1967189940222952 4.0735760325735555  C 0.1967189940222952 1.5997565996063523  1.9078167914266275 0  4.452895282460014 0  C 6.9937328342937155 0  8.657877376272282 1.6973571525158886  8.807582530023213 4.75665970521505  Z " fill-rule="nonzero" fill="#efebdf" stroke="none" transform="matrix(1 0 0 1 3139 439 )" />
  </g>
</svg>