<?xml version="1.0" encoding="utf-8"?>
<svg version="1.1" xmlns:xlink="http://www.w3.org/1999/xlink" width="8px" height="13px" xmlns="http://www.w3.org/2000/svg">
  <g transform="matrix(1 0 0 1 -3153 -444 )">
    <path d="M 1.9407960870805199 3.8953074513465924  C 1.9407960870805199 3.8953074513465924  0.3389296484673898 3.6552970823407436  0.3389296484673898 3.6552970823407436  C 0.6821803123734637 1.6886614232836665  1.8431531409881323 0  4.071986916925478 0  C 6.394172630568184 0  7.682225322950949 1.3475681584347112  7.682225322950949 3.5626240925686115  C 7.682225322950949 3.5626240925686115  7.682225322950949 10.54063927673893  7.682225322950949 10.54063927673893  C 7.682225322950949 11.65246166392727  7.800843198151566 12.473545844425914  8 12.755695210872748  C 8 12.755695210872748  6.178031837481864 12.755695210872748  6.178031837481864 12.755695210872748  C 6.178031837481864 12.755695210872748  5.961861037343832 11.698716147317851  5.961861037343832 11.698716147317851  C 5.283941726305738 12.376682812799299  4.071986916925478 12.999999999999973  3.2711887293514534 12.999999999999973  C 1.309177656749336 12.999999999999973  0 11.745075008975356  0 9.769999621485379  C 0 6.691526664059149  3.4194835786409805 5.125047457700994  5.936415057538578 4.573348672732896  C 5.936415057538578 4.573348672732896  5.936415057538578 3.680541711734783  5.936415057538578 3.680541711734783  C 5.936415057538578 2.3076543680010366  5.237250753927229 1.4443268117945147  4.118497846994043 1.4443268117945147  C 2.788195225878137 1.4443268117945147  2.135661880541927 2.762519943704557  1.9407960870805199 3.8953074513465924  Z M 5.936415057538578 10.258460087930088  C 5.936415057538578 10.258460087930088  5.936415057538578 6.017779862794222  5.936415057538578 6.017779862794222  C 4.334788675338705 6.497875156710805  1.7456902372057435 7.651761985435245  1.7456902372057435 9.626807550563298  C 1.7456902372057435 10.805939008681776  2.2796957284961965 11.55549425403376  3.538161467944967 11.55549425403376  C 4.487194490705372 11.55549425403376  5.309267677904363 10.90702190452491  5.936415057538578 10.258460087930088  Z " fill-rule="nonzero" fill="#efebdf" stroke="none" transform="matrix(1 0 0 1 3153 444 )" />
  </g>
</svg>