<?xml version="1.0" encoding="utf-8"?>
<svg version="1.1" xmlns:xlink="http://www.w3.org/1999/xlink" width="8px" height="13px" xmlns="http://www.w3.org/2000/svg">
  <g transform="matrix(1 0 0 1 -3165 -444 )">
    <path d="M 7.946384725182236 3.950031485532112  C 7.946384725182236 3.950031485532112  6.159651737949414 3.950031485532112  6.159651737949414 3.950031485532112  C 5.976505754943458 2.0718191296687487  5.185973042113355 1.4443268117945147  4.064828616955296 1.4443268117945147  C 2.5058419298335792 1.4443268117945147  1.8404115249117285 2.3539834072966146  1.8404115249117285 6.497875156710805  C 1.8404115249117285 10.637502308365544  2.5058419298335792 11.55549425403376  4.064828616955296 11.55549425403376  C 5.239493422639464 11.55549425403376  5.90505035328354 10.97439062017893  6.208806981056786 8.809809033652241  C 6.208806981056786 8.809809033652241  8 8.809809033652241  8 8.809809033652241  C 7.69168844622465 11.264875336791963  6.467773503141396 12.999999999999973  4.064828616955296 12.999999999999973  C 1.2819902496115265 12.999999999999973  0 11.024969346052925  0 6.497875156710805  C 0 1.9707958785495778  1.2819902496115265 0  4.064828616955296 0  C 6.467773503141396 0  7.588949559730085 1.4865254539594626  7.946384725182236 3.950031485532112  Z " fill-rule="nonzero" fill="#efebdf" stroke="none" transform="matrix(1 0 0 1 3165 444 )" />
  </g>
</svg>