<?xml version="1.0" encoding="utf-8"?>
<svg version="1.1" xmlns:xlink="http://www.w3.org/1999/xlink" width="8px" height="13px" xmlns="http://www.w3.org/2000/svg">
  <g transform="matrix(1 0 0 1 -3189 -444 )">
    <path d="M 7.691017655674118 2.985725411749378  C 7.691017655674118 2.985725411749378  6.131942767933304 3.415256890972858  6.131942767933304 3.415256890972858  C 5.795696328843026 2.3287536890835523  5.300082081985418 1.4443268117945147  3.7911254888706485 1.4443268117945147  C 2.909243075338447 1.4443268117945147  2.286546601644859 2.088683675353768  2.286546601644859 2.9351168635133447  C 2.286546601644859 5.482885978787152  8.00000000000006 5.634577422866209  8.00000000000006 9.52992960775565  C 8.00000000000006 11.50501990642666  6.441086057328634 12.999999999999973  4.309207667423168 12.999999999999973  C 1.868314744177812 12.999999999999973  0.6500571354996539 11.770274904826547  0 9.677341542894334  C 0 9.677341542894334  1.7138074775079266 9.336188633321415  1.7138074775079266 9.336188633321415  C 2.1045821061271788 10.448025931690761  2.8045644021695995 11.55549425403376  4.181996684531629 11.55549425403376  C 5.1910900809553695 11.55549425403376  6.131942767933304 10.688021389515605  6.131942767933304 9.652067091138258  C 6.131942767933304 6.767379841689138  0.4136288284808395 6.716875671720028  0.4136288284808395 3.032069362225849  C 0.4136288284808395 1.3980574172229006  1.868314744177812 0  3.922746366665057 0  C 6.000160945069508 0  7.245714837525952 1.1075279670669365  7.691017655674118 2.985725411749378  Z " fill-rule="nonzero" fill="#efebdf" stroke="none" transform="matrix(1 0 0 1 3189 444 )" />
  </g>
</svg>