<?xml version="1.0" encoding="utf-8"?>
<svg version="1.1" xmlns:xlink="http://www.w3.org/1999/xlink" width="12px" height="21px" xmlns="http://www.w3.org/2000/svg">
  <g transform="matrix(1 0 0 1 -3028 -609 )">
    <path d="M 0 21  L 0 0.3944760678078777  L 2.730179539450799 0.3944760678078777  C 2.730179539450799 0.3944760678078777  2.730179539450799 2.654572461359481  2.730179539450799 2.654572461359481  C 4.082990619899419 1.273921804886156  6.0829617782206 0  7.443874748454676 0  C 10.323569551053108 0  11.999999999999972 1.586536064483962  11.999999999999972 5.391910420475378  C 11.999999999999972 5.391910420475378  11.999999999999972 21  11.999999999999972 21  L 9.128532941785723 21  C 9.128532941785723 21  9.128532941785723 5.786293003157777  9.128532941785723 5.786293003157777  C 9.128532941785723 3.4028274056838956  8.406520841390403 2.3837460528502574  6.8463328460838175 2.3837460528502574  C 5.443966517432858 2.3837460528502574  4.1576538605242925 3.3369203922220376  2.8880955970555267 4.923144839621074  C 2.8880955970555267 4.923144839621074  2.8880955970555267 21  2.8880955970555267 21  L 0 21  Z " fill-rule="nonzero" fill="#efebdf" stroke="none" transform="matrix(1 0 0 1 3028 609 )" />
  </g>
</svg>