<?xml version="1.0" encoding="utf-8"?>
<svg version="1.1" xmlns:xlink="http://www.w3.org/1999/xlink" width="7px" height="13px" xmlns="http://www.w3.org/2000/svg">
  <g transform="matrix(1 0 0 1 -3213 -444 )">
    <path d="M 0 12.999999999999972  L 0 0.244576799209768  L 1.5844647357765567 0.244576799209768  C 1.5844647357765567 0.244576799209768  1.5844647357765567 1.6437129213450876  1.5844647357765567 1.6437129213450876  C 2.3808618766268648 0.7853690184640459  3.5490517704416806 0  4.341226294261095 0  C 6.023910259058848 0  7 0.9784743612973366  7 3.334763777916785  C 7 3.334763777916785  7 12.999999999999972  7 12.999999999999972  L 5.321509730198736 12.999999999999972  C 5.321509730198736 12.999999999999972  5.321509730198736 3.5836260659656953  5.321509730198736 3.5836260659656953  C 5.321509730198736 2.11149986264456  4.900751972895922 1.4719894324006804  3.9942775688964716 1.4719894324006804  C 3.1773168615460894 1.4719894324006804  2.425980250382184 2.0642835015693306  1.6784035036978886 3.042909830556083  C 1.6784035036978886 3.042909830556083  1.6784035036978886 12.999999999999972  1.6784035036978886 12.999999999999972  L 0 12.999999999999972  Z " fill-rule="nonzero" fill="#efebdf" stroke="none" transform="matrix(1 0 0 1 3213 444 )" />
  </g>
</svg>