<?xml version="1.0" encoding="utf-8"?>
<svg version="1.1" xmlns:xlink="http://www.w3.org/1999/xlink" width="7px" height="13px" xmlns="http://www.w3.org/2000/svg">
  <g transform="matrix(1 0 0 1 -3249 -444 )">
    <path d="M 0 12.999999999999972  L 0 0.244576799209768  L 1.583785480101413 0.244576799209768  C 1.583785480101413 0.244576799209768  1.583785480101413 1.6437129213450876  1.583785480101413 1.6437129213450876  C 2.3837136321218813 0.7853690184640459  3.5470273930745155 0  4.338775611327205 0  C 6.0204023486856775 0  7 0.9784743612973366  7 3.334763777916785  C 7 3.334763777916785  7 12.999999999999972  7 12.999999999999972  L 5.318257645203115 12.999999999999972  C 5.318257645203115 12.999999999999972  5.318257645203115 3.5836260659656953  5.318257645203115 3.5836260659656953  C 5.318257645203115 2.11149986264456  4.90194815383726 1.4719894324006804  3.9918943917283984 1.4719894324006804  C 3.171357431310854 1.4719894324006804  2.424584396600847 2.0642835015693306  1.6817134504372815 3.042909830556083  C 1.6817134504372815 3.042909830556083  1.6817134504372815 12.999999999999972  1.6817134504372815 12.999999999999972  L 0 12.999999999999972  Z " fill-rule="nonzero" fill="#efebdf" stroke="none" transform="matrix(1 0 0 1 3249 444 )" />
  </g>
</svg>