<?xml version="1.0" encoding="utf-8"?>
<svg version="1.1" xmlns:xlink="http://www.w3.org/1999/xlink" width="6px" height="17px" xmlns="http://www.w3.org/2000/svg">
  <g transform="matrix(1 0 0 1 -3293 -440 )">
    <path d="M 0 5.652615406816618  L 0 4.199252414079535  L 1.7660833949954666 4.199252414079535  L 1.7660833949954666 0  L 3.5804404239575627 0  L 3.5804404239575627 4.199252414079535  L 6 4.199252414079535  L 6 5.652615406816618  L 3.5804404239575627 5.652615406816618  C 3.5804404239575627 5.652615406816618  3.5804404239575627 14.439898350840945  3.5804404239575627 14.439898350840945  C 3.5804404239575627 15.162241807440338  3.986701822767455 15.694623998423227  4.8961470720040605 15.694623998423227  C 5.24500536721103 15.694623998423227  5.704230196033475 15.550945129516418  6 15.453802956202544  C 6 15.453802956202544  6 16.754945629314914  6 16.754945629314914  C 5.501130761935531 16.90290270295952  5.046220545475448 17  4.286880035017144 17  C 2.5696017842068515 17  1.7660833949954666 16.226886519343406  1.7660833949954666 14.29203102974329  C 1.7660833949954666 14.29203102974329  1.7660833949954666 5.652615406816618  1.7660833949954666 5.652615406816618  L 0 5.652615406816618  Z " fill-rule="nonzero" fill="#efebdf" stroke="none" transform="matrix(1 0 0 1 3293 440 )" />
  </g>
</svg>