<?xml version="1.0" encoding="utf-8"?>
<svg version="1.1" xmlns:xlink="http://www.w3.org/1999/xlink" width="89px" height="68px" xmlns="http://www.w3.org/2000/svg">
  <defs>
    <mask fill="white" id="clip1102">
      <path d="M 88.9501988935765 39.05676222341732  C 89.28122076644814 37.06249124012121  87.93916443527081 35.391991646042236  85.60149958062897 35.7235581519376  C 83.25098233340347 36.05756063179498  80.90817039424664 33.7265466979343  80.57197079945217 32.73206032796986  C 80.23586311688119 31.722105523347064  79.5661447004772 30.061837019908264  77.55176577323049 28.06235914226849  C 75.53741748339165 26.065408587614236  76.88201671941869 25.065593524608097  79.5661447004772 24.058257391994335  C 82.24765318316646 23.066237445666363  78.56022668927865 19.738088020157683  79.22997574309053 17.741107015828963  C 79.90487188141744 15.733986269883582  80.57197079945217 14.40272649968011  80.23586311688119 12.742488445915837  C 79.90487188141744 11.074516174822328  77.55176577323049 9.411720348398012  76.21485652656825 10.07744158252332  C 74.87535841894457 10.74042234594144  72.19384993625532 9.745814177278902  70.85692537088903 7.741281653668089  C 69.50973727390064 5.736657781033704  68.8399729013849 4.749722930351296  67.50310961083433 6.741497040336415  C 66.16103796095314 8.743532690636233  64.15183675562933 5.07364656794106  62.47102260610397 4.076450176943954  C 60.79541681590931 3.0792842356213725  59.45340644084373 0.41664289651633335  57.44415927940817 0.08264041665901692  C 55.43491211797258 -0.2488956395618292  51.75005916634237 0.41664289651633335  48.398801629841216 2.0897307129299287  C 45.04242764623295 3.750029666043195  43.02803340028238 4.749722930351296  40.687810322086996 6.073339832249161  C 38.33983597971118 7.407218274461781  36.33065009309122 8.743532690636233  34.65498302808088 9.075068746857077  C 32.976773058220914 9.411720348398012  31.637290269301094 10.07744158252332  29.622972616870065 11.406052231043173  C 27.611136594473116 12.742488445915837  25.59937716559576 10.07744158252332  23.93146136476571 12.071743015494015  C 22.253205438793916 14.068693570148213  20.57759964859926 14.40272649968011  19.569184688662833 14.40272649968011  C 18.56842908068324 14.40272649968011  17.565053974334486 12.071743015494015  15.217140906774299 12.40845551638394  C 12.871740106656103 12.742488445915837  8.178410920273748 11.74011561024954  5.163352978567068 10.414062734389786  C 3.4338100318921647 9.646395989956982  1.4989964527733823 10.513480921711649  0.14923481352748272 11.40102803474666  C -0.04834582955167906 12.219637084658604  -0.0816793292679388 13.04342257923968  0.24675368264226744 13.851770088836926  C 1.1397268898848818 16.068080098764472  1.1397268898848818 22.732021818087375  5.163352978567068 20.50569386524144  C 9.184328931472209 18.289444754663  9.184328931472209 21.842038731090415  10.972894844326683 22.727058521139966  C 12.756298353962292 23.61966028014596  17.226342112098116 25.39722092985246  16.330764725190196 27.621204257760077  C 15.437806836651554 29.83477379698038  16.779847849124938 31.61744999200696  18.56842908068324 32.507524428027494  C 20.35180195291105 33.395010641713455  19.907881232195262 33.83622642557092  18.56842908068324 35.170104867783486  C 17.226342112098116 36.49883731500149  18.124447085151857 37.83262440819042  20.35180195291105 40.497732170932  C 22.586831491330873 43.16548905535712  26.615543389712474 45.830505469075  26.615543389712474 48.495613231816506  C 26.615543389712474 51.16062964553444  27.94735150797146 54.26704454115699  30.182365727687547 53.379466978447454  C 32.42251171321459 52.4971267597561  30.182365727687547 54.26704454115699  29.738445006971762 56.932091404549446  C 29.29450896755206 59.60222336358753  30.63403771258362 60.48980092629701  33.769715128906924 60.92848938716901  C 36.88745434294726 61.37479026667198  36.443518303527526 63.152350916378474  38.22696776927487 63.152350916378474  C 40.01806126827508 63.152350916378474  42.24795904088387 60.03576582946481  41.804053638872055 58.26079340209288  C 41.36008696204453 56.48837874738099  39.12504210492073 54.71334542066007  40.91362333647915 54.26704454115699  C 42.70214329322185 53.828356080285104  46.26898094990078 52.4971267597561  48.50656871187426 53.828356080285104  C 50.73900938933275 55.15446985549391  53.87474808047173 54.26704454115699  55.21170328324573 57.37324628905786  C 56.55114011605381 60.48980092629701  56.55114011605381 61.821121595849526  57.44415927940817 64.48102246424737  C 58.34480715731153 67.146191126338  61.46769345586696 67.146191126338  61.46769345586696 64.92991156608497  C 61.46769345586696 62.70598913752641  63.24855406065275 63.152350916378474  65.48871536488376 64.92991156608497  C 67.72120199845399 66.69727157482582  73.08680782479395 68.92624864935543  75.31672091610669 67.59504977850101  C 77.55176577323049 66.2612322356375  78.00595002556847 68.92369087669537  80.23586311688119 66.69727157482582  C 81.54199708738082 65.40428704549943  82.84296865466149 63.95823200233931  83.70257772478001 62.97894001996245  C 83.54095007978636 61.775203486666854  83.37412939416595 60.6478956364273  83.25098233340347 60.03576582946481  C 82.91996046053191 58.3781159980351  80.90817039424664 58.038937073508706  79.22997574309053 56.03955054489244  C 77.55176577323049 54.047624186534705  78.56022668927865 53.379466978447454  80.23586311688119 51.04854439361046  C 81.91151486318759 48.714942237415215  82.24765318316646 48.37819928685071  83.92330492947286 47.049527738981865  C 85.60149958062897 45.71574064579282  85.60149958062897 46.71287613744093  86.9409517321409 45.386792811906545  C 88.28558160557573 44.05029569768488  88.61660347844742 41.05633145008067  88.9501988935765 39.05676222341732  Z " fill-rule="evenodd" />
    </mask>
  </defs>
  <g transform="matrix(1 0 0 1 -2762 -737 )">
    <path d="M 88.9501988935765 39.05676222341732  C 89.28122076644814 37.06249124012121  87.93916443527081 35.391991646042236  85.60149958062897 35.7235581519376  C 83.25098233340347 36.05756063179498  80.90817039424664 33.7265466979343  80.57197079945217 32.73206032796986  C 80.23586311688119 31.722105523347064  79.5661447004772 30.061837019908264  77.55176577323049 28.06235914226849  C 75.53741748339165 26.065408587614236  76.88201671941869 25.065593524608097  79.5661447004772 24.058257391994335  C 82.24765318316646 23.066237445666363  78.56022668927865 19.738088020157683  79.22997574309053 17.741107015828963  C 79.90487188141744 15.733986269883582  80.57197079945217 14.40272649968011  80.23586311688119 12.742488445915837  C 79.90487188141744 11.074516174822328  77.55176577323049 9.411720348398012  76.21485652656825 10.07744158252332  C 74.87535841894457 10.74042234594144  72.19384993625532 9.745814177278902  70.85692537088903 7.741281653668089  C 69.50973727390064 5.736657781033704  68.8399729013849 4.749722930351296  67.50310961083433 6.741497040336415  C 66.16103796095314 8.743532690636233  64.15183675562933 5.07364656794106  62.47102260610397 4.076450176943954  C 60.79541681590931 3.0792842356213725  59.45340644084373 0.41664289651633335  57.44415927940817 0.08264041665901692  C 55.43491211797258 -0.2488956395618292  51.75005916634237 0.41664289651633335  48.398801629841216 2.0897307129299287  C 45.04242764623295 3.750029666043195  43.02803340028238 4.749722930351296  40.687810322086996 6.073339832249161  C 38.33983597971118 7.407218274461781  36.33065009309122 8.743532690636233  34.65498302808088 9.075068746857077  C 32.976773058220914 9.411720348398012  31.637290269301094 10.07744158252332  29.622972616870065 11.406052231043173  C 27.611136594473116 12.742488445915837  25.59937716559576 10.07744158252332  23.93146136476571 12.071743015494015  C 22.253205438793916 14.068693570148213  20.57759964859926 14.40272649968011  19.569184688662833 14.40272649968011  C 18.56842908068324 14.40272649968011  17.565053974334486 12.071743015494015  15.217140906774299 12.40845551638394  C 12.871740106656103 12.742488445915837  8.178410920273748 11.74011561024954  5.163352978567068 10.414062734389786  C 3.4338100318921647 9.646395989956982  1.4989964527733823 10.513480921711649  0.14923481352748272 11.40102803474666  C -0.04834582955167906 12.219637084658604  -0.0816793292679388 13.04342257923968  0.24675368264226744 13.851770088836926  C 1.1397268898848818 16.068080098764472  1.1397268898848818 22.732021818087375  5.163352978567068 20.50569386524144  C 9.184328931472209 18.289444754663  9.184328931472209 21.842038731090415  10.972894844326683 22.727058521139966  C 12.756298353962292 23.61966028014596  17.226342112098116 25.39722092985246  16.330764725190196 27.621204257760077  C 15.437806836651554 29.83477379698038  16.779847849124938 31.61744999200696  18.56842908068324 32.507524428027494  C 20.35180195291105 33.395010641713455  19.907881232195262 33.83622642557092  18.56842908068324 35.170104867783486  C 17.226342112098116 36.49883731500149  18.124447085151857 37.83262440819042  20.35180195291105 40.497732170932  C 22.586831491330873 43.16548905535712  26.615543389712474 45.830505469075  26.615543389712474 48.495613231816506  C 26.615543389712474 51.16062964553444  27.94735150797146 54.26704454115699  30.182365727687547 53.379466978447454  C 32.42251171321459 52.4971267597561  30.182365727687547 54.26704454115699  29.738445006971762 56.932091404549446  C 29.29450896755206 59.60222336358753  30.63403771258362 60.48980092629701  33.769715128906924 60.92848938716901  C 36.88745434294726 61.37479026667198  36.443518303527526 63.152350916378474  38.22696776927487 63.152350916378474  C 40.01806126827508 63.152350916378474  42.24795904088387 60.03576582946481  41.804053638872055 58.26079340209288  C 41.36008696204453 56.48837874738099  39.12504210492073 54.71334542066007  40.91362333647915 54.26704454115699  C 42.70214329322185 53.828356080285104  46.26898094990078 52.4971267597561  48.50656871187426 53.828356080285104  C 50.73900938933275 55.15446985549391  53.87474808047173 54.26704454115699  55.21170328324573 57.37324628905786  C 56.55114011605381 60.48980092629701  56.55114011605381 61.821121595849526  57.44415927940817 64.48102246424737  C 58.34480715731153 67.146191126338  61.46769345586696 67.146191126338  61.46769345586696 64.92991156608497  C 61.46769345586696 62.70598913752641  63.24855406065275 63.152350916378474  65.48871536488376 64.92991156608497  C 67.72120199845399 66.69727157482582  73.08680782479395 68.92624864935543  75.31672091610669 67.59504977850101  C 77.55176577323049 66.2612322356375  78.00595002556847 68.92369087669537  80.23586311688119 66.69727157482582  C 81.54199708738082 65.40428704549943  82.84296865466149 63.95823200233931  83.70257772478001 62.97894001996245  C 83.54095007978636 61.775203486666854  83.37412939416595 60.6478956364273  83.25098233340347 60.03576582946481  C 82.91996046053191 58.3781159980351  80.90817039424664 58.038937073508706  79.22997574309053 56.03955054489244  C 77.55176577323049 54.047624186534705  78.56022668927865 53.379466978447454  80.23586311688119 51.04854439361046  C 81.91151486318759 48.714942237415215  82.24765318316646 48.37819928685071  83.92330492947286 47.049527738981865  C 85.60149958062897 45.71574064579282  85.60149958062897 46.71287613744093  86.9409517321409 45.386792811906545  C 88.28558160557573 44.05029569768488  88.61660347844742 41.05633145008067  88.9501988935765 39.05676222341732  Z " fill-rule="nonzero" fill="#ffff80" stroke="none" transform="matrix(1 0 0 1 2762 737 )" />
    <path d="M 88.9501988935765 39.05676222341732  C 89.28122076644814 37.06249124012121  87.93916443527081 35.391991646042236  85.60149958062897 35.7235581519376  C 83.25098233340347 36.05756063179498  80.90817039424664 33.7265466979343  80.57197079945217 32.73206032796986  C 80.23586311688119 31.722105523347064  79.5661447004772 30.061837019908264  77.55176577323049 28.06235914226849  C 75.53741748339165 26.065408587614236  76.88201671941869 25.065593524608097  79.5661447004772 24.058257391994335  C 82.24765318316646 23.066237445666363  78.56022668927865 19.738088020157683  79.22997574309053 17.741107015828963  C 79.90487188141744 15.733986269883582  80.57197079945217 14.40272649968011  80.23586311688119 12.742488445915837  C 79.90487188141744 11.074516174822328  77.55176577323049 9.411720348398012  76.21485652656825 10.07744158252332  C 74.87535841894457 10.74042234594144  72.19384993625532 9.745814177278902  70.85692537088903 7.741281653668089  C 69.50973727390064 5.736657781033704  68.8399729013849 4.749722930351296  67.50310961083433 6.741497040336415  C 66.16103796095314 8.743532690636233  64.15183675562933 5.07364656794106  62.47102260610397 4.076450176943954  C 60.79541681590931 3.0792842356213725  59.45340644084373 0.41664289651633335  57.44415927940817 0.08264041665901692  C 55.43491211797258 -0.2488956395618292  51.75005916634237 0.41664289651633335  48.398801629841216 2.0897307129299287  C 45.04242764623295 3.750029666043195  43.02803340028238 4.749722930351296  40.687810322086996 6.073339832249161  C 38.33983597971118 7.407218274461781  36.33065009309122 8.743532690636233  34.65498302808088 9.075068746857077  C 32.976773058220914 9.411720348398012  31.637290269301094 10.07744158252332  29.622972616870065 11.406052231043173  C 27.611136594473116 12.742488445915837  25.59937716559576 10.07744158252332  23.93146136476571 12.071743015494015  C 22.253205438793916 14.068693570148213  20.57759964859926 14.40272649968011  19.569184688662833 14.40272649968011  C 18.56842908068324 14.40272649968011  17.565053974334486 12.071743015494015  15.217140906774299 12.40845551638394  C 12.871740106656103 12.742488445915837  8.178410920273748 11.74011561024954  5.163352978567068 10.414062734389786  C 3.4338100318921647 9.646395989956982  1.4989964527733823 10.513480921711649  0.14923481352748272 11.40102803474666  C -0.04834582955167906 12.219637084658604  -0.0816793292679388 13.04342257923968  0.24675368264226744 13.851770088836926  C 1.1397268898848818 16.068080098764472  1.1397268898848818 22.732021818087375  5.163352978567068 20.50569386524144  C 9.184328931472209 18.289444754663  9.184328931472209 21.842038731090415  10.972894844326683 22.727058521139966  C 12.756298353962292 23.61966028014596  17.226342112098116 25.39722092985246  16.330764725190196 27.621204257760077  C 15.437806836651554 29.83477379698038  16.779847849124938 31.61744999200696  18.56842908068324 32.507524428027494  C 20.35180195291105 33.395010641713455  19.907881232195262 33.83622642557092  18.56842908068324 35.170104867783486  C 17.226342112098116 36.49883731500149  18.124447085151857 37.83262440819042  20.35180195291105 40.497732170932  C 22.586831491330873 43.16548905535712  26.615543389712474 45.830505469075  26.615543389712474 48.495613231816506  C 26.615543389712474 51.16062964553444  27.94735150797146 54.26704454115699  30.182365727687547 53.379466978447454  C 32.42251171321459 52.4971267597561  30.182365727687547 54.26704454115699  29.738445006971762 56.932091404549446  C 29.29450896755206 59.60222336358753  30.63403771258362 60.48980092629701  33.769715128906924 60.92848938716901  C 36.88745434294726 61.37479026667198  36.443518303527526 63.152350916378474  38.22696776927487 63.152350916378474  C 40.01806126827508 63.152350916378474  42.24795904088387 60.03576582946481  41.804053638872055 58.26079340209288  C 41.36008696204453 56.48837874738099  39.12504210492073 54.71334542066007  40.91362333647915 54.26704454115699  C 42.70214329322185 53.828356080285104  46.26898094990078 52.4971267597561  48.50656871187426 53.828356080285104  C 50.73900938933275 55.15446985549391  53.87474808047173 54.26704454115699  55.21170328324573 57.37324628905786  C 56.55114011605381 60.48980092629701  56.55114011605381 61.821121595849526  57.44415927940817 64.48102246424737  C 58.34480715731153 67.146191126338  61.46769345586696 67.146191126338  61.46769345586696 64.92991156608497  C 61.46769345586696 62.70598913752641  63.24855406065275 63.152350916378474  65.48871536488376 64.92991156608497  C 67.72120199845399 66.69727157482582  73.08680782479395 68.92624864935543  75.31672091610669 67.59504977850101  C 77.55176577323049 66.2612322356375  78.00595002556847 68.92369087669537  80.23586311688119 66.69727157482582  C 81.54199708738082 65.40428704549943  82.84296865466149 63.95823200233931  83.70257772478001 62.97894001996245  C 83.54095007978636 61.775203486666854  83.37412939416595 60.6478956364273  83.25098233340347 60.03576582946481  C 82.91996046053191 58.3781159980351  80.90817039424664 58.038937073508706  79.22997574309053 56.03955054489244  C 77.55176577323049 54.047624186534705  78.56022668927865 53.379466978447454  80.23586311688119 51.04854439361046  C 81.91151486318759 48.714942237415215  82.24765318316646 48.37819928685071  83.92330492947286 47.049527738981865  C 85.60149958062897 45.71574064579282  85.60149958062897 46.71287613744093  86.9409517321409 45.386792811906545  C 88.28558160557573 44.05029569768488  88.61660347844742 41.05633145008067  88.9501988935765 39.05676222341732  Z " stroke-width="2" stroke="#000000" fill="none" transform="matrix(1 0 0 1 2762 737 )" mask="url(#clip1102)" />
  </g>
</svg>