<?xml version="1.0" encoding="utf-8"?>
<svg version="1.1" xmlns:xlink="http://www.w3.org/1999/xlink" width="6px" height="12px" xmlns="http://www.w3.org/2000/svg">
  <g transform="matrix(1 0 0 1 -2781 -766 )">
    <path d="M 5.869592379406457 3.1709551522726303  C 5.869592379406457 3.1709551522726303  4.696516483164426 3.1709551522726303  4.696516483164426 3.1709551522726303  C 4.5968325840177435 1.9733317799818892  4.1099464977948 1.068497503164071  2.886972586794276 1.068497503164071  C 1.9092758513898827 1.068497503164071  1.2728078512617635 1.7147940838492048  1.2728078512617635 2.600723367524717  C 1.2728078512617635 5.239479133018073  6 5.273730532358252  6 9.022733651417346  C 6 10.882000010591032  4.922635384073186 12  2.9827159043581037 12  C 1.1424643051654724 12  0.03455217265944185 10.653932715170066  0 8.699633020721356  C 0 8.699633020721356  1.1770004592005936 8.699633020721356  1.1770004592005936 8.699633020721356  C 1.207676124774464 10.075980067676698  1.8594098738800013 10.927626178914313  3.113059450454395 10.927626178914313  C 4.175094242906479 10.927626178914313  4.861316090174176 10.250890970615238  4.861316090174176 9.007482564512628  C 4.861316090174176 6.353412165919115  0.13037558334487248 6.049470713147238  0.13037558334487248 2.7147570152352003  C 0.13037558334487248 1.068497503164071  1.2728078512617635 0  2.9712786065932657 0  C 4.665840817590585 0  5.773817024593928 1.1368096632581195  5.869592379406457 3.1709551522726303  Z " fill-rule="nonzero" fill="#7f7f7f" stroke="none" transform="matrix(1 0 0 1 2781 766 )" />
  </g>
</svg>