<?xml version="1.0" encoding="utf-8"?>
<svg version="1.1" xmlns:xlink="http://www.w3.org/1999/xlink" width="5px" height="8px" xmlns="http://www.w3.org/2000/svg">
  <g transform="matrix(1 0 0 1 -2798 -769 )">
    <path d="M 1.2116799189970475 2.3996711304164347  C 1.2116799189970475 2.3996711304164347  0.21020578337651508 2.2532805104754963  0.21020578337651508 2.2532805104754963  C 0.42407457041606156 1.0377436054147067  1.1510616754519192 0  2.544566544566572 0  C 4.002144197266176 0  4.803910181958963 0.8323019779468206  4.803910181958963 2.194054881930726  C 4.803910181958963 2.194054881930726  4.803910181958963 6.488364055718656  4.803910181958963 6.488364055718656  C 4.803910181958963 7.1710449248947725  4.878823073944997 7.675990701430801  5.000000000000055 7.850262477217414  C 5.000000000000055 7.850262477217414  3.863098960659992 7.850262477217414  3.863098960659992 7.850262477217414  C 3.863098960659992 7.850262477217414  3.72414306560648 7.198896977237477  3.72414306560648 7.198896977237477  C 3.303612376783136 7.616765072886086  2.544566544566572 8  2.04557908216442 8  C 0.8196342952440514 8  0 7.226778133083044  0 6.014704544875783  C 0 4.116603184650867  2.1382560528901715 3.1553435850422544  3.7134220792757375 2.8105834888551775  C 3.7134220792757375 2.8105834888551775  3.7134220792757375 2.2673083989071636  3.7134220792757375 2.2673083989071636  C 3.7134220792757375 1.420920325522735  3.2750826409362714 0.8915567099945068  2.5765508204532317 0.8915567099945068  C 1.7426814378034168 0.8915567099945068  1.3328121742755887 1.7030496833175084  1.2116799189970475 2.3996711304164347  Z M 3.7134220792757375 6.314296004452836  C 3.7134220792757375 6.314296004452836  3.7134220792757375 3.7022566128615657  3.7134220792757375 3.7022566128615657  C 2.7120075046904315 3.998210134567376  1.094031984275859 4.708684849080202  1.094031984275859 5.920671126778551  C 1.094031984275859 6.652013052921082  1.421945263408678 7.108355979496582  2.2130944935823265 7.108355979496582  C 2.804714255933768 7.108355979496582  3.3178921349653057 6.707775364612323  3.7134220792757375 6.314296004452836  Z " fill-rule="nonzero" fill="#7f7f7f" stroke="none" transform="matrix(1 0 0 1 2798 769 )" />
  </g>
</svg>