<?xml version="1.0" encoding="utf-8"?>
<svg version="1.1" xmlns:xlink="http://www.w3.org/1999/xlink" width="5px" height="8px" xmlns="http://www.w3.org/2000/svg">
  <g transform="matrix(1 0 0 1 -2816 -769 )">
    <path d="M 1.2144045376496038 2.3996711304164347  C 1.2144045376496038 2.3996711304164347  0.21371412926709377 2.2532805104754963  0.21371412926709377 2.2532805104754963  C 0.4273687405701226 1.0377436054147067  1.1538450092699228 0  2.5463272952358844 0  C 3.999309591617462 0  4.804126380444778 0.8323019779468206  4.804126380444778 2.194054881930726  C 4.804126380444778 2.194054881930726  4.804126380444778 6.488364055718656  4.804126380444778 6.488364055718656  C 4.804126380444778 7.1710449248947725  4.878880943240694 7.675990701430801  4.9999999999999725 7.850262477217414  C 4.9999999999999725 7.850262477217414  3.8639508619689416 7.850262477217414  3.8639508619689416 7.850262477217414  C 3.8639508619689416 7.850262477217414  3.7286516502844025 7.198896977237477  3.7286516502844025 7.198896977237477  C 3.304824228572789 7.616765072886086  2.5463272952358844 8  2.047715551746378 8  C 0.8226721780301062 8  0 7.226778133083044  0 6.014704544875783  C 0 4.116603184650867  2.140295744763163 3.1553435850422544  3.710781381590498 2.8105834888551775  C 3.710781381590498 2.8105834888551775  3.710781381590498 2.2673083989071636  3.710781381590498 2.2673083989071636  C 3.710781381590498 1.420920325522735  3.2727589254626777 0.8915567099945068  2.5783479598729886 0.8915567099945068  C 1.7450071867941264 0.8915567099945068  1.3354640764449008 1.7030496833175084  1.2144045376496038 2.3996711304164347  Z M 3.710781381590498 6.314296004452836  C 3.710781381590498 6.314296004452836  3.710781381590498 3.7022566128615657  3.710781381590498 3.7022566128615657  C 2.7136471715575556 3.998210134567376  1.0932854808902421 4.708684849080202  1.0932854808902421 5.920671126778551  C 1.0932854808902421 6.652013052921082  1.4280740284436626 7.108355979496582  2.215109825523144 7.108355979496582  C 2.802700925206778 7.108355979496582  3.319034142480054 6.707775364612323  3.710781381590498 6.314296004452836  Z " fill-rule="nonzero" fill="#7f7f7f" stroke="none" transform="matrix(1 0 0 1 2816 769 )" />
  </g>
</svg>