<?xml version="1.0" encoding="utf-8"?>
<svg version="1.1" xmlns:xlink="http://www.w3.org/1999/xlink" width="49px" height="48px" xmlns="http://www.w3.org/2000/svg">
  <defs>
    <mask fill="white" id="clip1125">
      <path d="M 35.8998416377866 1.3332080359348388  C 35.8998416377866 1.3332080359348388  37.57355427539724 4.009851528270733  36.225348664631674 5.010397246382478  C 34.90024710625575 6.018596344111228  32.888327863334176 8.01716720620932  32.888327863334176 9.020264050860046  C 32.888327863334176 10.025912022049727  34.56451921385019 12.02956986101898  35.8998416377866 12.69744562320419  C 37.24284501159033 13.36277025885045  40.92342766213001 14.368418230040131  39.249745625913256 16.03429622190153  C 37.57355427539724 17.7155497159276  37.57355427539724 19.046176072909773  36.90203728779846 20.049288193767364  C 36.225348664631674 21.054936164957045  37.24284501159033 22.060591774250206  37.24284501159033 22.060591774250206  C 37.24284501159033 22.060591774250206  35.39494923993788 23.112305147106664  34.274907622042186 23.112305147106664  C 34.133865797587134 23.112305147106664  34.00065792996871 23.094409070816553  33.89046231055825 23.058586365822915  C 33.8417754928737 23.04321850176164  33.79816850657548 23.032983443191984  33.76227307153841 23.032983443191984  C 32.98059106592305 23.0355498459378  33.89046231055825 26.073009705266728  33.89046231055825 26.073009705266728  C 33.89046231055825 26.073009705266728  34.21850925309648 30.748185869183693  36.225348664631674 30.748185869183693  C 38.24250074590898 30.748185869183693  39.923863731992995 32.081401543221915  40.25445059022438 33.42739576426538  C 40.59030088820546 34.7606114383036  41.592374132641744 36.09126070959611  42.930328276453 36.429017642393724  C 44.27333165025672 36.7591059193676  46.277631146098706 39.77355981122514  46.277631146098706 39.77355981122514  C 46.277631146098706 39.77355981122514  46.608248605723986 41.78235045568603  46.608248605723986 41.78235045568603  C 46.608248605723986 41.78235045568603  46.07006189131915 41.815622034140695  46.07006189131915 41.815622034140695  C 45.71119934513017 41.93330993148459  45.336944297812764 42.05099782882848  44.93967700228745 42.117540985737925  C 42.930328276453 42.44252700963379  42.59450857986581 43.110433324232616  41.2540145203614 44.45131765409467  C 39.923863731992995 45.781966925387074  38.57832044249616 45.446745842921565  36.225348664631674 45.781966925387074  C 36.12540451217559 45.79730423703475  36.020288724151385 45.80497289285859  35.91783525739597 45.80497289285859  C 33.63157451821931 45.80497289285859  30.81731732880433 42.355544287998754  29.20517469570739 40.43889972307815  C 28.415781138830873 39.4895445740214  27.84680942216918 39.138925075080984  27.257304170204954 39.138925075080984  C 26.59860916664754 39.138925075080984  25.911669076526437 39.57396089291051  24.855706777443714 40.10111223786682  C 22.848867365908518 41.111908290755  22.513108872109125 42.44252700963379  20.836856318805324 43.78344189190946  C 20.34986573638429 44.172404669968955  19.801458156419024 44.33616560708299  19.258069205052287 44.33616560708299  C 17.93807807945652 44.33616560708299  16.62062686955391 43.39191271110415  16.149120592442987 42.44252700963379  C 15.482714037624415 41.111908290755  16.149120592442987 39.435802878427424  14.808672435029445 39.100551243548296  C 14.667691813362099 39.06474381476142  14.531852225868889 39.04937595070014  14.39855255406884 39.04937595070014  C 13.252897569484318 39.04937595070014  12.294370108558446 40.244433610255264  10.797502926258291 41.449665223552714  C 10.564289703395989 41.63392683021956  10.346407778874328 41.715807298776575  10.136206804219961 41.715807298776575  C 8.836749213926723 41.715807298776575  7.934589520552633 38.58109910682944  6.783762900400141 37.42444583122072  C 5.438189009509383 36.09126070959611  5.768821769831673 33.08960827905405  6.107181382111984 31.078319974778047  C 6.437783541040294 29.074639221498458  4.769196636906811 27.40365897655915  3.0904500700006885 26.073009705266728  C 2.5675946539364585 25.648231860316994  2.6009348725834176 25.776154816230537  1.5347058058494563 25.39745001105083  C 1.5347058058494563 25.39745001105083  1.4167833344808571 25.06478005512437  1.4167833344808571 25.06478005512437  C 1.4167833344808571 25.06478005512437  0.7478215632722356 22.3907106036377  1.755142946761282 20.714597553206758  C 2.7572314918944842 19.046176072909773  3.0904500700006885 17.37519582797045  3.7645069732926615 16.37465774796206  C 3.8875857795322575 16.187845014756153  4.023379464934628 16.105956908095752  4.164390687995838 16.105956908095752  C 4.782018620948213 16.105956908095752  5.499743713326113 17.687388028654222  5.768821769831673 19.046176072909773  C 6.027663660079744 20.30771578454702  6.278855201854416 21.958241188553895  7.257900897385875 21.958241188553895  C 7.5706471429773625 21.958241188553895  7.960233488635407 21.78934744594823  8.447193469662544 21.38504735624116  C 10.461744432458898 19.71405947319837  11.468989312463183 20.384501638129397  12.468583843994093 17.7155497159276  C 13.473319409699084 15.03886803307464  13.806507386411422 13.703116508704216  15.482714037624415 13.703116508704216  C 17.15636547244727 13.703116508704216  18.824845271702184 13.703116508704216  20.162799415513376 12.69744562320419  C 21.503293475017788 11.691782375807646  21.175246532479555 11.02645010205802  22.174779861222678 10.025912022049727  C 22.67459242768508 9.524355961620982  23.17691430844675 9.439924366524913  23.71516222563938 9.439924366524913  C 23.992013036193796 9.439924366524913  24.279023509520858 9.460386845560842  24.58148768676413 9.460386845560842  C 24.878780228439464 9.460386845560842  25.188894754156053 9.44249076927073  25.52208273086839 9.355462219015317  C 26.860006273285748 9.020264050860046  27.195825969872928 8.01716720620932  27.534124379365537 6.683943894067617  C 27.864741838990824 5.345618328847993  28.20561076557037 4.675191440123827  29.535822756726628 4.3425138460938415  C 30.88910819887846 4.009851528270733  31.547833803829768 4.3425138460938415  32.888327863334176 3.0042035570810097  C 34.21850925309648 1.6684214802969435  35.8998416377866 1.3332080359348388  35.8998416377866 1.3332080359348388  Z M 36.4791260241904 0  C 36.4791260241904 0  35.66659781353041 0.1612174486784456  35.66659781353041 0.1612174486784456  C 35.58207676359658 0.17910588686506235  33.60847046582972 0.586010569835017  32.04250533611806 2.1597577583629106  C 31.347884296129685 2.8532058907653703  31.053162271541524 2.894161401250699  30.340670017519294 2.9888356930197486  C 30.012561872193277 3.0349010946864805  29.65884036017846 3.080974134456622  29.246180563524668 3.183317082049482  C 27.195825969872928 3.6951005629444724  26.716516337319167 4.997611061273869  26.373046292258614 6.402456869092702  C 26.02957624719806 7.740790072415692  25.837399493546933 8.045283064862124  25.227330104886278 8.198831857716732  C 25.042864902496312 8.247448385922459  24.84291539479629 8.26793377926852  24.58148768676413 8.26793377926852  C 24.443077582183868 8.26793377926852  24.30463687620971 8.262808611880368  24.17396892428456 8.255124679849665  C 24.01762640288265 8.250014788668276  23.866363712867177 8.247448385922459  23.71516222563938 8.247448385922459  C 23.04107472095354 8.247448385922459  22.1568168430072 8.352350098157741  21.328957334006564 9.178907458689194  C 20.749764751784443 9.757234096493665  20.501159027793715 10.263892410000418  20.301240121487535 10.67332530519911  C 20.09872009670046 11.09300089707084  19.970592060468356 11.343759832026773  19.442595610230047 11.737832501267556  C 18.42252874618439 12.505522998816891  17.061562354165233 12.505522998816891  15.482714037624415 12.505522998816891  C 13.117027380597214 12.505522998816891  12.443001078699137 14.33005203661092  11.589497601615726 16.640761632668937  C 11.589497601615726 16.640761632668937  11.348572827492292 17.295858847849022  11.348572827492292 17.295858847849022  C 10.864152762158344 18.583016758323964  10.525823751271899 18.759579156753354  9.708215709225556 19.171570816594496  C 9.167427876339767 19.445358633332063  8.495880287347088 19.78571252128921  7.680812160993933 20.463830980147446  C 7.568030723799441 20.558505271916452  7.478368639691567 20.625033152619043  7.4040531546211925 20.671090916182436  C 7.2374591662650225 20.284694540868756  7.086242378340305 19.529820780841643  6.99902840574391 19.087116307188282  C 6.99902840574391 19.087116307188282  6.942675938889016 18.810739173394655  6.942675938889016 18.810739173394655  C 6.8145173012630735 18.163333528348755  6.071240044984076 14.910922162850866  4.164390687995838 14.910922162850866  C 3.843963492537056 14.910922162850866  3.231354188183329 15.013310939064187  2.7674982595457225 15.706743795259852  C 2.377942515281628 16.292762003198295  2.1036775225111217 16.99646047037713  1.8140506300062254 17.743673212683788  C 1.514172270546895 18.51136371023311  1.2040118427394368 19.30718534264211  0.7298432443597521 20.100463486615414  C -0.4952529587722435 22.139921116268173  0.17369351173948822 25.031516114773083  0.2557052473740464 25.353935735923123  C 0.2557052473740464 25.353935735923123  0.40433621751470783 25.794096721141013  0.40433621751470783 25.794096721141013  L 0.5914484404764637 26.33401897499907  C 0.5914484404764637 26.33401897499907  1.1348526925401452 26.52592632317952  1.1348526925401452 26.52592632317952  C 1.4885895052519356 26.653902745816918  1.7294989786784787 26.72554815580428  1.908884349682185 26.779274575191398  C 2.1575053743698023 26.85350166413144  2.1575053743698023 26.85350166413144  2.3343814310741853 26.99935888685208  C 4.313021658136499 28.573090799173094  5.1126972833612285 29.768125544417995  4.925554459005608 30.881241630588775  C 4.530842379870432 33.230332696283064  4.205335353025387 36.55443530038879  5.940495589574105 38.274047349740684  C 6.2609227850328875 38.59390056814491  6.635101328865529 39.277113641977685  6.996549692838565 39.932218495261154  C 7.798795835150349 41.39595408037235  8.629149357753274 42.910834405918095  10.136206804219961 42.910834405918095  C 10.628338420815068 42.910834405918095  11.10247641780086 42.73427200748859  11.54338130101829 42.383683060961786  C 11.945759029323787 42.061263439811746  12.307130889812031 41.74141022140752  12.645490502092343 41.44199656772888  C 13.340050339292983 40.82783194872392  13.998745342850368 40.244433610255264  14.39855255406884 40.244433610255264  C 14.43701850619293 40.244433610255264  14.475453856923153 40.25210226607899  14.519030241827487 40.25977092190283  C 14.521570157520674 40.300711156181336  14.562606626731817 40.69220978457304  14.58821999342073 40.95068320397317  C 14.647219480847383 41.53664794518764  14.718918546739776 42.26339820845847  15.07519527514484 42.97734701041382  C 15.69545492797197 44.218447157325485  17.371707481275774 45.531162161810784  19.258069205052287 45.531162161810784  C 20.111542080741778 45.531162161810784  20.916358740140613 45.24968277493925  21.585305210652344 44.7173986244913  C 22.35673574931344 44.098162304822054  22.879652368165427 43.48402823823082  23.335857948329604 42.94410598437277  C 23.94329561711536 42.227590779671594  24.422544046881335 41.65949920043689  25.391384177549288 41.17072168701328  C 25.391384177549288 41.17072168701328  25.970637962559252 40.87644083882627  25.970637962559252 40.87644083882627  C 26.508855278357988 40.59496145195473  27.01634879468765 40.331446884303915  27.257304170204954 40.331446884303915  C 27.347027457100673 40.331446884303915  27.631498014734568 40.41839905352523  28.285082585511823 41.20402381788167  C 28.285082585511823 41.20402381788167  28.451737776655726 41.40105633345037  28.451737776655726 41.40105633345037  C 30.320136482216768 43.62991601336508  33.14461453719217 47  35.91783525739597 47  C 36.07668709309715 47  36.240771767153994 46.987198538684524  36.3996848056429 46.96672842154533  C 36.98661954052007 46.879745699910295  37.50947495658427 46.84390771870981  37.98104243648298 46.80553388717712  C 39.436903750965854 46.69551464565706  40.80815221133329 46.59056710480131  42.10243816605846 45.29832221745521  C 42.31006862362587 45.08592183782522  42.49713494449672 44.89145572500233  42.668808764239216 44.71489332657283  C 43.5530972435795 43.788574697401096  43.82226710426666 43.51216701119385  45.13191495872637 43.297230781231775  C 45.5650776892888 43.22301896849849  45.95472523773458 43.110433324232616  46.298103478613456 43.00294993304477  C 46.298103478613456 43.00294993304477  46.695401375532654 42.97221420492219  46.695401375532654 42.97221420492219  L 48 42.87756282746342  L 47.7898296267395 41.587853790449415  L 47.46178268420127 39.57909369840215  L 47.41820629929693 39.32318668174783  C 47.41820629929693 39.32318668174783  47.27716447484188 39.11081685453156  47.27716447484188 39.11081685453156  C 46.74665871030431 38.3149875840192  44.883401038917384 35.67926141165149  43.21733874978011 35.267262113706984  C 42.43568734555859 35.067693747806075  41.676956385363354 34.172049741929584  41.41552867733131 33.13568131882419  C 40.92342766213001 31.1294647152125  38.64230795712751 29.550622911709983  36.225348664631674 29.550622911709983  C 35.88955956943839 29.550622911709983  35.21299335184723 27.825893333073314  35.082264197134236 25.986011707424844  C 35.082264197134236 25.986011707424844  35.074583247266915 25.858073475304547  35.074583247266915 25.858073475304547  C 35.074583247266915 25.858073475304547  35.03614789653669 25.730119966977387  35.03614789653669 25.730119966977387  C 34.89516727486937 25.249049299894708  34.7720884686298 24.70399424054502  34.700358801343455 24.2792087574919  C 35.9998163916367 24.112866141425183  37.51709470366375 23.281198889712332  37.8323808649484 23.099541876308184  C 37.8323808649484 23.099541876308184  39.20362932531577 22.316483514697662  39.20362932531577 22.316483514697662  L 38.08358770742007 21.211043722454104  C 38.08358770742007 21.211043722454104  37.788804480044064 20.873248599139288  37.89646018376137 20.714597553206758  C 38.2014948780917 20.264216785626065  38.3834507661824 19.795947579858865  38.565467857060895 19.343000409532355  C 38.86015928025522 18.58812664950535  39.16770328888481 17.810193455282995  40.09813867021643 16.88131606146883  C 40.8900721427861 16.090596682137846  40.938820163258434 15.320355058049557  40.83624429092745 14.816255509185241  C 40.54412338482023 13.342292503607771  38.726859608455165 12.58994695580948  37.26597966537382 11.986055585891286  C 36.945583071308896 11.85558150343877  36.65854199658794 11.737832501267556  36.435549639286066 11.625239218898308  C 35.356513889207655 11.085324603143635  34.14160795024213 9.485989768191674  34.08524018269032 9.002329784052941  C 34.18518433514647 8.575000812564236  35.53078882743109 7.042186220211396  36.950724105483005 5.96231116008166  C 38.58851070666269 4.74428572357212  37.95539846840023 2.367025332501268  36.91736858613916 0.7011397025365004  C 36.91736858613916 0.7011397025365004  36.4791260241904 0  36.4791260241904 0  Z " fill-rule="evenodd" />
    </mask>
  </defs>
  <g transform="matrix(1 0 0 1 -3043 -203 )">
    <path d="M 35.8998416377866 1.3332080359348388  C 35.8998416377866 1.3332080359348388  37.57355427539724 4.009851528270733  36.225348664631674 5.010397246382478  C 34.90024710625575 6.018596344111228  32.888327863334176 8.01716720620932  32.888327863334176 9.020264050860046  C 32.888327863334176 10.025912022049727  34.56451921385019 12.02956986101898  35.8998416377866 12.69744562320419  C 37.24284501159033 13.36277025885045  40.92342766213001 14.368418230040131  39.249745625913256 16.03429622190153  C 37.57355427539724 17.7155497159276  37.57355427539724 19.046176072909773  36.90203728779846 20.049288193767364  C 36.225348664631674 21.054936164957045  37.24284501159033 22.060591774250206  37.24284501159033 22.060591774250206  C 37.24284501159033 22.060591774250206  35.39494923993788 23.112305147106664  34.274907622042186 23.112305147106664  C 34.133865797587134 23.112305147106664  34.00065792996871 23.094409070816553  33.89046231055825 23.058586365822915  C 33.8417754928737 23.04321850176164  33.79816850657548 23.032983443191984  33.76227307153841 23.032983443191984  C 32.98059106592305 23.0355498459378  33.89046231055825 26.073009705266728  33.89046231055825 26.073009705266728  C 33.89046231055825 26.073009705266728  34.21850925309648 30.748185869183693  36.225348664631674 30.748185869183693  C 38.24250074590898 30.748185869183693  39.923863731992995 32.081401543221915  40.25445059022438 33.42739576426538  C 40.59030088820546 34.7606114383036  41.592374132641744 36.09126070959611  42.930328276453 36.429017642393724  C 44.27333165025672 36.7591059193676  46.277631146098706 39.77355981122514  46.277631146098706 39.77355981122514  C 46.277631146098706 39.77355981122514  46.608248605723986 41.78235045568603  46.608248605723986 41.78235045568603  C 46.608248605723986 41.78235045568603  46.07006189131915 41.815622034140695  46.07006189131915 41.815622034140695  C 45.71119934513017 41.93330993148459  45.336944297812764 42.05099782882848  44.93967700228745 42.117540985737925  C 42.930328276453 42.44252700963379  42.59450857986581 43.110433324232616  41.2540145203614 44.45131765409467  C 39.923863731992995 45.781966925387074  38.57832044249616 45.446745842921565  36.225348664631674 45.781966925387074  C 36.12540451217559 45.79730423703475  36.020288724151385 45.80497289285859  35.91783525739597 45.80497289285859  C 33.63157451821931 45.80497289285859  30.81731732880433 42.355544287998754  29.20517469570739 40.43889972307815  C 28.415781138830873 39.4895445740214  27.84680942216918 39.138925075080984  27.257304170204954 39.138925075080984  C 26.59860916664754 39.138925075080984  25.911669076526437 39.57396089291051  24.855706777443714 40.10111223786682  C 22.848867365908518 41.111908290755  22.513108872109125 42.44252700963379  20.836856318805324 43.78344189190946  C 20.34986573638429 44.172404669968955  19.801458156419024 44.33616560708299  19.258069205052287 44.33616560708299  C 17.93807807945652 44.33616560708299  16.62062686955391 43.39191271110415  16.149120592442987 42.44252700963379  C 15.482714037624415 41.111908290755  16.149120592442987 39.435802878427424  14.808672435029445 39.100551243548296  C 14.667691813362099 39.06474381476142  14.531852225868889 39.04937595070014  14.39855255406884 39.04937595070014  C 13.252897569484318 39.04937595070014  12.294370108558446 40.244433610255264  10.797502926258291 41.449665223552714  C 10.564289703395989 41.63392683021956  10.346407778874328 41.715807298776575  10.136206804219961 41.715807298776575  C 8.836749213926723 41.715807298776575  7.934589520552633 38.58109910682944  6.783762900400141 37.42444583122072  C 5.438189009509383 36.09126070959611  5.768821769831673 33.08960827905405  6.107181382111984 31.078319974778047  C 6.437783541040294 29.074639221498458  4.769196636906811 27.40365897655915  3.0904500700006885 26.073009705266728  C 2.5675946539364585 25.648231860316994  2.6009348725834176 25.776154816230537  1.5347058058494563 25.39745001105083  C 1.5347058058494563 25.39745001105083  1.4167833344808571 25.06478005512437  1.4167833344808571 25.06478005512437  C 1.4167833344808571 25.06478005512437  0.7478215632722356 22.3907106036377  1.755142946761282 20.714597553206758  C 2.7572314918944842 19.046176072909773  3.0904500700006885 17.37519582797045  3.7645069732926615 16.37465774796206  C 3.8875857795322575 16.187845014756153  4.023379464934628 16.105956908095752  4.164390687995838 16.105956908095752  C 4.782018620948213 16.105956908095752  5.499743713326113 17.687388028654222  5.768821769831673 19.046176072909773  C 6.027663660079744 20.30771578454702  6.278855201854416 21.958241188553895  7.257900897385875 21.958241188553895  C 7.5706471429773625 21.958241188553895  7.960233488635407 21.78934744594823  8.447193469662544 21.38504735624116  C 10.461744432458898 19.71405947319837  11.468989312463183 20.384501638129397  12.468583843994093 17.7155497159276  C 13.473319409699084 15.03886803307464  13.806507386411422 13.703116508704216  15.482714037624415 13.703116508704216  C 17.15636547244727 13.703116508704216  18.824845271702184 13.703116508704216  20.162799415513376 12.69744562320419  C 21.503293475017788 11.691782375807646  21.175246532479555 11.02645010205802  22.174779861222678 10.025912022049727  C 22.67459242768508 9.524355961620982  23.17691430844675 9.439924366524913  23.71516222563938 9.439924366524913  C 23.992013036193796 9.439924366524913  24.279023509520858 9.460386845560842  24.58148768676413 9.460386845560842  C 24.878780228439464 9.460386845560842  25.188894754156053 9.44249076927073  25.52208273086839 9.355462219015317  C 26.860006273285748 9.020264050860046  27.195825969872928 8.01716720620932  27.534124379365537 6.683943894067617  C 27.864741838990824 5.345618328847993  28.20561076557037 4.675191440123827  29.535822756726628 4.3425138460938415  C 30.88910819887846 4.009851528270733  31.547833803829768 4.3425138460938415  32.888327863334176 3.0042035570810097  C 34.21850925309648 1.6684214802969435  35.8998416377866 1.3332080359348388  35.8998416377866 1.3332080359348388  Z M 36.4791260241904 0  C 36.4791260241904 0  35.66659781353041 0.1612174486784456  35.66659781353041 0.1612174486784456  C 35.58207676359658 0.17910588686506235  33.60847046582972 0.586010569835017  32.04250533611806 2.1597577583629106  C 31.347884296129685 2.8532058907653703  31.053162271541524 2.894161401250699  30.340670017519294 2.9888356930197486  C 30.012561872193277 3.0349010946864805  29.65884036017846 3.080974134456622  29.246180563524668 3.183317082049482  C 27.195825969872928 3.6951005629444724  26.716516337319167 4.997611061273869  26.373046292258614 6.402456869092702  C 26.02957624719806 7.740790072415692  25.837399493546933 8.045283064862124  25.227330104886278 8.198831857716732  C 25.042864902496312 8.247448385922459  24.84291539479629 8.26793377926852  24.58148768676413 8.26793377926852  C 24.443077582183868 8.26793377926852  24.30463687620971 8.262808611880368  24.17396892428456 8.255124679849665  C 24.01762640288265 8.250014788668276  23.866363712867177 8.247448385922459  23.71516222563938 8.247448385922459  C 23.04107472095354 8.247448385922459  22.1568168430072 8.352350098157741  21.328957334006564 9.178907458689194  C 20.749764751784443 9.757234096493665  20.501159027793715 10.263892410000418  20.301240121487535 10.67332530519911  C 20.09872009670046 11.09300089707084  19.970592060468356 11.343759832026773  19.442595610230047 11.737832501267556  C 18.42252874618439 12.505522998816891  17.061562354165233 12.505522998816891  15.482714037624415 12.505522998816891  C 13.117027380597214 12.505522998816891  12.443001078699137 14.33005203661092  11.589497601615726 16.640761632668937  C 11.589497601615726 16.640761632668937  11.348572827492292 17.295858847849022  11.348572827492292 17.295858847849022  C 10.864152762158344 18.583016758323964  10.525823751271899 18.759579156753354  9.708215709225556 19.171570816594496  C 9.167427876339767 19.445358633332063  8.495880287347088 19.78571252128921  7.680812160993933 20.463830980147446  C 7.568030723799441 20.558505271916452  7.478368639691567 20.625033152619043  7.4040531546211925 20.671090916182436  C 7.2374591662650225 20.284694540868756  7.086242378340305 19.529820780841643  6.99902840574391 19.087116307188282  C 6.99902840574391 19.087116307188282  6.942675938889016 18.810739173394655  6.942675938889016 18.810739173394655  C 6.8145173012630735 18.163333528348755  6.071240044984076 14.910922162850866  4.164390687995838 14.910922162850866  C 3.843963492537056 14.910922162850866  3.231354188183329 15.013310939064187  2.7674982595457225 15.706743795259852  C 2.377942515281628 16.292762003198295  2.1036775225111217 16.99646047037713  1.8140506300062254 17.743673212683788  C 1.514172270546895 18.51136371023311  1.2040118427394368 19.30718534264211  0.7298432443597521 20.100463486615414  C -0.4952529587722435 22.139921116268173  0.17369351173948822 25.031516114773083  0.2557052473740464 25.353935735923123  C 0.2557052473740464 25.353935735923123  0.40433621751470783 25.794096721141013  0.40433621751470783 25.794096721141013  L 0.5914484404764637 26.33401897499907  C 0.5914484404764637 26.33401897499907  1.1348526925401452 26.52592632317952  1.1348526925401452 26.52592632317952  C 1.4885895052519356 26.653902745816918  1.7294989786784787 26.72554815580428  1.908884349682185 26.779274575191398  C 2.1575053743698023 26.85350166413144  2.1575053743698023 26.85350166413144  2.3343814310741853 26.99935888685208  C 4.313021658136499 28.573090799173094  5.1126972833612285 29.768125544417995  4.925554459005608 30.881241630588775  C 4.530842379870432 33.230332696283064  4.205335353025387 36.55443530038879  5.940495589574105 38.274047349740684  C 6.2609227850328875 38.59390056814491  6.635101328865529 39.277113641977685  6.996549692838565 39.932218495261154  C 7.798795835150349 41.39595408037235  8.629149357753274 42.910834405918095  10.136206804219961 42.910834405918095  C 10.628338420815068 42.910834405918095  11.10247641780086 42.73427200748859  11.54338130101829 42.383683060961786  C 11.945759029323787 42.061263439811746  12.307130889812031 41.74141022140752  12.645490502092343 41.44199656772888  C 13.340050339292983 40.82783194872392  13.998745342850368 40.244433610255264  14.39855255406884 40.244433610255264  C 14.43701850619293 40.244433610255264  14.475453856923153 40.25210226607899  14.519030241827487 40.25977092190283  C 14.521570157520674 40.300711156181336  14.562606626731817 40.69220978457304  14.58821999342073 40.95068320397317  C 14.647219480847383 41.53664794518764  14.718918546739776 42.26339820845847  15.07519527514484 42.97734701041382  C 15.69545492797197 44.218447157325485  17.371707481275774 45.531162161810784  19.258069205052287 45.531162161810784  C 20.111542080741778 45.531162161810784  20.916358740140613 45.24968277493925  21.585305210652344 44.7173986244913  C 22.35673574931344 44.098162304822054  22.879652368165427 43.48402823823082  23.335857948329604 42.94410598437277  C 23.94329561711536 42.227590779671594  24.422544046881335 41.65949920043689  25.391384177549288 41.17072168701328  C 25.391384177549288 41.17072168701328  25.970637962559252 40.87644083882627  25.970637962559252 40.87644083882627  C 26.508855278357988 40.59496145195473  27.01634879468765 40.331446884303915  27.257304170204954 40.331446884303915  C 27.347027457100673 40.331446884303915  27.631498014734568 40.41839905352523  28.285082585511823 41.20402381788167  C 28.285082585511823 41.20402381788167  28.451737776655726 41.40105633345037  28.451737776655726 41.40105633345037  C 30.320136482216768 43.62991601336508  33.14461453719217 47  35.91783525739597 47  C 36.07668709309715 47  36.240771767153994 46.987198538684524  36.3996848056429 46.96672842154533  C 36.98661954052007 46.879745699910295  37.50947495658427 46.84390771870981  37.98104243648298 46.80553388717712  C 39.436903750965854 46.69551464565706  40.80815221133329 46.59056710480131  42.10243816605846 45.29832221745521  C 42.31006862362587 45.08592183782522  42.49713494449672 44.89145572500233  42.668808764239216 44.71489332657283  C 43.5530972435795 43.788574697401096  43.82226710426666 43.51216701119385  45.13191495872637 43.297230781231775  C 45.5650776892888 43.22301896849849  45.95472523773458 43.110433324232616  46.298103478613456 43.00294993304477  C 46.298103478613456 43.00294993304477  46.695401375532654 42.97221420492219  46.695401375532654 42.97221420492219  L 48 42.87756282746342  L 47.7898296267395 41.587853790449415  L 47.46178268420127 39.57909369840215  L 47.41820629929693 39.32318668174783  C 47.41820629929693 39.32318668174783  47.27716447484188 39.11081685453156  47.27716447484188 39.11081685453156  C 46.74665871030431 38.3149875840192  44.883401038917384 35.67926141165149  43.21733874978011 35.267262113706984  C 42.43568734555859 35.067693747806075  41.676956385363354 34.172049741929584  41.41552867733131 33.13568131882419  C 40.92342766213001 31.1294647152125  38.64230795712751 29.550622911709983  36.225348664631674 29.550622911709983  C 35.88955956943839 29.550622911709983  35.21299335184723 27.825893333073314  35.082264197134236 25.986011707424844  C 35.082264197134236 25.986011707424844  35.074583247266915 25.858073475304547  35.074583247266915 25.858073475304547  C 35.074583247266915 25.858073475304547  35.03614789653669 25.730119966977387  35.03614789653669 25.730119966977387  C 34.89516727486937 25.249049299894708  34.7720884686298 24.70399424054502  34.700358801343455 24.2792087574919  C 35.9998163916367 24.112866141425183  37.51709470366375 23.281198889712332  37.8323808649484 23.099541876308184  C 37.8323808649484 23.099541876308184  39.20362932531577 22.316483514697662  39.20362932531577 22.316483514697662  L 38.08358770742007 21.211043722454104  C 38.08358770742007 21.211043722454104  37.788804480044064 20.873248599139288  37.89646018376137 20.714597553206758  C 38.2014948780917 20.264216785626065  38.3834507661824 19.795947579858865  38.565467857060895 19.343000409532355  C 38.86015928025522 18.58812664950535  39.16770328888481 17.810193455282995  40.09813867021643 16.88131606146883  C 40.8900721427861 16.090596682137846  40.938820163258434 15.320355058049557  40.83624429092745 14.816255509185241  C 40.54412338482023 13.342292503607771  38.726859608455165 12.58994695580948  37.26597966537382 11.986055585891286  C 36.945583071308896 11.85558150343877  36.65854199658794 11.737832501267556  36.435549639286066 11.625239218898308  C 35.356513889207655 11.085324603143635  34.14160795024213 9.485989768191674  34.08524018269032 9.002329784052941  C 34.18518433514647 8.575000812564236  35.53078882743109 7.042186220211396  36.950724105483005 5.96231116008166  C 38.58851070666269 4.74428572357212  37.95539846840023 2.367025332501268  36.91736858613916 0.7011397025365004  C 36.91736858613916 0.7011397025365004  36.4791260241904 0  36.4791260241904 0  Z " fill-rule="nonzero" fill="#6ea088" stroke="none" transform="matrix(1 0 0 1 3043 203 )" />
    <path d="M 35.8998416377866 1.3332080359348388  C 35.8998416377866 1.3332080359348388  37.57355427539724 4.009851528270733  36.225348664631674 5.010397246382478  C 34.90024710625575 6.018596344111228  32.888327863334176 8.01716720620932  32.888327863334176 9.020264050860046  C 32.888327863334176 10.025912022049727  34.56451921385019 12.02956986101898  35.8998416377866 12.69744562320419  C 37.24284501159033 13.36277025885045  40.92342766213001 14.368418230040131  39.249745625913256 16.03429622190153  C 37.57355427539724 17.7155497159276  37.57355427539724 19.046176072909773  36.90203728779846 20.049288193767364  C 36.225348664631674 21.054936164957045  37.24284501159033 22.060591774250206  37.24284501159033 22.060591774250206  C 37.24284501159033 22.060591774250206  35.39494923993788 23.112305147106664  34.274907622042186 23.112305147106664  C 34.133865797587134 23.112305147106664  34.00065792996871 23.094409070816553  33.89046231055825 23.058586365822915  C 33.8417754928737 23.04321850176164  33.79816850657548 23.032983443191984  33.76227307153841 23.032983443191984  C 32.98059106592305 23.0355498459378  33.89046231055825 26.073009705266728  33.89046231055825 26.073009705266728  C 33.89046231055825 26.073009705266728  34.21850925309648 30.748185869183693  36.225348664631674 30.748185869183693  C 38.24250074590898 30.748185869183693  39.923863731992995 32.081401543221915  40.25445059022438 33.42739576426538  C 40.59030088820546 34.7606114383036  41.592374132641744 36.09126070959611  42.930328276453 36.429017642393724  C 44.27333165025672 36.7591059193676  46.277631146098706 39.77355981122514  46.277631146098706 39.77355981122514  C 46.277631146098706 39.77355981122514  46.608248605723986 41.78235045568603  46.608248605723986 41.78235045568603  C 46.608248605723986 41.78235045568603  46.07006189131915 41.815622034140695  46.07006189131915 41.815622034140695  C 45.71119934513017 41.93330993148459  45.336944297812764 42.05099782882848  44.93967700228745 42.117540985737925  C 42.930328276453 42.44252700963379  42.59450857986581 43.110433324232616  41.2540145203614 44.45131765409467  C 39.923863731992995 45.781966925387074  38.57832044249616 45.446745842921565  36.225348664631674 45.781966925387074  C 36.12540451217559 45.79730423703475  36.020288724151385 45.80497289285859  35.91783525739597 45.80497289285859  C 33.63157451821931 45.80497289285859  30.81731732880433 42.355544287998754  29.20517469570739 40.43889972307815  C 28.415781138830873 39.4895445740214  27.84680942216918 39.138925075080984  27.257304170204954 39.138925075080984  C 26.59860916664754 39.138925075080984  25.911669076526437 39.57396089291051  24.855706777443714 40.10111223786682  C 22.848867365908518 41.111908290755  22.513108872109125 42.44252700963379  20.836856318805324 43.78344189190946  C 20.34986573638429 44.172404669968955  19.801458156419024 44.33616560708299  19.258069205052287 44.33616560708299  C 17.93807807945652 44.33616560708299  16.62062686955391 43.39191271110415  16.149120592442987 42.44252700963379  C 15.482714037624415 41.111908290755  16.149120592442987 39.435802878427424  14.808672435029445 39.100551243548296  C 14.667691813362099 39.06474381476142  14.531852225868889 39.04937595070014  14.39855255406884 39.04937595070014  C 13.252897569484318 39.04937595070014  12.294370108558446 40.244433610255264  10.797502926258291 41.449665223552714  C 10.564289703395989 41.63392683021956  10.346407778874328 41.715807298776575  10.136206804219961 41.715807298776575  C 8.836749213926723 41.715807298776575  7.934589520552633 38.58109910682944  6.783762900400141 37.42444583122072  C 5.438189009509383 36.09126070959611  5.768821769831673 33.08960827905405  6.107181382111984 31.078319974778047  C 6.437783541040294 29.074639221498458  4.769196636906811 27.40365897655915  3.0904500700006885 26.073009705266728  C 2.5675946539364585 25.648231860316994  2.6009348725834176 25.776154816230537  1.5347058058494563 25.39745001105083  C 1.5347058058494563 25.39745001105083  1.4167833344808571 25.06478005512437  1.4167833344808571 25.06478005512437  C 1.4167833344808571 25.06478005512437  0.7478215632722356 22.3907106036377  1.755142946761282 20.714597553206758  C 2.7572314918944842 19.046176072909773  3.0904500700006885 17.37519582797045  3.7645069732926615 16.37465774796206  C 3.8875857795322575 16.187845014756153  4.023379464934628 16.105956908095752  4.164390687995838 16.105956908095752  C 4.782018620948213 16.105956908095752  5.499743713326113 17.687388028654222  5.768821769831673 19.046176072909773  C 6.027663660079744 20.30771578454702  6.278855201854416 21.958241188553895  7.257900897385875 21.958241188553895  C 7.5706471429773625 21.958241188553895  7.960233488635407 21.78934744594823  8.447193469662544 21.38504735624116  C 10.461744432458898 19.71405947319837  11.468989312463183 20.384501638129397  12.468583843994093 17.7155497159276  C 13.473319409699084 15.03886803307464  13.806507386411422 13.703116508704216  15.482714037624415 13.703116508704216  C 17.15636547244727 13.703116508704216  18.824845271702184 13.703116508704216  20.162799415513376 12.69744562320419  C 21.503293475017788 11.691782375807646  21.175246532479555 11.02645010205802  22.174779861222678 10.025912022049727  C 22.67459242768508 9.524355961620982  23.17691430844675 9.439924366524913  23.71516222563938 9.439924366524913  C 23.992013036193796 9.439924366524913  24.279023509520858 9.460386845560842  24.58148768676413 9.460386845560842  C 24.878780228439464 9.460386845560842  25.188894754156053 9.44249076927073  25.52208273086839 9.355462219015317  C 26.860006273285748 9.020264050860046  27.195825969872928 8.01716720620932  27.534124379365537 6.683943894067617  C 27.864741838990824 5.345618328847993  28.20561076557037 4.675191440123827  29.535822756726628 4.3425138460938415  C 30.88910819887846 4.009851528270733  31.547833803829768 4.3425138460938415  32.888327863334176 3.0042035570810097  C 34.21850925309648 1.6684214802969435  35.8998416377866 1.3332080359348388  35.8998416377866 1.3332080359348388  Z " stroke-width="2" stroke="#000000" fill="none" transform="matrix(1 0 0 1 3043 203 )" mask="url(#clip1125)" />
    <path d="M 36.4791260241904 0  C 36.4791260241904 0  35.66659781353041 0.1612174486784456  35.66659781353041 0.1612174486784456  C 35.58207676359658 0.17910588686506235  33.60847046582972 0.586010569835017  32.04250533611806 2.1597577583629106  C 31.347884296129685 2.8532058907653703  31.053162271541524 2.894161401250699  30.340670017519294 2.9888356930197486  C 30.012561872193277 3.0349010946864805  29.65884036017846 3.080974134456622  29.246180563524668 3.183317082049482  C 27.195825969872928 3.6951005629444724  26.716516337319167 4.997611061273869  26.373046292258614 6.402456869092702  C 26.02957624719806 7.740790072415692  25.837399493546933 8.045283064862124  25.227330104886278 8.198831857716732  C 25.042864902496312 8.247448385922459  24.84291539479629 8.26793377926852  24.58148768676413 8.26793377926852  C 24.443077582183868 8.26793377926852  24.30463687620971 8.262808611880368  24.17396892428456 8.255124679849665  C 24.01762640288265 8.250014788668276  23.866363712867177 8.247448385922459  23.71516222563938 8.247448385922459  C 23.04107472095354 8.247448385922459  22.1568168430072 8.352350098157741  21.328957334006564 9.178907458689194  C 20.749764751784443 9.757234096493665  20.501159027793715 10.263892410000418  20.301240121487535 10.67332530519911  C 20.09872009670046 11.09300089707084  19.970592060468356 11.343759832026773  19.442595610230047 11.737832501267556  C 18.42252874618439 12.505522998816891  17.061562354165233 12.505522998816891  15.482714037624415 12.505522998816891  C 13.117027380597214 12.505522998816891  12.443001078699137 14.33005203661092  11.589497601615726 16.640761632668937  C 11.589497601615726 16.640761632668937  11.348572827492292 17.295858847849022  11.348572827492292 17.295858847849022  C 10.864152762158344 18.583016758323964  10.525823751271899 18.759579156753354  9.708215709225556 19.171570816594496  C 9.167427876339767 19.445358633332063  8.495880287347088 19.78571252128921  7.680812160993933 20.463830980147446  C 7.568030723799441 20.558505271916452  7.478368639691567 20.625033152619043  7.4040531546211925 20.671090916182436  C 7.2374591662650225 20.284694540868756  7.086242378340305 19.529820780841643  6.99902840574391 19.087116307188282  C 6.99902840574391 19.087116307188282  6.942675938889016 18.810739173394655  6.942675938889016 18.810739173394655  C 6.8145173012630735 18.163333528348755  6.071240044984076 14.910922162850866  4.164390687995838 14.910922162850866  C 3.843963492537056 14.910922162850866  3.231354188183329 15.013310939064187  2.7674982595457225 15.706743795259852  C 2.377942515281628 16.292762003198295  2.1036775225111217 16.99646047037713  1.8140506300062254 17.743673212683788  C 1.514172270546895 18.51136371023311  1.2040118427394368 19.30718534264211  0.7298432443597521 20.100463486615414  C -0.4952529587722435 22.139921116268173  0.17369351173948822 25.031516114773083  0.2557052473740464 25.353935735923123  C 0.2557052473740464 25.353935735923123  0.40433621751470783 25.794096721141013  0.40433621751470783 25.794096721141013  L 0.5914484404764637 26.33401897499907  C 0.5914484404764637 26.33401897499907  1.1348526925401452 26.52592632317952  1.1348526925401452 26.52592632317952  C 1.4885895052519356 26.653902745816918  1.7294989786784787 26.72554815580428  1.908884349682185 26.779274575191398  C 2.1575053743698023 26.85350166413144  2.1575053743698023 26.85350166413144  2.3343814310741853 26.99935888685208  C 4.313021658136499 28.573090799173094  5.1126972833612285 29.768125544417995  4.925554459005608 30.881241630588775  C 4.530842379870432 33.230332696283064  4.205335353025387 36.55443530038879  5.940495589574105 38.274047349740684  C 6.2609227850328875 38.59390056814491  6.635101328865529 39.277113641977685  6.996549692838565 39.932218495261154  C 7.798795835150349 41.39595408037235  8.629149357753274 42.910834405918095  10.136206804219961 42.910834405918095  C 10.628338420815068 42.910834405918095  11.10247641780086 42.73427200748859  11.54338130101829 42.383683060961786  C 11.945759029323787 42.061263439811746  12.307130889812031 41.74141022140752  12.645490502092343 41.44199656772888  C 13.340050339292983 40.82783194872392  13.998745342850368 40.244433610255264  14.39855255406884 40.244433610255264  C 14.43701850619293 40.244433610255264  14.475453856923153 40.25210226607899  14.519030241827487 40.25977092190283  C 14.521570157520674 40.300711156181336  14.562606626731817 40.69220978457304  14.58821999342073 40.95068320397317  C 14.647219480847383 41.53664794518764  14.718918546739776 42.26339820845847  15.07519527514484 42.97734701041382  C 15.69545492797197 44.218447157325485  17.371707481275774 45.531162161810784  19.258069205052287 45.531162161810784  C 20.111542080741778 45.531162161810784  20.916358740140613 45.24968277493925  21.585305210652344 44.7173986244913  C 22.35673574931344 44.098162304822054  22.879652368165427 43.48402823823082  23.335857948329604 42.94410598437277  C 23.94329561711536 42.227590779671594  24.422544046881335 41.65949920043689  25.391384177549288 41.17072168701328  C 25.391384177549288 41.17072168701328  25.970637962559252 40.87644083882627  25.970637962559252 40.87644083882627  C 26.508855278357988 40.59496145195473  27.01634879468765 40.331446884303915  27.257304170204954 40.331446884303915  C 27.347027457100673 40.331446884303915  27.631498014734568 40.41839905352523  28.285082585511823 41.20402381788167  C 28.285082585511823 41.20402381788167  28.451737776655726 41.40105633345037  28.451737776655726 41.40105633345037  C 30.320136482216768 43.62991601336508  33.14461453719217 47  35.91783525739597 47  C 36.07668709309715 47  36.240771767153994 46.987198538684524  36.3996848056429 46.96672842154533  C 36.98661954052007 46.879745699910295  37.50947495658427 46.84390771870981  37.98104243648298 46.80553388717712  C 39.436903750965854 46.69551464565706  40.80815221133329 46.59056710480131  42.10243816605846 45.29832221745521  C 42.31006862362587 45.08592183782522  42.49713494449672 44.89145572500233  42.668808764239216 44.71489332657283  C 43.5530972435795 43.788574697401096  43.82226710426666 43.51216701119385  45.13191495872637 43.297230781231775  C 45.5650776892888 43.22301896849849  45.95472523773458 43.110433324232616  46.298103478613456 43.00294993304477  C 46.298103478613456 43.00294993304477  46.695401375532654 42.97221420492219  46.695401375532654 42.97221420492219  L 48 42.87756282746342  L 47.7898296267395 41.587853790449415  L 47.46178268420127 39.57909369840215  L 47.41820629929693 39.32318668174783  C 47.41820629929693 39.32318668174783  47.27716447484188 39.11081685453156  47.27716447484188 39.11081685453156  C 46.74665871030431 38.3149875840192  44.883401038917384 35.67926141165149  43.21733874978011 35.267262113706984  C 42.43568734555859 35.067693747806075  41.676956385363354 34.172049741929584  41.41552867733131 33.13568131882419  C 40.92342766213001 31.1294647152125  38.64230795712751 29.550622911709983  36.225348664631674 29.550622911709983  C 35.88955956943839 29.550622911709983  35.21299335184723 27.825893333073314  35.082264197134236 25.986011707424844  C 35.082264197134236 25.986011707424844  35.074583247266915 25.858073475304547  35.074583247266915 25.858073475304547  C 35.074583247266915 25.858073475304547  35.03614789653669 25.730119966977387  35.03614789653669 25.730119966977387  C 34.89516727486937 25.249049299894708  34.7720884686298 24.70399424054502  34.700358801343455 24.2792087574919  C 35.9998163916367 24.112866141425183  37.51709470366375 23.281198889712332  37.8323808649484 23.099541876308184  C 37.8323808649484 23.099541876308184  39.20362932531577 22.316483514697662  39.20362932531577 22.316483514697662  L 38.08358770742007 21.211043722454104  C 38.08358770742007 21.211043722454104  37.788804480044064 20.873248599139288  37.89646018376137 20.714597553206758  C 38.2014948780917 20.264216785626065  38.3834507661824 19.795947579858865  38.565467857060895 19.343000409532355  C 38.86015928025522 18.58812664950535  39.16770328888481 17.810193455282995  40.09813867021643 16.88131606146883  C 40.8900721427861 16.090596682137846  40.938820163258434 15.320355058049557  40.83624429092745 14.816255509185241  C 40.54412338482023 13.342292503607771  38.726859608455165 12.58994695580948  37.26597966537382 11.986055585891286  C 36.945583071308896 11.85558150343877  36.65854199658794 11.737832501267556  36.435549639286066 11.625239218898308  C 35.356513889207655 11.085324603143635  34.14160795024213 9.485989768191674  34.08524018269032 9.002329784052941  C 34.18518433514647 8.575000812564236  35.53078882743109 7.042186220211396  36.950724105483005 5.96231116008166  C 38.58851070666269 4.74428572357212  37.95539846840023 2.367025332501268  36.91736858613916 0.7011397025365004  C 36.91736858613916 0.7011397025365004  36.4791260241904 0  36.4791260241904 0  Z " stroke-width="2" stroke="#000000" fill="none" transform="matrix(1 0 0 1 3043 203 )" mask="url(#clip1125)" />
  </g>
</svg>