<?xml version="1.0" encoding="utf-8"?>
<svg version="1.1" xmlns:xlink="http://www.w3.org/1999/xlink" width="19px" height="31px" xmlns="http://www.w3.org/2000/svg">
  <g transform="matrix(1 0 0 1 -3179 -819 )">
    <path d="M 4.606846917319482 9.291856958122542  C 4.606846917319482 9.291856958122542  0.803966505638153 8.726498943456393  0.803966505638153 8.726498943456393  C 1.6077180551806844 4.018969378511316  4.37506283021216 0  9.667374028455017 0  C 15.191868517982774 0  18.242341178961514 3.222457997575729  18.242341178961514 8.495314952734672  C 18.242341178961514 8.495314952734672  18.242341178961514 25.14108290039249  18.242341178961514 25.14108290039249  C 18.242341178961514 27.788076814029555  18.531027215381158 29.74087564200213  19 30.41932975916338  C 19 30.41932975916338  14.671275562401108 30.41932975916338  14.671275562401108 30.41932975916338  C 14.671275562401108 30.41932975916338  14.155933677155337 27.90114229207232  14.155933677155337 27.90114229207232  C 12.54821562197471 29.51471406146432  9.667374028455017 31.000000000000057  7.770969936854627 31.000000000000057  C 3.1022463720098075 31.000000000000057  0 28.01402402340103  0 23.306586331812976  C 0 15.962658913740853  8.111214728209836 12.226322605884043  14.104467046260815 10.905704347585615  C 14.104467046260815 10.905704347585615  14.104467046260815 8.783123555834798  14.104467046260815 8.783123555834798  C 14.104467046260815 5.514514508581268  12.43481092752747 3.4434134212156327  9.785937669197114 3.4434134212156327  C 6.622121729798572 3.4434134212156327  5.06049640312193 6.604132522872021  4.606846917319482 9.291856958122542  Z M 14.104467046260815 24.457667621952005  C 14.104467046260815 24.457667621952005  14.104467046260815 14.348811524277782  14.104467046260815 14.348811524277782  C 10.301279554442884 15.50004593667851  4.1379048407143575 18.254715424746394  4.1379048407143575 22.962306238596152  C 4.1379048407143575 25.773385967875996  5.410905546998615 27.556709076593787  8.3997779325749 27.556709076593787  C 10.646591168052028 27.556709076593787  12.604656951082134 25.999394426152154  14.104467046260815 24.457667621952005  Z " fill-rule="nonzero" fill="#efebdf" stroke="none" transform="matrix(1 0 0 1 3179 819 )" />
  </g>
</svg>