<?xml version="1.0" encoding="utf-8"?>
<svg version="1.1" xmlns:xlink="http://www.w3.org/1999/xlink" width="17px" height="30px" xmlns="http://www.w3.org/2000/svg">
  <g transform="matrix(1 0 0 1 -3280 -819 )">
    <path d="M 0 30  L 0 0.567803145468347  L 3.855476877225054 0.567803145468347  C 3.855476877225054 0.567803145468347  3.855476877225054 3.791294087800085  3.855476877225054 3.791294087800085  C 5.783154854840258 1.814614286490916  8.61913839522287 0  10.541888801556393 0  C 14.625726865666334 0  17 2.2606417786332855  17 7.703971199091571  C 17 7.703971199091571  17 30  17 30  L 12.921240659665047 30  C 12.921240659665047 30  12.921240659665047 8.266730561299585  12.921240659665047 8.266730561299585  C 12.921240659665047 4.865619922239158  11.901354326340012 3.3959460466202627  9.689691044303684 3.3959460466202627  C 7.705965722171048 3.3959460466202627  5.894856547392587 4.759368248528701  4.083868294608657 7.020040229456902  C 4.083868294608657 7.020040229456902  4.083868294608657 30  4.083868294608657 30  L 0 30  Z " fill-rule="nonzero" fill="#efebdf" stroke="none" transform="matrix(1 0 0 1 3280 819 )" />
  </g>
</svg>