<?xml version="1.0" encoding="utf-8"?>
<svg version="1.1" xmlns:xlink="http://www.w3.org/1999/xlink" width="297px" height="213px" xmlns="http://www.w3.org/2000/svg">
  <g transform="matrix(1 0 0 1 -3113 -70 )">
    <path d="M 53.51559416881635 213  C 53.51559416881635 213  53.234346684664125 212.84436827765342  53.234346684664125 212.84436827765342  C 51.8403852127224 211.62482664753313  49.71237086086178 210.8338738836401  47.819737139603426 210.8338738836401  C 47.372061991104786 210.8338738836401  46.93983865878211 210.87725215191603  46.54093139651488 210.96912634933182  C 46.21354222413739 211.0405603655587  45.90404784282541 211.07882097297056  45.61757849984685 211.07882097297056  C 44.56383181845242 211.07882097297056  43.778629151784926 210.56088627749244  43.512650260692 209.69595589807415  C 43.15960985197485 208.52999739569066  43.81957951836997 207.06806750667204  45.08299451965475 206.2235316150422  C 45.18275950670415 206.1546564292474  45.346408287113704 206.03472648388063  45.331109156868294 205.92756022840695  C 45.24410871361646 205.28460838896513  43.12388134421609 204.02424732100096  40.88074180068841 203.28433408554636  C 38.60190428658815 202.5291287920338  34.82937085068272 197.59472892658263  34.16439308576415 195.94145030710396  C 33.82927800529867 195.0994427836391  33.00318604641837 193.84674297583743  32.05170840133513 192.39754631444464  C 31.23322020179836 191.15503613497046  30.30482866942083 189.7466741425551  29.52469517564897 188.34595817916878  C 27.908331377205503 185.4450364882183  27.028463433570362 184.95007034209414  24.631874529796796 184.65152489389337  C 24.427336457174373 184.6260127452409  24.23803644042519 184.61326428648147  24.05905799258409 184.61326428648147  C 22.78538249676352 184.61326428648147  22.322408218019525 185.2664362165178  21.478299319329206 186.45283490009024  C 21.186821877827196 186.8610749719297  20.869571051241145 187.30498635848193  20.48342833277143 187.76935315735673  C 19.406626075857453 189.0629180964029  18.10219963361546 189.7236903620676  16.611129909816594 189.7236903620676  C 15.91546227284889 189.7236903620676  15.191578275907487 189.57316106945152  14.457555933174767 189.28232257481383  C 12.559761427462307 188.51945602113878  9.810376412460528 185.0011098705325  8.820482987240084 183.3732977063057  C 8.096660064670974 182.16904813424333  7.549311540681239 182.0057856140013  7.06841193368557 182.0057856140013  C 6.74361842212817 182.0057856140013  6.354880042838485 182.0950705187181  5.881706343930765 182.28643448031158  C 5.610627742756035 182.39357027351824  5.306171997153564 182.44713817012166  4.973713651880397 182.44713817012166  C 3.6924038595302346 182.44713817012166  2.124533112643043 181.66643595909017  1.0349663119314956 181.01580762835235  C 0.5975516579687096 180.75304011279903  0.3060131420944623 180.55150175401158  0.3060131420944623 180.55150175401158  C 0.3060131420944623 180.55150175401158  0.022017311191508567 180.35500490042057  0.022017311191508567 180.35500490042057  C 0.022017311191508567 180.35500490042057  0.05282933198517312 180.00800921648045  0.05282933198517312 180.00800921648045  C 0.05536391843301668 179.97227697723352  0.3776228435425727 176.03551635759385  0.05282933198517312 173.1294770057794  C -0.22597517727761912 170.61381160618092  0.6180421098543452 170.01681209658057  2.1296022855387298 169.1748502665163  C 2.564421278681435 168.93502083804984  3.0734150969062126 168.6492543108756  3.6437581220432524 168.24355783833465  C 6.106795942811002 166.49080468581172  7.198836255598099 166.14888096933512  9.92791404183101 165.807002946259  C 11.518870901423803 165.60797772450297  12.298882246451189 164.57471285737927  13.286118936479259 163.26326656757607  C 13.746558628775468 162.65094453765073  14.270821040059545 161.95951200020252  14.917873476726557 161.3114577310302  C 16.00496676536244 160.22966647249956  15.802932742001802 159.3468852045913  15.472978445990359 157.89007297643667  C 15.293908386590907 157.08125409292018  15.086744115962341 156.16787347776258  15.086744115962341 155.0707749300405  C 15.086744115962341 154.40995697097514  15.086744115962341 152.8663577440017  16.33492106137394 152.8663577440017  C 16.779847863121844 152.8663577440017  17.25057858714002 153.09091034554365  17.843946650610537 153.37666164158443  C 18.414228601375285 153.6496187854651  19.063907236048436 153.9609431546924  19.83374969809833 154.15226142288535  C 20.06143495779859 154.2109317492192  20.28136377222467 154.23900272830357  20.480863209137468 154.23900272830357  C 21.818514109876496 154.23900272830357  22.680456725260022 152.9888769820674  23.458025095397918 149.9220273225083  C 23.688153329987664 149.00103114058885  23.75212873490607 148.15908454165805  23.818608189086312 147.27115515061877  C 23.93880255364911 145.67400325817545  24.05905799258409 144.02584229956082  25.16395446072723 141.80864619249556  C 25.73170182504419 140.6758154055265  25.6575880743343 140.21658149864916  25.565518458186727 140.04052482624712  C 25.348032618650134 139.65016610516466  24.409380591736635 139.5455586801229  23.580784583594678 139.4537454072412  C 23.253334336844905 139.41801316799422  22.920845454385617 139.37720896128388  22.606312437364068 139.32615420171197  C 20.30438881055815 138.94854393938894  17.580532883151463 138.2112199966334  15.135389853449267 137.3003525185073  C 13.344933556943678 136.62678610068252  12.830870565823213 135.06533598521906  12.416542024566086 133.81260571515034  C 12.13523346604157 132.96301308719063  11.894814199729911 132.2307458807649  11.367864516067398 131.9143647752078  C 8.830621333031457 130.41418950991073  10.25270755338841 127.09226405722787  10.787260996394453 125.84209261759113  C 11.288681592461817 124.68119085153764  10.756693273089736 123.55859538629659  10.145308269809302 122.26248684795196  C 9.687464238333233 121.30062553478801  9.216916737431712 120.31067801140604  9.073636260163253 119.15231984465099  C 8.689967053769198 116.08808994005801  9.713084937486679 115.21810282430978  12.99968013068682 112.9244007335543  C 14.953754670415853 111.56197583984682  15.608533015170812 110.79146325714287  16.242729296481837 110.04136039336083  C 16.680205024816864 109.51832326815214  17.13539232110067 108.98252245305056  17.969240725255087 108.28598748587186  C 19.181567014163395 107.28327627259698  19.611225222852056 104.89265847922924  19.867004693781425 103.46643036719048  C 19.867004693781425 103.46643036719048  20.056304710530668 102.39740279855273  20.056304710530668 102.39740279855273  C 20.056304710530668 102.39740279855273  20.856837044629636 103.13219837314335  20.856837044629636 103.13219837314335  C 20.971931699110684 103.23933416635  21.041006814110894 103.25716982370642  21.138176140340327 103.25716982370642  C 21.440036225122604 103.25716982370642  22.025678380505063 103.02250374950468  22.69835151632552 102.74947044995632  C 24.782850377967137 101.92025707865149  30.982601515323033 97.52426255213449  32.74484145185504 95.76885918237848  C 33.7449342972391 94.77638329083156  35.668227353360585 94.62841282864743  36.72976101721526 94.62841282864743  C 38.79624293904691 94.62841282864743  42.231218319597254 95.2560573788978  42.653242231756266 96.93742220859446  C 42.893692035254105 97.89677038472696  45.69938762145857 98.83051502540596  47.52047271564117 99.15964458972266  C 47.52047271564117 99.15964458972266  48.627903770232045 99.35612621218013  48.627903770232045 99.35612621218013  C 48.627903770232045 99.35612621218013  47.84010544274447 100.16492986456308  47.84010544274447 100.16492986456308  C 47.76089198195283 100.24145107938683  45.95003684512002 102.14732281722482  47.51280788192535 105.25493099009378  C 47.996211538182735 106.2244383322867  48.51030506648932 106.2244383322867  48.67911463135293 106.2244383322867  C 49.8377565470648 106.21680753439128  51.38504523050794 104.46144985803585  51.83525496545448 103.84402539837996  C 51.83525496545448 103.84402539837996  52.108929227449295 103.46895873535546  52.108929227449295 103.46895873535546  C 52.108929227449295 103.46895873535546  54.76380165141401 104.52267901480162  54.76380165141401 104.52267901480162  C 55.9531029019889 104.99725067313744  56.89166331734398 105.59426541387137  57.983886853247846 106.2805802904556  C 59.03250328737441 106.93883941908886  60.21920887712916 107.68385508427394  61.94055952144836 108.54365257169464  C 62.49047316907206 108.81667064010955  62.93552211956455 108.95701030439811  63.2654153412037 108.95701030439811  C 63.518629688499104 108.95701030439811  63.63888512743414 108.87025376784631  63.712968340957865 108.79373255302256  C 64.24755232115002 108.25281407705695  64.22452728281661 106.51276368989296  64.20412844248938 104.83141409132989  C 64.20412844248938 104.83141409132989  64.19386794795354 103.75215120096415  64.19386794795354 103.75215120096415  C 64.19386794795354 102.60913078566763  64.28331136609495 101.73655437722037  64.34985189464732 101.09107416961366  C 64.39077172404625 100.6803057296092  64.43688287508533 100.21083650100395  64.40106275576827 100.08839341860575  C 64.43941746153322 100.23633341852283  64.27063843385568 100.26697845917275  64.0404491248937 100.32564878550663  C 63.21423501726893 100.53487886672355  63.21423501726893 100.53487886672355  63.05061677404549 100.61651774241133  C 62.82552717516531 100.72877119648207  62.37024826732314 100.953293335757  60.54919371032672 101.63707984417626  C 59.914905817457395 101.8743504422106  59.354823286856146 101.99680875574226  58.88925334729202 101.99680875574226  C 57.868731124394614 101.99680875574226  57.449333410241856 101.43295219268968  57.29075380272792 101.0961765993441  C 56.6665737184638 99.76690988331805  57.815046751198174 97.659423631025  58.986453210707566 96.25619453060719  C 61.38551562655674 93.37056489771469  63.869074436396126 93.37056489771469  67.01495427596177 93.37056489771469  C 67.55204230541567 93.37056489771469  67.98179212566268 93.38587218690614  68.33464931126308 93.3960922775007  C 68.33464931126308 93.3960922775007  68.94603431454351 93.40884073626013  68.94603431454351 93.40884073626013  C 69.603255634188 93.40884073626013  69.603255634188 93.40884073626013  70.30154946916191 92.24030817231117  C 70.30154946916191 92.24030817231117  70.51127886342444 91.89334295063809  70.51127886342444 91.89334295063809  C 71.09191292028345 90.92631828320955  71.8156442312942 90.28083807560274  72.51390752908205 89.6582959550829  C 73.49100587331885 88.78061711690519  74.41432823280076 87.9539930382994  74.9053051112155 86.2547620889793  C 75.40922975654465 84.48408189229887  74.9768842754775 82.86648981866654  74.52169697919375 81.82300486094829  C 74.52169697919375 81.82300486094829  74.43478814750016 81.61631837902982  74.43478814750016 81.61631837902982  C 74.43478814750016 81.61631837902982  74.50636731176215 81.40454469851436  74.50636731176215 81.40454469851436  C 74.75958165905757 80.60088155369573  75.46801383982289 79.96556812771617  76.2123272142776 79.29200932545818  C 76.89013059736597 78.682238510398  77.59083687004329 78.05457872901405  78.08957019373223 77.22540343554309  C 79.04113945037383 75.63588234099522  79.74441084668518 75.55168463487543  81.11281269384558 75.52615725508943  C 81.82380999824488 75.51339356519642  82.8008472681094 75.49555029227326  84.25621902133568 75.17407437255241  C 84.84189171390419 75.04138835285946  85.36871924882223 74.98015158052685  85.86754418406953 74.98015158052685  C 87.65274808456272 74.98015158052685  88.65018419475444 75.78894761734306  89.61192233437355 76.5671138446427  C 90.24614915287076 77.08507138682114  90.84724312442921 77.56983267348438  91.69895578246296 77.85304037022662  C 92.04173569664427 77.96784503916258  92.35379520159015 78.02140532019916  92.65296801399411 78.02140532019916  C 93.88065450752 78.02140532019916  94.88074735290407 77.0825049408224  96.39224645421628 75.65371799835165  C 96.94735142348019 75.13323970357496  97.5559880800099 74.55919351219495  98.25162517979153 73.96471475519273  C 100.68143854206227 71.89807840301062  103.86576469895115 71.82921083278258  106.67655999523743 71.77053289088208  C 107.74319336917392 71.74755672596133  108.75348563472159 71.72715462260618  109.6971762973446 71.60722467723937  C 112.75370433032722 71.2321808609152  112.83294832830498 70.98469017228629  113.17047584647383 69.95393844219402  C 113.7280543278133 68.25726632330593  115.61061077765258 64.649597190149  117.86382759259938 62.850868861084514  C 117.86382759259938 62.850868861084514  120.17347712749337 60.990918990820866  120.17347712749337 60.990918990820866  C 122.54441479492736 59.077378377253595  125.48826061113243 56.70204502637707  126.7823654844663 55.72994077591827  C 126.7823654844663 55.72994077591827  127.57279000996006 55.15843818383678  127.57279000996006 55.15843818383678  C 128.994876230317 54.15065500309843  130.11760641515335 53.352063825743244  130.11760641515335 51.762542731195374  C 130.11760641515335 49.38209171945482  131.8722120551557 46.736306746162214  133.72642999627695 43.93489766608979  C 133.72642999627695 43.93489766608979  134.6344226883273 42.61581296282445  134.6344226883273 42.61581296282445  C 135.8749958743953 40.832391922951345  136.5553033067455 39.85266449016391  137.26880466040643 37.377826143976115  C 138.24336841819536 33.951316112951794  139.6986180226771 31.731591637721557  141.58099124939972 30.790147659046283  C 141.83683179470128 30.662564069083846  142.09505424052014 30.598776081886005  142.3560555702758 30.598776081886005  C 143.46599067412848 30.598776081886005  144.19757004197166 31.73924528231728  144.90594114836478 32.841453875336676  C 145.42776058475937 33.65534472631655  145.96747481221948 34.49474772594886  146.56597312295781 34.79071911258411  C 146.86768052180958 34.94124078963345  147.64521835476128 35.119841061333986  149.61715714836976 35.119841061333986  C 151.27208941288094 35.119841061333986  153.23889795922145 34.997367516668795  154.972952072966 34.89022410789535  C 156.33371962359678 34.8034599557768  157.53828946723098 34.729482340251515  158.32596564597407 34.729482340251515  C 160.97579943422923 34.729482340251515  167.58994018721455 34.293186520461134  170.7179252357147 33.84414224191131  C 171.1962291818903 33.77780303984822  171.64121705801045 33.74973967633054  172.05560667363983 33.74973967633054  C 173.119583312384 33.74973967633054  174.11708049694798 33.935993592626815  175.0250121146261 34.303391379922104  C 175.0250121146261 34.303391379922104  175.7667603654469 34.60700118001956  175.7667603654469 34.60700118001956  C 175.7667603654469 34.60700118001956  175.26555352968228 35.22954330053944  175.26555352968228 35.22954330053944  C 174.75906376071924 35.857187850789806  174.26029989984426 36.47207632671397  173.59022242484383 36.926207803860756  C 172.55687458377662 37.61000192784676  171.3522742029563 37.81665794749821  169.68210388257188 38.09731442937524  C 168.9506466634731 38.222331573338906  168.11157640049245 38.365199605792526  167.144860699536 38.569319641712255  C 165.69468026794993 38.883149532404204  164.31610953781197 39.028561164156294  162.81218365865718 39.028561164156294  C 161.6612981882195 39.028561164156294  160.5128862298574 38.94692990403528  159.22638511586703 38.855070937753005  C 159.22638511586703 38.855070937753005  158.51532673709553 38.806590239746626  158.51532673709553 38.806590239746626  C 157.63548933064652 38.74024342211678  156.95002111384233 38.66117099242776  156.35912656244747 38.59483179036469  C 155.70187470561694 38.51828772884063  155.16988638624483 38.45449974164279  154.63023323315699 38.45449974164279  C 153.96772898031406 38.45449974164279  153.32073761801928 38.55401235252079  152.46893334842713 38.78618052082468  C 150.43048456345244 39.34237582371472  149.57635946771532 40.20731381869974  147.50969432276696 42.28668339850781  C 147.50969432276696 42.28668339850781  146.72708731691955 43.072526117103536  146.72708731691955 43.072526117103536  C 145.48666681678213 44.31248508171253  144.6859512595664 44.940129631962904  143.77805017907437 44.940129631962904  C 143.32793205568626 44.940129631962904  142.92639859541282 44.79724636837576  142.41743531437416 44.613551282511494  C 142.01074106964668 44.4655808203274  141.50690803587594 44.27932690403113  140.82137874469956 44.12368756611778  C 140.29702472185713 44.00378046745136  139.88278779215835 43.945094909984  139.5426340759833 43.945094909984  C 138.67296555251178 43.945094909984  138.35327175103617 44.3150515277113  137.5782685045323 45.21058886994571  C 137.27646949412227 45.56011292205078  136.92862040704526 45.96069173372775  136.48357145655282 46.40716956627882  C 135.27640595209863 47.601237125580475  135.15621158753584 48.596279463126145  135.01296164745344 49.75204833718212  C 134.93625223592352 50.36948802797151  134.85700823794576 51.014991082278584  134.61393223644174 51.73192815281246  C 134.1843351021253 53.030580290455575  133.41953127578503 53.80875413332204  132.74688867715068 54.50273788563549  C 132.3401638952371 54.91604230937163  131.9846805116305 55.27835289806997  131.74945256695895 55.69933381310212  C 131.73406182515518 56.04377828217698  131.64968757990954 56.96226132706502  131.2992733691986 58.55179003717972  C 131.1508626446622 59.21515159554344  131.16371880001813 59.22024640970715  131.91304027299634 59.439666119251605  C 132.4425550802928 59.597841440896715  133.17150825012976 59.809615121412186  133.81089585308098 60.45512579128601  C 134.05381916865448 60.69748358791733  134.76738159668767 61.10571604418998  136.77523212117157 61.10571604418998  C 137.10512534281077 61.10571604418998  137.42484968147247 61.09552641586255  137.71641873453285 61.07765268067236  C 137.04631072234633 60.52144214664877  136.14341774037783 59.79176423292218  135.25344198813744 59.12074902996275  C 134.7980714687369 58.78139937505161  134.3761391681362 58.39613546813288  134.35054900616882 57.870562359192455  C 134.3301501658416 57.327107899495154  134.71375829786342 56.98268627712059  135.1587767111698 56.58211508101029  C 135.65241032477687 56.14327566192146  136.32505292341125 55.54114326032352  136.85194153270146 54.40324050589101  C 137.72151844461465 52.51776325584143  138.4913914438506 52.129932902923905  139.5578415946704 51.59160371965733  C 140.25360084319652 51.244615651283986  141.11554345858 50.810878661925614  142.34576453855388 49.75969436621108  C 145.4636417784487 47.090956074698056  147.65028752765699 45.76934300326776  151.5661625152031 43.4756256813787  C 152.2643647386187 43.06486485694104  152.77338909402954 42.75104258181586  153.15186697878343 42.52397684324246  C 153.93963476908496 42.039207941012464  154.17748891176265 41.89377346256009  154.4869832930747 41.89377346256009  C 154.89361646342994 41.89377346256009  155.09311590034267 42.18208358903284  155.1879033260548 42.32240040662121  C 155.27975918189952 42.44997638101689  155.38477656496144 42.610710533093965  155.72755647914266 42.80716930885121  C 157.2569198343342 43.674643287567946  158.026731759198 44.0573483640547  160.33381617045796 44.0573483640547  C 161.10368916969392 44.0573483640547  161.54873812018636 43.94253607955199  161.90672555305466 43.84558991467276  C 162.15740531390225 43.77669949774443  162.3901292093121 43.715455109845074  162.6510389275094 43.715455109845074  C 163.3084129330844 43.715455109845074  163.87109112450565 44.105829062061076  164.73804183841264 44.87635687589858  C 165.90447073658476 45.90965982085613  166.11160447002715 46.05252785330974  166.43899364240468 46.05252785330974  C 166.62301072595528 46.05252785330974  166.8328011945901 46.02192089049358  167.11679702549307 45.978550237784454  C 167.42110008516482 45.93517958507532  167.79963904429093 45.88159645733845  168.29324212071197 45.835666974197316  C 169.6282668234448 45.71575225996413  169.68460793183365 45.486120075391966  170.11939638779018 43.6976118369219  C 170.29590132355565 42.97300589065877  170.51842579880187 42.05707406063593  170.90462959164384 40.9089359844754  C 170.90462959164384 40.9089359844754  171.06327027352992 40.431835957974656  171.06327027352992 40.431835957974656  C 171.781932411645 38.26570222604804  171.85870289754712 38.03862887190788  172.6362101933128 38.008014293524965  C 172.80749327025194 38.00291186379448  173.0914891011549 37.98759695903626  173.79479103465235 37.50029207307455  C 175.48545180692236 36.326649463828346  175.9560298450099 35.8138324292142  176.7079469788081 34.841735794322204  C 176.7079469788081 34.841735794322204  176.88448245175974 34.60700118001956  176.88448245175974 34.60700118001956  C 176.88448245175974 34.60700118001956  177.18371633853587 34.6095523948848  177.18371633853587 34.6095523948848  C 178.56225653148778 34.61722127061405  179.51892549821116 34.964201723420636  180.02791931643594 35.63776814124538  C 180.43452194960503 36.17867138607748  180.51886565766458 36.872647522824174  180.2836071758069 37.706948092726  C 179.90760280312867 39.00560784593587  181.36037889553475 39.58477931374662  183.45513825171219 40.25578690113936  C 184.7696419653733 40.67676781617151  185.8106546401563 41.008456210920166  186.06906030909187 41.79427608281561  C 186.06906030909187 41.79427608281561  186.28642399988402 42.049405184906675  186.28642399988402 42.049405184906675  C 186.28642399988402 42.049405184906675  186.29665395723376 42.56733226481807  186.29665395723376 42.56733226481807  C 185.23014273204174 45.71830347482937  185.13538584351573 47.59102465055275  185.51908558709593 48.04773018926507  C 186.900251978054 49.71887492836719  188.48601751600657 53.16580990944698  188.93876183740088 54.181254350347814  C 189.52180833196334 55.4875525170199  191.6115290524312 56.79387353039229  194.8136278516411 57.85779866929946  C 195.4812012773798 58.082343655274656  196.79594928852984 58.30174813368554  198.41991684631682 58.47015116149195  C 198.41991684631682 58.47015116149195  198.41991684631682 58.722721433151015  198.41991684631682 58.722721433151015  C 200.42770629642848 58.7533360115339  202.48661499610265 58.993173055567084  203.40233359624105 60.82761839274502  C 203.5916030758041 61.20267744020278  203.80380598214228 61.65939059448185  204.02639153176068 62.14923907974209  C 204.69396495749933 63.60097172486655  205.81422163026005 66.03244703391196  206.6249228473366 66.30546510232678  C 206.75281258280125 66.34882813946909  206.94208206236436 66.36922262725753  207.18760103875783 66.36922262725753  C 207.5303809529391 66.36922262725753  207.9139280105887 66.33349800357738  208.29762775416884 66.29268618130031  C 208.72227786433407 66.24931552859114  209.1468058257548 66.20594487588197  209.53041395777663 66.20594487588197  C 211.23646547185044 66.20594487588197  211.4921227940353 67.18055464780547  211.4921227940353 67.75974134674969  C 211.4921227940353 69.48447682915548  211.95515814715168 71.53834187587788  215.31843221469555 74.89342550624208  C 217.4694105305173 77.03146541238405  218.8710368361748 77.63360542954871  219.3927951981972 77.65911757820116  C 219.3723658206838 77.615746925492  219.33908028781454 77.5034858558546  219.26490546273251 77.35295656323848  C 219.26490546273251 77.35295656323848  218.99886549726727 76.83758069819234  218.99886549726727 76.83758069819234  C 218.23919191819488 75.36540787187884  217.52575163890617 73.97490438352028  218.06283966836006 73.09724077647603  C 218.2290841095897 72.81914312503106  218.5922628640981 72.48999832958081  219.3493407823504 72.48999832958081  C 221.39029361658686 72.48999832958081  225.48252085396786 71.95932279090995  227.8765140969214 69.96159208678975  C 229.66956605424699 68.4741348179851  231.01479017714345 67.84393143730274  232.37549665340208 67.84393143730274  C 233.42670874834866 67.84393143730274  234.48812026345882 68.22154931519249  235.72093700425268 69.03799138103759  C 236.96908341247808 69.87228433537268  237.73642182526623 70.04833339220797  238.15844573742524 70.04833339220797  C 238.26837960745218 70.04833339220797  238.35015819187785 70.03812853274697  238.41410305961014 70.02282885912236  C 238.7004807910304 68.54557644977861  239.53952051682498 65.0067901179834  240.99473958412054 64.52458004618533  C 240.99473958412054 64.52458004618533  241.08690081182652 64.49397308336918  241.08690081182652 64.49397308336918  C 241.08690081182652 64.49397308336918  241.38610416141648 64.45825607525583  241.38610416141648 64.45825607525583  C 242.4552110474286 64.45825607525583  243.0691306371569 65.71863998992029  244.08192695196627 67.80057601572713  C 244.71361918401556 69.10433819866749  245.5014175115031 70.71933336403394  246.56533307587503 72.3165004876108  C 248.56551876664315 75.30163511581453  248.80596857014098 75.33736735506143  251.11293083265653 75.68434019230126  C 251.7063294333131 75.77364032815161  252.4225485965387 75.88080658362529  253.31515054678528 76.05685564046058  C 256.85233388927463 76.766131450832  258.522473672473 78.02651536549645  260.2898438562729 79.36345857281843  C 260.82693188572676 79.76657336822717  261.3717152860825 80.17990063866364  261.99320809796825 80.5932279091  C 263.60972458234227 81.66734267633471  265.19289445947487 83.3308413864079  266.5944902279462 84.80300659715455  C 267.54584572428496 85.8031589799975  268.4462041198057 86.74972823510346  269.14691039248305 87.27529372847711  C 270.9501312327862 88.62755945612412  276.1395595674084 94.22018798794151  276.35710648131726 94.46001741640787  C 276.35710648131726 94.46001741640787  276.50289100784744 94.61822320032  276.50289100784744 94.61822320032  L 276.9913638370005 103.39240705826457  C 276.9913638370005 103.39240705826457  276.34684598678143 103.3821869676701  276.34684598678143 103.3821869676701  C 275.6204274033922 103.36945374004414  274.81723833410086 103.35924888058322  274.0065371170244 103.35924888058322  C 272.7175014165861 103.35924888058322  271.4053796034422 103.3821869676701  270.38488791773096 103.45619504546245  C 268.81191746076206 103.57102256109869  267.57400100988633 103.57102256109869  266.4230544650764 103.57102256109869  C 266.4230544650764 103.57102256109869  266.3770654627818 103.57102256109869  266.3770654627818 103.57102256109869  C 265.2721079202665 103.57102256109869  264.2414168143916 103.57102256109869  263.0546806874507 103.68071718473735  C 261.7963653962478 103.7904270395096  261.55841964201164 104.22672285929994  261.09040672755805 105.09418160688321  C 260.81923651482487 105.59426541387137  260.47911333583596 106.21680753439128  259.8627507712182 106.83677559334564  C 258.4814927687018 108.20687697834906  257.64776651329186 108.3497450108027  256.07223093268897 108.3497450108027  C 256.07223093268897 108.3497450108027  254.53254600858926 108.34208375064017  254.53254600858926 108.34208375064017  C 252.49669288443465 108.34208375064017  252.40196653309474 108.42119425816296  251.66290555465247 109.07439665046637  C 251.66290555465247 109.07439665046637  251.31496485601716 109.37796837273  251.31496485601716 109.37796837273  C 251.28687064478805 109.84233517160483  251.35844980905006 111.15629459843943  252.9033260547899 112.38861514958619  C 253.97499806443594 113.24332543841001  254.99536760140276 113.72552789464113  255.9826959029892 114.18989469351597  C 257.01607428124254 114.67464074904572  257.990515890287 115.13134628775799  258.94193246099803 115.95547246046594  C 260.15938899717423 117.02448479797009  262.00603371613806 117.5449630927468  263.9599861071226 118.0960711970398  C 264.66857097381853 118.29506595652883  265.3821028646657 118.49917837688174  266.08549640972143 118.72881817702064  C 267.8016862695866 119.30286436840063  269.4334713470199 119.58860043330787  270.94512313426276 119.58860043330787  C 271.6918794836069 119.58860043330787  272.4284974871597 119.51971001637955  273.13182995784325 119.37940081435801  C 274.88893964710735 119.02730270068731  275.1678052307424 118.60378580192351  275.8377910941844 117.57559290226315  C 275.8377910941844 117.57559290226315  276.08593626858413 117.1903061486441  276.08593626858413 117.1903061486441  C 276.74578378623477 116.20549151725973  277.70245275295815 115.70286411097302  278.9250395364023 115.70286411097302  C 279.3085865940519 115.70286411097302  279.68718662755026 115.75132957784588  280.03757030107505 115.82277882520624  C 280.03757030107505 115.82277882520624  280.37518943080227 115.82277882520624  280.37518943080227 115.82277882520624  C 280.37518943080227 115.82277882520624  280.61307411066616 116.08808994005801  280.61307411066616 116.08808994005801  C 281.17825635134915 117.0091622776451  281.9532290606669 118.26955380787636  282.0760496232359 120.14481096733147  C 282.29860463566826 123.11974073607419  284.01473342116117 127.0182712105691  284.0301241629649 127.05653181798098  C 284.16821331859325 127.55661562496913  284.4111060969806 128.2174335840345  284.7128745702045 129.0364116336113  C 285.7488180720918 131.840402390816  287.47514627774837 136.53750119596575  286.73602422493383 139.44101217961526  C 286.089002325453 142.0408295919329  287.55448188728445 145.0183029599742  288.84608271135664 147.64369344547833  C 289.2041006814111 148.36826892947448  289.54691113277846 149.06224506622107  289.8309069636814 149.72053465712145  C 290.45233870119483 151.17481851711122  291.061066969283 153.04241441640374  291.6442050754037 154.85904694292566  C 292.2657589616617 156.77256470979262  292.90258144097885 158.75239883202238  293.33993502056944 159.40049879459522  C 294.3297062970454 160.87773597280537  297 169.86372397353244  297 171.72879150466008  C 297 171.72879150466008  297 172.32582147652758  297 172.32582147652758  C 297 172.32582147652758  296.4040362757095 172.32582147652758  296.4040362757095 172.32582147652758  C 294.62646667174596 172.32582147652758  294.40647678294755 172.69829884685302  293.8821532972912 173.59382857352074  C 293.4933538436292 174.264851392047  292.95626581417537 175.18592372963408  291.65183937193336 176.19879410896942  C 288.69773306119254 178.49251143085843  288.69773306119254 178.49251143085843  286.7258858791425 180.78109586075  C 286.247612470153 181.33729116364003  285.9252008591128 181.77865895089383  285.6772389078298 182.11546500650653  C 285.1579845950692 182.8273072628767  284.8152962924463 183.29674602921492  284.0121682975272 183.29674602921492  C 283.6413247093029 183.29674602921492  283.20391005534015 183.19218429757373  282.42899842039463 182.97273412576226  C 281.05293173951844 182.57725774381578  280.1935542477689 182.54918676473133  278.88912780552687 182.50838255802097  C 278.08862600861397 182.48539877753356  277.1448437344326 182.45227106211914  275.85831208325607 182.32726914928904  C 274.4566552404125 182.1843858857019  273.5897045265055 181.75061843407642  273.2136696166411 180.99797197099593  C 272.66894729065757 179.9085499145698  273.36971463770715 178.57926796741023  274.0704819847567 177.41327900275974  C 274.96827525664344 175.9257912716881  277.6154828468924 172.44569049736012  281.2498965899834 169.90705654840775  C 283.1502867565159 168.58800992297623  282.79208556334476 167.27659409544017  282.34966281085855 165.61562375353193  C 282.11434325462864 164.75836986540972  281.8738934511308 163.8705166300381  282.0017831865955 162.98260247013238  C 282.19111374053074 161.67631953459377  282.02230417566716 160.9389498984377  281.8024364356133 160.68893084164384  C 281.8024364356133 160.68893084164384  281.25759196088524 160.05872746096148  281.25759196088524 160.05872746096148  C 281.25759196088524 160.05872746096148  281.4468003660761 160.6251580855795  281.4468003660761 160.6251580855795  C 280.9020169657203 160.80630195657852  279.83291007970826 160.9900046580096  278.66150362019886 160.9900046580096  C 277.6895660604161 160.9900046580096  276.3109342559059 160.86242868361396  275.2751129027631 160.24244539352603  C 274.84551576844666 159.98730867586823  274.41323136175185 159.74747924740177  274.1804769291559 159.74747924740177  C 273.98613827669715 159.74747924740177  273.7200983112319 159.96434012651423  273.1778800345101 160.41084080576556  C 273.1778800345101 160.41084080576556  272.6227750652463 160.86242868361396  272.6227750652463 160.86242868361396  C 270.88875148868783 162.23510413018283  270.8197374480598 162.27587787462622  268.75566796393156 162.9647820439094  C 268.38488545007954 163.0872251263076  268.05490061688204 163.15101311350543  267.7505059456518 163.15101311350543  C 266.70436302360093 163.15101311350543  266.1954302797484 162.45702174562524  265.7504424036282 161.8472890083989  C 265.49722805633274 161.50282169262374  265.2389445361417 161.1481495173876  264.87060499717916 160.8726030808078  C 264.6429197374789 160.70423813083528  264.48950091441907 160.68637201121183  264.39489671182366 160.68637201121183  C 264.0060972581617 160.68637201121183  263.50229476157705 161.05376218294037  262.9140264081884 161.47729431283776  C 262.41272796086554 161.84214088526778  261.8449195221763 162.24780689554177  261.15172539728417 162.59478734834835  C 260.60443794766667 162.87037947832872  260.0749842147424 163.00812984991828  259.5813200639492 163.00812984991828  C 258.02380142315627 163.00812984991828  257.1772495495765 161.66867350556475  256.6784551515153 160.6608598625594  C 256.42004948257977 160.15058642724378  256.15663571512073 159.43621580270866  255.87538823096847 158.67589284833207  C 255.44811192279707 157.51244748298012  254.96489148965637 156.188267965551  254.391891729327 155.42800593570857  C 253.98519748459955 154.8845133981775  253.77552916470924 154.26454533922316  253.58613753640174 153.71596560309496  C 253.23581493724916 152.68521387300268  253.01069480118286 152.1366798302751  252.10019805987076 151.988709368091  C 249.94421164552557 151.62640639495945  249.4018712200593 150.81502868101106  248.22026534038628 149.02652805810774  C 248.22026534038628 149.02652805810774  248.0232394155491 148.7280283033075  248.0232394155491 148.7280283033075  C 246.87485799437314 147.01859249452642  246.32763161912786 146.76344054573505  246.0998852850554 146.76344054573505  C 245.89272101442683 146.76344054573505  245.63187237060177 147.0900569730203  245.39655281437186 147.6385910157479  C 244.50395086412524 149.71794536442243  244.74946984051877 150.46297626074104  245.93620596745967 151.64168322188385  C 246.28909369024623 151.99378133555444  246.6677547981168 152.26678417283577  246.9976174825699 152.51424439919757  C 247.65233475295264 152.99902091699437  248.21757806800784 153.4149374801298  248.27138458994884 154.10122189444698  C 248.31731251787122 154.70589789534338  247.91330554552215 155.18048478481273  247.60884979991974 155.48918939907387  C 246.33263971765132 156.76234461919805  244.83643974658452 156.9511497503596  242.94631007458784 157.18838988612694  C 242.94631007458784 157.18838988612694  241.27873541502348 157.41039888837042  241.27873541502348 157.41039888837042  C 239.6776707468255 157.61195247829133  239.54715481335455 157.62725976748277  237.29644204766947 160.4312505246875  C 236.28358465848785 161.69674448464923  235.71067650971685 162.56929043082948  235.29118718400574 163.20968343983927  C 234.59301549777618 164.271064979448  234.24763992277485 164.8068657945496  233.0455741284024 165.28398105218386  C 231.98932339774623 165.70751318208133  231.5390525884275 166.1080767626247  230.79492243708955 166.7714383209885  C 230.44960793646044 167.0826713034146  230.05057852544874 167.44244590838122  229.51852913170444 167.86343443898014  C 228.20906405375285 168.9120370575624  228.365139612005 171.0985576617107  228.73088349014742 173.30043124845096  C 229.0096879994103 174.95119673089815  228.15015782173006 176.6452947882208  227.24488293924432 178.44148713355358  C 226.93532748356006 179.05380916347895  226.6258636394342 179.6763360528653  226.35988474834122 180.29379097478824  C 225.84826473211024 181.47766129019573  225.3828780156628 182.15884327478244  224.5132094921913 182.15884327478244  C 224.19348515352962 182.15884327478244  223.8840213094037 182.06191234103667  223.52859900016935 181.949628424699  C 223.21653949522346 181.8475798300892  222.8431002461791 181.73023917742154  222.37249167090545 181.65112866989875  C 222.2343414409049 181.62812965827771  222.11677327434822 181.61541166178532  222.01435155210655 181.61541166178532  C 221.7433340253039 181.61541166178532  221.70751390598687 181.61541166178532  221.52584818576727 182.5747293756508  C 221.39545440104084 183.26869028126393  221.21134570593188 184.2178031356685  220.6562712738541 185.32509131171815  C 220.25983752366244 186.11350047631254  220.04751246857992 186.66204975017368  219.89415471989227 187.05239324012257  C 219.46697002327923 188.14952225011177  219.28283079098406 188.36638312922423  217.90685572166623 188.63938596650559  C 217.77127061529967 188.6674721767235  217.63831170693925 188.68015971094886  217.51286494636406 188.68015971094886  C 216.23659378972346 188.68015971094886  215.63049171964155 187.44788485320262  215.0422233662529 186.2589273391982  C 214.72762927485905 185.6236519910524  214.40277468892944 184.96281880085357  213.97821619032254 184.4346640147809  C 213.63552788769965 184.00347062472107  213.37464870668853 183.94993319038477  213.1878832763872 183.94993319038477  C 212.7428343258947 183.94993319038477  212.1341365949927 184.29688318092428  211.43080412430916 184.69746199260126  C 210.9116108859208 184.9985510401005  210.3284117054278 185.32509131171815  209.6761679471207 185.6082990084604  C 207.54064144747494 186.516622887288  207.33588961454979 186.9784003934638  207.02654791916837 189.46856887554338  C 206.75281258280125 191.6652943391526  206.1952035642757 192.3363019265453  204.64269302200623 192.3363019265453  C 204.64269302200623 192.3363019265453  203.75781697984763 192.32356869891942  203.75781697984763 192.32356869891942  C 202.40227128804312 192.32356869891942  201.85229656604716 191.10660113036462  201.40471302910686 190.12937160347508  C 201.12080880976234 189.5068142518217  200.82936190544643 188.86134927534846  200.38935159066352 188.5322197110318  C 200.27938718345047 188.450580835344  200.1642619917834 188.4122897656651  200.03386820705694 188.4122897656651  C 199.27166004153676 188.4122897656651  197.93654372724555 189.6828861553573  196.92115175161607 191.3668098154859  C 196.61162683311798 191.88217044939853  196.44028268180654 192.32612752935142  196.28173361147876 192.73435237005734  C 195.91351622126072 193.66817316640393  195.56811010907327 194.5509239720451  194.06687150229692 195.54853275558952  C 193.34298750535564 196.0307352118207  192.828893977049 196.26543174828964  192.39154039745844 196.46445697004555  C 191.6371192143985 196.8038066249567  191.22016447513522 196.99518581768382  190.21243733322152 198.40095851740008  C 190.21243733322152 198.40095851740008  189.6778228158432 199.16384030220857  189.6778228158432 199.16384030220857  C 188.47065731138892 200.90389068937256  188.3018172093392 200.98808839549235  186.05366956728807 200.98808839549235  C 185.42188572368048 200.98808839549235  184.94874256195888 200.79165246643538  184.64703516310712 200.40382211351786  C 184.06380544542802 199.6588216794663  184.35277883766832 198.50047874384478  184.60858884578383 197.4799318732135  C 184.6750988371501 197.21203146566268  184.76463386684983 196.85228732296312  184.80552315906272 196.58182808498032  C 184.6162842166857 196.71450648910644  184.37839953682183 196.90076802096948  184.17886956272292 197.05129731358556  C 183.46280308542794 197.6023749556116  182.57007898643693 198.28613100176383  181.55984779526142 198.62295228851  C 180.9409201070097 198.82960830816145  180.3833110884841 198.9316721339047  179.84622305903025 198.9316721339047  C 178.7055370087562 198.9316721339047  177.90750872391888 198.45965930600087  177.21187162413722 198.00549736658706  C 176.08388904328848 198.12029441995628  173.57229709659222 198.45198281470485  172.62075837713672 198.92401087374222  C 172.17580103820262 199.14853301301713  171.75893791049774 199.25827333005637  171.3522742029563 199.25827333005637  C 170.55427645530514 199.25827333005637  169.91479724079556 198.8602076554109  169.02989066145093 198.30404281478786  C 169.02989066145093 198.30404281478786  168.37257773024805 197.9034487719774  168.37257773024805 197.9034487719774  C 167.58994018721455 197.4339947745056  167.13463074218632 196.64307247287968  166.73303620754058 195.94653750570095  C 166.22407292650192 195.0586690391958  165.90447073658476 194.5560416329091  165.30078110420615 194.5560416329091  C 165.16269194857784 194.5560416329091  165.0066163903257 194.58158424382856  164.83777628827596 194.63001924843437  C 164.30065772163601 194.78054854105045  163.79184712652793 194.85964381743977  163.32111640250974 194.85964381743977  C 162.14204510928462 194.85964381743977  161.5026880435195 194.38255902207257  161.17529887114202 193.98708264012606  C 160.74307553881945 193.4589583163205  160.5895651042012 192.73177830849178  160.7457017368256 191.94088646913298  C 160.83001490769902 191.52752873642947  160.74307553881945 191.13717001534704  160.50262573532157 190.84375745914377  C 160.2186909787909 190.49930537450211  159.75834289805297 190.31308953603963  159.20336007753363 190.31308953603963  C 158.79419232073056 190.31308953603963  158.3542430803199 190.41257930021735  157.8989336352916 190.60901522927432  C 156.99356714124744 190.99430198289335  156.2824782252898 191.16778459372992  155.5918797612177 191.16778459372992  C 154.82203729916793 191.16778459372992  154.17245027605313 190.95092371461746  153.35918393534263 190.68303853820024  C 153.00098274217143 190.56563696099843  152.60970977643387 190.43301948140635  152.14927008413767 190.30288467657869  C 151.6915176642199 190.17017581018553  151.28222775867232 190.10638782298764  150.89101586730698 190.10638782298764  C 150.0647101481239 190.10638782298764  149.29495929763237 190.39727201102588  148.23089104732992 190.79527676113736  C 147.56084410951559 191.04790034176372  146.7782676408543 191.34128243569995  145.80629954388547 191.63210569920415  C 145.3740762115629 191.7596969047334  144.95727415823012 191.82605895349673  144.57604792672555 191.82605895349673  C 142.61430855328075 191.82605895349673  141.77038287770722 190.20589281829888  141.09761813032839 188.9046818502238  C 140.79841478073837 188.33572285744071  140.52214485792342 187.79995250460618  140.19985539562782 187.47845373818495  C 138.53997610696533 185.82007268897584  134.87227683100505 182.6079027844657  132.851753374282 182.32213625729145  C 131.96932030701285 182.19456028289576  131.23783255072797 182.16904813424333  130.59334523769502 182.141007617426  C 129.51907756722886 182.102716547747  128.5932206212991 182.0644559403351  127.65969884165364 181.59501717399687  C 126.9308067461888 181.23012490816626  126.53690758244507 180.6484174566238  126.1889668838097 180.13304159157767  C 125.80019796733384 179.56664142922665  125.4984905684821 179.1175666884098  124.80532698077612 178.97725748638817  C 124.61349237757904 178.94155570940828  124.42425343520209 178.92368958978483  124.22475399828936 178.92368958978483  C 123.09686302899892 178.92368958978483  121.61593165099143 179.5283655906813  120.26542459489652 180.5387380641187  C 119.48278705186293 181.12809154469005  118.61577526358373 181.67664081855116  117.60810919604225 181.67664081855116  C 116.74867062992047 181.67664081855116  115.9430691229258 181.28369280476957  115.13991059082052 180.48003727551782  C 114.77926642275989 180.1202931328182  114.4774674123498 179.79116356850153  114.22687926306064 179.51304307035628  C 114.11428865784131 179.3880259263926  113.99159024401679 179.25792158383194  113.88412988606551 179.1431092993293  C 113.86614348344159 179.23751186491006  113.84574464311437 179.3472521819493  113.82271960478096 179.48500255353886  C 113.51838600792301 181.26080041108327  111.99909992415057 181.95218725513098  111.17294689089803 182.1996779437598  C 111.19859812723766 183.5646616678992  111.01186323412243 186.97329796373333  108.64089502950237 187.31010401934594  C 107.53856368499319 187.46829457212462  107.32880375354455 187.60604494371418  107.2904490477796 187.64435124452663  C 107.2419254590372 188.0347099656091  107.21123558698794 188.2847290224029  107.11144006275238 188.57814157860614  C 106.83263555348958 189.42008817753694  106.09607862430903 190.40493327118844  104.95282745040097 190.40493327118844  C 104.4719278434053 190.40493327118844  103.9885241871479 190.22378940018945  103.51538102542636 189.8717065176523  C 103.24167622624543 189.6676093284329  103.06773641411391 189.6420667175134  102.95520688326683 189.6420667175134  C 102.44883926304824 189.6420667175134  101.76596670706418 190.24419911911133  100.90139789367446 191.00196324305583  C 100.60216400689838 191.26476122087618  100.27486644607919 191.55308657848244  99.91413066646021 191.8541299325812  C 99.25941339607748 192.39503317741327  98.70696516200594 192.80069918768714  98.23889117318008 193.14259244189682  C 97.30023914626669 193.83143568664596  96.78351941995386 194.211604779401  96.3973767014842 194.98467619253702  C 95.87311429020014 196.02817638138873  94.80651145344976 196.3930077226853  93.6811245334211 196.7783097074378  C 93.05456254863972 196.99518581768382  92.40497552552493 197.21457506496114  91.81667663495016 197.56411434819975  C 91.45337573169721 197.78609288817614  91.02884777027646 197.89325914364989  90.55048274972863 197.89325914364989  C 89.25375167838853 197.89325914364989  87.72176212519075 197.06660460277706  86.24092235874161 196.26803627212212  C 85.55804980275755 195.89811773222868  84.88781964182657 195.53322546639805  84.26131873141743 195.26786865814572  C 83.95426732499499 195.13520548515305  83.66792013076085 195.0739610972537  83.38911562149806 195.0739610972537  C 82.49135288679742 195.0739610972537  81.7163801774797 195.7424403164815  80.89792251512903 196.45681094101664  C 80.4401700952113 196.85228732296312  79.97209610638544 197.25793810210348  79.46056770171276 197.56411434819975  C 77.74437784184761 198.59232247899357  76.52179105840345 199.5618602834535  74.96418080605217 201.73307359841039  C 74.18157380020475 202.81996728667156  74.45775211146135 203.45269903551892  74.87214172709076 204.40694478192088  C 75.19693523864818 205.15703241456944  75.56518316605228 206.0066555047963  75.39893872482263 207.14202989106377  C 75.39893872482263 207.14202989106377  75.31966418965875 207.7058712229828  75.31966418965875 207.7058712229828  C 75.06141120665379 209.56837992367846  74.9974358017353 210.01235223476488  74.34259638260811 211.3186504014369  C 74.1303324018978 211.74981332922974  73.74675480706205 211.98711438953117  73.26591627443862 211.98711438953117  C 72.6418278017329 211.98711438953117  71.92823483651352 211.58653557785416  71.02021160727698 211.08393863383458  C 69.98188620487244 210.50474431932352  68.69025484361414 209.7878453266234  67.39859294516977 209.6474752000677  C 66.9024247451148 209.59392253459794  66.45737579462231 209.56329272508148  66.05324667352885 209.56329272508148  C 63.68487412972875 209.56329272508148  63.454745895139006 210.5022311822921  63.37031057552109 210.85431406482914  C 62.91759679131288 212.61986136951202  61.8741106044543 212.97959028107812  60.44432901319546 212.97959028107812  C 60.44432901319546 212.97959028107812  53.7662433924778 212.97959028107812  53.7662433924778 212.97959028107812  L 53.51559416881635 213  Z M 240.94881165619816 85.90010514487672  C 240.8541463792305 85.90010514487672  240.76198515152464 85.89500271514618  240.67000714693543 85.87969542595474  C 241.23518938761842 86.1858564409174  241.92581838887662 86.48437142685118  242.70592134546223 86.739508144509  C 244.31981163183013 87.27529372847711  245.1357041705468 88.19380723563218  246.16896040005565 89.35213494012025  C 246.52710051885455 89.75269852066361  246.92090807103997 90.19155317088608  247.3915471834998 90.66099193722431  C 249.1793772819992 92.45464068325863  250.04388502101668 93.29402845175746  251.73955389181015 94.3605276522302  C 253.31515054678528 95.34023985388411  253.28956038481792 96.00871907311185  252.63221691642897 97.12621210862244  C 252.49925800806858 97.35838027692634  252.33557869047291 97.63651600620514  252.18979416394274 97.98095285971327  C 251.73442364454223 99.03206861532698  251.31496485601716 99.34592135271913  250.67557725306597 99.82305184148694  C 250.23559747546923 100.14962257537161  249.63468672702749 100.5961080234894  248.72657188623262 101.49928377918603  C 247.5680521192653 102.65249382280997  247.22017249500223 103.43322649610846  247.1230642431451 103.85675862600591  C 248.04632552825475 103.8006318989706  249.40443634369325 103.23679056705156  251.40975228172928 102.40247476601617  C 251.40975228172928 102.40247476601617  251.6321240710449 102.31064626200096  251.6321240710449 102.31064626200096  C 253.6041544762117 101.48652008929302  253.73198313730413 100.82317376206278  254.00309227566504 99.37400756293715  C 254.0593417724955 99.10353309382077  254.1105831708025 98.82034062821201  254.1795361370583 98.51416438211584  C 254.4353156079877 97.3430729877349  254.391891729327 97.27675663237204  254.03124756126638 96.743529878836  C 253.84955130386072 96.47305540971963  253.6143538963753 96.12095729604904  253.3355493871125 95.56986442288948  C 253.1104292510462 95.12593780520366  252.9698360461562 94.78914698072454  252.85471085448907 94.52126180430723  C 252.54775105962494 93.79664062691059  252.5324213921934 93.75073399046971  251.37127542721984 93.17665733682269  C 249.65252044372073 92.314331481237  249.60903549068786 91.62288371265527  249.67811060568812 90.37269704188508  C 249.69344027311965 90.12774995255464  249.71127398981292 89.8496599166764  249.71127398981292 89.52819161252226  C 249.71127398981292 87.36715269475937  251.678235222084 87.36715269475937  252.97997439194756 87.36715269475937  C 252.97997439194756 87.36715269475937  254.30999099615693 87.37735755422037  254.30999099615693 87.37735755422037  C 255.21541856457335 87.37735755422037  255.83184220356333 87.6069821232257  256.1898601736178 88.07389252139906  C 256.79345819443796 88.86227122372644  256.4712908808868 90.0308037876754  256.0620315125253 91.51317385788305  C 255.97249648282562 91.84230342219973  255.87538823096847 92.19182747430486  255.7857921268965 92.55668927786833  C 255.6604675150658 93.04909659356056  255.6271819821965 93.3552728396568  255.62211280930083 93.53132951205883  C 255.84454567298872 93.3960922775007  256.2334672753951 93.084813601674  256.7602337359409 92.47249157174855  C 257.36138878187165 91.77594137343637  257.83709706722715 91.28099045844567  258.4739195465444 91.28099045844567  C 258.9958000573112 91.28099045844567  259.4074413261899 91.60757642346384  260.02899521244785 92.09744013985754  C 260.02899521244785 92.09744013985754  260.68633868083674 92.60515474474123  260.68633868083674 92.60515474474123  C 260.9421181517661 92.79651870633477  261.11330961714697 92.91641818943442  261.23099993244807 92.99296986652521  C 261.2694157125852 92.87558352045698  261.3103966163564 92.7327307191369  261.34362107485344 92.59750871571222  C 261.4790840324755 92.11271696678195  261.65815409187496 91.45447306928223  262.0035296668763 90.63546455743831  C 262.65824693725904 89.06639887521303  262.0724826331321 88.31117835056698  261.1083625929958 87.06099167979667  C 260.68878165572625 86.52263203426307  260.2156384940047 85.91031000433762  259.80130995274754 85.15511994195867  C 259.1183763223912 83.89725677989239  258.68615299006865 83.65486852099403  258.18479346837347 83.3767784851158  C 257.757761457691 83.13952311821492  257.2743578014336 82.87162271066411  256.7269482030717 82.09341078996378  C 255.5530987686728 80.45798305897513  254.8291231601731 79.90433897095028  253.8675682436707 79.90433897095028  C 253.5222537430416 79.90433897095028  253.12588106722222 79.90433897095028  253.0286506666206 79.95537849938873  C 253.0439192596799 79.97831658647561  253.0260244686144 80.23347615083371  253.12588106722222 81.01420882413217  C 253.21792014618364 81.74387912229204  253.41231987301467 81.96329883183638  253.64244810760442 82.21079713603203  C 253.9110531967036 82.50676852266727  254.24604612842458 82.87414346326229  254.24604612842458 83.75437351630526  C 254.24604612842458 84.89485033230332  253.1462188331772 85.21631863645743  252.08230326880528 85.52503848185214  C 251.19733561508832 85.78271879880847  250.092378072573 86.10420233409616  249.12050158716252 86.88239140809613  C 247.84416935614965 87.89527701856494  247.47338684229763 88.15551616595329  247.04873673213243 88.15551616595329  C 246.61920067218824 88.15551616595329  246.3990886346454 87.85956001045159  246.26356460265106 87.6809749698846  C 246.17915982021927 87.57126511511235  246.09475503778745 87.45390923131116  245.94640538762332 87.34418414540548  C 245.55504081032737 87.05077158920223  245.4554285092085 86.71655482628857  245.4426028910387 86.48691502614965  C 245.39655281437186 85.81334860832493  245.95923100579313 85.2750041939248  246.6677547981168 84.5861457180421  C 246.97721864224266 84.28763073210843  247.31477669759764 83.95850116779174  247.6217364924618 83.59621342579372  C 248.0744197394839 83.05018490453082  248.15882452191568 82.52970660975414  248.04119528098684 82.27966470626006  C 247.96705099309088 82.12659181434552  247.80080655186123 82.05005536838817  247.54240088292568 82.05005536838817  C 247.4118849494548 82.05005536838817  247.26878769530302 82.07048793401047  247.11268159986477 82.10874854142234  C 245.47582734953573 82.52203773402496  245.42983834724114 82.63432926592948  244.84150891948025 83.98913097730818  C 244.02054720786785 85.90010514487672  242.52428616242884 85.90010514487672  240.94881165619816 85.90010514487672  Z M 239.57280604969418 85.03517476545845  C 239.40643945972005 84.63971361464543  239.39886623756266 84.15495232798219  239.50373093469395 83.65232492169548  C 239.40900458335403 83.77478323522715  239.32203467728826 83.90744640821981  239.2403171672349 84.05032967180694  C 239.13276519772526 84.2366216659371  239.12006172829993 84.40498661590954  239.1917019669341 84.5861457180421  C 239.2607770819344 84.77239201877165  239.4167610286282 84.97138677826055  239.63675091742658 85.17294036818156  C 239.61109968108698 85.12960779330625  239.59063976638743 85.08365546346481  239.57280604969418 85.03517476545845  Z M 68.91787902894222 90.9390972042361  L 67.75419847752077 89.77310823958558  C 67.75419847752077 89.77310823958558  67.75419847752077 89.52819161252226  67.75419847752077 89.52819161252226  C 67.75419847752077 89.21436933739705  67.73621207489698 88.9209567811938  67.71831728383142 88.64030791488356  C 67.64664650801107 87.52278441710592  67.57256329448735 86.36447194375152  68.85906440847775 85.2928550824148  C 69.17875820995333 85.02752873642945  69.414016691811 84.79280173769357  69.61092046790371 84.59633534636953  C 70.0534959063206 84.15749592728073  70.43203486544674 83.78244449538971  71.06122304823431 83.78244449538971  C 71.38339036178546 83.78244449538971  71.7313310604208 83.88194949070095  72.18664050544903 84.10903046040785  C 72.95391784386497 84.48919955316288  73.76458852375531 84.98926812901757  73.93602428662511 85.8006001495655  C 74.05878377482188 86.38485120040639  73.84135900965745 86.99977775416436  73.26591627443862 87.68862099891348  C 72.09447927774316 89.08421930143588  69.42943797080096 90.64312581760086  69.31690843995386 90.70691380479865  C 69.31690843995386 90.70691380479865  68.91787902894222 90.9390972042361  68.91787902894222 90.9390972042361  Z M 208.52784760031696 61.929819370197634  C 207.35894519006933 61.929819370197634  206.27200458736394 61.25370173750765  205.2182273687834 60.598001439306394  C 204.79107320935648 60.33010103175559  204.36391904992954 60.062200624204706  203.93685650206095 59.8478833443908  C 203.93685650206095 59.8478833443908  202.48661499610265 59.1232926292612  202.48661499610265 59.1232926292612  C 202.48661499610265 59.1232926292612  204.06212003951944 58.73547750747719  204.06212003951944 58.73547750747719  C 204.7399234226078 58.569633310102894  208.0164108072027 57.327107899495154  210.45376685444464 54.69154301679701  C 210.45376685444464 54.69154301679701  211.36426359575674 53.619971848860814  211.36426359575674 53.619971848860814  C 211.36426359575674 53.619971848860814  211.7913566808115 54.321571167936185  211.7913566808115 54.321571167936185  C 211.96541864168753 54.60735292624399  212.21857191461064 54.910947495207914  212.64569553685146 55.34214088526781  C 213.1290381187366 55.81925614290206  213.31833813548582 56.490271345861615  213.1878832763872 57.27609121775699  C 212.91427008876457 58.98552702653809  211.19032378362522 60.939871846815684  209.8169138379413 61.6287607849654  C 209.41018905602778 61.83032199045314  208.98056138452517 61.929819370197634  208.52784760031696 61.929819370197634  Z M 204.13385188971208 54.954310532350284  C 203.27184819995634 56.17135425657266  202.4610859085075 57.3220054697646  201.22839131645807 57.3220054697646  C 200.7039456820573 57.3220054697646  200.1719268254991 57.11279061968114  199.61178322052572 56.67651003102435  C 199.01588057060738 56.21470967814827  198.49668733221904 55.85241432058347  198.03374359066112 55.525835971132075  C 196.94668083921124 54.7655206323223  196.08999061984014 54.163395846291124  195.2535465548656 52.99740688164065  C 194.4018949712041 51.805920999471276  193.22541933879896 51.16296154446268  191.97974644264914 50.481733866475444  C 191.97974644264914 50.481733866475444  190.83136502147326 49.84390730346439  190.83136502147326 49.84390730346439  C 189.40677475185453 49.05041094027293  187.79282339111444 48.14721233787602  187.79282339111444 45.764232957970506  C 187.79282339111444 44.9579881360196  187.85169908595105 44.07775808297664  187.92837796029494 43.268969661727255  C 187.92837796029494 43.268969661727255  187.97711530934023 42.72808164802867  187.97711530934023 42.72808164802867  C 187.97711530934023 42.72808164802867  188.52437222177153 42.72808164802867  188.52437222177153 42.72808164802867  C 188.58831708950387 42.72042038786618  190.83906039237513 42.28158858434408  195.73945426038472 42.28158858434408  C 197.05420227153482 42.28158858434408  197.69355933729994 41.78150477735587  197.69355933729994 40.75331949326233  C 197.69355933729994 39.12042013043857  195.9952337313141 36.80121350659737  194.40949873054757 36.80121350659737  C 192.4018008919943 36.80121350659737  191.48870848986212 35.961810506965065  190.88511046904196 35.405599972941495  C 190.67022029032535 35.211684796482736  190.48614213240245 35.040753400511456  190.3479919024019 34.99991873153404  C 190.3479919024019 34.99991873153404  189.57811890316603 34.75753808820242  189.57811890316603 34.75753808820242  L 189.47588040404096 35.186165032263546  C 189.47588040404096 35.186165032263546  188.93876183740088 35.11474624717026  188.93876183740088 35.11474624717026  C 187.5882242441198 34.9361307443362  186.68035370081392 33.77270061011773  186.68035370081392 32.21890413925003  C 186.68035370081392 30.042573163429203  187.89527565054237 28.534713791269404  189.08448528955884 27.34832272326375  C 189.54742903111676 26.886499523687412  189.66255422278388 25.886369987544796  189.71633020753873 24.876020360807676  C 189.71633020753873 24.876020360807676  189.75969301182712 23.98814427873575  189.75969301182712 23.98814427873575  C 189.80064337841216 22.628247753193282  189.8415632078111 21.082104926921307  190.27119087931368 19.607415155793046  C 190.5654472047525 18.574096979701984  191.00011351196457 17.51527427052524  192.0028020181687 17.51527427052524  C 192.41193923778565 17.51527427052524  192.7726139430324 17.69130809622701  193.1563136866126 17.885223272685778  C 193.54761718953628 18.07912702579439  193.95687655789774 18.280692039065496  194.40949873054757 18.280692039065496  C 194.6985637343462 18.280692039065496  194.903193418527 18.186285665701366  195.1000971946197 17.969417171022172  C 195.1000971946197 17.969417171022172  195.55281097882786 17.46679738030224  195.55281097882786 17.46679738030224  C 195.55281097882786 17.46679738030224  196.40452363686168 18.44652862087306  196.40452363686168 18.44652862087306  C 196.61938327839215 18.40826039789442  196.9058831585568 18.36744096005053  197.2128124162348 18.36744096005053  C 198.3738973068361 18.36744096005053  199.16169563432368 18.887923062610543  199.43023964905063 19.834473278799678  C 199.43023964905063 19.834473278799678  199.64509929058107 20.62541461934251  199.64509929058107 20.62541461934251  C 199.91620842894196 21.643417890675355  199.9954524269198 21.893467409736225  200.46099182929777 22.12306913204134  C 200.6323665177953 22.209825668593133  200.81907087372443 22.319527907798584  201.01340952618318 22.429230147004034  C 201.24619449596526 22.564467381562206  201.61196891129384 22.773667000512138  201.8293631392721 22.845108632305706  C 201.8267369412659 22.80429681002858  201.83192826290605 22.740516438397503  201.83192826290605 22.656318732277718  C 201.83192826290605 22.135825206367556  201.87800887675908 21.755671344746055  201.91889816897182 21.416336920968437  C 201.99814216694958 20.775951527525375  202.0442533179887 20.390691428390003  201.6374063873306 19.316546198888286  C 201.48917888591092 18.91854144877684  201.33056874121093 18.59450289084054  201.19757929566444 18.32151528469277  C 200.9162707371399 17.74235143244878  200.67328634719425 17.242275241027325  200.92140098440785 16.73199799792828  C 201.15665946626552 16.247236711265046  201.7321938130427 16.035463030749586  202.52246565260594 15.861957573212772  C 202.52246565260594 15.861957573212772  203.25905311897256 15.6808251255639  203.25905311897256 15.6808251255639  C 203.70923231673294 15.56345020284581  204.03659095192427 15.479263920076166  204.33322917788036 15.479263920076166  C 205.4663114688109 15.479263920076166  205.58143666047806 16.614626882993573  205.6939051169528 17.71427283779758  C 205.89086996741773 19.68395160175033  206.61478450154522 20.951992968793913  207.5482146696324 20.951992968793913  C 207.82191946881335 20.951992968793913  208.03940530834998 20.890756196461314  208.24653904179246 20.832085870127486  C 208.42802153889528 20.77850274239062  208.61982560490617 20.72491961465375  208.8220123141974 20.72491961465375  C 209.72224856097367 20.72491961465375  210.02410864575603 21.64596148997384  210.35403240458137 22.957384933076685  C 210.97302116720527 25.460294258348913  211.76591920477466 25.725635835467717  212.85799005474794 26.095569606494728  C 213.1214343593931 26.179774928181274  213.36692279860048 26.230806841052896  213.58682107584053 26.27672870862727  C 214.70463477371175 26.50125846346895  215.48214206947736 26.825285598055103  215.2699391631392 28.940379801543337  C 215.02170237718119 31.305515908525674  214.94499296565127 32.60161683130354  216.0832360410358 33.25222231534109  C 216.553691930379 33.51757150802666  216.94774378005337 33.82374013855612  217.31599170745744 34.10948381903011  C 217.91445948100974 34.57128417190616  218.34665227614624 34.908059765251764  218.89922265896223 34.908059765251764  C 219.10632585521856 34.908059765251764  219.3339500405466 34.86215312881091  219.58713385065593 34.76774294766339  C 220.12416080573752 34.56619697330919  220.57693566431797 34.26512315694346  221.02204568918265 33.97426181560546  C 221.69209262699692 33.53543001208337  222.32381539623233 33.12466918764571  223.11164426090602 33.12466918764571  C 223.520781480523 33.12466918764571  223.91727630508686 33.2369226417164  224.32137488899428 33.46399599585656  C 224.47995449650813 33.563493375601034  224.58491080519775 33.61962771820315  224.6896533535846 33.6783132756705  C 224.6896533535846 33.6783132756705  224.80734366888558 33.736991217571095  224.80734366888558 33.736991217571095  C 224.80734366888558 33.736991217571095  224.93266828071634 33.87221322099574  224.93266828071634 33.87221322099574  C 225.49800320732993 34.624867299643014  226.0350606995977 35.040753400511456  226.62326797861417 35.18873147826231  C 226.62326797861417 35.18873147826231  226.8610915841058 35.24995301946138  226.8610915841058 35.24995301946138  C 226.8610915841058 35.24995301946138  226.98644673312256 35.46172669997684  226.98644673312256 35.46172669997684  C 227.46731580293218 36.265412691495754  227.68721408017217 36.543517958507536  228.24735768514563 36.543517958507536  C 228.5364226889442 36.543517958507536  228.91239652443636 36.46952511184872  229.36511030864457 36.316444604367376  C 229.36511030864457 36.316444604367376  229.59523854323433 36.239900542843316  229.59523854323433 36.239900542843316  C 229.59523854323433 36.239900542843316  229.81532004359107 36.34705918275029  229.81532004359107 36.34705918275029  C 231.00712534342767 36.926207803860756  232.0736976429919 37.602340667684274  233.08905908143527 38.416246749797665  C 233.4829887823652 38.73261262422134  233.9100513302338 39.048978498645  234.33723602684682 39.367903203500674  C 236.46008959425333 40.94210939329032  238.65204881384622 42.57244231011531  237.70307521802474 44.468132035192646  C 237.22736693266924 45.417237274030406  236.62633403548298 45.83821818906256  236.22477003802348 46.118867055372824  C 235.8488572769035 46.38168026432667  235.8488572769035 46.38168026432667  235.95115685040085 46.68782604815584  C 236.4319953830242 48.131927895384855  236.43712563029214 50.458795779388545  235.96642544346017 52.3519190584671  C 235.87951661176658 52.6963559119752  235.541805870481 53.49238825889839  234.30911127843166 53.49238825889839  C 232.86152650766567 53.49238825889839  230.86381432897312 52.40803055436893  230.64388551454695 52.28302864153878  C 230.64388551454695 52.28302864153878  230.426582898127 52.16565752660407  230.426582898127 52.16565752660407  C 230.426582898127 52.16565752660407  230.36001183238847 51.92837169743618  230.36001183238847 51.92837169743618  C 230.25771225889116 51.56608395543814  229.388135346978 48.364096063688734  231.0481062471989 47.26701274710012  C 231.23481060312793 46.51688703661779  230.58766655490263 45.205463593514935  229.94320977905573 44.22828737559274  C 229.12982128960078 44.947775660991866  227.56454620353378 46.18776508786791  226.36248040916132 46.18776508786791  C 226.17824956530777 46.18776508786791  226.00180570391453 46.15969410878347  225.8407220471389 46.10866219591185  C 225.16285758967837 45.879037626906445  224.7664238394867 45.35091330310084  224.4467605751972 44.92994000363545  C 224.19608081434964 44.59823637775328  224.02473666303817 44.38137549864085  223.87886052494963 44.38137549864085  C 223.81497673158955 44.38137549864085  223.63083749929442 44.4120053081573  223.26765874478593 44.6799057157081  C 222.49012091183428 45.2641491509823  221.55913371863653 46.48116241293762  220.88389545918213 47.371604941008314  C 220.0372825112301 48.47635713332619  219.7840681639347 48.80803791250808  219.3467756587164 48.80803791250808  C 219.3467756587164 48.80803791250808  219.05508445691157 48.80803791250808  219.05508445691157 48.80803791250808  C 219.05508445691157 48.80803791250808  218.84034696412562 48.56056245501274  218.84034696412562 48.56056245501274  C 218.62551785978127 48.28754438659792  218.6868670666935 47.94567397908858  218.76867618830525 47.61908801407042  C 218.90688749267807 47.08075121523708  219.07823164398948 46.65720385420616  219.21378621316993 46.32554592172456  C 219.23678071431723 46.26684513312369  219.2623708762846 46.205623591924606  219.28539591461805 46.14693041889049  C 219.19063902609207 46.14183560472677  219.07053627308758 46.13672555942952  218.90688749267807 46.13672555942952  C 217.8275506493162 46.13672555942952  217.558945560217 46.28982891361116  216.57430453100898 46.85111903066492  C 216.11896454879462 47.11136579362  215.54352181357578 47.4379441430714  214.70713882297346 47.851263797941066  C 212.82473505906484 48.79272300774986  212.7096098673977 49.144828736987215  212.32340607455575 50.313361300936165  C 212.21087654370876 50.6577905388775  212.07785656097613 51.058354119420954  211.88614410652366 51.54056419121895  C 211.88614410652366 51.54056419121895  211.7913566808115 51.77529118995483  211.7913566808115 51.77529118995483  C 211.7913566808115 51.77529118995483  211.42817792630296 52.23963514212936  211.42817792630296 52.23963514212936  C 209.64037836498972 52.97188711742146  208.39739274121834 53.37247354466519  207.61735085900486 53.464309664247175  C 207.47147472091635 53.482175783870645  207.33588961454979 53.48982942846637  207.20815256501567 53.48982942846637  C 206.609562642719 53.48982942846637  206.2054945959977 53.31378798719784  205.93698111845683 53.19388088853141  C 205.85001121239108 53.153030988420475  205.72972523626996 53.102021922249136  205.6939051169528 53.102021922249136  C 205.6786365238935 53.10456552154762  205.47910654979458 53.158148649284485  204.89850303012176 53.9057155293348  C 204.6274244289469 54.2552548125734  204.37414900727927 54.61244012484095  204.13385188971208 54.954310532350284  Z M 192.18187207756816 25.299544875138313  C 192.18187207756816 25.299544875138313  192.48370162516437 25.47305033267513  192.48370162516437 25.47305033267513  C 194.0950267878983 26.442572906001594  194.38650422940034 26.616055516838124  194.13072475847096 27.366181227320446  C 194.09243112707819 27.480985896256385  194.05398480975487 27.59835701119109  194.105256745248 27.896856765991295  C 194.34045415273349 29.31288001856911  193.15121397653084 30.267102918270883  191.8903030245078 31.280011375440008  C 191.60630719360483 31.50962071331188  191.30960789327656 31.746914158046536  191.01296966732048 32.00458685943609  C 190.28920781912362 32.616924120495  189.89784324182767 33.59921799928121  189.6932440948331 34.300855396190386  C 189.6932440948331 34.300855396190386  190.1715175038226 33.951316112951794  190.1715175038226 33.951316112951794  C 190.94386401513418 33.37979067417001  191.6652134256276 32.772578689541874  192.19973633144753 32.234226659575015  C 193.34808721543737 31.09119862871173  194.91604957388287 30.417639826453748  196.72940875997742 29.631789492291258  C 197.18972630352917 29.437904778099547  197.6679997125186 29.231233527314572  198.16673303620755 29.006719003606417  C 199.184690135471 28.542359820298365  199.3228098282854 28.30509683783076  199.3356354464552 28.279569458044804  C 199.3356354464552 28.279569458044804  199.32027524183755 28.284671887775293  199.32027524183755 28.284671887775293  C 199.26402574500716 28.284671887775293  199.09775076659133 28.141796239754914  198.9852517729304 28.042298860010437  C 198.87522629134517 27.94788867886292  198.76523134694594 27.850942513983682  198.663023385007 27.746327473375192  C 198.4532329163722 27.539671453723738  198.2664674860709 27.3763708556479  198.077228543694 27.21309310427234  C 197.665526200443 26.855900176438023  197.24087609027785 26.483392343845484  196.60912278385632 25.695006025951276  C 196.2332710971086 25.23066968934351  196.05920913623262 24.79182265468789  195.9338845244019 24.47800799512947  C 195.88020015120534 24.342785991704822  195.80859044975722 24.1590832902738  195.7676706203583 24.120807451728393  C 195.7676706203583 24.120807451728393  195.6705318313151 24.118248621296384  195.6705318313151 24.118248621296384  C 195.55281097882786 24.118248621296384  195.47869722811802 24.128468711890882  195.3993310813958 24.14376838551558  C 194.12819017202307 24.35042440516703  193.73685613191324 24.54688318092427  192.4452858450272 25.18729903663438  C 192.36085052540926 25.23066968934351  192.27134603289562 25.266371466323392  192.18187207756816 25.299544875138313  Z M 218.29553302658374 27.29473197996012  C 218.29553302658374 27.29473197996012  218.29302897732197 27.29473197996012  218.29302897732197 27.29473197996012  C 217.43371255994467 27.29473197996012  216.80693681486045 27.05489493592698  216.42592434365875 26.58289733915673  C 216.22642490674593 26.33286305122938  216.04488133527084 26.197633432237975  215.87091098595323 26.067513858543816  C 215.03712365617102 25.455184213051666  214.96047531901334 24.916839798651566  215.43612252999662 23.169143382458625  C 216.07557120732005 20.819322180234508  216.27754415630844 19.793653840955788  215.878575819669 18.369984559349007  C 215.40292860868578 16.706478233709085  215.45398678387605 15.41037731093122  216.03709435281058 14.417889996034186  C 216.93742221114522 12.871743361978837  218.8863359664202 12.402296980073816  220.9452752032805 11.907315602816086  C 222.14224128757118 11.616465684828233  223.3801272012607 11.320501913759742  224.42382714842213 10.800023618983104  C 224.78938780344785 10.616324725335467  225.16041461478886 10.52191454418795  225.52350175773893 10.52191454418795  C 227.5925793403906 10.52191454418795  228.73598320022924 13.40754417708045  229.5697705300114 15.514988543756335  C 229.77953046146007 16.040569268263447  229.96357808219685 16.50492083600474  230.13238764706045 16.841711660483874  C 231.43931813856418 19.459429462475423  227.5978011992169 21.753135361014333  226.3368902471939 22.503230609229607  C 224.6283652210445 23.51866743456369  224.0272407123 24.26624193018077  222.7101413378187 25.89911844630425  C 222.7101413378187 25.89911844630425  222.05786704232548 26.70281966895668  222.05786704232548 26.70281966895668  C 222.05786704232548 26.70281966895668  221.68708452847346 26.613511917539643  221.68708452847346 26.613511917539643  C 221.5131447163419 26.572692479695757  221.45683414513923 26.570148880397277  221.44907769986511 26.570148880397277  C 221.22411024972942 26.71810411144785  219.62820636598542 27.29473197996012  218.29553302658374 27.29473197996012  Z M 195.62698580390995 17.201444379833294  L 196.03877975871922 16.111999476706877  L 196.5963887772448 16.323773157222337  C 196.5963887772448 16.323773157222337  196.05920913623262 16.053332958156428  196.05920913623262 16.053332958156428  C 196.389163432244 15.178205334843957  196.8009573870533 14.091307838799404  197.43781040355663 12.838577568730669  C 198.60924740025212 10.501512440832768  198.33554260107115 8.835451092544218  198.08736688948537 8.082789398330176  C 198.08736688948537 8.082789398330176  192.61666053352474 10.075429096070131  192.61666053352474 10.075429096070131  C 192.61666053352474 10.075429096070131  192.94148458226832 8.950263377046925  192.94148458226832 8.950263377046925  C 192.97724362721314 8.812490158757043  193.9133305304926 5.6207071264685995  195.83161548809065 4.186829177617477  C 196.928847122518 3.370379496205596  198.31257863710997 2.872858327432759  199.78328005776777 2.344722580277012  C 200.8471956221397 1.9620136960068904  201.9469618430148 1.5665411218437766  203.04428508900054 1.0179918479827044  C 204.73732776178775 0.17349022640329154  206.74004803900368 0  208.11861876914165 0  C 209.0189160902901 0  209.62254464829644 0.07399284665881131  209.62254464829644 0.07399284665881131  C 209.62254464829644 0.07399284665881131  210.0496377333512 0.1275607432621541  210.0496377333512 0.1275607432621541  C 210.0496377333512 0.1275607432621541  210.1341341273413 0.5485530816444533  210.1341341273413 0.5485530816444533  C 210.1545024304824 0.6506016762541765  210.6224848077499 3.099935489356305  208.64040766835018 5.0849063113669875  C 207.39739150739263 6.327439337541518  206.85257756985072 7.54955502922733  206.87813719463202 9.04722477305968  C 206.87813719463202 9.04722477305968  206.87813719463202 9.258987030225006  206.87813719463202 9.258987030225006  C 206.87813719463202 9.258987030225006  206.74774340990558 9.42737863468119  206.74774340990558 9.42737863468119  C 204.24119009891888 12.616610452104371  203.57361667318025 12.887054458953662  203.32550203596665 12.99166188399539  C 202.87031473968284 13.170250732345794  202.35365608774237 13.683079190310082  201.80884215020038 14.226537457790812  C 201.1873493383147 14.843969533013444  200.54539661172956 15.48182655829155  199.79088381711125 15.856870374615808  C 198.76523134694594 16.379899884257693  198.21534823650833 16.52022431741282  197.38149983235394 16.73453778944338  C 197.38149983235394 16.73453778944338  195.62698580390995 17.201444379833294  195.62698580390995 17.201444379833294  Z " fill-rule="nonzero" fill="#4b636b" stroke="none" transform="matrix(1 0 0 1 3113 70 )" />
  </g>
</svg>