<?xml version="1.0" encoding="utf-8"?>
<svg version="1.1" xmlns:xlink="http://www.w3.org/1999/xlink" width="254px" height="197px" xmlns="http://www.w3.org/2000/svg">
  <defs>
    <mask fill="white" id="clip1103">
      <path d="M 253.82362650601397 46.94049093988231  C 254.71238547138685 43.83104596245771  252.04348614779883 38.94475133462739  250.25822290801565 35.3808410425067  C 248.4908287670353 31.819536839212745  244.9357319188584 25.598086516393327  246.71068840882015 22.036767072813802  C 248.4908287670353 18.485597659401616  246.71068840882015 12.705810811427588  242.261648727017 14.038451859303287  C 237.81267003189916 15.368532539208758  234.24982787468483 12.256542434099496  231.5809285510968 10.926431273622898  C 229.6067895468341 9.938479763724542  226.41932043785079 7.252760445068944  224.88953042293184 5.9227254860200835  C 223.10945105140206 6.520114198476693  221.10701422514435 7.2374591983904075  220.57325875510088 7.592314006820375  C 219.57204034197204 8.25348331424693  215.90204457862583 5.9227254860200835  215.23289866714077 4.2581967400178256  C 214.57137609132252 2.5885929789319686  212.90357320749268 2.2541753934063666  211.56534237120795 4.2581967400178256  C 210.2397967654727 6.249492448206402  211.56534237120795 6.925993482882625  209.9077242638289 6.591545416785837  C 208.2400433533697 6.249492448206402  207.56321311953258 6.249492448206402  204.23279122012627 7.592314006820375  C 200.9024303074053 8.919834318755727  202.55748697400034 8.593036875998363  199.57182280678734 9.25682751253704  C 196.5555738168793 9.925662683588387  198.22081525992513 11.258318971749539  195.89155078696234 13.25976471010543  C 193.55716343243148 15.263831777573525  194.56088229965903 15.927607173826724  193.55716343243148 14.931974560018014  C 192.56112888755604 13.92867608258443  193.23027479904107 12.598610642964438  191.22539850537 12.598610642964438  C 189.22049171835627 12.598610642964438  186.88366489641214 12.598610642964438  185.55293542242347 11.258318971749539  C 184.2121431453547 9.925662683588387  180.21513677524743 11.258318971749539  178.21026048157637 11.924609015116246  C 176.2079151353466 12.598610642964438  176.5477024526852 14.594996606522178  175.2144420312552 17.25765737316115  C 173.87618070162787 19.925499836882555  174.5504190013382 20.262462550092827  172.5429202801978 20.92364709780486  C 170.53798299984143 21.595088357682847  172.2058773636993 23.596579816895346  172.5429202801978 26.256725936420807  C 172.86727796614687 28.92712876811225  171.544354787881 29.930381524689196  170.2060934582536 32.59814778698292  C 168.8702715960396 35.260839034192934  167.2025601922377 34.27287228400902  167.2025601922377 32.59814778698292  C 167.2025601922377 30.938770257491974  165.8693607574931 30.938770257491974  163.86454545050734 32.26632104999848  C 161.86467006503366 33.59890113673187  160.87128844097023 33.26702867889079  156.8614443736001 34.27287228400902  C 152.85934561526742 35.260839034192934  151.86078012295062 35.260839034192934  148.52523534197627 36.598585577723306  C 145.1846286661192 37.931226625598896  139.1802150548994 35.932234573214394  136.17924322966758 35.60290724305787  C 133.18345527268912 35.260839034192934  131.17592605820604 35.60290724305787  129.84534905093074 35.260839034192934  C 128.50452628051937 34.93411779286317  130.84391454324754 32.93262633365075  128.1750457130022 32.59814778698292  C 125.51133025766755 32.26632104999848  123.83837399892697 30.259663133989108  121.83599815935466 29.264045760465876  C 119.83883668137831 28.263292410716847  121.83599815935466 25.927368125693242  119.83883668137831 27.25749452645532  C 117.83649133514866 28.597725236528042  117.83649133514866 29.595918218306956  115.49698109904969 29.930381524689196  C 113.16015427710555 30.259663133989108  114.1638121576477 28.92712876811225  112.83067370958837 30.938770257491974  C 111.49494332740234 32.93262633365075  110.49378590095883 33.26702867889079  108.49394100882787 35.60290724305787  C 106.48900372847143 37.931226625598896  104.83153808780571 34.59712459908185  103.49580770561967 33.93334920282863  C 102.1575158826496 33.26702867889079  102.1575158826496 31.602545653745167  102.82413084669334 29.930381524689196  C 103.49580770561967 28.263292410716847  103.15876478912114 27.931496154303534  102.82413084669334 26.588613634547364  C 102.48705743685207 25.2687591862368  101.49099239863395 24.597363647215424  101.49099239863395 23.267222006167753  C 101.49099239863395 21.929490702922973  102.82413084669334 21.929490702922973  103.82784971392088 20.92364709780486  C 104.83153808780571 19.925499836882555  103.15876478912114 17.592120679543502  101.82547387434846 16.930936131831466  C 100.48980447884782 16.267160735578155  102.1575158826496 13.92867608258443  100.48980447884782 14.25801865302643  C 98.81690920679252 14.594996606522178  97.82593655679979 13.25976471010543  97.82593655679979 13.25976471010543  C 97.82593655679979 13.25976471010543  98.48748962596079 9.925662683588387  97.15175924377476 8.593036875998363  C 95.81855980903005 7.260472029550344  95.48389537325959 7.260472029550344  93.14959949875667 7.592314006820375  C 90.81521214422584 7.921626096691334  90.81521214422584 5.256389721796768  89.81667714525167 4.2581967400178256  C 89.71193251319048 4.1585862337517865  89.6149331901667 4.076944024133214  89.52805765690842 4.000376829598241  C 88.830918856855 4.7330230761904915  88.47582388149759 5.256389721796768  88.47582388149759 5.256389721796768  C 88.47582388149759 5.256389721796768  88.830918856855 4.7330230761904915  89.52805765690842 4.000376829598241  C 88.73123611967652 3.326390442035614  88.3430558675254 3.594451824335673  87.14009349931156 3.594451824335673  C 85.80689406456695 3.594451824335673  86.14918183600416 0.5947673833443459  85.13777864642454 0.2552138215929136  C 84.14677550308913 -0.08427877901640125  83.1380557276642 1.5852792612128184  81.47022235049168 3.2574433902687936  C 79.81013428235659 4.927092872211289  78.13476904954537 3.594451824335673  76.47468098141023 3.594451824335673  C 74.79663233444425 3.594451824335673  75.80550457658252 0.9215343455306649  74.13007835708592 0.2552138215929136  C 72.4674288481668 -0.4110914620593581  70.79715600358094 0.2552138215929136  69.46898797037632 1.927393190934369  C 68.13584952231699 3.594451824335673  67.46161122260662 3.9211730656654677  65.46179682381822 4.2581967400178256  C 63.4594819709312 4.592629565829021  63.4594819709312 2.9255709324277173  61.79680196866947 3.2574433902687936  C 60.126498630740926 3.594451824335673  59.45476078512914 5.5933676752924875  58.124183777853894 7.592314006820375  C 56.78848388901048 9.586185323264608  56.12690032650687 9.586185323264608  54.783546608654085 9.586185323264608  C 53.44784671981078 9.586185323264608  52.45181217493532 9.586185323264608  51.12117418097463 9.925662683588387  C 49.785413305445935 10.255005254030388  49.44837038894739 10.255005254030388  48.11767140830142 11.258318971749539  C 46.784471973556755 12.256542434099496  46.11538704875706 12.927937973120962  45.1141381422856 12.927937973120962  C 44.115481169940715 12.927937973120962  44.115481169940715 11.592751797560735  42.11072684964033 11.592751797560735  C 40.1058200626266 11.592751797560735  39.44179703270963 12.927937973120962  39.44179703270963 12.927937973120962  C 39.44179703270963 12.927937973120962  36.10878319917663 13.594258497058712  33.774456831331115 13.594258497058712  C 31.43494659523227 13.594258497058712  30.765831177089847 15.263831777573525  29.767296178115696 16.267160735578155  C 28.763516324202815 17.25765737316115  28.763516324202815 17.926538265069105  27.10083632194103 18.258425963195773  C 25.430624464040484 18.59029842103685  26.09967889549751 16.267160735578155  25.098521469054 16.930936131831466  C 24.094802601826455 17.592120679543502  24.094802601826455 19.2616939600582  23.762760593525304 20.262462550092827  C 23.43081006525221 21.25806468333046  21.099014644847998 22.26395400930524  21.428434225679787 23.596579816895346  C 21.768130062990362 24.931765992455492  21.428434225679787 27.597002367350143  20.756787860096118 28.597725236528042  C 20.097826725061818 29.595918218306956  19.423527438666063 29.595918218306956  18.430054334574635 31.939508366955444  C 17.42898838815918 34.27287228400902  17.42898838815918 35.260839034192934  19.101761686843698 35.260839034192934  C 20.756787860096118 35.260839034192934  21.428434225679787 37.264875621089985  20.097826725061818 38.60519777287596  C 18.75703444799312 39.94036870815062  20.756787860096118 42.60566604418736  21.768130062990362 45.597669381268446  C 22.764195101208482 48.61004898011155  21.099014644847998 48.94195191852376  19.101761686843698 49.940144900302585  C 17.094384939073944 50.93579275439697  19.101761686843698 52.93728421360939  19.763314756004696 56.27393136781098  C 20.43499161493103 59.61062424286919  22.09758013716482 58.275422827023455  22.764195101208482 59.61062424286919  C 23.43081006525221 60.93817503537569  24.094802601826455 62.27843622601947  23.101268511049692 63.27408408011382  C 22.09758013716482 64.27994292551753  21.768130062990362 65.61261445396417  23.43081006525221 67.60893945637979  C 25.098521469054 69.61038519473571  22.764195101208482 73.28155661646166  24.094802601826455 73.28155661646166  C 25.430624464040484 73.28155661646166  26.429159463014695 74.94856952900632  25.430624464040484 76.28121057688195  C 24.43705987992106 77.61388210532864  28.720124297587653 78.6044092234827  31.059573547001225 78.2928673065472  C 31.539782707321418 77.4121312053975  31.887010400270743 76.72028320318624  31.887010400270743 76.72028320318624  C 31.887010400270743 76.72028320318624  31.539782707321418 77.4121312053975  31.059573547001225 78.2928673065472  C 31.074881205020127 78.28527764435012  31.09031083640958 78.28527764435012  31.100465119517693 78.2801569084099  C 33.4398838755886 77.94313323405744  34.43844936790542 78.2801569084099  35.43451440612355 79.61023758831533  C 36.44088619416311 80.94537804301898  38.44564051446351 81.28496208534142  41.117162265520896 80.94537804301898  C 43.76822298364873 80.61865680168916  43.44383480435705 80.27904227879557  44.44752317824187 80.27904227879557  C 45.45133352549742 80.27904227879557  45.1141381422856 81.61427417521239  46.784471973556755 81.94870700102358  C 48.44715197581854 82.29079045017411  49.44837038894739 82.94944511048703  50.44690538792154 85.28535415522516  C 51.44809330770778 87.61876379313533  50.44690538792154 89.28577670568  53.120927593077624 89.95211246990334  C 55.78985741000838 90.6158573855855  54.783546608654085 90.9528505793668  56.45644188070938 90.28651481514346  C 58.124183777853894 89.61767964409215  58.124183777853894 90.9528505793668  58.78570635367211 92.61992445305367  C 59.45476078512914 94.29199714039638  60.126498630740926 95.61954793290282  60.78805169990181 98.2899507645943  C 61.45975905217087 100.95776274774458  61.79680196866947 101.29475594152588  60.126498630740926 102.62480614086031  C 58.45628677284032 103.94973560425451  50.7840702777908 102.29293368301923  48.44715197581854 103.29364131191163  C 46.11538704875706 104.28419891063677  45.77822215888784 105.95630207855059  44.77956518654308 107.6208765454095  C 43.76822298364873 109.29813092983457  44.115481169940715 111.62891923863246  43.44383480435705 111.96076121590247  C 42.777311320341326 112.2952854834269  42.447739272796206 108.29224160385981  42.447739272796206 108.29224160385981  C 42.447739272796206 108.29224160385981  42.11072684964033 109.96443621348685  40.44804684737859 110.62562076119889  C 38.775243055351304 111.28939615745216  37.439421193137264 110.96008406758122  37.11000161230554 112.2952854834269  C 36.778020590689664 113.6227753147912  36.778020590689664 114.29417085381267  35.43451440612355 113.95473921434555  C 34.108968800388354 113.6227753147912  32.76817652331954 112.95137977576975  31.769580537660058 114.29417085381267  C 30.765831177089847 115.62681190168824  31.100465119517693 115.62681190168824  29.10058973404403 116.2931171853405  C 27.10083632194103 116.95942246899278  29.10058973404403 118.29974462077875  30.765831177089847 118.63417744658996  C 32.43616500836106 118.96345905588984  33.4398838755886 118.96345905588984  32.43616500836106 120.63053292957665  C 31.43494659523227 122.2899256993531  30.106961522083605 121.95808372208316  29.10058973404403 122.2899256993531  C 28.10723860332327 122.62947926110455  27.432939316927516 123.62250578608658  27.762389391101973 125.29982113165386  C 28.10723860332327 126.96689500534072  29.442877505481352 125.63675336429303  30.439003530384753 124.96282793787256  C 31.43494659523227 124.29393180567908  32.10674542752927 125.63675336429303  31.769580537660058 126.96689500534072  C 31.43494659523227 128.29944461150308  30.439003530384753 128.29944461150308  30.765831177089847 129.6296167331218  C 31.100465119517693 130.96734803636656  32.10674542752927 131.6259417355374  34.43844936790542 131.97055507208694  C 36.778020590689664 132.29992812310005  35.76917884189406 135.30214245149043  34.43844936790542 135.97359895165403  C 33.102779972404726 136.632253611967  32.76817652331954 136.632253611967  32.10674542752927 137.6330222020016  C 31.43494659523227 138.63116946292382  31.43494659523227 138.96301144019384  30.106961522083605 139.29494485917712  C 28.763516324202815 139.6319075723873  27.10083632194103 139.29494485917712  27.10083632194103 139.29494485917712  C 27.10083632194103 139.29494485917712  25.76769787388175 140.63773593721993  23.101268511049692 140.9696693562032  C 20.43499161493103 141.3015418140443  23.101268511049692 140.9696693562032  22.09758013716482 142.30733969830578  C 21.099014644847998 143.63748133935343  21.099014644847998 143.63748133935343  21.768130062990362 144.96753153868784  C 22.427060704681942 146.3001725865635  21.428434225679787 147.29831984748574  20.097826725061818 147.97233671561943  C 18.75703444799312 148.64117188667078  19.101761686843698 146.3001725865635  18.09029751057873 146.3001725865635  C 17.094384939073944 146.3001725865635  17.766061798000333 147.97233671561943  16.090574591818452 149.63938010873517  C 14.42542462880058 151.30639302127983  12.420578828472186 148.97048397654171  12.088567313513702 147.97233671561943  C 11.748901969545795 146.96897727704376  12.757682731656065 145.3045856936113  12.757682731656065 145.3045856936113  C 12.757682731656065 145.3045856936113  10.418172495557156 142.96861568773105  11.419299428658004 141.96784709769656  C 12.420578828472186 140.9696693562032  10.088752914725424 139.97146113413874  9.422168444024425 141.3015418140443  C 8.75811492076473 142.63924263671794  8.75811492076473 142.30733969830578  7.077626806385402 143.30810828834032  C 5.422570139790366 144.3063165104048  4.745800892638583 144.6382194488169  4.086900744289671 146.63454445123256  C 3.4152543787059466 148.64117188667078  3.077998008808734 149.97125256657625  1.4103170983495537 150.3107756477566  C -0.24727051568678712 150.64008773762757  -0.24727051568678712 152.30463172391535  0.40912917856337216 154.30354757487214  C 1.0833979716164606 156.29993353842997  2.07684058236522 155.64124839754587  3.077998008808734 154.63292062588525  C 4.086900744289671 153.637272771791  5.7520812006501565 155.3042856843356  6.4186961646938805 157.64284653875708  C 7.077626806385402 159.976164734954  6.753208133751005 160.63987917006517  4.416381311806851 161.97764095388095  C 2.07684058236522 163.30516126581634  1.7551053238855194 163.6446843469967  0.7462940684325834 165.30663748474328  C -0.1042262452358654 166.74138844571291  3.435593438264904 167.9208646239475  4.462273792520655 168.22722484380068  C 5.565583916898678 168.14547595218326  6.474895395229137 168.45436605943547  6.97541312176556 169.1947391307947  C 7.861732619725087 170.53247043403945  7.419792604452004 175.8655035517988  9.641842484597618 176.75901101222806  C 11.86639281884187 177.64998858525826  14.095913567940787 178.53328505437804  15.87858487359735 178.53328505437804  C 16.966648326641806 178.53328505437804  19.776030479896786 179.9042706606633  21.752822404971575 180.93561126348388  C 21.699184615220233 180.82844157559177  21.648047279567706 180.75693415585496  21.648047279567706 180.75693415585496  C 21.648047279567706 180.75693415585496  23.877781482065295 178.98013022630585  25.65279895871243 178.98013022630585  C 27.432939316927516 178.98013022630585  26.98846835421307 182.54141918931427  28.32685165721113 184.31054201495294  C 29.6497443421344 186.0950880095545  32.323797040633096 185.19649029375617  33.659435942791134 186.53931185237008  C 34.9901349234371 187.87701267504377  34.108968800388354 188.75774877619347  33.659435942791134 190.09541911829612  C 33.22020983501541 191.42565220105695  34.9901349234371 190.547293584451  35.43451440612355 192.31144807700474  C 35.886547717819404 194.0985239590054  37.65650329958376 200.76672801203935  39.88614602205341 194.0985239590054  C 42.11072684964033 187.4251077283179  42.55504534564144 183.8714389080777  43.88565284625941 182.97793144764842  C 45.218882774346746 182.09469593967074  46.11538704875706 179.42429310797928  46.11538704875706 177.64998858525826  C 46.11538704875706 175.87062428773908  49.67313681774603 174.53542287189333  51.01133716068803 174.09125999021992  C 52.33941371386464 173.64700566683328  53.23070362667889 170.98431441962322  54.122085019521144 169.1947391307947  C 55.00834353079533 167.42299497604375  66.12838129451923 165.1994373162801  67.90599070529301 165.64366115909567  C 69.6810386752828 166.087793560198  69.69122345173353 165.64366115909567  73.24888174069451 162.97325832740418  C 76.79891669398867 160.3105670801942  80.36435078532963 159.86384383055068  85.25273854827918 162.53156437198766  C 90.14612721942613 165.1994373162801  88.82061210703361 165.64366115909567  88.82061210703361 165.64366115909567  C 88.82061210703361 165.64366115909567  93.7063774425138 164.75006225695324  95.03960737060108 160.7496397064984  C 96.37789919357114 156.75183848515584  94.59263595378799 155.86592068692377  95.48389537325959 153.1956397775166  C 96.37789919357114 150.53032720119432  98.15035522943424 153.1956397775166  100.37737552443447 152.30463172391535  C 102.596863963796 151.41612307714206  103.93765624086475 150.53032720119432  106.60402461701142 151.41612307714206  C 109.27045397984342 152.30463172391535  111.49494332740234 150.96939982749853  111.49494332740234 146.96897727704376  C 111.49494332740234 142.96861568773105  113.28017607384292 138.96813217613408  115.05516305714728 139.84889875785484  C 116.8302110271371 140.75002636105225  119.50423323229319 143.41530845680356  119.94605127419554 141.19168983589776  C 120.39552314510738 138.96301144019384  120.38796079612595 137.62787098549023  122.17057111509718 135.40684321312568  C 123.95071147331227 133.1806642242498  124.39512144934143 130.52306323240887  124.39512144934143 130.52306323240887  C 124.39512144934143 130.52306323240887  123.95071147331227 133.1806642242498  126.17526180755652 134.96774010625032  C 128.3946892602327 136.7394232998591  129.7279191883201 138.08486618758536  131.06105763637936 136.7394232998591  C 132.39675752522274 135.40684321312568  132.85144375773064 135.8535359821981  134.6289311951338 133.1806642242498  C 136.40657109925024 130.52306323240887  136.40657109925024 129.62446551661048  136.40657109925024 127.405998112216  C 136.40657109925024 125.17469838739984  135.0682182895948 122.08061561779597  137.29276862383904 122.51712787613005  C 139.517257971398 122.96141268008778  140.84795695204394 123.41578655307065  143.96635863988652 121.62362041570083  C 147.07463653796356 119.85443662892006  148.4051830518962 121.1845173088255  150.63991816259124 121.1845173088255  C 152.85934561526742 121.1845173088255  153.30878699283664 119.85443662892006  156.41709538425633 118.96345905588984  C 159.5380585128829 118.06995159546064  159.97728462065862 119.85443662892006  162.64121352939196 118.96345905588984  C 165.32023664274544 118.06995159546064  167.09272317195112 118.06995159546064  166.2039337132356 115.84889334252495  C 165.32023664274544 113.6227753147912  166.2039337132356 109.63512412361588  171.544354787881 108.29224160385981  C 176.8796529809584 106.95454078118608  177.32397147695946 109.17306914672277  181.32363076787885 106.51543767431076  C 185.32829096699552 103.8527769076718  188.89101115083915 101.6189472954566  191.56253290189653 100.28633672815207  C 194.22374790313248 98.95113531230633  190.67115150905428 99.40300977846118  193.78196035457276 96.73010753994174  C 196.8952696541899 94.06226507622044  197.79171294191485 94.9558334977918  201.34171740186636 94.06226507622044  C 204.8968752367286 93.17390883230247  208.4545335256895 90.50100659378303  203.56882917689464 88.73432221383018  C 198.67290955830634 86.94983718037079  197.79171294191485 86.50570477926844  197.79171294191485 84.72883988857727  C 197.79171294191485 82.94944511048703  195.1125068685054 83.39622932127273  194.22374790313248 82.06102790542698  C 193.34005083264233 80.72841733812244  193.33242749697558 80.72841733812244  194.22374790313248 77.61388210532864  C 195.1125068685054 74.50181579879172  194.67071931994565 74.50181579879172  198.22081525992513 74.94856952900632  C 201.78868881867947 75.39279337182195  201.78868881867947 75.39279337182195  203.56882917689464 77.16709789454295  C 205.34884756173912 78.94902256003228  206.2326056189146 79.39577629024683  208.01268499044443 76.72028320318624  C 209.78776345377685 74.04994133263692  211.5780276017574 74.04994133263692  213.3504836376205 75.83445684666734  C 215.13586885077436 77.61388210532864  219.57204034197204 78.94902256003228  220.46604416228362 80.72841733812244  C 221.35480312765654 82.50269138027248  221.35480312765654 85.17050336342271  220.02163418625452 86.94983718037079  C 218.69102668563656 88.73432221383018  220.02163418625452 91.39960430958148  223.13744393997038 89.61767964409215  C 226.24819179880348 87.83575497860288  227.13194985597897 91.83870741645674  225.3517485110785 94.06226507622044  C 223.58703778425286 96.28329284858498  224.46805144058834 98.06780836261544  227.59172847671226 98.51203220543101  C 230.7023543621747 98.95113531230633  234.7045446005354 100.28633672815207  235.58568023024154 101.6189472954566  C 236.46919434067573 102.9540877501602  240.9234788774176 102.0657010256712  241.36770589339073 98.06780836261544  C 241.81217685610517 94.06226507622044  241.81217685610517 91.39960430958148  244.47083041655708 88.2799788214185  C 247.16022126641732 85.17050336342271  246.71068840882015 79.83231902915205  248.04647977769153 76.72028320318624  C 249.37970970577885 73.61342907430274  254.25772973222166 58.94434943978799  252.92718321828897 56.27393136781098  C 251.59395329020165 53.60358949726166  252.92718321828897 50.04225481339666  253.82362650601397 46.94049093988231  Z " fill-rule="evenodd" />
    </mask>
  </defs>
  <g transform="matrix(1 0 0 1 -3226 -465 )">
    <path d="M 253.82362650601397 46.94049093988231  C 254.71238547138685 43.83104596245771  252.04348614779883 38.94475133462739  250.25822290801565 35.3808410425067  C 248.4908287670353 31.819536839212745  244.9357319188584 25.598086516393327  246.71068840882015 22.036767072813802  C 248.4908287670353 18.485597659401616  246.71068840882015 12.705810811427588  242.261648727017 14.038451859303287  C 237.81267003189916 15.368532539208758  234.24982787468483 12.256542434099496  231.5809285510968 10.926431273622898  C 229.6067895468341 9.938479763724542  226.41932043785079 7.252760445068944  224.88953042293184 5.9227254860200835  C 223.10945105140206 6.520114198476693  221.10701422514435 7.2374591983904075  220.57325875510088 7.592314006820375  C 219.57204034197204 8.25348331424693  215.90204457862583 5.9227254860200835  215.23289866714077 4.2581967400178256  C 214.57137609132252 2.5885929789319686  212.90357320749268 2.2541753934063666  211.56534237120795 4.2581967400178256  C 210.2397967654727 6.249492448206402  211.56534237120795 6.925993482882625  209.9077242638289 6.591545416785837  C 208.2400433533697 6.249492448206402  207.56321311953258 6.249492448206402  204.23279122012627 7.592314006820375  C 200.9024303074053 8.919834318755727  202.55748697400034 8.593036875998363  199.57182280678734 9.25682751253704  C 196.5555738168793 9.925662683588387  198.22081525992513 11.258318971749539  195.89155078696234 13.25976471010543  C 193.55716343243148 15.263831777573525  194.56088229965903 15.927607173826724  193.55716343243148 14.931974560018014  C 192.56112888755604 13.92867608258443  193.23027479904107 12.598610642964438  191.22539850537 12.598610642964438  C 189.22049171835627 12.598610642964438  186.88366489641214 12.598610642964438  185.55293542242347 11.258318971749539  C 184.2121431453547 9.925662683588387  180.21513677524743 11.258318971749539  178.21026048157637 11.924609015116246  C 176.2079151353466 12.598610642964438  176.5477024526852 14.594996606522178  175.2144420312552 17.25765737316115  C 173.87618070162787 19.925499836882555  174.5504190013382 20.262462550092827  172.5429202801978 20.92364709780486  C 170.53798299984143 21.595088357682847  172.2058773636993 23.596579816895346  172.5429202801978 26.256725936420807  C 172.86727796614687 28.92712876811225  171.544354787881 29.930381524689196  170.2060934582536 32.59814778698292  C 168.8702715960396 35.260839034192934  167.2025601922377 34.27287228400902  167.2025601922377 32.59814778698292  C 167.2025601922377 30.938770257491974  165.8693607574931 30.938770257491974  163.86454545050734 32.26632104999848  C 161.86467006503366 33.59890113673187  160.87128844097023 33.26702867889079  156.8614443736001 34.27287228400902  C 152.85934561526742 35.260839034192934  151.86078012295062 35.260839034192934  148.52523534197627 36.598585577723306  C 145.1846286661192 37.931226625598896  139.1802150548994 35.932234573214394  136.17924322966758 35.60290724305787  C 133.18345527268912 35.260839034192934  131.17592605820604 35.60290724305787  129.84534905093074 35.260839034192934  C 128.50452628051937 34.93411779286317  130.84391454324754 32.93262633365075  128.1750457130022 32.59814778698292  C 125.51133025766755 32.26632104999848  123.83837399892697 30.259663133989108  121.83599815935466 29.264045760465876  C 119.83883668137831 28.263292410716847  121.83599815935466 25.927368125693242  119.83883668137831 27.25749452645532  C 117.83649133514866 28.597725236528042  117.83649133514866 29.595918218306956  115.49698109904969 29.930381524689196  C 113.16015427710555 30.259663133989108  114.1638121576477 28.92712876811225  112.83067370958837 30.938770257491974  C 111.49494332740234 32.93262633365075  110.49378590095883 33.26702867889079  108.49394100882787 35.60290724305787  C 106.48900372847143 37.931226625598896  104.83153808780571 34.59712459908185  103.49580770561967 33.93334920282863  C 102.1575158826496 33.26702867889079  102.1575158826496 31.602545653745167  102.82413084669334 29.930381524689196  C 103.49580770561967 28.263292410716847  103.15876478912114 27.931496154303534  102.82413084669334 26.588613634547364  C 102.48705743685207 25.2687591862368  101.49099239863395 24.597363647215424  101.49099239863395 23.267222006167753  C 101.49099239863395 21.929490702922973  102.82413084669334 21.929490702922973  103.82784971392088 20.92364709780486  C 104.83153808780571 19.925499836882555  103.15876478912114 17.592120679543502  101.82547387434846 16.930936131831466  C 100.48980447884782 16.267160735578155  102.1575158826496 13.92867608258443  100.48980447884782 14.25801865302643  C 98.81690920679252 14.594996606522178  97.82593655679979 13.25976471010543  97.82593655679979 13.25976471010543  C 97.82593655679979 13.25976471010543  98.48748962596079 9.925662683588387  97.15175924377476 8.593036875998363  C 95.81855980903005 7.260472029550344  95.48389537325959 7.260472029550344  93.14959949875667 7.592314006820375  C 90.81521214422584 7.921626096691334  90.81521214422584 5.256389721796768  89.81667714525167 4.2581967400178256  C 89.71193251319048 4.1585862337517865  89.6149331901667 4.076944024133214  89.52805765690842 4.000376829598241  C 88.830918856855 4.7330230761904915  88.47582388149759 5.256389721796768  88.47582388149759 5.256389721796768  C 88.47582388149759 5.256389721796768  88.830918856855 4.7330230761904915  89.52805765690842 4.000376829598241  C 88.73123611967652 3.326390442035614  88.3430558675254 3.594451824335673  87.14009349931156 3.594451824335673  C 85.80689406456695 3.594451824335673  86.14918183600416 0.5947673833443459  85.13777864642454 0.2552138215929136  C 84.14677550308913 -0.08427877901640125  83.1380557276642 1.5852792612128184  81.47022235049168 3.2574433902687936  C 79.81013428235659 4.927092872211289  78.13476904954537 3.594451824335673  76.47468098141023 3.594451824335673  C 74.79663233444425 3.594451824335673  75.80550457658252 0.9215343455306649  74.13007835708592 0.2552138215929136  C 72.4674288481668 -0.4110914620593581  70.79715600358094 0.2552138215929136  69.46898797037632 1.927393190934369  C 68.13584952231699 3.594451824335673  67.46161122260662 3.9211730656654677  65.46179682381822 4.2581967400178256  C 63.4594819709312 4.592629565829021  63.4594819709312 2.9255709324277173  61.79680196866947 3.2574433902687936  C 60.126498630740926 3.594451824335673  59.45476078512914 5.5933676752924875  58.124183777853894 7.592314006820375  C 56.78848388901048 9.586185323264608  56.12690032650687 9.586185323264608  54.783546608654085 9.586185323264608  C 53.44784671981078 9.586185323264608  52.45181217493532 9.586185323264608  51.12117418097463 9.925662683588387  C 49.785413305445935 10.255005254030388  49.44837038894739 10.255005254030388  48.11767140830142 11.258318971749539  C 46.784471973556755 12.256542434099496  46.11538704875706 12.927937973120962  45.1141381422856 12.927937973120962  C 44.115481169940715 12.927937973120962  44.115481169940715 11.592751797560735  42.11072684964033 11.592751797560735  C 40.1058200626266 11.592751797560735  39.44179703270963 12.927937973120962  39.44179703270963 12.927937973120962  C 39.44179703270963 12.927937973120962  36.10878319917663 13.594258497058712  33.774456831331115 13.594258497058712  C 31.43494659523227 13.594258497058712  30.765831177089847 15.263831777573525  29.767296178115696 16.267160735578155  C 28.763516324202815 17.25765737316115  28.763516324202815 17.926538265069105  27.10083632194103 18.258425963195773  C 25.430624464040484 18.59029842103685  26.09967889549751 16.267160735578155  25.098521469054 16.930936131831466  C 24.094802601826455 17.592120679543502  24.094802601826455 19.2616939600582  23.762760593525304 20.262462550092827  C 23.43081006525221 21.25806468333046  21.099014644847998 22.26395400930524  21.428434225679787 23.596579816895346  C 21.768130062990362 24.931765992455492  21.428434225679787 27.597002367350143  20.756787860096118 28.597725236528042  C 20.097826725061818 29.595918218306956  19.423527438666063 29.595918218306956  18.430054334574635 31.939508366955444  C 17.42898838815918 34.27287228400902  17.42898838815918 35.260839034192934  19.101761686843698 35.260839034192934  C 20.756787860096118 35.260839034192934  21.428434225679787 37.264875621089985  20.097826725061818 38.60519777287596  C 18.75703444799312 39.94036870815062  20.756787860096118 42.60566604418736  21.768130062990362 45.597669381268446  C 22.764195101208482 48.61004898011155  21.099014644847998 48.94195191852376  19.101761686843698 49.940144900302585  C 17.094384939073944 50.93579275439697  19.101761686843698 52.93728421360939  19.763314756004696 56.27393136781098  C 20.43499161493103 59.61062424286919  22.09758013716482 58.275422827023455  22.764195101208482 59.61062424286919  C 23.43081006525221 60.93817503537569  24.094802601826455 62.27843622601947  23.101268511049692 63.27408408011382  C 22.09758013716482 64.27994292551753  21.768130062990362 65.61261445396417  23.43081006525221 67.60893945637979  C 25.098521469054 69.61038519473571  22.764195101208482 73.28155661646166  24.094802601826455 73.28155661646166  C 25.430624464040484 73.28155661646166  26.429159463014695 74.94856952900632  25.430624464040484 76.28121057688195  C 24.43705987992106 77.61388210532864  28.720124297587653 78.6044092234827  31.059573547001225 78.2928673065472  C 31.539782707321418 77.4121312053975  31.887010400270743 76.72028320318624  31.887010400270743 76.72028320318624  C 31.887010400270743 76.72028320318624  31.539782707321418 77.4121312053975  31.059573547001225 78.2928673065472  C 31.074881205020127 78.28527764435012  31.09031083640958 78.28527764435012  31.100465119517693 78.2801569084099  C 33.4398838755886 77.94313323405744  34.43844936790542 78.2801569084099  35.43451440612355 79.61023758831533  C 36.44088619416311 80.94537804301898  38.44564051446351 81.28496208534142  41.117162265520896 80.94537804301898  C 43.76822298364873 80.61865680168916  43.44383480435705 80.27904227879557  44.44752317824187 80.27904227879557  C 45.45133352549742 80.27904227879557  45.1141381422856 81.61427417521239  46.784471973556755 81.94870700102358  C 48.44715197581854 82.29079045017411  49.44837038894739 82.94944511048703  50.44690538792154 85.28535415522516  C 51.44809330770778 87.61876379313533  50.44690538792154 89.28577670568  53.120927593077624 89.95211246990334  C 55.78985741000838 90.6158573855855  54.783546608654085 90.9528505793668  56.45644188070938 90.28651481514346  C 58.124183777853894 89.61767964409215  58.124183777853894 90.9528505793668  58.78570635367211 92.61992445305367  C 59.45476078512914 94.29199714039638  60.126498630740926 95.61954793290282  60.78805169990181 98.2899507645943  C 61.45975905217087 100.95776274774458  61.79680196866947 101.29475594152588  60.126498630740926 102.62480614086031  C 58.45628677284032 103.94973560425451  50.7840702777908 102.29293368301923  48.44715197581854 103.29364131191163  C 46.11538704875706 104.28419891063677  45.77822215888784 105.95630207855059  44.77956518654308 107.6208765454095  C 43.76822298364873 109.29813092983457  44.115481169940715 111.62891923863246  43.44383480435705 111.96076121590247  C 42.777311320341326 112.2952854834269  42.447739272796206 108.29224160385981  42.447739272796206 108.29224160385981  C 42.447739272796206 108.29224160385981  42.11072684964033 109.96443621348685  40.44804684737859 110.62562076119889  C 38.775243055351304 111.28939615745216  37.439421193137264 110.96008406758122  37.11000161230554 112.2952854834269  C 36.778020590689664 113.6227753147912  36.778020590689664 114.29417085381267  35.43451440612355 113.95473921434555  C 34.108968800388354 113.6227753147912  32.76817652331954 112.95137977576975  31.769580537660058 114.29417085381267  C 30.765831177089847 115.62681190168824  31.100465119517693 115.62681190168824  29.10058973404403 116.2931171853405  C 27.10083632194103 116.95942246899278  29.10058973404403 118.29974462077875  30.765831177089847 118.63417744658996  C 32.43616500836106 118.96345905588984  33.4398838755886 118.96345905588984  32.43616500836106 120.63053292957665  C 31.43494659523227 122.2899256993531  30.106961522083605 121.95808372208316  29.10058973404403 122.2899256993531  C 28.10723860332327 122.62947926110455  27.432939316927516 123.62250578608658  27.762389391101973 125.29982113165386  C 28.10723860332327 126.96689500534072  29.442877505481352 125.63675336429303  30.439003530384753 124.96282793787256  C 31.43494659523227 124.29393180567908  32.10674542752927 125.63675336429303  31.769580537660058 126.96689500534072  C 31.43494659523227 128.29944461150308  30.439003530384753 128.29944461150308  30.765831177089847 129.6296167331218  C 31.100465119517693 130.96734803636656  32.10674542752927 131.6259417355374  34.43844936790542 131.97055507208694  C 36.778020590689664 132.29992812310005  35.76917884189406 135.30214245149043  34.43844936790542 135.97359895165403  C 33.102779972404726 136.632253611967  32.76817652331954 136.632253611967  32.10674542752927 137.6330222020016  C 31.43494659523227 138.63116946292382  31.43494659523227 138.96301144019384  30.106961522083605 139.29494485917712  C 28.763516324202815 139.6319075723873  27.10083632194103 139.29494485917712  27.10083632194103 139.29494485917712  C 27.10083632194103 139.29494485917712  25.76769787388175 140.63773593721993  23.101268511049692 140.9696693562032  C 20.43499161493103 141.3015418140443  23.101268511049692 140.9696693562032  22.09758013716482 142.30733969830578  C 21.099014644847998 143.63748133935343  21.099014644847998 143.63748133935343  21.768130062990362 144.96753153868784  C 22.427060704681942 146.3001725865635  21.428434225679787 147.29831984748574  20.097826725061818 147.97233671561943  C 18.75703444799312 148.64117188667078  19.101761686843698 146.3001725865635  18.09029751057873 146.3001725865635  C 17.094384939073944 146.3001725865635  17.766061798000333 147.97233671561943  16.090574591818452 149.63938010873517  C 14.42542462880058 151.30639302127983  12.420578828472186 148.97048397654171  12.088567313513702 147.97233671561943  C 11.748901969545795 146.96897727704376  12.757682731656065 145.3045856936113  12.757682731656065 145.3045856936113  C 12.757682731656065 145.3045856936113  10.418172495557156 142.96861568773105  11.419299428658004 141.96784709769656  C 12.420578828472186 140.9696693562032  10.088752914725424 139.97146113413874  9.422168444024425 141.3015418140443  C 8.75811492076473 142.63924263671794  8.75811492076473 142.30733969830578  7.077626806385402 143.30810828834032  C 5.422570139790366 144.3063165104048  4.745800892638583 144.6382194488169  4.086900744289671 146.63454445123256  C 3.4152543787059466 148.64117188667078  3.077998008808734 149.97125256657625  1.4103170983495537 150.3107756477566  C -0.24727051568678712 150.64008773762757  -0.24727051568678712 152.30463172391535  0.40912917856337216 154.30354757487214  C 1.0833979716164606 156.29993353842997  2.07684058236522 155.64124839754587  3.077998008808734 154.63292062588525  C 4.086900744289671 153.637272771791  5.7520812006501565 155.3042856843356  6.4186961646938805 157.64284653875708  C 7.077626806385402 159.976164734954  6.753208133751005 160.63987917006517  4.416381311806851 161.97764095388095  C 2.07684058236522 163.30516126581634  1.7551053238855194 163.6446843469967  0.7462940684325834 165.30663748474328  C -0.1042262452358654 166.74138844571291  3.435593438264904 167.9208646239475  4.462273792520655 168.22722484380068  C 5.565583916898678 168.14547595218326  6.474895395229137 168.45436605943547  6.97541312176556 169.1947391307947  C 7.861732619725087 170.53247043403945  7.419792604452004 175.8655035517988  9.641842484597618 176.75901101222806  C 11.86639281884187 177.64998858525826  14.095913567940787 178.53328505437804  15.87858487359735 178.53328505437804  C 16.966648326641806 178.53328505437804  19.776030479896786 179.9042706606633  21.752822404971575 180.93561126348388  C 21.699184615220233 180.82844157559177  21.648047279567706 180.75693415585496  21.648047279567706 180.75693415585496  C 21.648047279567706 180.75693415585496  23.877781482065295 178.98013022630585  25.65279895871243 178.98013022630585  C 27.432939316927516 178.98013022630585  26.98846835421307 182.54141918931427  28.32685165721113 184.31054201495294  C 29.6497443421344 186.0950880095545  32.323797040633096 185.19649029375617  33.659435942791134 186.53931185237008  C 34.9901349234371 187.87701267504377  34.108968800388354 188.75774877619347  33.659435942791134 190.09541911829612  C 33.22020983501541 191.42565220105695  34.9901349234371 190.547293584451  35.43451440612355 192.31144807700474  C 35.886547717819404 194.0985239590054  37.65650329958376 200.76672801203935  39.88614602205341 194.0985239590054  C 42.11072684964033 187.4251077283179  42.55504534564144 183.8714389080777  43.88565284625941 182.97793144764842  C 45.218882774346746 182.09469593967074  46.11538704875706 179.42429310797928  46.11538704875706 177.64998858525826  C 46.11538704875706 175.87062428773908  49.67313681774603 174.53542287189333  51.01133716068803 174.09125999021992  C 52.33941371386464 173.64700566683328  53.23070362667889 170.98431441962322  54.122085019521144 169.1947391307947  C 55.00834353079533 167.42299497604375  66.12838129451923 165.1994373162801  67.90599070529301 165.64366115909567  C 69.6810386752828 166.087793560198  69.69122345173353 165.64366115909567  73.24888174069451 162.97325832740418  C 76.79891669398867 160.3105670801942  80.36435078532963 159.86384383055068  85.25273854827918 162.53156437198766  C 90.14612721942613 165.1994373162801  88.82061210703361 165.64366115909567  88.82061210703361 165.64366115909567  C 88.82061210703361 165.64366115909567  93.7063774425138 164.75006225695324  95.03960737060108 160.7496397064984  C 96.37789919357114 156.75183848515584  94.59263595378799 155.86592068692377  95.48389537325959 153.1956397775166  C 96.37789919357114 150.53032720119432  98.15035522943424 153.1956397775166  100.37737552443447 152.30463172391535  C 102.596863963796 151.41612307714206  103.93765624086475 150.53032720119432  106.60402461701142 151.41612307714206  C 109.27045397984342 152.30463172391535  111.49494332740234 150.96939982749853  111.49494332740234 146.96897727704376  C 111.49494332740234 142.96861568773105  113.28017607384292 138.96813217613408  115.05516305714728 139.84889875785484  C 116.8302110271371 140.75002636105225  119.50423323229319 143.41530845680356  119.94605127419554 141.19168983589776  C 120.39552314510738 138.96301144019384  120.38796079612595 137.62787098549023  122.17057111509718 135.40684321312568  C 123.95071147331227 133.1806642242498  124.39512144934143 130.52306323240887  124.39512144934143 130.52306323240887  C 124.39512144934143 130.52306323240887  123.95071147331227 133.1806642242498  126.17526180755652 134.96774010625032  C 128.3946892602327 136.7394232998591  129.7279191883201 138.08486618758536  131.06105763637936 136.7394232998591  C 132.39675752522274 135.40684321312568  132.85144375773064 135.8535359821981  134.6289311951338 133.1806642242498  C 136.40657109925024 130.52306323240887  136.40657109925024 129.62446551661048  136.40657109925024 127.405998112216  C 136.40657109925024 125.17469838739984  135.0682182895948 122.08061561779597  137.29276862383904 122.51712787613005  C 139.517257971398 122.96141268008778  140.84795695204394 123.41578655307065  143.96635863988652 121.62362041570083  C 147.07463653796356 119.85443662892006  148.4051830518962 121.1845173088255  150.63991816259124 121.1845173088255  C 152.85934561526742 121.1845173088255  153.30878699283664 119.85443662892006  156.41709538425633 118.96345905588984  C 159.5380585128829 118.06995159546064  159.97728462065862 119.85443662892006  162.64121352939196 118.96345905588984  C 165.32023664274544 118.06995159546064  167.09272317195112 118.06995159546064  166.2039337132356 115.84889334252495  C 165.32023664274544 113.6227753147912  166.2039337132356 109.63512412361588  171.544354787881 108.29224160385981  C 176.8796529809584 106.95454078118608  177.32397147695946 109.17306914672277  181.32363076787885 106.51543767431076  C 185.32829096699552 103.8527769076718  188.89101115083915 101.6189472954566  191.56253290189653 100.28633672815207  C 194.22374790313248 98.95113531230633  190.67115150905428 99.40300977846118  193.78196035457276 96.73010753994174  C 196.8952696541899 94.06226507622044  197.79171294191485 94.9558334977918  201.34171740186636 94.06226507622044  C 204.8968752367286 93.17390883230247  208.4545335256895 90.50100659378303  203.56882917689464 88.73432221383018  C 198.67290955830634 86.94983718037079  197.79171294191485 86.50570477926844  197.79171294191485 84.72883988857727  C 197.79171294191485 82.94944511048703  195.1125068685054 83.39622932127273  194.22374790313248 82.06102790542698  C 193.34005083264233 80.72841733812244  193.33242749697558 80.72841733812244  194.22374790313248 77.61388210532864  C 195.1125068685054 74.50181579879172  194.67071931994565 74.50181579879172  198.22081525992513 74.94856952900632  C 201.78868881867947 75.39279337182195  201.78868881867947 75.39279337182195  203.56882917689464 77.16709789454295  C 205.34884756173912 78.94902256003228  206.2326056189146 79.39577629024683  208.01268499044443 76.72028320318624  C 209.78776345377685 74.04994133263692  211.5780276017574 74.04994133263692  213.3504836376205 75.83445684666734  C 215.13586885077436 77.61388210532864  219.57204034197204 78.94902256003228  220.46604416228362 80.72841733812244  C 221.35480312765654 82.50269138027248  221.35480312765654 85.17050336342271  220.02163418625452 86.94983718037079  C 218.69102668563656 88.73432221383018  220.02163418625452 91.39960430958148  223.13744393997038 89.61767964409215  C 226.24819179880348 87.83575497860288  227.13194985597897 91.83870741645674  225.3517485110785 94.06226507622044  C 223.58703778425286 96.28329284858498  224.46805144058834 98.06780836261544  227.59172847671226 98.51203220543101  C 230.7023543621747 98.95113531230633  234.7045446005354 100.28633672815207  235.58568023024154 101.6189472954566  C 236.46919434067573 102.9540877501602  240.9234788774176 102.0657010256712  241.36770589339073 98.06780836261544  C 241.81217685610517 94.06226507622044  241.81217685610517 91.39960430958148  244.47083041655708 88.2799788214185  C 247.16022126641732 85.17050336342271  246.71068840882015 79.83231902915205  248.04647977769153 76.72028320318624  C 249.37970970577885 73.61342907430274  254.25772973222166 58.94434943978799  252.92718321828897 56.27393136781098  C 251.59395329020165 53.60358949726166  252.92718321828897 50.04225481339666  253.82362650601397 46.94049093988231  Z " fill-rule="nonzero" fill="#4b636b" stroke="none" transform="matrix(1 0 0 1 3226 465 )" />
    <path d="M 253.82362650601397 46.94049093988231  C 254.71238547138685 43.83104596245771  252.04348614779883 38.94475133462739  250.25822290801565 35.3808410425067  C 248.4908287670353 31.819536839212745  244.9357319188584 25.598086516393327  246.71068840882015 22.036767072813802  C 248.4908287670353 18.485597659401616  246.71068840882015 12.705810811427588  242.261648727017 14.038451859303287  C 237.81267003189916 15.368532539208758  234.24982787468483 12.256542434099496  231.5809285510968 10.926431273622898  C 229.6067895468341 9.938479763724542  226.41932043785079 7.252760445068944  224.88953042293184 5.9227254860200835  C 223.10945105140206 6.520114198476693  221.10701422514435 7.2374591983904075  220.57325875510088 7.592314006820375  C 219.57204034197204 8.25348331424693  215.90204457862583 5.9227254860200835  215.23289866714077 4.2581967400178256  C 214.57137609132252 2.5885929789319686  212.90357320749268 2.2541753934063666  211.56534237120795 4.2581967400178256  C 210.2397967654727 6.249492448206402  211.56534237120795 6.925993482882625  209.9077242638289 6.591545416785837  C 208.2400433533697 6.249492448206402  207.56321311953258 6.249492448206402  204.23279122012627 7.592314006820375  C 200.9024303074053 8.919834318755727  202.55748697400034 8.593036875998363  199.57182280678734 9.25682751253704  C 196.5555738168793 9.925662683588387  198.22081525992513 11.258318971749539  195.89155078696234 13.25976471010543  C 193.55716343243148 15.263831777573525  194.56088229965903 15.927607173826724  193.55716343243148 14.931974560018014  C 192.56112888755604 13.92867608258443  193.23027479904107 12.598610642964438  191.22539850537 12.598610642964438  C 189.22049171835627 12.598610642964438  186.88366489641214 12.598610642964438  185.55293542242347 11.258318971749539  C 184.2121431453547 9.925662683588387  180.21513677524743 11.258318971749539  178.21026048157637 11.924609015116246  C 176.2079151353466 12.598610642964438  176.5477024526852 14.594996606522178  175.2144420312552 17.25765737316115  C 173.87618070162787 19.925499836882555  174.5504190013382 20.262462550092827  172.5429202801978 20.92364709780486  C 170.53798299984143 21.595088357682847  172.2058773636993 23.596579816895346  172.5429202801978 26.256725936420807  C 172.86727796614687 28.92712876811225  171.544354787881 29.930381524689196  170.2060934582536 32.59814778698292  C 168.8702715960396 35.260839034192934  167.2025601922377 34.27287228400902  167.2025601922377 32.59814778698292  C 167.2025601922377 30.938770257491974  165.8693607574931 30.938770257491974  163.86454545050734 32.26632104999848  C 161.86467006503366 33.59890113673187  160.87128844097023 33.26702867889079  156.8614443736001 34.27287228400902  C 152.85934561526742 35.260839034192934  151.86078012295062 35.260839034192934  148.52523534197627 36.598585577723306  C 145.1846286661192 37.931226625598896  139.1802150548994 35.932234573214394  136.17924322966758 35.60290724305787  C 133.18345527268912 35.260839034192934  131.17592605820604 35.60290724305787  129.84534905093074 35.260839034192934  C 128.50452628051937 34.93411779286317  130.84391454324754 32.93262633365075  128.1750457130022 32.59814778698292  C 125.51133025766755 32.26632104999848  123.83837399892697 30.259663133989108  121.83599815935466 29.264045760465876  C 119.83883668137831 28.263292410716847  121.83599815935466 25.927368125693242  119.83883668137831 27.25749452645532  C 117.83649133514866 28.597725236528042  117.83649133514866 29.595918218306956  115.49698109904969 29.930381524689196  C 113.16015427710555 30.259663133989108  114.1638121576477 28.92712876811225  112.83067370958837 30.938770257491974  C 111.49494332740234 32.93262633365075  110.49378590095883 33.26702867889079  108.49394100882787 35.60290724305787  C 106.48900372847143 37.931226625598896  104.83153808780571 34.59712459908185  103.49580770561967 33.93334920282863  C 102.1575158826496 33.26702867889079  102.1575158826496 31.602545653745167  102.82413084669334 29.930381524689196  C 103.49580770561967 28.263292410716847  103.15876478912114 27.931496154303534  102.82413084669334 26.588613634547364  C 102.48705743685207 25.2687591862368  101.49099239863395 24.597363647215424  101.49099239863395 23.267222006167753  C 101.49099239863395 21.929490702922973  102.82413084669334 21.929490702922973  103.82784971392088 20.92364709780486  C 104.83153808780571 19.925499836882555  103.15876478912114 17.592120679543502  101.82547387434846 16.930936131831466  C 100.48980447884782 16.267160735578155  102.1575158826496 13.92867608258443  100.48980447884782 14.25801865302643  C 98.81690920679252 14.594996606522178  97.82593655679979 13.25976471010543  97.82593655679979 13.25976471010543  C 97.82593655679979 13.25976471010543  98.48748962596079 9.925662683588387  97.15175924377476 8.593036875998363  C 95.81855980903005 7.260472029550344  95.48389537325959 7.260472029550344  93.14959949875667 7.592314006820375  C 90.81521214422584 7.921626096691334  90.81521214422584 5.256389721796768  89.81667714525167 4.2581967400178256  C 89.71193251319048 4.1585862337517865  89.6149331901667 4.076944024133214  89.52805765690842 4.000376829598241  C 88.830918856855 4.7330230761904915  88.47582388149759 5.256389721796768  88.47582388149759 5.256389721796768  C 88.47582388149759 5.256389721796768  88.830918856855 4.7330230761904915  89.52805765690842 4.000376829598241  C 88.73123611967652 3.326390442035614  88.3430558675254 3.594451824335673  87.14009349931156 3.594451824335673  C 85.80689406456695 3.594451824335673  86.14918183600416 0.5947673833443459  85.13777864642454 0.2552138215929136  C 84.14677550308913 -0.08427877901640125  83.1380557276642 1.5852792612128184  81.47022235049168 3.2574433902687936  C 79.81013428235659 4.927092872211289  78.13476904954537 3.594451824335673  76.47468098141023 3.594451824335673  C 74.79663233444425 3.594451824335673  75.80550457658252 0.9215343455306649  74.13007835708592 0.2552138215929136  C 72.4674288481668 -0.4110914620593581  70.79715600358094 0.2552138215929136  69.46898797037632 1.927393190934369  C 68.13584952231699 3.594451824335673  67.46161122260662 3.9211730656654677  65.46179682381822 4.2581967400178256  C 63.4594819709312 4.592629565829021  63.4594819709312 2.9255709324277173  61.79680196866947 3.2574433902687936  C 60.126498630740926 3.594451824335673  59.45476078512914 5.5933676752924875  58.124183777853894 7.592314006820375  C 56.78848388901048 9.586185323264608  56.12690032650687 9.586185323264608  54.783546608654085 9.586185323264608  C 53.44784671981078 9.586185323264608  52.45181217493532 9.586185323264608  51.12117418097463 9.925662683588387  C 49.785413305445935 10.255005254030388  49.44837038894739 10.255005254030388  48.11767140830142 11.258318971749539  C 46.784471973556755 12.256542434099496  46.11538704875706 12.927937973120962  45.1141381422856 12.927937973120962  C 44.115481169940715 12.927937973120962  44.115481169940715 11.592751797560735  42.11072684964033 11.592751797560735  C 40.1058200626266 11.592751797560735  39.44179703270963 12.927937973120962  39.44179703270963 12.927937973120962  C 39.44179703270963 12.927937973120962  36.10878319917663 13.594258497058712  33.774456831331115 13.594258497058712  C 31.43494659523227 13.594258497058712  30.765831177089847 15.263831777573525  29.767296178115696 16.267160735578155  C 28.763516324202815 17.25765737316115  28.763516324202815 17.926538265069105  27.10083632194103 18.258425963195773  C 25.430624464040484 18.59029842103685  26.09967889549751 16.267160735578155  25.098521469054 16.930936131831466  C 24.094802601826455 17.592120679543502  24.094802601826455 19.2616939600582  23.762760593525304 20.262462550092827  C 23.43081006525221 21.25806468333046  21.099014644847998 22.26395400930524  21.428434225679787 23.596579816895346  C 21.768130062990362 24.931765992455492  21.428434225679787 27.597002367350143  20.756787860096118 28.597725236528042  C 20.097826725061818 29.595918218306956  19.423527438666063 29.595918218306956  18.430054334574635 31.939508366955444  C 17.42898838815918 34.27287228400902  17.42898838815918 35.260839034192934  19.101761686843698 35.260839034192934  C 20.756787860096118 35.260839034192934  21.428434225679787 37.264875621089985  20.097826725061818 38.60519777287596  C 18.75703444799312 39.94036870815062  20.756787860096118 42.60566604418736  21.768130062990362 45.597669381268446  C 22.764195101208482 48.61004898011155  21.099014644847998 48.94195191852376  19.101761686843698 49.940144900302585  C 17.094384939073944 50.93579275439697  19.101761686843698 52.93728421360939  19.763314756004696 56.27393136781098  C 20.43499161493103 59.61062424286919  22.09758013716482 58.275422827023455  22.764195101208482 59.61062424286919  C 23.43081006525221 60.93817503537569  24.094802601826455 62.27843622601947  23.101268511049692 63.27408408011382  C 22.09758013716482 64.27994292551753  21.768130062990362 65.61261445396417  23.43081006525221 67.60893945637979  C 25.098521469054 69.61038519473571  22.764195101208482 73.28155661646166  24.094802601826455 73.28155661646166  C 25.430624464040484 73.28155661646166  26.429159463014695 74.94856952900632  25.430624464040484 76.28121057688195  C 24.43705987992106 77.61388210532864  28.720124297587653 78.6044092234827  31.059573547001225 78.2928673065472  C 31.539782707321418 77.4121312053975  31.887010400270743 76.72028320318624  31.887010400270743 76.72028320318624  C 31.887010400270743 76.72028320318624  31.539782707321418 77.4121312053975  31.059573547001225 78.2928673065472  C 31.074881205020127 78.28527764435012  31.09031083640958 78.28527764435012  31.100465119517693 78.2801569084099  C 33.4398838755886 77.94313323405744  34.43844936790542 78.2801569084099  35.43451440612355 79.61023758831533  C 36.44088619416311 80.94537804301898  38.44564051446351 81.28496208534142  41.117162265520896 80.94537804301898  C 43.76822298364873 80.61865680168916  43.44383480435705 80.27904227879557  44.44752317824187 80.27904227879557  C 45.45133352549742 80.27904227879557  45.1141381422856 81.61427417521239  46.784471973556755 81.94870700102358  C 48.44715197581854 82.29079045017411  49.44837038894739 82.94944511048703  50.44690538792154 85.28535415522516  C 51.44809330770778 87.61876379313533  50.44690538792154 89.28577670568  53.120927593077624 89.95211246990334  C 55.78985741000838 90.6158573855855  54.783546608654085 90.9528505793668  56.45644188070938 90.28651481514346  C 58.124183777853894 89.61767964409215  58.124183777853894 90.9528505793668  58.78570635367211 92.61992445305367  C 59.45476078512914 94.29199714039638  60.126498630740926 95.61954793290282  60.78805169990181 98.2899507645943  C 61.45975905217087 100.95776274774458  61.79680196866947 101.29475594152588  60.126498630740926 102.62480614086031  C 58.45628677284032 103.94973560425451  50.7840702777908 102.29293368301923  48.44715197581854 103.29364131191163  C 46.11538704875706 104.28419891063677  45.77822215888784 105.95630207855059  44.77956518654308 107.6208765454095  C 43.76822298364873 109.29813092983457  44.115481169940715 111.62891923863246  43.44383480435705 111.96076121590247  C 42.777311320341326 112.2952854834269  42.447739272796206 108.29224160385981  42.447739272796206 108.29224160385981  C 42.447739272796206 108.29224160385981  42.11072684964033 109.96443621348685  40.44804684737859 110.62562076119889  C 38.775243055351304 111.28939615745216  37.439421193137264 110.96008406758122  37.11000161230554 112.2952854834269  C 36.778020590689664 113.6227753147912  36.778020590689664 114.29417085381267  35.43451440612355 113.95473921434555  C 34.108968800388354 113.6227753147912  32.76817652331954 112.95137977576975  31.769580537660058 114.29417085381267  C 30.765831177089847 115.62681190168824  31.100465119517693 115.62681190168824  29.10058973404403 116.2931171853405  C 27.10083632194103 116.95942246899278  29.10058973404403 118.29974462077875  30.765831177089847 118.63417744658996  C 32.43616500836106 118.96345905588984  33.4398838755886 118.96345905588984  32.43616500836106 120.63053292957665  C 31.43494659523227 122.2899256993531  30.106961522083605 121.95808372208316  29.10058973404403 122.2899256993531  C 28.10723860332327 122.62947926110455  27.432939316927516 123.62250578608658  27.762389391101973 125.29982113165386  C 28.10723860332327 126.96689500534072  29.442877505481352 125.63675336429303  30.439003530384753 124.96282793787256  C 31.43494659523227 124.29393180567908  32.10674542752927 125.63675336429303  31.769580537660058 126.96689500534072  C 31.43494659523227 128.29944461150308  30.439003530384753 128.29944461150308  30.765831177089847 129.6296167331218  C 31.100465119517693 130.96734803636656  32.10674542752927 131.6259417355374  34.43844936790542 131.97055507208694  C 36.778020590689664 132.29992812310005  35.76917884189406 135.30214245149043  34.43844936790542 135.97359895165403  C 33.102779972404726 136.632253611967  32.76817652331954 136.632253611967  32.10674542752927 137.6330222020016  C 31.43494659523227 138.63116946292382  31.43494659523227 138.96301144019384  30.106961522083605 139.29494485917712  C 28.763516324202815 139.6319075723873  27.10083632194103 139.29494485917712  27.10083632194103 139.29494485917712  C 27.10083632194103 139.29494485917712  25.76769787388175 140.63773593721993  23.101268511049692 140.9696693562032  C 20.43499161493103 141.3015418140443  23.101268511049692 140.9696693562032  22.09758013716482 142.30733969830578  C 21.099014644847998 143.63748133935343  21.099014644847998 143.63748133935343  21.768130062990362 144.96753153868784  C 22.427060704681942 146.3001725865635  21.428434225679787 147.29831984748574  20.097826725061818 147.97233671561943  C 18.75703444799312 148.64117188667078  19.101761686843698 146.3001725865635  18.09029751057873 146.3001725865635  C 17.094384939073944 146.3001725865635  17.766061798000333 147.97233671561943  16.090574591818452 149.63938010873517  C 14.42542462880058 151.30639302127983  12.420578828472186 148.97048397654171  12.088567313513702 147.97233671561943  C 11.748901969545795 146.96897727704376  12.757682731656065 145.3045856936113  12.757682731656065 145.3045856936113  C 12.757682731656065 145.3045856936113  10.418172495557156 142.96861568773105  11.419299428658004 141.96784709769656  C 12.420578828472186 140.9696693562032  10.088752914725424 139.97146113413874  9.422168444024425 141.3015418140443  C 8.75811492076473 142.63924263671794  8.75811492076473 142.30733969830578  7.077626806385402 143.30810828834032  C 5.422570139790366 144.3063165104048  4.745800892638583 144.6382194488169  4.086900744289671 146.63454445123256  C 3.4152543787059466 148.64117188667078  3.077998008808734 149.97125256657625  1.4103170983495537 150.3107756477566  C -0.24727051568678712 150.64008773762757  -0.24727051568678712 152.30463172391535  0.40912917856337216 154.30354757487214  C 1.0833979716164606 156.29993353842997  2.07684058236522 155.64124839754587  3.077998008808734 154.63292062588525  C 4.086900744289671 153.637272771791  5.7520812006501565 155.3042856843356  6.4186961646938805 157.64284653875708  C 7.077626806385402 159.976164734954  6.753208133751005 160.63987917006517  4.416381311806851 161.97764095388095  C 2.07684058236522 163.30516126581634  1.7551053238855194 163.6446843469967  0.7462940684325834 165.30663748474328  C -0.1042262452358654 166.74138844571291  3.435593438264904 167.9208646239475  4.462273792520655 168.22722484380068  C 5.565583916898678 168.14547595218326  6.474895395229137 168.45436605943547  6.97541312176556 169.1947391307947  C 7.861732619725087 170.53247043403945  7.419792604452004 175.8655035517988  9.641842484597618 176.75901101222806  C 11.86639281884187 177.64998858525826  14.095913567940787 178.53328505437804  15.87858487359735 178.53328505437804  C 16.966648326641806 178.53328505437804  19.776030479896786 179.9042706606633  21.752822404971575 180.93561126348388  C 21.699184615220233 180.82844157559177  21.648047279567706 180.75693415585496  21.648047279567706 180.75693415585496  C 21.648047279567706 180.75693415585496  23.877781482065295 178.98013022630585  25.65279895871243 178.98013022630585  C 27.432939316927516 178.98013022630585  26.98846835421307 182.54141918931427  28.32685165721113 184.31054201495294  C 29.6497443421344 186.0950880095545  32.323797040633096 185.19649029375617  33.659435942791134 186.53931185237008  C 34.9901349234371 187.87701267504377  34.108968800388354 188.75774877619347  33.659435942791134 190.09541911829612  C 33.22020983501541 191.42565220105695  34.9901349234371 190.547293584451  35.43451440612355 192.31144807700474  C 35.886547717819404 194.0985239590054  37.65650329958376 200.76672801203935  39.88614602205341 194.0985239590054  C 42.11072684964033 187.4251077283179  42.55504534564144 183.8714389080777  43.88565284625941 182.97793144764842  C 45.218882774346746 182.09469593967074  46.11538704875706 179.42429310797928  46.11538704875706 177.64998858525826  C 46.11538704875706 175.87062428773908  49.67313681774603 174.53542287189333  51.01133716068803 174.09125999021992  C 52.33941371386464 173.64700566683328  53.23070362667889 170.98431441962322  54.122085019521144 169.1947391307947  C 55.00834353079533 167.42299497604375  66.12838129451923 165.1994373162801  67.90599070529301 165.64366115909567  C 69.6810386752828 166.087793560198  69.69122345173353 165.64366115909567  73.24888174069451 162.97325832740418  C 76.79891669398867 160.3105670801942  80.36435078532963 159.86384383055068  85.25273854827918 162.53156437198766  C 90.14612721942613 165.1994373162801  88.82061210703361 165.64366115909567  88.82061210703361 165.64366115909567  C 88.82061210703361 165.64366115909567  93.7063774425138 164.75006225695324  95.03960737060108 160.7496397064984  C 96.37789919357114 156.75183848515584  94.59263595378799 155.86592068692377  95.48389537325959 153.1956397775166  C 96.37789919357114 150.53032720119432  98.15035522943424 153.1956397775166  100.37737552443447 152.30463172391535  C 102.596863963796 151.41612307714206  103.93765624086475 150.53032720119432  106.60402461701142 151.41612307714206  C 109.27045397984342 152.30463172391535  111.49494332740234 150.96939982749853  111.49494332740234 146.96897727704376  C 111.49494332740234 142.96861568773105  113.28017607384292 138.96813217613408  115.05516305714728 139.84889875785484  C 116.8302110271371 140.75002636105225  119.50423323229319 143.41530845680356  119.94605127419554 141.19168983589776  C 120.39552314510738 138.96301144019384  120.38796079612595 137.62787098549023  122.17057111509718 135.40684321312568  C 123.95071147331227 133.1806642242498  124.39512144934143 130.52306323240887  124.39512144934143 130.52306323240887  C 124.39512144934143 130.52306323240887  123.95071147331227 133.1806642242498  126.17526180755652 134.96774010625032  C 128.3946892602327 136.7394232998591  129.7279191883201 138.08486618758536  131.06105763637936 136.7394232998591  C 132.39675752522274 135.40684321312568  132.85144375773064 135.8535359821981  134.6289311951338 133.1806642242498  C 136.40657109925024 130.52306323240887  136.40657109925024 129.62446551661048  136.40657109925024 127.405998112216  C 136.40657109925024 125.17469838739984  135.0682182895948 122.08061561779597  137.29276862383904 122.51712787613005  C 139.517257971398 122.96141268008778  140.84795695204394 123.41578655307065  143.96635863988652 121.62362041570083  C 147.07463653796356 119.85443662892006  148.4051830518962 121.1845173088255  150.63991816259124 121.1845173088255  C 152.85934561526742 121.1845173088255  153.30878699283664 119.85443662892006  156.41709538425633 118.96345905588984  C 159.5380585128829 118.06995159546064  159.97728462065862 119.85443662892006  162.64121352939196 118.96345905588984  C 165.32023664274544 118.06995159546064  167.09272317195112 118.06995159546064  166.2039337132356 115.84889334252495  C 165.32023664274544 113.6227753147912  166.2039337132356 109.63512412361588  171.544354787881 108.29224160385981  C 176.8796529809584 106.95454078118608  177.32397147695946 109.17306914672277  181.32363076787885 106.51543767431076  C 185.32829096699552 103.8527769076718  188.89101115083915 101.6189472954566  191.56253290189653 100.28633672815207  C 194.22374790313248 98.95113531230633  190.67115150905428 99.40300977846118  193.78196035457276 96.73010753994174  C 196.8952696541899 94.06226507622044  197.79171294191485 94.9558334977918  201.34171740186636 94.06226507622044  C 204.8968752367286 93.17390883230247  208.4545335256895 90.50100659378303  203.56882917689464 88.73432221383018  C 198.67290955830634 86.94983718037079  197.79171294191485 86.50570477926844  197.79171294191485 84.72883988857727  C 197.79171294191485 82.94944511048703  195.1125068685054 83.39622932127273  194.22374790313248 82.06102790542698  C 193.34005083264233 80.72841733812244  193.33242749697558 80.72841733812244  194.22374790313248 77.61388210532864  C 195.1125068685054 74.50181579879172  194.67071931994565 74.50181579879172  198.22081525992513 74.94856952900632  C 201.78868881867947 75.39279337182195  201.78868881867947 75.39279337182195  203.56882917689464 77.16709789454295  C 205.34884756173912 78.94902256003228  206.2326056189146 79.39577629024683  208.01268499044443 76.72028320318624  C 209.78776345377685 74.04994133263692  211.5780276017574 74.04994133263692  213.3504836376205 75.83445684666734  C 215.13586885077436 77.61388210532864  219.57204034197204 78.94902256003228  220.46604416228362 80.72841733812244  C 221.35480312765654 82.50269138027248  221.35480312765654 85.17050336342271  220.02163418625452 86.94983718037079  C 218.69102668563656 88.73432221383018  220.02163418625452 91.39960430958148  223.13744393997038 89.61767964409215  C 226.24819179880348 87.83575497860288  227.13194985597897 91.83870741645674  225.3517485110785 94.06226507622044  C 223.58703778425286 96.28329284858498  224.46805144058834 98.06780836261544  227.59172847671226 98.51203220543101  C 230.7023543621747 98.95113531230633  234.7045446005354 100.28633672815207  235.58568023024154 101.6189472954566  C 236.46919434067573 102.9540877501602  240.9234788774176 102.0657010256712  241.36770589339073 98.06780836261544  C 241.81217685610517 94.06226507622044  241.81217685610517 91.39960430958148  244.47083041655708 88.2799788214185  C 247.16022126641732 85.17050336342271  246.71068840882015 79.83231902915205  248.04647977769153 76.72028320318624  C 249.37970970577885 73.61342907430274  254.25772973222166 58.94434943978799  252.92718321828897 56.27393136781098  C 251.59395329020165 53.60358949726166  252.92718321828897 50.04225481339666  253.82362650601397 46.94049093988231  Z " stroke-width="1.5" stroke="#dbd9d9" fill="none" transform="matrix(1 0 0 1 3226 465 )" mask="url(#clip1103)" />
  </g>
</svg>