<?xml version="1.0" encoding="utf-8"?>
<svg version="1.1" xmlns:xlink="http://www.w3.org/1999/xlink" width="13px" height="26px" xmlns="http://www.w3.org/2000/svg">
  <g transform="matrix(1 0 0 1 -3287 -519 )">
    <path d="M 12.717951805522164 6.86143491270684  C 12.717951805522164 6.86143491270684  10.169204833614302 6.86143491270684  10.169204833614302 6.86143491270684  C 9.965702871552224 4.270262450604923  8.900003305519746 2.3113926556468094  6.251899493311045 2.3113926556468094  C 4.131366076867501 2.3113926556468094  2.752494486865281 3.720935898704907  2.752494486865281 5.638386161003262  C 2.752494486865281 11.35458622343706  13 11.427207455515907  13 19.54793321100359  C 13 23.579896298890684  10.670623846019446 26  6.460834313183829 26  C 2.475694985526603 26  0.06798745791365038 23.08755205993647  0 18.848339031057005  C 0 18.848339031057005  2.5489311365793537 18.848339031057005  2.5489311365793537 18.848339031057005  C 2.6166116533737553 21.828215533847555  4.027128872770545 23.683460358309386  6.74825397724858 23.683460358309386  C 9.04101205570273 23.683460358309386  10.529676484060312 22.20656469137124  10.529676484060312 19.51686856150877  C 10.529676484060312 13.774796518931954  0.2873582758409006 13.095927333084642  0.2873582758409006 5.887238367887652  C 0.2873582758409006 2.3113926556468094  2.752494486865281 0  6.429557013132358 0  C 10.101278763924501 0  12.498642375818706 2.451381539375205  12.717951805522164 6.86143491270684  Z " fill-rule="nonzero" fill="#efebdf" stroke="none" transform="matrix(1 0 0 1 3287 519 )" />
  </g>
</svg>