<?xml version="1.0" encoding="utf-8"?>
<svg version="1.1" xmlns:xlink="http://www.w3.org/1999/xlink" width="12px" height="19px" xmlns="http://www.w3.org/2000/svg">
  <g transform="matrix(1 0 0 1 -3306 -526 )">
    <path d="M 2.9044759135162472 5.70365618986527  C 2.9044759135162472 5.70365618986527  0.5111265646731572 5.344536076998144  0.5111265646731572 5.344536076998144  C 1.0166898470097947 2.466697195947278  2.759514477177958 0  6.104943734985518 0  C 9.595840182071058 0  11.526804905803516 1.9723240535587956  11.526804905803516 5.209252464541903  C 11.526804905803516 5.209252464541903  11.526804905803516 15.409227032417105  11.526804905803516 15.409227032417105  C 11.526804905803516 17.027645363506377  11.70419774939942 18.22978407643158  12.000000000000059 18.64614015193283  C 12.000000000000059 18.64614015193283  9.273106587432098 18.64614015193283  9.273106587432098 18.64614015193283  C 9.273106587432098 18.64614015193283  8.939499304589708 17.100600954670487  8.939499304589708 17.100600954670487  C 7.928562397268993 18.078933750119774  6.104943734985518 19.00000000000003  4.905487419395625 19.00000000000003  C 1.9631432545201668 19.00000000000003  0 17.16814336636019  0 14.285166552248933  C 0 9.778388810508968  5.120685295233279 7.488675058731364  8.90744721203698 6.681958402379674  C 8.90744721203698 6.681958402379674  8.90744721203698 5.386190034309252  8.90744721203698 5.386190034309252  C 8.90744721203698 3.377441705304421  7.8530787710204155 2.1180058638753567  6.180174484764252 2.1180058638753567  C 4.17947907447212 2.1180058638753567  3.2058414464534666 4.043599192932473  2.9044759135162472 5.70365618986527  Z M 8.90744721203698 14.992870956915946  C 8.90744721203698 14.992870956915946  8.90744721203698 8.794826333194637  8.90744721203698 8.794826333194637  C 6.5135921102542 9.50268365253601  2.614047287899861 11.183506462254593  2.614047287899861 14.071804707035577  C 2.614047287899861 15.794312057000123  3.4209761031736 16.88722381798966  5.303514982930838 16.88722381798966  C 6.723542799342521 16.88722381798966  7.960677708939242 15.929610960923835  8.90744721203698 14.992870956915946  Z " fill-rule="nonzero" fill="#efebdf" stroke="none" transform="matrix(1 0 0 1 3306 526 )" />
  </g>
</svg>