<?xml version="1.0" encoding="utf-8"?>
<svg version="1.1" xmlns:xlink="http://www.w3.org/1999/xlink" width="11px" height="19px" xmlns="http://www.w3.org/2000/svg">
  <g transform="matrix(1 0 0 1 -3323 -526 )">
    <path d="M 10.932364534754608 5.771320933294595  C 10.932364534754608 5.771320933294595  8.469456473462136 5.771320933294595  8.469456473462136 5.771320933294595  C 8.225449700199924 3.023551274302367  7.139343215634021 2.1180058638753567  5.591147568287809 2.1180058638753567  C 3.450263713080169 2.1180058638753567  2.535734510326449 3.4451370316686294  2.535734510326449 9.50268365253601  C 2.535734510326449 15.544480061938492  3.450263713080169 16.88722381798966  5.591147568287809 16.88722381798966  C 7.206887075283144 16.88722381798966  8.126485121030424 16.03896024459912  8.547534976682268 12.880094774905576  C 8.547534976682268 12.880094774905576  11.000000000000057 12.880094774905576  11.000000000000057 12.880094774905576  C 10.579163890739508 16.470959491293147  8.895544636908728 19.00000000000003  5.591147568287809 19.00000000000003  C 1.7617893626471242 19.00000000000003  0 16.116977311486444  0 9.50268365253601  C 0 2.8830379799810832  1.7617893626471242 0  5.591147568287809 0  C 8.895544636908728 0  10.444045636242505 2.1753335753140988  10.932364534754608 5.771320933294595  Z " fill-rule="nonzero" fill="#efebdf" stroke="none" transform="matrix(1 0 0 1 3323 526 )" />
  </g>
</svg>