<?xml version="1.0" encoding="utf-8"?>
<svg version="1.1" xmlns:xlink="http://www.w3.org/1999/xlink" width="11px" height="25px" xmlns="http://www.w3.org/2000/svg">
  <g transform="matrix(1 0 0 1 -3341 -519 )">
    <path d="M 0 25  L 0 0  L 2.640322421813 0  C 2.640322421813 0  2.640322421813 8.968466722130785  2.640322421813 8.968466722130785  C 3.7355052105357673 7.7545821107749004  5.567734068620352 6.648259562443515  6.814729104274434 6.648259562443515  C 9.460372123199194 6.648259562443515  11 8.02603823653004  11 11.355269954139763  C 11 11.355269954139763  11 25  11 25  L 8.354293261349353 25  C 8.354293261349353 25  8.354293261349353 11.703510975032719  8.354293261349353 11.703510975032719  C 8.354293261349353 9.62404297305335  7.692818786892274 8.732859600730613  6.272569816545117 8.732859600730613  C 4.982245367286293 8.732859600730613  3.816620421592877 9.557522150530959  2.640322421813 10.945549847273007  C 2.640322421813 10.945549847273007  2.640322421813 25  2.640322421813 25  L 0 25  Z " fill-rule="nonzero" fill="#efebdf" stroke="none" transform="matrix(1 0 0 1 3341 519 )" />
  </g>
</svg>