<?xml version="1.0" encoding="utf-8"?>
<svg version="1.1" xmlns:xlink="http://www.w3.org/1999/xlink" width="291px" height="287px" xmlns="http://www.w3.org/2000/svg">
  <g transform="matrix(1 0 0 1 -3165 -216 )">
    <path d="M 210.06861873479167 286.5086213403578  C 209.23297798195748 286.8413606516067  208.22356959895603 287.00000000000006  206.99169593210036 287.00000000000006  C 204.86038026312525 287.00000000000006  202.493875675216 286.5137850633699  200.40597902954693 286.0838210975395  C 199.26625255199866 285.85096468881335  198.23624835681753 285.6359827058982  197.42877047011925 285.5463966948255  C 195.95929741149672 285.37749100955614  194.76336725093387 285.37749100955614  193.70269817984084 285.37749100955614  C 192.6089232476888 285.37749100955614  191.7502762098421 285.37749100955614  191.00913209451943 285.1881748688309  C 189.9051355370634 284.91691136054203  190.09931590552424 283.8906748824048  190.18365194236046 283.4505056888465  C 190.23231908373305 283.19971374516143  190.28333567330978 282.9182450091445  190.2066277150586 282.805651403823  C 190.1734608293709 282.7621111358221  190.02010593749714 282.60854384671865  189.41449752247348 282.53435734096  C 187.51565517645608 282.29639831836994  186.07428395934082 281.27266731530375  184.80420887493128 280.36681585886726  C 184.14740079644486 279.89844479347397  183.52647519962235 279.4557090156967  182.87982772181115 279.13586373469093  C 181.76307701696095 278.57540118315404  181.58162028357998 277.6515530826105  181.55092489535383 277.0347784511258  C 181.55092489535383 277.0347784511258  181.4742169371026 277.08595736263567  181.4742169371026 277.08595736263567  C 180.8175614201878 277.5286625858389  180.38303555166954 277.9356495119945  180.00236391796156 278.29390189256316  C 179.24581108389702 279.00276801019146  178.59409856190535 279.61434836409006  176.88446307711132 279.8574711096921  C 176.57015572709324 279.90608343698295  176.30945851337083 279.9214218331488  176.0897393378073 279.9214218331488  C 175.65011791279414 279.9214218331488  175.36388189196907 279.85236849582816  175.17220353328406 279.7909232474423  C 175.08530446204327 279.91378318963996  174.63036585523142 280.6073414656763  174.63036585523142 280.6073414656763  C 173.84580271660255 281.78195095533084  173.16861241213684 282.4140639829814  172.38404927350814 283.1459988040067  C 171.7860384247551 283.70383366217646  171.10881760797508 284.3333801056081  170.24504450131923 285.34168104878626  C 169.65981831227475 286.02243695830174  169.01844946484442 286.37042300199437  168.3360720669409 286.37042300199437  C 167.23463854388945 286.37042300199437  166.35542620617755 285.48757913980677  165.5734261019533 284.7146400804257  C 165.20029100988737 284.3410798582651  164.81443228274162 283.9597282197255  164.52569425214057 283.81132465363413  C 163.03062136178661 283.071781743674  162.67292550077678 281.28803626604366  163.56476993662565 279.0462777236183  C 164.0452168382259 277.8485689759927  163.95313067354735 277.53639289307  163.71556179409473 276.6970281897352  C 163.71556179409473 276.6970281897352  163.53920061720854 276.06491516208456  163.53920061720854 276.06491516208456  C 163.4190736356513 275.5786696708804  163.18397625366035 275.1871433591869  162.9361247242751 274.7725177895224  C 162.586026429536 274.1839755844467  162.18732201805307 273.5134249026592  162.18732201805307 272.5870102178967  C 162.18732201805307 271.38172393591043  163.01786721439248 270.90828081122714  163.68489691818286 270.52692917268763  C 164.03502572523635 270.32734669508636  164.39528462065067 270.1226310490472  164.69949239462218 269.8155575799883  C 164.74547445233284 269.7720478665615  164.87841660591292 269.6389215874879  164.81702582946048 269.2576005035223  C 164.68152064147586 268.4284715824895  163.71046623759992 267.1975194583132  162.85426018490043 266.7727497700689  C 161.85763646160748 266.2737324669178  161.9317203608254 265.20398627535377  161.9777939554791 264.5642346041942  C 161.98795455615434 264.37739338396597  162.00586528467204 264.098460677594  161.9777939554791 264.0165744191783  C 161.67111468404605 264.18804668866665  161.45133448385377 264.2084571441225  161.24430843105574 264.2084571441225  C 159.61632389943603 264.2084571441225  158.67602590841503 262.96473320799925  158.64017393906533 262.9135237419154  C 158.64017393906533 262.9135237419154  158.48172349069685 262.69857231357423  158.48172349069685 262.69857231357423  C 158.48172349069685 262.69857231357423  158.5328926418453 262.4401722809543  158.5328926418453 262.4401722809543  C 158.6989406564845 261.5956744091815  158.92903401892372 259.20798722116155  158.02428287410905 258.29950807135805  C 157.18351605246568 257.45751567465624  156.87946084006586 257.2886099893869  156.2200897271749 257.2886099893869  C 155.79581599627477 257.2886099893869  155.26682400255928 257.3628881588676  154.52317787746065 257.46518487273914  C 154.3570688381928 257.4907590512071  154.20374445863342 257.5010864972311  154.05807866997344 257.5010864972311  C 152.3789554995197 257.5010864972311  151.76822101568686 256.11403105430634  151.32094099977425 255.10062749726418  C 151.11653900600948 254.6348230160899  150.92229761291998 254.19465382253162  150.68210467443419 253.95412821572256  C 150.68210467443419 253.95412821572256  150.27064611555696 253.53959430978014  150.27064611555696 253.53959430978014  C 150.27064611555696 253.53959430978014  150.38305348158613 252.85877729111664  150.38305348158613 252.85877729111664  C 151.30815634006572 251.89148058629436  152.3407235696514 251.04945763501848  153.45747427450158 250.3457552404023  C 154.2752348111325 249.83133843193718  155.00359426674663 249.44237870446264  155.6553067887383 249.09436210619603  C 157.1246883104178 248.30617631437104  158.09580373892237 247.78665689204198  158.94422915146518 246.5070924405748  C 160.01505882323335 244.90765215352795  160.5492379103867 243.34915499568882  160.34483591662192 242.43551212287323  C 160.26800590911336 242.09256758389654  160.0942382789461 241.84950594744257  159.80296772625488 241.67283940036808  C 157.97067273781335 240.56988038682735  156.73373402677723 238.22830005102728  157.9118449957655 235.88415313100816  C 158.50213622899042 234.68647493795666  159.31739475584538 232.5394050204679  158.08817566033738 231.6155569199244  C 158.08817566033738 231.6155569199244  157.65627385085222 231.29568108434458  157.65627385085222 231.29568108434458  C 156.3887007762186 230.36413323114408  154.80938338597147 229.20996475151946  155.19023809356548 227.33926095618364  C 155.55812506756487 225.44808559624377  155.4891977494704 224.1762514520077  154.98058798173412 223.55944626594894  C 154.7403035063053 223.26257802461805  154.38251610835252 223.1193076269647  153.88168698077294 223.1193076269647  C 153.52142808535856 223.1193076269647  153.09453029542533 223.19606071694238  152.6141139061393 223.3445559467559  C 151.60470552313782 223.65670147510463  150.60799026290186 223.8153102689239  149.65728757269088 223.8153102689239  C 147.6869853864888 223.8153102689239  146.06415743599254 223.0987749532127  145.62456652329374 222.0341924846607  C 145.38184106271768 221.45075289344896  145.51987877279262 220.83403937111234  145.99779315230268 220.35032990955318  C 146.232829509665 220.11997897589796  146.29159622708417 219.98944983561745  146.3043808867927 219.95363987484762  C 146.3043808867927 219.95363987484762  146.2992243056692 219.95363987484762  146.2992243056692 219.95363987484762  C 146.232829509665 219.95363987484762  145.7983951780897 219.70290904031063  144.0913227277003 219.70290904031063  C 141.99054988537958 219.70290904031063  140.91981175055437 219.32922659985402  140.50579015727263 217.21026689047804  C 140.12752899639761 215.34726284779913  139.64708209479724 215.20399245014573  139.51163793144124 215.20399245014573  C 139.40945219071602 215.20399245014573  139.1769178431296 215.2500076386435  138.7910591159838 215.55967824649537  C 138.18014155826495 216.0433265989065  136.58813104525228 217.1718903454892  134.9754636954314 217.1718903454892  C 133.64918492800717 217.1718903454892  132.66009774635626 216.3811379694452  132.18224439147494 214.94030647621764  C 131.46673062019792 212.80603892524982  130.87128280584952 212.80603892524982  130.47767395086134 212.80603892524982  C 130.17105570405698 212.80603892524982  129.80307719311455 212.87768940136348  129.3685208122819 212.96724485786223  C 128.96731439102297 213.04916167085184  128.7526907719542 213.0696332354558  128.53031702504305 213.0696332354558  C 126.71843477489514 213.0696332354558  124.86822905793598 211.70564649592797  123.91236978660149 210.43891496555588  C 123.71559587142174 210.1726929619828  123.54182824125448 210.12151405047302  123.31182641575835 210.12151405047302  C 123.14571737649045 210.12151405047302  122.97960833722257 210.14965481315983  122.8134687856403 210.1726929619828  C 122.59115606335783 210.2034003088887  122.36893487801838 210.23154107157552  122.14906314088317 210.23154107157552  C 121.49484860911555 210.23154107157552  120.98370631928903 209.97051334558853  120.58249989803015 209.4331194974486  C 120.06113598289967 208.73959177598627  120.03559717579695 207.97441357841012  120.01771695959368 207.47026310682102  C 120.0151234128747 207.35253633306152  120.00755635891835 207.20669935118906  119.99724319667136 207.11201072625246  C 119.98186499024392 207.18363064779217  119.83375821643673 207.20926593540807  119.57815655920915 207.2961936985397  C 118.56356108276984 207.63913823751642  117.61798446136805 208.27384840396  116.5190834604068 209.01088583884922  C 115.59910667073638 209.62506333154093  114.55643986510411 210.32626025108618  113.3092795287641 210.9532401102988  C 113.3092795287641 210.9532401102988  112.36117038527198 211.442052185722  112.36117038527198 211.442052185722  C 111.15242505268623 212.0741652133726  110.10978875936826 212.62179484381448  109.09259973621008 212.62179484381448  C 108.11898229792958 212.62179484381448  107.28578253024264 212.1202109564444  106.55492106485251 211.09397447830725  C 105.78308156130359 210.00632330635838  105.00883158492186 209.14392045420067  104.32645418701833 208.38130884084356  C 103.55473673272675 207.51896709783395  102.8875849796789 206.77413824656563  102.49916321812854 205.99878537583564  C 102.43786397861922 205.87338940399312  102.24874865433878 205.4946043496725  101.44627478719234 205.4946043496725  C 101.2444358278321 205.4946043496725  101.05272695683288 205.5176730530695  100.89687005518331 205.54834984540136  C 100.74610871002847 206.41591642057105  100.29117010321656 208.09476804553682  99.06704656420331 208.09476804553682  C 98.8524534574489 208.09476804553682  98.64030133584177 208.03842541101497  98.42821023886319 207.93347044920228  C 97.0813051469451 207.25787826269885  91.5996763387907 203.71348656540937  91.36189387313783 203.5625164150989  C 91.36189387313783 203.5625164150989  91.3594223756762 203.5650829993179  91.3594223756762 203.5650829993179  C 91.27261484137843 203.5650829993179  89.83121311194884 203.04816071578188  88.79870690699185 200.25861977004442  C 88.22888943668926 198.75139318743717  87.19385070964198 198.0834396444427  86.19713544940608 197.4384936956971  C 85.56077062152751 197.0290624036187  84.96541434412214 196.64010267614424  84.53098001254675 196.07197092652436  C 84.26515673001519 195.71619346645264  83.90996287878129 195.3170285112502  83.51382150170288 194.87432328804692  C 82.37650549698746 193.60496406430767  80.96085616086098 192.02089272800072  80.43177263020245 190.18602944800875  C 79.75198877901776 187.78557044804185  79.70085014018363 185.84828823588217  81.54089525646754 183.62950673313156  C 82.59378368740374 182.35770314346948  83.2326505250582 182.1349908533233  83.95087989231145 181.97888753457485  C 84.29066502480357 181.90213444459715  84.55645779502078 181.84068919621143  84.98332507263976 181.52341049942467  C 85.12645833920949 181.12675101929315  84.36227742655996 180.53555056627633  83.90227377556756 180.18240079957167  C 83.45243072525045 179.83951736974305  82.98482950798736 179.4735346819434  82.58865761859461 179.0845138453208  C 81.07320250226142 177.56442378704463  81.39013391131276 175.9880216488207  82.02646822687704 172.84025887708853  C 82.02646822687704 172.84025887708853  82.08532648123918 172.52298018030177  82.08532648123918 172.52298018030177  C 82.50694564079163 170.41938942166584  83.53939082111998 169.18336523819954  84.36996652977368 168.19043324576128  C 84.90149104557943 167.55315649509868  85.32063870767031 167.0541697465216  85.42795051720469 166.50904559115062  C 85.60428118177653 165.628707204034  85.33845789924499 164.848190610292  85.00623982070923 163.86039178629173  C 84.79424026067373 163.23338137250508  84.55401680987357 162.52451525487677  84.41854213420324 161.71069417543586  C 84.0964541440284 159.75297095324626  83.69018267858905 153.79282769168495  85.2157983955975 151.8734657371972  C 86.751727274853 149.95667036692845  87.77916843562946 148.51845128978096  86.92296238293001 147.66115105148725  C 86.66226516920761 147.39757201856827  86.41444415213671 147.29267816590365  86.06941090157808 147.29267816590365  C 85.81896582547397 147.29267816590365  85.56845972474123 147.33869335440144  85.30779302333312 147.38735151355337  C 84.96541434412214 147.448750930078  84.61012895594521 147.5101350693158  84.24474399172162 147.5101350693158  C 83.68255460000407 147.5101350693158  83.1816034231671 147.36687994894936  82.7036585313427 147.08021693534647  C 81.53326717788255 146.3764839861562  81.29557624917258 144.90240911637773  81.10899344698244 143.72268173557217  C 81.03487903545017 143.26712831398694  80.92500419151122 142.5736005925245  80.7844949839748 142.4431478386791  C 80.55446264616421 142.37149736256538  80.34740608105182 142.30241347067067  80.24525085264094 142.30241347067067  C 80.10214809838554 142.30241347067067  79.70085014018363 142.70412973280503  79.09521121284567 143.31580175042578  C 76.7211090586658 145.6752717893238  75.75502816202732 145.6752717893238  75.43312324573859 145.6752717893238  C 75.09312452704603 145.6752717893238  74.27286198063926 145.54478848090434  74.07090097202168 144.32917475289386  C 73.79235405441027 142.6478634847183  74.15532854580091 142.08483434896237  74.74815230111606 141.41689608325495  C 74.88106394238184 141.2684925171636  75.02419720895158 141.10470472304513  75.16980197298287 140.88975329470398  C 75.01147357387174 140.874384343964  73.93548732098002 140.5826492710711  72.93120500678768 140.48284275498347  C 72.93120500678768 140.48284275498347  72.23860598358024 140.4162796154467  72.23860598358024 140.4162796154467  C 72.23860598358024 140.4162796154467  72.41237361374745 139.74067215165633  72.41237361374745 139.74067215165633  C 72.41237361374745 139.74067215165633  72.75228079549693 138.38432405563742  73.43206464668155 136.34989357533127  C 73.73364836161979 135.44395045517265  73.73364836161979 134.14133257759562  73.73364836161979 132.99234309827  C 73.73364836161979 131.66412048765102  73.73364836161979 130.51506989917738  74.16039358998145 129.86503661385487  C 74.58463680856715 129.22782097234025  75.3359415245651 128.85161777952564  76.06433149249361 128.48569620087406  C 76.64958819385244 128.18884323683025  77.25516609656172 127.88429052012931  77.50313967520428 127.51580235725874  C 77.69219397485597 127.23430306666783  79.26900935532728 124.7110146790774  77.46475518376441 121.0975085353191  C 77.07883543198994 120.31951269393502  76.70835491127156 119.6516049828016  76.38114085228759 119.06558353008391  C 75.27207925065112 117.06436587175446  74.54118727294676 115.74636376615041  75.48923539181008 114.17511007365141  C 76.07202059570733 113.19239858622815  75.81644945079407 112.56286742008358  75.4637881216504 111.68763164683091  C 75.32065485508066 111.34470238514115  75.18002359828682 110.9890013115045  75.08549644846097 110.61278284140292  C 74.72523755304665 109.17201245732346  75.77040636845476 107.63397158680127  78.02959914682963 106.28788982765836  C 79.14122378287064 105.61226708658091  78.90612640087959 104.32503343703083  78.11906125247499 102.33151553135842  C 77.43668385457146 100.63990737173283  74.5104918847205 97.26190060735466  73.51646170814652 97.01619600024657  C 73.51646170814652 97.01619600024657  73.47298166021172 97.01364469331462  73.47298166021172 97.01364469331462  C 73.1714284575879 97.01364469331462  73.00788245272459 97.22352406236583  72.70123369360583 97.67389848365208  C 72.31018787302222 98.24203023327199  71.8271779370174 98.94834504396825  70.88157080330116 99.32965085064686  C 70.6106519642748 99.43459053517245  70.36792650369875 99.49088733783321  70.1353006191693 99.49088733783321  C 68.95718965018109 99.49088733783321  68.70171004221079 98.28810653091783  68.49721651150298 97.32330002387941  C 68.40018735190125 96.86265926571716  68.29781853728997 96.38156222023801  68.12151838503254 96.02841245353342  C 68.12151838503254 96.02841245353342  68.11901637525659 96.02330983966942  68.11901637525659 96.02330983966942  C 67.79439586299152 96.36619326949803  67.27818852898454 96.73472726422968  66.42213503785676 96.73472726422968  C 66.25855852067917 96.73472726422968  66.07707127498385 96.72195545228277  65.88286039420862 96.68863568929687  C 65.88286039420862 96.68863568929687  64.65614330847646 96.47108712216269  64.65614330847646 96.47108712216269  C 63.28379094639867 96.2177438715456  61.73516894437778 95.93624458095466  60.75642543728812 95.93624458095466  C 60.40370308351577 95.93624458095466  60.23252900006742 95.97465168051754  60.165981642491566 95.99764399747944  C 59.568031818367224 96.19469044543565  58.328591097555204 96.32526541757723  57.073802682630095 96.32526541757723  C 55.83689448390838 96.32526541757723  53.49083314660705 96.19216969307772  51.70195718147163 95.29904421672713  C 50.669542513457664 94.77697348746611  49.56032835024949 94.35218852193479  48.58420890219315 93.9759700518331  C 46.93584214459425 93.34387230146953  45.6325391498682 92.84737575067638  45.123898869817644 92.0847794146063  C 44.26012576316174 90.79757631963024  45.05488001478012 89.20832598302422  45.757639638662894 87.80848345086554  C 45.87010802932082 87.57819362635847  45.8164368683964 87.44254659492691  45.76535925419096 87.36064505922427  C 45.6325391498682 87.14570890817015  45.25677999876902 86.9333087867609  44.71491180840202 86.9333087867609  C 44.3291446181992 86.9333087867609  43.940631319705886 87.04076922364445  43.58793947824781 87.25064859269574  C 43.3042970041416 87.424656891829  43.01049392936017 87.50907917988968  42.7115037611408 87.50907917988968  C 41.129623336489075 87.50907917988968  40.29636254417344 85.10348701148476  40.07404982189092 84.35112645771667  C 39.092773792711085 83.17650169077517  38.59185312818852 82.7747243194927  38.119095329801944 82.7747243194927  C 37.82263768367286 82.7747243194927  37.45200460138289 82.92057657865213  36.917917051172566 83.24303427573795  C 36.917917051172566 83.24303427573795  36.521806186408426 83.48360571440796  36.521806186408426 83.48360571440796  C 35.64018337586364 84.01844825561595  34.8735309657525 84.48164032071014  34.17836890814042 84.48164032071014  C 33.62377708269351 84.48164032071014  32.913389380225695 84.1976202777613  32.68085503263932 82.83099056757945  C 32.4226903410071 81.29556211313734  32.4226903410071 81.29556211313734  30.97878660180161 81.01403226797234  C 29.943778387068793 80.80161686927615  29.3636477545191 80.43059267676057  29.092728915492795 79.87269670944274  C 28.69408552863843 79.05119115463187  29.080005280412887 78.09408440025045  29.407127802453896 77.44403583764087  C 29.50418747436992 77.2470046669717  29.60390171763359 76.9732051290377  29.501593927651058 76.80425361190726  C 29.376462926541972 76.59189932235917  28.88573337500909 76.35390974519511  27.873761957602984 76.32062053678321  C 27.873761957602984 76.32062053678321  27.457177329916654 76.30528214061724  27.457177329916654 76.30528214061724  C 26.762106809247598 76.31803867527717  26.197323870811072 76.41275785478784  25.599313022058155 76.51511567780747  C 24.968043750674337 76.62260666926504  24.313859731221115 76.73263369036759  23.51904445497405 76.73263369036759  C 23.112711964906016 76.73263369036759  22.670588530116966 76.7018957888877  22.174824446717896 76.63540903578601  C 20.73604677632156 76.4255296667348  19.57325298913212 75.67313855839261  18.344033893624005 74.87729884577169  C 17.429061123505356 74.286144224616  16.48604753650809 73.67700823664023  15.369266319343616 73.25732588497279  C 14.87868932938232 73.07311235811153  14.387898753220702 72.98352634703885  13.866595862718968 72.98352634703885  C 12.53516051417135 72.98352634703885  11.30087637448283 73.5747115227687  10.214637983972809 74.09933355896166  C 9.828809769141314 74.28354708582287  9.465926814693681 74.45500407802427  9.13370873615792 74.59068166402974  C 8.38484500530715 74.88751935078663  7.712811281964926 75.03593819416506  7.073883419681785 75.03593819416506  C 5.719441786121735 75.03593819416506  4.531109191829453 74.39615596843149  3.4398362694533042 73.07821497197553  C 0.9941217135170496 70.13267764849874  -0.04851457980086888 68.13654732674625  0.3552243635482487 67.14364588888206  C 0.37569812647050216 67.08733380893423  0.40636300238237216 67.02335253090352  0.4524060847217442 66.95425336172177  C 0.4524060847217442 66.95425336172177  0 66.5473428220013  0 66.5473428220013  L 1.6305170537099567 66.4066084539929  L 1.658618895217309 66.43474921667976  C 1.658618895217309 66.43474921667976  8.236677206871288 66.41941082051378  8.236677206871288 66.41941082051378  C 9.40459706287 66.41941082051378  9.752162835518808 66.17882410455671  10.002607911622915 65.19357658748844  C 10.35517770382357 63.737437252669004  11.6457875757841 62.99529720391577  13.84102654330185 62.99529720391577  C 14.28321100271958 62.99529720391577  14.773818504995159 63.02087138238371  15.315625670733542 63.08482210584041  C 16.84642848117988 63.2511917614648  18.254541275664288 64.03939283057683  19.384198689480428 64.66640324436345  C 20.048573821923217 65.03745799145302  20.73604677632156 65.42134565963758  21.047882628878092 65.42134565963758  C 21.622826167989952 64.27996426924693  21.668869250329216 63.95750657216115  21.91931432643332 62.15845325293899  C 21.91931432643332 62.15845325293899  21.995930747741543 61.59032150331908  21.995930747741543 61.59032150331908  C 22.11608824161307 60.78423073110923  21.84504735332935 60.154653733103615  21.556339835042667 59.49186391312116  C 21.106618833982914 58.455437484543054  20.60051107602253 57.27823085609552  21.776242084492324 55.637801607979675  C 23.439895511575706 53.30389047026257  24.817373942462584 52.21885171439376  26.621567089396784 51.12866451279989  C 27.061096977466978 50.86508547988093  27.472525024029817 50.504220683232184  27.889109651716087 50.13826855000661  C 28.791267249811924 49.352649342400625  29.81852533670234 48.45695728183103  31.16280636958723 48.45695728183103  C 31.602336257657306 48.45695728183103  32.05214879566008 48.55418193641269  32.50452436806743 48.75125893894291  C 33.158708387520655 49.03017636802785  33.8665635678983 49.411512729280375  34.579544817084965 49.80048773404189  C 35.9289214064646 50.532376723206085  37.32431056586922 51.28728858390622  38.31837125475759 51.28728858390622  C 38.57900744385137 51.28728858390622  38.791190077772846 51.23617078154451  38.9674902300304 51.12866451279989  C 39.66524583436139 50.71151819077744  40.40373537833644 50.45817494016043  41.060573969137266 50.23298772951729  C 42.02656332883268 49.897727665910594  42.78812018244901 49.639251246855515  43.092205907163084 49.03017636802785  C 43.603317684675254 47.99885255331377  44.313918973343455 47.47681237862675  45.295103465580276 46.75512861719053  C 45.74494651589739 46.4224504150898  46.279003553793366 46.030908826109204  46.9102118005485 45.50370492841017  C 47.26040163223056 45.211954578230326  47.579896075686534 44.93048584221344  47.87366863815368 44.66944283893936  C 48.92408557162828 43.7455794611089  49.757102265429246 43.01113916501266  50.71299204907807 43.01113916501266  C 51.15517650849579 43.01113916501266  51.574171609014996 43.164675899542125  51.99075623670138 43.482015705476904  C 52.25142293810939 43.67649556921412  52.49158536428086 43.77631736258879  52.7088635546972 43.77631736258879  C 53.18171289002686 43.77631736258879  53.56497807045367 43.264497692916706  53.73361963181184 42.76034722132761  C 53.79241686154529 42.578623892250306  53.81035810237731 42.43022032615893  53.82823831858065 42.271550423191556  C 53.950867309913846 41.25301369771139  54.42112309852453 40.94335836714656  56.22534675777301 40.6849125026656  C 57.6768480632492 40.47759971783327  57.79191000062597 37.38362827369108  57.71526306700347 36.316448666346076  C 57.71526306700347 36.316448666346076  57.6768480632492 35.76373169932724  57.6768480632492 35.76373169932724  C 57.6768480632492 35.76373169932724  58.22381181011113 35.6817996090505  58.22381181011113 35.6817996090505  C 58.30045874373363 35.6690277971036  60.13028223471352 35.37217483305968  60.393511970526156 33.823913457522565  C 60.498230233341616 33.186651984147  60.65668068171011 32.2142221108867  61.45152647027157 32.2142221108867  C 61.92934931283862 32.2142221108867  62.25906538159843 32.58272555104432  62.859608752441694 33.24297934138178  C 63.09989322787047 33.50910968123281  63.38857023384287 33.829016071386555  63.73366450903013 34.174481362721224  C 64.29835591052363 34.74261311234111  64.82994145095806 35.018979234494005  65.35392942512185 35.018979234494005  C 66.00805241994632 35.018979234494005  66.67258011396088 34.586525070879695  67.29353622309772 34.11818456006044  C 68.03721286051059 33.557737285810575  69.98191521498133 32.26026785395851  71.96515462246359 32.26026785395851  C 72.243701540075 32.26026785395851  72.5121488816398 32.2858725870004  72.78038263700428 32.33960280544226  C 73.9508960397218 32.56992318452333  74.48501410224645 33.36324214478631  74.91682437478852 34.000473063587876  C 75.22091009950265 34.45344462366722  75.48423137225831 34.84241962842873  75.93141985122783 35.06507080942692  C 76.63930554391976 35.420771883063466  77.36763448721958 35.44892792303737  78.3745713727595 35.489916884106286  C 79.05173116491088 35.51552161714824  79.82613370286438 35.548734439124985  80.7512670736583 35.6817996090505  C 83.61603775474249 36.083576980332964  88.25445875610626 40.669574106499624  88.77063557779891 41.19161428118662  C 89.22301115020626 41.641988702472865  89.54244456903348 42.26129936360252  89.87975820406406 42.91643526278903  C 90.59795705900295 44.298357537275784  91.15239632287816 45.20173407321542  92.29984241595463 45.20173407321542  C 92.56828975751937 45.20173407321542  92.86465586670543 45.15313702321154  93.18674385688027 45.05586653676892  C 94.12707236021559 44.77438252346498  94.88353365733707 44.49030137136812  95.5327136572385 44.24207601190208  C 96.66737509060643 43.81469390757763  97.56437610757867 43.47946439854495  98.60969748455851 43.47946439854495  C 99.11305913422828 43.47946439854495  99.63189052726851 43.55624804309664  100.19411043130053 43.717453975709006  C 100.67196378618186 43.855606482211435  101.08342234505905 43.993835375148954  101.4539333780917 44.11666476277248  C 102.19251445900986 44.36236936988061  102.72925658056776 44.54151083745196  103.30670212945546 44.54151083745196  C 103.8255335224957 44.54151083745196  104.39284898302253 44.40074591486945  105.13911916715433 44.07573691085172  C 105.74744317815427 43.81469390757763  106.34282996787405 43.68159818307811  106.9152714972099 43.68159818307811  C 107.83530931150902 43.68159818307811  108.62493749431826 44.02966061320588  109.13604927183049 44.654089165486454  C 109.60624403581244 45.23247197469528  109.78510722247456 45.97461202344842  109.6267177987347 46.747444141820495  C 109.56535753459661 47.05454816545334  109.54753834302196 47.48958419057364  109.80823555674435 47.804326857715466  C 110.04070887970211 48.08840800981244  110.47517372359182 48.24197529891582  111.02973503672435 48.24197529891582  C 111.39002444445306 48.24197529891582  111.78872885593606 48.183127189323116  112.21803711870228 48.057715940193525  C 112.49148847981883 47.98093229564183  112.75725073772176 47.942555750652986  113.00772632614016 47.942555750652986  C 114.3341271428217 47.942555750652986  114.93973555784537 48.999499575696  115.47391464499866 49.93610421089944  C 115.83679759944636 50.563084070112055  116.17414174679126 51.15680527548675  116.69028805616955 51.466430051477566  C 116.69028805616955 51.466430051477566  117.36756989757824 51.88105562114199  117.36756989757824 51.88105562114199  C 118.10868350058661 52.34936557738723  118.59935202749087 52.65388773951406  119.05429063430277 52.65388773951406  C 119.2741318591237 52.65388773951406  119.50654415745278 52.589906461483324  119.78771513409743 52.44659023196889  C 121.21373865709957 51.73773939162756  124.85031832941829 51.39739199144384  125.00617523106787 51.38454379306188  C 125.00617523106787 51.38454379306188  125.2157643182705 51.36407222845791  125.2157643182705 51.36407222845791  C 125.2157643182705 51.36407222845791  125.38947092380914 51.47926297257256  125.38947092380914 51.47926297257256  C 126.0743503314885 51.93481639415787  126.66479412628512 52.32634270585133  127.5413213803352 52.32634270585133  C 127.94768438271754 52.32634270585133  128.38211871429291 52.244425892861614  128.87538078791604 52.078086791811245  C 129.69570435895147 51.806853838096345  130.4981782260979 51.18751262239263  131.14470365465183 50.68849531924154  C 131.81679840262268 50.168975896912464  132.30746692952698 49.79278798138489  132.7930398999364 49.79278798138489  C 133.19165277447635 49.79278798138489  133.51114721793226 50.04104389542503  133.64405885919805 50.455593078654395  C 133.8102289230946 50.949523045228545  133.64405885919805 51.60464366712804  133.45753708163664 52.359586082402174  C 133.29658462349218 53.00450147657374  133.0537371136588 53.97954376591404  133.2760193236269 54.26354853157592  C 133.36538989232932 54.37362138453953  133.6082679144771 54.39154164221145  133.74377310246172 54.39154164221145  C 135.4713193157734 54.39154164221145  135.4713193157734 54.39154164221145  136.3861700366347 53.07615195268747  C 136.3861700366347 53.07615195268747  136.92800771468748 52.30076852738345  136.92800771468748 52.30076852738345  C 138.0652016701455 50.70643085420049  138.650519396133 50.3839426025407  139.58328084551195 49.95915763700935  C 139.97682867587147 49.78256747636995  140.43674078992083 49.570167354960795  141.08842279959822 49.13510077526642  C 142.2793489406093 48.344333121935485  142.51707038163354 47.72758904502474  142.84925794785497 46.87540669788201  C 143.03065365660729 46.40964804856881  143.23008214313464 45.90294627004768  143.57758689115482 45.322027431193945  C 143.93281125470307 44.728290948532184  145.80095821249427 41.77766628847846  147.71255470590586 41.77766628847846  C 148.1034784772321 41.77766628847846  148.46636143167973 41.8978832600219  148.7833233530454 42.13591866904704  C 149.46814173609616 42.652825675296036  149.84130734047648 43.474331230106955  150.1684603748317 44.201117605407156  C 150.63093552328564 45.222205637819286  150.90704145574992 45.700781930940515  151.43340939043213 45.700781930940515  C 151.43340939043213 45.700781930940515  152.3176562600102 45.71358429746151  152.3176562600102 45.71358429746151  C 153.02300943061195 45.71358429746151  153.28364561970562 45.71358429746151  153.51364744520185 43.883762522185364  C 153.86887180875007 41.02527518013625  154.3008041305495 40.157723882253535  156.87424323431372 39.059806373428664  C 157.48250622068497 38.79882447930268  158.02171983970445 38.486617841805845  158.50988635683282 38.20763930357286  C 159.36087480378015 37.72400622844881  160.0942382789461 37.3017420152754  160.85582564487672 37.3017420152754  C 161.51263372336325 37.3017420152754  162.07485362739516 37.606264177402224  162.57827630169362 38.23327459118885  C 163.08426201039669 38.86535706426545  163.45489509268666 39.617717618033545  163.78201761472766 40.28565588374104  C 164.3211702091184 41.38097625377291  164.67907965632867 42.04378135104232  165.17734574950356 42.04378135104232  C 166.17900400466263 41.85953726960707  166.17900400466263 41.85953726960707  166.44491882413718 41.1711274392957  C 166.60590179459592 40.75908373113721  166.83334058568752 40.178164892283384  167.2498641887452 39.34133621859357  C 167.73543715915469 38.376560266129275  167.88879205102833 37.55763657282435  168.0114515546758 36.89483147555494  C 168.18778221924765 35.98635232575142  168.37946057793258 34.960161679475306  169.6751660063879 34.960161679475306  C 169.83364696707073 34.960161679475306  170.02019925694657 34.975484798354245  170.2271642851159 35.01131003641105  C 170.76637790413534 35.10344735441576  171.19571667921588 35.2364972470542  171.54578446164064 35.34912140694977  C 171.81157723185785 35.43360480415846  172.0416095696684 35.50519417112414  172.17192766421527 35.50519417112414  C 172.34063025020203 35.50519417112414  172.59107532630614 35.121367612087674  172.9181978483471 34.35872544415654  C 173.19161869714935 33.718973772996975  173.51614767247136 33.071491794606374  173.8356421159273 32.436827460023814  C 174.65087013046798 30.811782439935005  175.42258758475953 29.278874737850803  175.20805550263375 28.014694514410664  C 174.9217889694943 26.284725087083196  174.39023394137422 23.065342393811438  176.42439840149027 21.427510284488594  C 176.9381342380357 21.020607383411694  177.32146044309124 20.677693399008987  177.65364800931272 20.380848073608632  C 178.4382721725701 19.674502708338267  179.00299408637795 19.167808568460718  180.2553110038415 18.666232319734092  C 181.1062994507889 18.32331069668791  181.28003656864175 18.052024272468458  181.94450323802764 17.038620715426287  C 182.37387252542248 16.37836692508882  182.96422478327608 15.472446720860729  184.0119566330888 14.162174922487772  C 186.4703643117906 11.091241627168362  186.81286504025897 10.937674338064962  188.77556966019034 10.69200792417445  C 188.77556966019034 10.69200792417445  190.44181663399263 10.469349104532776  190.44181663399263 10.469349104532776  C 192.16939335961865 10.251831091972582  193.4164621590157 10.09060224342969  194.40551882835234 9.105354726361433  C 194.72498275949386 8.78292758384964  194.71976515374172 8.649816582063174  194.71976515374172 8.649816582063174  C 194.70713305560486 8.503971961547213  194.2393487644557 8.15594008599356  193.93010645861813 7.925589152338371  C 193.5519063223718 7.64920775289841  193.13288070953817 7.337008754045126  192.73670882014542 6.937782689694695  C 191.10118774688368 5.312745308249355  190.90944836357005 4.017804267398699  191.94195456852708 1.602029787196441  C 192.39680163839594 0.5399757096459654  192.99993855595807 0  193.7410216466521 0  C 194.83479657880412 0  195.78803179110537 1.2028037228459105  196.656900454256 2.505398684492496  C 196.656900454256 2.505398684492496  196.85623740384034 2.807354262400311  196.85623740384034 2.807354262400311  C 198.0190617033442 4.56547972970169  198.29248255214645 4.985177358656098  199.93322123116036 5.2589845352334805  C 201.5892160673444 5.532837543672029  202.01089625152557 6.781671732302739  202.35327493073655 7.787421368548967  C 202.5271951224755 8.299225760933986  202.6907106150245 8.780330445056634  202.9819811677157 9.171894949967669  C 203.6592324968101 10.070138317469292  204.1755313677601 11.487901107299892  204.6329414720336 12.734191627642145  C 204.89098411440838 13.453301166215896  205.13386213655613 14.118665209060932  205.3791811438511 14.602313561472037  C 205.9669093426714 15.79233783372753  206.513934114162 16.29646538938608  207.21147613229257 16.29646538938608  C 207.51824694066872 16.29646538938608  207.86578220100316 16.199240734804533  208.24651485933987 16.00729690071219  C 208.8522148113065 15.705303129586888  209.37867428293177 15.32658682305781  209.83867793392417 14.988767813875603  C 210.59507820641696 14.441115267503152  211.2492927381846 13.967656865532968  212.02107121710475 13.967656865532968  C 212.43246875135324 13.967656865532968  212.8337972218695 14.110980733690896  213.2119973581159 14.395046608500794  C 213.72313964794242 14.776360053822879  214.05026216998337 15.226765029683142  214.3364981908085 15.620873202882748  C 214.78112363537343 16.224814913272386  214.9701779350251 16.43721503468153  215.37397790300292 16.43721503468153  C 215.54527403570864 16.43721503468153  215.75733462037283 16.39629482140423  215.9975885834873 16.316944592633536  C 217.8988719146519 15.677177644186981  217.8988719146519 15.677177644186981  219.49875460476437 14.405282390802782  C 219.49875460476437 14.405282390802782  220.03540518937925 13.965120835887976  220.03540518937925 13.965120835887976  C 220.7152195528782 13.39954039320012  221.1624690564764 13.02849328475403  221.79877285972628 13.02849328475403  C 222.2996630119345 13.02849328475403  222.78523598234395 13.261372609410618  223.50328227571114 13.693849688955487  C 224.12945599060012 14.067471020264056  225.1158580885891 14.277342750671787  226.27618037831706 14.277342750671787  C 227.30346897752185 14.277342750671787  228.24398055474325 14.116106263485413  228.67841488631854 13.967656865532968  C 228.86746918597024 13.90626508765169  229.04895643166557 13.878109047677777  229.22531760855173 13.878109047677777  C 229.65462587131793 13.878109047677777  230.03035451010277 14.05211734681113  230.31662104324224 14.379692935047867  C 230.848145559048 14.993878066383074  231.01431562294457 16.122472367539785  230.79700692021387 17.63490086637653  C 230.70247977038804 18.284903597125062  230.8992841978821 19.016807863576318  231.1113447825463 19.79477315038627  C 231.56872437450542 21.481248141573943  232.12844226876146 23.587397845785393  229.54990760850248 25.39158433344555  C 226.33244508596033 27.64617579696608  223.70014772783392 30.91163478788368  222.71109105849735 32.557090263428336  C 222.35074062613992 33.155944637241056  221.6045314666368 34.40480174180238  221.90098911276584 34.99850766989005  C 222.0721631962142 35.34401879308578  222.67533062609067 35.58455967718188  223.59530741576108 35.67669699518651  C 224.84509181113444 35.80465955124803  225.75997304431007 35.83281559122193  226.5444446459958 35.8583897696899  C 227.8324914835517 35.8993481761847  228.8496499943956 35.93262210730955  230.37026169185225 36.36768868700394  C 230.90441026669126 36.52119486695932  231.36941793723543 36.64657556151488  231.62236502311544 36.64657556151488  C 231.79109812141655 36.64657556151488  231.8499868880931 36.60056037301705  232.322683661851 35.9530936719135  C 232.58338087557343 35.594810736770825  232.92078604754698 35.13160339438958  233.42918222908287 34.540448773233855  C 235.4583731819615 32.1732637043919  235.5017616929532 32.12718740674606  238.52254183725864 29.780473902507968  C 239.64441861091797 28.905253406542236  240.0736658490555 28.16309808050204  240.45464260590683 27.507946904028568  C 241.12402175790143 26.351257672045953  241.65823135736912 25.642376277130598  244.00426218235606 25.642376277130598  C 244.00426218235606 25.642376277130598  244.59967948439012 25.642376277130598  244.59967948439012 25.642376277130598  C 244.59967948439012 25.642376277130598  244.59967948439012 26.238664066724418  244.59967948439012 26.238664066724418  C 244.59967948439012 27.976302692134773  245.02648573738043 30.389518226761595  247.04798758704527 32.01459380142441  C 247.84527436075393 32.64925813600706  248.30271497734174 33.470763690817975  248.39980516157215 34.44831145522922  C 248.61192677086498 36.564704580386156  247.10419127005989 38.870474955416405  245.80076622607655 40.43153869747448  C 243.68223521680991 42.99066760040877  243.28862636182174 44.1525205554034  243.70511945256504 46.63741712071793  C 244.15755604960106 49.36542115434757  244.59967948439012 55.63528085562176  244.59967948439012 58.319790453111615  C 244.59967948439012 60.85586592993589  241.53813488812622 64.57939909479681  239.51669406309003 67.04125751128839  C 239.51669406309003 67.04125751128839  238.68858985189783 68.05722765254957  238.68858985189783 68.05722765254957  C 237.3137659923585 69.782079188726  234.27260362207386 72.22349659518781  229.65462587131793 75.31746803933  C 227.79160498233588 76.55604352972827  227.7123339896801 78.72109481403709  229.40167878543792 82.12725761838915  C 230.3778897704373 84.07476033556377  229.86424547083487 85.2928948159321  229.217628505338 86.83347171609927  C 228.8496499943956 87.70615618241999  228.43303485439492 88.69650631335215  228.12126002646707 90.09894598430392  C 227.98584637542538 90.72079267507854  228.0727454466662 91.21725867129759  228.39471138758367 91.62160262679907  C 229.06427361346434 92.45586471626991  230.84301949023885 92.954912573995  233.14553975497668 92.954912573995  C 233.5008251431536 92.954912573995  233.7205748310315 92.93957417782912  233.72820290961656 92.93957417782912  C 233.72820290961656 92.93957417782912  234.05285393419595 92.9190567813642  234.05285393419595 92.9190567813642  C 234.05285393419595 92.9190567813642  234.24441024362352 93.17750264584515  234.24441024362352 93.17750264584515  C 234.26747755326468 93.21335843847609  236.8817726459304 96.65277989666595  240.26034018818865 98.34693936322348  C 241.8702919420333 99.15309124458146  242.95134323910548 99.95663070985945  243.90704994886826 100.67064527321271  C 245.1236369462395 101.57399125457825  246.08446972481144 102.29313898636957  247.7353690045006 102.76396969497273  C 250.0762737606784 103.43704112911826  250.67700020540764 105.05188092147908  251.43596351230502 107.0914904020844  C 251.8140721116084 108.1253502464434  252.2536935366215 109.29742370645295  252.98720957335922 110.6230491782789  C 254.32108590705403 113.02859551482274  258.0955812401903 114.46941173076328  261.1214264286762 115.62610096274588  C 262.8976092710461 116.3068721495484  264.438603194482 116.89289360226611  265.2947787348672 117.58640604644148  C 266.97112528471604 118.92226730056937  270.8581500331389 122.2567949060947  270.82251164998956 124.38085722933471  C 270.819948615585 124.90289740402162  270.5949508096406 125.345663736373  270.1759557091214 125.65787037386984  C 268.6758482869013 126.77873436779555  268.20052745411016 129.560529729015  269.0539568862047 132.12217938430723  C 269.1766163898522 132.5112002209298  269.30958905574664 132.86176812612842  269.4270614659563 133.18164396170818  C 270.140134252086 135.10870566885293  270.6129530751013 136.38052453580207  268.494361041206 138.93204534980148  C 267.91932596515113 139.62806326904771  267.42868795056125 140.1757081767766  266.9890665255481 140.66456608406088  C 265.7726626020629 142.02598623936964  264.96262168096007 142.9267809138032  263.6795178383273 145.4987121832585  C 262.80045806218703 147.24913789790278  263.3908103200406 148.01433137276598  264.2725551798428 149.1685151296776  C 264.9293632583293 150.02578481339725  265.7547823858596 151.09546989581318  265.95158681335363 152.7409559259319  C 266.21478603685193 154.78319309990417  266.9354869015668 156.54385459685048  267.5768557489971 158.10232120011554  C 268.0190402084148 159.17717000554345  268.4355332991581 160.20334537453252  268.62464862343853 161.160497960775  C 268.9236693039722 162.66271359324026  272.9409816346275 163.25898610554705  275.34584020166227 163.61213587225166  C 275.7982157740696 163.68125031872046  276.2275240368358 163.74520104217711  276.5980655821828 163.81177945900097  C 278.0087108987575 164.04460531315303  279.2713104661537 165.17570508938064  279.9815761193642 166.8263548425114  C 280.602623765444 168.25945602850794  280.6511993698735 169.70795671981855  280.10173361323575 170.5217777992594  C 279.7108098419095 171.1103200043351  279.253308200693 171.46609746440686  278.88789272415517 171.75013278464272  C 278.3333008987083 172.19033253277516  278.2642820436708 172.26192189974074  278.39725470956523 172.67651691483124  C 278.65776884940163 173.44432280577436  279.6263517558159 173.8869974744036  280.0966685690553 174.03796762471404  C 280.0966685690553 174.03796762471404  280.20401089090404 174.02516525819306  280.20401089090404 174.02516525819306  C 280.5286619154834 174.02516525819306  280.80205225197136 174.19150435924345  280.95028107503583 174.4653344517514  C 281.1981020921067 174.94388019029856  281.0754425884592 175.67071239745985  279.65448410963756 177.6719147785022  C 278.10830309276383 179.83951736974305  279.66229526210867 182.63147212682935  284.41562563927755 186.20143800258685  C 287.9014744787558 188.8091792328119  285.1413915481728 193.81484343335893  283.50074440610194 196.8090083614136  C 283.2399861677508 197.28501807031577  282.99979322926504 197.72002354086212  282.81586499842246 198.0910782879517  C 281.90092274061817 199.9234360928727  282.12823948245244 201.00845957145452  282.4989030770568 202.80757399982474  C 282.61899954629973 203.41661832407846  282.75703725637464 204.0897050355109  282.8720076568084 204.8753547976909  C 283.3881539661867 208.50160219882213  279.7670135249241 213.66587519318847  277.36209393326067 216.0689007773744  C 274.6789020348149 218.74829248371327  274.1191231159301 219.30624956017914  275.67805828019806 222.03935620767274  C 276.37331187475314 223.25496993568322  277.2216152380385 224.1275780155688  278.0522214590066 224.97207588734156  C 279.2584342695022 226.2157998234648  280.51584674346054 227.50309458216302  281.0805076326397 229.76786071883743  C 281.0805076326397 229.76786071883743  281.1494654630485 230.05192659364727  281.1494654630485 230.05192659364727  C 281.97500663983607 233.39410811996856  282.4273211876148 235.23419623212072  285.5375024129369 236.01468227128868  C 288.4355010043375 236.74148392387588  288.783219338558 238.58144981773185  289.22259666505647 240.90766120279199  C 289.4015819009759 241.82130407560757  289.58795111696566 242.85517919725362  289.96630381478377 243.98634008262937  C 291.3104933107256 248.02201877583903  291.41020755398927 248.7361097256274  289.8717156403292 250.7705554832206  C 288.8699353359128 252.11666779693752  287.1653343829849 253.68286470743357  286.30146973938605 254.4326128451217  C 286.30146973938605 254.4326128451217  287.4312186901451 255.43840831322888  287.4312186901451 255.43840831322888  C 287.4312186901451 255.43840831322888  286.4549466805171 255.76858104025877  286.4549466805171 255.76858104025877  C 284.21882121178345 256.5183291779467  282.6572619884823 257.1197654132655  282.2689622761893 257.37562941624054  C 282.05677964226777 257.5164248933971  281.78839332533164 257.5880448149368  281.48168354158423 257.5880448149368  C 279.80277395733077 257.5880448149368  276.71053397284066 255.40256779788498  276.04609781576914 253.75448462897324  C 275.7982157740696 253.11473295781377  275.3867267028781 252.7462447949432  274.92934711091897 252.7462447949432  C 274.4463371749141 252.7462447949432  273.9018144131995 253.15307894822854  273.42411361988974 253.8645422046499  C 272.91022522177263 254.63738960030892  272.85933068145323 255.14407610154296  272.8310762783742 255.51002823476858  C 272.79543789522495 255.8222654268394  272.7314230597392 256.5490365248526  271.86261542121724 256.5490365248526  C 271.6990083917253 256.5490365248526  271.4690675908578 256.52346234638475  271.1496036597162 256.45691448413504  C 270.63333530108054 256.3519900768964  270.221846229889 256.2778341257117  269.7874118983137 256.2778341257117  C 268.9492996480179 256.2778341257117  267.9474583189728 256.57213578282364  265.81342705402136 257.42940546654336  C 264.5790818897042 257.92588674004946  264.0373662609088 258.1842867726694  263.68989202520294 258.3557895967318  C 263.04339710896346 258.6654296500096  262.9334307280815 258.71150594765544  261.0474645787156 259.12860643781687  C 259.67001666014306 259.43063840215973  259.5550462597093 259.77358294113645  259.2968510557628 260.5182895741086  C 259.0744773088516 261.1554746610492  258.7728935939134 262.03071043430185  257.63832369748854 263.0082429214261  C 256.62372822104925 263.88094266503384  256.2940121522894 264.4721125634766  256.13296815720196 264.75107582442257  C 256.01281066333036 264.96599669818977  255.8289434571165 265.28587253376946  255.417454385925 265.28587253376946  C 255.10818156777302 265.28587253376946  254.91400119931222 265.09389814510314  254.67887330500687 264.85083650864914  C 254.67887330500687 264.85083650864914  254.4872559709506 264.6563260903378  254.4872559709506 264.6563260903378  C 254.0298153543628 264.1930576388085  253.85339315284793 263.69156541516054  253.71553851665905 263.28720618237213  C 253.49822981392836 262.6730592442545  253.43439805232873 262.48872349909703  252.57559845291033 262.48872349909703  C 250.52602527405247 262.48872349909703  247.98068801179556 262.48872349909703  246.475515545395 260.9686945499689  C 246.22244641025767 260.7127694378459  245.71655223849768 260.57454054490836  245.02648573738043 260.57454054490836  C 243.3756474823199 260.57454054490836  241.118956713721 261.32697748511157  239.7645150801609 261.7748158767529  C 238.76535883477771 262.11253558356947  238.52254183725864 262.772819928481  238.07535335828914 264.23406187716444  C 237.83766242957918 264.99670404509556  237.57183914704765 265.8617040360463  237.09139224544737 266.8315673250876  C 236.68759227746955 267.63515262222654  236.4729076337721 268.2211893522313  236.3094226535375 268.66905829844666  C 235.87749033173807 269.8513064316101  235.64236243743272 270.2864035658786  234.06548603233279 270.80592298820756  C 233.3679135018878 271.04137653572667  233.34240520709946 271.33564763826456  233.8816188261189 273.0681530952369  C 234.1039315484014 273.78468841094815  234.3620657277192 274.60104552003406  234.47441206911972 275.5094941152636  C 234.73779436650406 277.66689147877645  234.01697145253192 278.8620030876089  233.1072162881654 280.3744239478022  C 232.78781338165254 280.9092817662971  232.4325279934756 281.4979156350949  232.07480162015145 282.2093483369422  C 231.21112005043864 283.9342151504057  230.24491710454285 284.1875431237357  229.73645989837826 284.1875431237357  C 228.71411429409656 284.1875431237357  227.93983380540044 283.2227213394104  227.93983380540044 281.94062085829825  C 227.93983380540044 281.2445571071909  227.69707783251005 281.2445571071909  227.52083870488124 281.2445571071909  C 227.26258247630602 281.2445571071909  226.6569130366537 281.35971729673145  225.52746920903797 282.10442392970367  C 224.11932590223915 283.04620756520603  223.15068197119618 283.22531847820335  221.5457647492176 283.5196201353152  C 220.72284763146325 283.67055973105164  219.70568912061938 283.85223722826794  218.33342829548462 284.1977789060377  C 217.21155152182527 284.4767116124096  216.32205653418066 284.67375806036586  215.55796715847416 284.85039405286625  C 213.60816924750864 285.2879355530575  212.43246875135324 285.55412700205653  210.06861873479167 286.5086213403578  Z " fill-rule="nonzero" fill="#4b636b" stroke="none" transform="matrix(1 0 0 1 3165 216 )" />
  </g>
</svg>