<?xml version="1.0" encoding="utf-8"?>
<svg version="1.1" xmlns:xlink="http://www.w3.org/1999/xlink" width="11px" height="19px" xmlns="http://www.w3.org/2000/svg">
  <g transform="matrix(1 0 0 1 -3358 -526 )">
    <path d="M 10.561878549634251 4.366233864483824  C 10.561878549634251 4.366233864483824  8.429495169395455 4.995936493730901  8.429495169395455 4.995936493730901  C 7.965100080651132 3.4086362988853844  7.28421889716706 2.1180058638753567  5.209687152791544 2.1180058638753567  C 4.000913669511132 2.1180058638753567  3.151037466089889 3.054745867883331  3.151037466089889 4.293278273319718  C 3.151037466089889 8.024702158430841  11 8.2327884473768  11 13.931276121246906  C 11 16.81437526709767  8.857194019412658 19.00000000000003  5.927512732153835 19.00000000000003  C 2.5759022486421856 19.00000000000003  0.8972431996480681 17.199429708745832  0 14.139561199269579  C 0 14.139561199269579  2.364689493364674 13.645111599543801  2.364689493364674 13.645111599543801  C 2.8925197538732834 15.26866786369347  3.8584404451036898 16.88722381798966  5.747971033292538 16.88722381798966  C 7.141528535252416 16.88722381798966  8.429495169395455 15.627787976560596  8.429495169395455 14.113428081411831  C 8.429495169395455 9.87735518779132  0.5700479958490077 9.820088642222318  0.5700479958490077 4.428638343113137  C 0.5700479958490077 2.040019379923004  2.5759022486421856 0  5.389073753433311 0  C 8.250015509821948 0  9.960190517012865 1.6184642054916254  10.561878549634251 4.366233864483824  Z " fill-rule="nonzero" fill="#efebdf" stroke="none" transform="matrix(1 0 0 1 3358 526 )" />
  </g>
</svg>