<?xml version="1.0" encoding="utf-8"?>
<svg version="1.1" xmlns:xlink="http://www.w3.org/1999/xlink" width="11px" height="19px" xmlns="http://www.w3.org/2000/svg">
  <g transform="matrix(1 0 0 1 -3374 -526 )">
    <path d="M 10.803884141545119 9.92407062082553  L 2.442219770248249 9.92407062082553  C 2.442219770248249 9.92407062082553  2.442219770248249 10.938873566123151  2.442219770248249 10.938873566123151  C 2.442219770248249 15.409227032417105  3.4271401303125733 16.88722381798966  5.738743962908972 16.88722381798966  C 7.60806090918121 16.88722381798966  8.387002032274834 15.09185262566568  8.698377670213135 13.43690297885831  C 8.698377670213135 13.43690297885831  11 13.728266599491517  11 13.728266599491517  C 10.633076412994747 16.470959491293147  8.623280150554782 19.00000000000003  5.397098974734824 19.00000000000003  C 1.6987159352356713 19.00000000000003  0 16.116977311486444  0 9.50268365253601  C 0 2.8830379799810832  1.6987159352356713 0  5.397098974734824 0  C 9.135585211912298 0  10.803884141545119 3.4451370316686294  10.803884141545119 8.727207464167636  C 10.803884141545119 8.727207464167636  10.803884141545119 9.92407062082553  10.803884141545119 9.92407062082553  Z M 2.442219770248249 7.806141214287382  C 2.442219770248249 7.806141214287382  8.356732682038933 7.806141214287382  8.356732682038933 7.806141214287382  C 8.29152807196991 3.8717842647580483  7.60806090918121 2.1180058638753567  5.397098974734824 2.1180058638753567  C 3.628246740172248 2.1180058638753567  2.4775979961824928 3.4451370316686294  2.442219770248249 7.806141214287382  Z " fill-rule="nonzero" fill="#efebdf" stroke="none" transform="matrix(1 0 0 1 3374 526 )" />
  </g>
</svg>