<?xml version="1.0" encoding="utf-8"?>
<svg version="1.1" xmlns:xlink="http://www.w3.org/1999/xlink" width="11px" height="19px" xmlns="http://www.w3.org/2000/svg">
  <g transform="matrix(1 0 0 1 -3392 -526 )">
    <path d="M 0 19.00000000000003  L 0 0.35524634609988065  L 2.500737495182374 0.35524634609988065  C 2.500737495182374 0.35524634609988065  2.500737495182374 2.4022562248745385  2.500737495182374 2.4022562248745385  C 3.7428184776593163 1.145485992084544  5.575912740845062 0  6.818025599341615 0  C 9.465169652870145 0  11 1.4263922216335527  11 4.873289912431081  C 11 4.873289912431081  11 19.00000000000003  11 19.00000000000003  L 8.363948801316829 19.00000000000003  C 8.363948801316829 19.00000000000003  8.363948801316829 5.233927514101377  8.363948801316829 5.233927514101377  C 8.363948801316829 3.080931160210664  7.702298261018236 2.158200629499205  6.270331829364828 2.158200629499205  C 4.9902227554210965 2.158200629499205  3.818683404474873 3.0120446258842883  2.6415657500862695 4.449094705350772  C 2.6415657500862695 4.449094705350772  2.6415657500862695 19.00000000000003  2.6415657500862695 19.00000000000003  L 0 19.00000000000003  Z " fill-rule="nonzero" fill="#efebdf" stroke="none" transform="matrix(1 0 0 1 3392 526 )" />
  </g>
</svg>