<?xml version="1.0" encoding="utf-8"?>
<svg version="1.1" xmlns:xlink="http://www.w3.org/1999/xlink" width="11px" height="22px" xmlns="http://www.w3.org/2000/svg">
  <g transform="matrix(1 0 0 1 -3278 -398 )">
    <path d="M 0 21.99999999999997  L 0 0  C 0 0  5.590528665085841 0  5.590528665085841 0  C 8.73610470294108 0  10.535199630889407 2.194303881048274  10.535199630889407 5.4257001087356596  C 10.535199630889407 7.613699007330554  9.605569385280642 9.59935123865932  7.335418522055431 10.301166871306963  C 7.335418522055431 10.301166871306963  7.335418522055431 10.358174420989636  7.335418522055431 10.358174420989636  C 9.871283410410207 11.066434116585983  11 13.159611024166319  11 15.910391420278778  C 11 19.989096932080955  8.850770411064735 21.99999999999997  4.250362136120262 21.99999999999997  C 4.250362136120262 21.99999999999997  0 21.99999999999997  0 21.99999999999997  Z M 2.275993325965428 2.0109803348608484  L 2.275993325965428 9.453919400745697  C 2.275993325965428 9.453919400745697  3.550181336309109 9.453919400745697  3.550181336309109 9.453919400745697  C 6.81620653025312 9.453919400745697  8.265048767664195 8.410444804711373  8.265048767664195 5.4257001087356596  C 8.265048767664195 2.9215712443348996  7.220693799156624 2.0109803348608484  4.546144189190639 2.0109803348608484  C 4.546144189190639 2.0109803348608484  2.275993325965428 2.0109803348608484  2.275993325965428 2.0109803348608484  Z M 2.275993325965428 11.45848657943463  L 2.275993325965428 19.989096932080955  C 2.275993325965428 19.989096932080955  4.546144189190639 19.989096932080955  4.546144189190639 19.989096932080955  C 7.2811249289140205 19.989096932080955  8.73610470294108 18.73701704649228  8.73610470294108 15.910391420278778  C 8.73610470294108 13.014040105757342  7.510338315611018 11.45848657943463  4.546144189190639 11.45848657943463  C 4.546144189190639 11.45848657943463  2.275993325965428 11.45848657943463  2.275993325965428 11.45848657943463  Z " fill-rule="nonzero" fill="#7f7f7f" stroke="none" transform="matrix(1 0 0 1 3278 398 )" />
  </g>
</svg>