<?xml version="1.0" encoding="utf-8"?>
<svg version="1.1" xmlns:xlink="http://www.w3.org/1999/xlink" width="10px" height="22px" xmlns="http://www.w3.org/2000/svg">
  <g transform="matrix(1 0 0 1 -3336 -398 )">
    <path d="M 7.94464873233985 21.694447619186125  L 7.850491980548106 20.191722998129123  C 7.850491980548106 20.191722998129123  7.781310575968985 20.191722998129123  7.781310575968985 20.191722998129123  C 7.033248238976901 21.301668574975047  5.939493918979113 22  4.54428439332639 22  C 2.0677621413057836 22  0 19.892372792717506  0 13.887143127284544  C 0 7.875848435291086  2.0677621413057836 5.7681755117279865  4.54428439332639 5.7681755117279865  C 5.725897868340292 5.7681755117279865  6.731762313337696 6.491513742244711  7.454327063384544 7.208695513639729  C 7.454327063384544 7.208695513639729  7.454327063384544 0  7.454327063384544 0  L 9.635568826588761 0  C 9.635568826588761 0  9.635568826588761 17.491628032946256  9.635568826588761 17.491628032946256  C 9.635568826588761 19.53683727844052  9.754823805530268 20.802721088435376  10 21.694447619186125  C 10 21.694447619186125  7.94464873233985 21.694447619186125  7.94464873233985 21.694447619186125  Z M 7.454327063384544 18.688861228230248  C 7.454327063384544 18.688861228230248  7.454327063384544 8.960878639206449  7.454327063384544 8.960878639206449  C 6.819775068275165 8.324828027127763  6.065384414523179 7.57029605447721  5.091130833341014 7.57029605447721  C 3.2432008994811397 7.57029605447721  2.180903843377232 9.079390477298722  2.180903843377232 13.887143127284544  C 2.180903843377232 18.688861228230248  3.331275094387209 20.191722998129123  5.153983921160233 20.191722998129123  C 5.820269660021934 20.191722998129123  6.788348524365555 19.58685088942412  7.454327063384544 18.688861228230248  Z " fill-rule="nonzero" fill="#7f7f7f" stroke="none" transform="matrix(1 0 0 1 3336 398 )" />
  </g>
</svg>