<?xml version="1.0" encoding="utf-8"?>
<svg version="1.1" xmlns:xlink="http://www.w3.org/1999/xlink" width="10px" height="16px" xmlns="http://www.w3.org/2000/svg">
  <g transform="matrix(1 0 0 1 -3352 -403 )">
    <path d="M 9.814148173908684 8.353455762169705  L 2.211423683889036 8.353455762169705  C 2.211423683889036 8.353455762169705  2.211423683889036 9.207860205433319  2.211423683889036 9.207860205433319  C 2.211423683889036 12.975891952687025  3.1153365352983746 14.217557312824395  5.217887141697977 14.217557312824395  C 6.9103543779509895 14.217557312824395  7.628258751358955 12.717602845761606  7.897449393600456 11.316247372467876  C 7.897449393600456 11.316247372467876  10 11.556045412767784  10 11.556045412767784  C 9.660315998232967 13.867128317450033  7.839738829935612 16  4.91016012958246 16  C 1.531899028444854 16  0 13.572082394901118  0 8.003056809145642  C 0 2.4279626686244544  1.531899028444854 0  4.91016012958246 0  C 8.301172696198742 0  9.814148173908684 2.901264876831058  9.814148173908684 7.351558399981947  C 9.814148173908684 7.351558399981947  9.814148173908684 8.353455762169705  9.814148173908684 8.353455762169705  Z M 2.211423683889036 6.577051587409654  C 2.211423683889036 6.577051587409654  7.589628390338964 6.577051587409654  7.589628390338964 6.577051587409654  C 7.531949157056131 3.2639361299632075  6.9103543779509895 1.7763591112346186  4.91016012958246 1.7763591112346186  C 3.3011883613896904 1.7763591112346186  2.243537325450609 2.901264876831058  2.211423683889036 6.577051587409654  Z " fill-rule="nonzero" fill="#7f7f7f" stroke="none" transform="matrix(1 0 0 1 3352 403 )" />
  </g>
</svg>