<?xml version="1.0" encoding="utf-8"?>
<svg version="1.1" xmlns:xlink="http://www.w3.org/1999/xlink" width="9px" height="16px" xmlns="http://www.w3.org/2000/svg">
  <g transform="matrix(1 0 0 1 -3367 -403 )">
    <path d="M 0 15.999999999999972  L 0 0.3069359698483519  L 2.041347817857336 0.3069359698483519  C 2.041347817857336 0.3069359698483519  2.041347817857336 2.0234136465103907  2.041347817857336 2.0234136465103907  C 3.061976096479425 0.9710376924306368  4.562483099886431 0  5.576875236601647 0  C 7.742611270347737 0  9.000000000000057 1.209066544702622  9.000000000000057 4.103379812977849  C 9.000000000000057 4.103379812977849  9.000000000000057 15.999999999999972  9.000000000000057 15.999999999999972  L 6.840135065707641 15.999999999999972  C 6.840135065707641 15.999999999999972  6.840135065707641 4.410300473535471  6.840135065707641 4.410300473535471  C 6.840135065707641 2.5935928704632785  6.305043669893462 1.8104307938728392  5.134747985506463 1.8104307938728392  C 4.083030257963333 1.8104307938728392  3.118223054458926 2.5371168969598905  2.1598345140879913 3.7462906066976234  C 2.1598345140879913 3.7462906066976234  2.1598345140879913 15.999999999999972  2.1598345140879913 15.999999999999972  L 0 15.999999999999972  Z " fill-rule="nonzero" fill="#7f7f7f" stroke="none" transform="matrix(1 0 0 1 3367 403 )" />
  </g>
</svg>