<?xml version="1.0" encoding="utf-8"?>
<svg version="1.1" xmlns:xlink="http://www.w3.org/1999/xlink" width="10px" height="22px" xmlns="http://www.w3.org/2000/svg">
  <g transform="matrix(1 0 0 1 -3382 -398 )">
    <path d="M 2.187214878394195 20.191722998129123  C 2.187214878394195 20.191722998129123  1.703310713045936 21.694447619186125  1.703310713045936 21.694447619186125  C 1.703310713045936 21.694447619186125  0 21.694447619186125  0 21.694447619186125  C 0.24483977893763498 20.802721088435376  0.3645255730080272 19.53683727844052  0.3645255730080272 17.491628032946256  C 0.3645255730080272 17.491628032946256  0.3645255730080272 0  0.3645255730080272 0  L 2.5517404514022797 0  C 2.5517404514022797 0  2.5517404514022797 7.208695513639729  2.5517404514022797 7.208695513639729  C 3.274770443507195 6.491513742244711  4.273913350680048 5.7681755117279865  5.455595525914002 5.7681755117279865  C 7.944666824363554 5.7681755117279865  10 7.875848435291086  10 13.887143127284544  C 10 19.892372792717506  7.944666824363554 22  5.455595525914002 22  C 4.066582902994909 22  2.972883303278764 21.301668574975047  2.187214878394195 20.191722998129123  Z M 2.5517404514022797 8.960878639206449  C 2.5517404514022797 8.960878639206449  2.5517404514022797 18.688861228230248  2.5517404514022797 18.688861228230248  C 3.224297199241826 19.58685088942412  4.1862379768922855 20.191722998129123  4.858487523001729 20.191722998129123  C 6.668796598662443 20.191722998129123  7.819113477247104 18.688861228230248  7.819113477247104 13.887143127284544  C 7.819113477247104 9.079390477298722  6.762923208783512 7.57029605447721  4.9151662422162765 7.57029605447721  C 3.9408759550133787 7.57029605447721  3.1803366316559094 8.324828027127763  2.5517404514022797 8.960878639206449  Z " fill-rule="nonzero" fill="#7f7f7f" stroke="none" transform="matrix(1 0 0 1 3382 398 )" />
  </g>
</svg>