<?xml version="1.0" encoding="utf-8"?>
<svg version="1.1" xmlns:xlink="http://www.w3.org/1999/xlink" width="493px" height="288px" xmlns="http://www.w3.org/2000/svg">
  <defs>
    <filter x="3589px" y="275px" width="493px" height="288px" filterUnits="userSpaceOnUse" id="filter1136">
      <feOffset dx="0" dy="7" in="SourceAlpha" result="shadowOffsetInner" />
      <feGaussianBlur stdDeviation="10" in="shadowOffsetInner" result="shadowGaussian" />
      <feComposite in2="shadowGaussian" operator="atop" in="SourceAlpha" result="shadowComposite" />
      <feColorMatrix type="matrix" values="0 0 0 0 0  0 0 0 0 0  0 0 0 0 0  0 0 0 0.16078431372549018 0  " in="shadowComposite" />
    </filter>
    <g id="widget1137">
      <path d="M 226.49999999999997 248.00000026884493  C 225.72589859692042 248.00000026884493  224.95181246331785 247.77584567613982  224.27949739353735 247.32755176844174  C 224.27949739353735 247.32755176844174  178.98312847515436 217.113125998194  178.98312847515436 217.113125998194  C 178.98312847515436 217.113125998194  40.027616812509834 217.113125998194  40.027616812509834 217.113125998194  C 17.920744854354812 217.113125998194  0 199.18181274392242  0 177.06301608799183  C 0 177.06301608799183  0 40.04920497460205  0 40.04920497460205  C 0 17.930408318671464  17.920744854354812 0  40.027616812509834 0  C 40.027616812509834 0  412.9714632015044 0  412.9714632015044 0  C 435.078337068344 0  453.0000000000001 17.930408318671464  453.0000000000001 40.04920497460205  C 453.0000000000001 40.04920497460205  453.0000000000001 177.06301608799183  453.0000000000001 177.06301608799183  C 453.0000000000001 199.18181274392242  435.078337068344 217.113125998194  412.9714632015044 217.113125998194  C 412.9714632015044 217.113125998194  274.0168715248457 217.113125998194  274.0168715248457 217.113125998194  C 274.0168715248457 217.113125998194  228.72050260646262 247.32755176844174  228.72050260646262 247.32755176844174  C 228.0481722672052 247.77584567613982  227.27408613360265 248.00000026884493  226.49999999999997 248.00000026884493  Z " fill-rule="nonzero" fill="#4c39fb" stroke="none" transform="matrix(1 0 0 1 3609 288 )" />
    </g>
  </defs>
  <g transform="matrix(1 0 0 1 -3589 -275 )">
    <use xlink:href="#widget1137" filter="url(#filter1136)" />
    <use xlink:href="#widget1137" />
  </g>
</svg>