<?xml version="1.0" encoding="utf-8"?>
<svg version="1.1" xmlns:xlink="http://www.w3.org/1999/xlink" width="214px" height="271px" xmlns="http://www.w3.org/2000/svg">
  <defs>
    <mask fill="white" id="clip1106">
      <path d="M 78.88961955804692 2.989914611869144  C 78.88961955804692 4.322684555498995  77.22530992700678 5.323595728197437  76.21805539212015 5.982344229121462  C 75.2210568505583 6.653835423987246  73.54902470073492 4.989100012227713  73.54902470073492 4.989100012227713  C 73.54902470073492 4.989100012227713  72.55196511159369 8.658203259681013  71.21239807871287 10.659979877707126  C 69.87524242521499 12.659165278065778  72.55196511159369 13.994541681820069  70.88258853147052 14.318840194145057  C 69.20802290710569 14.658396405794953  68.21355784008529 15.661853068790247  66.53392526663743 16.989577759196823  C 64.8695851118077 18.32236294528366  62.86270698944867 19.325804365822144  61.528176381861165 20.663741502330268  C 60.193645774273726 21.993965955663263  58.52170519581938 21.993965955663263  56.182453527886835 22.665518120356463  C 53.84826880903733 23.326812111577542  54.18067287840049 22.997453103572383  52.84870626914429 23.326812111577542  C 51.503980715811394 23.663853317844204  48.84523654154052 20.993100510335427  46.83829737160218 19.992219822550776  C 44.83657776969521 18.996445357816985  44.50676822245281 19.992219822550776  43.494355167114186 20.663741502330268  C 42.49726505418329 21.33011123168838  40.15294643716771 18.659404151550323  40.15294643716771 18.659404151550323  C 40.15294643716771 18.659404151550323  35.477007099633845 19.325804365822144  33.1429139521533 19.662845572088806  C 30.811384803003943 19.992219822550776  31.1437278247878 22.665518120356463  30.139037288232295 24.330268774572836  C 29.139505272128858 25.989882720824703  28.469538612950505 26.326923927091364  26.13800946380114 27.32524388212218  C 23.796193797537413 28.32871578757437  20.792286609826803 27.32524388212218  17.450877879880387 27.662300330845653  C 14.112033148265029 27.991659338850813  14.112033148265029 30.664911909285895  13.777187175729308 33.33566471679456  C 13.444813630155847 35.99617459328797  15.784065298088342 41.000608517124924  16.111188751840878 42.66793514655203  C 16.453818290739097 44.33271628568209  20.12506709171757 46.34467486489612  20.454876638959906 47.67491456068593  C 20.454876638959906 47.67491456068593  23.796193797537413 50.67757186649678  24.803478856213694 52.67425750392901  C 25.8005994929343 54.678564369795254  26.46266049059147 58.34768285970536  28.809543105938232 57.01229121349417  C 31.1437278247878 55.682036275247555  33.1429139521533 56.68290172057528  32.47569443404401 57.67107019933199  C 31.810977866686695 58.67957211555064  30.471380310016155 61.34521870000854  30.139037288232295 63.0125148445219  C 29.80413026811726 64.68747794483988  30.471380310016155 66.67904211676448  31.473537372030084 69.01016250033894  C 32.47569443404401 71.35151057247181  35.477007099633845 73.01879147452829  35.477007099633845 73.01879147452829  C 35.477007099633845 73.01879147452829  34.14256806341531 73.01879147452829  31.810977866686695 73.35584792325187  C 29.479448717537327 73.68522217371384  29.80413026811726 74.02483935519123  29.479448717537327 76.69044021227852  C 29.139505272128858 79.35351082152567  31.810977866686695 82.02424838657753  34.14256806341531 83.35959430541811  C 36.48691720422056 84.68991021349225  37.82651476089104 86.35719111554874  40.15294643716771 87.69252179193248  C 42.49726505418329 89.02280721509291  40.15294643716771 92.3599754793303  37.156700720660965 93.02129995546508  C 34.14256806341531 93.69792785829533  33.815322514504146 94.36170636998581  35.82220063686318 95.35752656209029  C 37.82651476089104 96.35840724987494  36.81663518009398 99.36103407077199  36.48691720422056 101.03089094803919  C 36.15201018410552 102.70332380051707  37.48651026790331 104.03101800600994  39.49332734268309 105.69832939298013  C 41.49257451762785 107.36559505257969  42.16244960543729 108.03714721727299  41.82751206153254 109.03543668739  C 41.49257451762785 110.03631737517466  38.48356985704454 110.03631737517466  37.48651026790331 111.03975879571314  C 36.48691720422056 112.03553326044701  35.82220063686318 114.37435108473987  38.82094930412184 115.03564507596083  C 41.82751206153254 115.70459078052968  40.15294643716771 118.37793480570593  38.82094930412184 120.37458995822445  C 37.48651026790331 122.37638181870746  36.81663518009398 123.04016033039802  34.14256806341531 123.37467128882456  C 31.473537372030084 123.70659102958356  30.811384803003943 125.04454340854858  32.47569443404401 126.7117938256913  C 34.14256806341531 128.37913569757526  34.14256806341531 129.37489491985224  31.473537372030084 130.70775631822335  C 28.809543105938232 132.04058723168075  27.137633051273546 131.04479752449  24.45584341581181 131.70860652109434  C 21.79697714638231 132.37756746811996  16.111188751840878 132.04058723168075  13.115034606703166 132.37756746811996  C 10.103374376419659 132.71716940714046  9.10121731440573 133.37850912573205  7.436907683365605 135.71469000498675  C 5.757214062338479 138.04331062563477  5.757214062338479 137.38200139195692  3.093311367615543 137.38200139195692  C 0.42180824926810656 137.38200139195692  0.7540902234726516 136.04157973497922  0.08690122915307182 138.37779109914763  C -0.5829128110769977 140.71918489865115  2.766096342494036 141.72262631918963  5.097686539222713 142.72094627422047  C 7.436907683365605 143.71923574433754  7.099528236288421 144.38054497801542  5.757214062338479 146.05041709773954  C 4.4279030227823 147.71513726704217  5.757214062338479 148.05470872114887  7.766686706818287 149.72198962320533  C 9.77356482917732 151.38677076233543  8.104157725264498 153.72048236357747  6.102468647147131 155.72483495681433  C 4.098093475539961 157.7265658474699  3.758088982552231 157.7265658474699  2.766096342494036 160.3922276743847  C 1.75624728548658 163.06041974913953  3.4256849131891154 166.72437104617137  4.098093475539961 168.73378413508846  C 4.765374041228511 170.72539403438367  6.769688165256368 172.73221590563313  8.776505240036142 174.39952729260332  C 10.773127369070473 176.06930795758615  10.43831192032435 179.0669200101737  10.773127369070473 182.06447109293364  C 10.773127369070473 182.06447109293364  11.711398139332543 185.05949192785357  11.711398139332543 185.05949192785357  C 11.977321394823079 184.67391873891899  12.324987359014681 184.41610782345253  13.222356251136677 184.51823228446864  C 15.224136900622955 184.73772366336877  18.562890060869286 183.63218826672792  20.12506709171757 184.07129296418316  C 21.68452750528645 184.51823228446864  23.471542770747085 184.51823228446864  24.570857055238843 185.40162411471417  C 25.688088804259067 186.29272862813502  26.5751711792667 188.08255888341074  27.9148603073061 187.85023335582773  C 29.24939091489354 187.6280897894325  29.471726198754087 188.07743741790307  30.5915524698952 188.07743741790307  C 31.693369705138768 188.07743741790307  33.035531260140424 191.18223442718684  30.5915524698952 191.404377993582  C 28.134692640414837 191.6315820556574  28.35452497352346 192.51756510357052  29.24939091489354 193.85036553211418  C 30.139037288232295 195.18325741539903  32.3683422658209 196.74326190601806  32.59067754968145 197.6343664194389  C 32.813073881121255 198.51781921951195  31.693369705138768 200.07785419504478  32.59067754968145 200.9689282235518  C 33.48288792135132 201.8575329740463  34.81485453060759 203.8592943496156  34.81485453060759 204.96742096392398  C 34.81485453060759 204.96742096392398  34.81485453060759 209.41526133276673  34.81485453060759 209.41526133276673  C 34.81485453060759 210.97279654537314  35.477007099633845 212.30306672607662  36.58911085199171 212.75494460238735  C 37.71153164525366 213.19414075458374  38.82094930412184 213.19414075458374  40.59523614929562 212.53283152090583  C 42.38490698445646 211.86124887129895  42.60470879377543 211.1948791419408  43.93917835378362 211.86124887129895  C 45.27621191212286 212.53283152090583  47.73310226539294 214.09036673351227  48.84523654154052 214.52175874779223  C 49.95477629556727 214.97628881159795  50.841828146785254 215.19078066464536  51.95390137535347 214.52175874779223  C 53.07119417195306 213.857949751188  53.07119417195306 215.19078066464536  54.18067287840049 214.97628881159795  C 55.29540167666892 214.74905426460882  55.29540167666892 213.63580618479278  56.854770518868825 213.857949751188  C 58.421983975010484 214.08524526800457  58.63922178599828 215.42307570731467  60.42123114995525 214.97628881159795  C 62.19808199346021 214.52175874779223  62.19808199346021 213.857949751188  63.30496617778682 213.857949751188  C 64.41960340468626 213.857949751188  63.537587978761714 215.42307570731467  65.09204249082688 215.64781049137744  C 66.64899995364384 215.8622718595111  67.31618894796335 216.08194614789372  69.0956037897995 216.31424119056305  C 70.88258853147052 216.53376305437686  71.09991791382735 218.08361606872177  70.4326068243492 219.20460731662678  C 69.76279278411913 220.3050212477599  69.98521963934859 220.97651244262565  71.54468005291741 221.64544290473762  C 73.10169856331368 222.31440385176327  73.32916184383657 222.52636545697055  73.99644240952519 223.86175710318176  C 74.66616487838624 225.20470900799953  75.10341816522072 225.64902662570364  76.44564076780168 226.53500967361683  C 77.78273537372036 227.42864443487775  78.22490299068953 227.42864443487775  76.44564076780168 229.42528434493937  C 74.66616487838624 231.42701523559495  74.21627474263381 234.5370251651276  73.10169856331368 234.5370251651276  C 71.98437524292443 234.5370251651276  71.32484771980873 234.0902382694109  69.98521963934859 234.976221317324  C 68.65334460146128 235.87753827684645  68.21355784008529 236.31158247862146  69.54296045101039 237.43245178687155  C 70.88258853147052 238.53798718351237  72.6543419021028 238.97718333570876  73.99644240952519 239.21213056587314  C 75.32581449666063 239.43674341028094  77.11536323666283 240.32275694310783  77.55514999803883 241.65808761949157  C 78.0000037084978 242.9781148691798  79.33200084154379 244.76291511368905  78.22490299068953 245.65654987495  C 77.11536323666283 246.5425938926907  75.77836020211313 246.76723722201217  75.99822305901147 248.10259838330967  C 76.21805539212015 249.435429296767  76.89037238310208 250.09673853044492  77.78273537372036 250.76832118005188  C 78.66716217902773 251.43469090941002  80.6715373506349 252.7648696353723  82.00606795822235 252.3257954228308  C 83.348229513224 251.8840080529668  86.01219325552626 250.99543378738605  87.34666281553432 250.99543378738605  C 88.69144941644653 250.99543378738605  89.35872998213502 252.5504692370661  90.69313849456384 252.5504692370661  C 92.0276691021513 252.5504692370661  93.58981560920991 252.3257954228308  94.47433398588632 252.10362137152188  C 95.36404140680439 251.8840080529668  95.81139806801528 254.1002307966698  96.48115106066602 254.98886603207805  C 97.14592867560278 255.8875308041054  98.26059642629183 257.2152402520552  99.59512703387927 257.6595273848455  C 100.9295965938874 258.0961323193744  100.7046057403267 259.661380215156  102.49681005002905 259.44423617461354  C 104.2760722729169 259.21962333020576  107.61232248241139 259.44423617461354  108.7244262347693 258.77283643448897  C 109.83402703637537 258.0961323193744  111.17106059471469 256.9930966856599  112.27550287586874 257.8842316839945  C 113.39783209776171 258.77283643448897  114.5124388008715 261.66058085797147  116.51678344868901 261.66058085797147  C 118.5185640981754 261.66058085797147  119.40317404622073 262.3295418049971  120.07552156099236 263.88957678052986  C 120.74277160289125 265.4419905276286  121.63495145077148 267.66845620234693  123.41686924335947 267.88547830323444  C 125.19109504095393 268.1126518803961  126.08596098232402 268.7791130644954  127.64285739756173 267.88547830323444  C 129.20237885870984 266.99943428549386  130.761900319858 266.7799429065937  131.42652531584633 267.88547830323444  C 132.09893387819724 269.00381736364443  132.9834827786633 270.3339960896068  133.88076009941628 269.6651265973223  C 134.76537004746163 269.00381736364443  135.42749209269817 267.4488428837918  136.32739445936164 267.4488428837918  C 137.21966587861087 267.4488428837918  137.88957149021 268.3322651989512  138.10162025695612 269.00381736364443  C 138.3266111105168 269.6651265973223  138.99901967286772 271.66938773581796  140.5533520897742 270.7731922418032  C 142.112812503343 269.8872091938901  141.22316613000424 269.44045278308704  141.88788269736162 267.88547830323444  C 142.56288578183342 266.3305038233819  142.56288578183342 266.1134817224943  143.8871298723065 264.9951426620844  C 145.22669690518725 263.88957678052986  146.12662979564038 262.5516244015648  145.8915050439136 261.2162632402673  C 145.67405356639816 259.8860845143051  143.67999543569502 260.1056673479464  143.22241330494907 258.77283643448897  C 142.78274863873168 257.43482308569645  142.112812503343 256.10455290499294  143.22241330494907 254.76925271352297  C 143.8487309449181 254.0135012170905  144.69237796724397 252.56833339651547  145.2983362395119 251.44734214861046  C 142.95661214461714 251.75895893682122  138.669240649415 250.76832118005188  139.66376676401475 249.435429296767  C 140.6632682563285 248.10259838330967  139.66376676401475 246.43534796616694  138.3266111105168 246.43534796616694  C 136.99467502505019 246.43534796616694  139.33130164707225 242.76371447087357  137.6619250669491 240.76195309530428  C 135.99761543590895 238.76522173050145  136.32739445936164 237.43245178687155  137.33205447212742 236.42641914866547  C 138.3266111105168 235.4306599263885  137.6619250669491 234.0902382694109  136.99467502505019 232.76246785163363  C 136.32739445936164 231.42701523559495  134.66317639969049 232.76246785163363  133.99082888491895 229.42528434493937  C 133.32864579210306 226.08816180807258  131.31917314762316 224.08636994758956  133.32864579210306 223.09061072531262  C 135.32783191946857 222.09232125519551  136.99467502505019 221.76037102952276  135.99761543590895 218.74751652006725  C 134.98523290435998 215.7550869028149  132.9834827786633 213.0893945909864  134.32564433366494 211.7540943995164  C 135.65761094292122 210.41361177271125  134.98523290435998 208.4092896643881  133.32864579210306 208.4092896643881  C 131.6541412153175 208.4092896643881  131.6541412153175 207.42112118563142  132.65623722975215 205.08740958438938  C 133.65070229677255 202.74348553704576  134.32564433366494 202.74348553704576  134.98523290435998 201.74516558201492  C 135.65761094292122 200.74428489423028  135.99761543590895 198.07868403714298  135.65761094292122 196.74326190601806  C 135.32783191946857 195.4104614774744  137.6619250669491 194.40445932418208  137.9942986125226 193.4087001019051  C 138.3266111105168 192.40781941412044  138.3266111105168 190.73803874913764  139.33130164707225 190.076699030546  C 140.33355028045523 189.41285954902798  139.66376676401475 191.73626724942724  141.33570734246914 191.404377993582  C 143.0000169735092 191.072458252823  143.0000169735092 190.4035277907111  144.00479908143362 189.41285954902798  C 145.00430057374746 188.40935715866206  145.67405356639816 186.7395764936792  148.01596080403084 186.7395764936792  C 150.35261794984257 186.7395764936792  153.6888986831267 186.07317627940742  153.6888986831267 186.07317627940742  C 153.6888986831267 186.07317627940742  154.3535847266944 184.73772366336877  156.36052389663274 184.73772366336877  C 158.36737149520218 184.73772366336877  158.36737149520218 186.07317627940742  159.36693403509523 186.07317627940742  C 160.36915214468846 186.07317627940742  161.0389967087082 185.40162411471417  162.37352731629565 184.40330415968333  C 163.70546340176224 183.3998932240586  164.04293442020844 183.3998932240586  165.3799374547581 183.0704122763985  C 166.71187354022473 182.73087130720546  167.70893312936596 182.73087130720546  169.04602773528455 182.73087130720546  C 170.39072276482776 182.73087130720546  171.05287533385393 182.73087130720546  172.39000046356227 180.73670067515647  C 173.7219365490289 178.73759148708223  174.39428406380043 176.73832987443927  176.06628568983413 176.40125818325888  C 177.73059532087422 176.06930795758615  177.73059532087422 177.73661934455635  179.73493996869172 177.40213887104355  C 181.73672061817805 177.06506717986315  182.41160160749115 176.73832987443927  183.74607116749937 175.07101848746905  C 185.07550430221403 173.39864660481865  186.74756697582703 172.73221590563313  188.41181555928787 173.39864660481865  C 190.08891465819423 174.06501633417676  189.0790045536074 176.73832987443927  190.7587592222139 176.73832987443927  C 192.42050485492285 176.73832987443927  194.09757343003955 178.07122175772412  195.75925801516925 176.40125818325888  C 197.4288177380303 174.72888630060845  198.43857522366878 173.05910563562563  199.43050681614767 173.39864660481865  C 200.44285882390696 173.73824854383915  200.10029033258806 176.73832987443927  201.4348819877548 176.73832987443927  C 202.63898444213854 176.73832987443927  203.02755228447032 176.47018457321627  203.82516943199363 177.14432795557707  C 204.4949834722237 176.442138452579  205.47415612062602 175.55362515682575  206.7857328383915 174.72888630060845  C 209.45213848386624 173.05910563562563  211.1189815894479 172.73221590563313  212.45613724294589 170.72539403438367  C 213.79060680295396 168.73378413508846  214.7978918616302 166.06050107973965  213.12335676105505 165.05962039195498  C 211.45648313168377 164.0612699520105  210.45179259512832 162.0594780915274  211.45648313168377 160.06283818146576  C 212.45613724294589 158.05857704297011  212.79351669002307 156.05928494541345  211.45648313168377 155.05837377271504  C 210.1219220003067 154.05493235217656  208.44747847110048 153.0566428820595  208.79010800999873 151.38677076233543  C 209.11726198754087 149.72198962320533  209.7870455039813 145.38651664639403  205.4485771848936 146.71425657925752  C 201.1076364388437 148.05470872114887  198.10116525280193 146.05041709773954  199.43050681614767 144.72014691703592  C 200.7700433252389 143.38478575573845  199.10063622132606 143.05801796540092  197.099008190788 143.05801796540092  C 195.09966944447416 143.05801796540092  194.42732192970263 142.72094627422047  194.09757343003955 141.0485743915701  C 193.76013293538298 139.37867178693227  193.09031889515293 137.71904259822358  191.42344526578162 139.04934326384085  C 189.74634616687527 140.3821436923845  186.74756697582703 141.72262631918963  185.75554381197915 138.71227157266046  C 184.74575580255103 135.71469000498675  183.74607116749937 136.04157973497922  182.06396616708926 136.38627265459368  C 180.4021900105906 136.71560117768507  178.39790641035242 135.38277026422776  177.39052978030722 134.0474091029303  C 176.39606471328682 132.71716940714046  175.0564671566163 134.38445030919695  174.06456608792706 133.0465589000593  C 173.05215303258842 131.70860652109434  174.39428406380043 130.03873440137022  172.39000046356227 130.70775631822335  C 170.39072276482776 131.37412604758148  168.72146827986322 133.0465589000593  166.0395260254531 134.38445030919695  C 163.37302880860946 135.71469000498675  161.7037437998553 137.04242993785013  160.03162007866294 134.71383980211579  C 158.36737149520218 132.37756746811996  156.69796439128936 131.04479752449  156.0255558289384 129.70937539336506  C 155.36593673445373 128.37913569757526  153.35649461376352 129.04297517909325  153.35649461376352 129.04297517909325  C 153.35649461376352 129.04297517909325  153.0217096888071 132.04058723168075  151.6845540353092 131.37412604758148  C 150.35261794984257 130.70775631822335  144.67711607241557 127.04377453627778  144.67711607241557 127.04377453627778  C 144.67711607241557 127.04377453627778  143.33739642058646 126.7117938256913  142.343022924935 124.04366272076392  C 141.33570734246914 121.37289467079837  138.99901967286772 121.03842943974243  137.9942986125226 119.71071999179276  C 136.99467502505019 118.37793480570593  134.66317639969049 116.36846074696138  133.99082888491895 114.03730987847321  C 133.32864579210306 111.7087654701094  133.32864579210306 110.03631737517466  134.98523290435998 108.03714721727299  C 136.65723453039362 106.03020340636851  136.99467502505019 107.03626652948834  138.3266111105168 106.03020340636851  C 139.66376676401475 105.03188345133769  137.33205447212742 104.03101800600994  135.99761543590895 102.70332380051707  C 134.66317639969049 101.36791691184895  134.98523290435998 100.03511648330532  135.65761094292122 96.69543321368471  C 136.32739445936164 93.36594714770882  138.6666461272942 92.3599754793303  138.99901967286772 90.69519434020016  C 139.33130164707225 89.02280721509291  138.3266111105168 87.69252179193248  137.9942986125226 85.69330590666011  C 137.6619250669491 83.68642306558314  137.33205447212742 78.02324064082217  138.6666461272942 76.35083827325802  C 140.00123778246095 74.68616383132598  141.6680808880426 72.68944770898005  140.33355028045523 71.35151057247181  C 138.99901967286772 70.01869490147128  137.6619250669491 71.68603677335527  135.99761543590895 70.68254962544616  C 134.32564433366494 69.6816536952046  134.98523290435998 66.34710713354856  133.99082888491895 66.01774812554339  C 132.9834827786633 65.68323716711686  132.9834827786633 65.68323716711686  131.6541412153175 67.01605283811732  C 130.31445208727806 68.34885326666097  127.97776441767675 70.35064512714409  127.64285739756173 68.34885326666097  C 127.3079503774467 66.34710713354856  127.97776441767675 66.34710713354856  128.64757845790683 65.34872620869024  C 129.30970050314338 64.3478455209056  125.96841386835547 64.0159562650604  125.96841386835547 64.0159562650604  C 125.96841386835547 64.0159562650604  126.3084183613432 62.68315583651675  126.978171353994 60.67622726806918  C 127.64285739756173 58.67957211555064  126.978171353994 55.34499506898089  127.64285739756173 54.34665987149315  C 128.3127630091607 53.34320320849777  130.31445208727806 53.006146759774296  130.9817326529666 52.00278155152015  C 131.6541412153175 51.00696135941564  132.65623722975215 48.34392123508219  130.9817326529666 45.00163150533714  C 129.30970050314338 41.66705445876738  127.97776441767675 40.33423878776684  128.98251600181146 38.67204886630431  C 129.98461201624607 36.99710100844325  128.98251600181146 35.99617459328797  128.64757845790683 34.66595013995497  C 128.3127630091607 33.33566471679456  129.64198247734785 31.99774282274325  131.31917314762316 31.004544333220103  C 132.9834827786633 29.998526937470974  132.31614116539544 27.991659338850813  131.6541412153175 26.326923927091364  C 130.9817326529666 24.667279495925765  127.97776441767675 20.993100510335427  126.64079190691669 20.663741502330268  C 125.30363625341884 20.329261028817438  125.30363625341884 22.325916181335966  123.63929609858899 22.997453103572383  C 121.96738604392435 23.663853317844204  122.3022930640394 21.33011123168838  121.63495145077148 19.992219822550776  C 120.96767088508298 18.659404151550323  120.96767088508298 20.663741502330268  118.9583203357617 20.329261028817438  C 116.95657021006501 19.992219822550776  113.96026344597901 19.325804365822144  112.95303943488197 19.662845572088806  C 111.9508518490784 19.992219822550776  107.61232248241139 20.329261028817438  104.94344440997443 18.996445357816985  C 102.27181919646837 17.65343248317171  99.26018948997458 16.989577759196823  98.59034492595485 15.991227319252303  C 97.92056140951443 14.992861636850884  98.59034492595485 13.65493974279957  99.26018948997458 12.322169799169634  C 99.92743953187347 10.989338885712284  97.92056140951443 9.990988445767732  96.25103221044299 10.989338885712284  C 94.58934762531335 11.987643598286288  93.57952909209561 8.323677058797553  93.57952909209561 8.323677058797553  C 91.91521946105543 6.314248727423559  91.25056394127742 5.982344229121462  89.57593726933322 6.99089187271072  C 87.90656068921005 7.986681579901521  86.57212165299164 8.984986292475414  86.23458958696605 6.99089187271072  C 85.90221604139255 4.989100012227713  85.57234544657089 4.989100012227713  83.90299939023744 4.659741004222554  C 82.23111985936235 4.322684555498995  82.23111985936235 3.3166976446635705  82.90593980109614 1.9864579488737626  C 83.53237953622381 0.722599152744379  82.65543105938238 0.061305161523330876  80.85819032438664 0  C 79.94546796606724 0.9753648149874801  78.88961955804692 2.241799586327595  78.88961955804692 2.989914611869144  Z " fill-rule="evenodd" />
    </mask>
  </defs>
  <g transform="matrix(1 0 0 1 -3112 -292 )">
    <path d="M 78.88961955804692 2.989914611869144  C 78.88961955804692 4.322684555498995  77.22530992700678 5.323595728197437  76.21805539212015 5.982344229121462  C 75.2210568505583 6.653835423987246  73.54902470073492 4.989100012227713  73.54902470073492 4.989100012227713  C 73.54902470073492 4.989100012227713  72.55196511159369 8.658203259681013  71.21239807871287 10.659979877707126  C 69.87524242521499 12.659165278065778  72.55196511159369 13.994541681820069  70.88258853147052 14.318840194145057  C 69.20802290710569 14.658396405794953  68.21355784008529 15.661853068790247  66.53392526663743 16.989577759196823  C 64.8695851118077 18.32236294528366  62.86270698944867 19.325804365822144  61.528176381861165 20.663741502330268  C 60.193645774273726 21.993965955663263  58.52170519581938 21.993965955663263  56.182453527886835 22.665518120356463  C 53.84826880903733 23.326812111577542  54.18067287840049 22.997453103572383  52.84870626914429 23.326812111577542  C 51.503980715811394 23.663853317844204  48.84523654154052 20.993100510335427  46.83829737160218 19.992219822550776  C 44.83657776969521 18.996445357816985  44.50676822245281 19.992219822550776  43.494355167114186 20.663741502330268  C 42.49726505418329 21.33011123168838  40.15294643716771 18.659404151550323  40.15294643716771 18.659404151550323  C 40.15294643716771 18.659404151550323  35.477007099633845 19.325804365822144  33.1429139521533 19.662845572088806  C 30.811384803003943 19.992219822550776  31.1437278247878 22.665518120356463  30.139037288232295 24.330268774572836  C 29.139505272128858 25.989882720824703  28.469538612950505 26.326923927091364  26.13800946380114 27.32524388212218  C 23.796193797537413 28.32871578757437  20.792286609826803 27.32524388212218  17.450877879880387 27.662300330845653  C 14.112033148265029 27.991659338850813  14.112033148265029 30.664911909285895  13.777187175729308 33.33566471679456  C 13.444813630155847 35.99617459328797  15.784065298088342 41.000608517124924  16.111188751840878 42.66793514655203  C 16.453818290739097 44.33271628568209  20.12506709171757 46.34467486489612  20.454876638959906 47.67491456068593  C 20.454876638959906 47.67491456068593  23.796193797537413 50.67757186649678  24.803478856213694 52.67425750392901  C 25.8005994929343 54.678564369795254  26.46266049059147 58.34768285970536  28.809543105938232 57.01229121349417  C 31.1437278247878 55.682036275247555  33.1429139521533 56.68290172057528  32.47569443404401 57.67107019933199  C 31.810977866686695 58.67957211555064  30.471380310016155 61.34521870000854  30.139037288232295 63.0125148445219  C 29.80413026811726 64.68747794483988  30.471380310016155 66.67904211676448  31.473537372030084 69.01016250033894  C 32.47569443404401 71.35151057247181  35.477007099633845 73.01879147452829  35.477007099633845 73.01879147452829  C 35.477007099633845 73.01879147452829  34.14256806341531 73.01879147452829  31.810977866686695 73.35584792325187  C 29.479448717537327 73.68522217371384  29.80413026811726 74.02483935519123  29.479448717537327 76.69044021227852  C 29.139505272128858 79.35351082152567  31.810977866686695 82.02424838657753  34.14256806341531 83.35959430541811  C 36.48691720422056 84.68991021349225  37.82651476089104 86.35719111554874  40.15294643716771 87.69252179193248  C 42.49726505418329 89.02280721509291  40.15294643716771 92.3599754793303  37.156700720660965 93.02129995546508  C 34.14256806341531 93.69792785829533  33.815322514504146 94.36170636998581  35.82220063686318 95.35752656209029  C 37.82651476089104 96.35840724987494  36.81663518009398 99.36103407077199  36.48691720422056 101.03089094803919  C 36.15201018410552 102.70332380051707  37.48651026790331 104.03101800600994  39.49332734268309 105.69832939298013  C 41.49257451762785 107.36559505257969  42.16244960543729 108.03714721727299  41.82751206153254 109.03543668739  C 41.49257451762785 110.03631737517466  38.48356985704454 110.03631737517466  37.48651026790331 111.03975879571314  C 36.48691720422056 112.03553326044701  35.82220063686318 114.37435108473987  38.82094930412184 115.03564507596083  C 41.82751206153254 115.70459078052968  40.15294643716771 118.37793480570593  38.82094930412184 120.37458995822445  C 37.48651026790331 122.37638181870746  36.81663518009398 123.04016033039802  34.14256806341531 123.37467128882456  C 31.473537372030084 123.70659102958356  30.811384803003943 125.04454340854858  32.47569443404401 126.7117938256913  C 34.14256806341531 128.37913569757526  34.14256806341531 129.37489491985224  31.473537372030084 130.70775631822335  C 28.809543105938232 132.04058723168075  27.137633051273546 131.04479752449  24.45584341581181 131.70860652109434  C 21.79697714638231 132.37756746811996  16.111188751840878 132.04058723168075  13.115034606703166 132.37756746811996  C 10.103374376419659 132.71716940714046  9.10121731440573 133.37850912573205  7.436907683365605 135.71469000498675  C 5.757214062338479 138.04331062563477  5.757214062338479 137.38200139195692  3.093311367615543 137.38200139195692  C 0.42180824926810656 137.38200139195692  0.7540902234726516 136.04157973497922  0.08690122915307182 138.37779109914763  C -0.5829128110769977 140.71918489865115  2.766096342494036 141.72262631918963  5.097686539222713 142.72094627422047  C 7.436907683365605 143.71923574433754  7.099528236288421 144.38054497801542  5.757214062338479 146.05041709773954  C 4.4279030227823 147.71513726704217  5.757214062338479 148.05470872114887  7.766686706818287 149.72198962320533  C 9.77356482917732 151.38677076233543  8.104157725264498 153.72048236357747  6.102468647147131 155.72483495681433  C 4.098093475539961 157.7265658474699  3.758088982552231 157.7265658474699  2.766096342494036 160.3922276743847  C 1.75624728548658 163.06041974913953  3.4256849131891154 166.72437104617137  4.098093475539961 168.73378413508846  C 4.765374041228511 170.72539403438367  6.769688165256368 172.73221590563313  8.776505240036142 174.39952729260332  C 10.773127369070473 176.06930795758615  10.43831192032435 179.0669200101737  10.773127369070473 182.06447109293364  C 10.773127369070473 182.06447109293364  11.711398139332543 185.05949192785357  11.711398139332543 185.05949192785357  C 11.977321394823079 184.67391873891899  12.324987359014681 184.41610782345253  13.222356251136677 184.51823228446864  C 15.224136900622955 184.73772366336877  18.562890060869286 183.63218826672792  20.12506709171757 184.07129296418316  C 21.68452750528645 184.51823228446864  23.471542770747085 184.51823228446864  24.570857055238843 185.40162411471417  C 25.688088804259067 186.29272862813502  26.5751711792667 188.08255888341074  27.9148603073061 187.85023335582773  C 29.24939091489354 187.6280897894325  29.471726198754087 188.07743741790307  30.5915524698952 188.07743741790307  C 31.693369705138768 188.07743741790307  33.035531260140424 191.18223442718684  30.5915524698952 191.404377993582  C 28.134692640414837 191.6315820556574  28.35452497352346 192.51756510357052  29.24939091489354 193.85036553211418  C 30.139037288232295 195.18325741539903  32.3683422658209 196.74326190601806  32.59067754968145 197.6343664194389  C 32.813073881121255 198.51781921951195  31.693369705138768 200.07785419504478  32.59067754968145 200.9689282235518  C 33.48288792135132 201.8575329740463  34.81485453060759 203.8592943496156  34.81485453060759 204.96742096392398  C 34.81485453060759 204.96742096392398  34.81485453060759 209.41526133276673  34.81485453060759 209.41526133276673  C 34.81485453060759 210.97279654537314  35.477007099633845 212.30306672607662  36.58911085199171 212.75494460238735  C 37.71153164525366 213.19414075458374  38.82094930412184 213.19414075458374  40.59523614929562 212.53283152090583  C 42.38490698445646 211.86124887129895  42.60470879377543 211.1948791419408  43.93917835378362 211.86124887129895  C 45.27621191212286 212.53283152090583  47.73310226539294 214.09036673351227  48.84523654154052 214.52175874779223  C 49.95477629556727 214.97628881159795  50.841828146785254 215.19078066464536  51.95390137535347 214.52175874779223  C 53.07119417195306 213.857949751188  53.07119417195306 215.19078066464536  54.18067287840049 214.97628881159795  C 55.29540167666892 214.74905426460882  55.29540167666892 213.63580618479278  56.854770518868825 213.857949751188  C 58.421983975010484 214.08524526800457  58.63922178599828 215.42307570731467  60.42123114995525 214.97628881159795  C 62.19808199346021 214.52175874779223  62.19808199346021 213.857949751188  63.30496617778682 213.857949751188  C 64.41960340468626 213.857949751188  63.537587978761714 215.42307570731467  65.09204249082688 215.64781049137744  C 66.64899995364384 215.8622718595111  67.31618894796335 216.08194614789372  69.0956037897995 216.31424119056305  C 70.88258853147052 216.53376305437686  71.09991791382735 218.08361606872177  70.4326068243492 219.20460731662678  C 69.76279278411913 220.3050212477599  69.98521963934859 220.97651244262565  71.54468005291741 221.64544290473762  C 73.10169856331368 222.31440385176327  73.32916184383657 222.52636545697055  73.99644240952519 223.86175710318176  C 74.66616487838624 225.20470900799953  75.10341816522072 225.64902662570364  76.44564076780168 226.53500967361683  C 77.78273537372036 227.42864443487775  78.22490299068953 227.42864443487775  76.44564076780168 229.42528434493937  C 74.66616487838624 231.42701523559495  74.21627474263381 234.5370251651276  73.10169856331368 234.5370251651276  C 71.98437524292443 234.5370251651276  71.32484771980873 234.0902382694109  69.98521963934859 234.976221317324  C 68.65334460146128 235.87753827684645  68.21355784008529 236.31158247862146  69.54296045101039 237.43245178687155  C 70.88258853147052 238.53798718351237  72.6543419021028 238.97718333570876  73.99644240952519 239.21213056587314  C 75.32581449666063 239.43674341028094  77.11536323666283 240.32275694310783  77.55514999803883 241.65808761949157  C 78.0000037084978 242.9781148691798  79.33200084154379 244.76291511368905  78.22490299068953 245.65654987495  C 77.11536323666283 246.5425938926907  75.77836020211313 246.76723722201217  75.99822305901147 248.10259838330967  C 76.21805539212015 249.435429296767  76.89037238310208 250.09673853044492  77.78273537372036 250.76832118005188  C 78.66716217902773 251.43469090941002  80.6715373506349 252.7648696353723  82.00606795822235 252.3257954228308  C 83.348229513224 251.8840080529668  86.01219325552626 250.99543378738605  87.34666281553432 250.99543378738605  C 88.69144941644653 250.99543378738605  89.35872998213502 252.5504692370661  90.69313849456384 252.5504692370661  C 92.0276691021513 252.5504692370661  93.58981560920991 252.3257954228308  94.47433398588632 252.10362137152188  C 95.36404140680439 251.8840080529668  95.81139806801528 254.1002307966698  96.48115106066602 254.98886603207805  C 97.14592867560278 255.8875308041054  98.26059642629183 257.2152402520552  99.59512703387927 257.6595273848455  C 100.9295965938874 258.0961323193744  100.7046057403267 259.661380215156  102.49681005002905 259.44423617461354  C 104.2760722729169 259.21962333020576  107.61232248241139 259.44423617461354  108.7244262347693 258.77283643448897  C 109.83402703637537 258.0961323193744  111.17106059471469 256.9930966856599  112.27550287586874 257.8842316839945  C 113.39783209776171 258.77283643448897  114.5124388008715 261.66058085797147  116.51678344868901 261.66058085797147  C 118.5185640981754 261.66058085797147  119.40317404622073 262.3295418049971  120.07552156099236 263.88957678052986  C 120.74277160289125 265.4419905276286  121.63495145077148 267.66845620234693  123.41686924335947 267.88547830323444  C 125.19109504095393 268.1126518803961  126.08596098232402 268.7791130644954  127.64285739756173 267.88547830323444  C 129.20237885870984 266.99943428549386  130.761900319858 266.7799429065937  131.42652531584633 267.88547830323444  C 132.09893387819724 269.00381736364443  132.9834827786633 270.3339960896068  133.88076009941628 269.6651265973223  C 134.76537004746163 269.00381736364443  135.42749209269817 267.4488428837918  136.32739445936164 267.4488428837918  C 137.21966587861087 267.4488428837918  137.88957149021 268.3322651989512  138.10162025695612 269.00381736364443  C 138.3266111105168 269.6651265973223  138.99901967286772 271.66938773581796  140.5533520897742 270.7731922418032  C 142.112812503343 269.8872091938901  141.22316613000424 269.44045278308704  141.88788269736162 267.88547830323444  C 142.56288578183342 266.3305038233819  142.56288578183342 266.1134817224943  143.8871298723065 264.9951426620844  C 145.22669690518725 263.88957678052986  146.12662979564038 262.5516244015648  145.8915050439136 261.2162632402673  C 145.67405356639816 259.8860845143051  143.67999543569502 260.1056673479464  143.22241330494907 258.77283643448897  C 142.78274863873168 257.43482308569645  142.112812503343 256.10455290499294  143.22241330494907 254.76925271352297  C 143.8487309449181 254.0135012170905  144.69237796724397 252.56833339651547  145.2983362395119 251.44734214861046  C 142.95661214461714 251.75895893682122  138.669240649415 250.76832118005188  139.66376676401475 249.435429296767  C 140.6632682563285 248.10259838330967  139.66376676401475 246.43534796616694  138.3266111105168 246.43534796616694  C 136.99467502505019 246.43534796616694  139.33130164707225 242.76371447087357  137.6619250669491 240.76195309530428  C 135.99761543590895 238.76522173050145  136.32739445936164 237.43245178687155  137.33205447212742 236.42641914866547  C 138.3266111105168 235.4306599263885  137.6619250669491 234.0902382694109  136.99467502505019 232.76246785163363  C 136.32739445936164 231.42701523559495  134.66317639969049 232.76246785163363  133.99082888491895 229.42528434493937  C 133.32864579210306 226.08816180807258  131.31917314762316 224.08636994758956  133.32864579210306 223.09061072531262  C 135.32783191946857 222.09232125519551  136.99467502505019 221.76037102952276  135.99761543590895 218.74751652006725  C 134.98523290435998 215.7550869028149  132.9834827786633 213.0893945909864  134.32564433366494 211.7540943995164  C 135.65761094292122 210.41361177271125  134.98523290435998 208.4092896643881  133.32864579210306 208.4092896643881  C 131.6541412153175 208.4092896643881  131.6541412153175 207.42112118563142  132.65623722975215 205.08740958438938  C 133.65070229677255 202.74348553704576  134.32564433366494 202.74348553704576  134.98523290435998 201.74516558201492  C 135.65761094292122 200.74428489423028  135.99761543590895 198.07868403714298  135.65761094292122 196.74326190601806  C 135.32783191946857 195.4104614774744  137.6619250669491 194.40445932418208  137.9942986125226 193.4087001019051  C 138.3266111105168 192.40781941412044  138.3266111105168 190.73803874913764  139.33130164707225 190.076699030546  C 140.33355028045523 189.41285954902798  139.66376676401475 191.73626724942724  141.33570734246914 191.404377993582  C 143.0000169735092 191.072458252823  143.0000169735092 190.4035277907111  144.00479908143362 189.41285954902798  C 145.00430057374746 188.40935715866206  145.67405356639816 186.7395764936792  148.01596080403084 186.7395764936792  C 150.35261794984257 186.7395764936792  153.6888986831267 186.07317627940742  153.6888986831267 186.07317627940742  C 153.6888986831267 186.07317627940742  154.3535847266944 184.73772366336877  156.36052389663274 184.73772366336877  C 158.36737149520218 184.73772366336877  158.36737149520218 186.07317627940742  159.36693403509523 186.07317627940742  C 160.36915214468846 186.07317627940742  161.0389967087082 185.40162411471417  162.37352731629565 184.40330415968333  C 163.70546340176224 183.3998932240586  164.04293442020844 183.3998932240586  165.3799374547581 183.0704122763985  C 166.71187354022473 182.73087130720546  167.70893312936596 182.73087130720546  169.04602773528455 182.73087130720546  C 170.39072276482776 182.73087130720546  171.05287533385393 182.73087130720546  172.39000046356227 180.73670067515647  C 173.7219365490289 178.73759148708223  174.39428406380043 176.73832987443927  176.06628568983413 176.40125818325888  C 177.73059532087422 176.06930795758615  177.73059532087422 177.73661934455635  179.73493996869172 177.40213887104355  C 181.73672061817805 177.06506717986315  182.41160160749115 176.73832987443927  183.74607116749937 175.07101848746905  C 185.07550430221403 173.39864660481865  186.74756697582703 172.73221590563313  188.41181555928787 173.39864660481865  C 190.08891465819423 174.06501633417676  189.0790045536074 176.73832987443927  190.7587592222139 176.73832987443927  C 192.42050485492285 176.73832987443927  194.09757343003955 178.07122175772412  195.75925801516925 176.40125818325888  C 197.4288177380303 174.72888630060845  198.43857522366878 173.05910563562563  199.43050681614767 173.39864660481865  C 200.44285882390696 173.73824854383915  200.10029033258806 176.73832987443927  201.4348819877548 176.73832987443927  C 202.63898444213854 176.73832987443927  203.02755228447032 176.47018457321627  203.82516943199363 177.14432795557707  C 204.4949834722237 176.442138452579  205.47415612062602 175.55362515682575  206.7857328383915 174.72888630060845  C 209.45213848386624 173.05910563562563  211.1189815894479 172.73221590563313  212.45613724294589 170.72539403438367  C 213.79060680295396 168.73378413508846  214.7978918616302 166.06050107973965  213.12335676105505 165.05962039195498  C 211.45648313168377 164.0612699520105  210.45179259512832 162.0594780915274  211.45648313168377 160.06283818146576  C 212.45613724294589 158.05857704297011  212.79351669002307 156.05928494541345  211.45648313168377 155.05837377271504  C 210.1219220003067 154.05493235217656  208.44747847110048 153.0566428820595  208.79010800999873 151.38677076233543  C 209.11726198754087 149.72198962320533  209.7870455039813 145.38651664639403  205.4485771848936 146.71425657925752  C 201.1076364388437 148.05470872114887  198.10116525280193 146.05041709773954  199.43050681614767 144.72014691703592  C 200.7700433252389 143.38478575573845  199.10063622132606 143.05801796540092  197.099008190788 143.05801796540092  C 195.09966944447416 143.05801796540092  194.42732192970263 142.72094627422047  194.09757343003955 141.0485743915701  C 193.76013293538298 139.37867178693227  193.09031889515293 137.71904259822358  191.42344526578162 139.04934326384085  C 189.74634616687527 140.3821436923845  186.74756697582703 141.72262631918963  185.75554381197915 138.71227157266046  C 184.74575580255103 135.71469000498675  183.74607116749937 136.04157973497922  182.06396616708926 136.38627265459368  C 180.4021900105906 136.71560117768507  178.39790641035242 135.38277026422776  177.39052978030722 134.0474091029303  C 176.39606471328682 132.71716940714046  175.0564671566163 134.38445030919695  174.06456608792706 133.0465589000593  C 173.05215303258842 131.70860652109434  174.39428406380043 130.03873440137022  172.39000046356227 130.70775631822335  C 170.39072276482776 131.37412604758148  168.72146827986322 133.0465589000593  166.0395260254531 134.38445030919695  C 163.37302880860946 135.71469000498675  161.7037437998553 137.04242993785013  160.03162007866294 134.71383980211579  C 158.36737149520218 132.37756746811996  156.69796439128936 131.04479752449  156.0255558289384 129.70937539336506  C 155.36593673445373 128.37913569757526  153.35649461376352 129.04297517909325  153.35649461376352 129.04297517909325  C 153.35649461376352 129.04297517909325  153.0217096888071 132.04058723168075  151.6845540353092 131.37412604758148  C 150.35261794984257 130.70775631822335  144.67711607241557 127.04377453627778  144.67711607241557 127.04377453627778  C 144.67711607241557 127.04377453627778  143.33739642058646 126.7117938256913  142.343022924935 124.04366272076392  C 141.33570734246914 121.37289467079837  138.99901967286772 121.03842943974243  137.9942986125226 119.71071999179276  C 136.99467502505019 118.37793480570593  134.66317639969049 116.36846074696138  133.99082888491895 114.03730987847321  C 133.32864579210306 111.7087654701094  133.32864579210306 110.03631737517466  134.98523290435998 108.03714721727299  C 136.65723453039362 106.03020340636851  136.99467502505019 107.03626652948834  138.3266111105168 106.03020340636851  C 139.66376676401475 105.03188345133769  137.33205447212742 104.03101800600994  135.99761543590895 102.70332380051707  C 134.66317639969049 101.36791691184895  134.98523290435998 100.03511648330532  135.65761094292122 96.69543321368471  C 136.32739445936164 93.36594714770882  138.6666461272942 92.3599754793303  138.99901967286772 90.69519434020016  C 139.33130164707225 89.02280721509291  138.3266111105168 87.69252179193248  137.9942986125226 85.69330590666011  C 137.6619250669491 83.68642306558314  137.33205447212742 78.02324064082217  138.6666461272942 76.35083827325802  C 140.00123778246095 74.68616383132598  141.6680808880426 72.68944770898005  140.33355028045523 71.35151057247181  C 138.99901967286772 70.01869490147128  137.6619250669491 71.68603677335527  135.99761543590895 70.68254962544616  C 134.32564433366494 69.6816536952046  134.98523290435998 66.34710713354856  133.99082888491895 66.01774812554339  C 132.9834827786633 65.68323716711686  132.9834827786633 65.68323716711686  131.6541412153175 67.01605283811732  C 130.31445208727806 68.34885326666097  127.97776441767675 70.35064512714409  127.64285739756173 68.34885326666097  C 127.3079503774467 66.34710713354856  127.97776441767675 66.34710713354856  128.64757845790683 65.34872620869024  C 129.30970050314338 64.3478455209056  125.96841386835547 64.0159562650604  125.96841386835547 64.0159562650604  C 125.96841386835547 64.0159562650604  126.3084183613432 62.68315583651675  126.978171353994 60.67622726806918  C 127.64285739756173 58.67957211555064  126.978171353994 55.34499506898089  127.64285739756173 54.34665987149315  C 128.3127630091607 53.34320320849777  130.31445208727806 53.006146759774296  130.9817326529666 52.00278155152015  C 131.6541412153175 51.00696135941564  132.65623722975215 48.34392123508219  130.9817326529666 45.00163150533714  C 129.30970050314338 41.66705445876738  127.97776441767675 40.33423878776684  128.98251600181146 38.67204886630431  C 129.98461201624607 36.99710100844325  128.98251600181146 35.99617459328797  128.64757845790683 34.66595013995497  C 128.3127630091607 33.33566471679456  129.64198247734785 31.99774282274325  131.31917314762316 31.004544333220103  C 132.9834827786633 29.998526937470974  132.31614116539544 27.991659338850813  131.6541412153175 26.326923927091364  C 130.9817326529666 24.667279495925765  127.97776441767675 20.993100510335427  126.64079190691669 20.663741502330268  C 125.30363625341884 20.329261028817438  125.30363625341884 22.325916181335966  123.63929609858899 22.997453103572383  C 121.96738604392435 23.663853317844204  122.3022930640394 21.33011123168838  121.63495145077148 19.992219822550776  C 120.96767088508298 18.659404151550323  120.96767088508298 20.663741502330268  118.9583203357617 20.329261028817438  C 116.95657021006501 19.992219822550776  113.96026344597901 19.325804365822144  112.95303943488197 19.662845572088806  C 111.9508518490784 19.992219822550776  107.61232248241139 20.329261028817438  104.94344440997443 18.996445357816985  C 102.27181919646837 17.65343248317171  99.26018948997458 16.989577759196823  98.59034492595485 15.991227319252303  C 97.92056140951443 14.992861636850884  98.59034492595485 13.65493974279957  99.26018948997458 12.322169799169634  C 99.92743953187347 10.989338885712284  97.92056140951443 9.990988445767732  96.25103221044299 10.989338885712284  C 94.58934762531335 11.987643598286288  93.57952909209561 8.323677058797553  93.57952909209561 8.323677058797553  C 91.91521946105543 6.314248727423559  91.25056394127742 5.982344229121462  89.57593726933322 6.99089187271072  C 87.90656068921005 7.986681579901521  86.57212165299164 8.984986292475414  86.23458958696605 6.99089187271072  C 85.90221604139255 4.989100012227713  85.57234544657089 4.989100012227713  83.90299939023744 4.659741004222554  C 82.23111985936235 4.322684555498995  82.23111985936235 3.3166976446635705  82.90593980109614 1.9864579488737626  C 83.53237953622381 0.722599152744379  82.65543105938238 0.061305161523330876  80.85819032438664 0  C 79.94546796606724 0.9753648149874801  78.88961955804692 2.241799586327595  78.88961955804692 2.989914611869144  Z " fill-rule="nonzero" fill="#ffff80" stroke="none" transform="matrix(1 0 0 1 3112 292 )" />
    <path d="M 78.88961955804692 2.989914611869144  C 78.88961955804692 4.322684555498995  77.22530992700678 5.323595728197437  76.21805539212015 5.982344229121462  C 75.2210568505583 6.653835423987246  73.54902470073492 4.989100012227713  73.54902470073492 4.989100012227713  C 73.54902470073492 4.989100012227713  72.55196511159369 8.658203259681013  71.21239807871287 10.659979877707126  C 69.87524242521499 12.659165278065778  72.55196511159369 13.994541681820069  70.88258853147052 14.318840194145057  C 69.20802290710569 14.658396405794953  68.21355784008529 15.661853068790247  66.53392526663743 16.989577759196823  C 64.8695851118077 18.32236294528366  62.86270698944867 19.325804365822144  61.528176381861165 20.663741502330268  C 60.193645774273726 21.993965955663263  58.52170519581938 21.993965955663263  56.182453527886835 22.665518120356463  C 53.84826880903733 23.326812111577542  54.18067287840049 22.997453103572383  52.84870626914429 23.326812111577542  C 51.503980715811394 23.663853317844204  48.84523654154052 20.993100510335427  46.83829737160218 19.992219822550776  C 44.83657776969521 18.996445357816985  44.50676822245281 19.992219822550776  43.494355167114186 20.663741502330268  C 42.49726505418329 21.33011123168838  40.15294643716771 18.659404151550323  40.15294643716771 18.659404151550323  C 40.15294643716771 18.659404151550323  35.477007099633845 19.325804365822144  33.1429139521533 19.662845572088806  C 30.811384803003943 19.992219822550776  31.1437278247878 22.665518120356463  30.139037288232295 24.330268774572836  C 29.139505272128858 25.989882720824703  28.469538612950505 26.326923927091364  26.13800946380114 27.32524388212218  C 23.796193797537413 28.32871578757437  20.792286609826803 27.32524388212218  17.450877879880387 27.662300330845653  C 14.112033148265029 27.991659338850813  14.112033148265029 30.664911909285895  13.777187175729308 33.33566471679456  C 13.444813630155847 35.99617459328797  15.784065298088342 41.000608517124924  16.111188751840878 42.66793514655203  C 16.453818290739097 44.33271628568209  20.12506709171757 46.34467486489612  20.454876638959906 47.67491456068593  C 20.454876638959906 47.67491456068593  23.796193797537413 50.67757186649678  24.803478856213694 52.67425750392901  C 25.8005994929343 54.678564369795254  26.46266049059147 58.34768285970536  28.809543105938232 57.01229121349417  C 31.1437278247878 55.682036275247555  33.1429139521533 56.68290172057528  32.47569443404401 57.67107019933199  C 31.810977866686695 58.67957211555064  30.471380310016155 61.34521870000854  30.139037288232295 63.0125148445219  C 29.80413026811726 64.68747794483988  30.471380310016155 66.67904211676448  31.473537372030084 69.01016250033894  C 32.47569443404401 71.35151057247181  35.477007099633845 73.01879147452829  35.477007099633845 73.01879147452829  C 35.477007099633845 73.01879147452829  34.14256806341531 73.01879147452829  31.810977866686695 73.35584792325187  C 29.479448717537327 73.68522217371384  29.80413026811726 74.02483935519123  29.479448717537327 76.69044021227852  C 29.139505272128858 79.35351082152567  31.810977866686695 82.02424838657753  34.14256806341531 83.35959430541811  C 36.48691720422056 84.68991021349225  37.82651476089104 86.35719111554874  40.15294643716771 87.69252179193248  C 42.49726505418329 89.02280721509291  40.15294643716771 92.3599754793303  37.156700720660965 93.02129995546508  C 34.14256806341531 93.69792785829533  33.815322514504146 94.36170636998581  35.82220063686318 95.35752656209029  C 37.82651476089104 96.35840724987494  36.81663518009398 99.36103407077199  36.48691720422056 101.03089094803919  C 36.15201018410552 102.70332380051707  37.48651026790331 104.03101800600994  39.49332734268309 105.69832939298013  C 41.49257451762785 107.36559505257969  42.16244960543729 108.03714721727299  41.82751206153254 109.03543668739  C 41.49257451762785 110.03631737517466  38.48356985704454 110.03631737517466  37.48651026790331 111.03975879571314  C 36.48691720422056 112.03553326044701  35.82220063686318 114.37435108473987  38.82094930412184 115.03564507596083  C 41.82751206153254 115.70459078052968  40.15294643716771 118.37793480570593  38.82094930412184 120.37458995822445  C 37.48651026790331 122.37638181870746  36.81663518009398 123.04016033039802  34.14256806341531 123.37467128882456  C 31.473537372030084 123.70659102958356  30.811384803003943 125.04454340854858  32.47569443404401 126.7117938256913  C 34.14256806341531 128.37913569757526  34.14256806341531 129.37489491985224  31.473537372030084 130.70775631822335  C 28.809543105938232 132.04058723168075  27.137633051273546 131.04479752449  24.45584341581181 131.70860652109434  C 21.79697714638231 132.37756746811996  16.111188751840878 132.04058723168075  13.115034606703166 132.37756746811996  C 10.103374376419659 132.71716940714046  9.10121731440573 133.37850912573205  7.436907683365605 135.71469000498675  C 5.757214062338479 138.04331062563477  5.757214062338479 137.38200139195692  3.093311367615543 137.38200139195692  C 0.42180824926810656 137.38200139195692  0.7540902234726516 136.04157973497922  0.08690122915307182 138.37779109914763  C -0.5829128110769977 140.71918489865115  2.766096342494036 141.72262631918963  5.097686539222713 142.72094627422047  C 7.436907683365605 143.71923574433754  7.099528236288421 144.38054497801542  5.757214062338479 146.05041709773954  C 4.4279030227823 147.71513726704217  5.757214062338479 148.05470872114887  7.766686706818287 149.72198962320533  C 9.77356482917732 151.38677076233543  8.104157725264498 153.72048236357747  6.102468647147131 155.72483495681433  C 4.098093475539961 157.7265658474699  3.758088982552231 157.7265658474699  2.766096342494036 160.3922276743847  C 1.75624728548658 163.06041974913953  3.4256849131891154 166.72437104617137  4.098093475539961 168.73378413508846  C 4.765374041228511 170.72539403438367  6.769688165256368 172.73221590563313  8.776505240036142 174.39952729260332  C 10.773127369070473 176.06930795758615  10.43831192032435 179.0669200101737  10.773127369070473 182.06447109293364  C 10.773127369070473 182.06447109293364  11.711398139332543 185.05949192785357  11.711398139332543 185.05949192785357  C 11.977321394823079 184.67391873891899  12.324987359014681 184.41610782345253  13.222356251136677 184.51823228446864  C 15.224136900622955 184.73772366336877  18.562890060869286 183.63218826672792  20.12506709171757 184.07129296418316  C 21.68452750528645 184.51823228446864  23.471542770747085 184.51823228446864  24.570857055238843 185.40162411471417  C 25.688088804259067 186.29272862813502  26.5751711792667 188.08255888341074  27.9148603073061 187.85023335582773  C 29.24939091489354 187.6280897894325  29.471726198754087 188.07743741790307  30.5915524698952 188.07743741790307  C 31.693369705138768 188.07743741790307  33.035531260140424 191.18223442718684  30.5915524698952 191.404377993582  C 28.134692640414837 191.6315820556574  28.35452497352346 192.51756510357052  29.24939091489354 193.85036553211418  C 30.139037288232295 195.18325741539903  32.3683422658209 196.74326190601806  32.59067754968145 197.6343664194389  C 32.813073881121255 198.51781921951195  31.693369705138768 200.07785419504478  32.59067754968145 200.9689282235518  C 33.48288792135132 201.8575329740463  34.81485453060759 203.8592943496156  34.81485453060759 204.96742096392398  C 34.81485453060759 204.96742096392398  34.81485453060759 209.41526133276673  34.81485453060759 209.41526133276673  C 34.81485453060759 210.97279654537314  35.477007099633845 212.30306672607662  36.58911085199171 212.75494460238735  C 37.71153164525366 213.19414075458374  38.82094930412184 213.19414075458374  40.59523614929562 212.53283152090583  C 42.38490698445646 211.86124887129895  42.60470879377543 211.1948791419408  43.93917835378362 211.86124887129895  C 45.27621191212286 212.53283152090583  47.73310226539294 214.09036673351227  48.84523654154052 214.52175874779223  C 49.95477629556727 214.97628881159795  50.841828146785254 215.19078066464536  51.95390137535347 214.52175874779223  C 53.07119417195306 213.857949751188  53.07119417195306 215.19078066464536  54.18067287840049 214.97628881159795  C 55.29540167666892 214.74905426460882  55.29540167666892 213.63580618479278  56.854770518868825 213.857949751188  C 58.421983975010484 214.08524526800457  58.63922178599828 215.42307570731467  60.42123114995525 214.97628881159795  C 62.19808199346021 214.52175874779223  62.19808199346021 213.857949751188  63.30496617778682 213.857949751188  C 64.41960340468626 213.857949751188  63.537587978761714 215.42307570731467  65.09204249082688 215.64781049137744  C 66.64899995364384 215.8622718595111  67.31618894796335 216.08194614789372  69.0956037897995 216.31424119056305  C 70.88258853147052 216.53376305437686  71.09991791382735 218.08361606872177  70.4326068243492 219.20460731662678  C 69.76279278411913 220.3050212477599  69.98521963934859 220.97651244262565  71.54468005291741 221.64544290473762  C 73.10169856331368 222.31440385176327  73.32916184383657 222.52636545697055  73.99644240952519 223.86175710318176  C 74.66616487838624 225.20470900799953  75.10341816522072 225.64902662570364  76.44564076780168 226.53500967361683  C 77.78273537372036 227.42864443487775  78.22490299068953 227.42864443487775  76.44564076780168 229.42528434493937  C 74.66616487838624 231.42701523559495  74.21627474263381 234.5370251651276  73.10169856331368 234.5370251651276  C 71.98437524292443 234.5370251651276  71.32484771980873 234.0902382694109  69.98521963934859 234.976221317324  C 68.65334460146128 235.87753827684645  68.21355784008529 236.31158247862146  69.54296045101039 237.43245178687155  C 70.88258853147052 238.53798718351237  72.6543419021028 238.97718333570876  73.99644240952519 239.21213056587314  C 75.32581449666063 239.43674341028094  77.11536323666283 240.32275694310783  77.55514999803883 241.65808761949157  C 78.0000037084978 242.9781148691798  79.33200084154379 244.76291511368905  78.22490299068953 245.65654987495  C 77.11536323666283 246.5425938926907  75.77836020211313 246.76723722201217  75.99822305901147 248.10259838330967  C 76.21805539212015 249.435429296767  76.89037238310208 250.09673853044492  77.78273537372036 250.76832118005188  C 78.66716217902773 251.43469090941002  80.6715373506349 252.7648696353723  82.00606795822235 252.3257954228308  C 83.348229513224 251.8840080529668  86.01219325552626 250.99543378738605  87.34666281553432 250.99543378738605  C 88.69144941644653 250.99543378738605  89.35872998213502 252.5504692370661  90.69313849456384 252.5504692370661  C 92.0276691021513 252.5504692370661  93.58981560920991 252.3257954228308  94.47433398588632 252.10362137152188  C 95.36404140680439 251.8840080529668  95.81139806801528 254.1002307966698  96.48115106066602 254.98886603207805  C 97.14592867560278 255.8875308041054  98.26059642629183 257.2152402520552  99.59512703387927 257.6595273848455  C 100.9295965938874 258.0961323193744  100.7046057403267 259.661380215156  102.49681005002905 259.44423617461354  C 104.2760722729169 259.21962333020576  107.61232248241139 259.44423617461354  108.7244262347693 258.77283643448897  C 109.83402703637537 258.0961323193744  111.17106059471469 256.9930966856599  112.27550287586874 257.8842316839945  C 113.39783209776171 258.77283643448897  114.5124388008715 261.66058085797147  116.51678344868901 261.66058085797147  C 118.5185640981754 261.66058085797147  119.40317404622073 262.3295418049971  120.07552156099236 263.88957678052986  C 120.74277160289125 265.4419905276286  121.63495145077148 267.66845620234693  123.41686924335947 267.88547830323444  C 125.19109504095393 268.1126518803961  126.08596098232402 268.7791130644954  127.64285739756173 267.88547830323444  C 129.20237885870984 266.99943428549386  130.761900319858 266.7799429065937  131.42652531584633 267.88547830323444  C 132.09893387819724 269.00381736364443  132.9834827786633 270.3339960896068  133.88076009941628 269.6651265973223  C 134.76537004746163 269.00381736364443  135.42749209269817 267.4488428837918  136.32739445936164 267.4488428837918  C 137.21966587861087 267.4488428837918  137.88957149021 268.3322651989512  138.10162025695612 269.00381736364443  C 138.3266111105168 269.6651265973223  138.99901967286772 271.66938773581796  140.5533520897742 270.7731922418032  C 142.112812503343 269.8872091938901  141.22316613000424 269.44045278308704  141.88788269736162 267.88547830323444  C 142.56288578183342 266.3305038233819  142.56288578183342 266.1134817224943  143.8871298723065 264.9951426620844  C 145.22669690518725 263.88957678052986  146.12662979564038 262.5516244015648  145.8915050439136 261.2162632402673  C 145.67405356639816 259.8860845143051  143.67999543569502 260.1056673479464  143.22241330494907 258.77283643448897  C 142.78274863873168 257.43482308569645  142.112812503343 256.10455290499294  143.22241330494907 254.76925271352297  C 143.8487309449181 254.0135012170905  144.69237796724397 252.56833339651547  145.2983362395119 251.44734214861046  C 142.95661214461714 251.75895893682122  138.669240649415 250.76832118005188  139.66376676401475 249.435429296767  C 140.6632682563285 248.10259838330967  139.66376676401475 246.43534796616694  138.3266111105168 246.43534796616694  C 136.99467502505019 246.43534796616694  139.33130164707225 242.76371447087357  137.6619250669491 240.76195309530428  C 135.99761543590895 238.76522173050145  136.32739445936164 237.43245178687155  137.33205447212742 236.42641914866547  C 138.3266111105168 235.4306599263885  137.6619250669491 234.0902382694109  136.99467502505019 232.76246785163363  C 136.32739445936164 231.42701523559495  134.66317639969049 232.76246785163363  133.99082888491895 229.42528434493937  C 133.32864579210306 226.08816180807258  131.31917314762316 224.08636994758956  133.32864579210306 223.09061072531262  C 135.32783191946857 222.09232125519551  136.99467502505019 221.76037102952276  135.99761543590895 218.74751652006725  C 134.98523290435998 215.7550869028149  132.9834827786633 213.0893945909864  134.32564433366494 211.7540943995164  C 135.65761094292122 210.41361177271125  134.98523290435998 208.4092896643881  133.32864579210306 208.4092896643881  C 131.6541412153175 208.4092896643881  131.6541412153175 207.42112118563142  132.65623722975215 205.08740958438938  C 133.65070229677255 202.74348553704576  134.32564433366494 202.74348553704576  134.98523290435998 201.74516558201492  C 135.65761094292122 200.74428489423028  135.99761543590895 198.07868403714298  135.65761094292122 196.74326190601806  C 135.32783191946857 195.4104614774744  137.6619250669491 194.40445932418208  137.9942986125226 193.4087001019051  C 138.3266111105168 192.40781941412044  138.3266111105168 190.73803874913764  139.33130164707225 190.076699030546  C 140.33355028045523 189.41285954902798  139.66376676401475 191.73626724942724  141.33570734246914 191.404377993582  C 143.0000169735092 191.072458252823  143.0000169735092 190.4035277907111  144.00479908143362 189.41285954902798  C 145.00430057374746 188.40935715866206  145.67405356639816 186.7395764936792  148.01596080403084 186.7395764936792  C 150.35261794984257 186.7395764936792  153.6888986831267 186.07317627940742  153.6888986831267 186.07317627940742  C 153.6888986831267 186.07317627940742  154.3535847266944 184.73772366336877  156.36052389663274 184.73772366336877  C 158.36737149520218 184.73772366336877  158.36737149520218 186.07317627940742  159.36693403509523 186.07317627940742  C 160.36915214468846 186.07317627940742  161.0389967087082 185.40162411471417  162.37352731629565 184.40330415968333  C 163.70546340176224 183.3998932240586  164.04293442020844 183.3998932240586  165.3799374547581 183.0704122763985  C 166.71187354022473 182.73087130720546  167.70893312936596 182.73087130720546  169.04602773528455 182.73087130720546  C 170.39072276482776 182.73087130720546  171.05287533385393 182.73087130720546  172.39000046356227 180.73670067515647  C 173.7219365490289 178.73759148708223  174.39428406380043 176.73832987443927  176.06628568983413 176.40125818325888  C 177.73059532087422 176.06930795758615  177.73059532087422 177.73661934455635  179.73493996869172 177.40213887104355  C 181.73672061817805 177.06506717986315  182.41160160749115 176.73832987443927  183.74607116749937 175.07101848746905  C 185.07550430221403 173.39864660481865  186.74756697582703 172.73221590563313  188.41181555928787 173.39864660481865  C 190.08891465819423 174.06501633417676  189.0790045536074 176.73832987443927  190.7587592222139 176.73832987443927  C 192.42050485492285 176.73832987443927  194.09757343003955 178.07122175772412  195.75925801516925 176.40125818325888  C 197.4288177380303 174.72888630060845  198.43857522366878 173.05910563562563  199.43050681614767 173.39864660481865  C 200.44285882390696 173.73824854383915  200.10029033258806 176.73832987443927  201.4348819877548 176.73832987443927  C 202.63898444213854 176.73832987443927  203.02755228447032 176.47018457321627  203.82516943199363 177.14432795557707  C 204.4949834722237 176.442138452579  205.47415612062602 175.55362515682575  206.7857328383915 174.72888630060845  C 209.45213848386624 173.05910563562563  211.1189815894479 172.73221590563313  212.45613724294589 170.72539403438367  C 213.79060680295396 168.73378413508846  214.7978918616302 166.06050107973965  213.12335676105505 165.05962039195498  C 211.45648313168377 164.0612699520105  210.45179259512832 162.0594780915274  211.45648313168377 160.06283818146576  C 212.45613724294589 158.05857704297011  212.79351669002307 156.05928494541345  211.45648313168377 155.05837377271504  C 210.1219220003067 154.05493235217656  208.44747847110048 153.0566428820595  208.79010800999873 151.38677076233543  C 209.11726198754087 149.72198962320533  209.7870455039813 145.38651664639403  205.4485771848936 146.71425657925752  C 201.1076364388437 148.05470872114887  198.10116525280193 146.05041709773954  199.43050681614767 144.72014691703592  C 200.7700433252389 143.38478575573845  199.10063622132606 143.05801796540092  197.099008190788 143.05801796540092  C 195.09966944447416 143.05801796540092  194.42732192970263 142.72094627422047  194.09757343003955 141.0485743915701  C 193.76013293538298 139.37867178693227  193.09031889515293 137.71904259822358  191.42344526578162 139.04934326384085  C 189.74634616687527 140.3821436923845  186.74756697582703 141.72262631918963  185.75554381197915 138.71227157266046  C 184.74575580255103 135.71469000498675  183.74607116749937 136.04157973497922  182.06396616708926 136.38627265459368  C 180.4021900105906 136.71560117768507  178.39790641035242 135.38277026422776  177.39052978030722 134.0474091029303  C 176.39606471328682 132.71716940714046  175.0564671566163 134.38445030919695  174.06456608792706 133.0465589000593  C 173.05215303258842 131.70860652109434  174.39428406380043 130.03873440137022  172.39000046356227 130.70775631822335  C 170.39072276482776 131.37412604758148  168.72146827986322 133.0465589000593  166.0395260254531 134.38445030919695  C 163.37302880860946 135.71469000498675  161.7037437998553 137.04242993785013  160.03162007866294 134.71383980211579  C 158.36737149520218 132.37756746811996  156.69796439128936 131.04479752449  156.0255558289384 129.70937539336506  C 155.36593673445373 128.37913569757526  153.35649461376352 129.04297517909325  153.35649461376352 129.04297517909325  C 153.35649461376352 129.04297517909325  153.0217096888071 132.04058723168075  151.6845540353092 131.37412604758148  C 150.35261794984257 130.70775631822335  144.67711607241557 127.04377453627778  144.67711607241557 127.04377453627778  C 144.67711607241557 127.04377453627778  143.33739642058646 126.7117938256913  142.343022924935 124.04366272076392  C 141.33570734246914 121.37289467079837  138.99901967286772 121.03842943974243  137.9942986125226 119.71071999179276  C 136.99467502505019 118.37793480570593  134.66317639969049 116.36846074696138  133.99082888491895 114.03730987847321  C 133.32864579210306 111.7087654701094  133.32864579210306 110.03631737517466  134.98523290435998 108.03714721727299  C 136.65723453039362 106.03020340636851  136.99467502505019 107.03626652948834  138.3266111105168 106.03020340636851  C 139.66376676401475 105.03188345133769  137.33205447212742 104.03101800600994  135.99761543590895 102.70332380051707  C 134.66317639969049 101.36791691184895  134.98523290435998 100.03511648330532  135.65761094292122 96.69543321368471  C 136.32739445936164 93.36594714770882  138.6666461272942 92.3599754793303  138.99901967286772 90.69519434020016  C 139.33130164707225 89.02280721509291  138.3266111105168 87.69252179193248  137.9942986125226 85.69330590666011  C 137.6619250669491 83.68642306558314  137.33205447212742 78.02324064082217  138.6666461272942 76.35083827325802  C 140.00123778246095 74.68616383132598  141.6680808880426 72.68944770898005  140.33355028045523 71.35151057247181  C 138.99901967286772 70.01869490147128  137.6619250669491 71.68603677335527  135.99761543590895 70.68254962544616  C 134.32564433366494 69.6816536952046  134.98523290435998 66.34710713354856  133.99082888491895 66.01774812554339  C 132.9834827786633 65.68323716711686  132.9834827786633 65.68323716711686  131.6541412153175 67.01605283811732  C 130.31445208727806 68.34885326666097  127.97776441767675 70.35064512714409  127.64285739756173 68.34885326666097  C 127.3079503774467 66.34710713354856  127.97776441767675 66.34710713354856  128.64757845790683 65.34872620869024  C 129.30970050314338 64.3478455209056  125.96841386835547 64.0159562650604  125.96841386835547 64.0159562650604  C 125.96841386835547 64.0159562650604  126.3084183613432 62.68315583651675  126.978171353994 60.67622726806918  C 127.64285739756173 58.67957211555064  126.978171353994 55.34499506898089  127.64285739756173 54.34665987149315  C 128.3127630091607 53.34320320849777  130.31445208727806 53.006146759774296  130.9817326529666 52.00278155152015  C 131.6541412153175 51.00696135941564  132.65623722975215 48.34392123508219  130.9817326529666 45.00163150533714  C 129.30970050314338 41.66705445876738  127.97776441767675 40.33423878776684  128.98251600181146 38.67204886630431  C 129.98461201624607 36.99710100844325  128.98251600181146 35.99617459328797  128.64757845790683 34.66595013995497  C 128.3127630091607 33.33566471679456  129.64198247734785 31.99774282274325  131.31917314762316 31.004544333220103  C 132.9834827786633 29.998526937470974  132.31614116539544 27.991659338850813  131.6541412153175 26.326923927091364  C 130.9817326529666 24.667279495925765  127.97776441767675 20.993100510335427  126.64079190691669 20.663741502330268  C 125.30363625341884 20.329261028817438  125.30363625341884 22.325916181335966  123.63929609858899 22.997453103572383  C 121.96738604392435 23.663853317844204  122.3022930640394 21.33011123168838  121.63495145077148 19.992219822550776  C 120.96767088508298 18.659404151550323  120.96767088508298 20.663741502330268  118.9583203357617 20.329261028817438  C 116.95657021006501 19.992219822550776  113.96026344597901 19.325804365822144  112.95303943488197 19.662845572088806  C 111.9508518490784 19.992219822550776  107.61232248241139 20.329261028817438  104.94344440997443 18.996445357816985  C 102.27181919646837 17.65343248317171  99.26018948997458 16.989577759196823  98.59034492595485 15.991227319252303  C 97.92056140951443 14.992861636850884  98.59034492595485 13.65493974279957  99.26018948997458 12.322169799169634  C 99.92743953187347 10.989338885712284  97.92056140951443 9.990988445767732  96.25103221044299 10.989338885712284  C 94.58934762531335 11.987643598286288  93.57952909209561 8.323677058797553  93.57952909209561 8.323677058797553  C 91.91521946105543 6.314248727423559  91.25056394127742 5.982344229121462  89.57593726933322 6.99089187271072  C 87.90656068921005 7.986681579901521  86.57212165299164 8.984986292475414  86.23458958696605 6.99089187271072  C 85.90221604139255 4.989100012227713  85.57234544657089 4.989100012227713  83.90299939023744 4.659741004222554  C 82.23111985936235 4.322684555498995  82.23111985936235 3.3166976446635705  82.90593980109614 1.9864579488737626  C 83.53237953622381 0.722599152744379  82.65543105938238 0.061305161523330876  80.85819032438664 0  C 79.94546796606724 0.9753648149874801  78.88961955804692 2.241799586327595  78.88961955804692 2.989914611869144  Z " stroke-width="2" stroke="#000000" fill="none" transform="matrix(1 0 0 1 3112 292 )" mask="url(#clip1106)" />
  </g>
</svg>