<?xml version="1.0" encoding="utf-8"?>
<svg version="1.1" xmlns:xlink="http://www.w3.org/1999/xlink" width="7px" height="18px" xmlns="http://www.w3.org/2000/svg">
  <g transform="matrix(1 0 0 1 -3177 -440 )">
    <path d="M 0 18.00000000000003  L 0 0  L 1.6785053216104193 0  C 1.6785053216104193 0  1.6785053216104193 6.459402926681921  1.6785053216104193 6.459402926681921  C 2.3810157334567332 5.587117520282207  3.549138130495141 4.789006410696363  4.341421795465062 4.789006410696363  C 6.023918324849607 4.789006410696363  7.000000000000054 5.7833713124768344  7.000000000000054 8.177889961151426  C 7.000000000000054 8.177889961151426  7.000000000000054 18.00000000000003  7.000000000000054 18.00000000000003  L 5.321494678389688 18.00000000000003  C 5.321494678389688 18.00000000000003  5.321494678389688 8.430820761321703  5.321494678389688 8.430820761321703  C 5.321494678389688 6.934779400661661  4.905020823692789 6.2848933380921945  3.9942156409070417 6.2848933380921945  C 3.173241554835724 6.2848933380921945  2.4300092549746024 6.886812428789135  1.6785053216104193 7.881300877180912  C 1.6785053216104193 7.881300877180912  1.6785053216104193 18.00000000000003  1.6785053216104193 18.00000000000003  L 0 18.00000000000003  Z " fill-rule="nonzero" fill="#7f7f7f" stroke="none" transform="matrix(1 0 0 1 3177 440 )" />
  </g>
</svg>